<?xml version="1.0" encoding="utf-8"?>
<!-- Generator: Adobe Illustrator 25.2.0, SVG Export Plug-In . SVG Version: 6.00 Build 0)  -->
<svg version="1.1" id="Layer_1" xmlns="http://www.w3.org/2000/svg" xmlns:xlink="http://www.w3.org/1999/xlink" x="0px" y="0px"
	 viewBox="0 0 1890 1080" style="enable-background:new 0 0 1890 1080;" xml:space="preserve">
<style type="text/css">
	.st0{fill:#111111;}
	.st1{opacity:0.3;}
	.st2{fill:none;stroke:#F2F2F2;stroke-width:3;stroke-miterlimit:10;}
	.st3{fill:none;stroke:#FFFFFF;stroke-width:9;stroke-miterlimit:10;}
	.st4{enable-background:new    ;}
	.st5{fill:#FFFFFF;}
	.st6{fill:#E5E5E5;}
	.st7{opacity:0.5;}
	.st8{fill:none;stroke:#FFFFFF;stroke-miterlimit:10;}
	.st9{fill:#FFFFFF;stroke:#FFFFFF;stroke-miterlimit:10;}
	.st10{fill:none;stroke:#FFFFFF;stroke-width:7;stroke-miterlimit:10;}
</style>
<g>
	<rect class="st0" width="1890" height="1080"/>
	<g class="st1">
		<g>
			<rect x="65.1" y="63.8" class="st2" width="92.8" height="92.9"/>
			<rect x="157.9" y="63.8" class="st2" width="92.8" height="92.9"/>
			<rect x="250.7" y="63.8" class="st2" width="92.8" height="92.9"/>
			<rect x="343.6" y="63.8" class="st2" width="92.8" height="92.9"/>
			<rect x="436.4" y="63.8" class="st2" width="92.8" height="92.9"/>
			<rect x="529.2" y="63.8" class="st2" width="92.8" height="92.9"/>
			<rect x="622.1" y="63.8" class="st2" width="92.8" height="92.9"/>
			<rect x="714.9" y="63.8" class="st2" width="92.8" height="92.9"/>
			<rect x="807.8" y="63.8" class="st2" width="92.8" height="92.9"/>
			<rect x="900.6" y="63.8" class="st2" width="92.8" height="92.9"/>
		</g>
		<g>
			<rect x="65.1" y="156.8" class="st2" width="92.8" height="92.9"/>
			<rect x="157.9" y="156.8" class="st2" width="92.8" height="92.9"/>
			<rect x="250.7" y="156.8" class="st2" width="92.8" height="92.9"/>
			<rect x="343.6" y="156.8" class="st2" width="92.8" height="92.9"/>
			<rect x="436.4" y="156.8" class="st2" width="92.8" height="92.9"/>
			<rect x="529.2" y="156.8" class="st2" width="92.8" height="92.9"/>
			<rect x="622.1" y="156.8" class="st2" width="92.8" height="92.9"/>
			<rect x="714.9" y="156.8" class="st2" width="92.8" height="92.9"/>
			<rect x="807.8" y="156.8" class="st2" width="92.8" height="92.9"/>
			<rect x="900.6" y="156.8" class="st2" width="92.8" height="92.9"/>
		</g>
		<g>
			<rect x="65.1" y="249.7" class="st2" width="92.8" height="92.9"/>
			<rect x="157.9" y="249.7" class="st2" width="92.8" height="92.9"/>
			<rect x="250.7" y="249.7" class="st2" width="92.8" height="92.9"/>
			<rect x="343.6" y="249.7" class="st2" width="92.8" height="92.9"/>
			<rect x="436.4" y="249.7" class="st2" width="92.8" height="92.9"/>
			<rect x="529.2" y="249.7" class="st2" width="92.8" height="92.9"/>
			<rect x="622.1" y="249.7" class="st2" width="92.8" height="92.9"/>
			<rect x="714.9" y="249.7" class="st2" width="92.8" height="92.9"/>
			<rect x="807.8" y="249.7" class="st2" width="92.8" height="92.9"/>
			<rect x="900.6" y="249.7" class="st2" width="92.8" height="92.9"/>
		</g>
		<g>
			<rect x="65.1" y="342.6" class="st2" width="92.8" height="92.9"/>
			<rect x="157.9" y="342.6" class="st2" width="92.8" height="92.9"/>
			<rect x="250.7" y="342.6" class="st2" width="92.8" height="92.9"/>
			<rect x="343.6" y="342.6" class="st2" width="92.8" height="92.9"/>
			<rect x="436.4" y="342.6" class="st2" width="92.8" height="92.9"/>
			<rect x="529.2" y="342.6" class="st2" width="92.8" height="92.9"/>
			<rect x="622.1" y="342.6" class="st2" width="92.8" height="92.9"/>
			<rect x="714.9" y="342.6" class="st2" width="92.8" height="92.9"/>
			<rect x="807.8" y="342.6" class="st2" width="92.8" height="92.9"/>
			<rect x="900.6" y="342.6" class="st2" width="92.8" height="92.9"/>
		</g>
		<g>
			<rect x="65.1" y="435.6" class="st2" width="92.8" height="92.9"/>
			<rect x="157.9" y="435.6" class="st2" width="92.8" height="92.9"/>
			<rect x="250.7" y="435.6" class="st2" width="92.8" height="92.9"/>
			<rect x="343.6" y="435.6" class="st2" width="92.8" height="92.9"/>
			<rect x="436.4" y="435.6" class="st2" width="92.8" height="92.9"/>
			<rect x="529.2" y="435.6" class="st2" width="92.8" height="92.9"/>
			<rect x="622.1" y="435.6" class="st2" width="92.8" height="92.9"/>
			<rect x="714.9" y="435.6" class="st2" width="92.8" height="92.9"/>
			<rect x="807.8" y="435.6" class="st2" width="92.8" height="92.9"/>
			<rect x="900.6" y="435.6" class="st2" width="92.8" height="92.9"/>
		</g>
		<g>
			<rect x="65.1" y="528.5" class="st2" width="92.8" height="92.9"/>
			<rect x="157.9" y="528.5" class="st2" width="92.8" height="92.9"/>
			<rect x="250.7" y="528.5" class="st2" width="92.8" height="92.9"/>
			<rect x="343.6" y="528.5" class="st2" width="92.8" height="92.9"/>
			<rect x="436.4" y="528.5" class="st2" width="92.8" height="92.9"/>
			<rect x="529.2" y="528.5" class="st2" width="92.8" height="92.9"/>
			<rect x="622.1" y="528.5" class="st2" width="92.8" height="92.9"/>
			<rect x="714.9" y="528.5" class="st2" width="92.8" height="92.9"/>
			<rect x="807.8" y="528.5" class="st2" width="92.8" height="92.9"/>
			<rect x="900.6" y="528.5" class="st2" width="92.8" height="92.9"/>
		</g>
	</g>
	<g class="st1">
		<g>
			<polyline class="st2" points="993.4,435.6 1086.3,435.6 1086.3,528.5 993.4,528.5 			"/>
			<polyline class="st2" points="1736.1,807.3 1829,807.3 1829,900.3 1736.1,900.3 			"/>
			<rect x="1086.3" y="435.6" class="st2" width="92.8" height="92.9"/>
			<rect x="1179.1" y="435.6" class="st2" width="92.8" height="92.9"/>
			<rect x="1271.9" y="435.6" class="st2" width="92.8" height="92.9"/>
			<rect x="1364.8" y="435.6" class="st2" width="92.8" height="92.9"/>
			<rect x="1457.6" y="435.6" class="st2" width="92.8" height="92.9"/>
			<rect x="1550.5" y="435.6" class="st2" width="92.8" height="92.9"/>
			<rect x="1643.3" y="435.6" class="st2" width="92.8" height="92.9"/>
		</g>
		<g>
			<polyline class="st2" points="1643.3,807.3 1643.3,900.3 1550.5,900.3 1550.5,807.3 			"/>
			<polyline class="st2" points="1736.1,807.3 1736.1,900.3 1643.3,900.3 1643.3,807.3 			"/>
			<polyline class="st2" points="1550.5,900.3 1643.3,900.3 1643.3,993.2 1550.5,993.2 			"/>
			<polyline class="st2" points="1736.1,900.3 1736.1,993.2 1643.3,993.2 1643.3,900.3 			"/>
			<polyline class="st2" points="993.4,528.5 1086.3,528.5 1086.3,621.5 993.4,621.5 			"/>
			<rect x="1086.3" y="528.5" class="st2" width="92.8" height="92.9"/>
			<rect x="1179.1" y="528.5" class="st2" width="92.8" height="92.9"/>
			<rect x="1271.9" y="528.5" class="st2" width="92.8" height="92.9"/>
			<rect x="1364.8" y="528.5" class="st2" width="92.8" height="92.9"/>
			<rect x="1457.6" y="528.5" class="st2" width="92.8" height="92.9"/>
			<rect x="1550.5" y="528.5" class="st2" width="92.8" height="92.9"/>
			<rect x="1643.3" y="528.5" class="st2" width="92.8" height="92.9"/>
		</g>
		<g>
			<polyline class="st2" points="900.6,621.5 900.6,714.4 807.8,714.4 807.8,621.5 			"/>
			<rect x="993.4" y="621.5" class="st2" width="92.8" height="92.9"/>
			<rect x="1086.3" y="621.5" class="st2" width="92.8" height="92.9"/>
			<rect x="1179.1" y="621.5" class="st2" width="92.8" height="92.9"/>
			<rect x="1271.9" y="621.5" class="st2" width="92.8" height="92.9"/>
			<rect x="1364.8" y="621.5" class="st2" width="92.8" height="92.9"/>
			<rect x="1457.6" y="621.5" class="st2" width="92.8" height="92.9"/>
			<rect x="1550.5" y="621.5" class="st2" width="92.8" height="92.9"/>
			<rect x="1643.3" y="621.5" class="st2" width="92.8" height="92.9"/>
		</g>
		<g>
			<rect x="807.8" y="714.4" class="st2" width="92.8" height="92.9"/>
			<rect x="900.6" y="714.4" class="st2" width="92.8" height="92.9"/>
			<rect x="993.4" y="714.4" class="st2" width="92.8" height="92.9"/>
			<rect x="1086.3" y="714.4" class="st2" width="92.8" height="92.9"/>
			<rect x="1179.1" y="714.4" class="st2" width="92.8" height="92.9"/>
			<rect x="1271.9" y="714.4" class="st2" width="92.8" height="92.9"/>
			<rect x="1364.8" y="714.4" class="st2" width="92.8" height="92.9"/>
			<rect x="1457.6" y="714.4" class="st2" width="92.8" height="92.9"/>
			<rect x="1550.5" y="714.4" class="st2" width="92.8" height="92.9"/>
			<rect x="1643.3" y="714.4" class="st2" width="92.8" height="92.9"/>
		</g>
		<g>
			<rect x="807.8" y="807.3" class="st2" width="92.8" height="92.9"/>
			<rect x="900.6" y="807.3" class="st2" width="92.8" height="92.9"/>
			<rect x="993.4" y="807.3" class="st2" width="92.8" height="92.9"/>
			<rect x="1086.3" y="807.3" class="st2" width="92.8" height="92.9"/>
			<rect x="1179.1" y="807.3" class="st2" width="92.8" height="92.9"/>
			<rect x="1271.9" y="807.3" class="st2" width="92.8" height="92.9"/>
			<rect x="1364.8" y="807.3" class="st2" width="92.8" height="92.9"/>
			<rect x="1457.6" y="807.3" class="st2" width="92.8" height="92.9"/>
			<rect x="1550.5" y="807.3" class="st2" width="92.8" height="92.9"/>
			<rect x="1643.3" y="807.3" class="st2" width="92.8" height="92.9"/>
		</g>
		<g>
			<rect x="807.8" y="900.3" class="st2" width="92.8" height="92.9"/>
			<rect x="900.6" y="900.3" class="st2" width="92.8" height="92.9"/>
			<rect x="993.4" y="900.3" class="st2" width="92.8" height="92.9"/>
			<rect x="1086.3" y="900.3" class="st2" width="92.8" height="92.9"/>
			<rect x="1179.1" y="900.3" class="st2" width="92.8" height="92.9"/>
			<rect x="1271.9" y="900.3" class="st2" width="92.8" height="92.9"/>
			<rect x="1364.8" y="900.3" class="st2" width="92.8" height="92.9"/>
			<rect x="1457.6" y="900.3" class="st2" width="92.8" height="92.9"/>
			<rect x="1550.5" y="900.3" class="st2" width="92.8" height="92.9"/>
			<rect x="1643.3" y="900.3" class="st2" width="92.8" height="92.9"/>
		</g>
	</g>
	<g>
		<rect x="1684" y="71.2" class="st3" width="132.6" height="132.8"/>
		<g class="st4">
			<path class="st5" d="M1716,114.8h16.6c4.8,0,8.5,1.2,11.1,3.5c2.6,2.3,3.9,5.5,3.9,9.5c0,4-1.3,7.2-3.9,9.5
				c-2.6,2.3-6.2,3.5-11,3.5h-8.6v15h-8.1V114.8z M1739.2,127.7c0-3.7-2.2-5.5-6.7-5.5h-8.4v11h8.4
				C1737,133.2,1739.2,131.4,1739.2,127.7z"/>
			<path class="st5" d="M1770.6,121.6c-2.3,0-4.2,0.4-5.7,1.3c-1.4,0.9-2.2,2.1-2.2,3.6c0,1.4,0.7,2.4,2.1,3
				c1.4,0.7,3.5,1.2,6.4,1.7l2.3,0.4c8.7,1.4,13,5.3,13,11.4c0,2.9-0.8,5.3-2.3,7.4c-1.5,2-3.5,3.5-6.1,4.5c-2.5,1-5.3,1.5-8.3,1.5
				c-3.2,0-6.3-0.5-9.4-1.4c-3.1-0.9-5.7-2.3-7.8-4l4.2-6.6c1.6,1.3,3.5,2.3,5.8,3.2c2.3,0.8,4.7,1.3,7.2,1.3c2.3,0,4.3-0.4,5.8-1.3
				c1.5-0.9,2.3-2.1,2.3-3.6c0-1.3-0.7-2.3-2-3c-1.4-0.7-3.6-1.3-6.7-1.8l-2.6-0.4c-8.3-1.3-12.5-5.2-12.5-11.7c0-2.7,0.7-5.1,2.2-7
				c1.5-2,3.5-3.4,5.9-4.4c2.5-1,5.2-1.5,8.1-1.5c2.9,0,5.6,0.3,8.1,1c2.5,0.7,5,1.8,7.6,3.3l-3.9,6.7
				C1778.6,122.8,1774.7,121.6,1770.6,121.6z"/>
		</g>
	</g>
	<g>
		<rect x="1684" y="253.1" class="st3" width="132.6" height="132.8"/>
		<g class="st4">
			<path class="st5" d="M1753.2,337.6l-3.6-9.5h-17.4l-3.6,9.5h-8.5l15.9-40.9h9.9l15.9,40.9H1753.2z M1746.8,320.6l-5.9-15.8
				l-6,15.8H1746.8z"/>
			<path class="st5" d="M1773.7,296.6c1,1,1.4,2.1,1.4,3.5c0,1.4-0.5,2.5-1.4,3.4c-1,0.9-2.1,1.4-3.5,1.4s-2.5-0.5-3.4-1.4
				c-0.9-0.9-1.4-2.1-1.4-3.4c0-1.4,0.5-2.5,1.4-3.5c0.9-1,2.1-1.4,3.4-1.4S1772.7,295.7,1773.7,296.6z M1766.5,337.6v-28.3h7.6
				v28.3H1766.5z"/>
		</g>
	</g>
	<g>
		<rect x="1684" y="435.1" class="st3" width="132.6" height="132.8"/>
		<g class="st4">
			<path class="st5" d="M1750,519.6h-9.6L1731,505l-9.4,14.6h-9.4l13.9-20.8l-13.6-20.1h9.6l9,14l9-14h9.4l-13.6,20.1L1750,519.6z"
				/>
			<path class="st5" d="M1783.4,481.3c3.2,1.7,5.7,4.1,7.5,7.2c1.8,3.1,2.7,6.7,2.7,10.7c0,4-0.9,7.6-2.7,10.7
				c-1.8,3.1-4.3,5.5-7.5,7.2s-6.9,2.5-11.1,2.5h-16.8v-40.9h16.8C1776.5,478.7,1780.2,479.6,1783.4,481.3z M1781.8,508.5
				c2.2-2.3,3.3-5.4,3.3-9.3c0-3.9-1.1-7-3.3-9.3c-2.2-2.3-5.3-3.5-9.5-3.5h-8.6V512h8.6C1776.4,512,1779.6,510.8,1781.8,508.5z"/>
		</g>
	</g>
	<g>
		<path class="st5" d="M209.1,137.7c0,4.6,0,9.3,0,13.9c0,8.6,0,17.1-0.1,25.7c0,3-0.4,5.2-2.5,8.5c-0.7,1.1-0.5,4.8,0.6,6.4
			c1.5,2.3,4.4,2.1,6.5,0.1c2.3-2.1,1.9-4.4,0.4-6.9c-1.3-2.1-2.4-4.4-2.4-7c0-13.5,0-27,0-40.5c0.4-0.3,0.8-0.6,1.1-1
			c1.3,1,3.2,1.7,3.7,3c6.4,17,12.7,34.1,18.6,51.3c0.8,2.4,0.4,5.6-0.4,8.1c-2.4,7.6-5,15-7.9,22.4c-0.6,1.4-2.7,3-4.1,3.1
			c-8.2,0.3-16.5,0.3-24.7,0c-1.5-0.1-3.6-1.6-4.2-3c-3-7.3-6-14.7-8.3-22.3c-0.9-2.9-1.1-6.6-0.1-9.4c6-16.7,12.3-33.2,18.7-49.8
			c0.6-1.4,2.4-2.4,3.6-3.6C208.1,137,208.6,137.3,209.1,137.7z"/>
		<path class="st5" d="M107,238c-2.4,0-4.9,0-7.5,0c0-2.7,0-5.2,0-8c3.1,0.4,6.6-2.5,8.8,2.1c0.2,0.4,1.7,0.4,2.6,0.4
			c16.4-0.2,29.1-8.4,34.3-24c3.5-10.2,4.9-21.2,7.4-31.7c1.6-6.6,2.9-13.4,5.2-19.8c5.2-14.7,15.8-23.5,31-26.7
			c1.1-0.2,2.1-0.4,3.2-0.6c0.9-0.2,1.8-0.3,2.7-1.4c-1.6,0-3.1,0-4.7,0c-26.9,0-53.8,0-80.7,0.1c-1.8,0-3.6,1.2-5.5,1.5
			c-1.5,0.2-3.2,0-4.4-0.7c-0.5-0.2-0.2-3.3,0.2-3.5c1.3-0.5,3-0.4,4.5,0c1.7,0.4,3.2,1.8,4.8,1.8c30.5,0.1,61,0.1,91.5,0
			c2.3,0,5.1,1.3,6.4-2.7c0.3-1,4.7-0.7,7.6-1c0,3.1,0,5.5,0,9.2c-2.9-0.8-5.8-1.5-8.6-2.2c-1-0.2-2.1-0.5-3.2-0.4
			c-25.3,1.1-39.6,10.9-45.4,34.8c-2.6,10.4-4.2,21.1-6.4,31.6c-0.6,2.9-1.3,5.8-2.2,8.6c-5.7,18.2-16.9,27.1-35.9,29
			c-2.1,0.2-3.6,1.5-5.6,2.4C107.1,237,106.9,237.6,107,238z"/>
		<path class="st5" d="M194.9,239.2c0-3.7,0-7.1,0-10.7c10.2,0,20.3,0,30.6,0c0,3.5,0,6.9,0,10.7
			C215.4,239.2,205.4,239.2,194.9,239.2z"/>
	</g>
	<g>
		<g>
			<ellipse class="st6" cx="84.1" cy="787.4" rx="15.4" ry="15.4"/>
			<ellipse class="st6" cx="137.1" cy="787.4" rx="15.4" ry="15.4"/>
			<ellipse class="st6" cx="190.1" cy="787.4" rx="15.4" ry="15.4"/>
			<ellipse class="st6" cx="243.2" cy="787.4" rx="15.4" ry="15.4"/>
			<ellipse class="st6" cx="296.2" cy="787.4" rx="15.4" ry="15.4"/>
		</g>
		<g>
			<ellipse class="st6" cx="84.1" cy="839.8" rx="15.4" ry="15.4"/>
			<ellipse class="st6" cx="137.1" cy="839.8" rx="15.4" ry="15.4"/>
			<ellipse class="st6" cx="190.1" cy="839.8" rx="15.4" ry="15.4"/>
			<ellipse class="st6" cx="243.2" cy="839.8" rx="15.4" ry="15.4"/>
			<ellipse class="st6" cx="296.2" cy="839.8" rx="15.4" ry="15.4"/>
		</g>
		<g>
			<ellipse class="st6" cx="84.1" cy="892.1" rx="15.4" ry="15.4"/>
			<ellipse class="st6" cx="137.1" cy="892.1" rx="15.4" ry="15.4"/>
			<ellipse class="st6" cx="190.1" cy="892.1" rx="15.4" ry="15.4"/>
			<ellipse class="st6" cx="243.2" cy="892.1" rx="15.4" ry="15.4"/>
			<ellipse class="st6" cx="296.2" cy="892.1" rx="15.4" ry="15.4"/>
		</g>
		<g>
			<ellipse class="st6" cx="84.1" cy="944.4" rx="15.4" ry="15.4"/>
			<ellipse class="st6" cx="137.1" cy="944.4" rx="15.4" ry="15.4"/>
			<ellipse class="st6" cx="190.1" cy="944.4" rx="15.4" ry="15.4"/>
			<ellipse class="st6" cx="243.2" cy="944.4" rx="15.4" ry="15.4"/>
			<ellipse class="st6" cx="296.2" cy="944.4" rx="15.4" ry="15.4"/>
		</g>
		<g>
			<ellipse class="st6" cx="84.1" cy="996.7" rx="15.4" ry="15.4"/>
			<ellipse class="st6" cx="137.1" cy="996.7" rx="15.4" ry="15.4"/>
			<ellipse class="st6" cx="190.1" cy="996.7" rx="15.4" ry="15.4"/>
			<ellipse class="st6" cx="243.2" cy="996.7" rx="15.4" ry="15.4"/>
			<ellipse class="st6" cx="296.2" cy="996.7" rx="15.4" ry="15.4"/>
		</g>
	</g>
	<path class="st5" d="M904.2,251.4c29.1,0,58.3,0,87.4,0c0,1,0.1,1.9,0.1,2.9c0,69.9,0,139.8,0,209.7c0,0.5,0,1.1,0,1.6
		c0,0.3,0.1,0.6,0.2,1.1c0.7-0.8,1.2-1.3,1.8-1.9c8.2-9.1,16.4-18.1,24.6-27.2c0.8-0.8,1.5-1.2,2.6-1.2c31.8,0,63.6,0,95.4,0
		c0.6,0,1.2,0.1,2,0.1c0,78.3,0,156.6,0,234.9c0.9,0,1.6,0,2.4,0c14.1,0,28.2,0,42.2,0c0.7,0,1.4,0,2.2,0.1c0,22.4,0,44.8,0,67.2
		c-0.5,0-1-0.1-1.4-0.1c-14.6,0-29.1,0-43.7,0c-0.5,0-1.1,0.1-1.7,0.1c0,0.8,0,1.5,0,2.2c0,18.5,0,37,0,55.5c0,3.3,0,6.5,0,9.8
		c-29.3,0-58.5,0-87.8,0c0-0.1,0-0.2,0-0.4c0-21.9,0-43.7,0-65.6c0-0.5-0.1-1-0.1-1.8c-4.8,0-9.5,0-14.2,0c-4.7,0-9.4,0-14.2,0
		s-9.4,0-14.2,0s-9.4,0-14.2,0c-4.7,0-9.4,0-14.2,0c-4.7,0-9.4,0-14.2,0s-9.4,0-14.2,0c-4.7,0-9.3,0-14,0c-4.7,0-9.4,0-14.2,0
		c-4.7,0-9.4,0-14.2,0c-4.7,0-9.4,0-14.2,0c-4.7,0-9.4,0-14.2,0s-9.4,0-14.2,0c-4.7,0-9.4,0-14.2,0c-4.7,0-9.4,0.1-14.2-0.1
		c0-0.8,0-1.4,0-2c0-25.4,0-50.8,0-76.1c0-1.3,0.4-2.2,1.3-3.2c10.3-11.3,20.6-22.7,30.8-34c0.4-0.5,0.8-1,1.6-1.8
		c-32.6,0-64.7,0-96.8,0c-0.4-2.4-0.3-71.3,0.1-72.7c0.7,0,1.5,0,2.3,0c39.1,0,78.2,0,117.3,0c4,0,8-0.4,11.8-1.4
		c7.1-1.9,11.9-6.1,14.4-13.1c0.3-1,0.7-1.9,1-2.9c1.7-6,2-12.2,2-18.4c0-86.2,0-172.4,0-258.6C904,253.4,904.2,252.4,904.2,251.4z
		 M1030.4,526.2c-0.1,0-0.2-0.1-0.3-0.1c-42.3,48.4-84.7,96.7-127.2,145.3c42.8,0,85.2,0,127.6,0
		C1030.4,622.9,1030.4,574.6,1030.4,526.2z"/>
	<g class="st7">
		<g>
			<line class="st8" x1="553.8" y1="581.2" x2="967.8" y2="166.7"/>
			<line class="st8" x1="568.5" y1="595.8" x2="982.5" y2="181.4"/>
			<line class="st8" x1="583.2" y1="610.5" x2="997.2" y2="196.1"/>
			<line class="st8" x1="597.8" y1="625.2" x2="1011.8" y2="210.8"/>
			<line class="st8" x1="612.5" y1="639.9" x2="1026.5" y2="225.4"/>
			<line class="st8" x1="627.2" y1="654.6" x2="1041.2" y2="240.1"/>
			<line class="st8" x1="641.8" y1="669.3" x2="1055.8" y2="254.8"/>
			<line class="st8" x1="656.5" y1="684" x2="1070.5" y2="269.5"/>
			<line class="st8" x1="671.2" y1="698.7" x2="1085.2" y2="284.2"/>
			<line class="st8" x1="685.8" y1="713.3" x2="1099.8" y2="298.9"/>
			<line class="st8" x1="700.5" y1="728" x2="1114.5" y2="313.6"/>
			<line class="st8" x1="715.2" y1="742.7" x2="1129.2" y2="328.2"/>
			<line class="st8" x1="729.9" y1="757.4" x2="1143.9" y2="342.9"/>
		</g>
		<g>
			<g>
				<line class="st8" x1="746.1" y1="773.7" x2="1160.1" y2="359.2"/>
				<line class="st8" x1="760.8" y1="788.4" x2="1174.8" y2="373.9"/>
				<line class="st8" x1="775.5" y1="803.1" x2="1189.5" y2="388.6"/>
				<line class="st8" x1="790.2" y1="817.8" x2="1204.2" y2="403.3"/>
				<line class="st8" x1="804.8" y1="832.4" x2="1218.8" y2="418"/>
				<line class="st8" x1="819.5" y1="847.1" x2="1233.5" y2="432.7"/>
				<line class="st8" x1="834.2" y1="861.8" x2="1248.2" y2="447.4"/>
				<line class="st8" x1="848.8" y1="876.5" x2="1262.8" y2="462"/>
				<line class="st8" x1="863.5" y1="891.2" x2="1277.5" y2="476.7"/>
				<line class="st8" x1="878.2" y1="905.9" x2="1292.2" y2="491.4"/>
				<line class="st8" x1="892.8" y1="920.6" x2="1306.8" y2="506.1"/>
				<line class="st8" x1="907.5" y1="935.2" x2="1321.5" y2="520.8"/>
				<line class="st8" x1="922.2" y1="949.9" x2="1336.2" y2="535.5"/>
			</g>
			<line class="st8" x1="936.4" y1="964.2" x2="1350.4" y2="549.7"/>
			<line class="st8" x1="951.1" y1="978.9" x2="1365.1" y2="564.4"/>
			<line class="st8" x1="965.8" y1="993.6" x2="1379.8" y2="579.1"/>
		</g>
	</g>
	<g>
		<rect x="1648.7" y="744.3" class="st9" width="30" height="12.2"/>
		<rect x="1699.7" y="657.4" class="st9" width="17.5" height="12.2"/>
		<polygon class="st9" points="1822.3,634.7 1822.3,756.5 1694.6,756.5 1694.6,744.3 1810.1,744.3 1810.1,646.9 1778.2,646.9 
			1774.6,634.7 1770.9,622.6 1727.2,622.6 1723.5,634.7 1719.8,646.9 1688.5,646.9 1688.5,719.6 1676.3,719.6 1676.3,634.7 
			1688.5,634.7 1688.5,634.7 1710.8,634.7 1718,610.7 1718,610.4 1780,610.4 1780,610.5 1787.3,634.7 		"/>
		<ellipse class="st10" cx="1749.3" cy="691.6" rx="22.7" ry="22.8"/>
	</g>
</g>
</svg>
