<?xml version="1.0" encoding="utf-8"?>
<!-- Generator: Adobe Illustrator 25.2.0, SVG Export Plug-In . SVG Version: 6.00 Build 0)  -->
<svg version="1.1" id="Layer_1" xmlns="http://www.w3.org/2000/svg" xmlns:xlink="http://www.w3.org/1999/xlink" x="0px" y="0px"
	 viewBox="0 0 224.2 312.8" style="enable-background:new 0 0 224.2 312.8;" xml:space="preserve">
<style type="text/css">
	.st0{opacity:2.000000e-02;enable-background:new    ;}
	.st1{enable-background:new    ;}
	.st2{fill:none;stroke:#000000;stroke-miterlimit:10;}
	.st3{opacity:5.000000e-02;enable-background:new    ;}
	.st4{fill:#190B38;}
	.st5{fill:#050307;}
</style>
<g>
	<g>
		<g class="st0">
			<rect y="0.5" width="224.2" height="311.8"/>
		</g>
		<g class="st1">
			<path d="M192.7,218.6l2.5,6.2h11l2.5-6.2h2.3l-9,21.8h-2.7l-9-21.8H192.7z M196.2,226.9l4.6,11.3l4.7-11.3H196.2z"/>
		</g>
		<g class="st1">
			<path class="st2" d="M192.7,218.6l2.5,6.2h11l2.5-6.2h2.3l-9,21.8h-2.7l-9-21.8H192.7z M196.2,226.9l4.6,11.3l4.7-11.3H196.2z"/>
		</g>
		<g class="st1">
			<path d="M29.3,95.8l-2.5-6.2h-11l-2.5,6.2h-2.3l9-21.8h2.7l9,21.8H29.3z M25.9,87.5l-4.6-11.3l-4.7,11.3H25.9z"/>
		</g>
		<g class="st1">
			<path class="st2" d="M29.3,95.8l-2.5-6.2h-11l-2.5,6.2h-2.3l9-21.8h2.7l9,21.8H29.3z M25.9,87.5l-4.6-11.3l-4.7,11.3H25.9z"/>
		</g>
		<g class="st3">
			<path d="M173.5,283H50.7c-4.2,0-7.5-3.4-7.5-7.5V37.3c0-4.2,3.4-7.5,7.5-7.5h122.8c4.2,0,7.5,3.4,7.5,7.5v238.1
				C181,279.6,177.6,283,173.5,283z"/>
		</g>
		<g>
			<g>
				<path class="st4" d="M24.8,54.4c0,0.2,0,0.4,0,0.7c0.2,2.3,1.4,4.3,3.1,5.5c0.6,0.4,0.9,1,0.9,1.7l0,0H15.9l0,0
					c0-0.7,0.4-1.3,0.9-1.7c1.7-1.2,2.9-3.2,3.1-5.4c0-0.3,0-0.5,0-0.8c0-2.9-1.6-5.5-4.1-6.7V45H24c-0.2,0.5-0.3,0.9-0.4,1.5
					c0,0.3-0.1,0.5-0.1,0.8c0.2-0.8,0.6-1.6,1.1-2.2h4.2v2.7C26.5,48.9,24.8,51.5,24.8,54.4z"/>
			</g>
			<g>
				<path class="st5" d="M28.9,62.5H15.7v-0.3c0-0.8,0.4-1.5,1-1.9c1.7-1.2,2.8-3.1,3-5.2c0-0.2,0-0.5,0-0.7c0-2.7-1.5-5.2-3.9-6.5
					l-0.1-0.1v-3.1h8.9v0.1l0.1-0.1h4.6v3.1L29,47.9c-2.4,1.3-3.9,3.8-3.9,6.5c0,0.2,0,0.4,0,0.6c0.2,2.1,1.3,4.1,3,5.3
					c0.6,0.5,1,1.2,1,1.9v0.3H28.9z M16.2,62h12.4c-0.1-0.5-0.3-0.9-0.8-1.2c-1.9-1.4-3.1-3.4-3.2-5.7c0-0.2,0-0.5,0-0.7
					c0-2.9,1.6-5.5,4.1-6.9v-2.2h-3.8c-0.4,0.6-0.8,1.3-1,2.1l-0.7,2.3l0.2-2.4c0-0.2,0.1-0.5,0.1-0.8c0.1-0.4,0.2-0.8,0.3-1.1h-7.5
					v2.2c2.5,1.4,4.1,4,4.1,6.9c0,0.3,0,0.6,0,0.8c-0.2,2.2-1.4,4.3-3.2,5.6C16.6,61.1,16.3,61.5,16.2,62z"/>
			</g>
			<g>
				<path class="st4" d="M37.7,49.5c0,4.2-3.4,7.6-7.6,7.6c-2,0-3.9-0.8-5.3-2.1c-1.1-1-1.8-2.3-2.2-3.8c-0.1-0.5-0.2-1.1-0.2-1.7
					c0,0.6-0.1,1.1-0.2,1.7c-0.3,1.6-1.2,2.9-2.3,4c-1.4,1.2-3.2,2-5.1,2c-4.2,0-7.6-3.4-7.6-7.6s3.4-7.6,7.6-7.6c0.1,0,0.3,0,0.4,0
					c-0.3-1-0.5-2.1-0.4-3.2c0.3-3.5,3.1-6.4,6.5-6.8c4.7-0.6,8.7,3,8.7,7.6l0,0c0,0.5-0.4,0.9-0.9,1.1c-2.1,0.4-4.1,2-5,4.3
					c-0.2,0.5-0.3,0.9-0.4,1.5c0,0.3-0.1,0.5-0.1,0.8c0.2-0.8,0.6-1.6,1.1-2.2c1.3-1.8,3.3-3,5.5-3.1c2-0.1,4,0.9,5.4,2.3
					C37,45.6,37.7,47.5,37.7,49.5z"/>
			</g>
			<g>
				<path class="st5" d="M30.1,57.4c-2,0-4-0.8-5.5-2.2c-1.1-1-1.8-2.3-2.2-3.7c-0.4,1.5-1.2,2.8-2.3,3.8c-1.5,1.3-3.3,2.1-5.3,2.1
					c-4.4,0-7.9-3.5-7.9-7.9s3.5-7.9,7.9-7.9l0,0c-0.3-0.9-0.4-1.9-0.3-2.9c0.3-3.6,3.2-6.6,6.8-7.1c2.3-0.3,4.6,0.4,6.3,1.9
					c1.7,1.5,2.7,3.7,2.7,6c0,0.6-0.4,1.2-1.1,1.3c-2.1,0.6-3.9,2-4.8,4c1.4-1.9,3.6-3.1,5.7-3.1c2-0.1,4.1,0.8,5.6,2.4
					c1.4,1.5,2.2,3.5,2.2,5.5C38,53.9,34.5,57.4,30.1,57.4z M22.7,49.5c0,0.6,0.1,1.1,0.2,1.7c0.3,1.4,1.1,2.7,2.1,3.7
					c1.4,1.3,3.2,2,5.1,2c4.1,0,7.4-3.3,7.4-7.4c0-1.9-0.8-3.8-2.1-5.1c-1.4-1.4-3.3-2.3-5.2-2.2c-2,0-4,1.2-5.3,3
					c-0.5,0.7-0.8,1.4-1.1,2.2l-0.7,2.3l0.2-2.4c0-0.2,0.1-0.5,0.1-0.8c0.1-0.5,0.3-1,0.5-1.5c0.9-2.3,2.9-4,5.3-4.6
					c0.4-0.1,0.7-0.4,0.7-0.8c0-2.1-0.9-4.2-2.5-5.6c-1.6-1.4-3.8-2-5.9-1.7c-3.3,0.5-6,3.2-6.3,6.6c-0.1,1.1,0,2.1,0.4,3.1l0.1,0.4
					h-0.4c-0.2,0-0.3,0-0.4,0c-4.1,0-7.4,3.3-7.4,7.4s3.3,7.4,7.4,7.4c1.8,0,3.6-0.7,5-1.9c1.1-1,1.9-2.4,2.2-3.8
					c0.1-0.5,0.2-1.1,0.2-1.6h0.4V49.5z"/>
			</g>
		</g>
		<g>
			<g>
				<path class="st4" d="M198.3,260.2c0-0.2,0-0.5,0-0.7c-0.2-2.4-1.4-4.4-3.3-5.7c-0.6-0.4-0.9-1.1-0.9-1.8l0,0h13.4l0,0
					c0,0.7-0.4,1.3-0.9,1.8c-1.8,1.3-3,3.3-3.2,5.6c0,0.3,0,0.5,0,0.8c0,3,1.7,5.7,4.2,7v2.8H199c0.2-0.5,0.3-1,0.5-1.5
					c0-0.3,0.1-0.5,0.1-0.8c-0.3,0.9-0.6,1.6-1.1,2.3h-4.3v-2.8C196.6,265.8,198.3,263.2,198.3,260.2z"/>
			</g>
			<g>
				<path class="st5" d="M194.1,251.7h13.7v0.3c0,0.8-0.4,1.5-1.1,2c-1.8,1.3-2.9,3.3-3.1,5.4c0,0.3,0,0.5,0,0.8
					c0,2.8,1.6,5.4,4.1,6.8l0.1,0.1v3.2h-9.2v-0.1l-0.1,0.1h-4.8V267l0.1-0.1c2.5-1.3,4.1-3.9,4.1-6.8c0-0.2,0-0.4,0-0.7
					c-0.2-2.2-1.3-4.2-3.1-5.5c-0.7-0.5-1.1-1.2-1.1-2v-0.3L194.1,251.7z M207.2,252.2h-12.8c0.1,0.5,0.4,0.9,0.8,1.3
					c1.9,1.4,3.2,3.6,3.4,5.9c0,0.2,0,0.5,0,0.7c0,3-1.6,5.7-4.2,7.2v2.3h3.9c0.5-0.6,0.8-1.4,1-2.1l0.7-2.4l-0.2,2.5
					c0,0.2-0.1,0.5-0.1,0.8c-0.1,0.4-0.2,0.8-0.3,1.2h7.8v-2.3c-2.6-1.4-4.2-4.2-4.2-7.2c0-0.3,0-0.6,0-0.8c0.2-2.3,1.5-4.4,3.4-5.8
					C206.9,253.2,207.1,252.7,207.2,252.2z"/>
			</g>
			<g>
				<path class="st4" d="M184.9,265.2c0-4.4,3.5-7.9,7.9-7.9c2.1,0,4,0.8,5.5,2.2c1.1,1.1,1.9,2.4,2.3,4c0.1,0.6,0.2,1.2,0.2,1.8
					c0-0.6,0.1-1.2,0.2-1.7c0.4-1.6,1.2-3,2.4-4.1c1.4-1.3,3.3-2.1,5.3-2.1c4.4,0,7.9,3.5,7.9,7.9s-3.5,7.9-7.9,7.9
					c-0.1,0-0.3,0-0.4,0c0.4,1,0.5,2.1,0.4,3.3c-0.3,3.6-3.2,6.6-6.8,7.1c-4.9,0.7-9-3.1-9-7.8l0,0c0-0.5,0.4-1,0.9-1.1
					c2.4-0.6,4.4-2.3,5.3-4.6c0.2-0.5,0.3-1,0.5-1.5c0-0.3,0.1-0.5,0.1-0.8c-0.3,0.9-0.6,1.6-1.1,2.3c-1.3,1.8-3.4,3.1-5.7,3.2
					c-2.1,0.1-4.2-0.9-5.6-2.4C185.7,269.3,184.9,267.3,184.9,265.2z"/>
			</g>
			<g>
				<path class="st5" d="M192.8,257c2.1,0,4.1,0.8,5.7,2.3c1.1,1,1.9,2.4,2.3,3.8c0.4-1.5,1.2-2.9,2.4-3.9c1.5-1.4,3.5-2.1,5.5-2.1
					c4.5,0,8.2,3.7,8.2,8.2s-3.7,8.2-8.2,8.2l0,0c0.3,1,0.4,2,0.3,3c-0.3,3.7-3.3,6.8-7,7.3c-2.4,0.3-4.8-0.4-6.5-1.9
					c-1.8-1.6-2.8-3.8-2.8-6.2c0-0.6,0.4-1.2,1.1-1.4c2.2-0.6,4-2.1,5-4.2c-1.4,2-3.7,3.2-5.9,3.3c-2,0.1-4.2-0.9-5.8-2.5
					c-1.5-1.5-2.3-3.6-2.3-5.7C184.6,260.7,188.3,257,192.8,257z M200.5,265.2c0-0.6-0.1-1.2-0.2-1.7c-0.3-1.5-1.1-2.8-2.2-3.8
					c-1.4-1.4-3.3-2.1-5.3-2.1c-4.2,0-7.6,3.4-7.6,7.6c0,2,0.8,3.9,2.1,5.3c1.4,1.5,3.5,2.4,5.4,2.3c2.1-0.1,4.2-1.2,5.5-3.1
					c0.5-0.7,0.9-1.4,1.1-2.2l0.7-2.4l-0.2,2.5c0,0.2-0.1,0.5-0.1,0.8c-0.1,0.5-0.3,1.1-0.5,1.6c-1,2.4-3,4.2-5.5,4.8
					c-0.4,0.1-0.7,0.4-0.7,0.8c0,2.2,1,4.3,2.6,5.8c1.7,1.5,3.9,2.1,6.1,1.8c3.5-0.5,6.2-3.3,6.5-6.8c0.1-1.1,0-2.2-0.4-3.2
					l-0.1-0.4h0.4c0.2,0,0.3,0,0.4,0c4.2,0,7.6-3.4,7.6-7.6s-3.4-7.6-7.6-7.6c-1.9,0-3.7,0.7-5.1,2c-1.2,1.1-2,2.4-2.3,4
					c-0.1,0.5-0.2,1.1-0.2,1.7L200.5,265.2L200.5,265.2z"/>
			</g>
		</g>
	</g>
	<g>
		<g>
			<path class="st4" d="M118.2,175.6c0,0.6,0,1.1,0.1,1.7c0.5,6,3.6,11.2,8.2,14.5c1.4,1,2.4,2.7,2.4,4.4l0,0H95l0,0
				c0-1.8,0.9-3.4,2.4-4.4c4.5-3.3,7.6-8.3,8.2-14.2c0.1-0.7,0.1-1.3,0.1-2c0-7.6-4.3-14.3-10.6-17.6v-7h21.4
				c-0.5,1.2-0.9,2.5-1.1,3.8c-0.1,0.7-0.2,1.4-0.3,2c0.6-2.2,1.6-4.1,2.9-5.9h10.9v7C122.5,161.3,118.2,168,118.2,175.6z"/>
		</g>
		<g>
			<path class="st5" d="M128.8,196.9H94.3v-0.7c0-2,1-3.8,2.6-5c4.5-3.2,7.3-8.2,7.9-13.7c0.1-0.6,0.1-1.3,0.1-1.9
				c0-7.2-3.9-13.7-10.3-17l-0.4-0.2v-8.1h23.2l-0.1,0.2l0.2-0.2h12v8.1l-0.4,0.2c-6.3,3.3-10.3,9.9-10.3,17c0,0.6,0,1.1,0.1,1.7
				c0.5,5.6,3.4,10.7,7.9,14c1.7,1.2,2.6,3,2.6,5v0.7L128.8,196.9z M95.8,195.5h32.3c-0.2-1.3-0.9-2.4-2-3.2c-4.9-3.5-8-9-8.5-15
				c0-0.6-0.1-1.2-0.1-1.8c0-7.5,4.1-14.4,10.6-18.1v-5.9h-9.8c-1.1,1.6-2,3.4-2.6,5.4l-1.8,6l0.4-6.3c0-0.6,0.1-1.3,0.3-2.1
				c0.2-1,0.5-2,0.8-3H95.7v5.9c6.6,3.6,10.6,10.5,10.6,18.1c0,0.8,0,1.4-0.1,2.1c-0.6,5.8-3.7,11.2-8.5,14.6
				C96.7,193.2,96,194.3,95.8,195.5z"/>
		</g>
		<g>
			<path class="st4" d="M152,162.9c0,11-8.9,19.9-20,19.9c-5.3,0-10.2-2.1-13.8-5.5c-2.8-2.6-4.8-6.1-5.7-10
				c-0.3-1.4-0.5-2.9-0.5-4.5c0,1.5-0.2,3-0.5,4.4c-0.9,4.1-3.1,7.6-6,10.4c-3.5,3.2-8.2,5.2-13.4,5.2c-11,0-20-8.9-20-19.9
				s8.9-20,20-20c0.4,0,0.7,0,1.1,0c-0.9-2.6-1.2-5.4-1-8.3c0.8-9.1,8-16.6,17-17.9c12.3-1.7,22.8,7.8,22.8,19.7l0,0
				c0,1.3-1,2.4-2.2,2.8c-5.9,1.6-11,5.8-13.4,11.7c-0.5,1.2-0.9,2.5-1.1,3.8c-0.1,0.7-0.2,1.4-0.3,2c0.6-2.2,1.6-4.1,2.9-5.9
				c3.3-4.6,8.7-7.9,14.4-8c5.2-0.1,10.5,2.3,14,6C150,152.7,152,157.7,152,162.9z"/>
		</g>
		<g>
			<path class="st5" d="M132.1,183.5c-5.3,0-10.4-2-14.2-5.7c-2.8-2.6-4.7-5.9-5.7-9.6c-1,3.8-3.1,7.2-6,9.9
				c-3.8,3.5-8.7,5.4-13.9,5.4c-11.4,0-20.7-9.3-20.7-20.6c0-11.4,9.3-20.7,20.7-20.7h0.1c-0.7-2.5-0.9-5-0.7-7.7
				c0.9-9.4,8.3-17.2,17.6-18.5c6-0.8,12,1,16.5,4.9s7.1,9.6,7.1,15.6c0,1.6-1.1,3-2.8,3.5c-5.5,1.5-10.1,5.3-12.5,10.5
				c3.6-4.9,9.3-8.1,14.9-8.2c5.2-0.2,10.6,2.2,14.6,6.3c3.7,3.8,5.8,9,5.8,14.4C152.7,174.2,143.4,183.5,132.1,183.5z M112.8,162.9
				c0,1.5,0.2,2.9,0.5,4.3c0.8,3.7,2.7,7,5.5,9.6c3.6,3.4,8.3,5.3,13.3,5.3c10.6,0,19.3-8.6,19.3-19.2c0-4.9-2-9.8-5.4-13.4
				c-3.6-3.8-8.7-6-13.5-5.8c-5.2,0.1-10.5,3.1-13.9,7.7c-1.2,1.7-2.2,3.6-2.8,5.7l-1.8,6l0.4-6.3c0-0.6,0.1-1.3,0.3-2.1
				c0.3-1.4,0.7-2.7,1.2-4c2.4-5.9,7.6-10.5,13.8-12.1c1-0.3,1.7-1.1,1.7-2.1c0-5.6-2.4-10.9-6.6-14.5c-4.2-3.7-9.8-5.3-15.4-4.6
				c-8.7,1.2-15.6,8.4-16.4,17.2c-0.3,2.8,0.1,5.5,0.9,8l0.3,1h-1c-0.4,0-0.7,0-1,0c-10.6,0-19.3,8.6-19.3,19.3
				c0,10.6,8.6,19.2,19.3,19.2c4.8,0,9.4-1.8,12.9-5c2.9-2.7,5-6.2,5.8-10c0.3-1.4,0.5-2.8,0.5-4.2H112.8z"/>
		</g>
	</g>
</g>
</svg>
