<?xml version="1.0" encoding="utf-8"?>
<!-- Generator: Adobe Illustrator 25.2.0, SVG Export Plug-In . SVG Version: 6.00 Build 0)  -->
<svg version="1.1" id="Layer_1" xmlns="http://www.w3.org/2000/svg" xmlns:xlink="http://www.w3.org/1999/xlink" x="0px" y="0px"
	 viewBox="0 0 224.2 312.8" style="enable-background:new 0 0 224.2 312.8;" xml:space="preserve">
<style type="text/css">
	.st0{opacity:2.000000e-02;enable-background:new    ;}
	.st1{enable-background:new    ;}
	.st2{fill:none;stroke:#000000;stroke-miterlimit:10;}
	.st3{opacity:5.000000e-02;enable-background:new    ;}
	.st4{fill:#190B38;}
	.st5{fill:#050307;}
</style>
<g>
	<g>
		<g class="st0">
			<rect x="-0.2" y="0.7" width="224.4" height="312.1"/>
		</g>
		<g class="st1">
			<path d="M197.2,222.5c0.7-1.2,1.5-2.2,2.7-2.8c1.1-0.6,2.4-0.9,3.9-0.9c2.7,0,4.9,1,6.6,3l-1.5,1.6c-0.6-0.7-1.3-1.2-2.2-1.7
				c-0.9-0.4-1.8-0.7-2.9-0.7c-1.6,0-2.9,0.5-3.9,1.6s-1.5,2.6-1.5,4.6v13.7h-2.2v-13.9C196.3,225.2,196.6,223.8,197.2,222.5z"/>
		</g>
		<g class="st1">
			<path class="st2" d="M197.2,222.5c0.7-1.2,1.5-2.2,2.7-2.8c1.1-0.6,2.4-0.9,3.9-0.9c2.7,0,4.9,1,6.6,3l-1.5,1.6
				c-0.6-0.7-1.3-1.2-2.2-1.7c-0.9-0.4-1.8-0.7-2.9-0.7c-1.6,0-2.9,0.5-3.9,1.6s-1.5,2.6-1.5,4.6v13.7h-2.2v-13.9
				C196.3,225.2,196.6,223.8,197.2,222.5z"/>
		</g>
		<g class="st1">
			<path d="M26.9,92.7c-0.7,1.2-1.6,2.2-2.7,2.8c-1.1,0.6-2.4,0.9-3.9,0.9c-2.7,0-4.9-1-6.6-3l1.5-1.6c0.6,0.7,1.3,1.2,2.2,1.7
				c0.9,0.4,1.8,0.7,2.9,0.7c1.6,0,2.9-0.5,3.9-1.6s1.5-2.6,1.5-4.6V74.4h2.2v13.9C27.9,90,27.6,91.4,26.9,92.7z"/>
		</g>
		<g class="st1">
			<path class="st2" d="M26.9,92.7c-0.7,1.2-1.6,2.2-2.7,2.8c-1.1,0.6-2.4,0.9-3.9,0.9c-2.7,0-4.9-1-6.6-3l1.5-1.6
				c0.6,0.7,1.3,1.2,2.2,1.7c0.9,0.4,1.8,0.7,2.9,0.7c1.6,0,2.9-0.5,3.9-1.6s1.5-2.6,1.5-4.6V74.4h2.2v13.9
				C27.9,90,27.6,91.4,26.9,92.7z"/>
		</g>
		<g class="st3">
			<path d="M173.4,283.5H50.6c-4.2,0-7.5-3.4-7.5-7.5V37.6c0-4.2,3.4-7.5,7.5-7.5h122.9c4.2,0,7.5,3.4,7.5,7.5V276
				C181,280.1,177.6,283.5,173.4,283.5z"/>
		</g>
		<g>
			<g>
				<path class="st4" d="M24.6,54.7c0,0.2,0,0.4,0,0.7c0.2,2.3,1.4,4.3,3.1,5.5c0.6,0.4,0.9,1,0.9,1.7l0,0h-13l0,0
					c0-0.7,0.4-1.3,0.9-1.7c1.7-1.2,2.9-3.2,3.1-5.4c0-0.3,0-0.5,0-0.8c0-2.9-1.7-5.5-4.1-6.8v-2.7H24c-0.2,0.5-0.3,0.9-0.4,1.5
					c0,0.3-0.1,0.5-0.1,0.8c0.2-0.8,0.6-1.6,1.1-2.2h4.2V48C26.3,49.2,24.6,51.7,24.6,54.7z"/>
			</g>
			<g>
				<path class="st5" d="M28.7,62.8H15.5v-0.3c0-0.8,0.4-1.5,1-1.9c1.7-1.2,2.8-3.1,3-5.2c0-0.2,0-0.5,0-0.7c0-2.7-1.5-5.2-3.9-6.5
					l-0.1-0.1V45h8.9v0.1l0.1-0.1H29v3.1l-0.1,0.1C26.5,49.5,25,52,25,54.7c0,0.2,0,0.4,0,0.6c0.2,2.1,1.3,4.1,3,5.3
					c0.6,0.5,1,1.2,1,1.9v0.3L28.7,62.8z M16,62.3h12.4c-0.1-0.5-0.3-0.9-0.8-1.2c-1.9-1.4-3.1-3.4-3.3-5.7c0-0.2,0-0.5,0-0.7
					c0-2.9,1.6-5.5,4.1-6.9v-2.2h-3.8c-0.4,0.6-0.8,1.3-1,2.1L23,49.9l0.2-2.4c0-0.2,0.1-0.5,0.1-0.8c0.1-0.4,0.2-0.8,0.3-1.1H16
					v2.2c2.5,1.4,4.1,4,4.1,6.9c0,0.3,0,0.6,0,0.8c-0.2,2.2-1.4,4.3-3.2,5.6C16.4,61.4,16.1,61.8,16,62.3z"/>
			</g>
			<g>
				<path class="st4" d="M37.6,49.8c0,4.2-3.4,7.6-7.6,7.6c-2,0-3.9-0.8-5.3-2.1c-1.1-1-1.8-2.3-2.2-3.8c-0.1-0.5-0.2-1.1-0.2-1.7
					c0,0.6-0.1,1.1-0.2,1.7c-0.3,1.6-1.2,2.9-2.3,4c-1.4,1.2-3.2,2-5.1,2C10.4,57.4,7,54,7,49.8s3.4-7.6,7.6-7.6c0.1,0,0.3,0,0.4,0
					c-0.3-1-0.5-2.1-0.4-3.2c0.3-3.5,3.1-6.4,6.5-6.8c4.7-0.6,8.7,3,8.7,7.6l0,0c0,0.5-0.4,0.9-0.9,1.1c-2.3,0.6-4.2,2.2-5.1,4.5
					c-0.2,0.5-0.3,0.9-0.4,1.5c0,0.3-0.1,0.5-0.1,0.8c0.2-0.8,0.6-1.6,1.1-2.2c1.3-1.8,3.3-3,5.5-3.1c2-0.1,4,0.9,5.4,2.3
					C36.8,45.9,37.6,47.8,37.6,49.8z"/>
			</g>
			<g>
				<path class="st5" d="M29.9,57.7c-2,0-4-0.8-5.5-2.2c-1.1-1-1.8-2.3-2.2-3.7c-0.4,1.5-1.2,2.8-2.3,3.8c-1.5,1.3-3.4,2.1-5.3,2.1
					c-4.4,0-7.9-3.5-7.9-7.9s3.6-7.9,7.9-7.9l0,0C14.3,41,14.2,40,14.3,39c0.3-3.6,3.2-6.6,6.8-7.1c2.3-0.3,4.6,0.4,6.3,1.9
					c1.7,1.5,2.7,3.7,2.7,6c0,0.6-0.4,1.2-1.1,1.3c-2.1,0.6-3.9,2-4.8,4c1.4-1.9,3.6-3.1,5.7-3.1c2-0.1,4.1,0.8,5.6,2.4
					c1.4,1.5,2.2,3.5,2.2,5.5C37.8,54.1,34.3,57.7,29.9,57.7z M22.5,49.8c0,0.6,0.1,1.1,0.2,1.7c0.3,1.4,1.1,2.7,2.1,3.7
					c1.4,1.3,3.2,2,5.1,2c4.1,0,7.4-3.3,7.4-7.4c0-1.9-0.8-3.8-2.1-5.1c-1.4-1.4-3.3-2.3-5.2-2.2c-2,0-4,1.2-5.3,3
					c-0.5,0.7-0.8,1.4-1.1,2.2L23,49.9l0.2-2.4c0-0.2,0.1-0.5,0.1-0.8c0.1-0.5,0.3-1,0.5-1.5c0.9-2.3,2.9-4,5.3-4.6
					c0.4-0.1,0.7-0.4,0.7-0.8c0-2.1-0.9-4.2-2.5-5.6c-1.6-1.4-3.8-2-5.9-1.7c-3.3,0.5-6,3.2-6.3,6.6c-0.1,1.1,0,2.1,0.4,3.1l0.1,0.4
					h-0.4c-0.2,0-0.3,0-0.4,0c-4.1,0-7.4,3.3-7.4,7.4s3.3,7.4,7.4,7.4c1.8,0,3.6-0.7,5-1.9c1.1-1,1.9-2.4,2.2-3.8
					c0.1-0.5,0.2-1.1,0.2-1.6h0.3V49.8z"/>
			</g>
		</g>
		<g>
			<g>
				<path class="st4" d="M198.3,260.6c0-0.2,0-0.5,0-0.7c-0.2-2.4-1.4-4.4-3.3-5.8c-0.6-0.4-0.9-1.1-0.9-1.8l0,0h13.4l0,0
					c0,0.7-0.4,1.3-0.9,1.8c-1.8,1.3-3,3.3-3.2,5.6c0,0.3,0,0.5,0,0.8c0,3,1.7,5.7,4.2,7v2.8H199c0.2-0.5,0.3-1,0.5-1.5
					c0-0.3,0.1-0.5,0.1-0.8c-0.3,0.9-0.6,1.6-1.1,2.3h-4.3v-2.8C196.6,266.3,198.3,263.7,198.3,260.6z"/>
			</g>
			<g>
				<path class="st5" d="M194.1,252.2h13.7v0.3c0,0.8-0.4,1.5-1.1,2c-1.8,1.3-2.9,3.3-3.1,5.4c0,0.3,0,0.5,0,0.8
					c0,2.8,1.6,5.4,4.1,6.8l0.1,0.1v3.2h-9.2v-0.1l-0.1,0.1h-4.8v-3.2l0.1-0.1c2.5-1.3,4.1-3.9,4.1-6.8c0-0.2,0-0.4,0-0.7
					c-0.2-2.2-1.3-4.2-3.1-5.5c-0.7-0.5-1.1-1.2-1.1-2v-0.3L194.1,252.2z M207.2,252.7h-12.8c0.1,0.5,0.4,0.9,0.8,1.3
					c1.9,1.4,3.2,3.6,3.4,6c0,0.2,0,0.5,0,0.7c0,3-1.6,5.7-4.2,7.2v2.3h3.9c0.5-0.6,0.8-1.4,1-2.1l0.7-2.4l-0.2,2.5
					c0,0.2-0.1,0.5-0.1,0.8c-0.1,0.4-0.2,0.8-0.3,1.2h7.8v-2.3c-2.6-1.4-4.2-4.2-4.2-7.2c0-0.3,0-0.6,0-0.8c0.2-2.3,1.5-4.4,3.4-5.8
					C206.8,253.7,207.1,253.2,207.2,252.7z"/>
			</g>
			<g>
				<path class="st4" d="M184.9,265.7c0-4.4,3.6-7.9,7.9-7.9c2.1,0,4,0.8,5.5,2.2c1.1,1.1,1.9,2.4,2.3,4c0.1,0.6,0.2,1.2,0.2,1.8
					c0-0.6,0.1-1.2,0.2-1.7c0.4-1.6,1.2-3,2.4-4.1c1.4-1.3,3.3-2.1,5.3-2.1c4.4,0,7.9,3.5,7.9,7.9s-3.5,7.9-7.9,7.9
					c-0.1,0-0.3,0-0.4,0c0.4,1,0.5,2.1,0.4,3.3c-0.3,3.6-3.2,6.6-6.8,7.1c-4.9,0.7-9-3.1-9-7.8l0,0c0-0.5,0.4-1,0.9-1.1
					c2.4-0.6,4.4-2.3,5.3-4.6c0.2-0.5,0.3-1,0.5-1.5c0-0.3,0.1-0.5,0.1-0.8c-0.3,0.9-0.6,1.6-1.1,2.3c-1.3,1.8-3.5,3.1-5.7,3.2
					c-2.1,0.1-4.2-0.9-5.6-2.4C185.7,269.7,184.9,267.7,184.9,265.7z"/>
			</g>
			<g>
				<path class="st5" d="M192.8,257.5c2.1,0,4.1,0.8,5.7,2.3c1.1,1,1.9,2.4,2.3,3.8c0.4-1.5,1.2-2.9,2.4-3.9
					c1.5-1.4,3.5-2.1,5.5-2.1c4.5,0,8.2,3.7,8.2,8.2s-3.7,8.2-8.2,8.2l0,0c0.3,1,0.4,2,0.3,3c-0.3,3.7-3.3,6.8-7,7.3
					c-2.4,0.3-4.8-0.4-6.6-1.9c-1.8-1.6-2.8-3.8-2.8-6.2c0-0.6,0.5-1.2,1.1-1.4c2.2-0.6,4-2.1,5-4.2c-1.4,2-3.7,3.2-5.9,3.3
					c-2.1,0.1-4.2-0.9-5.8-2.5c-1.5-1.5-2.3-3.6-2.3-5.7C184.6,261.2,188.3,257.5,192.8,257.5z M200.4,265.7c0-0.6-0.1-1.2-0.2-1.7
					c-0.3-1.5-1.1-2.8-2.2-3.8c-1.4-1.4-3.3-2.1-5.3-2.1c-4.2,0-7.7,3.4-7.7,7.6c0,2,0.8,3.9,2.1,5.3c1.4,1.5,3.5,2.4,5.4,2.3
					c2.1-0.1,4.2-1.2,5.5-3.1c0.5-0.7,0.9-1.4,1.1-2.2l0.7-2.4l-0.2,2.5c0,0.2-0.1,0.5-0.1,0.8c-0.1,0.5-0.3,1.1-0.5,1.6
					c-1,2.4-3,4.2-5.5,4.8c-0.4,0.1-0.7,0.4-0.7,0.8c0,2.2,1,4.3,2.6,5.8c1.7,1.5,3.9,2.1,6.1,1.8c3.5-0.5,6.2-3.4,6.5-6.8
					c0.1-1.1,0-2.2-0.4-3.2l-0.1-0.4h0.4c0.2,0,0.3,0,0.4,0c4.2,0,7.7-3.4,7.7-7.7c0-4.2-3.4-7.6-7.7-7.6c-1.9,0-3.7,0.7-5.1,2
					c-1.2,1.1-2,2.4-2.3,4c-0.1,0.5-0.2,1.1-0.2,1.7L200.4,265.7L200.4,265.7z"/>
			</g>
		</g>
	</g>
	<g>
		<path d="M89.9,83.1c-0.2,0-0.5-0.2-0.5-0.4c0-0.3,0.1-0.5,0.4-0.6l5.2-0.8c0.3,0,0.5,0.1,0.6,0.4c0,0.3-0.1,0.5-0.4,0.6L89.9,83.1
			C90,83.1,89.9,83.1,89.9,83.1z"/>
	</g>
	<g>
		<polygon points="147.1,156.9 124.9,156.9 100.5,132.5 101.3,131.7 125.3,155.9 147.1,155.9 		"/>
	</g>
	<g>
		<path d="M128.1,87.4h-25.5l-1.1-7c-0.3-2.3-2.1-3.9-4.4-3.9H86.3l6.1-28.9c0.5-3.3,3.4-5.7,6.7-5.7h27.7c3.7,0,6.7,2.8,6.8,6.5
			l1.3,32c0.1,1.8-0.7,3.6-1.9,5C131.7,86.7,129.9,87.4,128.1,87.4z M103.4,86.4h24.7c1.6,0,3-0.6,4.1-1.8c1.1-1.1,1.7-2.7,1.7-4.2
			l-1.3-32c-0.1-3.1-2.6-5.5-5.8-5.5H99.1c-2.8,0-5.2,2.1-5.7,4.9l-5.9,27.7h9.6c2.8,0,5.1,2,5.4,4.7L103.4,86.4z"/>
	</g>
	<g>
		<path d="M103.6,87.4H91.4c-0.9,0-1.8-0.4-2.5-1.2c-0.6-0.8-0.9-1.8-0.7-2.7l1.5-8h6.7c3.2,0,5.9,2.3,6.3,5.4L103.6,87.4z
			 M90.5,76.5l-1.3,7.2c-0.1,0.7,0.1,1.4,0.5,1.9c0.4,0.5,1,0.8,1.7,0.8h11l-0.7-5.3c-0.4-2.6-2.6-4.6-5.3-4.6H90.5z"/>
	</g>
	<g>
		<path d="M100.7,133h-21l12.2-46.6h51.6l1.2,17.3L135,97L100.7,133z M81,132h19.2l34.5-36.4l8.7,6l-1-14.3H92.7L81,132z"/>
	</g>
	<g>
		<polygon points="77.3,67.1 77.3,138.5 74.7,138.5 74.7,71.2 		"/>
	</g>
	<g>
		<rect x="72.2" y="138.7" width="7" height="1"/>
	</g>
	<g>
		<polygon class="st4" points="89.1,132.5 100.5,132.5 117.3,149.4 74.7,149.4 74.7,140 93.9,140 		"/>
		<path d="M118.5,149.9H74.2v-10.4H93l-4.8-7.5h12.5L118.5,149.9z M75.2,148.9h40.9L100.3,133H90l4.8,7.5H75.2V148.9z"/>
	</g>
	<g>
		<polygon class="st4" points="92.3,86.9 99.2,106.3 89.1,132.5 100.5,132.5 134.9,96.3 142.2,86.9 		"/>
		<path d="M100.7,133H88.4l10.3-26.7l-7.1-19.9h51.6l-7.9,10.2L100.7,133z M89.8,132h10.5l34.3-36l6.6-8.6H93l6.7,18.9L89.8,132z"/>
	</g>
	<g>
		<path d="M108.1,56.2H91.2c-0.3,0-0.5-0.2-0.5-0.5s0.2-0.5,0.5-0.5h16.9c0.3,0,0.5,0.2,0.5,0.5S108.4,56.2,108.1,56.2z"/>
	</g>
	<g>
		<path d="M104.7,61.7h-14c-0.3,0-0.5-0.2-0.5-0.5s0.2-0.5,0.5-0.5h14c0.3,0,0.5,0.2,0.5,0.5S105,61.7,104.7,61.7z"/>
	</g>
	<g>
		<path d="M92.1,61.7c0,0-0.1,0-0.1,0c-0.3-0.1-0.4-0.3-0.4-0.6l1.2-5.5c0.1-0.3,0.3-0.4,0.6-0.4c0.3,0.1,0.4,0.3,0.4,0.6l-1.2,5.5
			C92.5,61.5,92.3,61.7,92.1,61.7z"/>
	</g>
	<g>
		<path d="M94.3,61.7c0,0-0.1,0-0.1,0c-0.3-0.1-0.4-0.3-0.4-0.6l1.2-5.5c0.1-0.3,0.3-0.4,0.6-0.4c0.3,0.1,0.4,0.3,0.4,0.6l-1.2,5.5
			C94.7,61.5,94.5,61.7,94.3,61.7z"/>
	</g>
	<g>
		<path d="M96.5,61.7c0,0-0.1,0-0.1,0c-0.3-0.1-0.4-0.3-0.4-0.6l1.2-5.5c0.1-0.3,0.3-0.4,0.6-0.4c0.3,0.1,0.4,0.3,0.4,0.6L97,61.3
			C96.9,61.5,96.7,61.7,96.5,61.7z"/>
	</g>
	<g>
		<path d="M98.7,61.7c0,0-0.1,0-0.1,0c-0.3-0.1-0.4-0.3-0.4-0.6l1.2-5.5c0.1-0.3,0.3-0.4,0.6-0.4c0.3,0.1,0.4,0.3,0.4,0.6l-1.2,5.5
			C99.1,61.5,98.9,61.7,98.7,61.7z"/>
	</g>
	<g>
		<path d="M100.8,61.7c0,0-0.1,0-0.1,0c-0.3-0.1-0.4-0.3-0.4-0.6l1.2-5.5c0.1-0.3,0.3-0.4,0.6-0.4c0.3,0.1,0.4,0.3,0.4,0.6l-1.2,5.5
			C101.2,61.5,101,61.7,100.8,61.7z"/>
	</g>
	<g>
		<path d="M103,61.7c0,0-0.1,0-0.1,0c-0.3-0.1-0.4-0.3-0.4-0.6l1.2-5.5c0.1-0.3,0.3-0.4,0.6-0.4c0.3,0.1,0.4,0.3,0.4,0.6l-1.2,5.5
			C103.4,61.5,103.2,61.7,103,61.7z"/>
	</g>
	<g>
		<path d="M128.9,232.3c-0.2,0-0.4-0.2-0.5-0.4c0-0.3,0.1-0.5,0.4-0.6l5.2-0.9c0.3-0.1,0.5,0.1,0.6,0.4c0,0.3-0.1,0.5-0.4,0.6
			L128.9,232.3C129,232.3,128.9,232.3,128.9,232.3z"/>
	</g>
	<g>
		<polygon points="122.7,181.8 98.7,157.6 76.9,157.6 76.9,156.6 99.1,156.6 99.3,156.7 123.5,181 		"/>
	</g>
	<g>
		<path d="M124.8,271.7H97.1c-3.7,0-6.7-2.8-6.8-6.5l-1.3-32c-0.1-1.8,0.7-3.6,1.9-5c1.3-1.3,3-2.1,4.9-2.1h25.6l1.1,6.9
			c0.3,2.3,2.1,3.9,4.4,3.9h10.8l-6.2,29C130.9,269.3,128.1,271.7,124.8,271.7z M95.8,227.2c-1.6,0-3,0.6-4.1,1.8
			c-1.1,1.1-1.7,2.7-1.7,4.2l1.3,32c0.1,3.1,2.6,5.5,5.8,5.5h27.7c2.8,0,5.2-2.1,5.7-4.9l6-27.8h-9.6c-2.8,0-5.1-2-5.4-4.7l-0.9-6.1
			H95.8z"/>
	</g>
	<g>
		<path d="M134.3,238.1h-6.7c-3.2,0-5.9-2.3-6.3-5.4l-0.9-6.5h12.2c0.9,0,1.8,0.4,2.5,1.2c0.6,0.8,0.9,1.8,0.7,2.7L134.3,238.1z
			 M121.6,227.2l0.7,5.3c0.4,2.6,2.6,4.6,5.3,4.6h5.9l1.3-7.2c0.1-0.7-0.1-1.4-0.5-1.9c-0.4-0.5-1-0.8-1.7-0.8H121.6z"/>
	</g>
	<g>
		<path d="M132.1,227.2H80.5l-1.2-17.4l9.7,6.8l34.3-36h21L132.1,227.2z M81.5,226.2h49.8l11.6-44.7h-19.2l-34.5,36.4l-8.7-6
			L81.5,226.2z"/>
	</g>
	<g>
		<polygon points="146.7,246.5 146.7,175.1 149.3,175.1 149.3,242.4 		"/>
	</g>
	<g>
		<rect x="144.8" y="173.8" width="7" height="1"/>
	</g>
	<g>
		<polygon class="st4" points="134.9,181 123.5,181 106.7,164.2 149.3,164.2 149.3,173.5 130.1,173.5 		"/>
		<path d="M135.8,181.5h-12.5l-17.8-17.8h44.3V174H131L135.8,181.5z M123.7,180.5H134l-4.8-7.5h19.6v-8.3h-40.9L123.7,180.5z"/>
	</g>
	<g>
		<polygon class="st4" points="131.7,226.7 124.8,207.2 134.9,181 123.5,181 89.1,217.2 81.8,226.7 		"/>
		<path d="M132.4,227.2H80.8l7.9-10.3l34.6-36.4h12.3l-10.3,26.7L132.4,227.2z M82.8,226.2H131l-6.7-19l9.9-25.7h-10.5l-34.3,36
			L82.8,226.2z"/>
	</g>
	<g>
		<path d="M132.8,258.4h-16.9c-0.3,0-0.5-0.2-0.5-0.5s0.2-0.5,0.5-0.5h16.9c0.3,0,0.5,0.2,0.5,0.5S133.1,258.4,132.8,258.4z"/>
	</g>
	<g>
		<path d="M133.3,252.9h-14c-0.3,0-0.5-0.2-0.5-0.5s0.2-0.5,0.5-0.5h14c0.3,0,0.5,0.2,0.5,0.5S133.6,252.9,133.3,252.9z"/>
	</g>
	<g>
		<path d="M130.7,258.4c0,0-0.1,0-0.1,0c-0.3-0.1-0.4-0.3-0.4-0.6l1.2-5.5c0.1-0.3,0.3-0.4,0.6-0.4c0.3,0.1,0.4,0.3,0.4,0.6
			l-1.2,5.5C131.1,258.2,130.9,258.4,130.7,258.4z"/>
	</g>
	<g>
		<path d="M128.5,258.4c0,0-0.1,0-0.1,0c-0.3-0.1-0.4-0.3-0.4-0.6l1.2-5.5c0.1-0.3,0.3-0.4,0.6-0.4c0.3,0.1,0.4,0.3,0.4,0.6L129,258
			C128.9,258.2,128.7,258.4,128.5,258.4z"/>
	</g>
	<g>
		<path d="M126.3,258.4c0,0-0.1,0-0.1,0c-0.3-0.1-0.4-0.3-0.4-0.6l1.2-5.5c0.1-0.3,0.3-0.4,0.6-0.4c0.3,0.1,0.4,0.3,0.4,0.6
			l-1.2,5.5C126.7,258.2,126.5,258.4,126.3,258.4z"/>
	</g>
	<g>
		<path d="M124.1,258.4c0,0-0.1,0-0.1,0c-0.3-0.1-0.4-0.3-0.4-0.6l1.2-5.5c0.1-0.3,0.3-0.4,0.6-0.4c0.3,0.1,0.4,0.3,0.4,0.6
			l-1.2,5.5C124.5,258.2,124.3,258.4,124.1,258.4z"/>
	</g>
	<g>
		<path d="M122,258.4c0,0-0.1,0-0.1,0c-0.3-0.1-0.4-0.3-0.4-0.6l1.2-5.5c0.1-0.3,0.3-0.4,0.6-0.4c0.3,0.1,0.4,0.3,0.4,0.6l-1.2,5.5
			C122.4,258.2,122.2,258.4,122,258.4z"/>
	</g>
	<g>
		<path d="M119.8,258.4c0,0-0.1,0-0.1,0c-0.3-0.1-0.4-0.3-0.4-0.6l1.2-5.5c0.1-0.3,0.3-0.4,0.6-0.4c0.3,0.1,0.4,0.3,0.4,0.6
			l-1.2,5.5C120.2,258.2,120,258.4,119.8,258.4z"/>
	</g>
	<g>
		<g>
			<path class="st4" d="M135.6,140c0,0.3,0,0.5,0,0.8c0.2,2.8,1.7,5.3,3.9,6.8c0.7,0.5,1.1,1.3,1.1,2.1l0,0h-16l0,0
				c0-0.8,0.4-1.6,1.1-2.1c2.1-1.5,3.6-3.9,3.9-6.7c0-0.3,0.1-0.6,0.1-1c0-3.6-2-6.7-5-8.3v-3.3h10.1c-0.2,0.6-0.4,1.2-0.5,1.8
				c-0.1,0.3-0.1,0.6-0.1,1c0.3-1,0.8-1.9,1.4-2.8h5.1v3.3C137.6,133.2,135.6,136.4,135.6,140z"/>
		</g>
		<g>
			<path class="st5" d="M140.6,150.1h-16.3v-0.3c0-0.9,0.5-1.8,1.3-2.4c2.1-1.5,3.5-3.9,3.7-6.4c0-0.3,0-0.6,0-0.9
				c0-3.4-1.9-6.5-4.8-8l-0.2-0.1v-4h10.9v0.1l0.1-0.1h5.6v3.8l-0.2,0.1c-3,1.6-4.8,4.7-4.8,8c0,0.3,0,0.5,0,0.8
				c0.2,2.6,1.6,5,3.7,6.6c0.8,0.6,1.2,1.4,1.2,2.4v0.3L140.6,150.1z M125,149.4h15.2c-0.1-0.6-0.4-1.1-0.9-1.5
				c-2.3-1.7-3.8-4.2-4-7.1c0-0.3,0-0.6,0-0.8c0-3.6,1.9-6.8,5-8.5v-2.8h-4.6c-0.5,0.8-0.9,1.6-1.2,2.5l-0.9,2.8l0.2-3
				c0-0.3,0.1-0.6,0.1-1c0.1-0.5,0.2-1,0.4-1.4H125v2.8c3.1,1.7,5,5,5,8.5c0,0.4,0,0.7-0.1,1c-0.3,2.8-1.7,5.3-4,6.9
				C125.4,148.3,125.1,148.8,125,149.4z"/>
		</g>
		<g>
			<path class="st4" d="M151.5,134c0,5.2-4.2,9.4-9.4,9.4c-2.5,0-4.8-1-6.5-2.6c-1.3-1.2-2.3-2.9-2.7-4.7c-0.2-0.7-0.2-1.4-0.2-2.1
				c0,0.7-0.1,1.4-0.2,2.1c-0.4,1.9-1.4,3.6-2.8,4.9c-1.7,1.5-3.9,2.4-6.3,2.4c-5.2,0-9.4-4.2-9.4-9.4s4.2-9.4,9.4-9.4
				c0.2,0,0.3,0,0.5,0c-0.4-1.2-0.6-2.5-0.5-3.9c0.4-4.3,3.8-7.8,8-8.4c5.8-0.8,10.7,3.7,10.7,9.3l0,0c0,0.6-0.4,1.1-1.1,1.3
				c-2.8,0.7-5.2,2.8-6.3,5.5c-0.2,0.6-0.4,1.2-0.5,1.8c-0.1,0.3-0.1,0.6-0.1,1c0.3-1,0.8-1.9,1.4-2.8c1.6-2.2,4.1-3.7,6.8-3.8
				c2.5-0.1,4.9,1.1,6.6,2.9C150.6,129.2,151.5,131.5,151.5,134z"/>
		</g>
		<g>
			<path class="st5" d="M142.1,143.7c-2.5,0-4.9-1-6.7-2.7c-1.3-1.2-2.2-2.8-2.7-4.5c-0.5,1.8-1.5,3.4-2.9,4.7
				c-1.8,1.6-4.1,2.5-6.6,2.5c-5.4,0-9.8-4.4-9.8-9.7c0-5.4,4.4-9.8,9.8-9.8l0,0c-0.3-1.2-0.4-2.4-0.3-3.6c0.4-4.5,3.9-8.1,8.3-8.7
				c2.8-0.4,5.7,0.5,7.8,2.3c2.1,1.9,3.3,4.5,3.3,7.3c0,0.8-0.5,1.4-1.3,1.6c-2.6,0.7-4.8,2.5-5.9,4.9c1.7-2.3,4.4-3.8,7-3.9
				c2.4-0.1,5,1,6.9,3c1.7,1.8,2.7,4.3,2.7,6.8C151.8,139.3,147.5,143.7,142.1,143.7z M133,134c0,0.7,0.1,1.4,0.2,2
				c0.4,1.7,1.3,3.3,2.6,4.5c1.7,1.6,3.9,2.5,6.3,2.5c5,0,9.1-4.1,9.1-9.1c0-2.3-0.9-4.6-2.6-6.3c-1.7-1.8-4.1-2.8-6.4-2.8
				c-2.4,0.1-5,1.5-6.5,3.7c-0.6,0.8-1,1.7-1.3,2.7l-0.9,2.8l0.2-3c0-0.3,0.1-0.6,0.1-1c0.1-0.6,0.3-1.3,0.6-1.9
				c1.2-2.8,3.6-4.9,6.5-5.7c0.5-0.1,0.8-0.5,0.8-1c0-2.6-1.1-5.1-3.1-6.9c-2-1.7-4.6-2.5-7.3-2.2c-4.1,0.6-7.4,4-7.8,8.1
				c-0.1,1.3,0,2.6,0.4,3.8l0.2,0.5h-0.5c-0.2,0-0.3,0-0.5,0c-5,0-9.1,4.1-9.1,9.1s4.1,9.1,9.1,9.1c2.3,0,4.4-0.8,6.1-2.4
				c1.4-1.3,2.3-2.9,2.7-4.7c0.1-0.7,0.2-1.3,0.2-2h0.9V134z"/>
		</g>
	</g>
	<g>
		<g>
			<path class="st4" d="M88.4,173.6c0-0.3,0-0.5,0-0.8c-0.2-2.8-1.7-5.3-3.9-6.8c-0.7-0.5-1.1-1.3-1.1-2.1l0,0h16l0,0
				c0,0.8-0.4,1.6-1.1,2.1c-2.1,1.5-3.6,3.9-3.9,6.7c0,0.3-0.1,0.6-0.1,1c0,3.6,2,6.7,5,8.3v3.3h-10c0.2-0.6,0.4-1.2,0.5-1.8
				c0.1-0.3,0.1-0.6,0.1-1c-0.3,1-0.8,1.9-1.4,2.8h-5.1V182C86.4,180.3,88.4,177.2,88.4,173.6z"/>
		</g>
		<g>
			<path class="st5" d="M83.4,163.5h16.3v0.3c0,0.9-0.5,1.8-1.3,2.4c-2.1,1.5-3.5,3.9-3.7,6.4c0,0.3,0,0.6,0,0.9
				c0,3.4,1.9,6.5,4.8,8l0.2,0.1v3.8H88.8v-0.1l-0.1,0.1h-5.6v-3.8l0.2-0.1c3-1.6,4.8-4.7,4.8-8c0-0.3,0-0.5,0-0.8
				c-0.2-2.6-1.6-5-3.7-6.6c-0.8-0.6-1.2-1.4-1.2-2.4v-0.3L83.4,163.5z M99,164.2H83.8c0.1,0.6,0.4,1.1,0.9,1.5
				c2.3,1.7,3.8,4.2,4,7.1c0,0.3,0,0.6,0,0.8c0,3.6-1.9,6.8-5,8.5v2.8h4.6c0.5-0.8,0.9-1.6,1.2-2.5l0.9-2.8l-0.2,3
				c0,0.3-0.1,0.6-0.1,1c-0.1,0.5-0.2,1-0.4,1.4H99v-2.8c-3.1-1.7-5-5-5-8.5c0-0.4,0-0.7,0.1-1c0.3-2.8,1.7-5.3,4-6.9
				C98.6,165.3,98.9,164.7,99,164.2z"/>
		</g>
		<g>
			<path class="st4" d="M72.5,179.6c0-5.2,4.2-9.4,9.4-9.4c2.5,0,4.8,1,6.5,2.6c1.3,1.2,2.3,2.9,2.7,4.7c0.2,0.7,0.2,1.4,0.2,2.1
				c0-0.7,0.1-1.4,0.2-2.1c0.4-1.9,1.4-3.6,2.8-4.9c1.7-1.5,3.9-2.4,6.3-2.4c5.2,0,9.4,4.2,9.4,9.4s-4.2,9.4-9.4,9.4
				c-0.2,0-0.3,0-0.5,0c0.4,1.2,0.6,2.5,0.5,3.9c-0.4,4.3-3.8,7.8-8,8.4c-5.8,0.8-10.7-3.7-10.7-9.3l0,0c0-0.6,0.4-1.1,1.1-1.3
				c2.8-0.7,5.2-2.8,6.3-5.5c0.2-0.6,0.4-1.2,0.5-1.8c0.1-0.3,0.1-0.6,0.1-1c-0.3,1-0.8,1.9-1.4,2.8c-1.6,2.2-4.1,3.7-6.8,3.8
				c-2.5,0.1-4.9-1.1-6.6-2.9C73.4,184.4,72.5,182,72.5,179.6z"/>
		</g>
		<g>
			<path class="st5" d="M81.9,169.8c2.5,0,4.9,1,6.7,2.7c1.3,1.2,2.2,2.8,2.7,4.5c0.5-1.8,1.5-3.4,2.9-4.7c1.8-1.6,4.1-2.5,6.6-2.5
				c5.4,0,9.8,4.4,9.8,9.7c0,5.4-4.4,9.8-9.8,9.8l0,0c0.3,1.2,0.4,2.4,0.3,3.6c-0.4,4.5-3.9,8.1-8.3,8.7c-2.8,0.4-5.7-0.5-7.8-2.3
				c-2.1-1.9-3.3-4.5-3.3-7.3c0-0.8,0.5-1.4,1.3-1.6c2.6-0.7,4.8-2.5,5.9-4.9c-1.7,2.3-4.4,3.8-7,3.9c-2.4,0.1-5-1-6.9-3
				c-1.7-1.8-2.7-4.3-2.7-6.8C72.2,174.2,76.5,169.8,81.9,169.8z M91,179.6c0-0.7-0.1-1.4-0.2-2c-0.4-1.7-1.3-3.3-2.6-4.5
				c-1.7-1.6-3.9-2.5-6.3-2.5c-5,0-9.1,4.1-9.1,9.1c0,2.3,0.9,4.6,2.6,6.3c1.7,1.8,4.1,2.8,6.4,2.8c2.4-0.1,5-1.5,6.5-3.7
				c0.6-0.8,1-1.7,1.3-2.7l0.9-2.8l-0.2,3c0,0.3-0.1,0.6-0.1,1c-0.1,0.6-0.3,1.3-0.6,1.9c-1.2,2.8-3.6,4.9-6.5,5.7
				c-0.5,0.1-0.8,0.5-0.8,1c0,2.6,1.1,5.1,3.1,6.9c2,1.7,4.6,2.5,7.3,2.2c4.1-0.6,7.4-4,7.8-8.1c0.1-1.3,0-2.6-0.4-3.8l-0.2-0.5h0.5
				c0.2,0,0.3,0,0.5,0c5,0,9.1-4.1,9.1-9.1s-4.1-9.1-9.1-9.1c-2.3,0-4.4,0.8-6.1,2.4c-1.4,1.3-2.3,2.9-2.7,4.7
				c-0.1,0.7-0.2,1.3-0.2,2H91V179.6z"/>
		</g>
	</g>
</g>
</svg>
