<?xml version="1.0" encoding="utf-8"?>
<!-- Generator: Adobe Illustrator 25.2.0, SVG Export Plug-In . SVG Version: 6.00 Build 0)  -->
<svg version="1.1" id="Layer_1" xmlns="http://www.w3.org/2000/svg" xmlns:xlink="http://www.w3.org/1999/xlink" x="0px" y="0px"
	 viewBox="0 0 224.2 312.8" style="enable-background:new 0 0 224.2 312.8;" xml:space="preserve">
<style type="text/css">
	.st0{opacity:2.000000e-02;enable-background:new    ;}
	.st1{enable-background:new    ;}
	.st2{fill:none;stroke:#000000;stroke-miterlimit:10;}
	.st3{opacity:5.000000e-02;enable-background:new    ;}
	.st4{fill:#190B38;}
	.st5{fill:#050307;}
</style>
<g>
	<g>
		<g class="st0">
			<rect x="-0.2" y="0.7" width="224.4" height="312.1"/>
		</g>
		<g class="st1">
			<path d="M207.1,229v-9.9h2.3v21.8h-2.3v-9.8h-2.8l-9.2,9.8h-2.9l10.3-10.7l-11-11.1h3l9.8,9.9H207.1z"/>
		</g>
		<g class="st1">
			<path class="st2" d="M207.1,229v-9.9h2.3v21.8h-2.3v-9.8h-2.8l-9.2,9.8h-2.9l10.3-10.7l-11-11.1h3l9.8,9.9H207.1z"/>
		</g>
		<g class="st1">
			<path d="M16.2,86.2v9.9h-2.3V74.4h2.3v9.8h2.8l9.2-9.8h2.9L20.7,85.1l11,11.1h-3l-9.8-9.9H16.2z"/>
		</g>
		<g class="st1">
			<path class="st2" d="M16.2,86.2v9.9h-2.3V74.4h2.3v9.8h2.8l9.2-9.8h2.9L20.7,85.1l11,11.1h-3l-9.8-9.9H16.2z"/>
		</g>
		<g class="st3">
			<path d="M173.4,283.5H50.6c-4.2,0-7.5-3.4-7.5-7.5V37.6c0-4.2,3.4-7.5,7.5-7.5h122.9c4.2,0,7.5,3.4,7.5,7.5V276
				C181,280.1,177.6,283.5,173.4,283.5z"/>
		</g>
		<g>
			<g>
				<path class="st4" d="M24.6,54.7c0,0.2,0,0.4,0,0.7c0.2,2.3,1.4,4.3,3.1,5.5c0.6,0.4,0.9,1,0.9,1.7l0,0h-13l0,0
					c0-0.7,0.4-1.3,0.9-1.7c1.7-1.2,2.9-3.2,3.1-5.4c0-0.3,0-0.5,0-0.8c0-2.9-1.7-5.5-4.1-6.8v-2.7H24c-0.2,0.5-0.3,0.9-0.4,1.5
					c0,0.3-0.1,0.5-0.1,0.8c0.2-0.8,0.6-1.6,1.1-2.2h4.2V48C26.3,49.2,24.6,51.7,24.6,54.7z"/>
			</g>
			<g>
				<path class="st5" d="M28.7,62.8H15.5v-0.3c0-0.8,0.4-1.5,1-1.9c1.7-1.2,2.8-3.1,3-5.2c0-0.2,0-0.5,0-0.7c0-2.7-1.5-5.2-3.9-6.5
					l-0.1-0.1V45h8.9v0.1l0.1-0.1H29v3.1l-0.1,0.1C26.5,49.5,25,52,25,54.7c0,0.2,0,0.4,0,0.6c0.2,2.1,1.3,4.1,3,5.3
					c0.6,0.5,1,1.2,1,1.9v0.3L28.7,62.8z M16,62.3h12.4c-0.1-0.5-0.3-0.9-0.8-1.2c-1.9-1.4-3.1-3.4-3.3-5.7c0-0.2,0-0.5,0-0.7
					c0-2.9,1.6-5.5,4.1-6.9v-2.2h-3.8c-0.4,0.6-0.8,1.3-1,2.1L23,49.9l0.2-2.4c0-0.2,0.1-0.5,0.1-0.8c0.1-0.4,0.2-0.8,0.3-1.1H16
					v2.2c2.5,1.4,4.1,4,4.1,6.9c0,0.3,0,0.6,0,0.8c-0.2,2.2-1.4,4.3-3.2,5.6C16.4,61.4,16.1,61.8,16,62.3z"/>
			</g>
			<g>
				<path class="st4" d="M37.6,49.8c0,4.2-3.4,7.6-7.6,7.6c-2,0-3.9-0.8-5.3-2.1c-1.1-1-1.8-2.3-2.2-3.8c-0.1-0.5-0.2-1.1-0.2-1.7
					c0,0.6-0.1,1.1-0.2,1.7c-0.3,1.6-1.2,2.9-2.3,4c-1.4,1.2-3.2,2-5.1,2C10.4,57.4,7,54,7,49.8s3.4-7.6,7.6-7.6c0.1,0,0.3,0,0.4,0
					c-0.3-1-0.5-2.1-0.4-3.2c0.3-3.5,3.1-6.4,6.5-6.8c4.7-0.6,8.7,3,8.7,7.6l0,0c0,0.5-0.4,0.9-0.9,1.1c-2.3,0.6-4.2,2.2-5.1,4.5
					c-0.2,0.5-0.3,0.9-0.4,1.5c0,0.3-0.1,0.5-0.1,0.8c0.2-0.8,0.6-1.6,1.1-2.2c1.3-1.8,3.3-3,5.5-3.1c2-0.1,4,0.9,5.4,2.3
					C36.8,45.9,37.6,47.8,37.6,49.8z"/>
			</g>
			<g>
				<path class="st5" d="M29.9,57.7c-2,0-4-0.8-5.5-2.2c-1.1-1-1.8-2.3-2.2-3.7c-0.4,1.5-1.2,2.8-2.3,3.8c-1.5,1.3-3.4,2.1-5.3,2.1
					c-4.4,0-7.9-3.5-7.9-7.9s3.6-7.9,7.9-7.9l0,0C14.3,41,14.2,40,14.3,39c0.3-3.6,3.2-6.6,6.8-7.1c2.3-0.3,4.6,0.4,6.3,1.9
					c1.7,1.5,2.7,3.7,2.7,6c0,0.6-0.4,1.2-1.1,1.3c-2.1,0.6-3.9,2-4.8,4c1.4-1.9,3.6-3.1,5.7-3.1c2-0.1,4.1,0.8,5.6,2.4
					c1.4,1.5,2.2,3.5,2.2,5.5C37.8,54.1,34.3,57.7,29.9,57.7z M22.5,49.8c0,0.6,0.1,1.1,0.2,1.7c0.3,1.4,1.1,2.7,2.1,3.7
					c1.4,1.3,3.2,2,5.1,2c4.1,0,7.4-3.3,7.4-7.4c0-1.9-0.8-3.8-2.1-5.1c-1.4-1.4-3.3-2.3-5.2-2.2c-2,0-4,1.2-5.3,3
					c-0.5,0.7-0.8,1.4-1.1,2.2L23,49.9l0.2-2.4c0-0.2,0.1-0.5,0.1-0.8c0.1-0.5,0.3-1,0.5-1.5c0.9-2.3,2.9-4,5.3-4.6
					c0.4-0.1,0.7-0.4,0.7-0.8c0-2.1-0.9-4.2-2.5-5.6c-1.6-1.4-3.8-2-5.9-1.7c-3.3,0.5-6,3.2-6.3,6.6c-0.1,1.1,0,2.1,0.4,3.1l0.1,0.4
					h-0.4c-0.2,0-0.3,0-0.4,0c-4.1,0-7.4,3.3-7.4,7.4s3.3,7.4,7.4,7.4c1.8,0,3.6-0.7,5-1.9c1.1-1,1.9-2.4,2.2-3.8
					c0.1-0.5,0.2-1.1,0.2-1.6h0.3V49.8z"/>
			</g>
		</g>
		<g>
			<g>
				<path class="st4" d="M198.3,260.6c0-0.2,0-0.5,0-0.7c-0.2-2.4-1.4-4.4-3.3-5.8c-0.6-0.4-0.9-1.1-0.9-1.8l0,0h13.4l0,0
					c0,0.7-0.4,1.3-0.9,1.8c-1.8,1.3-3,3.3-3.2,5.6c0,0.3,0,0.5,0,0.8c0,3,1.7,5.7,4.2,7v2.8H199c0.2-0.5,0.3-1,0.5-1.5
					c0-0.3,0.1-0.5,0.1-0.8c-0.3,0.9-0.6,1.6-1.1,2.3h-4.3v-2.8C196.6,266.3,198.3,263.7,198.3,260.6z"/>
			</g>
			<g>
				<path class="st5" d="M194.1,252.2h13.7v0.3c0,0.8-0.4,1.5-1.1,2c-1.8,1.3-2.9,3.3-3.1,5.4c0,0.3,0,0.5,0,0.8
					c0,2.8,1.6,5.4,4.1,6.8l0.1,0.1v3.2h-9.2v-0.1l-0.1,0.1h-4.8v-3.2l0.1-0.1c2.5-1.3,4.1-3.9,4.1-6.8c0-0.2,0-0.4,0-0.7
					c-0.2-2.2-1.3-4.2-3.1-5.5c-0.7-0.5-1.1-1.2-1.1-2v-0.3L194.1,252.2z M207.2,252.7h-12.8c0.1,0.5,0.4,0.9,0.8,1.3
					c1.9,1.4,3.2,3.6,3.4,6c0,0.2,0,0.5,0,0.7c0,3-1.6,5.7-4.2,7.2v2.3h3.9c0.5-0.6,0.8-1.4,1-2.1l0.7-2.4l-0.2,2.5
					c0,0.2-0.1,0.5-0.1,0.8c-0.1,0.4-0.2,0.8-0.3,1.2h7.8v-2.3c-2.6-1.4-4.2-4.2-4.2-7.2c0-0.3,0-0.6,0-0.8c0.2-2.3,1.5-4.4,3.4-5.8
					C206.8,253.7,207.1,253.2,207.2,252.7z"/>
			</g>
			<g>
				<path class="st4" d="M184.9,265.7c0-4.4,3.6-7.9,7.9-7.9c2.1,0,4,0.8,5.5,2.2c1.1,1.1,1.9,2.4,2.3,4c0.1,0.6,0.2,1.2,0.2,1.8
					c0-0.6,0.1-1.2,0.2-1.7c0.4-1.6,1.2-3,2.4-4.1c1.4-1.3,3.3-2.1,5.3-2.1c4.4,0,7.9,3.5,7.9,7.9s-3.5,7.9-7.9,7.9
					c-0.1,0-0.3,0-0.4,0c0.4,1,0.5,2.1,0.4,3.3c-0.3,3.6-3.2,6.6-6.8,7.1c-4.9,0.7-9-3.1-9-7.8l0,0c0-0.5,0.4-1,0.9-1.1
					c2.4-0.6,4.4-2.3,5.3-4.6c0.2-0.5,0.3-1,0.5-1.5c0-0.3,0.1-0.5,0.1-0.8c-0.3,0.9-0.6,1.6-1.1,2.3c-1.3,1.8-3.5,3.1-5.7,3.2
					c-2.1,0.1-4.2-0.9-5.6-2.4C185.7,269.7,184.9,267.7,184.9,265.7z"/>
			</g>
			<g>
				<path class="st5" d="M192.8,257.5c2.1,0,4.1,0.8,5.7,2.3c1.1,1,1.9,2.4,2.3,3.8c0.4-1.5,1.2-2.9,2.4-3.9
					c1.5-1.4,3.5-2.1,5.5-2.1c4.5,0,8.2,3.7,8.2,8.2s-3.7,8.2-8.2,8.2l0,0c0.3,1,0.4,2,0.3,3c-0.3,3.7-3.3,6.8-7,7.3
					c-2.4,0.3-4.8-0.4-6.6-1.9c-1.8-1.6-2.8-3.8-2.8-6.2c0-0.6,0.5-1.2,1.1-1.4c2.2-0.6,4-2.1,5-4.2c-1.4,2-3.7,3.2-5.9,3.3
					c-2.1,0.1-4.2-0.9-5.8-2.5c-1.5-1.5-2.3-3.6-2.3-5.7C184.6,261.2,188.3,257.5,192.8,257.5z M200.4,265.7c0-0.6-0.1-1.2-0.2-1.7
					c-0.3-1.5-1.1-2.8-2.2-3.8c-1.4-1.4-3.3-2.1-5.3-2.1c-4.2,0-7.7,3.4-7.7,7.6c0,2,0.8,3.9,2.1,5.3c1.4,1.5,3.5,2.4,5.4,2.3
					c2.1-0.1,4.2-1.2,5.5-3.1c0.5-0.7,0.9-1.4,1.1-2.2l0.7-2.4l-0.2,2.5c0,0.2-0.1,0.5-0.1,0.8c-0.1,0.5-0.3,1.1-0.5,1.6
					c-1,2.4-3,4.2-5.5,4.8c-0.4,0.1-0.7,0.4-0.7,0.8c0,2.2,1,4.3,2.6,5.8c1.7,1.5,3.9,2.1,6.1,1.8c3.5-0.5,6.2-3.4,6.5-6.8
					c0.1-1.1,0-2.2-0.4-3.2l-0.1-0.4h0.4c0.2,0,0.3,0,0.4,0c4.2,0,7.7-3.4,7.7-7.7c0-4.2-3.4-7.6-7.7-7.6c-1.9,0-3.7,0.7-5.1,2
					c-1.2,1.1-2,2.4-2.3,4c-0.1,0.5-0.2,1.1-0.2,1.7L200.4,265.7L200.4,265.7z"/>
			</g>
		</g>
	</g>
	<g>
		<g>
			<path d="M128.5,89h-19.6c-1.1,0-2-0.7-2.3-1.8l-2-8.8c-0.1-0.6-0.7-1-1.3-1H92c-0.9,0-1.7-0.5-2.1-1.3c-0.4-0.8-0.3-1.7,0.2-2.4
				l13.7-18.8c0.4-0.7,1.1-1,1.9-1l26.5-0.7c1.3,0,2.3,1,2.3,2.3V62c0,1.3-1,2.3-2.3,2.3h-7c-0.4,0-0.8,0.2-1,0.5
				c-0.3,0.3-0.4,0.7-0.3,1.1L128.5,89z M132.2,54.2l-26.5,0.7c-0.5,0-0.9,0.2-1.1,0.6l0,0L90.9,74.3c-0.3,0.4-0.3,0.9-0.1,1.4
				c0.2,0.5,0.7,0.8,1.2,0.8h11.3c1,0,2,0.8,2.3,1.8l2,8.8c0.1,0.6,0.7,1,1.3,1h18.4l-4.4-21.9c-0.1-0.7,0.1-1.4,0.5-2
				c0.4-0.5,1.1-0.8,1.8-0.8h7c0.7,0,1.3-0.6,1.3-1.3v-6.5C133.5,54.8,132.9,54.2,132.2,54.2z"/>
		</g>
		<g>
			<path d="M133.2,44.2l-2.7,7.7c0,0.1-0.1,0.2-0.2,0.2l-23.5,0.6c-0.1,0-0.2-0.1-0.2-0.1l-3.1-7.5c-0.1-0.2,0.2-0.4,0.4-0.3
				l5.3,3.6c0.1,0.1,0.2,0.1,0.3,0l7.6-5.4c0.8-0.5,1.8-0.6,2.6-0.1l7.9,5c0.1,0.1,0.2,0,0.3,0l5.1-3.8
				C133,43.8,133.3,43.9,133.2,44.2z"/>
		</g>
		<g>
			<circle cx="118.3" cy="39.8" r="1.1"/>
		</g>
		<g>
			<path d="M107.9,88.8H94.7c-0.9,0-1.8-0.4-2.4-1.2c-0.6-0.8-0.8-1.7-0.6-2.6l2.1-8.7H105L107.9,88.8z M94.6,77.3l-1.9,7.9
				c-0.2,0.6,0,1.2,0.4,1.8c0.4,0.5,1,0.8,1.6,0.8h12l-2.5-10.5H94.6z"/>
		</g>
		<g>
			<polygon points="105.5,137 82.5,137 82.5,136 105.1,136 141.2,98.7 154.7,108 154.1,108.8 141.4,100.1 			"/>
		</g>
		<g>
			<polygon points="141.1,88.4 127.8,88.4 123,63.8 126.6,63.8 125.9,64 131.9,88.1 133.5,88.1 127.4,63.8 130.4,63.8 129.7,64.1 
				136.7,88.1 138.3,88.1 131.2,63.8 133.9,63.8 			"/>
		</g>
		<g>
			<path class="st4" d="M141.1,88.4h7.2c1,0,1.6,1.3,0.8,2l-44.5,45.5H82.5L132,88.4H141.1z"/>
		</g>
		<g>
			<g>
				<path d="M129.5,89.4l-37.2,35.7c-0.1-1.5-0.3-3.6-0.4-5.5c-0.4-5.4-0.6-7.6-0.7-8.4c0.4-1.7,5.5-13.9,8.9-21.8L129.5,89.4
					 M132,88.4H99.5c0,0-9.6,22.1-9.3,22.9c0.3,0.8,1.1,15.9,1.3,15.9l0,0C91.7,127,132,88.4,132,88.4L132,88.4z"/>
			</g>
		</g>
		<g>
			<g>
				<path class="st4" d="M89.3,113l1,12.2l-6.1,6.5l-0.1-15.5L89.3,113 M90.2,111.3l-7,4.3l0.1,18.6l8.2-8.7L90.2,111.3L90.2,111.3z
					"/>
			</g>
		</g>
		<g>
			<path d="M83,144.5H71.7V90.3c0-6.8,2.7-13.6,7.5-18.4L83,68V144.5z M72.7,143.5H82V70.4l-2,2.1c-4.6,4.7-7.3,11.2-7.3,17.8V143.5
				z"/>
		</g>
		<g>
			<rect x="69.7" y="144.1" width="15.3" height="1.6"/>
		</g>
		<g>
			<rect x="76.8" y="89.8" width="1" height="52.3"/>
		</g>
		<g>
			<path d="M93.2,84.3c-0.2,0-0.5-0.2-0.5-0.4c0-0.3,0.1-0.5,0.4-0.6l5.5-0.8c0.3,0,0.5,0.1,0.6,0.4c0,0.3-0.1,0.5-0.4,0.6
				L93.2,84.3C93.2,84.3,93.2,84.3,93.2,84.3z"/>
		</g>
		<g>
			<g>
				<polygon points="131.2,63.8 130.4,63.8 131.1,63.6 				"/>
			</g>
		</g>
		<g>
			<g>
				<polygon points="127.4,63.8 126.6,63.8 127.3,63.7 				"/>
			</g>
		</g>
		<g>
			<path d="M91.9,117.6l-0.9-0.5C108,87.9,108.6,87.9,109,87.9v0.5l0.3,0.4C108.3,89.7,98.4,106.5,91.9,117.6z"/>
		</g>
		<g>
			<rect x="84.3" y="105.2" transform="matrix(0.6434 -0.7655 0.7655 0.6434 -43.2246 118.6005)" width="42.9" height="1"/>
		</g>
		<g>
			<g>
				<path class="st4" d="M150.1,89.9v1v12.5l-7.3-5l7.3-7.4l0,0V89.9 M150.1,89.9c-0.3,0-0.5,0.1-0.7,0.3l-8.1,8.3l9.8,6.8V90.9
					C151.1,90.3,150.6,89.9,150.1,89.9L150.1,89.9z"/>
			</g>
		</g>
		<g>
			<rect x="80.2" y="130.1" transform="matrix(0.6823 -0.7311 0.7311 0.6823 -67.7483 105.4067)" width="14.4" height="1"/>
		</g>
		<g>
			<rect x="83.2" y="138.8" width="19" height="1"/>
		</g>
		<g>
			<rect x="83.2" y="141.8" width="11.7" height="1"/>
		</g>
		<g>
			<polygon points="154.4,162.8 130.9,162.8 104.9,136.9 105.7,136.1 131.3,161.8 154.4,161.8 			"/>
		</g>
		<g>
			<path d="M91.8,260.3c-1.3,0-2.3-1-2.3-2.3v-6.5c0-1.3,1-2.3,2.3-2.3h7c0.4,0,0.8-0.2,1-0.5c0.3-0.3,0.4-0.7,0.3-1.1l-4.5-23h19.6
				c1.1,0,2,0.7,2.3,1.8l2,8.8c0.1,0.6,0.7,1,1.3,1h11.3c0.9,0,1.7,0.5,2.1,1.3c0.4,0.8,0.3,1.7-0.2,2.4l-13.6,18.9
				c-0.6,0.6-1.2,0.8-2.1,0.8L91.8,260.3z M91.8,250.2c-0.7,0-1.3,0.6-1.3,1.3v6.5c0,0.7,0.6,1.3,1.3,1.3l26.5-0.7
				c0.7,0,1.1-0.3,1.3-0.5l13.6-18.8c0.3-0.4,0.3-0.9,0.1-1.4c-0.2-0.5-0.7-0.8-1.2-0.8h-11.3c-1,0-2-0.8-2.3-1.8l-2-8.8
				c-0.2-0.6-0.7-1-1.3-1H96.8l4.3,21.8c0.1,0.7-0.1,1.4-0.5,2c-0.4,0.5-1.1,0.8-1.8,0.8H91.8z"/>
		</g>
		<g>
			<path d="M90.9,269.4l2.7-7.7c0-0.1,0.1-0.2,0.2-0.2l23.5-0.6c0.1,0,0.2,0.1,0.2,0.1l3.1,7.5c0.1,0.2-0.2,0.4-0.4,0.3l-5.3-3.6
				c-0.1-0.1-0.2-0.1-0.3,0l-7.6,5.4c-0.8,0.5-1.8,0.6-2.6,0.1l-7.9-5c-0.1-0.1-0.2,0-0.3,0l-5.1,3.8
				C91.1,269.8,90.9,269.6,90.9,269.4z"/>
		</g>
		<g>
			<circle cx="105.8" cy="273.7" r="1.1"/>
		</g>
		<g>
			<path d="M130.3,237.2h-11.2l-2.9-12.5h13.2c0.9,0,1.8,0.4,2.4,1.2c0.6,0.8,0.8,1.7,0.6,2.6L130.3,237.2z M119.9,236.2h9.6
				l1.9-7.9c0.2-0.6,0-1.2-0.4-1.8c-0.4-0.5-1-0.8-1.6-0.8h-12L119.9,236.2z"/>
		</g>
		<g>
			<polygon points="83,214.9 69.4,205.5 70,204.7 82.8,213.5 118.7,176.6 141.7,176.6 141.7,177.6 119.1,177.6 			"/>
		</g>
		<g>
			<polygon points="83.1,225.2 96.3,225.2 101.2,249.7 97.6,249.7 98.3,249.5 92.2,225.4 90.6,225.4 96.8,249.7 93.8,249.7 
				94.5,249.5 87.5,225.4 85.9,225.4 93,249.7 90.2,249.7 			"/>
		</g>
		<g>
			<path class="st4" d="M83.1,225.2h-7.2c-1,0-1.6-1.3-0.8-2l44.5-45.5h22.2l-49.5,47.5H83.1z"/>
		</g>
		<g>
			<g>
				<path d="M131.9,188.4c0.1,1.5,0.3,3.6,0.4,5.5c0.4,5.4,0.6,7.6,0.7,8.4c-0.4,1.7-5.5,13.9-8.9,21.8H94.6L131.9,188.4
					 M132.6,186.3L132.6,186.3c-0.2,0.2-40.5,38.8-40.5,38.8h32.6c0,0,9.6-22.1,9.3-22.9C133.7,201.5,132.8,186.3,132.6,186.3
					L132.6,186.3z"/>
			</g>
		</g>
		<g>
			<g>
				<path class="st4" d="M139.9,181.9l0.1,15.5l-5.2,3.2l-1-12.2L139.9,181.9 M140.9,179.3l-8.2,8.7l1.2,14.2l7-4.3V179.3
					L140.9,179.3z"/>
			</g>
		</g>
		<g>
			<path d="M141.2,245.5V169h11.3v54.2c0,6.8-2.7,13.6-7.5,18.4L141.2,245.5z M142.2,170v73.1l2-2.1c4.6-4.7,7.3-11.2,7.3-17.8V170
				H142.2z"/>
		</g>
		<g>
			<rect x="139.2" y="167.9" width="15.3" height="1.6"/>
		</g>
		<g>
			<rect x="146.3" y="171.4" width="1" height="52.4"/>
		</g>
		<g>
			<path d="M125.4,231.1c-0.2,0-0.5-0.2-0.5-0.4c0-0.3,0.1-0.5,0.4-0.6l5.6-0.9c0.3,0,0.5,0.1,0.6,0.4c0,0.3-0.1,0.5-0.4,0.6
				L125.4,231.1C125.5,231.1,125.4,231.1,125.4,231.1z"/>
		</g>
		<g>
			<g>
				<polygon points="93,249.7 93.8,249.7 93.1,249.9 				"/>
			</g>
		</g>
		<g>
			<g>
				<polygon points="96.8,249.7 97.6,249.7 96.8,249.9 				"/>
			</g>
		</g>
		<g>
			<path d="M115.2,225.7v-0.5l-0.3-0.4c1-0.9,10.9-17.7,17.3-28.7l0.9,0.5C116.2,225.7,115.6,225.7,115.2,225.7z"/>
		</g>
		<g>
			<rect x="97" y="207.4" transform="matrix(0.6424 -0.7664 0.7664 0.6424 -116.971 165.1246)" width="42.8" height="1"/>
		</g>
		<g>
			<g>
				<path class="st4" d="M74.1,210.2l7.3,5l-7.3,7.4V210.2 M73.1,208.3v14.4c0,0.6,0.5,1,1,1c0.3,0,0.5-0.1,0.7-0.3l8.1-8.3
					L73.1,208.3L73.1,208.3z"/>
			</g>
		</g>
		<g>
			<rect x="129.6" y="182.4" transform="matrix(0.6793 -0.7339 0.7339 0.6793 -90.3529 159.0632)" width="14.4" height="1"/>
		</g>
		<g>
			<rect x="121.9" y="173.7" width="19.1" height="1"/>
		</g>
		<g>
			<rect x="129.3" y="170.8" width="11.7" height="1"/>
		</g>
		<g>
			<polygon points="118.5,177.5 92.9,151.8 69.7,151.8 69.7,150.8 93.3,150.8 119.3,176.7 			"/>
		</g>
		<g>
			<g>
				<path class="st4" d="M142.6,144.8c0,0.3,0,0.6,0,0.9c0.3,3,1.8,5.6,4.1,7.3c0.7,0.5,1.2,1.3,1.2,2.2l0,0h-17l0,0
					c0-0.9,0.5-1.7,1.2-2.2c2.3-1.6,3.8-4.2,4.1-7.1c0-0.3,0.1-0.7,0.1-1c0-3.8-2.2-7.2-5.3-8.8v-3.5h10.7c-0.2,0.6-0.4,1.2-0.6,1.9
					c-0.1,0.3-0.1,0.7-0.1,1c0.3-1.1,0.8-2.1,1.5-2.9h5.5v3.5C144.7,137.6,142.6,141,142.6,144.8z"/>
			</g>
			<g>
				<path class="st5" d="M147.9,155.5h-17.3v-0.4c0-1,0.5-1.9,1.3-2.5c2.2-1.6,3.7-4.1,4-6.9c0-0.3,0.1-0.7,0.1-1
					c0-3.6-2-6.9-5.1-8.5l-0.2-0.1V132h11.6v0.1l0.1-0.1h6v4.1l-0.2,0.1c-3.2,1.7-5.1,4.9-5.1,8.5c0,0.3,0,0.6,0,0.8
					c0.2,2.8,1.7,5.3,4,7c0.8,0.6,1.3,1.5,1.3,2.5v0.4L147.9,155.5z M131.3,154.8h16.2c-0.1-0.6-0.5-1.2-1-1.6
					c-2.5-1.8-4-4.5-4.3-7.5c0-0.3,0-0.6,0-0.9c0-3.8,2-7.2,5.3-9.1v-2.9h-4.9c-0.6,0.8-1,1.7-1.3,2.7l-0.9,3l0.2-3.1
					c0-0.3,0.1-0.6,0.1-1.1c0.1-0.5,0.2-1,0.4-1.5h-9.9v2.9c3.3,1.8,5.3,5.3,5.3,9.1c0,0.4,0,0.7-0.1,1.1c-0.3,2.9-1.8,5.6-4.2,7.3
					C131.8,153.6,131.4,154.2,131.3,154.8z"/>
			</g>
			<g>
				<path class="st4" d="M159.5,138.4c0,5.5-4.5,10-10,10c-2.7,0-5.1-1-6.9-2.8c-1.4-1.3-2.4-3.1-2.9-5c-0.2-0.7-0.3-1.5-0.3-2.2
					c0,0.8-0.1,1.5-0.2,2.2c-0.5,2-1.5,3.8-3,5.2c-1.8,1.6-4.1,2.6-6.7,2.6c-5.5,0-10-4.5-10-10s4.5-10,10-10c0.2,0,0.4,0,0.5,0
					c-0.4-1.3-0.6-2.7-0.5-4.2c0.4-4.6,4-8.3,8.5-9c6.2-0.8,11.4,3.9,11.4,9.9l0,0c0,0.7-0.5,1.2-1.1,1.4c-3,0.8-5.5,2.9-6.7,5.9
					c-0.2,0.6-0.4,1.2-0.6,1.9c-0.1,0.3-0.1,0.7-0.1,1c0.3-1.1,0.8-2.1,1.5-2.9c1.7-2.3,4.4-4,7.2-4c2.6-0.1,5.2,1.2,7,3
					C158.5,133.3,159.5,135.8,159.5,138.4z"/>
			</g>
			<g>
				<path class="st5" d="M149.5,148.8c-2.7,0-5.2-1-7.1-2.9c-1.4-1.3-2.4-3-2.9-4.8c-0.5,1.9-1.5,3.6-3,5c-1.9,1.7-4.4,2.7-7,2.7
					c-5.7,0-10.4-4.6-10.4-10.4c0-5.7,4.6-10.4,10.4-10.4l0,0c-0.4-1.2-0.5-2.5-0.4-3.8c0.4-4.7,4.2-8.6,8.9-9.3
					c3-0.4,6,0.5,8.3,2.5s3.5,4.8,3.5,7.8c0,0.8-0.6,1.5-1.4,1.7c-2.8,0.7-5.1,2.7-6.3,5.3c1.8-2.5,4.7-4,7.5-4.1
					c2.6-0.1,5.3,1.1,7.3,3.1c1.8,1.9,2.9,4.5,2.9,7.2C159.9,144.1,155.2,148.8,149.5,148.8z M139.8,138.4c0,0.7,0.1,1.5,0.2,2.2
					c0.4,1.9,1.4,3.5,2.8,4.8c1.8,1.7,4.2,2.7,6.7,2.7c5.3,0,9.7-4.3,9.7-9.7c0-2.5-1-4.9-2.7-6.7c-1.8-1.9-4.4-3-6.8-2.9
					c-2.6,0.1-5.3,1.6-7,3.9c-0.6,0.9-1.1,1.8-1.4,2.8l-0.9,3l0.2-3.1c0-0.3,0.1-0.6,0.1-1.1c0.1-0.7,0.3-1.4,0.6-2
					c1.2-3,3.8-5.3,6.9-6.1c0.5-0.1,0.9-0.6,0.9-1c0-2.8-1.2-5.4-3.3-7.3c-2.1-1.8-4.9-2.7-7.7-2.3c-4.4,0.6-7.8,4.2-8.2,8.6
					c-0.1,1.4,0,2.7,0.5,4l0.2,0.5h-0.5c-0.2,0-0.4,0-0.5,0c-5.3,0-9.7,4.3-9.7,9.7c0,5.3,4.3,9.7,9.7,9.7c2.4,0,4.7-0.9,6.5-2.5
					c1.5-1.4,2.5-3.1,2.9-5c0.2-0.7,0.2-1.4,0.2-2.1L139.8,138.4L139.8,138.4z"/>
			</g>
		</g>
		<g>
			<g>
				<path class="st4" d="M81.2,169.1c0-0.3,0-0.6,0-0.9c-0.3-3-1.8-5.6-4.1-7.3c-0.7-0.5-1.2-1.3-1.2-2.2l0,0h17l0,0
					c0,0.9-0.5,1.7-1.2,2.2c-2.3,1.6-3.8,4.2-4.1,7.1c0,0.3-0.1,0.7-0.1,1c0,3.8,2.2,7.2,5.3,8.8v3.5H82.1c0.2-0.6,0.4-1.2,0.6-1.9
					c0.1-0.3,0.1-0.7,0.1-1c-0.3,1.1-0.8,2.1-1.5,2.9h-5.5V178C79.1,176.3,81.2,172.9,81.2,169.1z"/>
			</g>
			<g>
				<path class="st5" d="M75.9,158.4h17.3v0.4c0,1-0.5,1.9-1.3,2.5c-2.2,1.6-3.7,4.1-4,6.9c0,0.3-0.1,0.7-0.1,1c0,3.6,2,6.9,5.1,8.5
					l0.2,0.1v4.1H81.6v-0.1l-0.1,0.1h-6v-4.1l0.2-0.1c3.2-1.7,5.1-4.9,5.1-8.5c0-0.3,0-0.6,0-0.8c-0.2-2.8-1.7-5.3-4-7
					c-0.8-0.6-1.3-1.5-1.3-2.5v-0.4L75.9,158.4z M92.5,159.1H76.3c0.1,0.6,0.5,1.2,1,1.6c2.5,1.8,4,4.5,4.3,7.5c0,0.3,0,0.6,0,0.9
					c0,3.8-2,7.2-5.3,9.1v2.9h4.9c0.6-0.8,1-1.7,1.3-2.7l0.9-3l-0.2,3.1c0,0.3-0.1,0.6-0.1,1.1c-0.1,0.5-0.2,1-0.4,1.5h9.9v-2.9
					c-3.3-1.8-5.3-5.3-5.3-9.1c0-0.4,0-0.7,0.1-1.1c0.3-2.9,1.8-5.6,4.2-7.3C92,160.3,92.4,159.7,92.5,159.1z"/>
			</g>
			<g>
				<path class="st4" d="M64.3,175.5c0-5.5,4.5-10,10-10c2.7,0,5.1,1,6.9,2.8c1.4,1.3,2.4,3.1,2.9,5c0.2,0.7,0.3,1.5,0.3,2.2
					c0-0.8,0.1-1.5,0.2-2.2c0.5-2,1.5-3.8,3-5.2c1.8-1.6,4.1-2.6,6.7-2.6c5.5,0,10,4.5,10,10s-4.5,10-10,10c-0.2,0-0.4,0-0.5,0
					c0.4,1.3,0.6,2.7,0.5,4.2c-0.4,4.6-4,8.3-8.5,9c-6.2,0.8-11.4-3.9-11.4-9.9l0,0c0-0.7,0.5-1.2,1.1-1.4c3-0.8,5.5-2.9,6.7-5.9
					c0.2-0.6,0.4-1.2,0.6-1.9c0.1-0.3,0.1-0.7,0.1-1c-0.3,1.1-0.8,2.1-1.5,2.9c-1.7,2.3-4.4,4-7.2,4c-2.6,0.1-5.2-1.2-7-3
					C65.3,180.6,64.3,178.1,64.3,175.5z"/>
			</g>
			<g>
				<path class="st5" d="M74.3,165.1c2.7,0,5.2,1,7.1,2.9c1.4,1.3,2.4,3,2.9,4.8c0.5-1.9,1.5-3.6,3-5c1.9-1.7,4.4-2.7,7-2.7
					c5.7,0,10.4,4.6,10.4,10.4c0,5.7-4.6,10.4-10.4,10.4l0,0c0.4,1.2,0.5,2.5,0.4,3.8c-0.4,4.7-4.2,8.6-8.9,9.3
					c-3,0.4-6-0.5-8.3-2.5s-3.5-4.8-3.5-7.8c0-0.8,0.6-1.5,1.4-1.7c2.8-0.7,5.1-2.7,6.3-5.3c-1.8,2.5-4.7,4-7.5,4.1
					c-2.6,0.1-5.3-1.1-7.3-3.1c-1.8-1.9-2.9-4.5-2.9-7.2C63.9,169.8,68.6,165.1,74.3,165.1z M84,175.5c0-0.7-0.1-1.5-0.2-2.2
					c-0.4-1.9-1.4-3.5-2.8-4.8c-1.8-1.7-4.2-2.7-6.7-2.7c-5.3,0-9.7,4.3-9.7,9.7c0,2.5,1,4.9,2.7,6.7c1.8,1.9,4.4,3,6.8,2.9
					c2.6-0.1,5.3-1.6,7-3.9c0.6-0.9,1.1-1.8,1.4-2.8l0.9-3l-0.2,3.1c0,0.3-0.1,0.6-0.1,1.1c-0.1,0.7-0.3,1.4-0.6,2
					c-1.2,3-3.8,5.3-6.9,6.1c-0.5,0.1-0.9,0.6-0.9,1c0,2.8,1.2,5.4,3.3,7.3c2.1,1.8,4.9,2.7,7.7,2.3c4.4-0.6,7.8-4.2,8.2-8.6
					c0.1-1.4,0-2.7-0.5-4l-0.2-0.5h0.5c0.2,0,0.4,0,0.5,0c5.3,0,9.7-4.3,9.7-9.7c0-5.3-4.3-9.7-9.7-9.7c-2.4,0-4.7,0.9-6.5,2.5
					c-1.5,1.4-2.5,3.1-2.9,5c-0.2,0.7-0.2,1.4-0.2,2.1L84,175.5L84,175.5z"/>
			</g>
		</g>
	</g>
</g>
</svg>
