<?xml version="1.0" encoding="utf-8"?>
<!-- Generator: Adobe Illustrator 25.2.0, SVG Export Plug-In . SVG Version: 6.00 Build 0)  -->
<svg version="1.1" id="Layer_1" xmlns="http://www.w3.org/2000/svg" xmlns:xlink="http://www.w3.org/1999/xlink" x="0px" y="0px"
	 viewBox="0 0 224.2 312.8" style="enable-background:new 0 0 224.2 312.8;" xml:space="preserve">
<style type="text/css">
	.st0{opacity:2.000000e-02;enable-background:new    ;}
	.st1{enable-background:new    ;}
	.st2{fill:none;stroke:#000000;stroke-miterlimit:10;}
	.st3{opacity:5.000000e-02;enable-background:new    ;}
	.st4{fill:#190B38;}
	.st5{fill:#050307;}
</style>
<g>
	<g class="st0">
		<rect x="-0.2" y="0.7" width="224.4" height="312.1"/>
	</g>
	<g class="st1">
		<path d="M193.3,225.8v-2h3.8v-4.7h2.1v4.7h10.3v1.6l-8.1,15.5h-2.5l7.9-15.1h-7.7v6.2h-2.1v-6.2H193.3z"/>
	</g>
	<g class="st1">
		<path class="st2" d="M193.3,225.8v-2h3.8v-4.7h2.1v4.7h10.3v1.6l-8.1,15.5h-2.5l7.9-15.1h-7.7v6.2h-2.1v-6.2H193.3z"/>
	</g>
	<g class="st1">
		<path d="M29.7,89.4v2h-3.8v4.7h-2.1v-4.7H13.4v-1.6l8.1-15.5h2.5l-7.9,15.1h7.7v-6.2h2.1v6.2H29.7z"/>
	</g>
	<g class="st1">
		<path class="st2" d="M29.7,89.4v2h-3.8v4.7h-2.1v-4.7H13.4v-1.6l8.1-15.5h2.5l-7.9,15.1h7.7v-6.2h2.1v6.2H29.7z"/>
	</g>
	<g class="st3">
		<path d="M173.4,283.5H50.6c-4.2,0-7.5-3.4-7.5-7.5V37.6c0-4.2,3.4-7.5,7.5-7.5h122.9c4.2,0,7.5,3.4,7.5,7.5V276
			C181,280.1,177.6,283.5,173.4,283.5z"/>
	</g>
	<g>
		<g>
			<path class="st4" d="M24.6,54.7c0,0.2,0,0.4,0,0.7c0.2,2.3,1.4,4.3,3.1,5.5c0.6,0.4,0.9,1,0.9,1.7l0,0h-13l0,0
				c0-0.7,0.4-1.3,0.9-1.7c1.7-1.2,2.9-3.2,3.1-5.4c0-0.3,0-0.5,0-0.8c0-2.9-1.7-5.5-4.1-6.8v-2.7H24c-0.2,0.5-0.3,0.9-0.4,1.5
				c0,0.3-0.1,0.5-0.1,0.8c0.2-0.8,0.6-1.6,1.1-2.2h4.2V48C26.3,49.2,24.6,51.7,24.6,54.7z"/>
		</g>
		<g>
			<path class="st5" d="M28.7,62.8H15.5v-0.3c0-0.8,0.4-1.5,1-1.9c1.7-1.2,2.8-3.1,3-5.2c0-0.2,0-0.5,0-0.7c0-2.7-1.5-5.2-3.9-6.5
				l-0.1-0.1V45h8.9v0.1l0.1-0.1H29v3.1l-0.1,0.1C26.5,49.5,25,52,25,54.7c0,0.2,0,0.4,0,0.6c0.2,2.1,1.3,4.1,3,5.3
				c0.6,0.5,1,1.2,1,1.9v0.3L28.7,62.8z M16,62.3h12.4c-0.1-0.5-0.3-0.9-0.8-1.2c-1.9-1.4-3.1-3.4-3.3-5.7c0-0.2,0-0.5,0-0.7
				c0-2.9,1.6-5.5,4.1-6.9v-2.2h-3.8c-0.4,0.6-0.8,1.3-1,2.1L23,49.9l0.2-2.4c0-0.2,0.1-0.5,0.1-0.8c0.1-0.4,0.2-0.8,0.3-1.1H16v2.2
				c2.5,1.4,4.1,4,4.1,6.9c0,0.3,0,0.6,0,0.8c-0.2,2.2-1.4,4.3-3.2,5.6C16.4,61.4,16.1,61.8,16,62.3z"/>
		</g>
		<g>
			<path class="st4" d="M37.6,49.8c0,4.2-3.4,7.6-7.6,7.6c-2,0-3.9-0.8-5.3-2.1c-1.1-1-1.8-2.3-2.2-3.8c-0.1-0.5-0.2-1.1-0.2-1.7
				c0,0.6-0.1,1.1-0.2,1.7c-0.3,1.6-1.2,2.9-2.3,4c-1.4,1.2-3.2,2-5.1,2C10.4,57.4,7,54,7,49.8s3.4-7.6,7.6-7.6c0.1,0,0.3,0,0.4,0
				c-0.3-1-0.5-2.1-0.4-3.2c0.3-3.5,3.1-6.4,6.5-6.8c4.7-0.6,8.7,3,8.7,7.6l0,0c0,0.5-0.4,0.9-0.9,1.1c-2.3,0.6-4.2,2.2-5.1,4.5
				c-0.2,0.5-0.3,0.9-0.4,1.5c0,0.3-0.1,0.5-0.1,0.8c0.2-0.8,0.6-1.6,1.1-2.2c1.3-1.8,3.3-3,5.5-3.1c2-0.1,4,0.9,5.4,2.3
				C36.8,45.9,37.6,47.8,37.6,49.8z"/>
		</g>
		<g>
			<path class="st5" d="M29.9,57.7c-2,0-4-0.8-5.5-2.2c-1.1-1-1.8-2.3-2.2-3.7c-0.4,1.5-1.2,2.8-2.3,3.8c-1.5,1.3-3.4,2.1-5.3,2.1
				c-4.4,0-7.9-3.5-7.9-7.9s3.6-7.9,7.9-7.9l0,0C14.3,41,14.2,40,14.3,39c0.3-3.6,3.2-6.6,6.8-7.1c2.3-0.3,4.6,0.4,6.3,1.9
				c1.7,1.5,2.7,3.7,2.7,6c0,0.6-0.4,1.2-1.1,1.3c-2.1,0.6-3.9,2-4.8,4c1.4-1.9,3.6-3.1,5.7-3.1c2-0.1,4.1,0.8,5.6,2.4
				c1.4,1.5,2.2,3.5,2.2,5.5C37.8,54.1,34.3,57.7,29.9,57.7z M22.5,49.8c0,0.6,0.1,1.1,0.2,1.7c0.3,1.4,1.1,2.7,2.1,3.7
				c1.4,1.3,3.2,2,5.1,2c4.1,0,7.4-3.3,7.4-7.4c0-1.9-0.8-3.8-2.1-5.1c-1.4-1.4-3.3-2.3-5.2-2.2c-2,0-4,1.2-5.3,3
				c-0.5,0.7-0.8,1.4-1.1,2.2L23,49.9l0.2-2.4c0-0.2,0.1-0.5,0.1-0.8c0.1-0.5,0.3-1,0.5-1.5c0.9-2.3,2.9-4,5.3-4.6
				c0.4-0.1,0.7-0.4,0.7-0.8c0-2.1-0.9-4.2-2.5-5.6c-1.6-1.4-3.8-2-5.9-1.7c-3.3,0.5-6,3.2-6.3,6.6c-0.1,1.1,0,2.1,0.4,3.1l0.1,0.4
				h-0.4c-0.2,0-0.3,0-0.4,0c-4.1,0-7.4,3.3-7.4,7.4s3.3,7.4,7.4,7.4c1.8,0,3.6-0.7,5-1.9c1.1-1,1.9-2.4,2.2-3.8
				c0.1-0.5,0.2-1.1,0.2-1.6h0.3V49.8z"/>
		</g>
	</g>
	<g>
		<g>
			<path class="st4" d="M198.3,260.6c0-0.2,0-0.5,0-0.7c-0.2-2.4-1.4-4.4-3.3-5.8c-0.6-0.4-0.9-1.1-0.9-1.8l0,0h13.4l0,0
				c0,0.7-0.4,1.3-0.9,1.8c-1.8,1.3-3,3.3-3.2,5.6c0,0.3,0,0.5,0,0.8c0,3,1.7,5.7,4.2,7v2.8H199c0.2-0.5,0.3-1,0.5-1.5
				c0-0.3,0.1-0.5,0.1-0.8c-0.3,0.9-0.6,1.6-1.1,2.3h-4.3v-2.8C196.6,266.3,198.3,263.7,198.3,260.6z"/>
		</g>
		<g>
			<path class="st5" d="M194.1,252.2h13.7v0.3c0,0.8-0.4,1.5-1.1,2c-1.8,1.3-2.9,3.3-3.1,5.4c0,0.3,0,0.5,0,0.8
				c0,2.8,1.6,5.4,4.1,6.8l0.1,0.1v3.2h-9.2v-0.1l-0.1,0.1h-4.8v-3.2l0.1-0.1c2.5-1.3,4.1-3.9,4.1-6.8c0-0.2,0-0.4,0-0.7
				c-0.2-2.2-1.3-4.2-3.1-5.5c-0.7-0.5-1.1-1.2-1.1-2v-0.3L194.1,252.2z M207.2,252.7h-12.8c0.1,0.5,0.4,0.9,0.8,1.3
				c1.9,1.4,3.2,3.6,3.4,6c0,0.2,0,0.5,0,0.7c0,3-1.6,5.7-4.2,7.2v2.3h3.9c0.5-0.6,0.8-1.4,1-2.1l0.7-2.4l-0.2,2.5
				c0,0.2-0.1,0.5-0.1,0.8c-0.1,0.4-0.2,0.8-0.3,1.2h7.8v-2.3c-2.6-1.4-4.2-4.2-4.2-7.2c0-0.3,0-0.6,0-0.8c0.2-2.3,1.5-4.4,3.4-5.8
				C206.8,253.7,207.1,253.2,207.2,252.7z"/>
		</g>
		<g>
			<path class="st4" d="M184.9,265.7c0-4.4,3.6-7.9,7.9-7.9c2.1,0,4,0.8,5.5,2.2c1.1,1.1,1.9,2.4,2.3,4c0.1,0.6,0.2,1.2,0.2,1.8
				c0-0.6,0.1-1.2,0.2-1.7c0.4-1.6,1.2-3,2.4-4.1c1.4-1.3,3.3-2.1,5.3-2.1c4.4,0,7.9,3.5,7.9,7.9s-3.5,7.9-7.9,7.9
				c-0.1,0-0.3,0-0.4,0c0.4,1,0.5,2.1,0.4,3.3c-0.3,3.6-3.2,6.6-6.8,7.1c-4.9,0.7-9-3.1-9-7.8l0,0c0-0.5,0.4-1,0.9-1.1
				c2.4-0.6,4.4-2.3,5.3-4.6c0.2-0.5,0.3-1,0.5-1.5c0-0.3,0.1-0.5,0.1-0.8c-0.3,0.9-0.6,1.6-1.1,2.3c-1.3,1.8-3.5,3.1-5.7,3.2
				c-2.1,0.1-4.2-0.9-5.6-2.4C185.7,269.7,184.9,267.7,184.9,265.7z"/>
		</g>
		<g>
			<path class="st5" d="M192.8,257.5c2.1,0,4.1,0.8,5.7,2.3c1.1,1,1.9,2.4,2.3,3.8c0.4-1.5,1.2-2.9,2.4-3.9c1.5-1.4,3.5-2.1,5.5-2.1
				c4.5,0,8.2,3.7,8.2,8.2s-3.7,8.2-8.2,8.2l0,0c0.3,1,0.4,2,0.3,3c-0.3,3.7-3.3,6.8-7,7.3c-2.4,0.3-4.8-0.4-6.6-1.9
				c-1.8-1.6-2.8-3.8-2.8-6.2c0-0.6,0.5-1.2,1.1-1.4c2.2-0.6,4-2.1,5-4.2c-1.4,2-3.7,3.2-5.9,3.3c-2.1,0.1-4.2-0.9-5.8-2.5
				c-1.5-1.5-2.3-3.6-2.3-5.7C184.6,261.2,188.3,257.5,192.8,257.5z M200.4,265.7c0-0.6-0.1-1.2-0.2-1.7c-0.3-1.5-1.1-2.8-2.2-3.8
				c-1.4-1.4-3.3-2.1-5.3-2.1c-4.2,0-7.7,3.4-7.7,7.6c0,2,0.8,3.9,2.1,5.3c1.4,1.5,3.5,2.4,5.4,2.3c2.1-0.1,4.2-1.2,5.5-3.1
				c0.5-0.7,0.9-1.4,1.1-2.2l0.7-2.4l-0.2,2.5c0,0.2-0.1,0.5-0.1,0.8c-0.1,0.5-0.3,1.1-0.5,1.6c-1,2.4-3,4.2-5.5,4.8
				c-0.4,0.1-0.7,0.4-0.7,0.8c0,2.2,1,4.3,2.6,5.8c1.7,1.5,3.9,2.1,6.1,1.8c3.5-0.5,6.2-3.4,6.5-6.8c0.1-1.1,0-2.2-0.4-3.2l-0.1-0.4
				h0.4c0.2,0,0.3,0,0.4,0c4.2,0,7.7-3.4,7.7-7.7c0-4.2-3.4-7.6-7.7-7.6c-1.9,0-3.7,0.7-5.1,2c-1.2,1.1-2,2.4-2.3,4
				c-0.1,0.5-0.2,1.1-0.2,1.7L200.4,265.7L200.4,265.7z"/>
		</g>
	</g>
	<g>
		<g>
			<path class="st4" d="M77.8,70c0,0.3,0,0.6,0,0.9c0.3,3.2,2,6,4.4,7.8c0.8,0.6,1.3,1.4,1.3,2.4l0,0H65.3l0,0c0-1,0.5-1.8,1.3-2.4
				c2.4-1.8,4.1-4.5,4.4-7.7c0-0.4,0.1-0.7,0.1-1.1c0-4.1-2.3-7.7-5.7-9.5v-3.8H77c-0.3,0.6-0.5,1.3-0.6,2.1
				c-0.1,0.4-0.1,0.7-0.1,1.1c0.3-1.2,0.9-2.2,1.6-3.2h5.9v3.8C80.2,62.3,77.8,65.9,77.8,70z"/>
		</g>
		<g>
			<path class="st5" d="M83.6,81.5H64.9v-0.4c0-1.1,0.5-2.1,1.4-2.7c2.4-1.7,4-4.4,4.3-7.4c0-0.3,0.1-0.7,0.1-1.1
				c0-3.9-2.1-7.4-5.5-9.2L65,60.6v-4.4h12.5l-0.1,0.1l0.1-0.1H84v4.4l-0.2,0.1c-3.4,1.8-5.5,5.3-5.5,9.2c0,0.3,0,0.6,0,0.9
				c0.3,3,1.8,5.8,4.3,7.5C83.5,79,84,79.9,84,81v0.4L83.6,81.5z M65.7,80.8h17.5c-0.1-0.7-0.5-1.3-1.1-1.7
				c-2.6-1.9-4.3-4.9-4.6-8.1c0-0.3,0-0.6,0-1c0-4.1,2.2-7.8,5.7-9.8V57h-5.3c-0.6,0.9-1.1,1.9-1.4,2.9l-1,3.3l0.2-3.4
				c0-0.3,0.1-0.7,0.2-1.1c0.1-0.6,0.3-1.1,0.4-1.6H65.7v3.2c3.6,2,5.7,5.7,5.7,9.8c0,0.4,0,0.8-0.1,1.1c-0.3,3.2-2,6-4.6,7.9
				C66.2,79.5,65.8,80.1,65.7,80.8z"/>
		</g>
		<g>
			<path class="st4" d="M96.1,63.1c0,6-4.8,10.8-10.8,10.8c-2.9,0-5.5-1.1-7.4-3c-1.5-1.4-2.6-3.3-3.1-5.4c-0.2-0.8-0.3-1.6-0.3-2.4
				c0,0.8-0.1,1.6-0.3,2.4c-0.5,2.2-1.7,4.1-3.3,5.6c-1.9,1.7-4.5,2.8-7.3,2.8c-6,0-10.8-4.8-10.8-10.8s4.8-10.8,10.8-10.8
				c0.2,0,0.4,0,0.6,0c-0.5-1.4-0.7-2.9-0.5-4.5c0.4-4.9,4.3-9,9.2-9.6c6.6-0.9,12.3,4.2,12.3,10.7l0,0c0,0.7-0.5,1.3-1.2,1.5
				c-3.2,0.8-5.9,3.2-7.2,6.3c-0.3,0.6-0.5,1.3-0.6,2.1c-0.1,0.4-0.1,0.7-0.1,1.1c0.3-1.2,0.9-2.2,1.6-3.2c1.8-2.5,4.7-4.3,7.8-4.3
				c2.8-0.1,5.7,1.3,7.6,3.3C95,57.6,96.1,60.3,96.1,63.1z"/>
		</g>
		<g>
			<path class="st5" d="M85.3,74.3c-2.9,0-5.6-1.1-7.7-3.1C76.1,69.8,75,68,74.5,66c-0.5,2.1-1.7,3.9-3.3,5.4
				c-2.1,1.9-4.7,2.9-7.5,2.9c-6.2,0-11.2-5-11.2-11.2s5-11.2,11.2-11.2c0,0,0,0,0.1,0c-0.4-1.3-0.5-2.7-0.4-4.1
				c0.5-5.1,4.5-9.3,9.5-10c3.2-0.4,6.5,0.5,8.9,2.6s3.8,5.2,3.8,8.4c0,0.9-0.6,1.6-1.5,1.9c-3,0.8-5.5,2.9-6.8,5.7
				c2-2.7,5-4.4,8-4.4c2.8-0.1,5.8,1.2,7.9,3.4c2,2.1,3.1,4.9,3.1,7.8C96.5,69.3,91.5,74.3,85.3,74.3z M74.9,63.1
				c0,0.8,0.1,1.6,0.3,2.3c0.5,2,1.5,3.8,3,5.2c1.9,1.8,4.5,2.9,7.2,2.9c5.7,0,10.4-4.7,10.4-10.4c0-2.7-1.1-5.3-2.9-7.2
				c-2-2-4.7-3.2-7.3-3.2c-2.8,0.1-5.7,1.7-7.5,4.2c-0.7,0.9-1.2,1.9-1.5,3.1l-1,3.3l0.2-3.4c0-0.3,0.1-0.7,0.2-1.1
				c0.1-0.7,0.4-1.5,0.6-2.1c1.3-3.2,4.1-5.7,7.5-6.5c0.5-0.1,0.9-0.6,0.9-1.1c0-3-1.3-5.9-3.6-7.8c-2.3-2-5.3-2.9-8.3-2.5
				c-4.7,0.6-8.5,4.6-8.9,9.3c-0.1,1.5,0,3,0.5,4.3l0.2,0.5h-0.6c-0.2,0-0.4,0-0.6,0c-5.7,0-10.4,4.7-10.4,10.4S58,73.7,63.7,73.7
				c2.6,0,5.1-1,7-2.7c1.6-1.5,2.7-3.3,3.1-5.4c0.2-0.7,0.3-1.5,0.3-2.3h0.8V63.1z"/>
		</g>
	</g>
	<g>
		<g>
			<path class="st4" d="M152.8,70c0,0.3,0,0.6,0,0.9c0.3,3.2,2,6,4.4,7.8c0.8,0.6,1.3,1.4,1.3,2.4l0,0h-18.3l0,0
				c0-1,0.5-1.8,1.3-2.4c2.4-1.8,4.1-4.5,4.4-7.7c0-0.4,0.1-0.7,0.1-1.1c0-4.1-2.3-7.7-5.7-9.5v-3.8h11.6c-0.3,0.6-0.5,1.3-0.6,2.1
				c-0.1,0.4-0.1,0.7-0.1,1.1c0.3-1.2,0.9-2.2,1.6-3.2h5.9v3.8C155.1,62.3,152.8,65.9,152.8,70z"/>
		</g>
		<g>
			<path class="st5" d="M158.5,81.5h-18.6v-0.4c0-1.1,0.5-2.1,1.4-2.7c2.4-1.7,4-4.4,4.3-7.4c0-0.3,0.1-0.7,0.1-1.1
				c0-3.9-2.1-7.4-5.5-9.2l-0.2-0.1v-4.4h12.5l-0.1,0.1l0.1-0.1h6.5v4.4l-0.2,0.1c-3.4,1.8-5.5,5.3-5.5,9.2c0,0.3,0,0.6,0,0.9
				c0.3,3,1.8,5.8,4.3,7.5c0.9,0.7,1.4,1.6,1.4,2.7v0.4L158.5,81.5z M140.7,80.8h17.5c-0.1-0.7-0.5-1.3-1.1-1.7
				c-2.6-1.9-4.3-4.9-4.6-8.1c0-0.3,0-0.6,0-1c0-4.1,2.2-7.8,5.7-9.8V57h-5.3c-0.6,0.9-1.1,1.9-1.4,2.9l-1,3.3l0.2-3.4
				c0-0.3,0.1-0.7,0.2-1.1c0.1-0.6,0.3-1.1,0.4-1.6h-10.6v3.2c3.6,2,5.7,5.7,5.7,9.8c0,0.4,0,0.8-0.1,1.1c-0.3,3.2-2,6-4.6,7.9
				C141.2,79.5,140.8,80.1,140.7,80.8z"/>
		</g>
		<g>
			<path class="st4" d="M171,63.1c0,6-4.8,10.8-10.8,10.8c-2.9,0-5.5-1.1-7.4-3c-1.5-1.4-2.6-3.3-3.1-5.4c-0.2-0.8-0.3-1.6-0.3-2.4
				c0,0.8-0.1,1.6-0.3,2.4c-0.5,2.2-1.7,4.1-3.3,5.6c-1.9,1.7-4.5,2.8-7.3,2.8c-6,0-10.8-4.8-10.8-10.8s4.8-10.8,10.8-10.8
				c0.2,0,0.4,0,0.6,0c-0.5-1.4-0.7-2.9-0.5-4.5c0.4-4.9,4.3-9,9.2-9.6c6.6-0.9,12.3,4.2,12.3,10.7l0,0c0,0.7-0.5,1.3-1.2,1.5
				c-3.2,0.8-5.9,3.2-7.2,6.3c-0.3,0.6-0.5,1.3-0.6,2.1c-0.1,0.4-0.1,0.7-0.1,1.1c0.3-1.2,0.9-2.2,1.6-3.2c1.8-2.5,4.7-4.3,7.8-4.3
				c2.8-0.1,5.7,1.3,7.6,3.3C169.9,57.6,171,60.3,171,63.1z"/>
		</g>
		<g>
			<path class="st5" d="M160.3,74.3c-2.9,0-5.6-1.1-7.7-3.1c-1.5-1.4-2.6-3.2-3.1-5.2c-0.5,2.1-1.7,3.9-3.3,5.4
				c-2.1,1.9-4.7,2.9-7.5,2.9c-6.2,0-11.2-5-11.2-11.2s5-11.2,11.2-11.2c0,0,0,0,0.1,0c-0.4-1.3-0.5-2.7-0.4-4.1
				c0.5-5.1,4.5-9.3,9.5-10c3.2-0.4,6.5,0.5,8.9,2.6s3.8,5.2,3.8,8.4c0,0.9-0.6,1.6-1.5,1.9c-3,0.8-5.5,2.9-6.8,5.7
				c2-2.7,5-4.4,8-4.4c2.8-0.1,5.8,1.2,7.9,3.4c2,2.1,3.1,4.9,3.1,7.8C171.4,69.3,166.4,74.3,160.3,74.3z M149.9,63.1
				c0,0.8,0.1,1.6,0.3,2.3c0.5,2,1.5,3.8,3,5.2c1.9,1.8,4.5,2.9,7.2,2.9c5.7,0,10.4-4.7,10.4-10.4c0-2.7-1.1-5.3-2.9-7.2
				c-2-2-4.7-3.2-7.3-3.2c-2.8,0.1-5.7,1.7-7.5,4.2c-0.7,0.9-1.2,1.9-1.5,3.1l-1,3.3l0.2-3.4c0-0.3,0.1-0.7,0.2-1.1
				c0.1-0.7,0.4-1.5,0.6-2.1c1.3-3.2,4.1-5.7,7.5-6.5c0.5-0.1,0.9-0.6,0.9-1.1c0-3-1.3-5.9-3.6-7.8c-2.3-2-5.3-2.9-8.3-2.5
				c-4.7,0.6-8.5,4.6-8.9,9.3c-0.1,1.5,0,3,0.5,4.3l0.2,0.5h-0.6c-0.2,0-0.4,0-0.6,0c-5.7,0-10.4,4.7-10.4,10.4s4.7,10.4,10.4,10.4
				c2.6,0,5.1-1,7-2.7c1.6-1.5,2.7-3.3,3.1-5.4c0.2-0.7,0.3-1.5,0.3-2.3h0.8V63.1z"/>
		</g>
	</g>
	<g>
		<g>
			<path class="st4" d="M146.2,243.5c0-0.3,0-0.6,0-0.9c-0.3-3.2-2-6-4.4-7.8c-0.8-0.6-1.3-1.4-1.3-2.4l0,0h18.3l0,0
				c0,1-0.5,1.8-1.3,2.4c-2.4,1.8-4.1,4.5-4.4,7.7c0,0.4-0.1,0.7-0.1,1.1c0,4.1,2.3,7.7,5.7,9.5v3.8h-11.6c0.3-0.6,0.5-1.3,0.6-2.1
				c0.1-0.4,0.1-0.7,0.1-1.1c-0.3,1.2-0.9,2.2-1.6,3.2h-5.9v-3.8C143.8,251.3,146.2,247.7,146.2,243.5z"/>
		</g>
		<g>
			<path class="st5" d="M140.4,232H159v0.4c0,1.1-0.5,2.1-1.4,2.7c-2.4,1.7-4,4.4-4.3,7.4c0,0.3-0.1,0.7-0.1,1.1
				c0,3.9,2.1,7.4,5.5,9.2l0.2,0.1v4.4h-12.5l0.1-0.1l-0.1,0.1H140v-4.4l0.2-0.1c3.4-1.8,5.5-5.3,5.5-9.2c0-0.3,0-0.6,0-0.9
				c-0.3-3-1.8-5.8-4.3-7.5c-0.9-0.7-1.4-1.6-1.4-2.7V232H140.4z M158.3,232.8h-17.5c0.1,0.7,0.5,1.3,1.1,1.7
				c2.6,1.9,4.3,4.9,4.6,8.1c0,0.3,0,0.6,0,1c0,4.1-2.2,7.8-5.7,9.8v3.2h5.3c0.6-0.9,1.1-1.9,1.4-2.9l1-3.3l-0.2,3.4
				c0,0.3-0.1,0.7-0.2,1.1c-0.1,0.6-0.3,1.1-0.4,1.6h10.6v-3.2c-3.6-2-5.7-5.7-5.7-9.8c0-0.4,0-0.8,0.1-1.1c0.3-3.2,2-6,4.6-7.9
				C157.8,234.1,158.2,233.4,158.3,232.8z"/>
		</g>
		<g>
			<path class="st4" d="M127.9,250.4c0-6,4.8-10.8,10.8-10.8c2.9,0,5.5,1.1,7.4,3c1.5,1.4,2.6,3.3,3.1,5.4c0.2,0.8,0.3,1.6,0.3,2.4
				c0-0.8,0.1-1.6,0.3-2.4c0.5-2.2,1.7-4.1,3.3-5.6c1.9-1.7,4.5-2.8,7.3-2.8c6,0,10.8,4.8,10.8,10.8c0,6-4.8,10.8-10.8,10.8
				c-0.2,0-0.4,0-0.6,0c0.5,1.4,0.7,2.9,0.5,4.5c-0.4,4.9-4.3,9-9.2,9.6c-6.6,0.9-12.3-4.2-12.3-10.7l0,0c0-0.7,0.5-1.3,1.2-1.5
				c3.2-0.8,5.9-3.2,7.2-6.3c0.3-0.6,0.5-1.3,0.6-2.1c0.1-0.4,0.1-0.7,0.1-1.1c-0.3,1.2-0.9,2.2-1.6,3.2c-1.8,2.5-4.7,4.3-7.8,4.3
				c-2.8,0.1-5.7-1.3-7.6-3.3C129,255.9,127.9,253.2,127.9,250.4z"/>
		</g>
		<g>
			<path class="st5" d="M138.7,239.3c2.9,0,5.6,1.1,7.7,3.1c1.5,1.4,2.6,3.2,3.1,5.2c0.5-2.1,1.7-3.9,3.3-5.4
				c2.1-1.9,4.7-2.9,7.5-2.9c6.2,0,11.2,5,11.2,11.2s-5,11.2-11.2,11.2c0,0,0,0-0.1,0c0.4,1.3,0.5,2.7,0.4,4.1
				c-0.5,5.1-4.5,9.3-9.5,10c-3.2,0.4-6.5-0.5-8.9-2.6s-3.8-5.2-3.8-8.4c0-0.9,0.6-1.6,1.5-1.9c3-0.8,5.5-2.9,6.8-5.7
				c-2,2.7-5,4.4-8,4.4c-2.8,0.1-5.8-1.2-7.9-3.4c-2-2.1-3.1-4.9-3.1-7.8C127.5,244.3,132.5,239.3,138.7,239.3z M149.1,250.4
				c0-0.8-0.1-1.6-0.3-2.3c-0.5-2-1.5-3.8-3-5.2c-1.9-1.8-4.5-2.9-7.2-2.9c-5.7,0-10.4,4.7-10.4,10.4c0,2.7,1.1,5.3,2.9,7.2
				c2,2,4.7,3.2,7.3,3.2c2.8-0.1,5.7-1.7,7.5-4.2c0.7-0.9,1.2-1.9,1.5-3.1l1-3.3l-0.2,3.4c0,0.3-0.1,0.7-0.2,1.1
				c-0.1,0.7-0.4,1.5-0.6,2.1c-1.3,3.2-4.1,5.7-7.5,6.5c-0.5,0.1-0.9,0.6-0.9,1.1c0,3,1.3,5.9,3.6,7.8c2.3,2,5.3,2.9,8.3,2.5
				c4.7-0.6,8.5-4.6,8.9-9.3c0.1-1.5,0-3-0.5-4.3l-0.2-0.5h0.6c0.2,0,0.4,0,0.6,0c5.7,0,10.4-4.7,10.4-10.4s-4.7-10.4-10.4-10.4
				c-2.6,0-5.1,1-7,2.7c-1.6,1.5-2.7,3.3-3.1,5.4c-0.2,0.7-0.3,1.5-0.3,2.3h-0.8V250.4z"/>
		</g>
	</g>
	<g>
		<g>
			<path class="st4" d="M71.2,243.5c0-0.3,0-0.6,0-0.9c-0.3-3.2-2-6-4.4-7.8c-0.8-0.6-1.3-1.4-1.3-2.4l0,0h18.3l0,0
				c0,1-0.5,1.8-1.3,2.4c-2.4,1.8-4.1,4.5-4.4,7.7c0,0.4-0.1,0.7-0.1,1.1c0,4.1,2.3,7.7,5.7,9.5v3.8H72.2c0.3-0.6,0.5-1.3,0.6-2.1
				c0.1-0.4,0.1-0.7,0.1-1.1c-0.3,1.2-0.9,2.2-1.6,3.2h-5.9v-3.8C68.9,251.3,71.2,247.7,71.2,243.5z"/>
		</g>
		<g>
			<path class="st5" d="M65.5,232h18.6v0.4c0,1.1-0.5,2.1-1.4,2.7c-2.4,1.7-4,4.4-4.3,7.4c0,0.3-0.1,0.7-0.1,1.1
				c0,3.9,2.1,7.4,5.5,9.2l0.2,0.1v4.4H71.6l0.1-0.1l-0.1,0.1h-6.5v-4.4l0.2-0.1c3.4-1.8,5.5-5.3,5.5-9.2c0-0.3,0-0.6,0-0.9
				c-0.3-3-1.8-5.8-4.3-7.5c-0.9-0.7-1.4-1.6-1.4-2.7V232H65.5z M83.3,232.8H65.9c0.1,0.7,0.5,1.3,1.1,1.7c2.6,1.9,4.3,4.9,4.6,8.1
				c0,0.3,0,0.6,0,1c0,4.1-2.2,7.8-5.7,9.8v3.2h5.3c0.6-0.9,1.1-1.9,1.4-2.9l1-3.3l-0.2,3.4c0,0.3-0.1,0.7-0.2,1.1
				c-0.1,0.6-0.3,1.1-0.4,1.6h10.6v-3.2c-3.6-2-5.7-5.7-5.7-9.8c0-0.4,0-0.8,0.1-1.1c0.3-3.2,2-6,4.6-7.9
				C82.8,234.1,83.2,233.4,83.3,232.8z"/>
		</g>
		<g>
			<path class="st4" d="M53,250.4c0-6,4.8-10.8,10.8-10.8c2.9,0,5.5,1.1,7.4,3c1.5,1.4,2.6,3.3,3.1,5.4c0.2,0.8,0.3,1.6,0.3,2.4
				c0-0.8,0.1-1.6,0.3-2.4c0.5-2.2,1.7-4.1,3.3-5.6c1.9-1.7,4.5-2.8,7.3-2.8c6,0,10.8,4.8,10.8,10.8c0,6-4.8,10.8-10.8,10.8
				c-0.2,0-0.4,0-0.6,0c0.5,1.4,0.7,2.9,0.5,4.5c-0.4,4.9-4.3,9-9.2,9.6c-6.6,0.9-12.3-4.2-12.3-10.7l0,0c0-0.7,0.5-1.3,1.2-1.5
				c3.2-0.8,5.9-3.2,7.2-6.3c0.3-0.6,0.5-1.3,0.6-2.1c0.1-0.4,0.1-0.7,0.1-1.1c-0.3,1.2-0.9,2.2-1.6,3.2c-1.8,2.5-4.7,4.3-7.8,4.3
				c-2.8,0.1-5.7-1.3-7.6-3.3C54.1,255.9,53,253.2,53,250.4z"/>
		</g>
		<g>
			<path class="st5" d="M63.7,239.3c2.9,0,5.6,1.1,7.7,3.1c1.5,1.4,2.6,3.2,3.1,5.2c0.5-2.1,1.7-3.9,3.3-5.4
				c2.1-1.9,4.7-2.9,7.5-2.9c6.2,0,11.2,5,11.2,11.2s-5,11.2-11.2,11.2c0,0,0,0-0.1,0c0.4,1.3,0.5,2.7,0.4,4.1
				c-0.5,5.1-4.5,9.3-9.5,10c-3.2,0.4-6.5-0.5-8.9-2.6s-3.8-5.2-3.8-8.4c0-0.9,0.6-1.6,1.5-1.9c3-0.8,5.5-2.9,6.8-5.7
				c-2,2.7-5,4.4-8,4.4c-2.8,0.1-5.8-1.2-7.9-3.4c-2-2.1-3.1-4.9-3.1-7.8C52.6,244.3,57.6,239.3,63.7,239.3z M74.1,250.4
				c0-0.8-0.1-1.6-0.3-2.3c-0.5-2-1.5-3.8-3-5.2c-1.9-1.8-4.5-2.9-7.2-2.9c-5.7,0-10.4,4.7-10.4,10.4c0,2.7,1.1,5.3,2.9,7.2
				c2,2,4.7,3.2,7.3,3.2c2.8-0.1,5.7-1.7,7.5-4.2c0.7-0.9,1.2-1.9,1.5-3.1l1-3.3l-0.2,3.4c0,0.3-0.1,0.7-0.2,1.1
				c-0.1,0.7-0.4,1.5-0.6,2.1c-1.3,3.2-4.1,5.7-7.5,6.5c-0.5,0.1-0.9,0.6-0.9,1.1c0,3,1.3,5.9,3.6,7.8c2.3,2,5.3,2.9,8.3,2.5
				c4.7-0.6,8.5-4.6,8.9-9.3c0.1-1.5,0-3-0.5-4.3l-0.2-0.5h0.6c0.2,0,0.4,0,0.6,0c5.7,0,10.4-4.7,10.4-10.4s-4.7-10.4-10.4-10.4
				c-2.6,0-5.1,1-7,2.7c-1.6,1.5-2.7,3.3-3.1,5.4c-0.2,0.7-0.3,1.5-0.3,2.3h-0.8V250.4z"/>
		</g>
	</g>
</g>
</svg>
