<?xml version="1.0" encoding="utf-8"?>
<!-- Generator: Adobe Illustrator 25.2.0, SVG Export Plug-In . SVG Version: 6.00 Build 0)  -->
<svg version="1.1" id="Layer_1" xmlns="http://www.w3.org/2000/svg" xmlns:xlink="http://www.w3.org/1999/xlink" x="0px" y="0px"
	 viewBox="0 0 224.2 312.8" style="enable-background:new 0 0 224.2 312.8;" xml:space="preserve">
<style type="text/css">
	.st0{opacity:2.000000e-02;enable-background:new    ;}
	.st1{enable-background:new    ;}
	.st2{fill:none;stroke:#000000;stroke-miterlimit:10;}
	.st3{opacity:5.000000e-02;enable-background:new    ;}
	.st4{fill:#190B38;}
	.st5{fill:#050307;}
</style>
<g>
	<g>
		<g class="st0">
			<rect x="-0.2" y="0.7" width="224.4" height="312.1"/>
		</g>
		<g class="st1">
			<path d="M195.4,239.7c-1.7-1-3-2.3-4-4s-1.5-3.6-1.5-5.8c0-1.4,0.2-2.7,0.6-3.9c0.4-1.2,1-2.3,1.8-3.2l-3-3.8h2.6l1.9,2.3
				c1-0.8,2.1-1.4,3.3-1.9c1.3-0.5,2.6-0.7,4-0.7c2.1,0,4,0.5,5.7,1.4c1.7,1,3,2.3,4,4s1.4,3.6,1.4,5.8c0,2.1-0.5,4.1-1.4,5.8
				s-2.3,3-4,4c-1.7,1-3.6,1.4-5.7,1.4C199,241.1,197.1,240.7,195.4,239.7z M205.6,237.8c1.3-0.8,2.4-1.8,3.2-3.2
				c0.8-1.4,1.2-2.9,1.2-4.7c0-1.7-0.4-3.3-1.2-4.7s-1.8-2.4-3.2-3.2s-2.9-1.1-4.5-1.1c-1.1,0-2.2,0.2-3.2,0.6
				c-1,0.4-1.9,0.9-2.7,1.6l5.2,6.5h-2.7l-3.9-4.9c-1,1.5-1.5,3.2-1.5,5.2c0,1.8,0.4,3.3,1.2,4.7c0.8,1.4,1.8,2.4,3.2,3.2
				c1.3,0.8,2.8,1.1,4.5,1.1S204.3,238.6,205.6,237.8z"/>
		</g>
		<g class="st1">
			<path class="st2" d="M195.4,239.7c-1.7-1-3-2.3-4-4s-1.5-3.6-1.5-5.8c0-1.4,0.2-2.7,0.6-3.9c0.4-1.2,1-2.3,1.8-3.2l-3-3.8h2.6
				l1.9,2.3c1-0.8,2.1-1.4,3.3-1.9c1.3-0.5,2.6-0.7,4-0.7c2.1,0,4,0.5,5.7,1.4c1.7,1,3,2.3,4,4s1.4,3.6,1.4,5.8
				c0,2.1-0.5,4.1-1.4,5.8s-2.3,3-4,4c-1.7,1-3.6,1.4-5.7,1.4C199,241.1,197.1,240.7,195.4,239.7z M205.6,237.8
				c1.3-0.8,2.4-1.8,3.2-3.2c0.8-1.4,1.2-2.9,1.2-4.7c0-1.7-0.4-3.3-1.2-4.7s-1.8-2.4-3.2-3.2s-2.9-1.1-4.5-1.1
				c-1.1,0-2.2,0.2-3.2,0.6c-1,0.4-1.9,0.9-2.7,1.6l5.2,6.5h-2.7l-3.9-4.9c-1,1.5-1.5,3.2-1.5,5.2c0,1.8,0.4,3.3,1.2,4.7
				c0.8,1.4,1.8,2.4,3.2,3.2c1.3,0.8,2.8,1.1,4.5,1.1S204.3,238.6,205.6,237.8z"/>
		</g>
		<g class="st1">
			<path d="M28,75.5c1.7,1,3,2.3,4,4s1.5,3.6,1.5,5.8c0,1.4-0.2,2.7-0.6,3.9c-0.4,1.2-1,2.3-1.8,3.2l3,3.8h-2.6l-1.9-2.3
				c-1,0.8-2.1,1.4-3.3,1.9c-1.3,0.5-2.6,0.7-4,0.7c-2.1,0-4-0.5-5.7-1.4c-1.7-1-3-2.3-4-4s-1.4-3.6-1.4-5.8c0-2.1,0.5-4.1,1.4-5.8
				s2.3-3,4-4c1.7-1,3.6-1.4,5.7-1.4C24.4,74.1,26.3,74.5,28,75.5z M17.7,77.4c-1.3,0.8-2.4,1.8-3.2,3.2c-0.8,1.4-1.2,2.9-1.2,4.7
				c0,1.7,0.4,3.3,1.2,4.7c0.8,1.4,1.8,2.4,3.2,3.2c1.3,0.8,2.9,1.1,4.5,1.1c1.1,0,2.2-0.2,3.2-0.6c1-0.4,1.9-0.9,2.7-1.6L23,85.6
				h2.7l3.9,4.9c1-1.5,1.5-3.2,1.5-5.2c0-1.8-0.4-3.3-1.2-4.7c-0.8-1.4-1.8-2.4-3.2-3.2c-1.3-0.8-2.8-1.1-4.5-1.1
				C20.6,76.3,19.1,76.6,17.7,77.4z"/>
		</g>
		<g class="st1">
			<path class="st2" d="M28,75.5c1.7,1,3,2.3,4,4s1.5,3.6,1.5,5.8c0,1.4-0.2,2.7-0.6,3.9c-0.4,1.2-1,2.3-1.8,3.2l3,3.8h-2.6
				l-1.9-2.3c-1,0.8-2.1,1.4-3.3,1.9c-1.3,0.5-2.6,0.7-4,0.7c-2.1,0-4-0.5-5.7-1.4c-1.7-1-3-2.3-4-4s-1.4-3.6-1.4-5.8
				c0-2.1,0.5-4.1,1.4-5.8s2.3-3,4-4c1.7-1,3.6-1.4,5.7-1.4C24.4,74.1,26.3,74.5,28,75.5z M17.7,77.4c-1.3,0.8-2.4,1.8-3.2,3.2
				c-0.8,1.4-1.2,2.9-1.2,4.7c0,1.7,0.4,3.3,1.2,4.7c0.8,1.4,1.8,2.4,3.2,3.2c1.3,0.8,2.9,1.1,4.5,1.1c1.1,0,2.2-0.2,3.2-0.6
				c1-0.4,1.9-0.9,2.7-1.6L23,85.6h2.7l3.9,4.9c1-1.5,1.5-3.2,1.5-5.2c0-1.8-0.4-3.3-1.2-4.7c-0.8-1.4-1.8-2.4-3.2-3.2
				c-1.3-0.8-2.8-1.1-4.5-1.1C20.6,76.3,19.1,76.6,17.7,77.4z"/>
		</g>
		<g class="st3">
			<path d="M173.4,283.5H50.6c-4.2,0-7.5-3.4-7.5-7.5V37.6c0-4.2,3.4-7.5,7.5-7.5h122.9c4.2,0,7.5,3.4,7.5,7.5V276
				C181,280.1,177.6,283.5,173.4,283.5z"/>
		</g>
		<g>
			<g>
				<path class="st4" d="M24.6,54.7c0,0.2,0,0.4,0,0.7c0.2,2.3,1.4,4.3,3.1,5.5c0.6,0.4,0.9,1,0.9,1.7l0,0h-13l0,0
					c0-0.7,0.4-1.3,0.9-1.7c1.7-1.2,2.9-3.2,3.1-5.4c0-0.3,0-0.5,0-0.8c0-2.9-1.7-5.5-4.1-6.8v-2.7H24c-0.2,0.5-0.3,0.9-0.4,1.5
					c0,0.3-0.1,0.5-0.1,0.8c0.2-0.8,0.6-1.6,1.1-2.2h4.2V48C26.3,49.2,24.6,51.7,24.6,54.7z"/>
			</g>
			<g>
				<path class="st5" d="M28.7,62.8H15.5v-0.3c0-0.8,0.4-1.5,1-1.9c1.7-1.2,2.8-3.1,3-5.2c0-0.2,0-0.5,0-0.7c0-2.7-1.5-5.2-3.9-6.5
					l-0.1-0.1V45h8.9v0.1l0.1-0.1H29v3.1l-0.1,0.1C26.5,49.5,25,52,25,54.7c0,0.2,0,0.4,0,0.6c0.2,2.1,1.3,4.1,3,5.3
					c0.6,0.5,1,1.2,1,1.9v0.3L28.7,62.8z M16,62.3h12.4c-0.1-0.5-0.3-0.9-0.8-1.2c-1.9-1.4-3.1-3.4-3.3-5.7c0-0.2,0-0.5,0-0.7
					c0-2.9,1.6-5.5,4.1-6.9v-2.2h-3.8c-0.4,0.6-0.8,1.3-1,2.1L23,49.9l0.2-2.4c0-0.2,0.1-0.5,0.1-0.8c0.1-0.4,0.2-0.8,0.3-1.1H16
					v2.2c2.5,1.4,4.1,4,4.1,6.9c0,0.3,0,0.6,0,0.8c-0.2,2.2-1.4,4.3-3.2,5.6C16.4,61.4,16.1,61.8,16,62.3z"/>
			</g>
			<g>
				<path class="st4" d="M37.6,49.8c0,4.2-3.4,7.6-7.6,7.6c-2,0-3.9-0.8-5.3-2.1c-1.1-1-1.8-2.3-2.2-3.8c-0.1-0.5-0.2-1.1-0.2-1.7
					c0,0.6-0.1,1.1-0.2,1.7c-0.3,1.6-1.2,2.9-2.3,4c-1.4,1.2-3.2,2-5.1,2C10.4,57.4,7,54,7,49.8s3.4-7.6,7.6-7.6c0.1,0,0.3,0,0.4,0
					c-0.3-1-0.5-2.1-0.4-3.2c0.3-3.5,3.1-6.4,6.5-6.8c4.7-0.6,8.7,3,8.7,7.6l0,0c0,0.5-0.4,0.9-0.9,1.1c-2.3,0.6-4.2,2.2-5.1,4.5
					c-0.2,0.5-0.3,0.9-0.4,1.5c0,0.3-0.1,0.5-0.1,0.8c0.2-0.8,0.6-1.6,1.1-2.2c1.3-1.8,3.3-3,5.5-3.1c2-0.1,4,0.9,5.4,2.3
					C36.8,45.9,37.6,47.8,37.6,49.8z"/>
			</g>
			<g>
				<path class="st5" d="M29.9,57.7c-2,0-4-0.8-5.5-2.2c-1.1-1-1.8-2.3-2.2-3.7c-0.4,1.5-1.2,2.8-2.3,3.8c-1.5,1.3-3.4,2.1-5.3,2.1
					c-4.4,0-7.9-3.5-7.9-7.9s3.6-7.9,7.9-7.9l0,0C14.3,41,14.2,40,14.3,39c0.3-3.6,3.2-6.6,6.8-7.1c2.3-0.3,4.6,0.4,6.3,1.9
					c1.7,1.5,2.7,3.7,2.7,6c0,0.6-0.4,1.2-1.1,1.3c-2.1,0.6-3.9,2-4.8,4c1.4-1.9,3.6-3.1,5.7-3.1c2-0.1,4.1,0.8,5.6,2.4
					c1.4,1.5,2.2,3.5,2.2,5.5C37.8,54.1,34.3,57.7,29.9,57.7z M22.5,49.8c0,0.6,0.1,1.1,0.2,1.7c0.3,1.4,1.1,2.7,2.1,3.7
					c1.4,1.3,3.2,2,5.1,2c4.1,0,7.4-3.3,7.4-7.4c0-1.9-0.8-3.8-2.1-5.1c-1.4-1.4-3.3-2.3-5.2-2.2c-2,0-4,1.2-5.3,3
					c-0.5,0.7-0.8,1.4-1.1,2.2L23,49.9l0.2-2.4c0-0.2,0.1-0.5,0.1-0.8c0.1-0.5,0.3-1,0.5-1.5c0.9-2.3,2.9-4,5.3-4.6
					c0.4-0.1,0.7-0.4,0.7-0.8c0-2.1-0.9-4.2-2.5-5.6c-1.6-1.4-3.8-2-5.9-1.7c-3.3,0.5-6,3.2-6.3,6.6c-0.1,1.1,0,2.1,0.4,3.1l0.1,0.4
					h-0.4c-0.2,0-0.3,0-0.4,0c-4.1,0-7.4,3.3-7.4,7.4s3.3,7.4,7.4,7.4c1.8,0,3.6-0.7,5-1.9c1.1-1,1.9-2.4,2.2-3.8
					c0.1-0.5,0.2-1.1,0.2-1.6h0.3V49.8z"/>
			</g>
		</g>
		<g>
			<g>
				<path class="st4" d="M198.3,260.6c0-0.2,0-0.5,0-0.7c-0.2-2.4-1.4-4.4-3.3-5.8c-0.6-0.4-0.9-1.1-0.9-1.8l0,0h13.4l0,0
					c0,0.7-0.4,1.3-0.9,1.8c-1.8,1.3-3,3.3-3.2,5.6c0,0.3,0,0.5,0,0.8c0,3,1.7,5.7,4.2,7v2.8H199c0.2-0.5,0.3-1,0.5-1.5
					c0-0.3,0.1-0.5,0.1-0.8c-0.3,0.9-0.6,1.6-1.1,2.3h-4.3v-2.8C196.6,266.3,198.3,263.7,198.3,260.6z"/>
			</g>
			<g>
				<path class="st5" d="M194.1,252.2h13.7v0.3c0,0.8-0.4,1.5-1.1,2c-1.8,1.3-2.9,3.3-3.1,5.4c0,0.3,0,0.5,0,0.8
					c0,2.8,1.6,5.4,4.1,6.8l0.1,0.1v3.2h-9.2v-0.1l-0.1,0.1h-4.8v-3.2l0.1-0.1c2.5-1.3,4.1-3.9,4.1-6.8c0-0.2,0-0.4,0-0.7
					c-0.2-2.2-1.3-4.2-3.1-5.5c-0.7-0.5-1.1-1.2-1.1-2v-0.3L194.1,252.2z M207.2,252.7h-12.8c0.1,0.5,0.4,0.9,0.8,1.3
					c1.9,1.4,3.2,3.6,3.4,6c0,0.2,0,0.5,0,0.7c0,3-1.6,5.7-4.2,7.2v2.3h3.9c0.5-0.6,0.8-1.4,1-2.1l0.7-2.4l-0.2,2.5
					c0,0.2-0.1,0.5-0.1,0.8c-0.1,0.4-0.2,0.8-0.3,1.2h7.8v-2.3c-2.6-1.4-4.2-4.2-4.2-7.2c0-0.3,0-0.6,0-0.8c0.2-2.3,1.5-4.4,3.4-5.8
					C206.8,253.7,207.1,253.2,207.2,252.7z"/>
			</g>
			<g>
				<path class="st4" d="M184.9,265.7c0-4.4,3.6-7.9,7.9-7.9c2.1,0,4,0.8,5.5,2.2c1.1,1.1,1.9,2.4,2.3,4c0.1,0.6,0.2,1.2,0.2,1.8
					c0-0.6,0.1-1.2,0.2-1.7c0.4-1.6,1.2-3,2.4-4.1c1.4-1.3,3.3-2.1,5.3-2.1c4.4,0,7.9,3.5,7.9,7.9s-3.5,7.9-7.9,7.9
					c-0.1,0-0.3,0-0.4,0c0.4,1,0.5,2.1,0.4,3.3c-0.3,3.6-3.2,6.6-6.8,7.1c-4.9,0.7-9-3.1-9-7.8l0,0c0-0.5,0.4-1,0.9-1.1
					c2.4-0.6,4.4-2.3,5.3-4.6c0.2-0.5,0.3-1,0.5-1.5c0-0.3,0.1-0.5,0.1-0.8c-0.3,0.9-0.6,1.6-1.1,2.3c-1.3,1.8-3.5,3.1-5.7,3.2
					c-2.1,0.1-4.2-0.9-5.6-2.4C185.7,269.7,184.9,267.7,184.9,265.7z"/>
			</g>
			<g>
				<path class="st5" d="M192.8,257.5c2.1,0,4.1,0.8,5.7,2.3c1.1,1,1.9,2.4,2.3,3.8c0.4-1.5,1.2-2.9,2.4-3.9
					c1.5-1.4,3.5-2.1,5.5-2.1c4.5,0,8.2,3.7,8.2,8.2s-3.7,8.2-8.2,8.2l0,0c0.3,1,0.4,2,0.3,3c-0.3,3.7-3.3,6.8-7,7.3
					c-2.4,0.3-4.8-0.4-6.6-1.9c-1.8-1.6-2.8-3.8-2.8-6.2c0-0.6,0.5-1.2,1.1-1.4c2.2-0.6,4-2.1,5-4.2c-1.4,2-3.7,3.2-5.9,3.3
					c-2.1,0.1-4.2-0.9-5.8-2.5c-1.5-1.5-2.3-3.6-2.3-5.7C184.6,261.2,188.3,257.5,192.8,257.5z M200.4,265.7c0-0.6-0.1-1.2-0.2-1.7
					c-0.3-1.5-1.1-2.8-2.2-3.8c-1.4-1.4-3.3-2.1-5.3-2.1c-4.2,0-7.7,3.4-7.7,7.6c0,2,0.8,3.9,2.1,5.3c1.4,1.5,3.5,2.4,5.4,2.3
					c2.1-0.1,4.2-1.2,5.5-3.1c0.5-0.7,0.9-1.4,1.1-2.2l0.7-2.4l-0.2,2.5c0,0.2-0.1,0.5-0.1,0.8c-0.1,0.5-0.3,1.1-0.5,1.6
					c-1,2.4-3,4.2-5.5,4.8c-0.4,0.1-0.7,0.4-0.7,0.8c0,2.2,1,4.3,2.6,5.8c1.7,1.5,3.9,2.1,6.1,1.8c3.5-0.5,6.2-3.4,6.5-6.8
					c0.1-1.1,0-2.2-0.4-3.2l-0.1-0.4h0.4c0.2,0,0.3,0,0.4,0c4.2,0,7.7-3.4,7.7-7.7c0-4.2-3.4-7.6-7.7-7.6c-1.9,0-3.7,0.7-5.1,2
					c-1.2,1.1-2,2.4-2.3,4c-0.1,0.5-0.2,1.1-0.2,1.7L200.4,265.7L200.4,265.7z"/>
			</g>
		</g>
	</g>
	<g>
		<g>
			<path d="M103.2,150.3c-1.6,0-3.4-0.4-5.4-1.2l0.4-0.9c3.4,1.3,6.2,1.4,8.1,0.4c1.9-1,2.4-2.9,2.4-3l1,0.2c0,0.1-0.6,2.4-2.9,3.6
				C105.7,150.1,104.5,150.3,103.2,150.3z"/>
		</g>
		<g>
			<g>
				<path d="M74,137.6l19-42.5c2.3-5.2,7.5-8.5,13.2-8.5h40.6l-49.3,51.9L74,137.6z"/>
			</g>
			<g>
				<path d="M145.5,87.1L137,96l-39.9,42l-22.4-0.8l18.7-41.8c2.2-5,7.2-8.2,12.7-8.2L145.5,87.1 M147.9,86.1h-2.3h-39.4
					c-5.9,0-11.2,3.5-13.6,8.8l-18.7,41.8l-0.6,1.4l1.5,0.1l22.4,0.8h0.4l0.3-0.3l39.9-42l8.5-8.9L147.9,86.1L147.9,86.1z"/>
			</g>
		</g>
		<g>
			<path d="M122.6,80.2c-0.9,0-1.8-0.2-2.7-0.6c-0.2-0.1-0.4-0.4-0.2-0.7c0.1-0.2,0.4-0.4,0.7-0.2c1.6,0.7,3,0.7,4.6,0
				c0.2-0.1,0.5,0,0.7,0.2c0.1,0.2,0,0.5-0.2,0.7C124.4,80,123.5,80.2,122.6,80.2z"/>
		</g>
		<g>
			<polygon points="150.4,153.1 129.5,153.1 106.4,130.1 107.2,129.3 129.9,152.1 150.4,152.1 			"/>
		</g>
		<g>
			<g>
				<path d="M147.5,87.1l2.5,17.8L137.1,96l-39.9,42l-22.4-0.8l18.1-40.5c2.6-5.8,8.4-9.6,14.7-9.6H147.5 M148.4,86.1h-0.9h-39.9
					c-6.8,0-12.9,4-15.7,10.2l-18.1,40.5l-0.6,1.4l1.5,0.1l22.4,0.8h0.4l0.3-0.3l39.3-41.3l12.2,8.4l1.9,1.3l-0.3-2.2l-2.5-17.8
					V86.1L148.4,86.1z"/>
			</g>
		</g>
		<g>
			<polygon class="st4" points="145.5,87.1 137.3,95.8 97.2,137.9 85.4,137.5 130.2,87 			"/>
		</g>
		<g>
			<path d="M144.2,76l-3.7-24.5c-0.4-2.9-2.4-5.3-5.2-6.3L122,40.4l-12.4,5.3c-2.5,1.1-4.3,3.3-4.7,6L100.8,76l-2.7,11.1h48.2
				L144.2,76z M135.2,83.7l-0.9,2.3h-22.9l-0.7-1.5c-2.2-4.7-3-10-2.2-15.2l2.2-14.8l11.6-5.6l12.5,5.1l2.2,16.3
				C137.5,74.9,136.9,79.4,135.2,83.7z"/>
		</g>
		<g>
			<path d="M121,48.2c0,0,8.6,7.2,14.3,6.4c5.6-0.8-1.6-5.2-1.6-5.2L121,48.2z"/>
		</g>
		<g>
			<path d="M123.2,48.6c0,0-8.6,7.2-14.3,6.4c-5.6-0.8,1.6-5.2,1.6-5.2L123.2,48.6z"/>
		</g>
		<g>
			<polygon class="st4" points="73,138.5 69.2,149.6 100.9,151 103.6,139.7 			"/>
			<path d="M101.3,151.5l-32.8-1.4l4.1-12.1l31.6,1.2L101.3,151.5z M69.9,149.1l30.6,1.4l2.5-10.3L73.4,139L69.9,149.1z"/>
		</g>
		<g>
			<path d="M114.1,141.9c-1.2,0-2.7-0.3-3.5-0.5c-1.3-0.3-2.4-0.6-3.3-1c-0.8-0.3-1.7-0.8-1.5-1.5l0,0c0.1-0.7,1.1-0.8,2-0.7
				c0.9,0,2.1,0.2,3.4,0.4c1.5,0.3,5.1,1.2,4.8,2.5C115.9,141.7,115.1,141.9,114.1,141.9z M107.2,139.2c0.6,0.3,1.8,0.8,3.7,1.2
				c1.9,0.4,3.2,0.5,3.8,0.4c-0.6-0.3-1.8-0.8-3.7-1.2C109.1,139.2,107.8,139.2,107.2,139.2z"/>
		</g>
		<g>
			<path d="M109.5,146.3c-0.2,0-0.4,0-0.6-0.1c-0.7-0.2-1.2-0.7-1.4-1.4l-1.7-5.6l1-0.3l1.7,5.6c0.1,0.4,0.4,0.6,0.7,0.7
				c0.4,0.1,0.8,0,1.1-0.2l4.8-4.4l0.7,0.7l-4.8,4.4C110.5,146.1,110,146.3,109.5,146.3z"/>
		</g>
		<g>
			<path d="M105.7,149.5c-0.1,0-0.2,0-0.3-0.1c-0.6-0.3-1.3-2.1-0.6-3.7c0.1-0.3,0.4-0.4,0.7-0.3c0.3,0.1,0.4,0.4,0.3,0.7
				c-0.4,1-0.1,2,0.1,2.3c0.1,0,0.1,0,0.2,0.1c0.2,0.2,0.3,0.5,0.1,0.7C106.1,149.4,105.9,149.5,105.7,149.5z"/>
		</g>
		<g>
			<path d="M107.7,151.2c-2.2,0-4-0.9-4.2-1c-0.2-0.1-0.3-0.4-0.2-0.7c0.1-0.2,0.4-0.3,0.7-0.2c0,0,4.4,2.2,7.1-0.4
				c0.2-0.2,0.5-0.2,0.7,0c0.2,0.2,0.2,0.5,0,0.7C110.6,150.9,109.1,151.2,107.7,151.2z"/>
		</g>
		<g>
			<path d="M115.4,167.9l-1-0.2c0-0.1,0.6-2.4,2.9-3.6c2.2-1.2,5.2-1.1,9,0.4l-0.4,0.9c-3.4-1.3-6.2-1.4-8.1-0.4
				C115.8,166,115.4,167.9,115.4,167.9z"/>
		</g>
		<g>
			<g>
				<path d="M77.3,227l49.3-51.9l23.4,0.8l-19,42.5c-2.3,5.2-7.5,8.5-13.2,8.5L77.3,227L77.3,227z"/>
			</g>
			<g>
				<path d="M126.8,175.6l22.4,0.8l-18.7,41.8c-2.2,5-7.2,8.2-12.7,8.2H78.4l8.5-8.9L126.8,175.6 M126.4,174.6l-0.3,0.3l-39.9,42
					l-8.5,8.9l-1.6,1.7h2.3h39.4c5.9,0,11.2-3.5,13.6-8.8l18.7-41.8l0.6-1.4l-1.5-0.1l-22.4-0.8L126.4,174.6L126.4,174.6z"/>
			</g>
		</g>
		<g>
			<path d="M103.8,235c-0.1,0-0.1,0-0.2,0c-1.6-0.7-3-0.7-4.6,0c-0.3,0.1-0.5,0-0.7-0.2c-0.1-0.2,0-0.5,0.2-0.7
				c1.8-0.9,3.6-0.9,5.4,0c0.2,0.1,0.4,0.4,0.2,0.7C104.2,234.9,104,235,103.8,235z"/>
		</g>
		<g>
			<polygon points="116.8,184.3 94.1,161.5 73.6,161.5 73.6,160.5 94.5,160.5 117.6,183.5 			"/>
		</g>
		<g>
			<g>
				<path d="M126.8,175.6l22.4,0.8l-18.1,40.5c-2.6,5.8-8.4,9.6-14.7,9.6H76.5L74,208.7l12.9,8.9L126.8,175.6 M126.4,174.6l-0.3,0.3
					l-39.3,41.3l-12.2-8.4l-1.9-1.3l0.3,2.2l2.5,17.8l0.1,0.9h0.9h39.9c6.8,0,12.9-4,15.7-10.2l18.1-40.5l0.6-1.4l-1.5-0.1
					l-22.4-0.8L126.4,174.6L126.4,174.6z"/>
			</g>
		</g>
		<g>
			<polygon class="st4" points="78.4,226.5 86.7,217.8 126.8,175.6 138.6,176 93.8,226.5 			"/>
		</g>
		<g>
			<path d="M79.8,237.5l3.7,24.5c0.4,2.9,2.4,5.3,5.2,6.3l13.3,4.8l12.4-5.3c2.5-1.1,4.3-3.3,4.7-6l4.1-24.3l2.7-11.1H77.7
				L79.8,237.5z M88.7,229.9l0.9-2.3h22.9l0.7,1.5c2.2,4.7,3,10,2.2,15.2l-2.2,14.8l-11.6,5.6l-12.5-5.1l-2.2-16.3
				C86.5,238.7,87.1,234.1,88.7,229.9z"/>
		</g>
		<g>
			<path d="M103,265.3c0,0-8.6-7.2-14.3-6.4c-5.6,0.8,1.6,5.2,1.6,5.2L103,265.3z"/>
		</g>
		<g>
			<path d="M100.8,264.9c0,0,8.6-7.2,14.3-6.4s-1.6,5.2-1.6,5.2L100.8,264.9z"/>
		</g>
		<g>
			<polygon class="st4" points="151,175.1 154.8,163.9 123.1,162.6 120.4,173.8 			"/>
			<path d="M151.4,175.6l-31.6-1.3l2.9-12.2l32.8,1.3L151.4,175.6z M121,173.3l29.6,1.3l3.5-10.2l-30.6-1.3L121,173.3z"/>
		</g>
		<g>
			<path d="M116.4,175.3c-0.1,0-0.1,0-0.2,0c-0.9,0-2.1-0.2-3.4-0.4c-1.5-0.3-5.1-1.2-4.8-2.5c0.1-0.7,1.1-0.8,2-0.7
				c0.9,0,2.1,0.2,3.4,0.4c1.5,0.3,5.1,1.2,4.8,2.5C118.1,175.2,117.2,175.3,116.4,175.3z M109.3,172.7c0.6,0.3,1.8,0.8,3.7,1.2
				c1.9,0.4,3.2,0.5,3.8,0.4c-0.6-0.3-1.8-0.8-3.7-1.2C111.3,172.7,110,172.7,109.3,172.7z"/>
		</g>
		<g>
			<path d="M117.2,174.6l-1.7-5.6c-0.1-0.4-0.4-0.6-0.7-0.7c-0.4-0.1-0.8,0-1.1,0.2l-4.8,4.4l-0.7-0.7l4.8-4.4
				c0.6-0.5,1.3-0.7,2-0.5c0.7,0.2,1.2,0.7,1.4,1.4l1.7,5.6L117.2,174.6z"/>
		</g>
		<g>
			<path d="M118.7,168.1c-0.1,0-0.1,0-0.2,0c-0.3-0.1-0.4-0.4-0.3-0.7c0.4-1,0.1-2-0.1-2.3c-0.1,0-0.1,0-0.2-0.1
				c-0.2-0.2-0.3-0.5-0.1-0.7c0.2-0.3,0.5-0.3,0.8-0.2c0.6,0.3,1.3,2.1,0.6,3.7C119.1,168,118.9,168.1,118.7,168.1z"/>
		</g>
		<g>
			<path d="M112.5,164.8c-0.1,0-0.3-0.1-0.4-0.2c-0.2-0.2-0.2-0.5,0-0.7c3.2-3.1,8.1-0.7,8.3-0.6c0.2,0.1,0.3,0.4,0.2,0.7
				s-0.4,0.3-0.7,0.2c0,0-4.4-2.2-7.1,0.4C112.8,164.8,112.6,164.8,112.5,164.8z"/>
		</g>
		<g>
			<g>
				<path class="st4" d="M139.9,137.1c0,0.3,0,0.5,0,0.8c0.2,2.6,1.6,5,3.6,6.4c0.6,0.5,1,1.2,1,2l0,0h-15l0,0c0-0.8,0.4-1.5,1-2
					c2-1.4,3.4-3.7,3.6-6.3c0-0.3,0-0.6,0-0.9c0-3.4-1.9-6.4-4.7-7.8v-3.1h9.5c-0.2,0.5-0.4,1.1-0.5,1.7c-0.1,0.3-0.1,0.6-0.1,0.9
					c0.3-1,0.7-1.8,1.3-2.6h4.9v3.1C141.8,130.7,139.9,133.7,139.9,137.1z"/>
			</g>
			<g>
				<path class="st5" d="M144.6,146.6h-15.3v-0.3c0-0.9,0.4-1.7,1.2-2.2c2-1.4,3.3-3.7,3.5-6.1c0-0.3,0-0.6,0-0.9
					c0-3.2-1.7-6.1-4.6-7.6l-0.2-0.1v-3.6h10.3v0.1l0.1-0.1h5.3v3.6l-0.2,0.1c-2.8,1.5-4.6,4.4-4.6,7.6c0,0.2,0,0.5,0,0.7
					c0.2,2.5,1.5,4.7,3.5,6.2c0.7,0.5,1.2,1.4,1.2,2.2v0.3L144.6,146.6z M129.9,146h14.4c-0.1-0.6-0.4-1.1-0.9-1.4
					c-2.2-1.6-3.6-4-3.8-6.7c0-0.3,0-0.5,0-0.8c0-3.4,1.8-6.4,4.7-8v-2.6h-4.4c-0.5,0.7-0.9,1.5-1.1,2.4l-0.8,2.7l0.2-2.8
					c0-0.3,0.1-0.6,0.1-0.9c0.1-0.5,0.2-0.9,0.4-1.3h-8.8v2.6c2.9,1.6,4.7,4.7,4.7,8c0,0.3,0,0.6-0.1,0.9c-0.3,2.6-1.6,5-3.8,6.5
					C130.3,144.9,130,145.4,129.9,146z"/>
			</g>
			<g>
				<path class="st4" d="M154.9,131.4c0,4.9-4,8.9-8.9,8.9c-2.4,0-4.5-0.9-6.1-2.4c-1.2-1.2-2.1-2.7-2.5-4.4c-0.2-0.6-0.2-1.3-0.2-2
					c0,0.7-0.1,1.3-0.2,2c-0.4,1.8-1.4,3.4-2.7,4.6c-1.6,1.4-3.7,2.3-6,2.3c-4.9,0-8.9-4-8.9-8.9c0-4.9,4-8.9,8.9-8.9
					c0.2,0,0.3,0,0.5,0c-0.4-1.2-0.6-2.4-0.4-3.7c0.4-4,3.6-7.4,7.6-7.9c5.5-0.7,10.1,3.5,10.1,8.8l0,0c0,0.6-0.4,1.1-1,1.2
					c-2.6,0.7-4.9,2.6-5.9,5.2c-0.2,0.5-0.4,1.1-0.5,1.7c-0.1,0.3-0.1,0.6-0.1,0.9c0.3-1,0.7-1.8,1.3-2.6c1.5-2,3.9-3.5,6.4-3.6
					c2.3-0.1,4.7,1,6.2,2.7C154,126.9,154.9,129.1,154.9,131.4z"/>
			</g>
			<g>
				<path class="st5" d="M146,140.6c-2.4,0-4.6-0.9-6.3-2.5c-1.2-1.2-2.1-2.6-2.5-4.3c-0.4,1.7-1.4,3.2-2.7,4.4
					c-1.7,1.5-3.9,2.4-6.2,2.4c-5.1,0-9.2-4.1-9.2-9.2c0-5.1,4.1-9.2,9.2-9.2l0,0c-0.3-1.1-0.4-2.2-0.3-3.4c0.4-4.2,3.7-7.7,7.8-8.2
					c2.7-0.4,5.3,0.4,7.3,2.2c2,1.7,3.1,4.3,3.1,6.9c0,0.7-0.5,1.4-1.2,1.5c-2.5,0.6-4.5,2.4-5.6,4.7c1.6-2.2,4.1-3.6,6.6-3.6
					c2.3-0.1,4.7,1,6.5,2.8c1.6,1.7,2.6,4,2.6,6.4C155.2,136.5,151.1,140.6,146,140.6z M137.4,131.4c0,0.7,0.1,1.3,0.2,1.9
					c0.4,1.6,1.2,3.1,2.4,4.3c1.6,1.5,3.7,2.4,5.9,2.4c4.7,0,8.6-3.8,8.6-8.6c0-2.2-0.9-4.4-2.4-6c-1.6-1.7-3.9-2.7-6-2.6
					c-2.3,0.1-4.7,1.4-6.2,3.4c-0.5,0.8-1,1.6-1.2,2.5l-0.8,2.7l0.2-2.8c0-0.3,0.1-0.6,0.1-0.9c0.1-0.6,0.3-1.2,0.5-1.8
					c1.1-2.6,3.4-4.7,6.2-5.4c0.4-0.1,0.8-0.5,0.8-0.9c0-2.5-1.1-4.8-2.9-6.5c-1.9-1.6-4.4-2.4-6.8-2c-3.9,0.5-7,3.8-7.3,7.7
					c-0.1,1.2,0,2.4,0.4,3.6l0.1,0.4h-0.5c-0.2,0-0.3,0-0.5,0c-4.7,0-8.6,3.8-8.6,8.6c0,4.7,3.8,8.6,8.6,8.6c2.1,0,4.2-0.8,5.8-2.2
					c1.3-1.2,2.2-2.7,2.6-4.5c0.1-0.6,0.2-1.2,0.2-1.9L137.4,131.4L137.4,131.4z"/>
			</g>
		</g>
		<g>
			<g>
				<path class="st4" d="M84.4,176.4c0-0.3,0-0.5,0-0.8c-0.2-2.7-1.6-5-3.7-6.5c-0.6-0.5-1.1-1.2-1.1-2l0,0h15.1l0,0
					c0,0.8-0.4,1.5-1.1,2c-2,1.5-3.4,3.7-3.7,6.3c0,0.3,0,0.6,0,0.9c0,3.4,1.9,6.4,4.8,7.9v3.1h-9.6c0.2-0.5,0.4-1.1,0.5-1.7
					c0.1-0.3,0.1-0.6,0.1-0.9c-0.3,1-0.7,1.8-1.3,2.6h-4.9v-3.1C82.5,182.8,84.4,179.8,84.4,176.4z"/>
			</g>
			<g>
				<path class="st5" d="M79.7,166.8h15.5v0.3c0,0.9-0.4,1.7-1.2,2.3c-2,1.5-3.3,3.7-3.5,6.1c0,0.3,0,0.6,0,0.9
					c0,3.2,1.8,6.1,4.6,7.6l0.2,0.1v3.6H84.8v-0.1l-0.1,0.1h-5.4v-3.6l0.2-0.1c2.8-1.5,4.6-4.4,4.6-7.6c0-0.2,0-0.5,0-0.7
					c-0.2-2.5-1.5-4.8-3.5-6.3c-0.8-0.5-1.2-1.4-1.2-2.2v-0.3L79.7,166.8z M94.5,167.5H80c0.1,0.6,0.4,1.1,0.9,1.4
					c2.2,1.6,3.6,4,3.8,6.7c0,0.3,0,0.5,0,0.8c0,3.4-1.8,6.5-4.8,8.1v2.6h4.4c0.5-0.7,0.9-1.5,1.2-2.4l0.8-2.7l-0.2,2.8
					c0,0.3-0.1,0.6-0.1,1c-0.1,0.5-0.2,0.9-0.4,1.3h8.8v-2.6c-2.9-1.6-4.8-4.7-4.8-8.1c0-0.3,0-0.6,0.1-0.9c0.3-2.6,1.6-5,3.8-6.6
					C94.1,168.5,94.4,168,94.5,167.5z"/>
			</g>
			<g>
				<path class="st4" d="M69.3,182.1c0-4.9,4-8.9,8.9-8.9c2.4,0,4.6,0.9,6.2,2.5c1.2,1.2,2.2,2.7,2.6,4.5c0.2,0.6,0.2,1.3,0.2,2
					c0-0.7,0.1-1.3,0.2-2c0.4-1.8,1.4-3.4,2.7-4.6c1.6-1.4,3.7-2.3,6-2.3c4.9,0,8.9,4,8.9,8.9s-4,8.9-8.9,8.9c-0.2,0-0.3,0-0.5,0
					c0.4,1.2,0.6,2.4,0.4,3.7c-0.4,4.1-3.6,7.4-7.6,8c-5.5,0.8-10.2-3.5-10.2-8.8l0,0c0-0.6,0.4-1.1,1-1.2c2.7-0.7,4.9-2.6,6-5.2
					c0.2-0.5,0.4-1.1,0.5-1.7c0.1-0.3,0.1-0.6,0.1-0.9c-0.3,1-0.7,1.8-1.3,2.6c-1.5,2-3.9,3.5-6.5,3.6c-2.3,0.1-4.7-1-6.3-2.7
					C70.2,186.7,69.3,184.4,69.3,182.1z"/>
			</g>
			<g>
				<path class="st5" d="M78.3,172.9c2.4,0,4.6,0.9,6.4,2.5c1.2,1.2,2.1,2.7,2.6,4.3c0.5-1.7,1.4-3.2,2.7-4.5
					c1.7-1.6,3.9-2.4,6.2-2.4c5.1,0,9.3,4.1,9.3,9.2c0,5.1-4.2,9.3-9.3,9.3l0,0c0.3,1.1,0.4,2.3,0.3,3.4c-0.4,4.2-3.7,7.7-7.9,8.3
					c-2.7,0.4-5.4-0.4-7.4-2.2s-3.2-4.3-3.2-7c0-0.7,0.5-1.4,1.2-1.6c2.5-0.7,4.5-2.4,5.6-4.7c-1.6,2.2-4.2,3.6-6.7,3.7
					c-2.3,0.1-4.8-1-6.5-2.8c-1.7-1.7-2.6-4.1-2.6-6.4C69,177,73.1,172.9,78.3,172.9z M86.9,182.1c0-0.7-0.1-1.3-0.2-1.9
					c-0.4-1.7-1.2-3.1-2.5-4.3c-1.6-1.5-3.7-2.4-5.9-2.4c-4.8,0-8.6,3.9-8.6,8.6c0,2.2,0.9,4.4,2.4,6c1.6,1.7,3.9,2.7,6.1,2.6
					c2.3-0.1,4.7-1.4,6.2-3.5c0.6-0.8,1-1.6,1.2-2.5l0.8-2.7l-0.2,2.8c0,0.3-0.1,0.6-0.1,1c-0.1,0.6-0.3,1.2-0.5,1.8
					c-1.1,2.7-3.4,4.7-6.2,5.4c-0.4,0.1-0.8,0.5-0.8,0.9c0,2.5,1.1,4.9,3,6.5s4.4,2.4,6.9,2c3.9-0.5,7-3.8,7.4-7.7
					c0.1-1.2,0-2.5-0.4-3.6l-0.1-0.4h0.5c0.2,0,0.3,0,0.5,0c4.8,0,8.6-3.9,8.6-8.6c0-4.8-3.9-8.6-8.6-8.6c-2.1,0-4.2,0.8-5.8,2.2
					c-1.3,1.2-2.2,2.8-2.6,4.5c-0.1,0.6-0.2,1.3-0.2,1.9H86.9z"/>
			</g>
		</g>
	</g>
</g>
</svg>
