<?xml version="1.0" encoding="utf-8"?>
<!-- Generator: Adobe Illustrator 25.2.0, SVG Export Plug-In . SVG Version: 6.00 Build 0)  -->
<svg version="1.1" id="Layer_1" xmlns="http://www.w3.org/2000/svg" xmlns:xlink="http://www.w3.org/1999/xlink" x="0px" y="0px"
	 viewBox="0 0 224.2 312.8" style="enable-background:new 0 0 224.2 312.8;" xml:space="preserve">
<style type="text/css">
	.st0{opacity:2.000000e-02;enable-background:new    ;}
	.st1{enable-background:new    ;}
	.st2{fill:none;stroke:#000000;stroke-miterlimit:10;}
	.st3{opacity:5.000000e-02;enable-background:new    ;}
	.st4{fill:#190B38;}
	.st5{fill:#050307;}
</style>
<g>
	<g>
		<g class="st0">
			<rect y="0.5" width="224.2" height="311.8"/>
		</g>
		<g class="st1">
			<path d="M205.1,238.4l0.2-6.7h-3.3c-1.6,0-3-0.3-4.2-0.8c-1.1-0.6-2-1.3-2.6-2.3c-0.6-1-0.9-2-0.9-3.2c0-1.4,0.3-2.7,1-3.7
				c0.6-1,1.5-1.8,2.6-2.4c1.1-0.5,2.4-0.8,3.8-0.8c3,0,5.5,1.1,7.3,3.4l-1.4,1.4c-0.7-0.9-1.6-1.5-2.6-2c-1-0.5-2.1-0.7-3.3-0.7
				c-1.6,0-2.9,0.4-3.8,1.3s-1.4,2-1.4,3.4c0,1.3,0.5,2.4,1.5,3.3c1,0.8,2.5,1.2,4.6,1.2h4.7l-0.3,10.8h-11.7v-2H205.1z"/>
		</g>
		<g class="st1">
			<path class="st2" d="M205.1,238.4l0.2-6.7h-3.3c-1.6,0-3-0.3-4.2-0.8c-1.1-0.6-2-1.3-2.6-2.3c-0.6-1-0.9-2-0.9-3.2
				c0-1.4,0.3-2.7,1-3.7c0.6-1,1.5-1.8,2.6-2.4c1.1-0.5,2.4-0.8,3.8-0.8c3,0,5.5,1.1,7.3,3.4l-1.4,1.4c-0.7-0.9-1.6-1.5-2.6-2
				c-1-0.5-2.1-0.7-3.3-0.7c-1.6,0-2.9,0.4-3.8,1.3s-1.4,2-1.4,3.4c0,1.3,0.5,2.4,1.5,3.3c1,0.8,2.5,1.2,4.6,1.2h4.7l-0.3,10.8
				h-11.7v-2H205.1z"/>
		</g>
		<g class="st1">
			<path d="M18.1,76.1l-0.2,6.7h3.3c1.6,0,3,0.3,4.2,0.8c1.1,0.6,2,1.3,2.6,2.3c0.6,1,0.9,2,0.9,3.2c0,1.4-0.3,2.7-1,3.7
				c-0.6,1-1.5,1.8-2.6,2.4s-2.4,0.8-3.8,0.8c-3,0-5.5-1.1-7.3-3.4l1.4-1.4c0.7,0.9,1.6,1.5,2.6,2c1,0.5,2.1,0.7,3.3,0.7
				c1.6,0,2.9-0.4,3.8-1.3s1.4-2,1.4-3.4c0-1.3-0.5-2.4-1.5-3.3c-1-0.8-2.5-1.2-4.6-1.2h-4.7l0.3-10.8h11.7v2H18.1z"/>
		</g>
		<g class="st1">
			<path class="st2" d="M18.1,76.1l-0.2,6.7h3.3c1.6,0,3,0.3,4.2,0.8c1.1,0.6,2,1.3,2.6,2.3c0.6,1,0.9,2,0.9,3.2
				c0,1.4-0.3,2.7-1,3.7c-0.6,1-1.5,1.8-2.6,2.4s-2.4,0.8-3.8,0.8c-3,0-5.5-1.1-7.3-3.4l1.4-1.4c0.7,0.9,1.6,1.5,2.6,2
				c1,0.5,2.1,0.7,3.3,0.7c1.6,0,2.9-0.4,3.8-1.3s1.4-2,1.4-3.4c0-1.3-0.5-2.4-1.5-3.3c-1-0.8-2.5-1.2-4.6-1.2h-4.7l0.3-10.8h11.7v2
				H18.1z"/>
		</g>
		<g class="st3">
			<path d="M173.5,283H50.7c-4.2,0-7.5-3.4-7.5-7.5V37.3c0-4.2,3.4-7.5,7.5-7.5h122.8c4.2,0,7.5,3.4,7.5,7.5v238.1
				C181,279.6,177.6,283,173.5,283z"/>
		</g>
		<g>
			<g>
				<path class="st4" d="M24.8,54.4c0,0.2,0,0.4,0,0.7c0.2,2.3,1.4,4.3,3.1,5.5c0.6,0.4,0.9,1,0.9,1.7l0,0H15.9l0,0
					c0-0.7,0.4-1.3,0.9-1.7c1.7-1.2,2.9-3.2,3.1-5.4c0-0.3,0-0.5,0-0.8c0-2.9-1.6-5.5-4.1-6.7V45H24c-0.2,0.5-0.3,0.9-0.4,1.5
					c0,0.3-0.1,0.5-0.1,0.8c0.2-0.8,0.6-1.6,1.1-2.2h4.2v2.7C26.5,48.9,24.8,51.5,24.8,54.4z"/>
			</g>
			<g>
				<path class="st5" d="M28.9,62.5H15.7v-0.3c0-0.8,0.4-1.5,1-1.9c1.7-1.2,2.8-3.1,3-5.2c0-0.2,0-0.5,0-0.7c0-2.7-1.5-5.2-3.9-6.5
					l-0.1-0.1v-3.1h8.9v0.1l0.1-0.1h4.6v3.1L29,47.9c-2.4,1.3-3.9,3.8-3.9,6.5c0,0.2,0,0.4,0,0.6c0.2,2.1,1.3,4.1,3,5.3
					c0.6,0.5,1,1.2,1,1.9v0.3H28.9z M16.2,62h12.4c-0.1-0.5-0.3-0.9-0.8-1.2c-1.9-1.4-3.1-3.4-3.2-5.7c0-0.2,0-0.5,0-0.7
					c0-2.9,1.6-5.5,4.1-6.9v-2.2h-3.8c-0.4,0.6-0.8,1.3-1,2.1l-0.7,2.3l0.2-2.4c0-0.2,0.1-0.5,0.1-0.8c0.1-0.4,0.2-0.8,0.3-1.1h-7.5
					v2.2c2.5,1.4,4.1,4,4.1,6.9c0,0.3,0,0.6,0,0.8c-0.2,2.2-1.4,4.3-3.2,5.6C16.6,61.1,16.3,61.5,16.2,62z"/>
			</g>
			<g>
				<path class="st4" d="M37.7,49.5c0,4.2-3.4,7.6-7.6,7.6c-2,0-3.9-0.8-5.3-2.1c-1.1-1-1.8-2.3-2.2-3.8c-0.1-0.5-0.2-1.1-0.2-1.7
					c0,0.6-0.1,1.1-0.2,1.7c-0.3,1.6-1.2,2.9-2.3,4c-1.4,1.2-3.2,2-5.1,2c-4.2,0-7.6-3.4-7.6-7.6s3.4-7.6,7.6-7.6c0.1,0,0.3,0,0.4,0
					c-0.3-1-0.5-2.1-0.4-3.2c0.3-3.5,3.1-6.4,6.5-6.8c4.7-0.6,8.7,3,8.7,7.6l0,0c0,0.5-0.4,0.9-0.9,1.1c-2.1,0.4-4.1,2-5,4.3
					c-0.2,0.5-0.3,0.9-0.4,1.5c0,0.3-0.1,0.5-0.1,0.8c0.2-0.8,0.6-1.6,1.1-2.2c1.3-1.8,3.3-3,5.5-3.1c2-0.1,4,0.9,5.4,2.3
					C37,45.6,37.7,47.5,37.7,49.5z"/>
			</g>
			<g>
				<path class="st5" d="M30.1,57.4c-2,0-4-0.8-5.5-2.2c-1.1-1-1.8-2.3-2.2-3.7c-0.4,1.5-1.2,2.8-2.3,3.8c-1.5,1.3-3.3,2.1-5.3,2.1
					c-4.4,0-7.9-3.5-7.9-7.9s3.5-7.9,7.9-7.9l0,0c-0.3-0.9-0.4-1.9-0.3-2.9c0.3-3.6,3.2-6.6,6.8-7.1c2.3-0.3,4.6,0.4,6.3,1.9
					c1.7,1.5,2.7,3.7,2.7,6c0,0.6-0.4,1.2-1.1,1.3c-2.1,0.6-3.9,2-4.8,4c1.4-1.9,3.6-3.1,5.7-3.1c2-0.1,4.1,0.8,5.6,2.4
					c1.4,1.5,2.2,3.5,2.2,5.5C38,53.9,34.5,57.4,30.1,57.4z M22.7,49.5c0,0.6,0.1,1.1,0.2,1.7c0.3,1.4,1.1,2.7,2.1,3.7
					c1.4,1.3,3.2,2,5.1,2c4.1,0,7.4-3.3,7.4-7.4c0-1.9-0.8-3.8-2.1-5.1c-1.4-1.4-3.3-2.3-5.2-2.2c-2,0-4,1.2-5.3,3
					c-0.5,0.7-0.8,1.4-1.1,2.2l-0.7,2.3l0.2-2.4c0-0.2,0.1-0.5,0.1-0.8c0.1-0.5,0.3-1,0.5-1.5c0.9-2.3,2.9-4,5.3-4.6
					c0.4-0.1,0.7-0.4,0.7-0.8c0-2.1-0.9-4.2-2.5-5.6c-1.6-1.4-3.8-2-5.9-1.7c-3.3,0.5-6,3.2-6.3,6.6c-0.1,1.1,0,2.1,0.4,3.1l0.1,0.4
					h-0.4c-0.2,0-0.3,0-0.4,0c-4.1,0-7.4,3.3-7.4,7.4s3.3,7.4,7.4,7.4c1.8,0,3.6-0.7,5-1.9c1.1-1,1.9-2.4,2.2-3.8
					c0.1-0.5,0.2-1.1,0.2-1.6h0.4V49.5z"/>
			</g>
		</g>
		<g>
			<g>
				<path class="st4" d="M198.3,260.2c0-0.2,0-0.5,0-0.7c-0.2-2.4-1.4-4.4-3.3-5.7c-0.6-0.4-0.9-1.1-0.9-1.8l0,0h13.4l0,0
					c0,0.7-0.4,1.3-0.9,1.8c-1.8,1.3-3,3.3-3.2,5.6c0,0.3,0,0.5,0,0.8c0,3,1.7,5.7,4.2,7v2.8H199c0.2-0.5,0.3-1,0.5-1.5
					c0-0.3,0.1-0.5,0.1-0.8c-0.3,0.9-0.6,1.6-1.1,2.3h-4.3v-2.8C196.6,265.8,198.3,263.2,198.3,260.2z"/>
			</g>
			<g>
				<path class="st5" d="M194.1,251.7h13.7v0.3c0,0.8-0.4,1.5-1.1,2c-1.8,1.3-2.9,3.3-3.1,5.4c0,0.3,0,0.5,0,0.8
					c0,2.8,1.6,5.4,4.1,6.8l0.1,0.1v3.2h-9.2v-0.1l-0.1,0.1h-4.8V267l0.1-0.1c2.5-1.3,4.1-3.9,4.1-6.8c0-0.2,0-0.4,0-0.7
					c-0.2-2.2-1.3-4.2-3.1-5.5c-0.7-0.5-1.1-1.2-1.1-2v-0.3L194.1,251.7z M207.2,252.2h-12.8c0.1,0.5,0.4,0.9,0.8,1.3
					c1.9,1.4,3.2,3.6,3.4,5.9c0,0.2,0,0.5,0,0.7c0,3-1.6,5.7-4.2,7.2v2.3h3.9c0.5-0.6,0.8-1.4,1-2.1l0.7-2.4l-0.2,2.5
					c0,0.2-0.1,0.5-0.1,0.8c-0.1,0.4-0.2,0.8-0.3,1.2h7.8v-2.3c-2.6-1.4-4.2-4.2-4.2-7.2c0-0.3,0-0.6,0-0.8c0.2-2.3,1.5-4.4,3.4-5.8
					C206.9,253.2,207.1,252.7,207.2,252.2z"/>
			</g>
			<g>
				<path class="st4" d="M184.9,265.2c0-4.4,3.5-7.9,7.9-7.9c2.1,0,4,0.8,5.5,2.2c1.1,1.1,1.9,2.4,2.3,4c0.1,0.6,0.2,1.2,0.2,1.8
					c0-0.6,0.1-1.2,0.2-1.7c0.4-1.6,1.2-3,2.4-4.1c1.4-1.3,3.3-2.1,5.3-2.1c4.4,0,7.9,3.5,7.9,7.9s-3.5,7.9-7.9,7.9
					c-0.1,0-0.3,0-0.4,0c0.4,1,0.5,2.1,0.4,3.3c-0.3,3.6-3.2,6.6-6.8,7.1c-4.9,0.7-9-3.1-9-7.8l0,0c0-0.5,0.4-1,0.9-1.1
					c2.4-0.6,4.4-2.3,5.3-4.6c0.2-0.5,0.3-1,0.5-1.5c0-0.3,0.1-0.5,0.1-0.8c-0.3,0.9-0.6,1.6-1.1,2.3c-1.3,1.8-3.4,3.1-5.7,3.2
					c-2.1,0.1-4.2-0.9-5.6-2.4C185.7,269.3,184.9,267.3,184.9,265.2z"/>
			</g>
			<g>
				<path class="st5" d="M192.8,257c2.1,0,4.1,0.8,5.7,2.3c1.1,1,1.9,2.4,2.3,3.8c0.4-1.5,1.2-2.9,2.4-3.9c1.5-1.4,3.5-2.1,5.5-2.1
					c4.5,0,8.2,3.7,8.2,8.2s-3.7,8.2-8.2,8.2l0,0c0.3,1,0.4,2,0.3,3c-0.3,3.7-3.3,6.8-7,7.3c-2.4,0.3-4.8-0.4-6.5-1.9
					c-1.8-1.6-2.8-3.8-2.8-6.2c0-0.6,0.4-1.2,1.1-1.4c2.2-0.6,4-2.1,5-4.2c-1.4,2-3.7,3.2-5.9,3.3c-2,0.1-4.2-0.9-5.8-2.5
					c-1.5-1.5-2.3-3.6-2.3-5.7C184.6,260.7,188.3,257,192.8,257z M200.5,265.2c0-0.6-0.1-1.2-0.2-1.7c-0.3-1.5-1.1-2.8-2.2-3.8
					c-1.4-1.4-3.3-2.1-5.3-2.1c-4.2,0-7.6,3.4-7.6,7.6c0,2,0.8,3.9,2.1,5.3c1.4,1.5,3.5,2.4,5.4,2.3c2.1-0.1,4.2-1.2,5.5-3.1
					c0.5-0.7,0.9-1.4,1.1-2.2l0.7-2.4l-0.2,2.5c0,0.2-0.1,0.5-0.1,0.8c-0.1,0.5-0.3,1.1-0.5,1.6c-1,2.4-3,4.2-5.5,4.8
					c-0.4,0.1-0.7,0.4-0.7,0.8c0,2.2,1,4.3,2.6,5.8c1.7,1.5,3.9,2.1,6.1,1.8c3.5-0.5,6.2-3.3,6.5-6.8c0.1-1.1,0-2.2-0.4-3.2
					l-0.1-0.4h0.4c0.2,0,0.3,0,0.4,0c4.2,0,7.6-3.4,7.6-7.6s-3.4-7.6-7.6-7.6c-1.9,0-3.7,0.7-5.1,2c-1.2,1.1-2,2.4-2.3,4
					c-0.1,0.5-0.2,1.1-0.2,1.7L200.5,265.2L200.5,265.2z"/>
			</g>
		</g>
	</g>
	<g>
		<g>
			<path class="st4" d="M78,69.7c0,0.3,0,0.6,0,0.9c0.3,3.2,2,6,4.4,7.8c0.8,0.6,1.3,1.4,1.3,2.4l0,0H65.4l0,0c0-1,0.5-1.8,1.3-2.4
				c2.4-1.8,4.1-4.5,4.4-7.6c0-0.4,0.1-0.7,0.1-1.1c0-4.1-2.3-7.7-5.7-9.5v-3.8H77c-0.3,0.6-0.5,1.3-0.6,2.1
				c-0.1,0.4-0.1,0.7-0.1,1.1c0.3-1.2,0.9-2.2,1.6-3.2h5.9v3.8C80.3,62,78,65.6,78,69.7z"/>
		</g>
		<g>
			<path class="st5" d="M83.7,81.2H65.1v-0.4c0-1.1,0.5-2.1,1.4-2.7c2.4-1.7,4-4.4,4.3-7.4c0-0.3,0.1-0.7,0.1-1.1
				c0-3.9-2.1-7.4-5.5-9.2l-0.2-0.1V56h12.5l-0.1,0.1l0.1-0.1h6.5v4.4L84,60.5c-3.4,1.8-5.5,5.3-5.5,9.2c0,0.3,0,0.6,0,0.9
				c0.3,3,1.8,5.8,4.3,7.5c0.9,0.7,1.4,1.6,1.4,2.7v0.4H83.7z M65.9,80.5h17.4c-0.1-0.7-0.5-1.3-1.1-1.7c-2.6-1.9-4.3-4.9-4.6-8.1
				c0-0.3,0-0.6,0-1c0-4.1,2.2-7.8,5.7-9.7v-3.2H78c-0.6,0.9-1.1,1.9-1.4,2.9l-1,3.2l0.2-3.4c0-0.3,0.1-0.7,0.2-1.1
				c0.1-0.6,0.3-1.1,0.4-1.6H65.8V60c3.5,2,5.7,5.7,5.7,9.7c0,0.4,0,0.8-0.1,1.1c-0.3,3.1-2,6-4.6,7.9C66.3,79.2,66,79.8,65.9,80.5z
				"/>
		</g>
		<g>
			<path class="st4" d="M96.2,62.8c0,5.9-4.8,10.8-10.8,10.8c-2.9,0-5.5-1.1-7.4-3c-1.5-1.4-2.6-3.3-3.1-5.4
				c-0.2-0.8-0.3-1.6-0.3-2.4c0,0.8-0.1,1.6-0.3,2.4c-0.5,2.2-1.7,4.1-3.3,5.6c-1.9,1.7-4.5,2.8-7.2,2.8c-6,0-10.8-4.8-10.8-10.8
				S57.8,52,63.8,52c0.2,0,0.4,0,0.6,0c-0.5-1.4-0.7-2.9-0.5-4.5c0.4-4.9,4.3-9,9.2-9.6c6.6-0.9,12.3,4.2,12.3,10.7l0,0
				c0,0.7-0.5,1.3-1.2,1.5C81,51,78.3,53.3,77,56.4c-0.3,0.6-0.5,1.3-0.6,2.1c-0.1,0.4-0.1,0.7-0.1,1.1c0.3-1.2,0.9-2.2,1.6-3.2
				c1.8-2.5,4.7-4.3,7.8-4.3c2.8-0.1,5.6,1.3,7.6,3.3C95.1,57.3,96.2,60.1,96.2,62.8z"/>
		</g>
		<g>
			<path class="st5" d="M85.4,74c-2.9,0-5.6-1.1-7.7-3.1c-1.5-1.4-2.6-3.2-3.1-5.2c-0.5,2.1-1.7,3.9-3.3,5.4c-2,1.9-4.6,2.9-7.4,2.9
				c-6.2,0-11.2-5-11.2-11.1c0-6.2,5-11.2,11.2-11.2c0,0,0,0,0.1,0c-0.4-1.3-0.5-2.7-0.4-4.1c0.5-5.1,4.5-9.3,9.5-10
				c3.2-0.4,6.5,0.5,8.9,2.6s3.8,5.2,3.8,8.4c0,0.9-0.6,1.6-1.5,1.9c-3,0.8-5.5,2.9-6.8,5.7c2-2.7,5-4.3,8-4.4
				c2.8-0.1,5.7,1.2,7.9,3.4c2,2.1,3.1,4.9,3.1,7.8C96.6,69,91.6,74,85.4,74z M75,62.8c0,0.8,0.1,1.6,0.3,2.3c0.5,2,1.5,3.8,3,5.2
				c1.9,1.8,4.5,2.9,7.2,2.9c5.7,0,10.4-4.7,10.4-10.4c0-2.7-1.1-5.3-2.9-7.2c-2-2-4.7-3.2-7.3-3.1c-2.8,0.1-5.7,1.7-7.5,4.2
				c-0.7,0.9-1.2,1.9-1.5,3.1l-1,3.2l0.2-3.4c0-0.3,0.1-0.7,0.2-1.1c0.1-0.7,0.4-1.5,0.6-2.1c1.3-3.2,4.1-5.7,7.5-6.5
				c0.5-0.1,0.9-0.6,0.9-1.1c0-3-1.3-5.9-3.6-7.8c-2.3-2-5.3-2.9-8.3-2.5c-4.7,0.6-8.4,4.6-8.9,9.3c-0.1,1.5,0,3,0.5,4.3l0.2,0.5
				h-0.6c-0.2,0-0.4,0-0.6,0c-5.7,0-10.4,4.7-10.4,10.4s4.7,10.4,10.4,10.4c2.6,0,5.1-1,7-2.7c1.6-1.5,2.7-3.3,3.1-5.4
				c0.2-0.7,0.3-1.5,0.3-2.3H75V62.8z"/>
		</g>
	</g>
	<g>
		<g>
			<path class="st4" d="M152.8,69.7c0,0.3,0,0.6,0,0.9c0.3,3.2,2,6,4.4,7.8c0.8,0.6,1.3,1.4,1.3,2.4l0,0h-18.3l0,0
				c0-1,0.5-1.8,1.3-2.4c2.4-1.8,4.1-4.5,4.4-7.6c0-0.4,0.1-0.7,0.1-1.1c0-4.1-2.3-7.7-5.7-9.5v-3.8h11.6c-0.3,0.6-0.5,1.3-0.6,2.1
				c-0.1,0.4-0.1,0.7-0.1,1.1c0.3-1.2,0.9-2.2,1.6-3.2h5.9v3.8C155.2,62,152.8,65.6,152.8,69.7z"/>
		</g>
		<g>
			<path class="st5" d="M158.6,81.2H140v-0.4c0-1.1,0.5-2.1,1.4-2.7c2.4-1.7,4-4.4,4.3-7.4c0-0.3,0.1-0.7,0.1-1.1
				c0-3.9-2.1-7.4-5.5-9.2l-0.2-0.1V56h12.5l-0.1,0.1l0.1-0.1h6.5v4.4l-0.2,0.1c-3.4,1.8-5.5,5.3-5.5,9.2c0,0.3,0,0.6,0,0.9
				c0.3,3,1.8,5.8,4.3,7.5c0.9,0.7,1.4,1.6,1.4,2.7v0.4H158.6z M140.7,80.5h17.4c-0.1-0.7-0.5-1.3-1.1-1.7c-2.6-1.9-4.3-4.9-4.6-8.1
				c0-0.3,0-0.6,0-1c0-4.1,2.2-7.8,5.7-9.7v-3.2h-5.3c-0.6,0.9-1.1,1.9-1.4,2.9l-1,3.2l0.2-3.4c0-0.3,0.1-0.7,0.2-1.1
				c0.1-0.6,0.3-1.1,0.4-1.6h-10.6V60c3.5,2,5.7,5.7,5.7,9.7c0,0.4,0,0.8-0.1,1.1c-0.3,3.1-2,6-4.6,7.9
				C141.2,79.2,140.8,79.8,140.7,80.5z"/>
		</g>
		<g>
			<path class="st4" d="M171.1,62.8c0,5.9-4.8,10.8-10.8,10.8c-2.9,0-5.5-1.1-7.4-3c-1.5-1.4-2.6-3.3-3.1-5.4
				c-0.2-0.8-0.3-1.6-0.3-2.4c0,0.8-0.1,1.6-0.3,2.4c-0.5,2.2-1.7,4.1-3.3,5.6c-1.9,1.7-4.5,2.8-7.2,2.8c-6,0-10.8-4.8-10.8-10.8
				S132.7,52,138.7,52c0.2,0,0.4,0,0.6,0c-0.5-1.4-0.7-2.9-0.5-4.5c0.4-4.9,4.3-9,9.2-9.6c6.6-0.9,12.3,4.2,12.3,10.7l0,0
				c0,0.7-0.5,1.3-1.2,1.5c-3.2,0.8-5.9,3.2-7.2,6.3c-0.3,0.6-0.5,1.3-0.6,2.1c-0.1,0.4-0.1,0.7-0.1,1.1c0.3-1.2,0.9-2.2,1.6-3.2
				c1.8-2.5,4.7-4.3,7.8-4.3c2.8-0.1,5.6,1.3,7.6,3.3C170,57.3,171.1,60.1,171.1,62.8z"/>
		</g>
		<g>
			<path class="st5" d="M160.3,74c-2.9,0-5.6-1.1-7.7-3.1c-1.5-1.4-2.6-3.2-3.1-5.2c-0.5,2.1-1.7,3.9-3.3,5.4
				c-2.1,1.9-4.7,2.9-7.5,2.9c-6.2,0-11.2-5-11.2-11.1c0-6.2,5-11.2,11.2-11.2c0,0,0,0,0.1,0c-0.4-1.3-0.5-2.7-0.4-4.1
				c0.5-5.1,4.5-9.3,9.5-10c3.2-0.4,6.5,0.5,8.9,2.6s3.8,5.2,3.8,8.4c0,0.9-0.6,1.6-1.5,1.9c-3,0.8-5.5,2.9-6.8,5.7
				c2-2.7,5-4.3,8-4.4c2.8-0.1,5.7,1.2,7.9,3.4c2,2.1,3.1,4.9,3.1,7.8C171.5,69,166.5,74,160.3,74z M149.9,62.8
				c0,0.8,0.1,1.6,0.3,2.3c0.5,2,1.5,3.8,3,5.2c1.9,1.8,4.5,2.9,7.2,2.9c5.7,0,10.4-4.7,10.4-10.4c0-2.7-1.1-5.3-2.9-7.2
				c-2-2-4.7-3.2-7.3-3.1c-2.8,0.1-5.7,1.7-7.5,4.2c-0.7,0.9-1.2,1.9-1.5,3.1l-1,3.2l0.2-3.4c0-0.3,0.1-0.7,0.2-1.1
				c0.1-0.7,0.4-1.5,0.6-2.1c1.3-3.2,4.1-5.7,7.5-6.5c0.5-0.1,0.9-0.6,0.9-1.1c0-3-1.3-5.9-3.6-7.8c-2.3-2-5.3-2.9-8.3-2.5
				c-4.7,0.6-8.4,4.6-8.9,9.3c-0.1,1.5,0,3,0.5,4.3l0.2,0.5h-0.6c-0.2,0-0.4,0-0.6,0c-5.7,0-10.4,4.7-10.4,10.4s4.7,10.4,10.4,10.4
				c2.6,0,5.1-1,7-2.7c1.6-1.5,2.7-3.3,3.1-5.4c0.2-0.7,0.3-1.5,0.3-2.3h0.8V62.8z"/>
		</g>
	</g>
	<g>
		<g>
			<path class="st4" d="M115.4,166.8c0,0.3,0,0.6,0,0.9c0.3,3.2,2,6,4.4,7.8c0.8,0.6,1.3,1.4,1.3,2.4l0,0h-18.3l0,0
				c0-1,0.5-1.8,1.3-2.4c2.4-1.8,4.1-4.5,4.4-7.6c0-0.4,0.1-0.7,0.1-1.1c0-4.1-2.3-7.7-5.7-9.5v-3.8h11.6c-0.3,0.6-0.5,1.3-0.6,2.1
				c-0.1,0.4-0.1,0.7-0.1,1.1c0.3-1.2,0.9-2.2,1.6-3.2h5.9v3.8C117.7,159.1,115.4,162.6,115.4,166.8z"/>
		</g>
		<g>
			<path class="st5" d="M121.1,178.3h-18.6v-0.4c0-1.1,0.5-2.1,1.4-2.7c2.4-1.7,4-4.4,4.3-7.4c0-0.3,0.1-0.7,0.1-1.1
				c0-3.9-2.1-7.4-5.5-9.2l-0.2-0.1V153H115l-0.1,0.1l0.1-0.1h6.5v4.4l-0.2,0.1c-3.4,1.8-5.5,5.3-5.5,9.2c0,0.3,0,0.6,0,0.9
				c0.3,3,1.8,5.8,4.3,7.5c0.9,0.7,1.4,1.6,1.4,2.7v0.4L121.1,178.3z M103.3,177.5h17.4c-0.1-0.7-0.5-1.3-1.1-1.7
				c-2.6-1.9-4.3-4.9-4.6-8.1c0-0.3,0-0.6,0-1c0-4.1,2.2-7.8,5.7-9.7v-3.2h-5.3c-0.6,0.9-1.1,1.9-1.4,2.9l-1,3.2l0.2-3.4
				c0-0.3,0.1-0.7,0.2-1.1c0.1-0.6,0.3-1.1,0.4-1.6h-10.6v3.2c3.5,2,5.7,5.7,5.7,9.7c0,0.4,0,0.8-0.1,1.1c-0.3,3.1-2,6-4.6,7.9
				C103.8,176.2,103.4,176.9,103.3,177.5z"/>
		</g>
		<g>
			<path class="st4" d="M133.6,159.9c0,5.9-4.8,10.8-10.8,10.8c-2.9,0-5.5-1.1-7.4-3c-1.5-1.4-2.6-3.3-3.1-5.4
				c-0.2-0.8-0.3-1.6-0.3-2.4c0,0.8-0.1,1.6-0.3,2.4c-0.5,2.2-1.7,4.1-3.3,5.6c-1.9,1.7-4.5,2.8-7.2,2.8c-6,0-10.8-4.8-10.8-10.8
				s4.8-10.8,10.8-10.8c0.2,0,0.4,0,0.6,0c-0.5-1.4-0.7-2.9-0.5-4.5c0.4-4.9,4.3-9,9.2-9.6c6.6-0.9,12.3,4.2,12.3,10.7l0,0
				c0,0.7-0.5,1.3-1.2,1.5c-3.2,0.8-5.9,3.2-7.2,6.3c-0.3,0.6-0.5,1.3-0.6,2.1c-0.1,0.4-0.1,0.7-0.1,1.1c0.3-1.2,0.9-2.2,1.6-3.2
				c1.8-2.5,4.7-4.3,7.8-4.3c2.8-0.1,5.6,1.3,7.6,3.3C132.6,154.4,133.6,157.1,133.6,159.9z"/>
		</g>
		<g>
			<path class="st5" d="M122.9,171c-2.9,0-5.6-1.1-7.7-3.1c-1.5-1.4-2.6-3.2-3.1-5.2c-0.5,2.1-1.7,3.9-3.3,5.4
				c-2.1,1.9-4.7,2.9-7.5,2.9c-6.2,0-11.2-5-11.2-11.1c0-6.2,5-11.2,11.2-11.2c0,0,0,0,0.1,0c-0.4-1.3-0.5-2.7-0.4-4.1
				c0.5-5.1,4.5-9.3,9.5-10c3.2-0.4,6.5,0.5,8.9,2.6s3.8,5.2,3.8,8.4c0,0.9-0.6,1.6-1.5,1.9c-3,0.8-5.5,2.9-6.8,5.7
				c2-2.7,5-4.3,8-4.4c2.8-0.1,5.7,1.2,7.9,3.4c2,2.1,3.1,4.9,3.1,7.8C134,166,129,171,122.9,171z M112.5,159.9
				c0,0.8,0.1,1.6,0.3,2.3c0.5,2,1.5,3.8,3,5.2c1.9,1.8,4.5,2.9,7.2,2.9c5.7,0,10.4-4.7,10.4-10.4c0-2.7-1.1-5.3-2.9-7.2
				c-2-2-4.7-3.2-7.3-3.1c-2.8,0.1-5.7,1.7-7.5,4.2c-0.7,0.9-1.2,1.9-1.5,3.1l-1,3.2l0.2-3.4c0-0.3,0.1-0.7,0.2-1.1
				c0.1-0.7,0.4-1.5,0.6-2.1c1.3-3.2,4.1-5.7,7.5-6.5c0.5-0.1,0.9-0.6,0.9-1.1c0-3-1.3-5.9-3.6-7.8c-2.3-2-5.3-2.9-8.3-2.5
				c-4.7,0.6-8.4,4.6-8.9,9.3c-0.1,1.5,0,3,0.5,4.3l0.2,0.5h-0.6c-0.2,0-0.4,0-0.6,0c-5.7,0-10.4,4.7-10.4,10.4s4.7,10.4,10.4,10.4
				c2.6,0,5.1-1,7-2.7c1.6-1.5,2.7-3.3,3.1-5.4c0.2-0.7,0.3-1.5,0.3-2.3h0.8V159.9z"/>
		</g>
	</g>
	<g>
		<g>
			<path class="st4" d="M146.2,243.1c0-0.3,0-0.6,0-0.9c-0.3-3.2-2-6-4.4-7.8c-0.8-0.6-1.3-1.4-1.3-2.4l0,0h18.3l0,0
				c0,1-0.5,1.8-1.3,2.4c-2.4,1.8-4.1,4.5-4.4,7.6c0,0.4-0.1,0.7-0.1,1.1c0,4.1,2.3,7.7,5.7,9.5v3.8h-11.6c0.3-0.6,0.5-1.3,0.6-2.1
				c0.1-0.4,0.1-0.7,0.1-1.1c-0.3,1.2-0.9,2.2-1.6,3.2h-5.9v-3.8C143.9,250.8,146.2,247.2,146.2,243.1z"/>
		</g>
		<g>
			<path class="st5" d="M140.5,231.6h18.6v0.4c0,1.1-0.5,2.1-1.4,2.7c-2.4,1.7-4,4.4-4.3,7.4c0,0.3-0.1,0.7-0.1,1.1
				c0,3.9,2.1,7.4,5.5,9.2l0.2,0.1v4.4h-12.5l0.1-0.1l-0.1,0.1H140v-4.4l0.2-0.1c3.4-1.8,5.5-5.3,5.5-9.2c0-0.3,0-0.6,0-0.9
				c-0.3-3-1.8-5.8-4.3-7.5c-0.9-0.7-1.4-1.6-1.4-2.7v-0.4L140.5,231.6z M158.3,232.3h-17.4c0.1,0.7,0.5,1.3,1.1,1.7
				c2.6,1.9,4.3,4.9,4.6,8.1c0,0.3,0,0.6,0,1c0,4.1-2.2,7.8-5.7,9.7v3.2h5.3c0.6-0.9,1.1-1.9,1.4-2.9l1-3.2l-0.2,3.4
				c0,0.3-0.1,0.7-0.2,1.1c-0.1,0.6-0.3,1.1-0.4,1.6h10.6v-3.2c-3.5-2-5.7-5.7-5.7-9.7c0-0.4,0-0.8,0.1-1.1c0.3-3.1,2-6,4.6-7.9
				C157.9,233.6,158.2,233,158.3,232.3z"/>
		</g>
		<g>
			<path class="st4" d="M128,250c0-5.9,4.8-10.8,10.8-10.8c2.9,0,5.5,1.1,7.4,3c1.5,1.4,2.6,3.3,3.1,5.4c0.2,0.8,0.3,1.6,0.3,2.4
				c0-0.8,0.1-1.6,0.3-2.4c0.5-2.2,1.7-4.1,3.3-5.6c1.9-1.7,4.5-2.8,7.2-2.8c6,0,10.8,4.8,10.8,10.8s-4.8,10.8-10.8,10.8
				c-0.2,0-0.4,0-0.6,0c0.5,1.4,0.7,2.9,0.5,4.5c-0.4,4.9-4.3,9-9.2,9.6c-6.6,0.9-12.3-4.2-12.3-10.7l0,0c0-0.7,0.5-1.3,1.2-1.5
				c3.2-0.8,5.9-3.2,7.2-6.3c0.3-0.6,0.5-1.3,0.6-2.1c0.1-0.4,0.1-0.7,0.1-1.1c-0.3,1.2-0.9,2.2-1.6,3.2c-1.8,2.5-4.7,4.3-7.8,4.3
				c-2.8,0.1-5.6-1.3-7.6-3.3C129.1,255.5,128,252.7,128,250z"/>
		</g>
		<g>
			<path class="st5" d="M138.8,238.8c2.9,0,5.6,1.1,7.7,3.1c1.5,1.4,2.6,3.2,3.1,5.2c0.5-2.1,1.7-3.9,3.3-5.4
				c2.1-1.9,4.7-2.9,7.5-2.9c6.2,0,11.2,5,11.2,11.1c0,6.2-5,11.2-11.2,11.2c0,0,0,0-0.1,0c0.4,1.3,0.5,2.7,0.4,4.1
				c-0.5,5.1-4.5,9.3-9.5,10c-3.2,0.4-6.5-0.5-8.9-2.6s-3.8-5.2-3.8-8.4c0-0.9,0.6-1.6,1.5-1.9c3-0.8,5.5-2.9,6.8-5.7
				c-2,2.7-5,4.3-8,4.4c-2.8,0.1-5.7-1.2-7.9-3.4c-2-2.1-3.1-4.9-3.1-7.8C127.6,243.8,132.6,238.8,138.8,238.8z M149.2,250
				c0-0.8-0.1-1.6-0.3-2.3c-0.5-2-1.5-3.8-3-5.2c-1.9-1.8-4.5-2.9-7.2-2.9c-5.7,0-10.4,4.7-10.4,10.4c0,2.7,1.1,5.3,2.9,7.2
				c2,2,4.7,3.2,7.3,3.1c2.8-0.1,5.7-1.7,7.5-4.2c0.7-0.9,1.2-1.9,1.5-3.1l1-3.2l-0.2,3.4c0,0.3-0.1,0.7-0.2,1.1
				c-0.1,0.7-0.4,1.5-0.6,2.1c-1.3,3.2-4.1,5.7-7.5,6.5c-0.5,0.1-0.9,0.6-0.9,1.1c0,3,1.3,5.9,3.6,7.8c2.3,2,5.3,2.9,8.3,2.5
				c4.7-0.6,8.4-4.6,8.9-9.3c0.1-1.5,0-3-0.5-4.3l-0.2-0.5h0.6c0.2,0,0.4,0,0.6,0c5.7,0,10.4-4.7,10.4-10.4s-4.7-10.4-10.4-10.4
				c-2.6,0-5.1,1-7,2.7c-1.6,1.5-2.7,3.3-3.1,5.4c-0.2,0.7-0.3,1.5-0.3,2.3h-0.8V250z"/>
		</g>
	</g>
	<g>
		<g>
			<path class="st4" d="M71.4,243.1c0-0.3,0-0.6,0-0.9c-0.3-3.2-2-6-4.4-7.8c-0.8-0.6-1.3-1.4-1.3-2.4l0,0H84l0,0
				c0,1-0.5,1.8-1.3,2.4c-2.4,1.8-4.1,4.5-4.4,7.6c0,0.4-0.1,0.7-0.1,1.1c0,4.1,2.3,7.7,5.7,9.5v3.8H72.3c0.3-0.6,0.5-1.3,0.6-2.1
				c0.1-0.4,0.1-0.7,0.1-1.1c-0.3,1.2-0.9,2.2-1.6,3.2h-5.9v-3.8C69,250.8,71.4,247.2,71.4,243.1z"/>
		</g>
		<g>
			<path class="st5" d="M65.6,231.6h18.6v0.4c0,1.1-0.5,2.1-1.4,2.7c-2.4,1.7-4,4.4-4.3,7.4c0,0.3-0.1,0.7-0.1,1.1
				c0,3.9,2.1,7.4,5.5,9.2l0.2,0.1v4.4H71.7l0.1-0.1l-0.1,0.1h-6.5v-4.4l0.2-0.1c3.4-1.8,5.5-5.3,5.5-9.2c0-0.3,0-0.6,0-0.9
				c-0.3-3-1.8-5.8-4.3-7.5c-0.9-0.7-1.4-1.6-1.4-2.7v-0.4L65.6,231.6z M83.5,232.3H66c0.1,0.7,0.5,1.3,1.1,1.7
				c2.6,1.9,4.3,4.9,4.6,8.1c0,0.3,0,0.6,0,1c0,4.1-2.2,7.8-5.7,9.7v3.2h5.3c0.6-0.9,1.1-1.9,1.4-2.9l1-3.2l-0.2,3.4
				c0,0.3-0.1,0.7-0.2,1.1c-0.1,0.6-0.3,1.1-0.4,1.6h10.6v-3.2c-3.5-2-5.7-5.7-5.7-9.7c0-0.4,0-0.8,0.1-1.1c0.3-3.1,2-6,4.6-7.9
				C83,233.6,83.4,233,83.5,232.3z"/>
		</g>
		<g>
			<path class="st4" d="M53.1,250c0-5.9,4.8-10.8,10.8-10.8c2.9,0,5.5,1.1,7.4,3c1.5,1.4,2.6,3.3,3.1,5.4c0.2,0.8,0.3,1.6,0.3,2.4
				c0-0.8,0.1-1.6,0.3-2.4c0.5-2.2,1.7-4.1,3.3-5.6c1.9-1.7,4.5-2.8,7.2-2.8c6,0,10.8,4.8,10.8,10.8s-4.8,10.8-10.8,10.8
				c-0.2,0-0.4,0-0.6,0c0.5,1.4,0.7,2.9,0.5,4.5c-0.4,4.9-4.3,9-9.2,9.6c-6.6,0.9-12.3-4.2-12.3-10.7l0,0c0-0.7,0.5-1.3,1.2-1.5
				c3.2-0.8,5.9-3.2,7.2-6.3c0.3-0.6,0.5-1.3,0.6-2.1c0.1-0.4,0.1-0.7,0.1-1.1c-0.3,1.2-0.9,2.2-1.6,3.2c-1.8,2.5-4.7,4.3-7.8,4.3
				c-2.8,0.1-5.6-1.3-7.6-3.3C54.2,255.5,53.1,252.7,53.1,250z"/>
		</g>
		<g>
			<path class="st5" d="M63.9,238.8c2.9,0,5.6,1.1,7.7,3.1c1.5,1.4,2.6,3.2,3.1,5.2c0.5-2.1,1.7-3.9,3.3-5.4
				c2.1-1.9,4.7-2.9,7.5-2.9c6.2,0,11.2,5,11.2,11.1c0,6.2-5,11.2-11.2,11.2c0,0,0,0-0.1,0c0.4,1.3,0.5,2.7,0.4,4.1
				c-0.5,5.1-4.5,9.3-9.5,10c-3.2,0.4-6.5-0.5-8.9-2.6s-3.8-5.2-3.8-8.4c0-0.9,0.6-1.6,1.5-1.9c3-0.8,5.5-2.9,6.8-5.7
				c-2,2.7-5,4.3-8,4.4c-2.8,0.1-5.7-1.2-7.9-3.4c-2-2.1-3.1-4.9-3.1-7.8C52.7,243.8,57.7,238.8,63.9,238.8z M74.3,250
				c0-0.8-0.1-1.6-0.3-2.3c-0.5-2-1.5-3.8-3-5.2c-1.9-1.8-4.5-2.9-7.2-2.9c-5.7,0-10.4,4.7-10.4,10.4c0,2.7,1.1,5.3,2.9,7.2
				c2,2,4.7,3.2,7.3,3.1c2.8-0.1,5.7-1.7,7.5-4.2c0.7-0.9,1.2-1.9,1.5-3.1l1-3.2l-0.2,3.4c0,0.3-0.1,0.7-0.2,1.1
				c-0.1,0.7-0.4,1.5-0.6,2.1c-1.3,3.2-4.1,5.7-7.5,6.5c-0.5,0.1-0.9,0.6-0.9,1.1c0,3,1.3,5.9,3.6,7.8c2.3,2,5.3,2.9,8.3,2.5
				c4.7-0.6,8.4-4.6,8.9-9.3c0.1-1.5,0-3-0.5-4.3l-0.2-0.5h0.6c0.2,0,0.4,0,0.6,0c5.7,0,10.4-4.7,10.4-10.4s-4.7-10.4-10.4-10.4
				c-2.6,0-5.1,1-7,2.7c-1.6,1.5-2.7,3.3-3.1,5.4c-0.2,0.7-0.3,1.5-0.3,2.3h-0.8V250z"/>
		</g>
	</g>
</g>
</svg>
