<?xml version="1.0" encoding="utf-8"?>
<!-- Generator: Adobe Illustrator 25.2.0, SVG Export Plug-In . SVG Version: 6.00 Build 0)  -->
<svg version="1.1" id="Layer_1" xmlns="http://www.w3.org/2000/svg" xmlns:xlink="http://www.w3.org/1999/xlink" x="0px" y="0px"
	 viewBox="0 0 224.2 312.8" style="enable-background:new 0 0 224.2 312.8;" xml:space="preserve">
<style type="text/css">
	.st0{fill:#B20033;}
	.st1{fill:#050307;}
	.st2{opacity:2.000000e-02;enable-background:new    ;}
	.st3{enable-background:new    ;}
	.st4{fill:none;stroke:#000000;stroke-miterlimit:10;}
	.st5{opacity:5.000000e-02;enable-background:new    ;}
</style>
<g>
	<g>
		<g>
			<g>
				<path d="M128.1,89.5h-19.4c-1,0-1.9-0.7-2.2-1.8l-2-8.7c-0.1-0.6-0.6-1-1.2-1H92.1c-0.9,0-1.6-0.5-2-1.3
					c-0.4-0.8-0.3-1.6,0.2-2.3l13.5-18.6c0.5-0.7,1.2-1,1.7-0.9l26.2-0.7c1.3,0,2.3,1,2.3,2.3v6.4c0,1.3-1,2.3-2.3,2.3h-6.9
					c-0.4,0-0.8,0.2-1,0.5c-0.2,0.3-0.3,0.7-0.3,1.1L128.1,89.5z M104.6,56.4L91.1,75c-0.3,0.4-0.3,0.9-0.1,1.3
					c0.2,0.4,0.6,0.7,1.1,0.7h11.2c1.1,0,2.1,0.8,2.2,1.8l2,8.6c0.1,0.6,0.7,1,1.2,1h18.2l-4.3-21.6c-0.1-0.7,0.1-1.4,0.5-1.9
					c0.4-0.5,1.1-0.8,1.8-0.8h6.9c0.7,0,1.3-0.6,1.3-1.3v-6.4c0-0.7-0.6-1.3-1.3-1.3l-26.4,0.7l-0.1,0
					C105.3,55.9,104.9,56,104.6,56.4z"/>
			</g>
			<g>
				<path d="M133,45.1l-2.7,7.6c0,0.1-0.1,0.2-0.2,0.2l-23.3,0.6c-0.1,0-0.2-0.1-0.2-0.1l-3.1-7.5c-0.1-0.2,0.2-0.4,0.4-0.3l5.2,3.5
					c0.1,0.1,0.2,0.1,0.3,0l7.6-5.4c0.8-0.5,1.8-0.6,2.6-0.1l7.8,5c0.1,0.1,0.2,0,0.3,0l5-3.8C132.8,44.7,133.1,44.9,133,45.1z"/>
			</g>
			<g>
				<circle cx="118.2" cy="40.8" r="1.1"/>
			</g>
			<g>
				<path d="M108,89.5H95c-1,0-1.8-0.4-2.4-1.2c-0.6-0.8-0.8-1.7-0.6-2.6l2.9-12.6v4h10.2L108,89.5z M94.8,78.1L93,85.9
					c-0.2,0.6,0,1.3,0.4,1.8c0.4,0.5,1,0.8,1.6,0.8h11.8l-2.5-10.4H94.8z"/>
			</g>
			<g>
				<polygon points="105.5,137.1 82.7,137.1 82.7,136.1 105.1,136.1 140.9,99.2 154.3,108.5 153.7,109.3 141.1,100.6 				"/>
			</g>
			<g>
				<polygon points="140.8,89 127.6,89 122.8,64.7 126.4,64.7 125.7,64.8 131.7,88.7 133.3,88.7 127.2,64.7 130.2,64.7 129.5,64.9 
					136.5,88.7 138,88.7 131,64.7 133.7,64.7 				"/>
			</g>
			<g>
				<path class="st0" d="M140.8,89h7.1c1,0,1.6,1.2,0.8,2l-44.1,45.1h-22L131.8,89H140.8z"/>
			</g>
			<g>
				<g>
					<path d="M129.3,90l-36.9,35.4c-0.1-1.5-0.3-3.6-0.4-5.4c-0.4-5.4-0.6-7.5-0.7-8.3c0.4-1.7,5.5-13.8,8.9-21.6L129.3,90
						 M131.8,89H99.5c0,0-9.5,21.9-9.2,22.7c0.3,0.8,1.1,15.8,1.3,15.8l0,0C91.9,127.3,131.8,89,131.8,89L131.8,89z"/>
				</g>
			</g>
			<g>
				<g>
					<path class="st0" d="M89.5,113.4l1,12.1l-6.1,6.4l-0.1-15.4L89.5,113.4 M90.3,111.7l-7,4.3l0.1,18.4l8.1-8.6L90.3,111.7
						L90.3,111.7z"/>
				</g>
			</g>
			<g>
				<path d="M83.2,144.7H72V90.9c0-6.9,2.6-13.4,7.4-18.3l3.8-3.8V144.7z M73,143.7h9.2V71.2l-2,2C75.5,78,73,84.2,73,90.9V143.7z"
					/>
			</g>
			<g>
				<rect x="70" y="144.2" width="15.2" height="1.6"/>
			</g>
			<g>
				<rect x="77.1" y="90.4" width="1" height="51.8"/>
			</g>
			<g>
				<path d="M93.3,85c-0.2,0-0.5-0.2-0.5-0.4c0-0.3,0.1-0.5,0.4-0.6l5.5-0.9c0.3,0,0.5,0.1,0.6,0.4c0,0.3-0.1,0.5-0.4,0.6L93.3,85
					C93.4,85,93.3,85,93.3,85z"/>
			</g>
			<g>
				<g>
					<polygon points="131,64.7 130.2,64.7 130.9,64.4 					"/>
				</g>
			</g>
			<g>
				<g>
					<polygon points="127.2,64.7 126.4,64.7 127.2,64.5 					"/>
				</g>
			</g>
			<g>
				<path d="M92.1,117.9l-0.9-0.5C108,88.5,108.6,88.5,109,88.5V89l0.3,0.4C108.3,90.3,98.5,106.9,92.1,117.9z"/>
			</g>
			<g>
				<rect x="84.5" y="105.7" transform="matrix(0.6434 -0.7655 0.7655 0.6434 -43.5513 118.7996)" width="42.4" height="1"/>
			</g>
			<g>
				<g>
					<path class="st0" d="M149.7,91.4v12.3l-7.2-5L149.7,91.4 M149.7,90.4c-0.2,0-0.5,0.1-0.7,0.3l-8,8.2l9.7,6.7V91.4
						C150.7,90.8,150.2,90.4,149.7,90.4L149.7,90.4z"/>
				</g>
			</g>
			<g>
				<rect x="80.4" y="130.3" transform="matrix(0.6787 -0.7344 0.7344 0.6787 -67.9674 106.3346)" width="14.3" height="1"/>
			</g>
			<g>
				<rect x="83.4" y="139" width="18.9" height="1"/>
			</g>
			<g>
				<rect x="83.4" y="141.9" width="11.6" height="1"/>
			</g>
			<g>
				<g>
					<path class="st0" d="M158.6,135.3c0,0.2,0,0.4,0,0.6c0,0.1,0,0.2,0,0.3s-0.1,0.3-0.1,0.4c0,0.1-0.1,0.2-0.1,0.3
						c-0.1,0.3-0.2,0.5-0.4,0.7c-0.1,0.2-0.3,0.3-0.4,0.5l0,0l-4.3,4.3l-3.5,3.5l-0.9,0.9h-0.2c-1.9-0.1-3.8-0.9-5.3-2.1
						c-0.8-0.7-1.5-1.4-2.1-2.3c-0.3-0.5-0.6-1-0.9-1.6c-0.2-0.5-0.2-0.4-0.4-1c0,0.4,0,0.7,0.1,1.1c0.1,0.7,0.2,0.8,0.5,1.5
						c0.7,1.8,1.8,3.4,3.2,4.5c0.9,0.8,2,1.5,3.1,2l-5.1,5.1c-0.2,0.2-0.5,0.4-0.7,0.6c-0.2,0.1-0.4,0.2-0.6,0.3
						c-0.8,0.3-1.7,0.4-2.6,0.1c-0.4-0.1-0.7-0.3-1-0.5c-0.2-0.1-0.4-0.3-0.6-0.5l-15.9-15.9l0,0c-0.1-0.1-0.2-0.2-0.3-0.3
						c-0.4-0.5-0.7-1.1-0.8-1.7V136c0-0.3-0.1-0.5,0-0.8c0-0.1,0-0.3,0-0.4c0-0.1,0-0.2,0-0.3c0-0.2,0.1-0.4,0.2-0.7
						c0-0.1,0.1-0.2,0.2-0.4s0.2-0.3,0.3-0.4c0.1-0.2,0.3-0.3,0.4-0.5l0,0l4.3-4.3l3.5-3.5l0.9-0.9h0.2c1.9,0.1,3.8,0.9,5.3,2.1
						c0.8,0.7,1.5,1.4,2.1,2.3c0.3,0.5,0.6,1,0.9,1.6c0.2,0.5,0.2,0.4,0.4,1c0-0.4,0-0.7-0.1-1.1c-0.1-0.7-0.2-0.8-0.5-1.5
						c-0.7-1.8-1.8-3.4-3.2-4.5c-0.9-0.8-2-1.5-3.1-2l5.1-5.1c0.5-0.5,1.1-0.8,1.7-1c0.2-0.1,0.4-0.1,0.6-0.1
						c1.1-0.1,2.3,0.2,3.2,1.1l0,0l15.9,15.9l0,0c0.1,0.1,0.2,0.2,0.3,0.3c0.3,0.3,0.5,0.6,0.6,1c0.1,0.2,0.2,0.5,0.2,0.7
						c0,0.1,0,0.1,0,0.2C158.6,135,158.6,135.1,158.6,135.3z"/>
				</g>
				<g>
					<path class="st1" d="M138.8,155.5c-0.4,0-0.8-0.1-1.2-0.2c-0.4-0.1-0.8-0.3-1.1-0.5c-0.2-0.1-0.5-0.3-0.7-0.5l-16-16
						c-0.1-0.1-0.1-0.1-0.2-0.2c-0.4-0.5-0.7-1.1-0.9-1.8c0-0.1,0-0.1,0-0.2c-0.1-0.2-0.1-0.5,0-0.8c0-0.1,0-0.3,0-0.5l0.1-0.3
						c0.1-0.2,0.1-0.5,0.2-0.7c0.1-0.1,0.1-0.3,0.2-0.4c0.1-0.2,0.2-0.3,0.3-0.5c0.1-0.1,0.2-0.3,0.3-0.4l0,0l0.1-0.1l8.8-8.8h0.4
						c1.9,0.1,3.9,0.8,5.5,2.2c0.8,0.6,1.5,1.4,2.2,2.4c-0.7-1.6-1.7-2.9-3-4c-0.9-0.9-1.9-1.5-3-1.9l-0.5-0.2l5.5-5.5
						c0.5-0.5,1.2-0.9,1.9-1.1c0.2-0.1,0.4-0.1,0.7-0.1c1.2-0.1,2.4,0.3,3.4,1.1l0,0l0.1,0.1l16,16c0.1,0.1,0.1,0.1,0.2,0.2
						c0.3,0.3,0.5,0.7,0.7,1.1c0.1,0.2,0.2,0.5,0.2,0.7c0,0.1,0,0.2,0,0.3s0,0.3,0,0.5s0,0.4,0,0.7v0.1c0,0.1,0,0.1,0,0.2
						c0,0.2-0.1,0.3-0.1,0.5c0,0.1-0.1,0.2-0.1,0.3c-0.1,0.3-0.3,0.5-0.4,0.8c-0.1,0.1-0.2,0.3-0.4,0.4l0,0l-0.1,0.1l-8.8,8.8h-0.4
						c-1.9-0.1-3.9-0.8-5.5-2.2c-0.8-0.6-1.5-1.4-2.2-2.4c0.7,1.6,1.7,2.9,3,4c0.9,0.9,1.9,1.5,3,1.9l0.5,0.2l-5.5,5.5
						c-0.2,0.2-0.5,0.4-0.8,0.6c-0.2,0.1-0.4,0.2-0.6,0.3C139.9,155.4,139.4,155.5,138.8,155.5z M120.5,138l15.8,15.8
						c0.2,0.2,0.4,0.3,0.6,0.4c0.3,0.2,0.6,0.3,0.9,0.4c0.8,0.2,1.6,0.2,2.4-0.1c0.2-0.1,0.3-0.2,0.5-0.3c0.2-0.2,0.5-0.3,0.7-0.5
						l4.8-4.8c-0.9-0.4-1.9-1.1-2.7-1.8c-1.5-1.2-2.6-2.8-3.3-4.7l-0.1-0.3c-0.2-0.4-0.2-0.6-0.4-1.3c-0.1-0.3-0.1-0.6-0.1-0.8
						c0-0.1,0-0.2,0-0.3l-0.2-3.4l0.9,3.3c0.1,0.4,0.1,0.4,0.2,0.6c0,0.1,0.1,0.2,0.2,0.3c0.2,0.5,0.5,1,0.8,1.5
						c0.6,0.9,1.3,1.6,2,2.2c1.5,1.3,3.3,2,5.1,2h0.1l8.6-8.6c0.1-0.1,0.3-0.3,0.4-0.4c0.2-0.2,0.3-0.4,0.4-0.7
						c0-0.1,0.1-0.2,0.1-0.2c0-0.1,0.1-0.3,0.1-0.4v-0.3c0-0.2,0-0.4,0-0.5l0,0c0-0.2,0-0.3,0-0.4c0-0.1,0-0.1,0-0.2
						c0-0.2-0.1-0.4-0.2-0.6c-0.1-0.3-0.3-0.6-0.5-0.9c-0.1-0.1-0.2-0.2-0.2-0.3l-0.1-0.1l-16-15.6c-0.8-0.8-1.8-1.1-2.9-1
						c-0.2,0-0.4,0.1-0.5,0.1c-0.6,0.2-1.2,0.5-1.6,0.9l-4.8,4.8c0.9,0.4,1.9,1.1,2.7,1.8c1.5,1.2,2.6,2.8,3.3,4.7l0.1,0.3
						c0.2,0.4,0.2,0.6,0.4,1.3c0.1,0.3,0.1,0.6,0.1,0.8c0,0.1,0,0.2,0,0.3l0.2,3.4l-0.9-3.3c-0.1-0.4-0.1-0.4-0.2-0.6
						c0-0.1-0.1-0.2-0.2-0.3c-0.2-0.5-0.5-1-0.8-1.5c-0.6-0.9-1.3-1.6-2-2.2c-1.5-1.3-3.3-2-5.1-2H129l-8.6,8.6
						c-0.2,0.2-0.3,0.3-0.4,0.4c-0.1,0.1-0.2,0.3-0.3,0.4c-0.1,0.1-0.1,0.2-0.1,0.3c-0.1,0.2-0.1,0.4-0.2,0.6v0.3c0,0.1,0,0.2,0,0.4
						s0,0.5,0,0.7v0.1c0.1,0.6,0.4,1.1,0.7,1.5c0.1,0.1,0.2,0.2,0.2,0.3L120.5,138z"/>
				</g>
			</g>
			<g>
				<polygon points="154,162.7 130.7,162.7 104.9,137 105.7,136.2 131.1,161.7 154,161.7 				"/>
			</g>
		</g>
		<g>
			<g>
				<path d="M92.2,259.4c-1.3,0-2.3-1-2.3-2.3v-6.4c0-1.3,1-2.3,2.3-2.3h6.9c0.4,0,0.8-0.2,1-0.5c0.2-0.3,0.3-0.7,0.3-1l-4.5-22.8
					h19.5c1,0,1.9,0.7,2.2,1.8l2,8.7c0.1,0.6,0.6,1,1.2,1H132c0.9,0,1.6,0.5,2,1.3c0.4,0.8,0.3,1.6-0.2,2.3l-13.5,18.6
					c-0.5,0.6-1.1,0.9-1.8,0.9L92.2,259.4z M92.2,249.4c-0.7,0-1.3,0.6-1.3,1.3v6.4c0,0.7,0.6,1.3,1.3,1.3l26.3-0.7
					c0.4,0,0.7-0.2,1-0.5l13.5-18.6c0.3-0.4,0.3-0.9,0.1-1.3c-0.2-0.4-0.6-0.7-1.1-0.7h-11.2c-1.1,0-2.1-0.8-2.2-1.8l-2-8.7
					c-0.1-0.6-0.7-1-1.2-1H97.1l4.3,21.6c0.1,0.7-0.1,1.4-0.5,1.9c-0.4,0.5-1.1,0.8-1.8,0.8H92.2z"/>
			</g>
			<g>
				<path d="M91.1,268.4l2.7-7.6c0-0.1,0.1-0.2,0.2-0.2l23.3-0.6c0.1,0,0.2,0.1,0.2,0.1l3.1,7.5c0.1,0.2-0.2,0.4-0.4,0.3l-5.2-3.5
					c-0.1-0.1-0.2-0.1-0.3,0l-7.6,5.4c-0.8,0.5-1.8,0.6-2.6,0.1l-7.8-5c-0.1-0.1-0.2,0-0.3,0l-5,3.8C91.3,268.8,91,268.6,91.1,268.4
					z"/>
			</g>
			<g>
				<circle cx="105.9" cy="272.7" r="1.1"/>
			</g>
			<g>
				<path d="M129.2,240.4v-4H119l-2.9-12.4h13c0.9,0,1.8,0.4,2.4,1.2c0.6,0.8,0.8,1.7,0.6,2.6L129.2,240.4z M119.8,235.4h9.5
					l1.8-7.8c0.2-0.6,0-1.3-0.4-1.8c-0.4-0.5-1-0.8-1.6-0.8h-11.8L119.8,235.4z"/>
			</g>
			<g>
				<polygon points="83.2,214.4 69.8,205.1 70.4,204.3 83,213 118.6,176.4 141.4,176.4 141.4,177.4 119,177.4 				"/>
			</g>
			<g>
				<polygon points="83.3,224.6 96.5,224.6 101.2,248.9 97.7,248.9 98.4,248.7 92.4,224.8 90.8,224.9 96.9,248.9 93.9,248.9 
					94.6,248.7 87.6,224.8 86.1,224.8 93.1,248.9 90.4,248.9 				"/>
			</g>
			<g>
				<path class="st0" d="M83.3,224.6h-7.1c-1,0-1.6-1.2-0.8-2l44.1-45.1h22l-49.1,47.1H83.3z"/>
			</g>
			<g>
				<g>
					<path d="M131.6,188.2c0.1,1.5,0.3,3.6,0.4,5.4c0.4,5.4,0.6,7.5,0.7,8.3c-0.4,1.7-5.5,13.8-8.9,21.6h-29L131.6,188.2
						 M132.4,186.1L132.4,186.1c-0.2,0.2-40.1,38.5-40.1,38.5h32.3c0,0,9.5-21.9,9.2-22.7C133.5,201.1,132.6,186.1,132.4,186.1
						L132.4,186.1z"/>
				</g>
			</g>
			<g>
				<g>
					<path class="st0" d="M139.6,181.7l0.1,15.4l-5.1,3.1l-1-12.1L139.6,181.7 M140.6,179.2l-8.1,8.6l1.2,14.1l7-4.3L140.6,179.2
						L140.6,179.2z"/>
				</g>
			</g>
			<g>
				<path d="M140.9,244.8v-75.9h11.2v53.8c0,6.9-2.6,13.4-7.4,18.3L140.9,244.8z M141.9,169.9v72.5l2-2c4.6-4.7,7.2-11,7.2-17.6
					v-52.8H141.9z"/>
			</g>
			<g>
				<rect x="138.9" y="167.8" width="15.2" height="1.6"/>
			</g>
			<g>
				<rect x="146" y="171.3" width="1" height="51.9"/>
			</g>
			<g>
				<path d="M125.3,230.5c-0.2,0-0.5-0.2-0.5-0.4c0-0.3,0.1-0.5,0.4-0.6l5.5-0.9c0.3,0,0.5,0.1,0.6,0.4c0,0.3-0.1,0.5-0.4,0.6
					L125.3,230.5C125.4,230.5,125.3,230.5,125.3,230.5z"/>
			</g>
			<g>
				<g>
					<polygon points="93.1,248.9 93.9,248.9 93.2,249.1 					"/>
				</g>
			</g>
			<g>
				<g>
					<polygon points="96.9,248.9 97.7,248.9 96.9,249.1 					"/>
				</g>
			</g>
			<g>
				<path d="M115.1,225.1v-0.5l-0.3-0.4c1-0.8,10.8-17.5,17.1-28.4l0.9,0.5C116.1,225.1,115.5,225.1,115.1,225.1z"/>
			</g>
			<g>
				<rect x="97.1" y="207" transform="matrix(0.6429 -0.766 0.766 0.6429 -116.6354 164.7396)" width="42.4" height="1"/>
			</g>
			<g>
				<g>
					<path class="st0" d="M74.4,209.8l7.2,5l-7.2,7.4V209.8 M73.4,207.9v14.2c0,0.6,0.5,1,1,1c0.2,0,0.5-0.1,0.7-0.3l8-8.2
						L73.4,207.9L73.4,207.9z"/>
				</g>
			</g>
			<g>
				<rect x="129.4" y="182.2" transform="matrix(0.6853 -0.7283 0.7283 0.6853 -90.0965 156.9021)" width="14.3" height="1"/>
			</g>
			<g>
				<rect x="121.8" y="173.6" width="18.9" height="1"/>
			</g>
			<g>
				<rect x="129.1" y="170.7" width="11.6" height="1"/>
			</g>
			<g>
				<g>
					<path class="st0" d="M65.5,178.3c0-0.2,0-0.4,0-0.6c0-0.1,0-0.2,0-0.3s0.1-0.3,0.1-0.4c0-0.1,0.1-0.2,0.1-0.3
						c0.1-0.3,0.2-0.5,0.4-0.7c0.1-0.2,0.3-0.3,0.4-0.5l0,0l4.3-4.3l3.5-3.5l0.9-0.9h0.2c1.9,0.1,3.8,0.9,5.3,2.1
						c0.8,0.7,1.5,1.4,2.1,2.3c0.3,0.5,0.6,1,0.9,1.6c0.2,0.5,0.2,0.4,0.4,1c0-0.4,0-0.7-0.1-1.1c-0.1-0.7-0.2-0.8-0.5-1.5
						c-0.7-1.8-1.8-3.4-3.2-4.5c-0.9-0.8-2-1.5-3.1-2l5.1-5.1c0.2-0.2,0.5-0.4,0.7-0.6c0.2-0.1,0.4-0.2,0.6-0.3
						c0.8-0.3,1.7-0.4,2.6-0.1c0.4,0.1,0.7,0.3,1,0.5c0.2,0.1,0.4,0.3,0.6,0.5l15.9,15.9l0,0c0.1,0.1,0.2,0.2,0.3,0.3
						c0.4,0.5,0.7,1.1,0.8,1.7v0.1c0,0.3,0.1,0.5,0,0.8c0,0.1,0,0.3,0,0.4c0,0.1,0,0.2,0,0.3c0,0.2-0.1,0.4-0.2,0.7
						c0,0.1-0.1,0.2-0.2,0.4s-0.2,0.3-0.3,0.4c-0.1,0.2-0.3,0.3-0.4,0.5l0,0l-4.3,4.3l-3.5,3.5l-0.9,0.9h0c-1.9-0.1-3.8-0.9-5.3-2.1
						c-0.8-0.7-1.5-1.4-2.1-2.3c-0.3-0.5-0.6-1-0.9-1.6c-0.2-0.5-0.2-0.4-0.4-1c0,0.4,0,0.7,0.1,1.1c0.1,0.7,0.2,0.8,0.5,1.5
						c0.7,1.8,1.8,3.4,3.2,4.5c0.9,0.8,2,1.5,3.1,2l-5.1,5.1c-0.5,0.5-1.1,0.8-1.7,1c-0.2,0.1-0.4,0.1-0.6,0.1
						c-1.1,0.1-2.3-0.2-3.2-1.1l0,0l-15.9-15.9l0,0c-0.1-0.1-0.2-0.2-0.3-0.3c-0.3-0.3-0.5-0.6-0.6-1c-0.1-0.2-0.2-0.5-0.2-0.7
						c0-0.1,0-0.1,0-0.2C65.5,178.6,65.5,178.4,65.5,178.3z"/>
				</g>
				<g>
					<path class="st1" d="M85.3,158c0.4,0,0.8,0.1,1.2,0.2c0.4,0.1,0.8,0.3,1.1,0.5c0.2,0.1,0.5,0.3,0.7,0.5l16,16
						c0.1,0.1,0.1,0.1,0.2,0.2c0.4,0.5,0.7,1.1,0.9,1.8c0,0.1,0,0.1,0,0.2c0.1,0.2,0.1,0.5,0,0.8c0,0.1,0,0.3,0,0.5l-0.1,0.3
						c-0.1,0.2-0.1,0.5-0.2,0.7c-0.1,0.1-0.1,0.3-0.2,0.4c-0.1,0.2-0.2,0.3-0.3,0.5c-0.1,0.1-0.2,0.3-0.3,0.4l0,0l-0.1,0.1l-8.8,8.8
						H95c-1.9-0.1-3.9-0.8-5.5-2.2c-0.8-0.6-1.5-1.4-2.2-2.4c0.7,1.6,1.7,2.9,3,4c0.9,0.9,1.9,1.5,3,1.9l0.5,0.2l-5.5,5.5
						c-0.5,0.5-1.2,0.9-1.9,1.1c-0.2,0.1-0.4,0.1-0.7,0.1c-1.2,0.1-2.4-0.3-3.4-1.1l0,0l-0.1-0.1l-16-16c-0.1-0.1-0.1-0.1-0.2-0.2
						c-0.3-0.3-0.5-0.7-0.7-1.1c-0.1-0.2-0.2-0.5-0.2-0.7c0-0.1,0-0.2,0-0.3s0-0.3,0-0.5s0-0.4,0-0.7v-0.1c0-0.1,0-0.1,0-0.2
						c0-0.2,0.1-0.3,0.1-0.5c0-0.1,0.1-0.2,0.1-0.3c0.1-0.3,0.3-0.5,0.4-0.8c0.1-0.1,0.2-0.3,0.4-0.4l0,0l0.1-0.1l8.8-8.8h0.4
						c1.9,0.1,3.9,0.8,5.5,2.2c0.8,0.6,1.5,1.4,2.2,2.4c-0.7-1.6-1.7-2.9-3-4c-0.9-0.9-1.9-1.5-3-1.9l-0.5-0.2l5.5-5.5
						c0.2-0.2,0.5-0.4,0.8-0.6c0.2-0.1,0.4-0.2,0.6-0.3C84.2,158.1,84.7,158,85.3,158z M103.6,175.6l-15.8-15.8
						c-0.2-0.2-0.4-0.3-0.6-0.4c-0.3-0.2-0.6-0.3-0.9-0.4c-0.8-0.2-1.6-0.2-2.4,0.1c-0.2,0.1-0.3,0.2-0.5,0.3
						c-0.2,0.2-0.5,0.3-0.7,0.5l-4.8,4.8c0.9,0.4,1.9,1.1,2.7,1.8c1.5,1.2,2.6,2.8,3.3,4.7l0.1,0.3c0.2,0.4,0.2,0.6,0.4,1.3
						c0.1,0.3,0.1,0.6,0.1,0.8c0,0.1,0,0.2,0,0.3l0.2,3.4l-0.9-3.3c-0.1-0.4-0.1-0.4-0.2-0.6c0-0.1-0.1-0.2-0.2-0.3
						c-0.2-0.5-0.5-1-0.8-1.5c-0.6-0.9-1.3-1.6-2-2.2c-1.5-1.3-3.3-2-5.1-2h-0.1l-8.6,8.6c-0.1,0.1-0.3,0.3-0.4,0.4
						c-0.2,0.2-0.3,0.4-0.4,0.7c0,0.1-0.1,0.2-0.1,0.2c0,0.1-0.1,0.3-0.1,0.4v0.3c0,0.2,0,0.4,0,0.5l0,0c0,0.2,0,0.3,0,0.4
						c0,0.1,0,0.1,0,0.2c0,0.2,0.1,0.4,0.2,0.6c0.1,0.3,0.3,0.6,0.5,0.9c0.1,0.1,0.2,0.2,0.2,0.3l0.1,0.1l15.8,15.8
						c0.8,0.8,1.8,1.1,2.9,1c0.2,0,0.4-0.1,0.5-0.1c0.6-0.2,1.2-0.5,1.6-0.9l4.8-4.8c-0.9-0.4-1.9-1.1-2.7-1.8
						c-1.5-1.2-2.6-2.8-3.3-4.7l-0.1-0.3c-0.2-0.4-0.2-0.6-0.4-1.3c-0.1-0.3-0.1-0.6-0.1-0.8c0-0.1,0-0.2,0-0.3l-0.2-3.4l0.9,3.3
						c0.1,0.4,0.1,0.4,0.2,0.6c0,0.1,0.1,0.2,0.2,0.3c0.2,0.5,0.5,1,0.8,1.5c0.6,0.9,1.3,1.6,2,2.2c1.5,1.3,3.3,2,5.1,2h0.1l8.6-8.6
						c0.2-0.2,0.3-0.3,0.4-0.4c0.1-0.1,0.2-0.3,0.3-0.4c0.1-0.1,0.1-0.2,0.1-0.3c0.1-0.2,0.1-0.4,0.2-0.6v-0.3c0-0.1,0-0.2,0-0.4
						s0-0.5,0-0.7v-0.1c-0.1-0.6-0.4-1.1-0.7-1.5c-0.1-0.1-0.2-0.2-0.2-0.3V175.6z"/>
				</g>
			</g>
			<g>
				<polygon points="118.4,177.3 93,151.8 70.1,151.8 70.1,150.8 93.4,150.8 119.2,176.5 				"/>
			</g>
		</g>
	</g>
	<g>
		<g class="st2">
			<rect x="-0.2" y="0.7" width="224.4" height="312.1"/>
		</g>
		<g>
			<g>
				<g>
					<g>
						<path class="st0" d="M185.9,267.9c0-0.2,0-0.3,0-0.5c0-0.1,0-0.1,0-0.2s0.1-0.2,0.1-0.3c0-0.1,0.1-0.2,0.1-0.2
							c0.1-0.2,0.2-0.4,0.3-0.6c0.1-0.1,0.2-0.3,0.3-0.4l0,0l3.4-3.3l2.8-2.8l0.7-0.7h0.2c1.5,0,3,0.7,4.1,1.7
							c0.6,0.5,1.2,1.1,1.7,1.8c0.3,0.4,0.5,0.8,0.7,1.3c0.2,0.4,0.2,0.3,0.3,0.8c0-0.3,0-0.6-0.1-0.9c-0.1-0.6-0.2-0.7-0.4-1.2
							c-0.5-1.4-1.4-2.6-2.5-3.5c-0.7-0.7-1.5-1.2-2.4-1.5l4-4c0.2-0.2,0.4-0.3,0.6-0.5c0.1-0.1,0.3-0.2,0.4-0.2
							c0.6-0.3,1.4-0.3,2-0.1c0.3,0.1,0.6,0.2,0.8,0.4c0.2,0.1,0.3,0.2,0.5,0.4l12.5,12.5l0,0c0.1,0.1,0.1,0.2,0.2,0.2
							c0.3,0.4,0.5,0.9,0.6,1.3v0.1c0,0.2,0.1,0.4,0,0.6c0,0.1,0,0.2,0,0.3c0,0.1,0,0.1,0,0.2c0,0.2-0.1,0.3-0.2,0.5
							c0,0.1-0.1,0.2-0.1,0.3c-0.1,0.1-0.1,0.2-0.2,0.3c-0.1,0.1-0.2,0.3-0.3,0.4l0,0l-3.4,3.3l-2.8,2.8l-0.7,0.7h-0.2
							c-1.5,0-3-0.7-4.1-1.7c-0.6-0.5-1.2-1.1-1.7-1.8c-0.3-0.4-0.5-0.8-0.7-1.3c-0.2-0.4-0.2-0.3-0.3-0.8c0,0.3,0,0.6,0.1,0.9
							c0.1,0.6,0.2,0.7,0.4,1.2c0.5,1.4,1.4,2.6,2.5,3.5c0.7,0.7,1.5,1.2,2.4,1.5l-4,4c-0.4,0.4-0.9,0.7-1.4,0.8
							c-0.2,0-0.3,0.1-0.5,0.1c-0.9,0.1-1.8-0.2-2.5-0.9l0,0l-12.5-12.5l0,0c-0.1-0.1-0.1-0.2-0.2-0.2c-0.2-0.2-0.4-0.5-0.5-0.8
							c-0.1-0.2-0.1-0.4-0.2-0.6v-0.1C185.9,268.2,185.9,268.1,185.9,267.9z"/>
					</g>
					<g>
						<path class="st1" d="M201.4,252c0.3,0,0.6,0,1,0.1c0.3,0.1,0.6,0.2,0.9,0.4c0.2,0.1,0.4,0.3,0.5,0.4l12.6,12.6
							c0.1,0.1,0.1,0.1,0.1,0.2c0.3,0.4,0.6,0.9,0.7,1.5c0,0.1,0,0.1,0,0.2c0,0.2,0.1,0.4,0,0.6c0,0.1,0,0.2,0,0.4v0.2
							c0,0.2-0.1,0.4-0.2,0.6c0,0.1-0.1,0.2-0.1,0.3c-0.1,0.1-0.1,0.2-0.2,0.4c-0.1,0.1-0.2,0.2-0.3,0.3l0,0l-0.1,0.1l-6.9,6.9h-0.3
							c-1.5,0-3-0.7-4.3-1.7c-0.6-0.5-1.2-1.1-1.7-1.9c0.5,1.2,1.3,2.3,2.3,3.2c0.7,0.7,1.5,1.2,2.3,1.5l0.4,0.2l-4.3,4.3
							c-0.4,0.4-0.9,0.7-1.5,0.9c-0.2,0.1-0.3,0.1-0.5,0.1c-1,0.1-1.9-0.2-2.6-0.9l0,0l-0.1-0.1l-12.6-12.6
							c-0.1-0.1-0.1-0.1-0.1-0.2c-0.2-0.3-0.4-0.6-0.5-0.9c-0.1-0.2-0.1-0.4-0.2-0.6c0-0.1,0-0.2,0-0.2c0-0.1,0-0.2,0-0.4
							c0-0.2,0-0.3,0-0.5v-0.1v-0.1c0-0.1,0.1-0.2,0.1-0.4c0-0.1,0.1-0.2,0.1-0.2c0.1-0.2,0.2-0.4,0.4-0.6c0.1-0.1,0.2-0.2,0.3-0.3
							l0,0l0.1-0.1l6.9-6.9h0.3c1.5,0,3,0.7,4.3,1.7c0.6,0.5,1.2,1.1,1.7,1.9c-0.5-1.2-1.3-2.3-2.3-3.2c-0.7-0.7-1.5-1.2-2.3-1.5
							l-0.4-0.2l4.3-4.4c0.2-0.2,0.4-0.3,0.6-0.5c0.2-0.1,0.3-0.2,0.5-0.2C200.6,252.1,201,252,201.4,252z M215.8,265.8l-12.4-12.4
							c-0.1-0.1-0.3-0.3-0.4-0.4c-0.2-0.2-0.5-0.3-0.7-0.3c-0.6-0.2-1.3-0.2-1.8,0.1c-0.1,0.1-0.3,0.1-0.4,0.2
							c-0.2,0.1-0.4,0.3-0.5,0.4l-3.8,3.8c0.7,0.3,1.5,0.8,2.1,1.4c1.2,1,2.1,2.2,2.6,3.7l0.1,0.2c0.1,0.3,0.2,0.5,0.3,1
							c0,0.2,0,0.4,0,0.6c0,0.1,0,0.2,0,0.3l0.1,2.6l-0.7-2.6c-0.1-0.3-0.1-0.3-0.2-0.5c0-0.1-0.1-0.1-0.1-0.2
							c-0.2-0.4-0.4-0.8-0.7-1.2c-0.5-0.7-1-1.3-1.6-1.8c-1.2-1-2.6-1.6-4-1.6l0,0l-6.8,6.8c-0.1,0.1-0.2,0.2-0.3,0.3
							c-0.1,0.2-0.2,0.4-0.3,0.5c0,0.1-0.1,0.1-0.1,0.2s-0.1,0.2-0.1,0.3v0.2c0,0.1,0,0.3,0,0.4l0,0c0,0.1,0,0.2,0,0.3
							c0,0.1,0,0.1,0,0.1c0,0.2,0.1,0.3,0.2,0.5c0.1,0.2,0.2,0.5,0.4,0.7c0.1,0.1,0.1,0.1,0.2,0.2l0.1,0.1l12.4,12.4
							c0.6,0.6,1.4,0.9,2.3,0.8c0.1,0,0.3,0,0.4-0.1c0.5-0.1,0.9-0.4,1.2-0.7l3.7-3.7c-0.7-0.3-1.5-0.8-2.1-1.4
							c-1.2-1-2.1-2.2-2.6-3.7l-0.1-0.2c-0.1-0.3-0.2-0.5-0.3-1c0-0.2,0-0.4,0-0.6c0-0.1,0-0.2,0-0.3l-0.1-2.6l0.7,2.6
							c0.1,0.3,0.1,0.3,0.2,0.5c0,0.1,0.1,0.1,0.1,0.2c0.2,0.4,0.4,0.8,0.7,1.2c0.5,0.7,1,1.3,1.6,1.8c1.2,1,2.6,1.6,4,1.6l0,0
							l6.8-6.8c0.1-0.1,0.2-0.2,0.3-0.3c0.1-0.1,0.1-0.2,0.2-0.3c0.1-0.1,0.1-0.2,0.1-0.3c0.1-0.2,0.1-0.3,0.1-0.5v-0.2
							c0-0.1,0-0.2,0-0.3c0-0.2,0-0.4,0-0.6v-0.1c-0.1-0.5-0.3-0.9-0.6-1.2C216,266,216,266,215.8,265.8L215.8,265.8z"/>
					</g>
				</g>
				<g class="st3">
					<path d="M208,230.4v-9.9h2.3v21.8H208v-9.8h-2.8l-9.2,9.8h-2.9l10.3-10.7l-11-11.1h3l9.8,9.9H208z"/>
				</g>
				<g class="st3">
					<path class="st4" d="M208,230.4v-9.9h2.3v21.8H208v-9.8h-2.8l-9.2,9.8h-2.9l10.3-10.7l-11-11.1h3l9.8,9.9H208z"/>
				</g>
			</g>
			<g>
				<g>
					<g>
						<path class="st0" d="M38.1,47.3c0,0.2,0,0.3,0,0.5c0,0.1,0,0.1,0,0.2c0,0.1-0.1,0.2-0.1,0.3s-0.1,0.2-0.1,0.2
							c-0.1,0.2-0.2,0.4-0.3,0.6c-0.1,0.1-0.2,0.3-0.3,0.4l0,0l-3.4,3.3l-2.8,2.8l-0.7,0.7h-0.2c-1.5,0-3-0.7-4.1-1.7
							c-0.6-0.5-1.2-1.1-1.7-1.8c-0.3-0.4-0.5-0.8-0.7-1.3c-0.2-0.4-0.2-0.3-0.3-0.8c0,0.3,0,0.6,0.1,0.9c0.1,0.6,0.2,0.7,0.4,1.2
							c0.5,1.4,1.4,2.6,2.5,3.5c0.7,0.7,1.5,1.2,2.4,1.5l-4,4c-0.2,0.2-0.4,0.3-0.6,0.5c-0.1,0.1-0.3,0.2-0.4,0.2
							c-0.6,0.3-1.4,0.3-2,0.1c-0.3-0.1-0.6-0.2-0.8-0.4c-0.2-0.1-0.3-0.2-0.5-0.4L7.9,49.5l0,0c-0.1-0.1-0.1-0.2-0.2-0.2
							c-0.3-0.4-0.5-0.9-0.6-1.3v-0.1c0-0.2-0.1-0.4,0-0.6c0-0.1,0-0.2,0-0.3s0-0.1,0-0.2c0-0.2,0.1-0.3,0.2-0.5
							c0-0.1,0.1-0.2,0.1-0.3c0.1-0.1,0.1-0.2,0.2-0.3s0.2-0.3,0.3-0.4l0,0l3.4-3.3l2.7-3l0.7-0.7h0.2c1.5,0,3,0.7,4.1,1.7
							c0.6,0.5,1.2,1.1,1.7,1.8c0.3,0.4,0.5,0.8,0.7,1.3c0.2,0.4,0.2,0.3,0.3,0.8c0-0.3,0-0.6-0.1-0.9c-0.1-0.6-0.2-0.7-0.4-1.2
							c-0.5-1.4-1.4-2.6-2.5-3.5c-0.7-0.7-1.5-1.2-2.4-1.5l4-4c0.4-0.4,0.9-0.7,1.4-0.8c0.2,0,0.3-0.1,0.5-0.1
							c0.9-0.1,1.8,0.2,2.5,0.9l0,0l12.5,12.5l0,0c0.1,0.1,0.1,0.2,0.2,0.2c0.2,0.2,0.4,0.5,0.5,0.8c0.1,0.2,0.1,0.4,0.2,0.6V47
							C38.1,47,38.1,47.1,38.1,47.3z"/>
					</g>
					<g>
						<path class="st1" d="M22.6,63.2c-0.3,0-0.6,0-1-0.1c-0.3-0.1-0.6-0.2-0.9-0.4c-0.2-0.1-0.4-0.3-0.5-0.4L7.6,49.6
							c-0.1-0.1-0.1-0.1-0.1-0.2C7.1,49,6.9,48.5,6.8,48c0-0.1,0-0.1,0-0.2c0-0.2-0.1-0.4,0-0.6c0-0.1,0-0.2,0-0.4v-0.2
							c0-0.2,0.1-0.4,0.2-0.6c0,0,0-0.1,0.1-0.3c0.1-0.1,0.1-0.2,0.2-0.4c0.1-0.1,0.2-0.2,0.3-0.3l0,0h0.1l6.9-6.9h0.3
							c1.5,0,3,0.7,4.3,1.7c0.6,0.5,1.2,1.1,1.7,1.9c-0.5-1.2-1.3-2.3-2.3-3.2c-0.7-0.7-1.5-1.2-2.3-1.5l-0.4-0.2l4.3-4.3
							c0.4-0.4,0.9-0.7,1.5-0.9c0.2-0.1,0.3-0.1,0.5-0.1c1-0.1,1.9,0.2,2.6,0.9l0,0l0.1,0.1L37.5,45c0.1,0.1,0.1,0.1,0.1,0.2
							c0.2,0.3,0.4,0.6,0.5,0.9c0.1,0.2,0.1,0.4,0.2,0.6c0,0.1,0,0.2,0,0.2c0,0.1,0,0.2,0,0.4s0,0.3,0,0.5v0.1V48
							c0,0.1-0.1,0.2-0.1,0.4c0,0.1-0.1,0.2-0.1,0.2c-0.1,0.2-0.2,0.4-0.4,0.6c-0.1,0.1-0.2,0.2-0.3,0.3l0,0l-0.1,0.1l-6.9,6.9h-0.3
							c-1.5,0-3-0.7-4.3-1.7c-0.6-0.5-1.2-1.1-1.7-1.9c0.5,1.2,1.3,2.3,2.3,3.2c0.7,0.7,1.5,1.2,2.3,1.5l0.4,0.2l-4.3,4.4
							c-0.2,0.2-0.4,0.3-0.6,0.5c-0.2,0.1-0.3,0.2-0.5,0.2C23.4,63.1,23,63.2,22.6,63.2z M8.2,49.4l12.4,12.4
							c0.1,0.1,0.3,0.3,0.4,0.4c0.2,0.2,0.5,0.3,0.7,0.3c0.6,0.2,1.3,0.2,1.8-0.1c0.1-0.1,0.3-0.1,0.4-0.2c0.2-0.1,0.4-0.3,0.5-0.4
							l3.8-3.8c-0.7-0.3-1.5-0.8-2.1-1.4c-1.2-1-2.1-2.2-2.6-3.7l-0.1-0.2c-0.1-0.3-0.2-0.5-0.3-1c0-0.2,0-0.4,0-0.6
							c0-0.1,0-0.2,0-0.3L23,48.2l0.7,2.6c0.1,0.3,0.1,0.3,0.2,0.5c0,0.1,0.1,0.1,0.1,0.2c0.2,0.4,0.4,0.8,0.7,1.2
							c0.5,0.7,1,1.3,1.6,1.8c1.2,1,2.6,1.6,4,1.6l0,0l6.8-6.8c0.1-0.1,0.2-0.2,0.3-0.3c0.1-0.2,0.2-0.4,0.3-0.5
							c0-0.1,0.1-0.1,0.1-0.2c0-0.1,0.1-0.2,0.1-0.3v-0.2c0-0.1,0-0.3,0-0.4l0,0c0-0.1,0-0.2,0-0.3s0-0.1,0-0.1
							c0-0.2-0.1-0.3-0.2-0.5c-0.1-0.2-0.2-0.5-0.4-0.7c-0.1-0.1-0.1-0.1-0.2-0.2L37,45.5L24.5,32.9c-0.6-0.6-1.4-0.9-2.3-0.8
							c-0.1,0-0.3,0-0.4,0.1c-0.5,0.1-0.9,0.4-1.2,0.7l-3.7,3.7c0.7,0.3,1.5,0.8,2.1,1.4c1.2,1,2.1,2.2,2.6,3.7l0.1,0.2
							c0.1,0.3,0.2,0.5,0.3,1c0,0.2,0,0.4,0,0.6c0,0.1,0,0.2,0,0.3l0.1,2.6l-0.7-2.6c-0.1-0.3-0.1-0.3-0.2-0.5
							c0-0.1-0.1-0.1-0.1-0.2c-0.2-0.4-0.4-0.8-0.7-1.2c-0.5-0.7-1-1.3-1.6-1.8c-1.2-1-2.6-1.6-4-1.6l0,0L8,45.3
							c-0.1,0.1-0.2,0.2-0.3,0.3c-0.1,0.1-0.1,0.2-0.2,0.3s-0.1,0.2-0.1,0.3c-0.1,0.2-0.1,0.3-0.1,0.5v0.2c0,0.1,0,0.2,0,0.3
							c0,0.2,0,0.4,0,0.6v0.1c0.1,0.5,0.3,0.9,0.6,1.2C8,49.2,8,49.2,8.2,49.4L8.2,49.4z"/>
					</g>
				</g>
				<g class="st3">
					<path d="M16.2,86.2v9.9h-2.3V74.4h2.3v9.8h2.8l9.2-9.8h2.9L20.7,85.1l11,11.1h-3l-9.8-9.9H16.2z"/>
				</g>
				<g class="st3">
					<path class="st4" d="M16.2,86.2v9.9h-2.3V74.4h2.3v9.8h2.8l9.2-9.8h2.9L20.7,85.1l11,11.1h-3l-9.8-9.9H16.2z"/>
				</g>
			</g>
		</g>
		<g class="st5">
			<path d="M173.4,283.5H50.6c-4.2,0-7.5-3.4-7.5-7.5V37.6c0-4.2,3.4-7.5,7.5-7.5h122.9c4.2,0,7.5,3.4,7.5,7.5V276
				C181,280.1,177.6,283.5,173.4,283.5z"/>
		</g>
	</g>
</g>
</svg>
