<?xml version="1.0" encoding="utf-8"?>
<!-- Generator: Adobe Illustrator 25.2.0, SVG Export Plug-In . SVG Version: 6.00 Build 0)  -->
<svg version="1.1" id="Layer_1" xmlns="http://www.w3.org/2000/svg" xmlns:xlink="http://www.w3.org/1999/xlink" x="0px" y="0px"
	 viewBox="0 0 224.2 312.8" style="enable-background:new 0 0 224.2 312.8;" xml:space="preserve">
<style type="text/css">
	.st0{opacity:2.000000e-02;enable-background:new    ;}
	.st1{fill:#B20033;}
	.st2{fill:#050307;}
	.st3{enable-background:new    ;}
	.st4{fill:none;stroke:#000000;stroke-miterlimit:10;}
	.st5{opacity:5.000000e-02;enable-background:new    ;}
</style>
<g>
	<g class="st0">
		<rect x="-0.2" y="0.7" width="224.4" height="312.1"/>
	</g>
	<g>
		<g>
			<g>
				<g>
					<path class="st1" d="M185.9,267.9c0-0.2,0-0.3,0-0.5c0-0.1,0-0.1,0-0.2s0.1-0.2,0.1-0.3c0-0.1,0.1-0.2,0.1-0.2
						c0.1-0.2,0.2-0.4,0.3-0.6c0.1-0.1,0.2-0.3,0.3-0.4l0,0l3.4-3.3l2.8-2.8l0.7-0.7h0.2c1.5,0,3,0.7,4.1,1.7
						c0.6,0.5,1.2,1.1,1.7,1.8c0.3,0.4,0.5,0.8,0.7,1.3c0.2,0.4,0.2,0.3,0.3,0.8c0-0.3,0-0.6-0.1-0.9c-0.1-0.6-0.2-0.7-0.4-1.2
						c-0.5-1.4-1.4-2.6-2.5-3.5c-0.7-0.7-1.5-1.2-2.4-1.5l4-4c0.2-0.2,0.4-0.3,0.6-0.5c0.1-0.1,0.3-0.2,0.4-0.2
						c0.6-0.3,1.4-0.3,2-0.1c0.3,0.1,0.6,0.2,0.8,0.4c0.2,0.1,0.3,0.2,0.5,0.4l12.5,12.5l0,0c0.1,0.1,0.1,0.2,0.2,0.2
						c0.3,0.4,0.5,0.9,0.6,1.3v0.1c0,0.2,0.1,0.4,0,0.6c0,0.1,0,0.2,0,0.3c0,0.1,0,0.1,0,0.2c0,0.2-0.1,0.3-0.2,0.5
						c0,0.1-0.1,0.2-0.1,0.3c-0.1,0.1-0.1,0.2-0.2,0.3c-0.1,0.1-0.2,0.3-0.3,0.4l0,0l-3.4,3.3l-2.8,2.8l-0.7,0.7h-0.2
						c-1.5,0-3-0.7-4.1-1.7c-0.6-0.5-1.2-1.1-1.7-1.8c-0.3-0.4-0.5-0.8-0.7-1.3c-0.2-0.4-0.2-0.3-0.3-0.8c0,0.3,0,0.6,0.1,0.9
						c0.1,0.6,0.2,0.7,0.4,1.2c0.5,1.4,1.4,2.6,2.5,3.5c0.7,0.7,1.5,1.2,2.4,1.5l-4,4c-0.4,0.4-0.9,0.7-1.4,0.8
						c-0.2,0-0.3,0.1-0.5,0.1c-0.9,0.1-1.8-0.2-2.5-0.9l0,0l-12.5-12.5l0,0c-0.1-0.1-0.1-0.2-0.2-0.2c-0.2-0.2-0.4-0.5-0.5-0.8
						c-0.1-0.2-0.1-0.4-0.2-0.6v-0.1C185.9,268.2,185.9,268.1,185.9,267.9z"/>
				</g>
				<g>
					<path class="st2" d="M201.4,252c0.3,0,0.6,0,1,0.1c0.3,0.1,0.6,0.2,0.9,0.4c0.2,0.1,0.4,0.3,0.5,0.4l12.6,12.6
						c0.1,0.1,0.1,0.1,0.1,0.2c0.3,0.4,0.6,0.9,0.7,1.5c0,0.1,0,0.1,0,0.2c0,0.2,0.1,0.4,0,0.6c0,0.1,0,0.2,0,0.4v0.2
						c0,0.2-0.1,0.4-0.2,0.6c0,0.1-0.1,0.2-0.1,0.3c-0.1,0.1-0.1,0.2-0.2,0.4c-0.1,0.1-0.2,0.2-0.3,0.3l0,0l-0.1,0.1l-6.9,6.9h-0.3
						c-1.5,0-3-0.7-4.3-1.7c-0.6-0.5-1.2-1.1-1.7-1.9c0.5,1.2,1.3,2.3,2.3,3.2c0.7,0.7,1.5,1.2,2.3,1.5l0.4,0.2l-4.3,4.3
						c-0.4,0.4-0.9,0.7-1.5,0.9c-0.2,0.1-0.3,0.1-0.5,0.1c-1,0.1-1.9-0.2-2.6-0.9l0,0l-0.1-0.1l-12.6-12.6c-0.1-0.1-0.1-0.1-0.1-0.2
						c-0.2-0.3-0.4-0.6-0.5-0.9c-0.1-0.2-0.1-0.4-0.2-0.6c0-0.1,0-0.2,0-0.2c0-0.1,0-0.2,0-0.4c0-0.2,0-0.3,0-0.5v-0.1v-0.1
						c0-0.1,0.1-0.2,0.1-0.4c0-0.1,0.1-0.2,0.1-0.2c0.1-0.2,0.2-0.4,0.4-0.6c0.1-0.1,0.2-0.2,0.3-0.3l0,0l0.1-0.1l6.9-6.9h0.3
						c1.5,0,3,0.7,4.3,1.7c0.6,0.5,1.2,1.1,1.7,1.9c-0.5-1.2-1.3-2.3-2.3-3.2c-0.7-0.7-1.5-1.2-2.3-1.5l-0.4-0.2l4.3-4.4
						c0.2-0.2,0.4-0.3,0.6-0.5c0.2-0.1,0.3-0.2,0.5-0.2C200.6,252.1,201,252,201.4,252z M215.8,265.8l-12.4-12.4
						c-0.1-0.1-0.3-0.3-0.4-0.4c-0.2-0.2-0.5-0.3-0.7-0.3c-0.6-0.2-1.3-0.2-1.8,0.1c-0.1,0.1-0.3,0.1-0.4,0.2
						c-0.2,0.1-0.4,0.3-0.5,0.4l-3.8,3.8c0.7,0.3,1.5,0.8,2.1,1.4c1.2,1,2.1,2.2,2.6,3.7l0.1,0.2c0.1,0.3,0.2,0.5,0.3,1
						c0,0.2,0,0.4,0,0.6c0,0.1,0,0.2,0,0.3l0.1,2.6l-0.7-2.6c-0.1-0.3-0.1-0.3-0.2-0.5c0-0.1-0.1-0.1-0.1-0.2
						c-0.2-0.4-0.4-0.8-0.7-1.2c-0.5-0.7-1-1.3-1.6-1.8c-1.2-1-2.6-1.6-4-1.6l0,0l-6.8,6.8c-0.1,0.1-0.2,0.2-0.3,0.3
						c-0.1,0.2-0.2,0.4-0.3,0.5c0,0.1-0.1,0.1-0.1,0.2s-0.1,0.2-0.1,0.3v0.2c0,0.1,0,0.3,0,0.4l0,0c0,0.1,0,0.2,0,0.3
						c0,0.1,0,0.1,0,0.1c0,0.2,0.1,0.3,0.2,0.5c0.1,0.2,0.2,0.5,0.4,0.7c0.1,0.1,0.1,0.1,0.2,0.2l0.1,0.1l12.4,12.4
						c0.6,0.6,1.4,0.9,2.3,0.8c0.1,0,0.3,0,0.4-0.1c0.5-0.1,0.9-0.4,1.2-0.7l3.7-3.7c-0.7-0.3-1.5-0.8-2.1-1.4
						c-1.2-1-2.1-2.2-2.6-3.7l-0.1-0.2c-0.1-0.3-0.2-0.5-0.3-1c0-0.2,0-0.4,0-0.6c0-0.1,0-0.2,0-0.3l-0.1-2.6l0.7,2.6
						c0.1,0.3,0.1,0.3,0.2,0.5c0,0.1,0.1,0.1,0.1,0.2c0.2,0.4,0.4,0.8,0.7,1.2c0.5,0.7,1,1.3,1.6,1.8c1.2,1,2.6,1.6,4,1.6l0,0
						l6.8-6.8c0.1-0.1,0.2-0.2,0.3-0.3c0.1-0.1,0.1-0.2,0.2-0.3c0.1-0.1,0.1-0.2,0.1-0.3c0.1-0.2,0.1-0.3,0.1-0.5v-0.2
						c0-0.1,0-0.2,0-0.3c0-0.2,0-0.4,0-0.6v-0.1c-0.1-0.5-0.3-0.9-0.6-1.2C216,266,216,266,215.8,265.8L215.8,265.8z"/>
				</g>
			</g>
			<g class="st3">
				<path d="M196,239.7c-1.7-1-3-2.3-4-4s-1.5-3.6-1.5-5.8c0-1.4,0.2-2.7,0.6-3.9c0.4-1.2,1-2.3,1.8-3.2l-3-3.8h2.6l1.9,2.3
					c1-0.8,2.1-1.4,3.3-1.9c1.3-0.5,2.6-0.7,4-0.7c2.1,0,4,0.5,5.7,1.4c1.7,1,3,2.3,4,4s1.4,3.6,1.4,5.8c0,2.1-0.5,4.1-1.4,5.8
					s-2.3,3-4,4c-1.7,1-3.6,1.4-5.7,1.4C199.6,241.1,197.7,240.7,196,239.7z M206.3,237.8c1.3-0.8,2.4-1.8,3.2-3.2
					c0.8-1.4,1.2-2.9,1.2-4.7c0-1.7-0.4-3.3-1.2-4.7s-1.8-2.4-3.2-3.2s-2.9-1.1-4.5-1.1c-1.1,0-2.2,0.2-3.2,0.6
					c-1,0.4-1.9,0.9-2.7,1.6l5.2,6.5h-2.7l-3.9-4.9c-1,1.5-1.5,3.2-1.5,5.2c0,1.8,0.4,3.3,1.2,4.7c0.8,1.4,1.8,2.4,3.2,3.2
					c1.3,0.8,2.8,1.1,4.5,1.1S204.9,238.6,206.3,237.8z"/>
			</g>
			<g class="st3">
				<path class="st4" d="M196,239.7c-1.7-1-3-2.3-4-4s-1.5-3.6-1.5-5.8c0-1.4,0.2-2.7,0.6-3.9c0.4-1.2,1-2.3,1.8-3.2l-3-3.8h2.6
					l1.9,2.3c1-0.8,2.1-1.4,3.3-1.9c1.3-0.5,2.6-0.7,4-0.7c2.1,0,4,0.5,5.7,1.4c1.7,1,3,2.3,4,4s1.4,3.6,1.4,5.8
					c0,2.1-0.5,4.1-1.4,5.8s-2.3,3-4,4c-1.7,1-3.6,1.4-5.7,1.4C199.6,241.1,197.7,240.7,196,239.7z M206.3,237.8
					c1.3-0.8,2.4-1.8,3.2-3.2c0.8-1.4,1.2-2.9,1.2-4.7c0-1.7-0.4-3.3-1.2-4.7s-1.8-2.4-3.2-3.2s-2.9-1.1-4.5-1.1
					c-1.1,0-2.2,0.2-3.2,0.6c-1,0.4-1.9,0.9-2.7,1.6l5.2,6.5h-2.7l-3.9-4.9c-1,1.5-1.5,3.2-1.5,5.2c0,1.8,0.4,3.3,1.2,4.7
					c0.8,1.4,1.8,2.4,3.2,3.2c1.3,0.8,2.8,1.1,4.5,1.1S204.9,238.6,206.3,237.8z"/>
			</g>
		</g>
		<g>
			<g>
				<g>
					<path class="st1" d="M38.1,47.3c0,0.2,0,0.3,0,0.5c0,0.1,0,0.1,0,0.2c0,0.1-0.1,0.2-0.1,0.3s-0.1,0.2-0.1,0.2
						c-0.1,0.2-0.2,0.4-0.3,0.6c-0.1,0.1-0.2,0.3-0.3,0.4l0,0l-3.4,3.3l-2.8,2.8l-0.7,0.7h-0.2c-1.5,0-3-0.7-4.1-1.7
						c-0.6-0.5-1.2-1.1-1.7-1.8c-0.3-0.4-0.5-0.8-0.7-1.3c-0.2-0.4-0.2-0.3-0.3-0.8c0,0.3,0,0.6,0.1,0.9c0.1,0.6,0.2,0.7,0.4,1.2
						c0.5,1.4,1.4,2.6,2.5,3.5c0.7,0.7,1.5,1.2,2.4,1.5l-4,4c-0.2,0.2-0.4,0.3-0.6,0.5c-0.1,0.1-0.3,0.2-0.4,0.2
						c-0.6,0.3-1.4,0.3-2,0.1c-0.3-0.1-0.6-0.2-0.8-0.4c-0.2-0.1-0.3-0.2-0.5-0.4L7.9,49.5l0,0c-0.1-0.1-0.1-0.2-0.2-0.2
						c-0.3-0.4-0.5-0.9-0.6-1.3v-0.1c0-0.2-0.1-0.4,0-0.6c0-0.1,0-0.2,0-0.3s0-0.1,0-0.2c0-0.2,0.1-0.3,0.2-0.5
						c0-0.1,0.1-0.2,0.1-0.3c0.1-0.1,0.1-0.2,0.2-0.3s0.2-0.3,0.3-0.4l0,0l3.4-3.3l2.7-3l0.7-0.7h0.2c1.5,0,3,0.7,4.1,1.7
						c0.6,0.5,1.2,1.1,1.7,1.8c0.3,0.4,0.5,0.8,0.7,1.3c0.2,0.4,0.2,0.3,0.3,0.8c0-0.3,0-0.6-0.1-0.9c-0.1-0.6-0.2-0.7-0.4-1.2
						c-0.5-1.4-1.4-2.6-2.5-3.5c-0.7-0.7-1.5-1.2-2.4-1.5l4-4c0.4-0.4,0.9-0.7,1.4-0.8c0.2,0,0.3-0.1,0.5-0.1
						c0.9-0.1,1.8,0.2,2.5,0.9l0,0l12.5,12.5l0,0c0.1,0.1,0.1,0.2,0.2,0.2c0.2,0.2,0.4,0.5,0.5,0.8c0.1,0.2,0.1,0.4,0.2,0.6V47
						C38.1,47,38.1,47.1,38.1,47.3z"/>
				</g>
				<g>
					<path class="st2" d="M22.6,63.2c-0.3,0-0.6,0-1-0.1c-0.3-0.1-0.6-0.2-0.9-0.4c-0.2-0.1-0.4-0.3-0.5-0.4L7.6,49.6
						c-0.1-0.1-0.1-0.1-0.1-0.2C7.1,49,6.9,48.5,6.8,48c0-0.1,0-0.1,0-0.2c0-0.2-0.1-0.4,0-0.6c0-0.1,0-0.2,0-0.4v-0.2
						c0-0.2,0.1-0.4,0.2-0.6c0,0,0-0.1,0.1-0.3c0.1-0.1,0.1-0.2,0.2-0.4c0.1-0.1,0.2-0.2,0.3-0.3l0,0h0.1l6.9-6.9h0.3
						c1.5,0,3,0.7,4.3,1.7c0.6,0.5,1.2,1.1,1.7,1.9c-0.5-1.2-1.3-2.3-2.3-3.2c-0.7-0.7-1.5-1.2-2.3-1.5l-0.4-0.2l4.3-4.3
						c0.4-0.4,0.9-0.7,1.5-0.9c0.2-0.1,0.3-0.1,0.5-0.1c1-0.1,1.9,0.2,2.6,0.9l0,0l0.1,0.1L37.5,45c0.1,0.1,0.1,0.1,0.1,0.2
						c0.2,0.3,0.4,0.6,0.5,0.9c0.1,0.2,0.1,0.4,0.2,0.6c0,0.1,0,0.2,0,0.2c0,0.1,0,0.2,0,0.4s0,0.3,0,0.5v0.1V48
						c0,0.1-0.1,0.2-0.1,0.4c0,0.1-0.1,0.2-0.1,0.2c-0.1,0.2-0.2,0.4-0.4,0.6c-0.1,0.1-0.2,0.2-0.3,0.3l0,0l-0.1,0.1l-6.9,6.9h-0.3
						c-1.5,0-3-0.7-4.3-1.7c-0.6-0.5-1.2-1.1-1.7-1.9c0.5,1.2,1.3,2.3,2.3,3.2c0.7,0.7,1.5,1.2,2.3,1.5l0.4,0.2l-4.3,4.4
						c-0.2,0.2-0.4,0.3-0.6,0.5c-0.2,0.1-0.3,0.2-0.5,0.2C23.4,63.1,23,63.2,22.6,63.2z M8.2,49.4l12.4,12.4
						c0.1,0.1,0.3,0.3,0.4,0.4c0.2,0.2,0.5,0.3,0.7,0.3c0.6,0.2,1.3,0.2,1.8-0.1c0.1-0.1,0.3-0.1,0.4-0.2c0.2-0.1,0.4-0.3,0.5-0.4
						l3.8-3.8c-0.7-0.3-1.5-0.8-2.1-1.4c-1.2-1-2.1-2.2-2.6-3.7l-0.1-0.2c-0.1-0.3-0.2-0.5-0.3-1c0-0.2,0-0.4,0-0.6
						c0-0.1,0-0.2,0-0.3L23,48.2l0.7,2.6c0.1,0.3,0.1,0.3,0.2,0.5c0,0.1,0.1,0.1,0.1,0.2c0.2,0.4,0.4,0.8,0.7,1.2
						c0.5,0.7,1,1.3,1.6,1.8c1.2,1,2.6,1.6,4,1.6l0,0l6.8-6.8c0.1-0.1,0.2-0.2,0.3-0.3c0.1-0.2,0.2-0.4,0.3-0.5
						c0-0.1,0.1-0.1,0.1-0.2c0-0.1,0.1-0.2,0.1-0.3v-0.2c0-0.1,0-0.3,0-0.4l0,0c0-0.1,0-0.2,0-0.3s0-0.1,0-0.1
						c0-0.2-0.1-0.3-0.2-0.5c-0.1-0.2-0.2-0.5-0.4-0.7c-0.1-0.1-0.1-0.1-0.2-0.2L37,45.5L24.5,32.9c-0.6-0.6-1.4-0.9-2.3-0.8
						c-0.1,0-0.3,0-0.4,0.1c-0.5,0.1-0.9,0.4-1.2,0.7l-3.7,3.7c0.7,0.3,1.5,0.8,2.1,1.4c1.2,1,2.1,2.2,2.6,3.7l0.1,0.2
						c0.1,0.3,0.2,0.5,0.3,1c0,0.2,0,0.4,0,0.6c0,0.1,0,0.2,0,0.3l0.1,2.6l-0.7-2.6c-0.1-0.3-0.1-0.3-0.2-0.5c0-0.1-0.1-0.1-0.1-0.2
						c-0.2-0.4-0.4-0.8-0.7-1.2c-0.5-0.7-1-1.3-1.6-1.8c-1.2-1-2.6-1.6-4-1.6l0,0L8,45.3c-0.1,0.1-0.2,0.2-0.3,0.3
						c-0.1,0.1-0.1,0.2-0.2,0.3s-0.1,0.2-0.1,0.3c-0.1,0.2-0.1,0.3-0.1,0.5v0.2c0,0.1,0,0.2,0,0.3c0,0.2,0,0.4,0,0.6v0.1
						c0.1,0.5,0.3,0.9,0.6,1.2C8,49.2,8,49.2,8.2,49.4L8.2,49.4z"/>
				</g>
			</g>
			<g class="st3">
				<path d="M28,75.5c1.7,1,3,2.3,4,4s1.5,3.6,1.5,5.8c0,1.4-0.2,2.7-0.6,3.9c-0.4,1.2-1,2.3-1.8,3.2l3,3.8h-2.6l-1.9-2.3
					c-1,0.8-2.1,1.4-3.3,1.9c-1.3,0.5-2.6,0.7-4,0.7c-2.1,0-4-0.5-5.7-1.4c-1.7-1-3-2.3-4-4s-1.4-3.6-1.4-5.8c0-2.1,0.5-4.1,1.4-5.8
					s2.3-3,4-4c1.7-1,3.6-1.4,5.7-1.4C24.4,74.1,26.3,74.5,28,75.5z M17.7,77.4c-1.3,0.8-2.4,1.8-3.2,3.2c-0.8,1.4-1.2,2.9-1.2,4.7
					c0,1.7,0.4,3.3,1.2,4.7c0.8,1.4,1.8,2.4,3.2,3.2c1.3,0.8,2.9,1.1,4.5,1.1c1.1,0,2.2-0.2,3.2-0.6c1-0.4,1.9-0.9,2.7-1.6L23,85.6
					h2.7l3.9,4.9c1-1.5,1.5-3.2,1.5-5.2c0-1.8-0.4-3.3-1.2-4.7c-0.8-1.4-1.8-2.4-3.2-3.2c-1.3-0.8-2.8-1.1-4.5-1.1
					C20.6,76.3,19.1,76.6,17.7,77.4z"/>
			</g>
			<g class="st3">
				<path class="st4" d="M28,75.5c1.7,1,3,2.3,4,4s1.5,3.6,1.5,5.8c0,1.4-0.2,2.7-0.6,3.9c-0.4,1.2-1,2.3-1.8,3.2l3,3.8h-2.6
					l-1.9-2.3c-1,0.8-2.1,1.4-3.3,1.9c-1.3,0.5-2.6,0.7-4,0.7c-2.1,0-4-0.5-5.7-1.4c-1.7-1-3-2.3-4-4s-1.4-3.6-1.4-5.8
					c0-2.1,0.5-4.1,1.4-5.8s2.3-3,4-4c1.7-1,3.6-1.4,5.7-1.4C24.4,74.1,26.3,74.5,28,75.5z M17.7,77.4c-1.3,0.8-2.4,1.8-3.2,3.2
					c-0.8,1.4-1.2,2.9-1.2,4.7c0,1.7,0.4,3.3,1.2,4.7c0.8,1.4,1.8,2.4,3.2,3.2c1.3,0.8,2.9,1.1,4.5,1.1c1.1,0,2.2-0.2,3.2-0.6
					c1-0.4,1.9-0.9,2.7-1.6L23,85.6h2.7l3.9,4.9c1-1.5,1.5-3.2,1.5-5.2c0-1.8-0.4-3.3-1.2-4.7c-0.8-1.4-1.8-2.4-3.2-3.2
					c-1.3-0.8-2.8-1.1-4.5-1.1C20.6,76.3,19.1,76.6,17.7,77.4z"/>
			</g>
		</g>
	</g>
	<g class="st5">
		<path d="M173.4,283.5H50.6c-4.2,0-7.5-3.4-7.5-7.5V37.6c0-4.2,3.4-7.5,7.5-7.5h122.9c4.2,0,7.5,3.4,7.5,7.5V276
			C181,280.1,177.6,283.5,173.4,283.5z"/>
	</g>
	<g>
		<g>
			<g>
				<path d="M103.1,150.3c-1.6,0-3.4-0.4-5.5-1.2l0.4-0.9c3.5,1.3,6.3,1.5,8.2,0.4c1.9-1,2.4-2.9,2.4-2.9l1,0.2
					c0,0.1-0.6,2.3-2.9,3.6C105.7,150.1,104.5,150.3,103.1,150.3z"/>
			</g>
			<g>
				<g>
					<path d="M74,137.6L93,95c2.3-5.2,7.5-8.6,13.2-8.6h40.6l-49.4,51.9L74,137.6z"/>
				</g>
				<g>
					<path d="M145.6,87l-8.5,8.9l-40,42l-22.4-0.8l18.7-41.9c2.2-5,7.2-8.3,12.7-8.3h39.5 M147.9,86h-2.3h-39.4
						c-5.9,0-11.2,3.5-13.6,8.9l-18.7,41.9l-0.6,1.4l1.5,0.1l22.4,0.8h0.4l0.3-0.3l40-42l8.5-8.9L147.9,86L147.9,86z"/>
				</g>
			</g>
			<g>
				<path d="M122.7,80.1c-0.9,0-1.8-0.2-2.7-0.6c-0.2-0.1-0.4-0.4-0.2-0.7c0.1-0.2,0.4-0.4,0.7-0.2c1.6,0.7,3,0.7,4.6,0
					c0.2-0.1,0.5,0,0.7,0.2c0.1,0.2,0,0.5-0.2,0.7C124.5,79.9,123.6,80.1,122.7,80.1z"/>
			</g>
			<g>
				<g>
					<path class="st1" d="M154.5,128.4c0,0.2,0,0.4,0,0.6c0,0.1,0,0.2,0,0.2c0,0.1-0.1,0.3-0.1,0.4c0,0.1-0.1,0.2-0.1,0.2
						c-0.1,0.2-0.2,0.5-0.4,0.7c-0.1,0.2-0.2,0.3-0.4,0.4l0,0l-3.8,3.8l-3.1,3.1l-0.8,0.8h-0.2c-1.7-0.1-3.4-0.8-4.7-1.9
						c-0.7-0.6-1.4-1.3-1.9-2.1c-0.3-0.4-0.6-0.9-0.8-1.4s-0.2-0.4-0.4-0.9c0,0.3,0,0.6,0.1,1c0.1,0.7,0.2,0.7,0.4,1.3
						c0.6,1.6,1.6,3,2.9,4c0.8,0.7,1.8,1.4,2.8,1.8l-4.6,4.6c-0.2,0.2-0.4,0.4-0.7,0.5c-0.2,0.1-0.3,0.2-0.5,0.2
						c-0.7,0.3-1.6,0.3-2.3,0.1c-0.3-0.1-0.6-0.2-0.9-0.4c-0.2-0.1-0.4-0.3-0.6-0.4l-14.3-14l0,0c-0.1-0.1-0.2-0.2-0.2-0.3
						c-0.4-0.4-0.6-1-0.7-1.5v-0.1c0-0.2-0.1-0.5,0-0.7c0-0.1,0-0.3,0-0.4s0-0.2,0-0.2c0-0.2,0.1-0.4,0.2-0.6c0-0.1,0.1-0.2,0.1-0.3
						c0.1-0.1,0.2-0.3,0.2-0.4c0.1-0.2,0.2-0.3,0.4-0.4l0,0l3.8-3.8l3.1-3.1l0.8-0.8h0.2c1.7,0.1,3.4,0.8,4.7,1.9
						c0.7,0.6,1.4,1.3,1.9,2.1c0.3,0.4,0.6,0.9,0.8,1.4s0.2,0.4,0.4,0.9c0-0.3,0-0.6-0.1-1c-0.1-0.7-0.2-0.7-0.4-1.3
						c-0.6-1.6-1.6-3-2.9-4c-0.8-0.7-1.8-1.4-2.8-1.8l4.6-4.6c0.4-0.5,1-0.8,1.6-0.9c0.2-0.1,0.4-0.1,0.5-0.1c1-0.1,2.1,0.2,2.8,1
						l0,0l14.2,14.2l0,0c0.1,0.1,0.2,0.2,0.2,0.3c0.2,0.3,0.4,0.6,0.5,0.9c0.1,0.2,0.1,0.4,0.2,0.6c0,0.1,0,0.1,0,0.2
						C154.5,128.1,154.5,128.3,154.5,128.4z"/>
				</g>
				<g>
					<path class="st2" d="M136.8,146.6c-0.4,0-0.7-0.1-1.1-0.2c-0.3-0.1-0.7-0.3-1-0.5c-0.2-0.1-0.4-0.3-0.6-0.5l-14.3-14.3
						c-0.1-0.1-0.1-0.1-0.2-0.2c-0.4-0.5-0.6-1-0.8-1.7c0-0.1,0-0.1,0-0.2c0-0.2-0.1-0.5,0-0.7c0-0.1,0-0.3,0-0.4v-0.3
						c0-0.2,0.1-0.4,0.2-0.6c0-0.1,0.1-0.2,0.2-0.4c0.1-0.1,0.2-0.3,0.3-0.4c0.1-0.1,0.2-0.2,0.3-0.4l0,0l0.1-0.1l7.9-7.9h0.3
						c1.7,0.1,3.5,0.7,4.9,2c0.7,0.6,1.4,1.3,1.9,2.1c-0.6-1.4-1.5-2.6-2.7-3.6c-0.8-0.8-1.7-1.3-2.7-1.7l-0.5-0.2l4.9-4.9
						c0.5-0.5,1.1-0.8,1.7-1c0.2-0.1,0.4-0.1,0.6-0.1c1.1-0.1,2.2,0.2,3,1l0,0l0.1,0.1l14.3,14.3c0.1,0.1,0.1,0.1,0.2,0.2
						c0.3,0.3,0.5,0.6,0.6,1c0.1,0.2,0.1,0.4,0.2,0.7c0,0.1,0,0.2,0,0.2c0,0.1,0,0.3,0,0.4c0,0.2,0,0.4,0,0.6v0.1v0.1
						c0,0.1-0.1,0.3-0.1,0.4c0,0.1-0.1,0.2-0.1,0.3c-0.1,0.2-0.2,0.5-0.4,0.7c-0.1,0.1-0.2,0.3-0.3,0.4l0,0l-0.1,0.1l-7.9,7.9h-0.3
						c-1.7-0.1-3.5-0.7-4.9-2c-0.7-0.6-1.4-1.3-1.9-2.1c0.6,1.4,1.5,2.6,2.7,3.6c0.8,0.8,1.7,1.3,2.7,1.7l0.5,0.2l-5,5
						c-0.2,0.2-0.4,0.4-0.7,0.6c-0.2,0.1-0.4,0.2-0.5,0.3C137.8,146.5,137.3,146.6,136.8,146.6z M120.4,130.9l14.1,14.1
						c0.2,0.2,0.3,0.3,0.5,0.4c0.3,0.2,0.6,0.3,0.8,0.4c0.7,0.2,1.4,0.2,2.1-0.1c0.2-0.1,0.3-0.1,0.5-0.2c0.2-0.1,0.4-0.3,0.6-0.5
						l4.3-4.3c-0.8-0.4-1.7-0.9-2.4-1.6c-1.3-1.1-2.3-2.5-3-4.2l-0.1-0.3c-0.1-0.4-0.2-0.6-0.3-1.1c0-0.3-0.1-0.5-0.1-0.7
						c0-0.1,0-0.2,0-0.3l-0.2-3l0.8,2.9c0.1,0.3,0.1,0.4,0.2,0.5c0,0.1,0.1,0.2,0.1,0.3c0.2,0.5,0.4,0.9,0.8,1.4
						c0.5,0.8,1.1,1.5,1.8,2c1.4,1.1,3,1.8,4.5,1.8l0,0l7.7-7.7c0.1-0.1,0.2-0.3,0.3-0.4c0.1-0.2,0.3-0.4,0.3-0.6
						c0-0.1,0.1-0.2,0.1-0.2c0-0.1,0.1-0.2,0.1-0.3V129c0-0.2,0-0.3,0-0.5l0,0c0-0.1,0-0.3,0-0.4c0-0.1,0-0.1,0-0.2
						c0-0.2-0.1-0.4-0.2-0.6c-0.1-0.3-0.3-0.5-0.5-0.8c-0.1-0.1-0.1-0.2-0.2-0.2l-0.1-0.1L139.1,112c-0.7-0.7-1.6-1-2.6-0.9
						c-0.2,0-0.3,0-0.5,0.1c-0.5,0.1-1,0.4-1.4,0.8l-4.3,4.3c0.8,0.4,1.7,0.9,2.4,1.6c1.3,1.1,2.3,2.5,3,4.2l0.1,0.3
						c0.1,0.4,0.2,0.6,0.3,1.1c0,0.3,0.1,0.5,0.1,0.7c0,0.1,0,0.2,0,0.3l0.2,3l-0.8-2.9c-0.1-0.3-0.1-0.4-0.2-0.5
						c0-0.1-0.1-0.2-0.1-0.3c-0.2-0.5-0.4-0.9-0.8-1.4c-0.5-0.8-1.1-1.5-1.8-2c-1.4-1.1-3-1.8-4.5-1.8l0,0l-7.7,7.7
						c-0.1,0.1-0.2,0.3-0.3,0.4c-0.1,0.1-0.2,0.2-0.2,0.4c-0.1,0.1-0.1,0.2-0.1,0.3c-0.1,0.2-0.1,0.4-0.2,0.5v0.2c0,0.1,0,0.2,0,0.3
						c0,0.2,0,0.4,0,0.6v0.1c0.1,0.5,0.3,1,0.7,1.4c0.1,0.1,0.1,0.2,0.2,0.2L120.4,130.9z"/>
				</g>
			</g>
			<g>
				<polygon points="150.4,153.1 129.5,153.1 106.4,130.1 107.2,129.3 129.9,152.1 150.4,152.1 				"/>
			</g>
			<g>
				<g>
					<path d="M147.6,87l2.5,17.8l-12.9-8.9l-40,42l-22.4-0.8l18.1-40.6c2.6-5.8,8.4-9.6,14.8-9.6h39.9 M148.4,86h-0.9h-40
						c-6.8,0-12.9,4-15.7,10.2l-18.1,40.6l-0.6,1.4l1.5,0.1l22.4,0.8h0.4l0.3-0.3l39.4-41.4l12.2,8.4l1.9,1.3l-0.3-2.2l-2.5-17.8V86
						L148.4,86z"/>
				</g>
			</g>
			<g>
				<polygon class="st1" points="145.6,87 137.3,95.7 97.2,137.9 85.4,137.5 130.2,87 				"/>
			</g>
			<g>
				<path d="M144.2,76l-3.7-24.5c-0.4-2.9-2.4-5.3-5.2-6.3L122,40.4l-12.4,5.3c-2.5,1.1-4.3,3.3-4.7,6L100.8,76l-2.6,11h48.2
					L144.2,76z M135.3,83.6l-0.9,2.3h-23l-0.7-1.6c-2.2-4.7-3-10-2.2-15.2l2.2-14.8l11.6-5.6l12.5,5.1l2.2,16.4
					C137.5,74.8,136.9,79.4,135.3,83.6z"/>
			</g>
			<g>
				<path d="M121,48.1c0,0,8.7,7.2,14.3,6.4s-1.6-5.2-1.6-5.2L121,48.1z"/>
			</g>
			<g>
				<path d="M123.2,48.5c0,0-8.7,7.2-14.3,6.4c-5.6-0.8,1.6-5.2,1.6-5.2L123.2,48.5z"/>
			</g>
			<g>
				<polygon class="st1" points="72.9,138.5 69.1,149.6 100.9,151 103.6,139.7 				"/>
				<path d="M101.3,151.5l-32.9-1.4l4.1-12.1l31.7,1.2L101.3,151.5z M69.8,149.1l30.7,1.4l2.5-10.3L73.3,139L69.8,149.1z"/>
			</g>
			<g>
				<path d="M114.1,141.8c-1.2,0-2.7-0.3-3.5-0.5c-1.3-0.3-2.4-0.6-3.3-1c-0.8-0.3-1.7-0.8-1.5-1.5c0.1-0.7,1.1-0.7,2-0.7
					c0.9,0,2.1,0.2,3.4,0.4c1.5,0.3,5.1,1.2,4.8,2.5C115.8,141.7,115,141.8,114.1,141.8z M107.1,139.2c0.6,0.3,1.8,0.8,3.7,1.2
					c1.9,0.4,3.2,0.5,3.8,0.4c-0.6-0.3-1.8-0.8-3.7-1.2C109.1,139.2,107.7,139.2,107.1,139.2z"/>
			</g>
			<g>
				<path d="M109.5,146.3c-0.2,0-0.4,0-0.6-0.1c-0.7-0.2-1.2-0.7-1.4-1.4l-1.7-5.6l1-0.3l1.7,5.6c0.1,0.4,0.4,0.6,0.7,0.7
					c0.4,0.1,0.8,0,1.1-0.2l4.8-4.4l0.7,0.7l-4.8,4.4C110.5,146.1,110,146.3,109.5,146.3z"/>
			</g>
			<g>
				<path d="M105.7,149.5c-0.1,0-0.2,0-0.3-0.1c-0.6-0.3-1.3-2.1-0.6-3.7c0.1-0.3,0.4-0.4,0.7-0.3c0.3,0.1,0.4,0.4,0.3,0.7
					c-0.4,1-0.1,2,0.1,2.3c0.1,0,0.1,0,0.2,0.1c0.2,0.2,0.3,0.5,0.1,0.7C106.1,149.4,105.9,149.5,105.7,149.5z"/>
			</g>
			<g>
				<path d="M107.7,151.2c-2.2,0-4-0.9-4.2-1c-0.2-0.1-0.3-0.4-0.2-0.7c0.1-0.2,0.4-0.3,0.7-0.2c0,0,4.4,2.2,7.1-0.4
					c0.2-0.2,0.5-0.2,0.7,0c0.2,0.2,0.2,0.5,0,0.7C110.6,150.9,109.1,151.2,107.7,151.2z"/>
			</g>
		</g>
		<g>
			<g>
				<path d="M115.4,167.9l-1-0.2c0-0.1,0.6-2.3,2.9-3.6c2.2-1.2,5.3-1.1,9.1,0.3l-0.4,0.9c-3.5-1.3-6.2-1.5-8.2-0.4
					C115.9,166,115.4,167.9,115.4,167.9z"/>
			</g>
			<g>
				<g>
					<path d="M77.2,227.1l49.4-51.9L150,176l-19,42.6c-2.3,5.2-7.5,8.6-13.2,8.6H77.2V227.1z"/>
				</g>
				<g>
					<path d="M126.8,175.7l22.4,0.8l-18.7,41.9c-2.2,5-7.2,8.3-12.7,8.3H78.4l8.5-8.9L126.8,175.7 M126.4,174.6l-0.3,0.3l-40,42
						l-8.5,8.9l-1.6,1.7h2.3h39.4c5.9,0,11.2-3.5,13.6-8.9l18.7-41.9l0.6-1.4l-1.5-0.1l-22.4-0.8L126.4,174.6L126.4,174.6z"/>
				</g>
			</g>
			<g>
				<path d="M103.8,235.1c-0.1,0-0.1,0-0.2,0c-1.6-0.7-3-0.7-4.6,0c-0.3,0.1-0.5,0-0.7-0.2c-0.1-0.2,0-0.5,0.2-0.7
					c1.8-0.9,3.6-0.9,5.4,0c0.2,0.1,0.4,0.4,0.2,0.7C104.2,235,104,235.1,103.8,235.1z"/>
			</g>
			<g>
				<g>
					<path class="st1" d="M69.5,185.1c0-0.2,0-0.4,0-0.6c0-0.1,0-0.2,0-0.2c0-0.1,0.1-0.3,0.1-0.4c0-0.1,0.1-0.2,0.1-0.2
						c0.1-0.2,0.2-0.5,0.4-0.7c0.1-0.2,0.2-0.3,0.4-0.4l0,0l3.8-3.8l3.1-3.1l0.8-0.8h0.2c1.7,0.1,3.4,0.8,4.7,1.9
						c0.7,0.6,1.4,1.3,1.9,2.1c0.3,0.4,0.6,0.9,0.8,1.4c0.2,0.5,0.2,0.4,0.4,0.9c0-0.3,0-0.6-0.1-1c-0.1-0.7-0.2-0.7-0.4-1.3
						c-0.6-1.6-1.6-3-2.9-4c-0.8-0.7-1.8-1.4-2.8-1.8l4.6-4.6c0.2-0.2,0.4-0.4,0.7-0.5c0.2-0.1,0.3-0.2,0.5-0.2
						c0.7-0.3,1.6-0.3,2.3-0.1c0.3,0.1,0.6,0.2,0.9,0.4c0.2,0.1,0.4,0.3,0.6,0.4l14.2,14.2l0,0c0.1,0.1,0.2,0.2,0.2,0.3
						c0.4,0.4,0.6,1,0.7,1.5v0.1c0,0.2,0.1,0.5,0,0.7c0,0.1,0,0.3,0,0.4c0,0.1,0,0.2,0,0.2c0,0.2-0.1,0.4-0.2,0.6
						c0,0.1-0.1,0.2-0.1,0.3c-0.1,0.1-0.2,0.3-0.2,0.4c-0.1,0.2-0.2,0.3-0.4,0.4l0,0l-3.8,3.8l-3.1,3.1l-0.8,0.8h-0.2
						c-1.7-0.1-3.4-0.8-4.7-1.9c-0.7-0.6-1.4-1.3-1.9-2.1c-0.3-0.4-0.6-0.9-0.8-1.4c-0.2-0.5-0.2-0.4-0.4-0.9c0,0.3,0,0.6,0.1,1
						c0.1,0.7,0.2,0.7,0.4,1.3c0.6,1.6,1.6,3,2.9,4c0.8,0.7,1.8,1.4,2.8,1.8l-4.6,4.6c-0.4,0.5-1,0.8-1.6,0.9
						c-0.2,0.1-0.4,0.1-0.5,0.1c-1,0.1-2.1-0.2-2.8-1l0,0l-14.2-14.2l0,0c-0.1-0.1-0.2-0.2-0.2-0.3c-0.2-0.3-0.4-0.6-0.5-0.9
						c-0.1-0.2-0.1-0.4-0.2-0.6c0-0.1,0-0.1,0-0.2C69.5,185.4,69.5,185.3,69.5,185.1z"/>
				</g>
				<g>
					<path class="st2" d="M87.2,167c0.4,0,0.7,0.1,1.1,0.2c0.3,0.1,0.7,0.3,1,0.5c0.2,0.1,0.4,0.3,0.6,0.5l14.3,14.3
						c0.1,0.1,0.1,0.1,0.2,0.2c0.4,0.5,0.6,1,0.8,1.7c0,0.1,0,0.1,0,0.2c0,0.2,0.1,0.5,0,0.7c0,0.1,0,0.3,0,0.4v0.3
						c0,0.2-0.1,0.4-0.2,0.6c0,0.1-0.1,0.2-0.2,0.4c-0.1,0.1-0.2,0.3-0.3,0.4c-0.1,0.1-0.2,0.2-0.3,0.4l0,0l-0.1,0.1l-7.9,7.9h-0.3
						c-1.7-0.1-3.5-0.7-4.9-2c-0.7-0.6-1.4-1.3-1.9-2.1c0.6,1.4,1.5,2.6,2.7,3.6c0.8,0.8,1.7,1.3,2.7,1.7l0.5,0.2l-4.9,4.9
						c-0.5,0.5-1.1,0.8-1.7,1c-0.2,0.1-0.4,0.1-0.6,0.1c-1.1,0.1-2.2-0.2-3-1l0,0l-0.1-0.1l-14.3-14.3c-0.1-0.1-0.1-0.1-0.2-0.2
						c-0.3-0.3-0.5-0.6-0.6-1c-0.1-0.2-0.1-0.4-0.2-0.7c0-0.1,0-0.2,0-0.2c0-0.1,0-0.3,0-0.4c0-0.2,0-0.4,0-0.6v-0.1v-0.1
						c0-0.1,0.1-0.3,0.1-0.4c0-0.1,0.1-0.2,0.1-0.3c0.1-0.2,0.2-0.5,0.4-0.7c0.1-0.1,0.2-0.3,0.3-0.4l0,0l0.1-0.1l7.9-7.9h0.3
						c1.7,0.1,3.5,0.7,4.9,2c0.7,0.6,1.4,1.3,1.9,2.1c-0.6-1.4-1.5-2.6-2.7-3.6c-0.8-0.8-1.7-1.3-2.7-1.7l-0.5-0.2l5-5
						c0.2-0.2,0.4-0.4,0.7-0.6c0.2-0.1,0.4-0.2,0.5-0.3C86.2,167.1,86.7,167,87.2,167z M103.6,182.7l-14.1-14.1
						c-0.2-0.2-0.3-0.3-0.5-0.4c-0.3-0.2-0.6-0.3-0.8-0.4c-0.7-0.2-1.4-0.2-2.1,0.1c-0.2,0.1-0.3,0.1-0.5,0.2
						c-0.2,0.1-0.4,0.3-0.6,0.5l-4.3,4.3c0.8,0.4,1.7,0.9,2.4,1.6c1.3,1.1,2.3,2.5,3,4.2l0.1,0.3c0.1,0.4,0.2,0.6,0.3,1.1
						c0,0.3,0.1,0.5,0.1,0.7c0,0.1,0,0.2,0,0.3l0.2,3l-0.8-2.9c-0.1-0.3-0.1-0.4-0.2-0.5c0-0.1-0.1-0.2-0.1-0.3
						c-0.2-0.5-0.4-0.9-0.8-1.4c-0.5-0.8-1.1-1.5-1.8-2c-1.4-1.1-3-1.8-4.5-1.8l0,0l-7.7,7.7c-0.1,0.1-0.2,0.3-0.3,0.4
						c-0.1,0.2-0.3,0.4-0.3,0.6c0,0.1-0.1,0.2-0.1,0.2c0,0.1-0.1,0.2-0.1,0.3v0.2c0,0.2,0,0.3,0,0.5l0,0c0,0.1,0,0.3,0,0.4
						c0,0.1,0,0.1,0,0.2c0,0.2,0.1,0.4,0.2,0.6c0.1,0.3,0.3,0.5,0.5,0.8c0.1,0.1,0.1,0.2,0.2,0.2l0.1,0.1l14.1,14.1
						c0.7,0.7,1.6,1,2.6,0.9c0.2,0,0.3,0,0.5-0.1c0.5-0.1,1-0.4,1.4-0.8l4.3-4.3c-0.8-0.4-1.7-0.9-2.4-1.6c-1.3-1.1-2.3-2.5-3-4.2
						l-0.1-0.3c-0.1-0.4-0.2-0.6-0.3-1.1c0-0.3-0.1-0.5-0.1-0.7c0-0.1,0-0.2,0-0.3l-0.2-3l0.8,2.9c0.1,0.3,0.1,0.4,0.2,0.5
						c0,0.1,0.1,0.2,0.1,0.3c0.2,0.5,0.4,0.9,0.8,1.4c0.5,0.8,1.1,1.5,1.8,2c1.4,1.1,3,1.8,4.5,1.8l0,0l7.7-7.7
						c0.1-0.1,0.2-0.3,0.3-0.4c0.1-0.1,0.2-0.2,0.2-0.4c0.1-0.1,0.1-0.2,0.1-0.3c0.1-0.2,0.1-0.4,0.2-0.5v-0.2c0-0.1,0-0.2,0-0.3
						c0-0.2,0-0.4,0-0.6v-0.1c-0.1-0.5-0.3-1-0.7-1.4c-0.1-0.1-0.1-0.2-0.2-0.2L103.6,182.7z"/>
				</g>
			</g>
			<g>
				<polygon points="116.8,184.3 94.1,161.5 73.6,161.5 73.6,160.5 94.5,160.5 117.6,183.5 				"/>
			</g>
			<g>
				<g>
					<path d="M126.8,175.7l22.4,0.8l-18,40.5c-2.6,5.8-8.4,9.6-14.8,9.6h-40L74,208.8l12.9,8.9L126.8,175.7 M126.4,174.6l-0.3,0.3
						l-39.4,41.4l-12.2-8.4l-1.9-1.3l0.3,2.2l2.5,17.8l0.1,0.9h0.9h40c6.8,0,12.9-4,15.7-10.2l18.1-40.6l0.6-1.4l-1.5-0.1l-22.4-0.8
						L126.4,174.6L126.4,174.6z"/>
				</g>
			</g>
			<g>
				<polygon class="st1" points="78.4,226.6 86.7,217.8 126.8,175.7 138.6,176.1 93.8,226.6 				"/>
			</g>
			<g>
				<path d="M79.8,237.6l3.7,24.5c0.4,2.9,2.4,5.3,5.2,6.3l13.3,4.8l12.4-5.3c2.5-1.1,4.3-3.3,4.7-6l4.1-24.3l2.7-11.1H77.7
					L79.8,237.6z M88.7,230l0.9-2.3h23l0.7,1.6c2.2,4.7,3,10,2.2,15.2l-2.2,14.8l-11.6,5.6l-12.5-5.1L87,243.4
					C86.5,238.8,87.1,234.2,88.7,230z"/>
			</g>
			<g>
				<path d="M103,265.4c0,0-8.7-7.2-14.3-6.4s1.6,5.2,1.6,5.2L103,265.4z"/>
			</g>
			<g>
				<path d="M100.8,265c0,0,8.7-7.2,14.3-6.4s-1.6,5.2-1.6,5.2L100.8,265z"/>
			</g>
			<g>
				<polygon class="st1" points="151.1,175.1 154.9,163.9 123.1,162.6 120.4,173.9 				"/>
				<path d="M151.5,175.6l-31.7-1.2l2.9-12.3l32.9,1.3L151.5,175.6z M121,173.4l29.7,1.2l3.5-10.2l-30.7-1.3L121,173.4z"/>
			</g>
			<g>
				<path d="M116.3,175.3c-1.2,0-2.7-0.3-3.5-0.4c-1.5-0.3-5.1-1.2-4.8-2.5c0.1-0.7,1.1-0.8,2-0.7c0.9,0,2.1,0.2,3.4,0.4
					c1.5,0.3,5.1,1.2,4.8,2.5C118.1,175.2,117.3,175.3,116.3,175.3z M109.3,172.7c0.6,0.3,1.8,0.8,3.7,1.2c1.9,0.4,3.2,0.5,3.8,0.4
					c-0.6-0.3-1.8-0.8-3.7-1.2C111.3,172.7,110,172.7,109.3,172.7z"/>
			</g>
			<g>
				<path d="M117.2,174.6l-1.7-5.6c-0.1-0.4-0.4-0.6-0.7-0.7c-0.4-0.1-0.8,0-1.1,0.2l-4.8,4.4l-0.7-0.7l4.8-4.4
					c0.6-0.5,1.3-0.7,2-0.5c0.7,0.2,1.2,0.7,1.4,1.4l1.7,5.6L117.2,174.6z"/>
			</g>
			<g>
				<path d="M118.7,168.1c-0.1,0-0.1,0-0.2,0c-0.3-0.1-0.4-0.4-0.3-0.7c0.4-1,0.1-2-0.1-2.3c-0.1,0-0.1,0-0.2-0.1
					c-0.2-0.2-0.3-0.5-0.1-0.7c0.2-0.3,0.5-0.3,0.8-0.2c0.6,0.3,1.3,2.1,0.6,3.7C119.1,168,118.9,168.1,118.7,168.1z"/>
			</g>
			<g>
				<path d="M112.5,164.8c-0.1,0-0.3-0.1-0.4-0.2c-0.2-0.2-0.2-0.5,0-0.7c3.2-3.1,8.1-0.7,8.3-0.6c0.2,0.1,0.3,0.4,0.2,0.7
					s-0.4,0.3-0.7,0.2c0,0-4.4-2.2-7.1,0.4C112.8,164.8,112.6,164.8,112.5,164.8z"/>
			</g>
		</g>
	</g>
</g>
</svg>
