<?xml version="1.0" encoding="utf-8"?>
<!-- Generator: Adobe Illustrator 25.2.0, SVG Export Plug-In . SVG Version: 6.00 Build 0)  -->
<svg version="1.1" id="Layer_1" xmlns="http://www.w3.org/2000/svg" xmlns:xlink="http://www.w3.org/1999/xlink" x="0px" y="0px"
	 viewBox="0 0 224.2 312.8" style="enable-background:new 0 0 224.2 312.8;" xml:space="preserve">
<style type="text/css">
	.st0{opacity:2.000000e-02;enable-background:new    ;}
	.st1{opacity:5.000000e-02;enable-background:new    ;}
	.st2{fill:#B20033;}
	.st3{fill:#050307;}
	.st4{enable-background:new    ;}
	.st5{fill:none;stroke:#000000;stroke-miterlimit:10;}
</style>
<g>
	<g class="st0">
		<rect x="-0.2" y="0.7" width="224.4" height="312.1"/>
	</g>
	<g class="st1">
		<path d="M173.4,283.5H50.6c-4.2,0-7.5-3.4-7.5-7.5V37.6c0-4.2,3.4-7.5,7.5-7.5h122.9c4.2,0,7.5,3.4,7.5,7.5V276
			C181,280.1,177.6,283.5,173.4,283.5z"/>
	</g>
	<g>
		<g>
			<path class="st2" d="M133.7,61.6c0,0.2,0,0.5,0,0.7c0,0.1,0,0.2-0.1,0.3c0,0.2-0.1,0.3-0.1,0.5c0,0.1-0.1,0.2-0.1,0.3
				c-0.1,0.3-0.3,0.6-0.5,0.8c-0.1,0.2-0.3,0.4-0.5,0.5l0,0l-4.7,4.7l-3.8,3.8l-1,1h-0.2c-2.1-0.1-4.1-0.9-5.8-2.3
				c-0.9-0.7-1.7-1.6-2.3-2.5c-0.4-0.5-0.7-1.1-1-1.7s-0.3-0.5-0.4-1.1c0,0.4,0,0.8,0.1,1.2c0.1,0.8,0.2,0.9,0.5,1.6
				c0.8,2,2,3.7,3.5,4.9c1,0.9,2.1,1.7,3.4,2.2l-5.6,5.6c-0.2,0.2-0.5,0.5-0.8,0.6c-0.2,0.1-0.4,0.2-0.6,0.3
				c-0.9,0.4-1.9,0.4-2.8,0.1c-0.4-0.1-0.8-0.3-1.1-0.5c-0.2-0.1-0.5-0.3-0.7-0.5L91.6,64.7l0,0c-0.1-0.1-0.2-0.2-0.3-0.3
				c-0.5-0.5-0.7-1.2-0.9-1.9v-0.1c-0.1-0.3-0.1-0.6-0.1-0.8s0-0.3,0-0.5c0-0.1,0-0.2,0.1-0.3c0.1-0.2,0.1-0.5,0.2-0.7
				c0.1-0.1,0.1-0.3,0.2-0.4c0.1-0.2,0.2-0.3,0.3-0.5c0.1-0.2,0.3-0.4,0.5-0.5l0,0l4.7-4.7l3.8-3.8l1-1h0.2c2.1,0.1,4.1,0.9,5.8,2.3
				c0.9,0.7,1.7,1.6,2.3,2.5c0.4,0.5,0.7,1.1,1,1.7c0.3,0.6,0.3,0.5,0.4,1.1c0-0.4,0-0.8-0.1-1.2c-0.1-0.8-0.2-0.9-0.5-1.6
				c-0.8-2-2-3.7-3.5-4.9c-1-0.9-2.1-1.7-3.4-2.2l5.6-5.6c0.5-0.6,1.2-0.9,1.9-1.1c0.2-0.1,0.4-0.1,0.7-0.1c1.2-0.1,2.5,0.3,3.5,1.2
				l0,0l17.4,17.4l0,0c0.1,0.1,0.2,0.2,0.3,0.3c0.3,0.3,0.5,0.7,0.7,1.1c0.1,0.3,0.2,0.5,0.2,0.8c0,0.1,0,0.1,0,0.2
				C133.6,61.2,133.7,61.4,133.7,61.6z"/>
		</g>
		<g>
			<path class="st3" d="M112,83.8c-0.5,0-0.9-0.1-1.3-0.2s-0.8-0.3-1.2-0.6c-0.2-0.1-0.5-0.4-0.7-0.6L91.2,64.9
				c-0.1-0.1-0.1-0.2-0.2-0.2c-0.5-0.6-0.8-1.3-1-2c0-0.1,0-0.2,0-0.2c-0.1-0.3-0.1-0.6-0.1-0.9c0-0.1,0-0.3,0-0.5l0.1-0.3
				c0.1-0.3,0.1-0.5,0.2-0.8c0.1-0.1,0.1-0.3,0.2-0.4c0.1-0.2,0.2-0.3,0.3-0.5c0.1-0.1,0.2-0.3,0.4-0.5l0,0l0.1-0.1l9.6-9.6h0.4
				c2.1,0.1,4.2,0.9,6,2.4c0.9,0.7,1.7,1.6,2.4,2.6c-0.7-1.7-1.8-3.2-3.2-4.4c-1-0.9-2.1-1.6-3.3-2.1l-0.6-0.2l6-6
				c0.6-0.6,1.3-1,2.1-1.2c0.2-0.1,0.5-0.1,0.7-0.1c1.3-0.2,2.7,0.3,3.7,1.2l0,0l0.1,0.1l17.5,17.5c0.1,0.1,0.1,0.2,0.2,0.2
				c0.3,0.4,0.6,0.8,0.7,1.2c0.1,0.3,0.2,0.5,0.2,0.8c0,0.1,0,0.2,0,0.3s0.1,0.3,0.1,0.5s0,0.5,0,0.8v0.1c0,0.1,0,0.1,0,0.2
				c0,0.2-0.1,0.3-0.1,0.5c0,0.1-0.1,0.2-0.1,0.3c-0.1,0.3-0.3,0.6-0.5,0.9c-0.1,0.2-0.2,0.3-0.4,0.5l0,0l-0.1,0.1l-9.6,9.6h-0.4
				c-2.1-0.1-4.2-0.9-6-2.4c-0.9-0.7-1.7-1.6-2.4-2.6c0.7,1.7,1.8,3.2,3.2,4.4c1,0.9,2.1,1.6,3.3,2.1l0.6,0.2l-6.1,6.1
				c-0.2,0.2-0.5,0.5-0.9,0.7c-0.2,0.1-0.4,0.2-0.7,0.3C113.2,83.6,112.6,83.8,112,83.8z M92,64.6l17.3,17.3
				c0.2,0.2,0.4,0.4,0.6,0.5c0.3,0.2,0.7,0.4,1,0.5c0.8,0.3,1.8,0.2,2.6-0.1c0.2-0.1,0.4-0.2,0.6-0.3c0.3-0.2,0.5-0.4,0.7-0.6
				l5.2-5.2c-1-0.5-2-1.2-3-2c-1.6-1.3-2.9-3.1-3.6-5.1l-0.1-0.3c-0.2-0.5-0.3-0.7-0.4-1.4c-0.1-0.3-0.1-0.6-0.1-0.9
				c0-0.1,0-0.2,0-0.4l-0.2-3.7l1,3.6c0.1,0.4,0.1,0.5,0.2,0.7c0,0.1,0.1,0.2,0.2,0.3c0.2,0.6,0.5,1.1,0.9,1.7
				c0.7,1,1.4,1.8,2.2,2.5c1.7,1.4,3.6,2.2,5.5,2.2h0.1l9.4-9.4c0.2-0.2,0.3-0.3,0.4-0.5c0.2-0.2,0.3-0.5,0.4-0.7
				c0-0.1,0.1-0.2,0.1-0.3c0.1-0.1,0.1-0.3,0.1-0.4l0.1-0.3c0-0.2,0-0.4,0-0.6l0,0c0-0.2,0-0.3,0-0.5c0-0.1,0-0.2,0-0.2
				c-0.1-0.2-0.1-0.5-0.2-0.7c-0.1-0.3-0.3-0.7-0.6-1c-0.1-0.1-0.2-0.2-0.3-0.3l-0.1-0.1l-17.3-17.3c-0.8-0.8-2-1.2-3.2-1.1
				c-0.2,0-0.4,0.1-0.6,0.1c-0.7,0.2-1.3,0.5-1.7,1l-5.2,5.2c1,0.5,2,1.2,3,2c1.6,1.3,2.9,3.1,3.6,5.1l0.1,0.3
				c0.2,0.5,0.3,0.7,0.4,1.4c0.1,0.3,0.1,0.6,0.1,0.9c0,0.1,0,0.2,0,0.4l0.2,3.7l-1-3.6c-0.1-0.4-0.1-0.5-0.2-0.7
				c0-0.1-0.1-0.2-0.2-0.3c-0.2-0.6-0.5-1.1-0.9-1.7c-0.7-1-1.4-1.8-2.2-2.5c-1.7-1.4-3.6-2.2-5.5-2.2h-0.1L91.9,59
				c-0.2,0.2-0.3,0.3-0.4,0.5s-0.2,0.3-0.3,0.4c-0.1,0.1-0.1,0.2-0.2,0.4s-0.2,0.4-0.2,0.7l-0.1,0.3c0,0.1,0,0.3,0,0.4
				c0,0.3,0,0.5,0,0.8v0.1c0.1,0.6,0.4,1.2,0.8,1.7c0.1,0.1,0.2,0.2,0.3,0.3L92,64.6z"/>
		</g>
	</g>
	<g>
		<g>
			<path class="st2" d="M133.7,251.9c0,0.2,0,0.5,0,0.7c0,0.1,0,0.2-0.1,0.3c0,0.2-0.1,0.3-0.1,0.5c0,0.1-0.1,0.2-0.1,0.3
				c-0.1,0.3-0.3,0.6-0.5,0.8c-0.1,0.2-0.3,0.4-0.5,0.5l0,0l-4.7,4.7l-3.8,3.8l-1,1h-0.2c-2.1-0.1-4.1-0.9-5.8-2.3
				c-0.9-0.7-1.7-1.6-2.3-2.5c-0.4-0.5-0.7-1.1-1-1.7s-0.3-0.5-0.4-1.1c0,0.4,0,0.8,0.1,1.2c0.1,0.8,0.2,0.9,0.5,1.6
				c0.8,2,2,3.7,3.5,4.9c1,0.9,2.1,1.7,3.4,2.2l-5.6,5.6c-0.2,0.2-0.5,0.5-0.8,0.6c-0.2,0.1-0.4,0.2-0.6,0.3
				c-0.9,0.4-1.9,0.4-2.8,0.1c-0.4-0.1-0.8-0.3-1.1-0.5c-0.2-0.1-0.5-0.3-0.7-0.5L91.7,255l0,0c-0.1-0.1-0.2-0.2-0.3-0.3
				c-0.5-0.5-0.7-1.2-0.9-1.9v-0.1c-0.1-0.3-0.1-0.6-0.1-0.8s0-0.3,0-0.5c0-0.1,0-0.2,0.1-0.3c0.1-0.2,0.1-0.5,0.2-0.7
				c0.1-0.1,0.1-0.3,0.2-0.4c0.1-0.2,0.2-0.3,0.3-0.5c0.1-0.2,0.3-0.4,0.5-0.5l0,0l4.7-4.7l3.8-3.8l1-1h0.2c2.1,0.1,4.1,0.9,5.8,2.3
				c0.9,0.7,1.7,1.6,2.3,2.5c0.4,0.5,0.7,1.1,1,1.7c0.3,0.6,0.3,0.5,0.4,1.1c0-0.4,0-0.8-0.1-1.2c-0.1-0.8-0.2-0.9-0.5-1.6
				c-0.8-2-2-3.7-3.5-4.9c-1-0.9-2.1-1.7-3.4-2.2l5.6-5.6c0.5-0.6,1.2-0.9,1.9-1.1c0.2-0.1,0.4-0.1,0.7-0.1c1.2-0.1,2.5,0.3,3.5,1.2
				l0,0l17.4,17.4l0,0c0.1,0.1,0.2,0.2,0.3,0.3c0.3,0.3,0.5,0.7,0.7,1.1c0.1,0.3,0.2,0.5,0.2,0.8c0,0.1,0,0.1,0,0.2
				C133.6,251.6,133.7,251.8,133.7,251.9z"/>
		</g>
		<g>
			<path class="st3" d="M112,274.1c-0.5,0-0.9-0.1-1.3-0.2s-0.8-0.3-1.2-0.6c-0.2-0.1-0.5-0.4-0.7-0.6l-17.5-17.5
				c-0.1-0.1-0.1-0.2-0.2-0.2c-0.5-0.6-0.8-1.3-1-2c0-0.1,0-0.2,0-0.2c-0.1-0.3-0.1-0.6-0.1-0.9c0-0.1,0-0.3,0-0.5l0-0.4
				c0.1-0.3,0.1-0.5,0.2-0.8c0.1-0.1,0.1-0.3,0.2-0.4c0.1-0.2,0.2-0.3,0.3-0.5c0.1-0.1,0.2-0.3,0.4-0.5l0,0l0.1-0.1l9.6-9.6h0.4
				c2.1,0.1,4.2,0.9,6,2.4c0.9,0.7,1.7,1.6,2.4,2.6c-0.7-1.7-1.8-3.2-3.2-4.4c-1-0.9-2.1-1.6-3.3-2.1l-0.6-0.2l6-6
				c0.6-0.6,1.3-1,2.1-1.2c0.2-0.1,0.5-0.1,0.7-0.1c1.3-0.2,2.7,0.3,3.7,1.2l0,0l0.1,0.1l17.5,17.5c0.1,0.1,0.1,0.2,0.2,0.2
				c0.3,0.4,0.6,0.8,0.7,1.2c0.1,0.3,0.2,0.5,0.2,0.8c0,0.1,0,0.2,0,0.3s0.1,0.3,0.1,0.5s0,0.5,0,0.8v0.1c0,0.1,0,0.1,0,0.2
				c0,0.2-0.1,0.3-0.1,0.5c0,0.1-0.1,0.2-0.1,0.3c-0.1,0.3-0.3,0.6-0.5,0.9c-0.1,0.2-0.2,0.3-0.4,0.5l0,0l-0.1,0.1l-9.6,9.6h-0.4
				c-2.1-0.1-4.2-0.9-6-2.4c-0.9-0.7-1.7-1.6-2.4-2.6c0.7,1.7,1.8,3.2,3.2,4.4c1,0.9,2.1,1.6,3.3,2.1l0.6,0.2l-6.1,6.1
				c-0.2,0.2-0.5,0.5-0.9,0.7c-0.2,0.1-0.4,0.2-0.7,0.3C113.2,274,112.6,274.1,112,274.1z M92,254.9l17.3,17.3
				c0.2,0.2,0.4,0.4,0.6,0.5c0.3,0.2,0.7,0.4,1,0.5c0.8,0.3,1.8,0.2,2.6-0.1c0.2-0.1,0.4-0.2,0.6-0.3c0.3-0.2,0.5-0.4,0.7-0.6
				l5.2-5.2c-1-0.5-2-1.2-3-2c-1.6-1.3-2.9-3.1-3.6-5.1l-0.1-0.3c-0.2-0.5-0.3-0.7-0.4-1.4c-0.1-0.3-0.1-0.6-0.1-0.9
				c0-0.1,0-0.2,0-0.4l-0.2-3.7l1,3.6c0.1,0.4,0.1,0.5,0.2,0.7c0,0.1,0.1,0.2,0.2,0.3c0.2,0.6,0.5,1.1,0.9,1.7
				c0.7,1,1.4,1.8,2.2,2.5c1.7,1.4,3.6,2.2,5.5,2.2h0.1l9.4-9.4c0.2-0.2,0.3-0.3,0.4-0.5c0.2-0.2,0.3-0.5,0.4-0.7
				c0-0.1,0.1-0.2,0.1-0.3c0.1-0.1,0.1-0.3,0.1-0.4l0.1-0.3c0-0.2,0-0.4,0-0.6l0,0c0-0.2,0-0.3,0-0.5c0-0.1,0-0.2,0-0.2
				c-0.1-0.2-0.1-0.5-0.2-0.7c-0.1-0.3-0.3-0.7-0.6-1c-0.1-0.1-0.2-0.2-0.3-0.3l-0.1-0.1l-17.3-17.3c-0.8-0.8-2-1.2-3.2-1.1
				c-0.2,0-0.4,0.1-0.6,0.1c-0.7,0.2-1.3,0.5-1.7,1l-5.2,5.2c1,0.5,2,1.2,3,2c1.6,1.3,2.9,3.1,3.6,5.1l0.1,0.3
				c0.2,0.5,0.3,0.7,0.4,1.4c0.1,0.3,0.1,0.6,0.1,0.9c0,0.1,0,0.2,0,0.4l0.2,3.7l-1-3.6c-0.1-0.4-0.1-0.5-0.2-0.7
				c0-0.1-0.1-0.2-0.2-0.3c-0.2-0.6-0.5-1.1-0.9-1.7c-0.7-1-1.4-1.8-2.2-2.5c-1.7-1.4-3.6-2.2-5.5-2.2h-0.1l-9.4,9.4
				c-0.2,0.2-0.3,0.3-0.4,0.5s-0.2,0.3-0.3,0.4c-0.1,0.1-0.1,0.2-0.2,0.4s-0.2,0.4-0.2,0.7l-0.1,0.3c0,0.1,0,0.3,0,0.4
				c0,0.3,0,0.5,0,0.8v0.1c0.1,0.6,0.4,1.2,0.8,1.7c0.1,0.1,0.2,0.2,0.3,0.3L92,254.9z"/>
		</g>
	</g>
	<g>
		<g>
			<g>
				<path class="st2" d="M186.1,267.9c0-0.2,0-0.3,0-0.5c0-0.1,0-0.1,0-0.2s0.1-0.2,0.1-0.3c0-0.1,0.1-0.2,0.1-0.2
					c0.1-0.2,0.2-0.4,0.3-0.6c0.1-0.1,0.2-0.3,0.3-0.4l0,0l3.4-3.3l2.8-2.8l0.7-0.7h0.2c1.5,0,3,0.7,4.1,1.7
					c0.6,0.5,1.2,1.1,1.7,1.8c0.3,0.4,0.5,0.8,0.7,1.3c0.2,0.4,0.2,0.3,0.3,0.8c0-0.3,0-0.6-0.1-0.9c-0.1-0.6-0.2-0.7-0.4-1.2
					c-0.5-1.4-1.4-2.6-2.5-3.5c-0.7-0.7-1.5-1.2-2.4-1.5l4-4c0.2-0.2,0.4-0.3,0.6-0.5c0.1-0.1,0.3-0.2,0.4-0.2
					c0.6-0.3,1.4-0.3,2-0.1c0.3,0.1,0.6,0.2,0.8,0.4c0.2,0.1,0.3,0.2,0.5,0.4l12.5,12.5l0,0c0.1,0.1,0.1,0.2,0.2,0.2
					c0.3,0.4,0.5,0.9,0.6,1.3v0.1c0,0.2,0.1,0.4,0,0.6c0,0.1,0,0.2,0,0.3c0,0.1,0,0.1,0,0.2c0,0.2-0.1,0.3-0.2,0.5
					c0,0.1-0.1,0.2-0.1,0.3c-0.1,0.1-0.1,0.2-0.2,0.3c-0.1,0.1-0.2,0.3-0.3,0.4l0,0l-3.4,3.3l-2.8,2.8l-0.7,0.7h-0.2
					c-1.5,0-3-0.7-4.1-1.7c-0.6-0.5-1.2-1.1-1.7-1.8c-0.3-0.4-0.5-0.8-0.7-1.3c-0.2-0.4-0.2-0.3-0.3-0.8c0,0.3,0,0.6,0.1,0.9
					c0.1,0.6,0.2,0.7,0.4,1.2c0.5,1.4,1.4,2.6,2.5,3.5c0.7,0.7,1.5,1.2,2.4,1.5l-4,4c-0.4,0.4-0.9,0.7-1.4,0.8
					c-0.2,0-0.3,0.1-0.5,0.1c-0.9,0.1-1.8-0.2-2.5-0.9l0,0L187,270.1l0,0c-0.1-0.1-0.1-0.2-0.2-0.2c-0.2-0.2-0.4-0.5-0.5-0.8
					c-0.1-0.2-0.1-0.4-0.2-0.6v-0.1C186.1,268.2,186.1,268.1,186.1,267.9z"/>
			</g>
			<g>
				<path class="st3" d="M201.6,252c0.3,0,0.6,0,1,0.1c0.3,0.1,0.6,0.2,0.9,0.4c0.2,0.1,0.4,0.3,0.5,0.4l12.6,12.6
					c0.1,0.1,0.1,0.1,0.1,0.2c0.3,0.4,0.6,0.9,0.7,1.5c0,0.1,0,0.1,0,0.2c0,0.2,0.1,0.4,0,0.6c0,0.1,0,0.2,0,0.4v0.2
					c0,0.2-0.1,0.4-0.2,0.6c0,0.1-0.1,0.2-0.1,0.3c-0.1,0.1-0.1,0.2-0.2,0.4c-0.1,0.1-0.2,0.2-0.3,0.3l0,0l-0.1,0.1l-6.9,6.9h-0.3
					c-1.5,0-3-0.7-4.3-1.7c-0.6-0.5-1.2-1.1-1.7-1.9c0.5,1.2,1.3,2.3,2.3,3.2c0.7,0.7,1.5,1.2,2.3,1.5l0.4,0.2l-4.3,4.3
					c-0.4,0.4-0.9,0.7-1.5,0.9c-0.2,0.1-0.3,0.1-0.5,0.1c-1,0.1-1.9-0.2-2.6-0.9l0,0l-0.1-0.1l-12.6-12.6c-0.1-0.1-0.1-0.1-0.1-0.2
					c-0.2-0.3-0.4-0.6-0.5-0.9c-0.1-0.2-0.1-0.4-0.2-0.6c0-0.1,0-0.2,0-0.2c0-0.1,0-0.2,0-0.4c0-0.2,0-0.3,0-0.5v-0.1v-0.1
					c0-0.1,0.1-0.2,0.1-0.4c0-0.1,0.1-0.2,0.1-0.2c0.1-0.2,0.2-0.4,0.4-0.6c0.1-0.1,0.2-0.2,0.3-0.3l0,0l0.1-0.1l6.9-6.9h0.3
					c1.5,0,3,0.7,4.3,1.7c0.6,0.5,1.2,1.1,1.7,1.9c-0.5-1.2-1.3-2.3-2.3-3.2c-0.7-0.7-1.5-1.2-2.3-1.5l-0.4-0.2l4.3-4.4
					c0.2-0.2,0.4-0.3,0.6-0.5c0.2-0.1,0.3-0.2,0.5-0.2C200.8,252.1,201.2,252,201.6,252z M216,265.8l-12.4-12.4
					c-0.1-0.1-0.3-0.3-0.4-0.4c-0.2-0.2-0.5-0.3-0.7-0.3c-0.6-0.2-1.3-0.2-1.8,0.1c-0.1,0.1-0.3,0.1-0.4,0.2
					c-0.2,0.1-0.4,0.3-0.5,0.4l-3.8,3.8c0.7,0.3,1.5,0.8,2.1,1.4c1.2,1,2.1,2.2,2.6,3.7l0.1,0.2c0.1,0.3,0.2,0.5,0.3,1
					c0,0.2,0,0.4,0,0.6c0,0.1,0,0.2,0,0.3l0.1,2.6l-0.7-2.6c-0.1-0.3-0.1-0.3-0.2-0.5c0-0.1-0.1-0.1-0.1-0.2
					c-0.2-0.4-0.4-0.8-0.7-1.2c-0.5-0.7-1-1.3-1.6-1.8c-1.2-1-2.6-1.6-4-1.6l0,0l-6.8,6.8c-0.1,0.1-0.2,0.2-0.3,0.3
					c-0.1,0.2-0.2,0.4-0.3,0.5c0,0.1-0.1,0.1-0.1,0.2s-0.1,0.2-0.1,0.3v0.2c0,0.1,0,0.3,0,0.4l0,0c0,0.1,0,0.2,0,0.3
					c0,0.1,0,0.1,0,0.1c0,0.2,0.1,0.3,0.2,0.5c0.1,0.2,0.2,0.5,0.4,0.7c0.1,0.1,0.1,0.1,0.2,0.2l0.1,0.1l12.4,12.4
					c0.6,0.6,1.4,0.9,2.3,0.8c0.1,0,0.3,0,0.4-0.1c0.5-0.1,0.9-0.4,1.2-0.7l3.7-3.7c-0.7-0.3-1.5-0.8-2.1-1.4
					c-1.2-1-2.1-2.2-2.6-3.7l-0.1-0.2c-0.1-0.3-0.2-0.5-0.3-1c0-0.2,0-0.4,0-0.6c0-0.1,0-0.2,0-0.3l-0.1-2.6l0.7,2.6
					c0.1,0.3,0.1,0.3,0.2,0.5c0,0.1,0.1,0.1,0.1,0.2c0.2,0.4,0.4,0.8,0.7,1.2c0.5,0.7,1,1.3,1.6,1.8c1.2,1,2.6,1.6,4,1.6l0,0
					l6.8-6.8c0.1-0.1,0.2-0.2,0.3-0.3c0.1-0.1,0.1-0.2,0.2-0.3c0.1-0.1,0.1-0.2,0.1-0.3c0.1-0.2,0.1-0.3,0.1-0.5v-0.2
					c0-0.1,0-0.2,0-0.3c0-0.2,0-0.4,0-0.6v-0.1c-0.1-0.5-0.3-0.9-0.6-1.2C216.2,266,216.2,266,216,265.8L216,265.8z"/>
			</g>
		</g>
		<g class="st4">
			<path d="M202.5,241.1c-1.4,0-2.7-0.3-3.7-0.9c-1-0.6-1.8-1.4-2.4-2.4s-0.8-2.1-0.8-3.4c0-1.2,0.3-2.3,0.8-3.3s1.3-2,2.1-2.9
				l6.7-7.1h-10.5v-2.1h13.7v1.7l-8.3,8.7c-0.7,0.8-1.3,1.6-1.7,2.4c-0.4,0.8-0.6,1.7-0.6,2.6c0,1.3,0.4,2.4,1.3,3.3s2,1.3,3.4,1.3
				c1.2,0,2.2-0.3,3-0.8c0.8-0.5,1.5-1.2,2.1-2.1l1.5,1.3C207.5,239.9,205.3,241.1,202.5,241.1z"/>
		</g>
		<g class="st4">
			<path class="st5" d="M202.5,241.1c-1.4,0-2.7-0.3-3.7-0.9c-1-0.6-1.8-1.4-2.4-2.4s-0.8-2.1-0.8-3.4c0-1.2,0.3-2.3,0.8-3.3
				s1.3-2,2.1-2.9l6.7-7.1h-10.5v-2.1h13.7v1.7l-8.3,8.7c-0.7,0.8-1.3,1.6-1.7,2.4c-0.4,0.8-0.6,1.7-0.6,2.6c0,1.3,0.4,2.4,1.3,3.3
				s2,1.3,3.4,1.3c1.2,0,2.2-0.3,3-0.8c0.8-0.5,1.5-1.2,2.1-2.1l1.5,1.3C207.5,239.9,205.3,241.1,202.5,241.1z"/>
		</g>
	</g>
	<g>
		<g>
			<g>
				<path class="st2" d="M38.3,47.3c0,0.2,0,0.3,0,0.5c0,0.1,0,0.1,0,0.2c0,0.1-0.1,0.2-0.1,0.3s-0.1,0.2-0.1,0.2
					c-0.1,0.2-0.2,0.4-0.3,0.6c-0.1,0.1-0.2,0.3-0.3,0.4l0,0L34,52.8l-2.8,2.8l-0.7,0.7h-0.2c-1.5,0-3-0.7-4.1-1.7
					c-0.6-0.5-1.2-1.1-1.7-1.8c-0.3-0.4-0.5-0.8-0.7-1.3c-0.2-0.4-0.2-0.3-0.3-0.8c0,0.3,0,0.6,0.1,0.9c0.1,0.6,0.2,0.7,0.4,1.2
					c0.5,1.4,1.4,2.6,2.5,3.5c0.7,0.7,1.5,1.2,2.4,1.5l-4,4c-0.2,0.2-0.4,0.3-0.6,0.5c-0.1,0.1-0.3,0.2-0.4,0.2
					c-0.6,0.3-1.4,0.3-2,0.1c-0.3-0.1-0.6-0.2-0.8-0.4c-0.2-0.1-0.3-0.2-0.5-0.4L8.1,49.5l0,0C8,49.4,8,49.3,7.9,49.3
					c-0.3-0.4-0.5-0.9-0.6-1.3v-0.1c0-0.2-0.1-0.4,0-0.6c0-0.1,0-0.2,0-0.3s0-0.1,0-0.2c0-0.2,0.1-0.3,0.2-0.5
					c0-0.1,0.1-0.2,0.1-0.3c0.1-0.1,0.1-0.2,0.2-0.3s0.2-0.3,0.3-0.4l0,0l3.4-3.3l2.8-2.8l0.7-0.7h0.2c1.5,0,3,0.7,4.1,1.7
					c0.6,0.5,1.2,1.1,1.7,1.8c0.3,0.4,0.5,0.8,0.7,1.3c0.2,0.4,0.2,0.3,0.3,0.8c0-0.3,0-0.6-0.1-0.9c-0.1-0.6-0.2-0.7-0.4-1.2
					c-0.5-1.4-1.4-2.6-2.5-3.5c-0.7-0.7-1.5-1.2-2.4-1.5l4-4c0.4-0.4,0.9-0.7,1.4-0.8c0.2,0,0.3-0.1,0.5-0.1
					c0.9-0.1,1.8,0.2,2.5,0.9l0,0l12.5,12.5l0,0c0.1,0.1,0.1,0.2,0.2,0.2c0.2,0.2,0.4,0.5,0.5,0.8c0.1,0.2,0.1,0.4,0.2,0.6v0.1
					C38.3,47,38.3,47.1,38.3,47.3z"/>
			</g>
			<g>
				<path class="st3" d="M22.7,63.2c-0.3,0-0.6,0-1-0.1c-0.3-0.1-0.6-0.2-0.9-0.4c-0.2-0.1-0.4-0.3-0.5-0.4L7.8,49.6
					c-0.1-0.1-0.1-0.1-0.1-0.2C7.3,49,7.1,48.5,6.9,48c0-0.1,0-0.1,0-0.2c0-0.2-0.1-0.4,0-0.6c0-0.1,0-0.2,0-0.4v-0.2
					c0-0.2,0.1-0.4,0.2-0.6c0-0.1,0.1-0.2,0.1-0.3c0.1-0.1,0.1-0.2,0.2-0.4c0.1-0.1,0.2-0.2,0.3-0.3l0,0h0.2l6.9-6.9h0.3
					c1.5,0,3,0.7,4.3,1.7c0.6,0.5,1.2,1.1,1.7,1.9c-0.5-1.2-1.3-2.3-2.3-3.2c-0.7-0.7-1.5-1.2-2.3-1.5L16,36.8l4.3-4.3
					c0.4-0.4,0.9-0.7,1.5-0.9c0.2-0.1,0.3-0.1,0.5-0.1c1-0.1,1.9,0.2,2.6,0.9l0,0l0.1,0.1L37.7,45c0.1,0.1,0.1,0.1,0.1,0.2
					c0.2,0.3,0.4,0.6,0.5,0.9c0.1,0.2,0.1,0.4,0.2,0.6c0,0.1,0,0.2,0,0.2c0,0.1,0,0.2,0,0.4s0,0.3,0,0.5v0.1V48
					c0,0.1-0.1,0.2-0.1,0.4c0,0.1-0.1,0.2-0.1,0.2c-0.1,0.2-0.2,0.4-0.4,0.6c-0.1,0.1-0.2,0.2-0.3,0.3l0,0l-0.1,0.1l-6.9,6.9h-0.3
					c-1.5,0-3-0.7-4.3-1.7c-0.6-0.5-1.2-1.1-1.7-1.9c0.5,1.2,1.3,2.3,2.3,3.2c0.7,0.7,1.5,1.2,2.3,1.5l0.4,0.2L25,62.2
					c-0.2,0.2-0.4,0.3-0.6,0.5c-0.2,0.1-0.3,0.2-0.5,0.2C23.6,63.1,23.2,63.2,22.7,63.2z M8.3,49.4l12.4,12.4
					c0.1,0.1,0.3,0.3,0.4,0.4c0.2,0.2,0.5,0.3,0.7,0.3c0.6,0.2,1.3,0.2,1.8-0.1c0.1-0.1,0.3-0.1,0.4-0.2c0.2-0.1,0.4-0.3,0.5-0.4
					l3.8-3.8c-0.7-0.3-1.5-0.8-2.1-1.4c-1.2-1-2.1-2.2-2.6-3.7l-0.1-0.2c-0.1-0.3-0.2-0.5-0.3-1c0-0.2,0-0.4,0-0.6
					c0-0.1,0-0.2,0-0.3l-0.1-2.6l0.7,2.6c0.1,0.3,0.1,0.3,0.2,0.5c0,0.1,0.1,0.1,0.1,0.2c0.2,0.4,0.4,0.8,0.7,1.2
					c0.5,0.7,1,1.3,1.6,1.8c1.2,1,2.6,1.6,4,1.6l0,0l6.8-6.8c0.1-0.1,0.2-0.2,0.3-0.3c0.1-0.2,0.2-0.4,0.3-0.5
					c0-0.1,0.1-0.1,0.1-0.2c0-0.1,0.1-0.2,0.1-0.3v-0.2c0-0.1,0-0.3,0-0.4l0,0c0-0.1,0-0.2,0-0.3s0-0.1,0-0.1c0-0.2-0.1-0.3-0.2-0.5
					c-0.1-0.2-0.2-0.5-0.4-0.7c-0.1-0.1-0.1-0.1-0.2-0.2l-0.1-0.1L24.7,32.9c-0.6-0.6-1.4-0.9-2.3-0.8c-0.1,0-0.3,0-0.4,0.1
					c-0.5,0.1-0.9,0.4-1.2,0.7L17,36.6c0.7,0.3,1.5,0.8,2.1,1.4c1.2,1,2.1,2.2,2.6,3.7l0.1,0.2c0.1,0.3,0.2,0.5,0.3,1
					c0,0.2,0,0.4,0,0.6c0,0.1,0,0.2,0,0.3l0.1,2.6l-0.7-2.6c-0.1-0.3-0.1-0.3-0.2-0.5c0-0.1-0.1-0.1-0.1-0.2
					c-0.2-0.4-0.4-0.8-0.7-1.2c-0.5-0.7-1-1.3-1.6-1.8c-1.2-1-2.6-1.6-4-1.6l0,0l-6.8,6.8c0,0.2-0.1,0.3-0.1,0.4
					c-0.1,0.1-0.1,0.2-0.2,0.3s-0.1,0.2-0.1,0.3c-0.1,0.2-0.1,0.3-0.1,0.5V47c0,0.1,0,0.2,0,0.3c0,0.2,0,0.4,0,0.6V48
					c0.1,0.5,0.3,0.9,0.6,1.2C8.1,49.2,8.2,49.2,8.3,49.4L8.3,49.4z"/>
			</g>
		</g>
		<g class="st4">
			<path d="M21.5,74.1c1.4,0,2.7,0.3,3.7,0.9c1,0.6,1.8,1.4,2.4,2.4c0.5,1,0.8,2.1,0.8,3.4c0,1.2-0.3,2.3-0.8,3.3
				c-0.5,1-1.3,2-2.1,2.9l-6.7,7.1h10.5v2.1H15.4v-1.7l8.3-8.7c0.7-0.8,1.3-1.6,1.7-2.4c0.4-0.8,0.6-1.7,0.6-2.6
				c0-1.3-0.4-2.4-1.3-3.3s-2-1.3-3.4-1.3c-1.2,0-2.2,0.3-3,0.8c-0.8,0.5-1.5,1.2-2.1,2.1l-1.5-1.3C16.5,75.3,18.7,74.1,21.5,74.1z"
				/>
		</g>
		<g class="st4">
			<path class="st5" d="M21.5,74.1c1.4,0,2.7,0.3,3.7,0.9c1,0.6,1.8,1.4,2.4,2.4c0.5,1,0.8,2.1,0.8,3.4c0,1.2-0.3,2.3-0.8,3.3
				c-0.5,1-1.3,2-2.1,2.9l-6.7,7.1h10.5v2.1H15.4v-1.7l8.3-8.7c0.7-0.8,1.3-1.6,1.7-2.4c0.4-0.8,0.6-1.7,0.6-2.6
				c0-1.3-0.4-2.4-1.3-3.3s-2-1.3-3.4-1.3c-1.2,0-2.2,0.3-3,0.8c-0.8,0.5-1.5,1.2-2.1,2.1l-1.5-1.3C16.5,75.3,18.7,74.1,21.5,74.1z"
				/>
		</g>
	</g>
</g>
</svg>
