<?xml version="1.0" encoding="utf-8"?>
<!-- Generator: Adobe Illustrator 25.2.0, SVG Export Plug-In . SVG Version: 6.00 Build 0)  -->
<svg version="1.1" id="Layer_1" xmlns="http://www.w3.org/2000/svg" xmlns:xlink="http://www.w3.org/1999/xlink" x="0px" y="0px"
	 viewBox="0 0 224.2 312.8" style="enable-background:new 0 0 224.2 312.8;" xml:space="preserve">
<style type="text/css">
	.st0{opacity:2.000000e-02;enable-background:new    ;}
	.st1{fill:#B20033;}
	.st2{fill:#050307;}
	.st3{enable-background:new    ;}
	.st4{fill:none;stroke:#000000;stroke-miterlimit:10;}
	.st5{opacity:5.000000e-02;enable-background:new    ;}
</style>
<g>
	<g>
		<g class="st0">
			<rect x="-0.2" y="0.7" width="224.4" height="312.1"/>
		</g>
		<g>
			<g>
				<g>
					<g>
						<path class="st1" d="M185.9,267.9c0-0.2,0-0.3,0-0.5c0-0.1,0-0.1,0-0.2s0.1-0.2,0.1-0.3c0-0.1,0.1-0.2,0.1-0.2
							c0.1-0.2,0.2-0.4,0.3-0.6c0.1-0.1,0.2-0.3,0.3-0.4l0,0l3.4-3.3l2.8-2.8l0.7-0.7h0.2c1.5,0,3,0.7,4.1,1.7
							c0.6,0.5,1.2,1.1,1.7,1.8c0.3,0.4,0.5,0.8,0.7,1.3c0.2,0.4,0.2,0.3,0.3,0.8c0-0.3,0-0.6-0.1-0.9c-0.1-0.6-0.2-0.7-0.4-1.2
							c-0.5-1.4-1.4-2.6-2.5-3.5c-0.7-0.7-1.5-1.2-2.4-1.5l4-4c0.2-0.2,0.4-0.3,0.6-0.5c0.1-0.1,0.3-0.2,0.4-0.2
							c0.6-0.3,1.4-0.3,2-0.1c0.3,0.1,0.6,0.2,0.8,0.4c0.2,0.1,0.3,0.2,0.5,0.4l12.5,12.5l0,0c0.1,0.1,0.1,0.2,0.2,0.2
							c0.3,0.4,0.5,0.9,0.6,1.3v0.1c0,0.2,0.1,0.4,0,0.6c0,0.1,0,0.2,0,0.3c0,0.1,0,0.1,0,0.2c0,0.2-0.1,0.3-0.2,0.5
							c0,0.1-0.1,0.2-0.1,0.3c-0.1,0.1-0.1,0.2-0.2,0.3c-0.1,0.1-0.2,0.3-0.3,0.4l0,0l-3.4,3.3l-2.8,2.8l-0.7,0.7h-0.2
							c-1.5,0-3-0.7-4.1-1.7c-0.6-0.5-1.2-1.1-1.7-1.8c-0.3-0.4-0.5-0.8-0.7-1.3c-0.2-0.4-0.2-0.3-0.3-0.8c0,0.3,0,0.6,0.1,0.9
							c0.1,0.6,0.2,0.7,0.4,1.2c0.5,1.4,1.4,2.6,2.5,3.5c0.7,0.7,1.5,1.2,2.4,1.5l-4,4c-0.4,0.4-0.9,0.7-1.4,0.8
							c-0.2,0-0.3,0.1-0.5,0.1c-0.9,0.1-1.8-0.2-2.5-0.9l0,0l-12.5-12.5l0,0c-0.1-0.1-0.1-0.2-0.2-0.2c-0.2-0.2-0.4-0.5-0.5-0.8
							c-0.1-0.2-0.1-0.4-0.2-0.6v-0.1C185.9,268.2,185.9,268.1,185.9,267.9z"/>
					</g>
					<g>
						<path class="st2" d="M201.4,252c0.3,0,0.6,0,1,0.1c0.3,0.1,0.6,0.2,0.9,0.4c0.2,0.1,0.4,0.3,0.5,0.4l12.6,12.6
							c0.1,0.1,0.1,0.1,0.1,0.2c0.3,0.4,0.6,0.9,0.7,1.5c0,0.1,0,0.1,0,0.2c0,0.2,0.1,0.4,0,0.6c0,0.1,0,0.2,0,0.4v0.2
							c0,0.2-0.1,0.4-0.2,0.6c0,0.1-0.1,0.2-0.1,0.3c-0.1,0.1-0.1,0.2-0.2,0.4c-0.1,0.1-0.2,0.2-0.3,0.3l0,0l-0.1,0.1l-6.9,6.9h-0.3
							c-1.5,0-3-0.7-4.3-1.7c-0.6-0.5-1.2-1.1-1.7-1.9c0.5,1.2,1.3,2.3,2.3,3.2c0.7,0.7,1.5,1.2,2.3,1.5l0.4,0.2l-4.3,4.3
							c-0.4,0.4-0.9,0.7-1.5,0.9c-0.2,0.1-0.3,0.1-0.5,0.1c-1,0.1-1.9-0.2-2.6-0.9l0,0l-0.1-0.1l-12.6-12.6
							c-0.1-0.1-0.1-0.1-0.1-0.2c-0.2-0.3-0.4-0.6-0.5-0.9c-0.1-0.2-0.1-0.4-0.2-0.6c0-0.1,0-0.2,0-0.2c0-0.1,0-0.2,0-0.4
							c0-0.2,0-0.3,0-0.5v-0.1v-0.1c0-0.1,0.1-0.2,0.1-0.4c0-0.1,0.1-0.2,0.1-0.2c0.1-0.2,0.2-0.4,0.4-0.6c0.1-0.1,0.2-0.2,0.3-0.3
							l0,0l0.1-0.1l6.9-6.9h0.3c1.5,0,3,0.7,4.3,1.7c0.6,0.5,1.2,1.1,1.7,1.9c-0.5-1.2-1.3-2.3-2.3-3.2c-0.7-0.7-1.5-1.2-2.3-1.5
							l-0.4-0.2l4.3-4.4c0.2-0.2,0.4-0.3,0.6-0.5c0.2-0.1,0.3-0.2,0.5-0.2C200.6,252.1,201,252,201.4,252z M215.8,265.8l-12.4-12.4
							c-0.1-0.1-0.3-0.3-0.4-0.4c-0.2-0.2-0.5-0.3-0.7-0.3c-0.6-0.2-1.3-0.2-1.8,0.1c-0.1,0.1-0.3,0.1-0.4,0.2
							c-0.2,0.1-0.4,0.3-0.5,0.4l-3.8,3.8c0.7,0.3,1.5,0.8,2.1,1.4c1.2,1,2.1,2.2,2.6,3.7l0.1,0.2c0.1,0.3,0.2,0.5,0.3,1
							c0,0.2,0,0.4,0,0.6c0,0.1,0,0.2,0,0.3l0.1,2.6l-0.7-2.6c-0.1-0.3-0.1-0.3-0.2-0.5c0-0.1-0.1-0.1-0.1-0.2
							c-0.2-0.4-0.4-0.8-0.7-1.2c-0.5-0.7-1-1.3-1.6-1.8c-1.2-1-2.6-1.6-4-1.6l0,0l-6.8,6.8c-0.1,0.1-0.2,0.2-0.3,0.3
							c-0.1,0.2-0.2,0.4-0.3,0.5c0,0.1-0.1,0.1-0.1,0.2s-0.1,0.2-0.1,0.3v0.2c0,0.1,0,0.3,0,0.4l0,0c0,0.1,0,0.2,0,0.3
							c0,0.1,0,0.1,0,0.1c0,0.2,0.1,0.3,0.2,0.5c0.1,0.2,0.2,0.5,0.4,0.7c0.1,0.1,0.1,0.1,0.2,0.2l0.1,0.1l12.4,12.4
							c0.6,0.6,1.4,0.9,2.3,0.8c0.1,0,0.3,0,0.4-0.1c0.5-0.1,0.9-0.4,1.2-0.7l3.7-3.7c-0.7-0.3-1.5-0.8-2.1-1.4
							c-1.2-1-2.1-2.2-2.6-3.7l-0.1-0.2c-0.1-0.3-0.2-0.5-0.3-1c0-0.2,0-0.4,0-0.6c0-0.1,0-0.2,0-0.3l-0.1-2.6l0.7,2.6
							c0.1,0.3,0.1,0.3,0.2,0.5c0,0.1,0.1,0.1,0.1,0.2c0.2,0.4,0.4,0.8,0.7,1.2c0.5,0.7,1,1.3,1.6,1.8c1.2,1,2.6,1.6,4,1.6l0,0
							l6.8-6.8c0.1-0.1,0.2-0.2,0.3-0.3c0.1-0.1,0.1-0.2,0.2-0.3c0.1-0.1,0.1-0.2,0.1-0.3c0.1-0.2,0.1-0.3,0.1-0.5v-0.2
							c0-0.1,0-0.2,0-0.3c0-0.2,0-0.4,0-0.6v-0.1c-0.1-0.5-0.3-0.9-0.6-1.2C216,266,216,266,215.8,265.8L215.8,265.8z"/>
					</g>
				</g>
				<g class="st3">
					<path d="M197.2,222.5c0.7-1.2,1.5-2.2,2.7-2.8c1.1-0.6,2.4-0.9,3.9-0.9c2.7,0,4.9,1,6.6,3l-1.5,1.6c-0.6-0.7-1.3-1.2-2.2-1.7
						c-0.9-0.4-1.8-0.7-2.9-0.7c-1.6,0-2.9,0.5-3.9,1.6s-1.5,2.6-1.5,4.6v13.7h-2.2v-13.9C196.3,225.2,196.6,223.8,197.2,222.5z"/>
				</g>
				<g class="st3">
					<path class="st4" d="M197.2,222.5c0.7-1.2,1.5-2.2,2.7-2.8c1.1-0.6,2.4-0.9,3.9-0.9c2.7,0,4.9,1,6.6,3l-1.5,1.6
						c-0.6-0.7-1.3-1.2-2.2-1.7c-0.9-0.4-1.8-0.7-2.9-0.7c-1.6,0-2.9,0.5-3.9,1.6s-1.5,2.6-1.5,4.6v13.7h-2.2v-13.9
						C196.3,225.2,196.6,223.8,197.2,222.5z"/>
				</g>
			</g>
			<g>
				<g>
					<g>
						<path class="st1" d="M38.1,47.3c0,0.2,0,0.3,0,0.5c0,0.1,0,0.1,0,0.2c0,0.1-0.1,0.2-0.1,0.3s-0.1,0.2-0.1,0.2
							c-0.1,0.2-0.2,0.4-0.3,0.6c-0.1,0.1-0.2,0.3-0.3,0.4l0,0l-3.4,3.3l-2.8,2.8l-0.7,0.7h-0.2c-1.5,0-3-0.7-4.1-1.7
							c-0.6-0.5-1.2-1.1-1.7-1.8c-0.3-0.4-0.5-0.8-0.7-1.3c-0.2-0.4-0.2-0.3-0.3-0.8c0,0.3,0,0.6,0.1,0.9c0.1,0.6,0.2,0.7,0.4,1.2
							c0.5,1.4,1.4,2.6,2.5,3.5c0.7,0.7,1.5,1.2,2.4,1.5l-4,4c-0.2,0.2-0.4,0.3-0.6,0.5c-0.1,0.1-0.3,0.2-0.4,0.2
							c-0.6,0.3-1.4,0.3-2,0.1c-0.3-0.1-0.6-0.2-0.8-0.4c-0.2-0.1-0.3-0.2-0.5-0.4L7.9,49.5l0,0c-0.1-0.1-0.1-0.2-0.2-0.2
							c-0.3-0.4-0.5-0.9-0.6-1.3v-0.1c0-0.2-0.1-0.4,0-0.6c0-0.1,0-0.2,0-0.3s0-0.1,0-0.2c0-0.2,0.1-0.3,0.2-0.5
							c0-0.1,0.1-0.2,0.1-0.3c0.1-0.1,0.1-0.2,0.2-0.3s0.2-0.3,0.3-0.4l0,0l3.4-3.3l2.7-3l0.7-0.7h0.2c1.5,0,3,0.7,4.1,1.7
							c0.6,0.5,1.2,1.1,1.7,1.8c0.3,0.4,0.5,0.8,0.7,1.3c0.2,0.4,0.2,0.3,0.3,0.8c0-0.3,0-0.6-0.1-0.9c-0.1-0.6-0.2-0.7-0.4-1.2
							c-0.5-1.4-1.4-2.6-2.5-3.5c-0.7-0.7-1.5-1.2-2.4-1.5l4-4c0.4-0.4,0.9-0.7,1.4-0.8c0.2,0,0.3-0.1,0.5-0.1
							c0.9-0.1,1.8,0.2,2.5,0.9l0,0l12.5,12.5l0,0c0.1,0.1,0.1,0.2,0.2,0.2c0.2,0.2,0.4,0.5,0.5,0.8c0.1,0.2,0.1,0.4,0.2,0.6V47
							C38.1,47,38.1,47.1,38.1,47.3z"/>
					</g>
					<g>
						<path class="st2" d="M22.6,63.2c-0.3,0-0.6,0-1-0.1c-0.3-0.1-0.6-0.2-0.9-0.4c-0.2-0.1-0.4-0.3-0.5-0.4L7.6,49.6
							c-0.1-0.1-0.1-0.1-0.1-0.2C7.1,49,6.9,48.5,6.8,48c0-0.1,0-0.1,0-0.2c0-0.2-0.1-0.4,0-0.6c0-0.1,0-0.2,0-0.4v-0.2
							c0-0.2,0.1-0.4,0.2-0.6c0,0,0-0.1,0.1-0.3c0.1-0.1,0.1-0.2,0.2-0.4c0.1-0.1,0.2-0.2,0.3-0.3l0,0h0.1l6.9-6.9h0.3
							c1.5,0,3,0.7,4.3,1.7c0.6,0.5,1.2,1.1,1.7,1.9c-0.5-1.2-1.3-2.3-2.3-3.2c-0.7-0.7-1.5-1.2-2.3-1.5l-0.4-0.2l4.3-4.3
							c0.4-0.4,0.9-0.7,1.5-0.9c0.2-0.1,0.3-0.1,0.5-0.1c1-0.1,1.9,0.2,2.6,0.9l0,0l0.1,0.1L37.5,45c0.1,0.1,0.1,0.1,0.1,0.2
							c0.2,0.3,0.4,0.6,0.5,0.9c0.1,0.2,0.1,0.4,0.2,0.6c0,0.1,0,0.2,0,0.2c0,0.1,0,0.2,0,0.4s0,0.3,0,0.5v0.1V48
							c0,0.1-0.1,0.2-0.1,0.4c0,0.1-0.1,0.2-0.1,0.2c-0.1,0.2-0.2,0.4-0.4,0.6c-0.1,0.1-0.2,0.2-0.3,0.3l0,0l-0.1,0.1l-6.9,6.9h-0.3
							c-1.5,0-3-0.7-4.3-1.7c-0.6-0.5-1.2-1.1-1.7-1.9c0.5,1.2,1.3,2.3,2.3,3.2c0.7,0.7,1.5,1.2,2.3,1.5l0.4,0.2l-4.3,4.4
							c-0.2,0.2-0.4,0.3-0.6,0.5c-0.2,0.1-0.3,0.2-0.5,0.2C23.4,63.1,23,63.2,22.6,63.2z M8.2,49.4l12.4,12.4
							c0.1,0.1,0.3,0.3,0.4,0.4c0.2,0.2,0.5,0.3,0.7,0.3c0.6,0.2,1.3,0.2,1.8-0.1c0.1-0.1,0.3-0.1,0.4-0.2c0.2-0.1,0.4-0.3,0.5-0.4
							l3.8-3.8c-0.7-0.3-1.5-0.8-2.1-1.4c-1.2-1-2.1-2.2-2.6-3.7l-0.1-0.2c-0.1-0.3-0.2-0.5-0.3-1c0-0.2,0-0.4,0-0.6
							c0-0.1,0-0.2,0-0.3L23,48.2l0.7,2.6c0.1,0.3,0.1,0.3,0.2,0.5c0,0.1,0.1,0.1,0.1,0.2c0.2,0.4,0.4,0.8,0.7,1.2
							c0.5,0.7,1,1.3,1.6,1.8c1.2,1,2.6,1.6,4,1.6l0,0l6.8-6.8c0.1-0.1,0.2-0.2,0.3-0.3c0.1-0.2,0.2-0.4,0.3-0.5
							c0-0.1,0.1-0.1,0.1-0.2c0-0.1,0.1-0.2,0.1-0.3v-0.2c0-0.1,0-0.3,0-0.4l0,0c0-0.1,0-0.2,0-0.3s0-0.1,0-0.1
							c0-0.2-0.1-0.3-0.2-0.5c-0.1-0.2-0.2-0.5-0.4-0.7c-0.1-0.1-0.1-0.1-0.2-0.2L37,45.5L24.5,32.9c-0.6-0.6-1.4-0.9-2.3-0.8
							c-0.1,0-0.3,0-0.4,0.1c-0.5,0.1-0.9,0.4-1.2,0.7l-3.7,3.7c0.7,0.3,1.5,0.8,2.1,1.4c1.2,1,2.1,2.2,2.6,3.7l0.1,0.2
							c0.1,0.3,0.2,0.5,0.3,1c0,0.2,0,0.4,0,0.6c0,0.1,0,0.2,0,0.3l0.1,2.6l-0.7-2.6c-0.1-0.3-0.1-0.3-0.2-0.5
							c0-0.1-0.1-0.1-0.1-0.2c-0.2-0.4-0.4-0.8-0.7-1.2c-0.5-0.7-1-1.3-1.6-1.8c-1.2-1-2.6-1.6-4-1.6l0,0L8,45.3
							c-0.1,0.1-0.2,0.2-0.3,0.3c-0.1,0.1-0.1,0.2-0.2,0.3s-0.1,0.2-0.1,0.3c-0.1,0.2-0.1,0.3-0.1,0.5v0.2c0,0.1,0,0.2,0,0.3
							c0,0.2,0,0.4,0,0.6v0.1c0.1,0.5,0.3,0.9,0.6,1.2C8,49.2,8,49.2,8.2,49.4L8.2,49.4z"/>
					</g>
				</g>
				<g class="st3">
					<path d="M26.9,92.7c-0.7,1.2-1.6,2.2-2.7,2.8c-1.1,0.6-2.4,0.9-3.9,0.9c-2.7,0-4.9-1-6.6-3l1.5-1.6c0.6,0.7,1.3,1.2,2.2,1.7
						c0.9,0.4,1.8,0.7,2.9,0.7c1.6,0,2.9-0.5,3.9-1.6s1.5-2.6,1.5-4.6V74.4h2.2v13.9C27.9,90,27.6,91.4,26.9,92.7z"/>
				</g>
				<g class="st3">
					<path class="st4" d="M26.9,92.7c-0.7,1.2-1.6,2.2-2.7,2.8c-1.1,0.6-2.4,0.9-3.9,0.9c-2.7,0-4.9-1-6.6-3l1.5-1.6
						c0.6,0.7,1.3,1.2,2.2,1.7c0.9,0.4,1.8,0.7,2.9,0.7c1.6,0,2.9-0.5,3.9-1.6s1.5-2.6,1.5-4.6V74.4h2.2v13.9
						C27.9,90,27.6,91.4,26.9,92.7z"/>
				</g>
			</g>
		</g>
		<g class="st5">
			<path d="M173.4,283.5H50.6c-4.2,0-7.5-3.4-7.5-7.5V37.6c0-4.2,3.4-7.5,7.5-7.5h122.9c4.2,0,7.5,3.4,7.5,7.5V276
				C181,280.1,177.6,283.5,173.4,283.5z"/>
		</g>
	</g>
	<g>
		<g>
			<g>
				<path d="M89.7,82.5c-0.2,0-0.5-0.2-0.5-0.4c0-0.3,0.1-0.5,0.4-0.6l5.2-0.8c0.3,0,0.5,0.1,0.6,0.4c0,0.3-0.1,0.5-0.4,0.6
					L89.7,82.5C89.8,82.5,89.7,82.5,89.7,82.5z"/>
			</g>
			<g>
				<g>
					<path class="st1" d="M151.8,130.6c0,0.2,0,0.4,0,0.6c0,0.1,0,0.2,0,0.3s-0.1,0.3-0.1,0.4c0,0.1-0.1,0.2-0.1,0.3
						c-0.1,0.3-0.2,0.5-0.4,0.7c-0.1,0.2-0.3,0.3-0.4,0.5l0,0l-4.1,4.1l-3.3,3.4l-0.9,0.9h-0.2c-1.8-0.1-3.6-0.8-5-2
						c-0.8-0.6-1.4-1.4-2-2.2c-0.3-0.5-0.6-1-0.8-1.5s-0.2-0.4-0.4-0.9c0,0.3,0,0.7,0.1,1c0.1,0.7,0.2,0.8,0.4,1.4
						c0.7,1.7,1.7,3.2,3.1,4.3c0.9,0.8,1.9,1.4,3,1.9l-4.9,4.9c-0.2,0.2-0.4,0.4-0.7,0.6c-0.2,0.1-0.3,0.2-0.5,0.3
						c-0.8,0.3-1.7,0.4-2.5,0.1c-0.3-0.1-0.7-0.3-1-0.5c-0.2-0.1-0.4-0.3-0.6-0.5L115,133.4l0,0c-0.1-0.1-0.2-0.2-0.3-0.3
						c-0.4-0.5-0.6-1-0.8-1.6v-0.1c0-0.2-0.1-0.5,0-0.7c0-0.1,0-0.3,0-0.4c0-0.1,0-0.2,0-0.3c0-0.2,0.1-0.4,0.2-0.6
						c0-0.1,0.1-0.2,0.2-0.3s0.2-0.3,0.3-0.4c0.1-0.2,0.2-0.3,0.4-0.5l0,0l4.1-4.1l3.3-3.4l0.9-0.9h0.2c1.8,0.1,3.6,0.8,5,2
						c0.8,0.6,1.4,1.4,2,2.2c0.3,0.5,0.6,1,0.8,1.5s0.2,0.4,0.4,0.9c0-0.3,0-0.7-0.1-1c-0.1-0.7-0.2-0.8-0.4-1.4
						c-0.7-1.7-1.7-3.2-3.1-4.3c-0.9-0.8-1.9-1.4-3-1.9l4.9-4.9c0.5-0.5,1.1-0.8,1.7-1c0.2-0.1,0.4-0.1,0.6-0.1
						c1.1-0.1,2.2,0.2,3,1.1l0,0l15.2,15.2l0,0c0.1,0.1,0.2,0.2,0.3,0.3c0.2,0.3,0.4,0.6,0.6,1c0.1,0.2,0.1,0.4,0.2,0.7
						c0,0.1,0,0.1,0,0.2C151.8,130.3,151.8,130.5,151.8,130.6z"/>
				</g>
				<g>
					<path class="st2" d="M132.8,150c-0.4,0-0.8-0.1-1.2-0.2c-0.4-0.1-0.7-0.3-1.1-0.5c-0.2-0.1-0.4-0.3-0.6-0.5l-15.3-15.3
						c-0.1-0.1-0.1-0.1-0.2-0.2c-0.4-0.5-0.7-1.1-0.8-1.8c0-0.1,0-0.1,0-0.2c0-0.2-0.1-0.5,0-0.8c0-0.1,0-0.3,0-0.4l0.1-0.3
						c0.1-0.2,0.1-0.5,0.2-0.7c0-0.1,0.1-0.3,0.2-0.4c0.1-0.1,0.2-0.3,0.3-0.5c0.1-0.1,0.2-0.3,0.3-0.4l0,0l0.1-0.1l8.4-8.4h0.3
						c1.8,0.1,3.7,0.8,5.3,2.1c0.8,0.6,1.5,1.4,2.1,2.3c-0.6-1.5-1.6-2.8-2.8-3.8c-0.9-0.8-1.9-1.4-2.9-1.8l-0.5-0.2l5.3-5.3
						c0.5-0.5,1.1-0.9,1.8-1.1c0.2-0.1,0.4-0.1,0.6-0.1c1.2-0.1,2.3,0.2,3.2,1.1l0,0l0.1,0.1l15.3,15.3c0.1,0.1,0.1,0.1,0.2,0.2
						c0.3,0.3,0.5,0.7,0.6,1.1c0.1,0.2,0.2,0.5,0.2,0.7c0,0.1,0,0.2,0,0.3s0,0.3,0,0.5s0,0.4,0,0.7v0.1c0,0.1,0,0.1,0,0.2
						c0,0.1-0.1,0.3-0.1,0.4c0,0.1-0.1,0.2-0.1,0.3c-0.1,0.3-0.2,0.5-0.4,0.8c-0.1,0.1-0.2,0.3-0.3,0.4l0,0l-0.1,0.1l-8.4,8.4h-0.3
						c-1.8-0.1-3.7-0.8-5.3-2.1c-0.8-0.6-1.5-1.4-2.1-2.3c0.6,1.5,1.6,2.8,2.8,3.8c0.9,0.8,1.9,1.4,2.9,1.8l0.5,0.2l-5.3,5.3
						c-0.2,0.2-0.5,0.4-0.8,0.6c-0.2,0.1-0.4,0.2-0.6,0.3C133.9,149.9,133.4,150,132.8,150z M115.3,133.2l15.1,15.1
						c0.2,0.2,0.4,0.3,0.5,0.4c0.3,0.2,0.6,0.3,0.9,0.4c0.7,0.2,1.5,0.2,2.3-0.1c0.2-0.1,0.3-0.2,0.5-0.2c0.2-0.1,0.4-0.3,0.6-0.5
						l4.6-4.6c-0.9-0.4-1.8-1-2.6-1.7c-1.4-1.2-2.5-2.7-3.2-4.5l-0.1-0.3c-0.2-0.4-0.2-0.6-0.3-1.2c0-0.3-0.1-0.5-0.1-0.8
						c0-0.1,0-0.2,0-0.3l-0.2-3.2l0.8,3.1c0.1,0.4,0.1,0.4,0.2,0.6c0,0.1,0.1,0.2,0.1,0.3c0.2,0.5,0.5,1,0.8,1.5
						c0.6,0.8,1.2,1.6,1.9,2.1c1.5,1.2,3.2,1.9,4.8,1.9l0,0l8.2-8.2c0.1-0.1,0.3-0.3,0.4-0.4c0.2-0.2,0.3-0.4,0.4-0.6
						c0-0.1,0.1-0.2,0.1-0.2c0-0.1,0.1-0.3,0.1-0.4v-0.3c0-0.2,0-0.3,0-0.5l0,0c0-0.1,0-0.3,0-0.4c0-0.1,0-0.1,0-0.2
						c0-0.2-0.1-0.4-0.2-0.6c-0.1-0.3-0.3-0.6-0.5-0.9c-0.1-0.1-0.2-0.2-0.2-0.3l-0.1-0.1L135,113c-0.7-0.7-1.7-1.1-2.8-1
						c-0.2,0-0.3,0.1-0.5,0.1c-0.6,0.2-1.1,0.5-1.5,0.9l-4.6,4.6c0.9,0.4,1.8,1,2.6,1.7c1.4,1.2,2.5,2.7,3.2,4.5l0.1,0.3
						c0.2,0.4,0.2,0.6,0.3,1.2c0,0.3,0.1,0.5,0.1,0.8c0,0.1,0,0.2,0,0.3l0.2,3.2l-0.8-3.1c-0.1-0.4-0.1-0.4-0.2-0.6
						c0-0.1-0.1-0.2-0.2-0.3c-0.2-0.5-0.5-1-0.8-1.5c-0.6-0.8-1.2-1.6-1.9-2.1c-1.5-1.2-3.2-1.9-4.8-1.9h-0.1l-8.2,8.2
						c-0.2,0.2-0.3,0.3-0.4,0.4c-0.1,0.1-0.2,0.3-0.2,0.4c-0.1,0.1-0.1,0.2-0.1,0.3c-0.1,0.2-0.1,0.4-0.2,0.6v0.3c0,0.1,0,0.2,0,0.3
						c0,0.2,0,0.4,0,0.7v0.1c0.1,0.6,0.4,1.1,0.7,1.5c0.1,0.1,0.2,0.2,0.2,0.3L115.3,133.2z"/>
				</g>
			</g>
			<g>
				<polygon points="147.4,156.9 125.1,156.9 100.4,132.3 101.2,131.5 125.5,155.9 147.4,155.9 				"/>
			</g>
			<g>
				<path d="M128.2,86.8h-25.7l-1-7c-0.4-2.2-2.3-3.9-4.5-3.9H86l6.2-29.3c0.5-3.3,3.5-5.8,6.8-5.8h27.9c3.7,0,6.7,2.9,6.8,6.6
					l1.3,32.3c0.1,1.9-0.5,3.6-1.8,5C131.9,86,130.1,86.8,128.2,86.8z M103.3,85.8h24.9c1.6,0,3.1-0.7,4.2-1.8
					c1.1-1.2,1.6-2.7,1.6-4.2l-1.3-32.3c-0.1-3.2-2.6-5.6-5.8-5.6H99c-2.9,0-5.3,2.1-5.8,5l-6,28.1H97c2.7,0,5.1,2,5.5,4.7
					L103.3,85.8z"/>
			</g>
			<g>
				<path d="M103.5,86.8H91.3c-1,0-1.9-0.4-2.6-1.2c-0.6-0.8-0.9-1.7-0.7-2.7l1.5-8.1h6.7c3.2,0,6,2.4,6.4,5.5L103.5,86.8z
					 M90.3,75.8L89,83.1c-0.1,0.6,0.1,1.3,0.5,1.9c0.5,0.5,1.1,0.9,1.8,0.9h11l-0.7-5.3c-0.4-2.7-2.7-4.7-5.4-4.7H90.3z"/>
			</g>
			<g>
				<path d="M100.6,132.8H79.5l12.3-47h52l1.3,17.5l-9.8-6.9L100.6,132.8z M80.7,131.8h19.4L135,95.1l8.8,6.1l-1.1-14.5H92.5
					L80.7,131.8z"/>
			</g>
			<g>
				<polygon points="77,66.4 77,138.3 74.4,138.3 74.4,70.5 				"/>
			</g>
			<g>
				<rect x="71.9" y="138.6" width="7" height="1"/>
			</g>
			<g>
				<polygon class="st1" points="89,132.3 100.4,132.3 117.4,149.3 74.4,149.3 74.4,139.9 93.8,139.9 				"/>
				<path d="M118.6,149.8H73.9v-10.4h19l-4.8-7.6h12.5L118.6,149.8z M74.9,148.8h41.3l-16-16H89.9l4.8,7.6H74.9V148.8z"/>
			</g>
			<g>
				<polygon class="st1" points="92.1,86.3 99.1,105.9 89,132.3 100.4,132.3 135.1,95.8 142.4,86.3 				"/>
				<path d="M100.6,132.8H88.3l10.3-26.9l-7.2-20.1h52l-7.9,10.3L100.6,132.8z M89.7,131.8h10.5l34.6-36.3l6.6-8.7H92.8l6.8,19.1
					L89.7,131.8z"/>
			</g>
			<g>
				<path d="M108,55.4H91c-0.3,0-0.5-0.2-0.5-0.5s0.2-0.5,0.5-0.5h17c0.3,0,0.5,0.2,0.5,0.5S108.3,55.4,108,55.4z"/>
			</g>
			<g>
				<path d="M104.7,60.9H90.5c-0.3,0-0.5-0.2-0.5-0.5s0.2-0.5,0.5-0.5h14.2c0.3,0,0.5,0.2,0.5,0.5S105,60.9,104.7,60.9z"/>
			</g>
			<g>
				<path d="M91.9,60.9c0,0-0.1,0-0.1,0c-0.3-0.1-0.4-0.3-0.4-0.6l1.3-5.5c0.1-0.3,0.3-0.4,0.6-0.4c0.3,0.1,0.4,0.3,0.4,0.6
					l-1.3,5.5C92.3,60.7,92.1,60.9,91.9,60.9z"/>
			</g>
			<g>
				<path d="M94.2,60.9c0,0-0.1,0-0.1,0c-0.3-0.1-0.4-0.3-0.4-0.6l1.2-5.5c0.1-0.3,0.3-0.4,0.6-0.4c0.3,0.1,0.4,0.3,0.4,0.6
					l-1.2,5.5C94.6,60.7,94.4,60.9,94.2,60.9z"/>
			</g>
			<g>
				<path d="M96.4,60.9c0,0-0.1,0-0.1,0c-0.3-0.1-0.4-0.3-0.4-0.6l1.2-5.5c0.1-0.3,0.3-0.4,0.6-0.4c0.3,0.1,0.4,0.3,0.4,0.6
					l-1.2,5.5C96.8,60.7,96.6,60.9,96.4,60.9z"/>
			</g>
			<g>
				<path d="M98.6,60.9c0,0-0.1,0-0.1,0c-0.3-0.1-0.4-0.3-0.4-0.6l1.2-5.5c0.1-0.3,0.3-0.4,0.6-0.4c0.3,0.1,0.4,0.3,0.4,0.6
					l-1.2,5.5C99,60.7,98.8,60.9,98.6,60.9z"/>
			</g>
			<g>
				<path d="M100.7,60.9c0,0-0.1,0-0.1,0c-0.3-0.1-0.4-0.3-0.4-0.6l1.3-5.5c0.1-0.3,0.3-0.4,0.6-0.4c0.3,0.1,0.4,0.3,0.4,0.6
					l-1.3,5.5C101.1,60.7,100.9,60.9,100.7,60.9z"/>
			</g>
			<g>
				<path d="M102.9,60.9c0,0-0.1,0-0.1,0c-0.3-0.1-0.4-0.3-0.4-0.6l1.3-5.5c0.1-0.3,0.3-0.4,0.6-0.4c0.3,0.1,0.4,0.3,0.4,0.6
					l-1.3,5.5C103.3,60.7,103.1,60.9,102.9,60.9z"/>
			</g>
		</g>
		<g>
			<g>
				<path d="M129.1,232.9c-0.2,0-0.4-0.2-0.5-0.4c0-0.3,0.1-0.5,0.4-0.6l5.2-0.9c0.3,0,0.5,0.1,0.6,0.4c0,0.3-0.1,0.5-0.4,0.6
					L129.1,232.9C129.2,232.9,129.1,232.9,129.1,232.9z"/>
			</g>
			<g>
				<g>
					<path class="st1" d="M72.2,182.9c0-0.2,0-0.4,0-0.6c0-0.1,0-0.2,0-0.3s0.1-0.3,0.1-0.4c0-0.1,0.1-0.2,0.1-0.3
						c0.1-0.3,0.2-0.5,0.4-0.7c0.1-0.2,0.3-0.3,0.4-0.5l0,0l4.1-4.1l3.3-3.4l0.9-0.9h0.2c1.8,0.1,3.6,0.8,5,2c0.8,0.6,1.4,1.4,2,2.2
						c0.3,0.5,0.6,1,0.8,1.5c0.2,0.5,0.2,0.4,0.4,0.9c0-0.3,0-0.7-0.1-1c-0.1-0.7-0.2-0.8-0.4-1.4c-0.7-1.7-1.7-3.2-3.1-4.3
						c-0.9-0.8-1.9-1.4-3-1.9l4.9-4.9c0.2-0.2,0.4-0.4,0.7-0.6c0.2-0.1,0.3-0.2,0.5-0.3c0.8-0.3,1.7-0.4,2.5-0.1
						c0.3,0.1,0.7,0.3,1,0.5c0.2,0.1,0.4,0.3,0.6,0.5l15.2,15.2l0,0c0.1,0.1,0.2,0.2,0.3,0.3c0.4,0.5,0.6,1,0.8,1.6v0.1
						c0,0.2,0.1,0.5,0,0.7c0,0.1,0,0.3,0,0.4c0,0.1,0,0.2,0,0.3c0,0.2-0.1,0.4-0.2,0.6c0,0.1-0.1,0.2-0.2,0.3s-0.2,0.3-0.3,0.4
						c-0.1,0.2-0.2,0.3-0.4,0.5l0,0l-4.1,4.1l-3.3,3.4l-0.9,0.9h-0.2c-1.8-0.1-3.6-0.8-5-2c-0.8-0.6-1.4-1.4-2-2.2
						c-0.3-0.5-0.6-1-0.8-1.5c-0.2-0.5-0.2-0.4-0.4-0.9c0,0.3,0,0.7,0.1,1c0.1,0.7,0.2,0.8,0.4,1.4c0.7,1.7,1.7,3.2,3.1,4.3
						c0.9,0.8,1.9,1.4,3,1.9l-4.9,4.9c-0.5,0.5-1.1,0.8-1.7,1c-0.2,0.1-0.4,0.1-0.6,0.1c-1.1,0.1-2.2-0.2-3-1.1l0,0l-15.2-15.2l0,0
						c-0.1-0.1-0.2-0.2-0.3-0.3c-0.2-0.3-0.4-0.6-0.6-1c-0.1-0.2-0.1-0.4-0.2-0.7c0-0.1,0-0.1,0-0.2
						C72.2,183.2,72.2,183.1,72.2,182.9z"/>
				</g>
				<g>
					<path class="st2" d="M91.2,163.5c0.4,0,0.8,0.1,1.2,0.2c0.4,0.1,0.7,0.3,1.1,0.5c0.2,0.1,0.4,0.3,0.6,0.5l15.3,15.3
						c0.1,0.1,0.1,0.1,0.2,0.2c0.4,0.5,0.7,1.1,0.8,1.8c0,0.1,0,0.1,0,0.2c0,0.2,0.1,0.5,0,0.8c0,0.1,0,0.3,0,0.4l-0.1,0.3
						c-0.1,0.2-0.1,0.5-0.2,0.7c0,0.1-0.1,0.3-0.2,0.4c-0.1,0.1-0.2,0.3-0.3,0.5c-0.1,0.1-0.2,0.3-0.3,0.4l0,0l-0.1,0.1l-8.4,8.4
						h-0.3c-1.8-0.1-3.7-0.8-5.3-2.1c-0.8-0.6-1.5-1.4-2.1-2.3c0.6,1.5,1.6,2.8,2.8,3.8c0.9,0.8,1.9,1.4,2.9,1.8l0.5,0.2l-5.3,5.3
						c-0.5,0.5-1.1,0.9-1.8,1.1c-0.2,0.1-0.4,0.1-0.6,0.1c-1.2,0.1-2.3-0.2-3.2-1.1l0,0l-0.1-0.1L73,185.6c-0.1-0.1-0.1-0.1-0.2-0.2
						c-0.3-0.3-0.5-0.7-0.6-1.1c-0.1-0.2-0.2-0.5-0.2-0.7c0-0.1,0-0.2,0-0.3s0-0.3,0-0.5s0-0.4,0-0.7V182c0-0.1,0-0.1,0-0.2
						c0-0.1,0.1-0.3,0.1-0.4c0-0.1,0.1-0.2,0.1-0.3c0.1-0.3,0.2-0.5,0.4-0.8c0.1-0.1,0.2-0.3,0.3-0.4l0,0l0.1-0.1l8.4-8.4h0.3
						c1.8,0.1,3.7,0.8,5.3,2.1c0.8,0.6,1.5,1.4,2.1,2.3c-0.6-1.5-1.6-2.8-2.8-3.8c-0.9-0.8-1.9-1.4-2.9-1.8L83,170l5.3-5.3
						c0.2-0.2,0.5-0.4,0.8-0.6c0.2-0.1,0.4-0.2,0.6-0.3C90.1,163.6,90.6,163.5,91.2,163.5z M108.7,180.3l-15.1-15.1
						c-0.2-0.2-0.4-0.3-0.5-0.4c-0.3-0.2-0.6-0.3-0.9-0.4c-0.7-0.2-1.5-0.2-2.3,0.1c-0.2,0.1-0.3,0.2-0.5,0.2
						c-0.2,0.1-0.4,0.3-0.6,0.5l-4.6,4.6c0.9,0.4,1.8,1,2.6,1.7c1.4,1.2,2.5,2.7,3.2,4.5l0.1,0.3c0.2,0.4,0.2,0.6,0.3,1.2
						c0,0.3,0.1,0.5,0.1,0.8c0,0.1,0,0.2,0,0.3l0.2,3.2l-0.8-3.1c-0.1-0.4-0.1-0.4-0.2-0.6c0-0.1-0.1-0.2-0.1-0.3
						c-0.2-0.5-0.5-1-0.8-1.5c-0.6-0.8-1.2-1.6-1.9-2.1c-1.5-1.2-3.2-1.9-4.8-1.9l0,0l-8.2,8.2c-0.1,0.1-0.3,0.3-0.4,0.4
						c-0.2,0.2-0.3,0.4-0.4,0.6c0,0.1-0.1,0.2-0.1,0.2c0,0.1-0.1,0.3-0.1,0.4v0.3c0,0.2,0,0.3,0,0.5l0,0c0,0.1,0,0.3,0,0.4
						c0,0.1,0,0.1,0,0.2c0,0.2,0.1,0.4,0.2,0.6c0.1,0.3,0.3,0.6,0.5,0.9c0.1,0.1,0.2,0.2,0.2,0.3l0.1,0.1L89,200.5
						c0.7,0.7,1.7,1.1,2.8,1c0.2,0,0.3-0.1,0.5-0.1c0.6-0.2,1.1-0.5,1.5-0.9l4.6-4.6c-0.9-0.4-1.8-1-2.6-1.7
						c-1.4-1.2-2.5-2.7-3.2-4.5l-0.1-0.3c-0.2-0.4-0.2-0.6-0.3-1.2c0-0.3-0.1-0.5-0.1-0.8c0-0.1,0-0.2,0-0.3l-0.2-3.2l0.8,3.1
						c0.1,0.4,0.1,0.4,0.2,0.6c0,0.1,0.1,0.2,0.2,0.3c0.2,0.5,0.5,1,0.8,1.5c0.6,0.8,1.2,1.6,1.9,2.1c1.5,1.2,3.2,1.9,4.8,1.9h0.1
						l8.2-8.2c0.2-0.2,0.3-0.3,0.4-0.4c0.1-0.1,0.2-0.3,0.2-0.4c0.1-0.1,0.1-0.2,0.1-0.3c0.1-0.2,0.1-0.4,0.2-0.6v-0.3
						c0-0.1,0-0.2,0-0.3c0-0.2,0-0.4,0-0.7v-0.1c-0.1-0.6-0.4-1.1-0.7-1.5c-0.1-0.1-0.2-0.2-0.2-0.3H108.7z"/>
				</g>
			</g>
			<g>
				<polygon points="122.8,182 98.5,157.6 76.6,157.6 76.6,156.6 98.9,156.6 123.6,181.2 				"/>
			</g>
			<g>
				<path d="M125,272.7H97c-3.7,0-6.7-2.9-6.8-6.6l-1.3-32.3c-0.1-1.9,0.5-3.6,1.8-5c1.3-1.4,3.1-2.1,5-2.1h25.8l1,7
					c0.4,2.2,2.3,3.9,4.5,3.9h11l-6.2,29.3C131.3,270.2,128.3,272.7,125,272.7z M95.7,227.7c-1.6,0-3.1,0.7-4.2,1.8
					c-1.1,1.2-1.6,2.7-1.6,4.2l1.3,32.3c0.1,3.2,2.6,5.6,5.8,5.6h28c2.9,0,5.3-2.1,5.8-5l6-28.1H127c-2.7,0-5.1-2-5.5-4.7l-0.8-6.2
					H95.7z"/>
			</g>
			<g>
				<path d="M134.6,238.7h-6.7c-3.2,0-6-2.4-6.4-5.5l-1-6.5h12.3c1,0,1.9,0.4,2.6,1.2c0.6,0.8,0.9,1.7,0.7,2.7L134.6,238.7z
					 M121.7,227.7l0.8,5.3c0.4,2.7,2.7,4.7,5.4,4.7h5.9l1.3-7.3c0.1-0.6-0.1-1.3-0.5-1.9c-0.5-0.5-1.1-0.9-1.8-0.9H121.7z"/>
			</g>
			<g>
				<path d="M132.3,227.7h-52L79,210.3l9.8,6.8l34.6-36.3h21.2l-0.2,0.6L132.3,227.7z M81.3,226.7h50.2l11.7-45h-19.4L89,218.4
					l-8.8-6.1L81.3,226.7z"/>
			</g>
			<g>
				<polygon points="147,247.2 147,175.2 149.6,175.2 149.6,243.1 				"/>
			</g>
			<g>
				<rect x="145.1" y="174" width="7" height="1"/>
			</g>
			<g>
				<polygon class="st1" points="135,181.2 123.6,181.2 106.6,164.2 149.6,164.2 149.6,173.6 130.2,173.6 				"/>
				<path d="M135.9,181.7h-12.5l-18-18h44.7v10.4h-19L135.9,181.7z M123.8,180.7h10.3l-4.8-7.6h19.8v-8.4h-41.3L123.8,180.7z"/>
			</g>
			<g>
				<polygon class="st1" points="131.9,227.2 124.9,207.7 135,181.2 123.6,181.2 88.9,217.7 81.6,227.2 				"/>
				<path d="M132.6,227.7h-52l7.9-10.3l34.9-36.7h12.3l-10.3,27L132.6,227.7z M82.6,226.7h48.6l-6.8-19l0.1-0.2l9.8-25.8h-10.5
					L89.3,218L82.6,226.7z"/>
			</g>
			<g>
				<path d="M133,259.2h-17c-0.3,0-0.5-0.2-0.5-0.5s0.2-0.5,0.5-0.5h17c0.3,0,0.5,0.2,0.5,0.5S133.3,259.2,133,259.2z"/>
			</g>
			<g>
				<path d="M133.5,253.7h-14.2c-0.3,0-0.5-0.2-0.5-0.5s0.2-0.5,0.5-0.5h14.2c0.3,0,0.5,0.2,0.5,0.5S133.8,253.7,133.5,253.7z"/>
			</g>
			<g>
				<path d="M130.8,259.2c0,0-0.1,0-0.1,0c-0.3-0.1-0.4-0.3-0.4-0.6l1.3-5.5c0.1-0.3,0.3-0.4,0.6-0.4c0.3,0.1,0.4,0.3,0.4,0.6
					l-1.3,5.5C131.2,259,131,259.2,130.8,259.2z"/>
			</g>
			<g>
				<path d="M128.6,259.2c0,0-0.1,0-0.1,0c-0.3-0.1-0.4-0.3-0.4-0.6l1.2-5.5c0.1-0.3,0.3-0.4,0.6-0.4c0.3,0.1,0.4,0.3,0.4,0.6
					l-1.2,5.5C129,259,128.8,259.2,128.6,259.2z"/>
			</g>
			<g>
				<path d="M126.4,259.2c0,0-0.1,0-0.1,0c-0.3-0.1-0.4-0.3-0.4-0.6l1.2-5.5c0.1-0.3,0.3-0.4,0.6-0.4c0.3,0.1,0.4,0.3,0.4,0.6
					l-1.2,5.5C126.8,259,126.6,259.2,126.4,259.2z"/>
			</g>
			<g>
				<path d="M124.2,259.2c0,0-0.1,0-0.1,0c-0.3-0.1-0.4-0.3-0.4-0.6l1.2-5.5c0.1-0.3,0.3-0.4,0.6-0.4c0.3,0.1,0.4,0.3,0.4,0.6
					l-1.2,5.5C124.6,259,124.4,259.2,124.2,259.2z"/>
			</g>
			<g>
				<path d="M122,259.2c0,0-0.1,0-0.1,0c-0.3-0.1-0.4-0.3-0.4-0.6l1.3-5.5c0.1-0.3,0.3-0.4,0.6-0.4c0.3,0.1,0.4,0.3,0.4,0.6
					l-1.3,5.5C122.4,259,122.2,259.2,122,259.2z"/>
			</g>
			<g>
				<path d="M119.8,259.2c0,0-0.1,0-0.1,0c-0.3-0.1-0.4-0.3-0.4-0.6l1.3-5.5c0.1-0.3,0.3-0.4,0.6-0.4c0.3,0.1,0.4,0.3,0.4,0.6
					l-1.3,5.5C120.2,259,120,259.2,119.8,259.2z"/>
			</g>
		</g>
	</g>
</g>
</svg>
