<?xml version="1.0" encoding="utf-8"?>
<!-- Generator: Adobe Illustrator 25.2.0, SVG Export Plug-In . SVG Version: 6.00 Build 0)  -->
<svg version="1.1" id="Layer_1" xmlns="http://www.w3.org/2000/svg" xmlns:xlink="http://www.w3.org/1999/xlink" x="0px" y="0px"
	 viewBox="0 0 224.2 312.8" style="enable-background:new 0 0 224.2 312.8;" xml:space="preserve">
<style type="text/css">
	.st0{opacity:2.000000e-02;enable-background:new    ;}
	.st1{fill:#B20033;}
	.st2{fill:#050307;}
	.st3{enable-background:new    ;}
	.st4{fill:none;stroke:#000000;stroke-miterlimit:10;}
	.st5{opacity:5.000000e-02;enable-background:new    ;}
</style>
<g>
	<g>
		<g class="st0">
			<rect y="0.5" width="224.2" height="311.8"/>
		</g>
		<g>
			<g>
				<g>
					<g>
						<path class="st1" d="M185.9,267.5c0-0.2,0-0.3,0-0.5c0-0.1,0-0.1,0-0.2s0.1-0.2,0.1-0.3c0-0.1,0.1-0.2,0.1-0.2
							c0.1-0.2,0.2-0.4,0.3-0.6c0.1-0.1,0.2-0.3,0.3-0.4l0,0l3.4-3.3l2.7-2.8l0.7-0.7h0.2c1.5,0,3,0.7,4.1,1.7
							c0.6,0.5,1.2,1.1,1.7,1.8c0.3,0.4,0.5,0.8,0.7,1.2c0.2,0.4,0.2,0.3,0.3,0.8c0-0.3,0-0.6-0.1-0.9c-0.1-0.6-0.2-0.7-0.4-1.2
							c-0.5-1.4-1.4-2.6-2.5-3.5c-0.7-0.7-1.5-1.2-2.4-1.5l4-4c0.2-0.2,0.4-0.3,0.6-0.5c0.1-0.1,0.3-0.2,0.4-0.2
							c0.6-0.3,1.4-0.3,2-0.1c0.3,0.1,0.6,0.2,0.8,0.4c0.2,0.1,0.3,0.2,0.5,0.4l12.5,12.5l0,0c0.1,0.1,0.1,0.2,0.2,0.2
							c0.3,0.4,0.5,0.9,0.6,1.3v0.1c0,0.2,0.1,0.4,0,0.6c0,0.1,0,0.2,0,0.3c0,0.1,0,0.1,0,0.2c0,0.2-0.1,0.3-0.2,0.5
							c0,0.1-0.1,0.2-0.1,0.3c-0.1,0.1-0.1,0.2-0.2,0.3c-0.1,0.1-0.2,0.3-0.3,0.4l0,0l-3.4,3.3l-2.7,2.8l-0.7,0.7h-0.2
							c-1.5,0-3-0.7-4.1-1.7c-0.6-0.5-1.2-1.1-1.7-1.8c-0.3-0.4-0.5-0.8-0.7-1.2c-0.2-0.4-0.2-0.3-0.3-0.8c0,0.3,0,0.6,0.1,0.9
							c0.1,0.6,0.2,0.7,0.4,1.2c0.5,1.4,1.4,2.6,2.5,3.5c0.7,0.7,1.5,1.2,2.4,1.5l-4,4c-0.4,0.4-0.9,0.7-1.4,0.8
							c-0.2,0-0.3,0.1-0.5,0.1c-0.9,0.1-1.8-0.2-2.5-0.9l0,0l-12.5-12.5l0,0c-0.1-0.1-0.1-0.2-0.2-0.2c-0.2-0.2-0.4-0.5-0.5-0.8
							c-0.1-0.2-0.1-0.4-0.2-0.5v-0.1C185.9,267.7,185.9,267.6,185.9,267.5z"/>
					</g>
					<g>
						<path class="st2" d="M201.5,251.6c0.3,0,0.6,0,1,0.1c0.3,0.1,0.6,0.2,0.9,0.4c0.2,0.1,0.4,0.3,0.5,0.4l12.6,12.6
							c0.1,0.1,0.1,0.1,0.1,0.2c0.3,0.4,0.6,0.9,0.7,1.4c0,0.1,0,0.1,0,0.2c0,0.2,0.1,0.4,0,0.6c0,0.1,0,0.2,0,0.4v0.2
							c0,0.2-0.1,0.4-0.2,0.6c0,0.1-0.1,0.2-0.1,0.3c-0.1,0.1-0.1,0.2-0.2,0.4c-0.1,0.1-0.2,0.2-0.3,0.3l0,0l-0.1,0.1l-6.9,6.9h-0.3
							c-1.5,0-3-0.7-4.3-1.7c-0.6-0.5-1.2-1.1-1.7-1.9c0.5,1.2,1.3,2.3,2.3,3.1c0.7,0.7,1.5,1.2,2.3,1.5l0.4,0.2l-4.3,4.3
							c-0.4,0.4-0.9,0.7-1.5,0.9c-0.2,0-0.3,0.1-0.5,0.1c-1,0.1-1.9-0.2-2.6-0.9l0,0l-0.1-0.1l-12.6-12.6c-0.1-0.1-0.1-0.1-0.1-0.2
							c-0.2-0.3-0.4-0.6-0.5-0.9c-0.1-0.2-0.1-0.4-0.2-0.6c0-0.1,0-0.1,0-0.2s0-0.2,0-0.4c0-0.2,0-0.3,0-0.5v-0.1v-0.1
							c0-0.1,0.1-0.2,0.1-0.4c0-0.1,0.1-0.2,0.1-0.2c0.1-0.2,0.2-0.4,0.4-0.6c0.1-0.1,0.2-0.2,0.3-0.3l0,0l0.1-0.1l6.9-6.9h0.3
							c1.5,0,3,0.7,4.3,1.7c0.6,0.5,1.2,1.1,1.7,1.9c-0.5-1.2-1.3-2.3-2.3-3.1c-0.7-0.7-1.5-1.2-2.3-1.5l-0.4-0.2l4.3-4.3
							c0.2-0.2,0.4-0.3,0.6-0.5c0.2-0.1,0.3-0.2,0.5-0.2C200.6,251.7,201,251.6,201.5,251.6z M215.8,265.3l-12.4-12.4
							c-0.1-0.1-0.3-0.3-0.4-0.3c-0.2-0.2-0.5-0.3-0.7-0.3c-0.6-0.2-1.3-0.2-1.8,0.1c-0.1,0.1-0.3,0.1-0.4,0.2
							c-0.2,0.1-0.4,0.3-0.5,0.4l-3.7,3.7c0.7,0.3,1.5,0.8,2.1,1.4c1.2,1,2.1,2.2,2.6,3.7l0.1,0.2c0.1,0.3,0.2,0.5,0.3,1
							c0,0.2,0,0.4,0,0.6c0,0.1,0,0.2,0,0.3l0.1,2.6l-0.7-2.6c-0.1-0.3-0.1-0.3-0.2-0.5c0-0.1-0.1-0.1-0.1-0.2
							c-0.2-0.4-0.4-0.8-0.7-1.2c-0.5-0.7-1-1.3-1.6-1.8c-1.2-1-2.6-1.6-4-1.6l0,0l-6.8,6.8c-0.1,0.1-0.2,0.2-0.3,0.3
							c-0.1,0.2-0.2,0.3-0.3,0.5c0,0.1-0.1,0.1-0.1,0.2s-0.1,0.2-0.1,0.3v0.2c0,0.1,0,0.3,0,0.4l0,0c0,0.1,0,0.2,0,0.3
							c0,0.1,0,0.1,0,0.1c0,0.2,0.1,0.3,0.2,0.5c0.1,0.2,0.2,0.5,0.4,0.7c0.1,0.1,0.1,0.1,0.2,0.2l0.1,0.1l12.4,12.4
							c0.6,0.6,1.4,0.9,2.3,0.8c0.1,0,0.3,0,0.4-0.1c0.5-0.1,0.9-0.4,1.2-0.7l3.7-3.7c-0.7-0.3-1.5-0.8-2.1-1.4
							c-1.2-1-2.1-2.2-2.6-3.7l-0.1-0.2c-0.1-0.3-0.2-0.5-0.3-1c0-0.2,0-0.4,0-0.6c0-0.1,0-0.2,0-0.3l-0.1-2.6l0.7,2.6
							c0.1,0.3,0.1,0.3,0.2,0.5c0,0.1,0.1,0.1,0.1,0.2c0.2,0.4,0.4,0.8,0.7,1.2c0.5,0.7,1,1.3,1.6,1.8c1.2,1,2.6,1.6,4,1.6l0,0
							l6.8-6.8c0.1-0.1,0.2-0.2,0.3-0.3c0.1-0.1,0.1-0.2,0.2-0.3c0.1-0.1,0.1-0.2,0.1-0.3c0.1-0.2,0.1-0.3,0.1-0.5v-0.2
							c0-0.1,0-0.2,0-0.3c0-0.2,0-0.4,0-0.6v-0.1c-0.1-0.5-0.3-0.9-0.6-1.2C216,265.6,216,265.5,215.8,265.3L215.8,265.3z"/>
					</g>
				</g>
				<g class="st3">
					<path d="M194.4,220.1l2.5,6.2h11l2.5-6.2h2.3l-9,21.8h-2.7l-9-21.8H194.4z M197.8,228.4l4.6,11.3l4.7-11.3H197.8z"/>
				</g>
				<g class="st3">
					<path class="st4" d="M194.4,220.1l2.5,6.2h11l2.5-6.2h2.3l-9,21.8h-2.7l-9-21.8H194.4z M197.8,228.4l4.6,11.3l4.7-11.3H197.8z"
						/>
				</g>
			</g>
			<g>
				<g>
					<g>
						<path class="st1" d="M38.3,47c0,0.2,0,0.3,0,0.5c0,0.1,0,0.1,0,0.2c0,0.1-0.1,0.2-0.1,0.3s-0.1,0.2-0.1,0.2
							c-0.1,0.2-0.2,0.4-0.3,0.6c-0.1,0.1-0.2,0.3-0.3,0.4l0,0L34,52.6l-2.7,2.8L30.6,56h-0.2c-1.5,0-3-0.7-4.1-1.7
							c-0.6-0.5-1.2-1.1-1.7-1.8c-0.3-0.4-0.5-0.8-0.7-1.2s-0.2-0.3-0.3-0.8c0,0.3,0,0.6,0.1,0.9c0.1,0.6,0.2,0.7,0.4,1.2
							c0.5,1.4,1.4,2.6,2.5,3.5c0.7,0.7,1.5,1.2,2.4,1.5l-4,4c-0.2,0.2-0.4,0.3-0.6,0.5c-0.1,0.1-0.3,0.2-0.4,0.2
							c-0.6,0.3-1.4,0.3-2,0.1c-0.3-0.1-0.6-0.2-0.8-0.4c-0.2-0.1-0.3-0.2-0.5-0.4L8.1,49.2l0,0C8,49.1,7.9,49.1,7.9,49
							c-0.3-0.4-0.5-0.9-0.6-1.3v-0.1c0-0.2-0.1-0.4,0-0.6c0-0.1,0-0.2,0-0.3s0-0.1,0-0.2c0-0.2,0.1-0.3,0.2-0.5
							c0-0.1,0.1-0.2,0.1-0.3c0.1-0.1,0.1-0.2,0.2-0.3c0-0.3,0.2-0.4,0.3-0.5l0,0l3.4-3.3l2.7-2.8l0.7-0.7h0.2c1.5,0,3,0.7,4.1,1.7
							c0.6,0.5,1.2,1.1,1.7,1.8c0.3,0.4,0.5,0.8,0.7,1.2s0.2,0.3,0.3,0.8c0-0.3,0-0.6-0.1-0.9c-0.1-0.6-0.2-0.7-0.4-1.2
							C20.9,40.1,20,38.9,19,38c-0.7-0.7-1.5-1.2-2.4-1.5l4-4c0.4-0.4,0.9-0.7,1.4-0.8c0.2,0,0.3-0.1,0.5-0.1
							c0.9-0.1,1.8,0.2,2.5,0.9l0,0L37.5,45l0,0c0.1,0.1,0.1,0.2,0.2,0.2c0.2,0.2,0.4,0.5,0.5,0.8c0.1,0.2,0.1,0.4,0.2,0.5v0.1
							C38.3,46.7,38.3,46.8,38.3,47z"/>
					</g>
					<g>
						<path class="st2" d="M22.7,62.9c-0.3,0-0.6,0-1-0.1c-0.3-0.1-0.6-0.2-0.9-0.4c-0.2-0.1-0.4-0.3-0.5-0.4L7.8,49.3
							c-0.1-0.1-0.1-0.1-0.1-0.2c-0.3-0.4-0.6-0.9-0.7-1.4c0-0.1,0-0.1,0-0.2c0-0.2-0.1-0.4,0-0.6c0-0.1,0-0.2,0-0.4v-0.2
							c0-0.2,0.1-0.4,0.2-0.6c0-0.1,0.1-0.2,0.1-0.3c0.1-0.1,0.1-0.2,0.2-0.4c0.1-0.1,0.2-0.2,0.3-0.3l0,0l0.1-0.1l6.9-6.9h0.3
							c1.5,0,3,0.7,4.3,1.7c0.6,0.5,1.2,1.1,1.7,1.9c-0.5-1.2-1.3-2.3-2.3-3.1c-0.7-0.7-1.5-1.2-2.3-1.5L16,36.5l4.3-4.3
							c0.4-0.4,0.9-0.7,1.5-0.9c0.2,0,0.3-0.1,0.5-0.1c1-0.1,1.9,0.2,2.6,0.9l0,0l0.1,0.1l12.6,12.6c0.1,0.1,0.1,0.1,0.1,0.2
							c0.2,0.3,0.4,0.6,0.5,0.9c0.1,0.2,0.1,0.4,0.2,0.6c0,0.1,0,0.1,0,0.2c0,0.1,0,0.2,0,0.4s0,0.3,0,0.5v0.1v0.1
							c0,0.1-0.1,0.2-0.1,0.4c0,0.1-0.1,0.2-0.1,0.2c-0.1,0.2-0.2,0.4-0.4,0.6c-0.1,0.1-0.2,0.2-0.3,0.3l0,0l-0.1,0.1l-6.9,6.9h-0.3
							c-1.5,0-3-0.7-4.3-1.7c-0.6-0.5-1.2-1.1-1.7-1.9c0.5,1.2,1.3,2.3,2.3,3.1c0.7,0.7,1.5,1.2,2.3,1.5l0.4,0.2l-4.3,4.3
							c-0.2,0.2-0.4,0.3-0.6,0.5c-0.2,0.1-0.3,0.2-0.5,0.2C23.6,62.8,23.2,62.9,22.7,62.9z M8.4,49.1l12.4,12.4
							c0.1,0.1,0.3,0.3,0.4,0.3c0.2,0.2,0.5,0.3,0.7,0.3c0.6,0.2,1.3,0.2,1.8-0.1c0.1-0.1,0.3-0.1,0.4-0.2c0.2-0.1,0.4-0.3,0.5-0.4
							l3.7-3.7c-0.7-0.3-1.5-0.8-2.1-1.4c-1.2-1-2.1-2.2-2.6-3.7l-0.1-0.2c-0.1-0.3-0.2-0.5-0.3-1c0-0.2,0-0.4,0-0.6
							c0-0.1,0-0.2,0-0.3l-0.1-2.6l0.7,2.6c0.1,0.3,0.1,0.3,0.2,0.5c0,0.1,0.1,0.1,0.1,0.2c0.2,0.4,0.4,0.8,0.7,1.2
							c0.5,0.7,1,1.3,1.6,1.8c1.2,1,2.6,1.6,4,1.6l0,0l6.8-6.8c0.1-0.1,0.2-0.2,0.3-0.3c0.1-0.2,0.2-0.3,0.3-0.5
							c0-0.1,0.1-0.1,0.1-0.2c0-0.1,0.1-0.2,0.1-0.3v-0.2c0-0.1,0-0.3,0-0.4l0,0c0-0.1,0-0.2,0-0.3s0-0.1,0-0.1
							c0-0.2-0.1-0.3-0.2-0.5c-0.1-0.2-0.2-0.5-0.4-0.7c-0.1-0.1-0.1-0.1-0.2-0.2L37.1,45L24.7,32.6c-0.6-0.6-1.4-0.9-2.3-0.8
							c-0.1,0-0.3,0-0.4,0.1c-0.5,0.1-0.9,0.4-1.2,0.7L17,36.3c0.7,0.3,1.5,0.8,2.1,1.4c1.2,1,2.1,2.2,2.6,3.7l0.1,0.2
							c0.1,0.3,0.2,0.5,0.3,1c0,0.2,0,0.4,0,0.6c0,0.1,0,0.2,0,0.3l0.1,2.6l-0.7-2.6c-0.1-0.3-0.1-0.3-0.2-0.5
							c0-0.1-0.1-0.1-0.1-0.2c-0.2-0.4-0.4-0.8-0.7-1.2c-0.5-0.7-1-1.3-1.6-1.8c-1.2-1-2.6-1.6-4-1.6l0,0L8.1,45
							c-0.1,0.1-0.2,0.2-0.3,0.3c-0.1,0.1-0.1,0.2-0.2,0.3s-0.1,0.2-0.1,0.3c-0.1,0.2-0.1,0.3-0.1,0.5v0.2c0,0.1,0,0.2,0,0.3
							c0,0.2,0,0.4,0,0.6v0.1c0.1,0.5,0.3,0.9,0.6,1.2C8.2,48.9,8.2,48.9,8.4,49.1L8.4,49.1z"/>
					</g>
				</g>
				<g class="st3">
					<path d="M30,95.8l-2.5-6.2h-11l-2.5,6.2h-2.3l9-21.8h2.7l9,21.8H30z M26.5,87.5l-4.6-11.3l-4.7,11.3H26.5z"/>
				</g>
				<g class="st3">
					<path class="st4" d="M30,95.8l-2.5-6.2h-11l-2.5,6.2h-2.3l9-21.8h2.7l9,21.8H30z M26.5,87.5l-4.6-11.3l-4.7,11.3H26.5z"/>
				</g>
			</g>
		</g>
		<g class="st5">
			<path d="M173.5,283H50.7c-4.2,0-7.5-3.4-7.5-7.5V37.3c0-4.2,3.4-7.5,7.5-7.5h122.8c4.2,0,7.5,3.4,7.5,7.5v238.1
				C181,279.6,177.6,283,173.5,283z"/>
		</g>
	</g>
	<g>
		<g>
			<path class="st1" d="M151.9,156.2c0,0.4,0,0.8-0.1,1.3c0,0.2-0.1,0.4-0.1,0.5c-0.1,0.3-0.1,0.6-0.2,0.8c-0.1,0.2-0.1,0.4-0.2,0.6
				c-0.2,0.5-0.5,1-0.8,1.5c-0.3,0.3-0.5,0.7-0.8,1l0,0l-8.6,8.6l-7,7.1l-1.9,1.9h-0.4c-3.9-0.1-7.6-1.7-10.6-4.2
				c-1.6-1.3-3-2.9-4.2-4.7c-0.7-1-1.3-2.1-1.8-3.2c-0.5-1-0.5-0.8-0.8-2c0,0.7,0,1.4,0.1,2.2c0.3,1.5,0.4,1.7,0.9,3
				c1.4,3.7,3.7,6.7,6.5,9.1c1.9,1.7,3.9,3,6.2,4l-10.4,10.4c-0.4,0.4-0.9,0.8-1.5,1.2c-0.4,0.2-0.7,0.4-1.1,0.6
				c-1.7,0.7-3.5,0.8-5.2,0.3c-0.7-0.2-1.4-0.5-2.1-1c-0.4-0.3-0.9-0.6-1.3-1l-32-32l0,0c-0.2-0.2-0.4-0.4-0.5-0.6
				c-0.8-1-1.3-2.2-1.6-3.4c0-0.1,0-0.2,0-0.2c-0.1-0.5-0.1-1-0.1-1.5c0-0.3,0-0.6,0.1-0.9c0-0.2,0.1-0.4,0.1-0.5
				c0.1-0.4,0.2-0.9,0.4-1.3c0.1-0.3,0.2-0.5,0.3-0.7c0.2-0.3,0.3-0.6,0.6-0.9c0.2-0.3,0.5-0.7,0.8-1l0,0l8.6-8.6l7-7.1l1.9-1.9h0.4
				c3.9,0.1,7.6,1.7,10.6,4.2c1.6,1.3,3,2.9,4.2,4.7c0.7,1,1.3,2.1,1.8,3.2c0.5,1,0.5,0.8,0.8,2c0-0.7,0-1.4-0.1-2.2
				c-0.3-1.5-0.4-1.7-0.9-3c-1.4-3.7-3.7-6.7-6.5-9.1c-1.9-1.7-3.9-3-6.2-4l10.3-10.3c1-1,2.2-1.7,3.5-2c0.4-0.1,0.8-0.2,1.2-0.2
				c2.3-0.3,4.6,0.5,6.4,2.2l0,0l32,32l0,0c0.2,0.2,0.4,0.4,0.5,0.6c0.5,0.6,0.9,1.3,1.2,2c0.2,0.5,0.3,0.9,0.4,1.4
				c0,0.1,0,0.3,0,0.4C151.9,155.6,151.9,155.9,151.9,156.2z"/>
		</g>
		<g>
			<path class="st2" d="M112.1,196.9c-0.8,0-1.7-0.1-2.5-0.4c-0.8-0.2-1.5-0.6-2.3-1.1c-0.4-0.3-0.9-0.6-1.4-1.1l-32.2-32.2
				c-0.1-0.1-0.3-0.3-0.4-0.4c-0.8-1-1.5-2.3-1.8-3.7c0-0.1,0-0.3,0-0.4c-0.1-0.5-0.1-1-0.1-1.6c0-0.3,0-0.6,0.1-0.9l0.1-0.6
				c0.1-0.5,0.3-1,0.4-1.4c0.1-0.3,0.2-0.5,0.4-0.8c0.1-0.3,0.4-0.6,0.6-0.9c0.2-0.3,0.4-0.5,0.7-0.8l0,0l0.2-0.2l17.7-17.7h0.7
				c3.9,0.1,7.8,1.7,11.1,4.4c1.6,1.3,3.1,2.9,4.3,4.8c-1.3-3.1-3.4-5.9-6-8.1c-1.9-1.7-3.9-3-6-3.8l-1-0.4l11.1-11.1
				c1-1.1,2.4-1.8,3.8-2.2c0.4-0.1,0.9-0.2,1.3-0.3c2.5-0.3,4.9,0.5,6.8,2.2l0,0l0.2,0.2l32.2,32.2c0.1,0.1,0.3,0.3,0.4,0.4
				c0.6,0.7,1,1.4,1.3,2.2c0.2,0.5,0.3,1,0.5,1.5c0,0.2,0.1,0.4,0.1,0.5c0.1,0.2,0.1,0.6,0.1,1s0,0.8-0.1,1.4v0.3
				c0,0.1,0,0.2-0.1,0.3c-0.1,0.3-0.1,0.6-0.3,0.9c-0.1,0.2-0.1,0.4-0.2,0.6c-0.2,0.5-0.5,1.1-0.9,1.6c-0.2,0.3-0.5,0.6-0.7,0.9l0,0
				l-0.2,0.2l-17.7,17.7h-0.7c-3.9-0.1-7.8-1.7-11.1-4.4c-1.6-1.3-3.1-2.9-4.3-4.8c1.3,3.1,3.4,5.9,6,8.1c1.9,1.7,3.9,3,6,3.8l1,0.4
				l-11.1,11.1c-0.5,0.5-1,0.9-1.6,1.3c-0.4,0.2-0.8,0.5-1.2,0.6C114.3,196.7,113.2,196.9,112.1,196.9z M75.3,161.7l31.8,31.7
				c0.4,0.4,0.7,0.7,1.1,0.9c0.6,0.4,1.2,0.7,1.9,0.9c1.5,0.5,3.2,0.4,4.7-0.2c0.4-0.1,0.7-0.3,1-0.5c0.5-0.3,0.9-0.7,1.3-1l9.6-9.6
				c-1.9-0.9-3.7-2.1-5.4-3.7c-3-2.5-5.3-5.7-6.6-9.4l-0.2-0.6c-0.3-0.9-0.5-1.3-0.7-2.6c-0.1-0.6-0.1-1.1-0.1-1.6
				c0-0.2,0-0.4,0-0.6l-0.4-6.8l1.8,6.5c0.2,0.8,0.2,0.8,0.4,1.2c0.1,0.2,0.2,0.3,0.3,0.6c0.5,1.1,1,2.1,1.7,3.1
				c1.2,1.8,2.6,3.3,4.1,4.5c3,2.5,6.7,4,10.2,4.1h0.1l17.3-17.3c0.3-0.3,0.5-0.6,0.8-0.9c0.3-0.5,0.6-0.9,0.7-1.3
				c0.1-0.2,0.1-0.3,0.2-0.5c0.1-0.3,0.2-0.5,0.2-0.8l0.1-0.5c0-0.3,0.1-0.7,0.1-1.1l0,0c0-0.3,0-0.6-0.1-0.9c0-0.2,0-0.3,0-0.4
				c-0.1-0.4-0.2-0.8-0.4-1.3c-0.2-0.6-0.6-1.2-1.1-1.8c-0.2-0.2-0.3-0.4-0.5-0.5l-0.2-0.2l-31.8-31.7c-1.5-1.5-3.7-2.3-5.8-2
				c-0.4,0-0.7,0.1-1.1,0.2c-1.2,0.3-2.3,0.9-3.2,1.8l-9.6,9.6c1.9,0.9,3.7,2.1,5.4,3.7c3,2.5,5.3,5.7,6.6,9.4l0.2,0.6
				c0.3,0.9,0.5,1.3,0.7,2.6c0.1,0.6,0.1,1.1,0.1,1.6c0,0.2,0,0.4,0,0.6l0.4,6.8l-1.8-6.5c-0.2-0.8-0.2-0.8-0.4-1.2
				c-0.1-0.2-0.2-0.4-0.3-0.6c-0.5-1.1-1-2.1-1.7-3.1c-1.2-1.8-2.6-3.3-4.1-4.5c-3-2.5-6.7-4-10.2-4.1h-0.1L75,151.6
				c-0.3,0.3-0.6,0.6-0.7,0.9c-0.2,0.3-0.4,0.5-0.5,0.8c-0.1,0.2-0.2,0.4-0.3,0.6c-0.2,0.4-0.3,0.8-0.4,1.2l-0.1,0.5
				c0,0.2,0,0.5,0,0.7c0,0.5,0,0.9,0.1,1.4v0.2c0.3,1.2,0.8,2.3,1.5,3.1c0.2,0.2,0.3,0.4,0.5,0.5L75.3,161.7z"/>
		</g>
	</g>
</g>
</svg>
