<?xml version="1.0" encoding="utf-8"?>
<!-- Generator: Adobe Illustrator 26.0.0, SVG Export Plug-In . SVG Version: 6.00 Build 0)  -->
<svg version="1.1" id="Layer_1" xmlns="http://www.w3.org/2000/svg" xmlns:xlink="http://www.w3.org/1999/xlink" x="0px" y="0px"
	 viewBox="0 0 64 64" style="enable-background:new 0 0 64 64;" xml:space="preserve">
<style type="text/css">
	.st0{fill:#E85F1A;}
	.st1{display:none;}
	.st2{display:inline;}
	.st3{fill:#EA9E18;}
	.st4{fill:#4DE51C;}
	.st5{fill:#1A9AE8;}
	.st6{fill:#1C1CE5;}
	.st7{fill:#9F1EE2;}
</style>
<g>
	<g>
		<g>
			<g>
				<g>
					<path class="st0" d="M63,11.9V1H52.1v4.1H11.9V1H1v10.9h4.1v40.3H1V63h10.9v-4h40.3v4H63V52.1h-4.1V11.9H63z M3,9.9V3h6.9v6.9
						H3z M9.9,61H3v-6.9h6.9C9.9,54.1,9.9,61,9.9,61z M52.1,56.2H11.9v-4h-4V11.9h4v-4h40.3v4.1h4v40.3h-4L52.1,56.2L52.1,56.2z
						 M61,54.1V61h-6.9v-6.9H61z M54.1,9.9V3H61v6.9H54.1z"/>
				</g>
			</g>
		</g>
	</g>
	<g>
		<g>
			
				<rect x="18.9" y="30.7" transform="matrix(0.2869 -0.958 0.958 0.2869 -7.2488 54.4359)" class="st0" width="28.1" height="2.8"/>
		</g>
		<g>
			<polygon class="st0" points="49.2,32.1 47.9,35.7 45.4,42.5 43,41.9 46.5,32.1 43,22.3 45.4,21.7 47.9,28.5 			"/>
		</g>
		<g>
			<polygon class="st0" points="16.7,32.1 18,28.4 20.4,21.7 22.9,22.3 19.3,32.1 22.9,41.9 20.4,42.5 18,35.7 			"/>
		</g>
	</g>
</g>
<g class="st1">
	<g class="st2">
		<g>
			<g>
				<g>
					<path class="st3" d="M63,11.9V1H52.1v4.1H11.9V1H1v10.9h4.1v40.3H1V63h10.9v-4h40.3v4H63V52.1h-4.1V11.9H63z M3,9.9V3h6.9v6.9
						H3z M9.9,61H3v-6.9h6.9C9.9,54.1,9.9,61,9.9,61z M52.1,56.2H11.9v-4h-4V11.9h4v-4h40.3v4.1h4v40.3h-4L52.1,56.2L52.1,56.2z
						 M61,54.1V61h-6.9v-6.9H61z M54.1,9.9V3H61v6.9H54.1z"/>
				</g>
			</g>
		</g>
	</g>
	<g class="st2">
		<g>
			
				<rect x="18.9" y="30.7" transform="matrix(0.2869 -0.958 0.958 0.2869 -7.2488 54.4359)" class="st3" width="28.1" height="2.8"/>
		</g>
		<g>
			<polygon class="st3" points="49.2,32.1 47.9,35.7 45.4,42.5 43,41.9 46.5,32.1 43,22.3 45.4,21.7 47.9,28.5 			"/>
		</g>
		<g>
			<polygon class="st3" points="16.7,32.1 18,28.4 20.4,21.7 22.9,22.3 19.3,32.1 22.9,41.9 20.4,42.5 18,35.7 			"/>
		</g>
	</g>
</g>
<g class="st1">
	<g class="st2">
		<g>
			<g>
				<g>
					<path class="st4" d="M63,11.9V1H52.1v4.1H11.9V1H1v10.9h4.1v40.3H1V63h10.9v-4h40.3v4H63V52.1h-4.1V11.9H63z M3,9.9V3h6.9v6.9
						H3z M9.9,61H3v-6.9h6.9C9.9,54.1,9.9,61,9.9,61z M52.1,56.2H11.9v-4h-4V11.9h4v-4h40.3v4.1h4v40.3h-4L52.1,56.2L52.1,56.2z
						 M61,54.1V61h-6.9v-6.9H61z M54.1,9.9V3H61v6.9H54.1z"/>
				</g>
			</g>
		</g>
	</g>
	<g class="st2">
		<g>
			
				<rect x="18.9" y="30.7" transform="matrix(0.2869 -0.958 0.958 0.2869 -7.2488 54.4359)" class="st4" width="28.1" height="2.8"/>
		</g>
		<g>
			<polygon class="st4" points="49.2,32.1 47.9,35.7 45.4,42.5 43,41.9 46.5,32.1 43,22.3 45.4,21.7 47.9,28.5 			"/>
		</g>
		<g>
			<polygon class="st4" points="16.7,32.1 18,28.4 20.4,21.7 22.9,22.3 19.3,32.1 22.9,41.9 20.4,42.5 18,35.7 			"/>
		</g>
	</g>
</g>
<g class="st1">
	<g class="st2">
		<g>
			<g>
				<g>
					<path class="st5" d="M63,11.9V1H52.1v4.1H11.9V1H1v10.9h4.1v40.3H1V63h10.9v-4h40.3v4H63V52.1h-4.1V11.9H63z M3,9.9V3h6.9v6.9
						H3z M9.9,61H3v-6.9h6.9C9.9,54.1,9.9,61,9.9,61z M52.1,56.2H11.9v-4h-4V11.9h4v-4h40.3v4.1h4v40.3h-4L52.1,56.2L52.1,56.2z
						 M61,54.1V61h-6.9v-6.9H61z M54.1,9.9V3H61v6.9H54.1z"/>
				</g>
			</g>
		</g>
	</g>
	<g class="st2">
		<g>
			
				<rect x="18.9" y="30.7" transform="matrix(0.2869 -0.958 0.958 0.2869 -7.2488 54.4359)" class="st5" width="28.1" height="2.8"/>
		</g>
		<g>
			<polygon class="st5" points="49.2,32.1 47.9,35.7 45.4,42.5 43,41.9 46.5,32.1 43,22.3 45.4,21.7 47.9,28.5 			"/>
		</g>
		<g>
			<polygon class="st5" points="16.7,32.1 18,28.4 20.4,21.7 22.9,22.3 19.3,32.1 22.9,41.9 20.4,42.5 18,35.7 			"/>
		</g>
	</g>
</g>
<g class="st1">
	<g class="st2">
		<g>
			<g>
				<g>
					<path class="st6" d="M63,11.9V1H52.1v4.1H11.9V1H1v10.9h4.1v40.3H1V63h10.9v-4h40.3v4H63V52.1h-4.1V11.9H63z M3,9.9V3h6.9v6.9
						H3z M9.9,61H3v-6.9h6.9C9.9,54.1,9.9,61,9.9,61z M52.1,56.2H11.9v-4h-4V11.9h4v-4h40.3v4.1h4v40.3h-4L52.1,56.2L52.1,56.2z
						 M61,54.1V61h-6.9v-6.9H61z M54.1,9.9V3H61v6.9H54.1z"/>
				</g>
			</g>
		</g>
	</g>
	<g class="st2">
		<g>
			
				<rect x="18.9" y="30.7" transform="matrix(0.2869 -0.958 0.958 0.2869 -7.2488 54.4359)" class="st6" width="28.1" height="2.8"/>
		</g>
		<g>
			<polygon class="st6" points="49.2,32.1 47.9,35.7 45.4,42.5 43,41.9 46.5,32.1 43,22.3 45.4,21.7 47.9,28.5 			"/>
		</g>
		<g>
			<polygon class="st6" points="16.7,32.1 18,28.4 20.4,21.7 22.9,22.3 19.3,32.1 22.9,41.9 20.4,42.5 18,35.7 			"/>
		</g>
	</g>
</g>
<g class="st1">
	<g class="st2">
		<g>
			<g>
				<g>
					<path class="st7" d="M63,11.9V1H52.1v4.1H11.9V1H1v10.9h4.1v40.3H1V63h10.9v-4h40.3v4H63V52.1h-4.1V11.9H63z M3,9.9V3h6.9v6.9
						H3z M9.9,61H3v-6.9h6.9C9.9,54.1,9.9,61,9.9,61z M52.1,56.2H11.9v-4h-4V11.9h4v-4h40.3v4.1h4v40.3h-4L52.1,56.2L52.1,56.2z
						 M61,54.1V61h-6.9v-6.9H61z M54.1,9.9V3H61v6.9H54.1z"/>
				</g>
			</g>
		</g>
	</g>
	<g class="st2">
		<g>
			
				<rect x="18.9" y="30.7" transform="matrix(0.2869 -0.958 0.958 0.2869 -7.2488 54.4359)" class="st7" width="28.1" height="2.8"/>
		</g>
		<g>
			<polygon class="st7" points="49.2,32.1 47.9,35.7 45.4,42.5 43,41.9 46.5,32.1 43,22.3 45.4,21.7 47.9,28.5 			"/>
		</g>
		<g>
			<polygon class="st7" points="16.7,32.1 18,28.4 20.4,21.7 22.9,22.3 19.3,32.1 22.9,41.9 20.4,42.5 18,35.7 			"/>
		</g>
	</g>
</g>
</svg>
