<?xml version="1.0" encoding="utf-8"?>
<!-- Generator: Adobe Illustrator 26.0.0, SVG Export Plug-In . SVG Version: 6.00 Build 0)  -->
<svg version="1.1" id="Layer_1" xmlns="http://www.w3.org/2000/svg" xmlns:xlink="http://www.w3.org/1999/xlink" x="0px" y="0px"
	 viewBox="0 0 64 64" style="enable-background:new 0 0 64 64;" xml:space="preserve">
<style type="text/css">
	.st0{fill:#E85F1A;}
	.st1{display:none;}
	.st2{display:inline;}
	.st3{fill:#EA9E18;}
	.st4{fill:#4DE51C;}
	.st5{fill:#1A9AE8;}
	.st6{fill:#1C1CE5;}
	.st7{fill:#9F1EE2;}
</style>
<g>
	<g>
		<g>
			<g>
				<g>
					<path class="st0" d="M63,11.9V1H52.1v4.1H11.9V1H1v10.9h4.1v40.2H1V63h10.9v-4.1h40.3V63H63V52.1h-4.1V11.9H63z M3,9.9V3h6.9
						v6.9L3,9.9L3,9.9z M9.9,61H3v-6.9h6.9C9.9,54.1,9.9,61,9.9,61z M52.1,56.2H11.9v-4h-4V11.9h4V7.8h40.3v4.1h4v40.2h-4L52.1,56.2
						L52.1,56.2z M61,54.1V61h-6.9v-6.9L61,54.1L61,54.1z M54.1,9.9V3H61v6.9L54.1,9.9L54.1,9.9z"/>
				</g>
			</g>
		</g>
	</g>
	<g>
		<path class="st0" d="M40.5,32.2l-2,7.5l-4.5-7l4-7.9L40.5,32.2l1.5-2.6c0.1-0.1,0.1-0.3,0-0.4l-3-8.7c-0.1-0.3-0.4-0.4-0.7-0.4
			l-8.9,2.2c-0.2,0-0.3,0.2-0.4,0.3l-1,2.4l7.7-1.4l-4,7.9h-9.1l5.5-6.5h-2.9c-0.1,0-0.3,0.1-0.4,0.2l-6.5,7.1
			c-0.2,0.2-0.2,0.6,0,0.8l6.8,6.5c0.1,0.1,0.2,0.2,0.4,0.2h3.1l-6.1-6h9.1l4.8,7.2l-7.9-1.2l1,2.4c0.1,0.2,0.2,0.3,0.4,0.3l9.5,1.6
			c0,0,0.1,0,0.1,0c0.3,0,0.5-0.2,0.5-0.4l1.9-8.8c0-0.1,0-0.3-0.1-0.4L40.5,32.2z"/>
	</g>
</g>
<g class="st1">
	<g class="st2">
		<g>
			<g>
				<g>
					<path class="st3" d="M63,11.9V1H52.1v4.1H11.9V1H1v10.9h4.1v40.2H1V63h10.9v-4.1h40.3V63H63V52.1h-4.1V11.9H63z M3,9.9V3h6.9
						v6.9L3,9.9L3,9.9z M9.9,61H3v-6.9h6.9C9.9,54.1,9.9,61,9.9,61z M52.1,56.2H11.9v-4h-4V11.9h4V7.8h40.3v4.1h4v40.2h-4L52.1,56.2
						L52.1,56.2z M61,54.1V61h-6.9v-6.9L61,54.1L61,54.1z M54.1,9.9V3H61v6.9L54.1,9.9L54.1,9.9z"/>
				</g>
			</g>
		</g>
	</g>
	<g class="st2">
		<path class="st3" d="M40.5,32.2l-2,7.5l-4.5-7l4-7.9L40.5,32.2l1.5-2.6c0.1-0.1,0.1-0.3,0-0.4l-3-8.7c-0.1-0.3-0.4-0.4-0.7-0.4
			l-8.9,2.2c-0.2,0-0.3,0.2-0.4,0.3l-1,2.4l7.7-1.4l-4,7.9h-9.1l5.5-6.5h-2.9c-0.1,0-0.3,0.1-0.4,0.2l-6.5,7.1
			c-0.2,0.2-0.2,0.6,0,0.8l6.8,6.5c0.1,0.1,0.2,0.2,0.4,0.2h3.1l-6.1-6h9.1l4.8,7.2l-7.9-1.2l1,2.4c0.1,0.2,0.2,0.3,0.4,0.3l9.5,1.6
			c0,0,0.1,0,0.1,0c0.3,0,0.5-0.2,0.5-0.4l1.9-8.8c0-0.1,0-0.3-0.1-0.4L40.5,32.2z"/>
	</g>
</g>
<g class="st1">
	<g class="st2">
		<g>
			<g>
				<g>
					<path class="st4" d="M63,11.9V1H52.1v4.1H11.9V1H1v10.9h4.1v40.2H1V63h10.9v-4.1h40.3V63H63V52.1h-4.1V11.9H63z M3,9.9V3h6.9
						v6.9L3,9.9L3,9.9z M9.9,61H3v-6.9h6.9C9.9,54.1,9.9,61,9.9,61z M52.1,56.2H11.9v-4h-4V11.9h4V7.8h40.3v4.1h4v40.2h-4L52.1,56.2
						L52.1,56.2z M61,54.1V61h-6.9v-6.9L61,54.1L61,54.1z M54.1,9.9V3H61v6.9L54.1,9.9L54.1,9.9z"/>
				</g>
			</g>
		</g>
	</g>
	<g class="st2">
		<path class="st4" d="M40.5,32.2l-2,7.5l-4.5-7l4-7.9L40.5,32.2l1.5-2.6c0.1-0.1,0.1-0.3,0-0.4l-3-8.7c-0.1-0.3-0.4-0.4-0.7-0.4
			l-8.9,2.2c-0.2,0-0.3,0.2-0.4,0.3l-1,2.4l7.7-1.4l-4,7.9h-9.1l5.5-6.5h-2.9c-0.1,0-0.3,0.1-0.4,0.2l-6.5,7.1
			c-0.2,0.2-0.2,0.6,0,0.8l6.8,6.5c0.1,0.1,0.2,0.2,0.4,0.2h3.1l-6.1-6h9.1l4.8,7.2l-7.9-1.2l1,2.4c0.1,0.2,0.2,0.3,0.4,0.3l9.5,1.6
			c0,0,0.1,0,0.1,0c0.3,0,0.5-0.2,0.5-0.4l1.9-8.8c0-0.1,0-0.3-0.1-0.4L40.5,32.2z"/>
	</g>
</g>
<g class="st1">
	<g class="st2">
		<g>
			<g>
				<g>
					<path class="st5" d="M63,11.9V1H52.1v4.1H11.9V1H1v10.9h4.1v40.2H1V63h10.9v-4.1h40.3V63H63V52.1h-4.1V11.9H63z M3,9.9V3h6.9
						v6.9L3,9.9L3,9.9z M9.9,61H3v-6.9h6.9C9.9,54.1,9.9,61,9.9,61z M52.1,56.2H11.9v-4h-4V11.9h4V7.8h40.3v4.1h4v40.2h-4L52.1,56.2
						L52.1,56.2z M61,54.1V61h-6.9v-6.9L61,54.1L61,54.1z M54.1,9.9V3H61v6.9L54.1,9.9L54.1,9.9z"/>
				</g>
			</g>
		</g>
	</g>
	<g class="st2">
		<path class="st5" d="M40.5,32.2l-2,7.5l-4.5-7l4-7.9L40.5,32.2l1.5-2.6c0.1-0.1,0.1-0.3,0-0.4l-3-8.7c-0.1-0.3-0.4-0.4-0.7-0.4
			l-8.9,2.2c-0.2,0-0.3,0.2-0.4,0.3l-1,2.4l7.7-1.4l-4,7.9h-9.1l5.5-6.5h-2.9c-0.1,0-0.3,0.1-0.4,0.2l-6.5,7.1
			c-0.2,0.2-0.2,0.6,0,0.8l6.8,6.5c0.1,0.1,0.2,0.2,0.4,0.2h3.1l-6.1-6h9.1l4.8,7.2l-7.9-1.2l1,2.4c0.1,0.2,0.2,0.3,0.4,0.3l9.5,1.6
			c0,0,0.1,0,0.1,0c0.3,0,0.5-0.2,0.5-0.4l1.9-8.8c0-0.1,0-0.3-0.1-0.4L40.5,32.2z"/>
	</g>
</g>
<g class="st1">
	<g class="st2">
		<g>
			<g>
				<g>
					<path class="st6" d="M63,11.9V1H52.1v4.1H11.9V1H1v10.9h4.1v40.2H1V63h10.9v-4.1h40.3V63H63V52.1h-4.1V11.9H63z M3,9.9V3h6.9
						v6.9L3,9.9L3,9.9z M9.9,61H3v-6.9h6.9C9.9,54.1,9.9,61,9.9,61z M52.1,56.2H11.9v-4h-4V11.9h4V7.8h40.3v4.1h4v40.2h-4L52.1,56.2
						L52.1,56.2z M61,54.1V61h-6.9v-6.9L61,54.1L61,54.1z M54.1,9.9V3H61v6.9L54.1,9.9L54.1,9.9z"/>
				</g>
			</g>
		</g>
	</g>
	<g class="st2">
		<path class="st6" d="M40.5,32.2l-2,7.5l-4.5-7l4-7.9L40.5,32.2l1.5-2.6c0.1-0.1,0.1-0.3,0-0.4l-3-8.7c-0.1-0.3-0.4-0.4-0.7-0.4
			l-8.9,2.2c-0.2,0-0.3,0.2-0.4,0.3l-1,2.4l7.7-1.4l-4,7.9h-9.1l5.5-6.5h-2.9c-0.1,0-0.3,0.1-0.4,0.2l-6.5,7.1
			c-0.2,0.2-0.2,0.6,0,0.8l6.8,6.5c0.1,0.1,0.2,0.2,0.4,0.2h3.1l-6.1-6h9.1l4.8,7.2l-7.9-1.2l1,2.4c0.1,0.2,0.2,0.3,0.4,0.3l9.5,1.6
			c0,0,0.1,0,0.1,0c0.3,0,0.5-0.2,0.5-0.4l1.9-8.8c0-0.1,0-0.3-0.1-0.4L40.5,32.2z"/>
	</g>
</g>
<g class="st1">
	<g class="st2">
		<g>
			<g>
				<g>
					<path class="st7" d="M63,11.9V1H52.1v4.1H11.9V1H1v10.9h4.1v40.2H1V63h10.9v-4.1h40.3V63H63V52.1h-4.1V11.9H63z M3,9.9V3h6.9
						v6.9L3,9.9L3,9.9z M9.9,61H3v-6.9h6.9C9.9,54.1,9.9,61,9.9,61z M52.1,56.2H11.9v-4h-4V11.9h4V7.8h40.3v4.1h4v40.2h-4L52.1,56.2
						L52.1,56.2z M61,54.1V61h-6.9v-6.9L61,54.1L61,54.1z M54.1,9.9V3H61v6.9L54.1,9.9L54.1,9.9z"/>
				</g>
			</g>
		</g>
	</g>
	<g class="st2">
		<path class="st7" d="M40.5,32.2l-2,7.5l-4.5-7l4-7.9L40.5,32.2l1.5-2.6c0.1-0.1,0.1-0.3,0-0.4l-3-8.7c-0.1-0.3-0.4-0.4-0.7-0.4
			l-8.9,2.2c-0.2,0-0.3,0.2-0.4,0.3l-1,2.4l7.7-1.4l-4,7.9h-9.1l5.5-6.5h-2.9c-0.1,0-0.3,0.1-0.4,0.2l-6.5,7.1
			c-0.2,0.2-0.2,0.6,0,0.8l6.8,6.5c0.1,0.1,0.2,0.2,0.4,0.2h3.1l-6.1-6h9.1l4.8,7.2l-7.9-1.2l1,2.4c0.1,0.2,0.2,0.3,0.4,0.3l9.5,1.6
			c0,0,0.1,0,0.1,0c0.3,0,0.5-0.2,0.5-0.4l1.9-8.8c0-0.1,0-0.3-0.1-0.4L40.5,32.2z"/>
	</g>
</g>
</svg>
