<svg xmlns="http://www.w3.org/2000/svg" width="101" height="101" viewBox="0 0 101 101">
  <g id="Group_18" data-name="Group 18" transform="translate(-1990 -2252)">
    <path id="Path_35" data-name="Path 35" d="M2091,2264V2341a12.005,12.005,0,0,1-12,12h-77a12,12,0,0,1-12-12v-77a12.005,12.005,0,0,1,12.005-12H2079A12.005,12.005,0,0,1,2091,2264Z" fill="#111"/>
    <g id="Group_17" data-name="Group 17">
      <path id="Path_36" data-name="Path 36" d="M2056.41,2308.541a8.844,8.844,0,1,1,8.859-8.6A8.876,8.876,0,0,1,2056.41,2308.541Zm2.223-3.237c2.251-.539,4.155-3.718,3.8-6.352a6.048,6.048,0,0,0-12.037.369c-.159,2.667,1.756,5.651,3.813,5.968a2.736,2.736,0,0,1,.411-3.351,2.7,2.7,0,0,1,3.307-.243C2059.059,2302.459,2059.29,2303.646,2058.633,2305.3Z" fill="#fff"/>
      <path id="Path_37" data-name="Path 37" d="M2022.006,2293.127a5.4,5.4,0,0,1,5.568,5.334,5.574,5.574,0,1,1-5.568-5.334Zm1.925,8.144a3.2,3.2,0,0,0,1.186-3.591,3.234,3.234,0,0,0-3.266-2.246,3.3,3.3,0,0,0-2.876,2.531,3.135,3.135,0,0,0,1.256,3.275c.428-1.221,1.047-1.77,1.941-1.721C2023.031,2299.566,2023.66,2300.185,2023.931,2301.271Z" fill="#fff"/>
      <path id="Path_38" data-name="Path 38" d="M2022.187,2328.954a.377.377,0,0,1-.074-.6,3.481,3.481,0,0,1,.779-.773,35.594,35.594,0,0,1,8.813-3.425,33.281,33.281,0,0,1,7.164-1.224,26.752,26.752,0,0,1,5.958.475,51.734,51.734,0,0,1,10.849,3.571,3.126,3.126,0,0,1,.673.283,9.849,9.849,0,0,1,.833.793,1.193,1.193,0,0,1-1.236.033c-.918-.456-1.863-.857-2.8-1.282-.415-.189-.759-.035-.964.459-.491,1.186-.99,2.37-1.452,3.567-.133.347-.3.5-.67.38,0-.392-.01-.8,0-1.2.032-1.085.077-2.171.111-3.257a1.077,1.077,0,0,0-.793-1.136,25.177,25.177,0,0,0-8.064-1.62,35.312,35.312,0,0,0-9.719,1.032,1.3,1.3,0,0,0-1.116,1.716c.2,1.362.341,2.733.481,4.1.013.125-.163.27-.3.479-.238-.54-.435-.974-.621-1.413-.4-.946-.8-1.894-1.2-2.841-.045-.107-.093-.214-.146-.318-.28-.542-.561-.669-1.108-.4-1.057.519-2.1,1.062-3.139,1.62A7.112,7.112,0,0,1,2022.187,2328.954Z" fill="#fff"/>
      <path id="Path_39" data-name="Path 39" d="M2060.817,2273.866a6.422,6.422,0,0,1-.806.788c-1.106.759-2.21,1.527-3.362,2.211a44.262,44.262,0,0,1-6.951,3.453,12.426,12.426,0,0,1-1.243.352,2.668,2.668,0,0,1-.414.028,2.79,2.79,0,0,1,.373-.508c.618-.5,1.222-1.017,1.883-1.45a48.352,48.352,0,0,1,8.521-4.521,12.953,12.953,0,0,1,1.368-.426,3.1,3.1,0,0,1,.549-.057Z" fill="#fff"/>
      <path id="Path_40" data-name="Path 40" d="M2015.84,2283.886a17.32,17.32,0,0,1,1.816.269,46.552,46.552,0,0,1,10.624,4.071,9.156,9.156,0,0,1,.783.528.532.532,0,0,1,.183.164,3.768,3.768,0,0,1-1.806-.1,49.29,49.29,0,0,1-9.295-3.363c-.632-.3-1.232-.663-1.838-1.012a4.657,4.657,0,0,1-.517-.4Z" fill="#fff"/>
    </g>
  </g>
</svg>
