<?xml version="1.0" encoding="utf-8"?>
<!-- Generator: Adobe Illustrator 26.4.1, SVG Export Plug-In . SVG Version: 6.00 Build 0)  -->
<svg version="1.1" id="Layer_1" xmlns="http://www.w3.org/2000/svg" xmlns:xlink="http://www.w3.org/1999/xlink" x="0px" y="0px"
	 viewBox="0 0 80 80" style="enable-background:new 0 0 80 80;" xml:space="preserve">
<style type="text/css">
	.st0{fill:#AB052C;}
	.st1{clip-path:url(#SVGID_00000072982628853410504660000013094806565091178384_);}
	.st2{fill:none;stroke:#000000;stroke-miterlimit:10;}
	.st3{fill:none;stroke:#000000;stroke-width:0.75;stroke-miterlimit:10;}
	.st4{stroke:#000000;stroke-width:0.25;stroke-miterlimit:10;}
	.st5{fill:none;}
</style>
<rect class="st0" width="80" height="80"/>
<g>
	<defs>
		<rect id="SVGID_1_" width="80" height="80"/>
	</defs>
	<clipPath id="SVGID_00000103242299802433048120000004022142810227260574_">
		<use xlink:href="#SVGID_1_"  style="overflow:visible;"/>
	</clipPath>
	<g style="clip-path:url(#SVGID_00000103242299802433048120000004022142810227260574_);">
		<path id="eFbXhEVdUtQ2" class="st2" d="M84.2,10.9c0.6-0.6,1.1-1.3,1.4-2c0.3-0.7,0.5-1.5,0.5-2.3c0-0.5,0-1,0-1.4
			c0,0,0-0.1,0-0.1l0,0v0.1c-0.1,0.5-0.2,1-0.3,1.5c-0.1,0.5-0.4,1-0.8,1.3c-0.4,0.4-0.9,0.8-1.5,1.1l0,0c-1.7-2.8-5.2-4.1-8.3-2.9
			l0,0l-0.3,0.1c-0.1,0-0.1,0-0.1,0c0,0-0.1-0.1-0.1-0.1c-0.2-0.5-0.4-1.1-0.5-1.7c-0.1-0.5-0.1-1,0.1-1.4c0.2-0.5,0.4-0.9,0.6-1.4
			V1.5l0,0c0,0-0.1,0-0.1,0.1C74.5,2,74.2,2.3,74,2.8c-0.5,0.6-0.8,1.4-1,2.1c-0.2,0.8-0.2,1.6,0,2.5l0,0c-0.9,0.8-1.6,1.8-2,3
			c-1.4,3.5,0.3,7.5,3.8,8.9c3.5,1.4,7.5-0.3,8.9-3.8c0.1-0.3,0.2-0.6,0.3-0.9C84.3,13.3,84.4,12.1,84.2,10.9z"/>
		<path id="eFbXhEVdUtQ2-2" class="st2" d="M4.2,10.9c0.6-0.6,1.1-1.3,1.4-2c0.3-0.7,0.5-1.5,0.5-2.3c0-0.5,0-1,0-1.4
			c0,0,0-0.1,0-0.1l0,0v0.1C6,5.6,5.9,6.1,5.8,6.6C5.7,7.1,5.4,7.6,5,7.9C4.6,8.3,4.1,8.7,3.5,9l0,0C2.6,7.6,1.3,6.5-0.3,6
			c-1.5-0.5-3-0.4-4.4,0.1l0,0l-0.3,0.1c-0.1,0-0.1,0-0.1,0c0,0-0.1-0.1-0.1-0.1C-5.5,5.6-5.7,5-5.8,4.4C-5.9,4-5.9,3.5-5.7,3
			c0.2-0.5,0.4-0.9,0.6-1.4V1.5l0,0c0,0-0.1,0-0.1,0.1C-5.5,2-5.8,2.3-6,2.8c-0.4,0.6-0.8,1.3-1,2.1c-0.2,0.8-0.2,1.6,0,2.5l0,0
			c-0.9,0.8-1.6,1.8-2,3c-1.2,3.6,0.7,7.4,4.3,8.6c0.1,0,0.1,0,0.2,0.1c3.6,1.1,7.4-0.8,8.6-4.4C4.4,13.4,4.5,12.1,4.2,10.9z"/>
		<path id="eFbXhEVdUtQ2-3" class="st2" d="M28.2,71.5c0-0.8-0.1-1.6-0.4-2.4c-0.3-0.7-0.7-1.4-1.3-2c-0.3-0.3-0.7-0.7-1-1
			c0,0-0.1,0-0.1-0.1l0,0l0,0.1c0.3,0.4,0.6,0.8,0.8,1.2c0.3,0.5,0.4,1,0.3,1.5c0,0.6-0.1,1.2-0.2,1.8v0.1c-1.6-0.4-3.3-0.2-4.8,0.6
			c-1.3,0.7-2.4,1.8-3.1,3.2l0,0c0,0.1-0.1,0.2-0.1,0.3c0,0.1,0,0.1-0.1,0.1c0,0-0.1,0-0.1,0c-0.5-0.2-1.1-0.5-1.6-0.8
			c-0.4-0.3-0.8-0.7-1-1.2c-0.2-0.5-0.4-0.9-0.5-1.4l-0.2,0l0,0c0,0,0,0.1,0,0.1c0.1,0.5,0.1,1,0.2,1.4c0.1,0.8,0.4,1.5,0.8,2.2
			c0.5,0.7,1.1,1.3,1.8,1.7l0,0c-0.1,1.2,0.1,2.5,0.7,3.6c1.8,3.3,6,4.5,9.3,2.7c3.2-1.8,4.5-5.7,2.9-9
			C30.1,73.1,29.2,72.2,28.2,71.5z"/>
		<path id="eFbXhEVdUtQ2-4" class="st2" d="M28.2-8.5c0-0.8-0.1-1.6-0.4-2.4c-0.3-0.7-0.7-1.4-1.3-2c-0.3-0.4-0.7-0.7-1-1
			c0,0-0.1,0-0.1-0.1l0,0l0,0.1c0.3,0.4,0.6,0.8,0.8,1.2c0.3,0.5,0.4,1,0.3,1.5c0,0.6-0.1,1.2-0.2,1.8v0.1c-1.6-0.4-3.3-0.2-4.8,0.6
			c-1.3,0.7-2.4,1.8-3.1,3.2l0,0c0,0.1-0.1,0.2-0.1,0.3c0,0.1,0,0.1-0.1,0.1c0,0-0.1,0-0.1,0c-0.5-0.2-1.1-0.5-1.6-0.8
			c-0.4-0.3-0.8-0.7-1-1.2c-0.2-0.5-0.4-0.9-0.5-1.4l-0.2,0l0,0c0,0.1,0,0.1,0,0.1C15.1-8,15.1-7.5,15.2-7c0.1,0.8,0.4,1.5,0.8,2.2
			c0.5,0.7,1.1,1.3,1.8,1.7l0,0c-0.1,1.2,0.2,2.5,0.7,3.6c1.7,3.4,5.8,4.7,9.2,2.9c0,0,0,0,0,0c3.3-1.7,4.7-5.9,2.9-9.2
			C30.1-6.9,29.3-7.8,28.2-8.5z"/>
		<path class="st3" d="M35,18.5l7.5,4c0,0,3,0.5,4.5,2l9,5L63.5,18c0,0-6.5-8-10-4.5c0,0-1-4-6.5-4l-3,1L35,18.5z"/>
		<path class="st3" d="M42.5,22.5c1,1.5,2.7,2.2,4.5,2"/>
		<polyline class="st3" points="35,18.5 37.8,18.2 47,9.5 		"/>
		<path class="st3" d="M37.8,18.2c0,0,6.8,1,6.7,4.7 M44.6,22.9l8.9-9.4"/>
		<polyline class="st3" points="56,29.5 52.8,25.2 60.6,15.1 		"/>
		<path class="st3" d="M44.5,23c0,0,3.3-2.8,8.2,2.2"/>
		<path class="st3" d="M57.2,72.8L45,72.3l-2.1-9.6L45,60h1.1L46,58.9l2.1,0.5l-1.1-2.1l7.5,5.9l5.9-9.1l7,8l1.6,2.7l1.1,2.2
			l1.6,3.2l-11.2,2.1C60.5,72.3,59.4,75,57.2,72.8z"/>
		<path class="st3" d="M60.5,72.3c0,0-1.6-2.1-3.2,0.5"/>
		<path class="st3" d="M48.2,59.5l2.1,4.8c0,0,8,5.9,8.5,7.2l-4.3-8.3"/>
		<path class="st3" d="M58.8,71.5c-3.2-2.4-10.2-5.1-10.2-5.1L46.1,60"/>
		<path class="st3" d="M45,60l2.7,8.6c0,0,10.2,2,10.7,3.1"/>
		<path class="st3" d="M44.4,62.1l2.1,8.6c0,0,6.9-0.2,9.3,1"/>
		<path class="st3" d="M67.4,62.1c0,0-6.4,4.3-8,8.6"/>
		<path class="st3" d="M69.1,65c0,0-7.2,3.5-9.3,6.5"/>
		<path class="st3" d="M70.2,67.1c0,0-6.5,2-8.6,3.6"/>
		<polygon class="st2" points="9.2,32 10.8,33.5 -2.2,46.5 -6.2,48.5 -4.2,44.5 8.8,31.5 		"/>
		<line class="st2" x1="7.4" y1="32.8" x2="9.4" y2="34.8"/>
		<polygon class="st2" points="89.2,32 90.8,33.5 77.8,46.5 73.8,48.5 75.8,44.5 88.8,31.5 		"/>
		<path class="st4" d="M37.2,43.9c0.2-1.6-0.9-3.1-2.4-3.3c-1.6-0.2-3.1,0.9-3.3,2.4s0.9,3.1,2.4,3.3c0,0,0.1,0,0.1,0
			C35.5,46.5,36.9,45.4,37.2,43.9z M34.7,44.2c-0.3-0.3-0.8-0.3-1.1-0.1c-0.3,0.3-0.4,0.7-0.3,1.1c-0.8-0.4-1.2-1.3-1-2.1
			c0.3-1.1,1.3-1.7,2.4-1.5c0.9,0.2,1.5,1,1.5,1.8c0,0.9-0.6,1.7-1.5,1.9C35.1,44.8,35.1,44.4,34.7,44.2z"/>
		<path class="st4" d="M21.3,41.5c-0.1,1,0.6,1.9,1.6,2.1c1,0.1,1.9-0.7,2-1.7c0,0,0,0,0,0c0.1-1-0.5-1.9-1.5-2c0,0-0.1,0-0.1,0
			C22.3,39.8,21.4,40.5,21.3,41.5z M23.1,42c-0.3,0-0.5,0.1-0.7,0.5c-0.3-0.3-0.4-0.7-0.3-1.1c0.2-0.4,0.6-0.7,1-0.7
			c0.5,0,0.9,0.4,1,0.9c0.1,0.5-0.1,0.9-0.5,1.1C23.7,42.4,23.5,42.1,23.1,42L23.1,42z"/>
		<path class="st4" d="M22,51.6c-0.1-0.1-0.1-0.1,0-0.2c0.1-0.1,0.2-0.2,0.3-0.2c1-0.4,2-0.6,3-0.8c0.8-0.1,1.6-0.2,2.4-0.1
			c0.7,0.1,1.3,0.2,1.9,0.4c1.2,0.4,2.3,0.9,3.4,1.6c0.1,0,0.1,0.1,0.2,0.1c0.1,0.1,0.2,0.2,0.2,0.3c-0.1,0.1-0.3,0.1-0.4,0
			c-0.3-0.2-0.6-0.4-0.9-0.5s-0.2,0-0.3,0.1c-0.2,0.4-0.4,0.7-0.6,1.1c-0.1,0.1-0.1,0.2-0.2,0.1s0-0.3,0-0.4
			c0.1-0.3,0.1-0.7,0.2-1.1c0-0.2-0.1-0.3-0.2-0.4c-0.8-0.4-1.7-0.7-2.6-0.8c-1.1-0.2-2.1-0.2-3.2,0c-0.3,0-0.4,0.2-0.4,0.5
			s0,0.9,0,1.3c0,0-0.1,0.1-0.1,0.2c0-0.2-0.1-0.3-0.1-0.5c-0.1-0.3-0.2-0.7-0.3-1c0,0,0-0.1,0-0.1c-0.1-0.2-0.1-0.2-0.3-0.2
			c-0.4,0.1-0.7,0.3-1.1,0.4C22.5,51.5,22.3,51.6,22,51.6z"/>
		<path class="st4" d="M36.8,35.2c-0.1,0.1-0.2,0.2-0.3,0.2c-0.4,0.2-0.8,0.4-1.2,0.6c-0.8,0.4-1.6,0.6-2.4,0.8
			c-0.1,0-0.3,0-0.4,0.1c0,0-0.1,0-0.1,0c0-0.1,0.1-0.1,0.1-0.2c0.2-0.1,0.4-0.3,0.7-0.4c1-0.5,2-0.9,3-1.1c0.2,0,0.3-0.1,0.5-0.1
			C36.7,35.1,36.7,35.1,36.8,35.2L36.8,35.2z"/>
		<path class="st4" d="M21.7,36.7c0.2,0,0.4,0.1,0.6,0.2c1.2,0.4,2.3,1,3.3,1.7c0.1,0.1,0.1,0.1,0.2,0.2c0,0,0,0,0,0.1
			c-0.2,0-0.4,0-0.6-0.1c-1-0.4-2-0.9-2.9-1.5c-0.2-0.1-0.4-0.3-0.6-0.4L21.7,36.7L21.7,36.7z"/>
		<rect x="0.2" class="st5" width="79.5" height="80"/>
	</g>
</g>
</svg>
