<?xml version="1.0" encoding="utf-8"?>
<!-- Generator: Adobe Illustrator 26.0.0, SVG Export Plug-In . SVG Version: 6.00 Build 0)  -->
<svg version="1.1" id="Layer_1" xmlns="http://www.w3.org/2000/svg" xmlns:xlink="http://www.w3.org/1999/xlink" x="0px" y="0px"
	 viewBox="0 0 64 64" style="enable-background:new 0 0 64 64;" xml:space="preserve">
<style type="text/css">
	.st0{display:none;}
	.st1{display:inline;}
	.st2{fill:#E85F1A;}
	.st3{fill:#EA9E18;}
	.st4{fill:#4DE51C;}
	.st5{fill:#1A9AE8;}
	.st6{fill:#1C1CE5;}
	.st7{fill:#9F1EE2;}
</style>
<g class="st0">
	<g class="st1">
		<g>
			<g>
				<g>
					<g>
						<path class="st2" d="M63,11.9V1H52.1v4.1H11.9V1H1v10.9h4.1v40.3H1V63h10.9v-4h40.3v4H63V52.1h-4.1V11.9H63z M3,9.9V3h6.9v6.9
							H3z M9.9,61H3v-6.9h6.9C9.9,54.1,9.9,61,9.9,61z M52.1,56.2H11.9v-4h-4V11.9h4v-4h40.3v4.1h4v40.3h-4L52.1,56.2L52.1,56.2z
							 M61,54.1V61h-6.9v-6.9H61z M54.1,9.9V3H61v6.9H54.1z"/>
					</g>
				</g>
			</g>
		</g>
	</g>
	<g class="st1">
		<g>
			<g>
				<path class="st2" d="M17.2,18.5L17.2,18.5L17.2,18.5L17.2,18.5z M19,16.6L19,16.6L19,16.6L19,16.6z"/>
			</g>
		</g>
		<g>
			<g>
				<path class="st2" d="M48.7,35.7l1.1-1.1L48,32.7l-0.7,0.7l-5.7-9.9l-22.6-6.8l0,0l-2.6-0.8l0.8,2.6l0,0L23.9,41l0,0.2l9.9,5.7
					l-0.7,0.7l1.9,1.9l1.2-1.2l6.1,3.5l9.9-9.9L48.7,35.7z M35.8,44.9l-9.6-5.5l-5-16.9l6.3,6.3c-0.7,1.5-0.5,3.3,0.8,4.5
					c0.8,0.8,1.8,1.2,2.8,1.2c1,0,2.1-0.4,2.8-1.2c1.5-1.5,1.5-4.1,0-5.6c-0.8-0.8-1.8-1.1-2.8-1.1c-0.6,0-1.2,0.1-1.7,0.4L23,20.6
					l16.8,5l5.5,9.6L35.8,44.9z M30.1,29.5c0.3-0.2,0.6-0.4,0.9-0.4c0.4,0,0.7,0.1,1,0.4c0.5,0.5,0.5,1.4,0,1.9
					c-0.5,0.5-1.4,0.5-1.9,0C29.6,30.9,29.6,30.1,30.1,29.5z M41.9,48.4l-3.7-2.1l8.6-8.6l2.1,3.7L41.9,48.4z"/>
			</g>
		</g>
	</g>
</g>
<g class="st0">
	<g class="st1">
		<g>
			<g>
				<g>
					<g>
						<path class="st3" d="M63,11.9V1H52.1v4.1H11.9V1H1v10.9h4.1v40.3H1V63h10.9v-4h40.3v4H63V52.1h-4.1V11.9H63z M3,9.9V3h6.9v6.9
							H3z M9.9,61H3v-6.9h6.9C9.9,54.1,9.9,61,9.9,61z M52.1,56.2H11.9v-4h-4V11.9h4v-4h40.3v4.1h4v40.3h-4L52.1,56.2L52.1,56.2z
							 M61,54.1V61h-6.9v-6.9H61z M54.1,9.9V3H61v6.9H54.1z"/>
					</g>
				</g>
			</g>
		</g>
	</g>
	<g class="st1">
		<g>
			<g>
				<path class="st3" d="M17.2,18.5L17.2,18.5L17.2,18.5L17.2,18.5z M19,16.6L19,16.6L19,16.6L19,16.6z"/>
			</g>
		</g>
		<g>
			<g>
				<path class="st3" d="M48.7,35.7l1.1-1.1L48,32.7l-0.7,0.7l-5.7-9.9l-22.6-6.8l0,0l-2.6-0.8l0.8,2.6l0,0L23.9,41l0,0.2l9.9,5.7
					l-0.7,0.7l1.9,1.9l1.2-1.2l6.1,3.5l9.9-9.9L48.7,35.7z M35.8,44.9l-9.6-5.5l-5-16.9l6.3,6.3c-0.7,1.5-0.5,3.3,0.8,4.5
					c0.8,0.8,1.8,1.2,2.8,1.2c1,0,2.1-0.4,2.8-1.2c1.5-1.5,1.5-4.1,0-5.6c-0.8-0.8-1.8-1.1-2.8-1.1c-0.6,0-1.2,0.1-1.7,0.4L23,20.6
					l16.8,5l5.5,9.6L35.8,44.9z M30.1,29.5c0.3-0.2,0.6-0.4,0.9-0.4c0.4,0,0.7,0.1,1,0.4c0.5,0.5,0.5,1.4,0,1.9
					c-0.5,0.5-1.4,0.5-1.9,0C29.6,30.9,29.6,30.1,30.1,29.5z M41.9,48.4l-3.7-2.1l8.6-8.6l2.1,3.7L41.9,48.4z"/>
			</g>
		</g>
	</g>
</g>
<g class="st0">
	<g class="st1">
		<g>
			<g>
				<g>
					<g>
						<path class="st4" d="M63,11.9V1H52.1v4.1H11.9V1H1v10.9h4.1v40.3H1V63h10.9v-4h40.3v4H63V52.1h-4.1V11.9H63z M3,9.9V3h6.9v6.9
							H3z M9.9,61H3v-6.9h6.9C9.9,54.1,9.9,61,9.9,61z M52.1,56.2H11.9v-4h-4V11.9h4v-4h40.3v4.1h4v40.3h-4L52.1,56.2L52.1,56.2z
							 M61,54.1V61h-6.9v-6.9H61z M54.1,9.9V3H61v6.9H54.1z"/>
					</g>
				</g>
			</g>
		</g>
	</g>
	<g class="st1">
		<g>
			<g>
				<path class="st4" d="M17.2,18.5L17.2,18.5L17.2,18.5L17.2,18.5z M19,16.6L19,16.6L19,16.6L19,16.6z"/>
			</g>
		</g>
		<g>
			<g>
				<path class="st4" d="M48.7,35.7l1.1-1.1L48,32.7l-0.7,0.7l-5.7-9.9l-22.6-6.8l0,0l-2.6-0.8l0.8,2.6l0,0L23.9,41l0,0.2l9.9,5.7
					l-0.7,0.7l1.9,1.9l1.2-1.2l6.1,3.5l9.9-9.9L48.7,35.7z M35.8,44.9l-9.6-5.5l-5-16.9l6.3,6.3c-0.7,1.5-0.5,3.3,0.8,4.5
					c0.8,0.8,1.8,1.2,2.8,1.2c1,0,2.1-0.4,2.8-1.2c1.5-1.5,1.5-4.1,0-5.6c-0.8-0.8-1.8-1.1-2.8-1.1c-0.6,0-1.2,0.1-1.7,0.4L23,20.6
					l16.8,5l5.5,9.6L35.8,44.9z M30.1,29.5c0.3-0.2,0.6-0.4,0.9-0.4c0.4,0,0.7,0.1,1,0.4c0.5,0.5,0.5,1.4,0,1.9
					c-0.5,0.5-1.4,0.5-1.9,0C29.6,30.9,29.6,30.1,30.1,29.5z M41.9,48.4l-3.7-2.1l8.6-8.6l2.1,3.7L41.9,48.4z"/>
			</g>
		</g>
	</g>
</g>
<g>
	<g>
		<g>
			<g>
				<g>
					<g>
						<path class="st5" d="M63,11.9V1H52.1v4.1H11.9V1H1v10.9h4.1v40.3H1V63h10.9v-4h40.3v4H63V52.1h-4.1V11.9H63z M3,9.9V3h6.9v6.9
							H3z M9.9,61H3v-6.9h6.9C9.9,54.1,9.9,61,9.9,61z M52.1,56.2H11.9v-4h-4V11.9h4v-4h40.3v4.1h4v40.3h-4L52.1,56.2L52.1,56.2z
							 M61,54.1V61h-6.9v-6.9H61z M54.1,9.9V3H61v6.9H54.1z"/>
					</g>
				</g>
			</g>
		</g>
	</g>
	<g>
		<g>
			<g>
				<path class="st5" d="M17.2,18.5L17.2,18.5L17.2,18.5L17.2,18.5z M19,16.6L19,16.6L19,16.6L19,16.6z"/>
			</g>
		</g>
		<g>
			<g>
				<path class="st5" d="M48.7,35.7l1.1-1.1L48,32.7l-0.7,0.7l-5.7-9.9l-22.6-6.8l0,0l-2.6-0.8l0.8,2.6l0,0L23.9,41l0,0.2l9.9,5.7
					l-0.7,0.7l1.9,1.9l1.2-1.2l6.1,3.5l9.9-9.9L48.7,35.7z M35.8,44.9l-9.6-5.5l-5-16.9l6.3,6.3c-0.7,1.5-0.5,3.3,0.8,4.5
					c0.8,0.8,1.8,1.2,2.8,1.2c1,0,2.1-0.4,2.8-1.2c1.5-1.5,1.5-4.1,0-5.6c-0.8-0.8-1.8-1.1-2.8-1.1c-0.6,0-1.2,0.1-1.7,0.4L23,20.6
					l16.8,5l5.5,9.6L35.8,44.9z M30.1,29.5c0.3-0.2,0.6-0.4,0.9-0.4c0.4,0,0.7,0.1,1,0.4c0.5,0.5,0.5,1.4,0,1.9
					c-0.5,0.5-1.4,0.5-1.9,0C29.6,30.9,29.6,30.1,30.1,29.5z M41.9,48.4l-3.7-2.1l8.6-8.6l2.1,3.7L41.9,48.4z"/>
			</g>
		</g>
	</g>
</g>
<g class="st0">
	<g class="st1">
		<g>
			<g>
				<g>
					<g>
						<path class="st6" d="M63,11.9V1H52.1v4.1H11.9V1H1v10.9h4.1v40.3H1V63h10.9v-4h40.3v4H63V52.1h-4.1V11.9H63z M3,9.9V3h6.9v6.9
							H3z M9.9,61H3v-6.9h6.9C9.9,54.1,9.9,61,9.9,61z M52.1,56.2H11.9v-4h-4V11.9h4v-4h40.3v4.1h4v40.3h-4L52.1,56.2L52.1,56.2z
							 M61,54.1V61h-6.9v-6.9H61z M54.1,9.9V3H61v6.9H54.1z"/>
					</g>
				</g>
			</g>
		</g>
	</g>
	<g class="st1">
		<g>
			<g>
				<path class="st6" d="M17.2,18.5L17.2,18.5L17.2,18.5L17.2,18.5z M19,16.6L19,16.6L19,16.6L19,16.6z"/>
			</g>
		</g>
		<g>
			<g>
				<path class="st6" d="M48.7,35.7l1.1-1.1L48,32.7l-0.7,0.7l-5.7-9.9l-22.6-6.8l0,0l-2.6-0.8l0.8,2.6l0,0L23.9,41l0,0.2l9.9,5.7
					l-0.7,0.7l1.9,1.9l1.2-1.2l6.1,3.5l9.9-9.9L48.7,35.7z M35.8,44.9l-9.6-5.5l-5-16.9l6.3,6.3c-0.7,1.5-0.5,3.3,0.8,4.5
					c0.8,0.8,1.8,1.2,2.8,1.2c1,0,2.1-0.4,2.8-1.2c1.5-1.5,1.5-4.1,0-5.6c-0.8-0.8-1.8-1.1-2.8-1.1c-0.6,0-1.2,0.1-1.7,0.4L23,20.6
					l16.8,5l5.5,9.6L35.8,44.9z M30.1,29.5c0.3-0.2,0.6-0.4,0.9-0.4c0.4,0,0.7,0.1,1,0.4c0.5,0.5,0.5,1.4,0,1.9
					c-0.5,0.5-1.4,0.5-1.9,0C29.6,30.9,29.6,30.1,30.1,29.5z M41.9,48.4l-3.7-2.1l8.6-8.6l2.1,3.7L41.9,48.4z"/>
			</g>
		</g>
	</g>
</g>
<g class="st0">
	<g class="st1">
		<g>
			<g>
				<g>
					<g>
						<path class="st7" d="M63,11.9V1H52.1v4.1H11.9V1H1v10.9h4.1v40.3H1V63h10.9v-4h40.3v4H63V52.1h-4.1V11.9H63z M3,9.9V3h6.9v6.9
							H3z M9.9,61H3v-6.9h6.9C9.9,54.1,9.9,61,9.9,61z M52.1,56.2H11.9v-4h-4V11.9h4v-4h40.3v4.1h4v40.3h-4L52.1,56.2L52.1,56.2z
							 M61,54.1V61h-6.9v-6.9H61z M54.1,9.9V3H61v6.9H54.1z"/>
					</g>
				</g>
			</g>
		</g>
	</g>
	<g class="st1">
		<g>
			<g>
				<path class="st7" d="M17.2,18.5L17.2,18.5L17.2,18.5L17.2,18.5z M19,16.6L19,16.6L19,16.6L19,16.6z"/>
			</g>
		</g>
		<g>
			<g>
				<path class="st7" d="M48.7,35.7l1.1-1.1L48,32.7l-0.7,0.7l-5.7-9.9l-22.6-6.8l0,0l-2.6-0.8l0.8,2.6l0,0L23.9,41l0,0.2l9.9,5.7
					l-0.7,0.7l1.9,1.9l1.2-1.2l6.1,3.5l9.9-9.9L48.7,35.7z M35.8,44.9l-9.6-5.5l-5-16.9l6.3,6.3c-0.7,1.5-0.5,3.3,0.8,4.5
					c0.8,0.8,1.8,1.2,2.8,1.2c1,0,2.1-0.4,2.8-1.2c1.5-1.5,1.5-4.1,0-5.6c-0.8-0.8-1.8-1.1-2.8-1.1c-0.6,0-1.2,0.1-1.7,0.4L23,20.6
					l16.8,5l5.5,9.6L35.8,44.9z M30.1,29.5c0.3-0.2,0.6-0.4,0.9-0.4c0.4,0,0.7,0.1,1,0.4c0.5,0.5,0.5,1.4,0,1.9
					c-0.5,0.5-1.4,0.5-1.9,0C29.6,30.9,29.6,30.1,30.1,29.5z M41.9,48.4l-3.7-2.1l8.6-8.6l2.1,3.7L41.9,48.4z"/>
			</g>
		</g>
	</g>
</g>
</svg>
