<?xml version="1.0" encoding="utf-8"?>
<!-- Generator: Adobe Illustrator 26.0.0, SVG Export Plug-In . SVG Version: 6.00 Build 0)  -->
<svg version="1.1" id="Layer_1" xmlns="http://www.w3.org/2000/svg" xmlns:xlink="http://www.w3.org/1999/xlink" x="0px" y="0px"
	 viewBox="0 0 64 64" style="enable-background:new 0 0 64 64;" xml:space="preserve">
<style type="text/css">
	.st0{display:none;}
	.st1{display:inline;}
	.st2{fill:#E85F1A;}
	.st3{fill:#EA9E18;}
	.st4{fill:#4DE51C;}
	.st5{fill:#1A9AE8;}
	.st6{fill:#1C1CE5;}
	.st7{fill:#9F1EE2;}
</style>
<g class="st0">
	<g class="st1">
		<g>
			<g>
				<g>
					<g>
						<path class="st2" d="M63,11.9V1H52.1v4.1H11.9V1H1v10.9h4.1v40.2H1V63h10.9v-4.1h40.3V63H63V52.1h-4.1V11.9H63z M3,9.9V3h6.9
							v6.9L3,9.9L3,9.9z M9.9,61H3v-6.9h6.9C9.9,54.1,9.9,61,9.9,61z M52.1,56.2H11.9v-4h-4V11.9h4V7.8h40.3v4.1h4v40.2h-4
							L52.1,56.2L52.1,56.2z M61,54.1V61h-6.9v-6.9L61,54.1L61,54.1z M54.1,9.9V3H61v6.9L54.1,9.9L54.1,9.9z"/>
					</g>
				</g>
			</g>
		</g>
	</g>
	<g class="st1">
		<g>
			<g>
				<g>
					<path class="st2" d="M32,19c-7.2,0-13,5.8-13,13c0,7.2,5.8,13,13,13c7.2,0,13-5.8,13-13C45,24.8,39.2,19,32,19z M32,43.2
						c-6.2,0-11.2-5-11.2-11.2c0-6.2,5-11.2,11.2-11.2s11.2,5,11.2,11.2C43.2,38.2,38.2,43.2,32,43.2z"/>
				</g>
			</g>
		</g>
		<g>
			<g>
				<g>
					<g>
						<path class="st2" d="M39.3,34.4v0.1c-0.1,0.3-0.2,0.5-0.3,0.7l-0.1,0.2c-0.2,0.3-0.4,0.6-0.6,0.9l-0.1,0.1
							c-1.5,2-3.8,3.1-6.1,3.1c-3,0-5.8-1.8-7.2-4.8c0-0.1-0.1-0.1-0.1-0.1l0-0.2c0-0.4,0.3-0.7,0.7-0.7c0.2,0,0.4,0.1,0.6,0.3
							l0.1,0.2c0.2,0.5,0.6,1,1,1.5c1.3,1.5,3.1,2.4,4.9,2.4c2,0,4-1.1,5.2-2.8c0.2-0.3,0.4-0.7,0.5-0.9c0.1-0.2,0.2-0.4,0.4-0.5
							c0.2-0.1,0.4-0.2,0.6-0.1c0.2,0.1,0.3,0.2,0.5,0.4C39.2,34.2,39.3,34.2,39.3,34.4z"/>
					</g>
				</g>
			</g>
		</g>
		<g>
			<g>
				<g>
					<path class="st2" d="M29.4,30c0,1.6,0,2.2-0.9,2.2c-0.9,0-0.9-0.5-0.9-2.2s0-2.2,0.9-2.2C29.4,27.8,29.4,28.4,29.4,30z"/>
				</g>
			</g>
		</g>
		<g>
			<g>
				<g>
					<path class="st2" d="M36.5,30c0,1.6,0,2.2-0.9,2.2c-0.9,0-0.9-0.5-0.9-2.2s0-2.2,0.9-2.2C36.5,27.8,36.5,28.4,36.5,30z"/>
				</g>
			</g>
		</g>
		<g>
			<g>
				<g>
					<g>
						<polygon class="st2" points="18.4,16.9 18.4,18.7 13.1,18.7 13.1,23.9 11.3,23.9 11.3,16.9 						"/>
					</g>
				</g>
			</g>
			<g>
				<g>
					<g>
						<polygon class="st2" points="52.7,16.9 52.7,23.9 50.9,23.9 50.9,18.6 45.7,18.6 45.7,16.9 						"/>
					</g>
				</g>
			</g>
		</g>
		<g>
			<g>
				<g>
					<g>
						<polygon class="st2" points="52.7,40.1 52.7,47.1 45.6,47.1 45.6,45.3 50.9,45.3 50.9,40.1 						"/>
					</g>
				</g>
			</g>
			<g>
				<g>
					<g>
						<polygon class="st2" points="18.3,45.3 18.3,47.1 11.3,47.1 11.3,40 13.1,40 13.1,45.3 						"/>
					</g>
				</g>
			</g>
		</g>
	</g>
</g>
<g class="st0">
	<g class="st1">
		<g>
			<g>
				<g>
					<g>
						<path class="st3" d="M63,11.9V1H52.1v4.1H11.9V1H1v10.9h4.1v40.2H1V63h10.9v-4.1h40.3V63H63V52.1h-4.1V11.9H63z M3,9.9V3h6.9
							v6.9L3,9.9L3,9.9z M9.9,61H3v-6.9h6.9C9.9,54.1,9.9,61,9.9,61z M52.1,56.2H11.9v-4h-4V11.9h4V7.8h40.3v4.1h4v40.2h-4
							L52.1,56.2L52.1,56.2z M61,54.1V61h-6.9v-6.9L61,54.1L61,54.1z M54.1,9.9V3H61v6.9L54.1,9.9L54.1,9.9z"/>
					</g>
				</g>
			</g>
		</g>
	</g>
	<g class="st1">
		<g>
			<g>
				<g>
					<path class="st3" d="M32,19c-7.2,0-13,5.8-13,13c0,7.2,5.8,13,13,13c7.2,0,13-5.8,13-13C45,24.8,39.2,19,32,19z M32,43.2
						c-6.2,0-11.2-5-11.2-11.2c0-6.2,5-11.2,11.2-11.2s11.2,5,11.2,11.2C43.2,38.2,38.2,43.2,32,43.2z"/>
				</g>
			</g>
		</g>
		<g>
			<g>
				<g>
					<g>
						<path class="st3" d="M39.3,34.4v0.1c-0.1,0.3-0.2,0.5-0.3,0.7l-0.1,0.2c-0.2,0.3-0.4,0.6-0.6,0.9l-0.1,0.1
							c-1.5,2-3.8,3.1-6.1,3.1c-3,0-5.8-1.8-7.2-4.8c0-0.1-0.1-0.1-0.1-0.1l0-0.2c0-0.4,0.3-0.7,0.7-0.7c0.2,0,0.4,0.1,0.6,0.3
							l0.1,0.2c0.2,0.5,0.6,1,1,1.5c1.3,1.5,3.1,2.4,4.9,2.4c2,0,4-1.1,5.2-2.8c0.2-0.3,0.4-0.7,0.5-0.9c0.1-0.2,0.2-0.4,0.4-0.5
							c0.2-0.1,0.4-0.2,0.6-0.1c0.2,0.1,0.3,0.2,0.5,0.4C39.2,34.2,39.3,34.2,39.3,34.4z"/>
					</g>
				</g>
			</g>
		</g>
		<g>
			<g>
				<g>
					<path class="st3" d="M29.4,30c0,1.6,0,2.2-0.9,2.2c-0.9,0-0.9-0.5-0.9-2.2s0-2.2,0.9-2.2C29.4,27.8,29.4,28.4,29.4,30z"/>
				</g>
			</g>
		</g>
		<g>
			<g>
				<g>
					<path class="st3" d="M36.5,30c0,1.6,0,2.2-0.9,2.2c-0.9,0-0.9-0.5-0.9-2.2s0-2.2,0.9-2.2C36.5,27.8,36.5,28.4,36.5,30z"/>
				</g>
			</g>
		</g>
		<g>
			<g>
				<g>
					<g>
						<polygon class="st3" points="18.4,16.9 18.4,18.7 13.1,18.7 13.1,23.9 11.3,23.9 11.3,16.9 						"/>
					</g>
				</g>
			</g>
			<g>
				<g>
					<g>
						<polygon class="st3" points="52.7,16.9 52.7,23.9 50.9,23.9 50.9,18.6 45.7,18.6 45.7,16.9 						"/>
					</g>
				</g>
			</g>
		</g>
		<g>
			<g>
				<g>
					<g>
						<polygon class="st3" points="52.7,40.1 52.7,47.1 45.6,47.1 45.6,45.3 50.9,45.3 50.9,40.1 						"/>
					</g>
				</g>
			</g>
			<g>
				<g>
					<g>
						<polygon class="st3" points="18.3,45.3 18.3,47.1 11.3,47.1 11.3,40 13.1,40 13.1,45.3 						"/>
					</g>
				</g>
			</g>
		</g>
	</g>
</g>
<g class="st0">
	<g class="st1">
		<g>
			<g>
				<g>
					<g>
						<path class="st4" d="M63,11.9V1H52.1v4.1H11.9V1H1v10.9h4.1v40.2H1V63h10.9v-4.1h40.3V63H63V52.1h-4.1V11.9H63z M3,9.9V3h6.9
							v6.9L3,9.9L3,9.9z M9.9,61H3v-6.9h6.9C9.9,54.1,9.9,61,9.9,61z M52.1,56.2H11.9v-4h-4V11.9h4V7.8h40.3v4.1h4v40.2h-4
							L52.1,56.2L52.1,56.2z M61,54.1V61h-6.9v-6.9L61,54.1L61,54.1z M54.1,9.9V3H61v6.9L54.1,9.9L54.1,9.9z"/>
					</g>
				</g>
			</g>
		</g>
	</g>
	<g class="st1">
		<g>
			<g>
				<g>
					<path class="st4" d="M32,19c-7.2,0-13,5.8-13,13c0,7.2,5.8,13,13,13c7.2,0,13-5.8,13-13C45,24.8,39.2,19,32,19z M32,43.2
						c-6.2,0-11.2-5-11.2-11.2c0-6.2,5-11.2,11.2-11.2s11.2,5,11.2,11.2C43.2,38.2,38.2,43.2,32,43.2z"/>
				</g>
			</g>
		</g>
		<g>
			<g>
				<g>
					<g>
						<path class="st4" d="M39.3,34.4v0.1c-0.1,0.3-0.2,0.5-0.3,0.7l-0.1,0.2c-0.2,0.3-0.4,0.6-0.6,0.9l-0.1,0.1
							c-1.5,2-3.8,3.1-6.1,3.1c-3,0-5.8-1.8-7.2-4.8c0-0.1-0.1-0.1-0.1-0.1l0-0.2c0-0.4,0.3-0.7,0.7-0.7c0.2,0,0.4,0.1,0.6,0.3
							l0.1,0.2c0.2,0.5,0.6,1,1,1.5c1.3,1.5,3.1,2.4,4.9,2.4c2,0,4-1.1,5.2-2.8c0.2-0.3,0.4-0.7,0.5-0.9c0.1-0.2,0.2-0.4,0.4-0.5
							c0.2-0.1,0.4-0.2,0.6-0.1c0.2,0.1,0.3,0.2,0.5,0.4C39.2,34.2,39.3,34.2,39.3,34.4z"/>
					</g>
				</g>
			</g>
		</g>
		<g>
			<g>
				<g>
					<path class="st4" d="M29.4,30c0,1.6,0,2.2-0.9,2.2c-0.9,0-0.9-0.5-0.9-2.2s0-2.2,0.9-2.2C29.4,27.8,29.4,28.4,29.4,30z"/>
				</g>
			</g>
		</g>
		<g>
			<g>
				<g>
					<path class="st4" d="M36.5,30c0,1.6,0,2.2-0.9,2.2c-0.9,0-0.9-0.5-0.9-2.2s0-2.2,0.9-2.2C36.5,27.8,36.5,28.4,36.5,30z"/>
				</g>
			</g>
		</g>
		<g>
			<g>
				<g>
					<g>
						<polygon class="st4" points="18.4,16.9 18.4,18.7 13.1,18.7 13.1,23.9 11.3,23.9 11.3,16.9 						"/>
					</g>
				</g>
			</g>
			<g>
				<g>
					<g>
						<polygon class="st4" points="52.7,16.9 52.7,23.9 50.9,23.9 50.9,18.6 45.7,18.6 45.7,16.9 						"/>
					</g>
				</g>
			</g>
		</g>
		<g>
			<g>
				<g>
					<g>
						<polygon class="st4" points="52.7,40.1 52.7,47.1 45.6,47.1 45.6,45.3 50.9,45.3 50.9,40.1 						"/>
					</g>
				</g>
			</g>
			<g>
				<g>
					<g>
						<polygon class="st4" points="18.3,45.3 18.3,47.1 11.3,47.1 11.3,40 13.1,40 13.1,45.3 						"/>
					</g>
				</g>
			</g>
		</g>
	</g>
</g>
<g>
	<g>
		<g>
			<g>
				<g>
					<g>
						<path class="st5" d="M63,11.9V1H52.1v4.1H11.9V1H1v10.9h4.1v40.2H1V63h10.9v-4.1h40.3V63H63V52.1h-4.1V11.9H63z M3,9.9V3h6.9
							v6.9L3,9.9L3,9.9z M9.9,61H3v-6.9h6.9C9.9,54.1,9.9,61,9.9,61z M52.1,56.2H11.9v-4h-4V11.9h4V7.8h40.3v4.1h4v40.2h-4
							L52.1,56.2L52.1,56.2z M61,54.1V61h-6.9v-6.9L61,54.1L61,54.1z M54.1,9.9V3H61v6.9L54.1,9.9L54.1,9.9z"/>
					</g>
				</g>
			</g>
		</g>
	</g>
	<g>
		<g>
			<g>
				<g>
					<path class="st5" d="M32,19c-7.2,0-13,5.8-13,13c0,7.2,5.8,13,13,13c7.2,0,13-5.8,13-13C45,24.8,39.2,19,32,19z M32,43.2
						c-6.2,0-11.2-5-11.2-11.2c0-6.2,5-11.2,11.2-11.2s11.2,5,11.2,11.2C43.2,38.2,38.2,43.2,32,43.2z"/>
				</g>
			</g>
		</g>
		<g>
			<g>
				<g>
					<g>
						<path class="st5" d="M39.3,34.4v0.1c-0.1,0.3-0.2,0.5-0.3,0.7l-0.1,0.2c-0.2,0.3-0.4,0.6-0.6,0.9l-0.1,0.1
							c-1.5,2-3.8,3.1-6.1,3.1c-3,0-5.8-1.8-7.2-4.8c0-0.1-0.1-0.1-0.1-0.1l0-0.2c0-0.4,0.3-0.7,0.7-0.7c0.2,0,0.4,0.1,0.6,0.3
							l0.1,0.2c0.2,0.5,0.6,1,1,1.5c1.3,1.5,3.1,2.4,4.9,2.4c2,0,4-1.1,5.2-2.8c0.2-0.3,0.4-0.7,0.5-0.9c0.1-0.2,0.2-0.4,0.4-0.5
							c0.2-0.1,0.4-0.2,0.6-0.1c0.2,0.1,0.3,0.2,0.5,0.4C39.2,34.2,39.3,34.2,39.3,34.4z"/>
					</g>
				</g>
			</g>
		</g>
		<g>
			<g>
				<g>
					<path class="st5" d="M29.4,30c0,1.6,0,2.2-0.9,2.2c-0.9,0-0.9-0.5-0.9-2.2s0-2.2,0.9-2.2C29.4,27.8,29.4,28.4,29.4,30z"/>
				</g>
			</g>
		</g>
		<g>
			<g>
				<g>
					<path class="st5" d="M36.5,30c0,1.6,0,2.2-0.9,2.2c-0.9,0-0.9-0.5-0.9-2.2s0-2.2,0.9-2.2C36.5,27.8,36.5,28.4,36.5,30z"/>
				</g>
			</g>
		</g>
		<g>
			<g>
				<g>
					<g>
						<polygon class="st5" points="18.4,16.9 18.4,18.7 13.1,18.7 13.1,23.9 11.3,23.9 11.3,16.9 						"/>
					</g>
				</g>
			</g>
			<g>
				<g>
					<g>
						<polygon class="st5" points="52.7,16.9 52.7,23.9 50.9,23.9 50.9,18.6 45.7,18.6 45.7,16.9 						"/>
					</g>
				</g>
			</g>
		</g>
		<g>
			<g>
				<g>
					<g>
						<polygon class="st5" points="52.7,40.1 52.7,47.1 45.6,47.1 45.6,45.3 50.9,45.3 50.9,40.1 						"/>
					</g>
				</g>
			</g>
			<g>
				<g>
					<g>
						<polygon class="st5" points="18.3,45.3 18.3,47.1 11.3,47.1 11.3,40 13.1,40 13.1,45.3 						"/>
					</g>
				</g>
			</g>
		</g>
	</g>
</g>
<g class="st0">
	<g class="st1">
		<g>
			<g>
				<g>
					<g>
						<path class="st6" d="M63,11.9V1H52.1v4.1H11.9V1H1v10.9h4.1v40.2H1V63h10.9v-4.1h40.3V63H63V52.1h-4.1V11.9H63z M3,9.9V3h6.9
							v6.9L3,9.9L3,9.9z M9.9,61H3v-6.9h6.9C9.9,54.1,9.9,61,9.9,61z M52.1,56.2H11.9v-4h-4V11.9h4V7.8h40.3v4.1h4v40.2h-4
							L52.1,56.2L52.1,56.2z M61,54.1V61h-6.9v-6.9L61,54.1L61,54.1z M54.1,9.9V3H61v6.9L54.1,9.9L54.1,9.9z"/>
					</g>
				</g>
			</g>
		</g>
	</g>
	<g class="st1">
		<g>
			<g>
				<g>
					<path class="st6" d="M32,19c-7.2,0-13,5.8-13,13c0,7.2,5.8,13,13,13c7.2,0,13-5.8,13-13C45,24.8,39.2,19,32,19z M32,43.2
						c-6.2,0-11.2-5-11.2-11.2c0-6.2,5-11.2,11.2-11.2s11.2,5,11.2,11.2C43.2,38.2,38.2,43.2,32,43.2z"/>
				</g>
			</g>
		</g>
		<g>
			<g>
				<g>
					<g>
						<path class="st6" d="M39.3,34.4v0.1c-0.1,0.3-0.2,0.5-0.3,0.7l-0.1,0.2c-0.2,0.3-0.4,0.6-0.6,0.9l-0.1,0.1
							c-1.5,2-3.8,3.1-6.1,3.1c-3,0-5.8-1.8-7.2-4.8c0-0.1-0.1-0.1-0.1-0.1l0-0.2c0-0.4,0.3-0.7,0.7-0.7c0.2,0,0.4,0.1,0.6,0.3
							l0.1,0.2c0.2,0.5,0.6,1,1,1.5c1.3,1.5,3.1,2.4,4.9,2.4c2,0,4-1.1,5.2-2.8c0.2-0.3,0.4-0.7,0.5-0.9c0.1-0.2,0.2-0.4,0.4-0.5
							c0.2-0.1,0.4-0.2,0.6-0.1c0.2,0.1,0.3,0.2,0.5,0.4C39.2,34.2,39.3,34.2,39.3,34.4z"/>
					</g>
				</g>
			</g>
		</g>
		<g>
			<g>
				<g>
					<path class="st6" d="M29.4,30c0,1.6,0,2.2-0.9,2.2c-0.9,0-0.9-0.5-0.9-2.2s0-2.2,0.9-2.2C29.4,27.8,29.4,28.4,29.4,30z"/>
				</g>
			</g>
		</g>
		<g>
			<g>
				<g>
					<path class="st6" d="M36.5,30c0,1.6,0,2.2-0.9,2.2c-0.9,0-0.9-0.5-0.9-2.2s0-2.2,0.9-2.2C36.5,27.8,36.5,28.4,36.5,30z"/>
				</g>
			</g>
		</g>
		<g>
			<g>
				<g>
					<g>
						<polygon class="st6" points="18.4,16.9 18.4,18.7 13.1,18.7 13.1,23.9 11.3,23.9 11.3,16.9 						"/>
					</g>
				</g>
			</g>
			<g>
				<g>
					<g>
						<polygon class="st6" points="52.7,16.9 52.7,23.9 50.9,23.9 50.9,18.6 45.7,18.6 45.7,16.9 						"/>
					</g>
				</g>
			</g>
		</g>
		<g>
			<g>
				<g>
					<g>
						<polygon class="st6" points="52.7,40.1 52.7,47.1 45.6,47.1 45.6,45.3 50.9,45.3 50.9,40.1 						"/>
					</g>
				</g>
			</g>
			<g>
				<g>
					<g>
						<polygon class="st6" points="18.3,45.3 18.3,47.1 11.3,47.1 11.3,40 13.1,40 13.1,45.3 						"/>
					</g>
				</g>
			</g>
		</g>
	</g>
</g>
<g class="st0">
	<g class="st1">
		<g>
			<g>
				<g>
					<g>
						<path class="st7" d="M63,11.9V1H52.1v4.1H11.9V1H1v10.9h4.1v40.2H1V63h10.9v-4.1h40.3V63H63V52.1h-4.1V11.9H63z M3,9.9V3h6.9
							v6.9L3,9.9L3,9.9z M9.9,61H3v-6.9h6.9C9.9,54.1,9.9,61,9.9,61z M52.1,56.2H11.9v-4h-4V11.9h4V7.8h40.3v4.1h4v40.2h-4
							L52.1,56.2L52.1,56.2z M61,54.1V61h-6.9v-6.9L61,54.1L61,54.1z M54.1,9.9V3H61v6.9L54.1,9.9L54.1,9.9z"/>
					</g>
				</g>
			</g>
		</g>
	</g>
	<g class="st1">
		<g>
			<g>
				<g>
					<path class="st7" d="M32,19c-7.2,0-13,5.8-13,13c0,7.2,5.8,13,13,13c7.2,0,13-5.8,13-13C45,24.8,39.2,19,32,19z M32,43.2
						c-6.2,0-11.2-5-11.2-11.2c0-6.2,5-11.2,11.2-11.2s11.2,5,11.2,11.2C43.2,38.2,38.2,43.2,32,43.2z"/>
				</g>
			</g>
		</g>
		<g>
			<g>
				<g>
					<g>
						<path class="st7" d="M39.3,34.4v0.1c-0.1,0.3-0.2,0.5-0.3,0.7l-0.1,0.2c-0.2,0.3-0.4,0.6-0.6,0.9l-0.1,0.1
							c-1.5,2-3.8,3.1-6.1,3.1c-3,0-5.8-1.8-7.2-4.8c0-0.1-0.1-0.1-0.1-0.1l0-0.2c0-0.4,0.3-0.7,0.7-0.7c0.2,0,0.4,0.1,0.6,0.3
							l0.1,0.2c0.2,0.5,0.6,1,1,1.5c1.3,1.5,3.1,2.4,4.9,2.4c2,0,4-1.1,5.2-2.8c0.2-0.3,0.4-0.7,0.5-0.9c0.1-0.2,0.2-0.4,0.4-0.5
							c0.2-0.1,0.4-0.2,0.6-0.1c0.2,0.1,0.3,0.2,0.5,0.4C39.2,34.2,39.3,34.2,39.3,34.4z"/>
					</g>
				</g>
			</g>
		</g>
		<g>
			<g>
				<g>
					<path class="st7" d="M29.4,30c0,1.6,0,2.2-0.9,2.2c-0.9,0-0.9-0.5-0.9-2.2s0-2.2,0.9-2.2C29.4,27.8,29.4,28.4,29.4,30z"/>
				</g>
			</g>
		</g>
		<g>
			<g>
				<g>
					<path class="st7" d="M36.5,30c0,1.6,0,2.2-0.9,2.2c-0.9,0-0.9-0.5-0.9-2.2s0-2.2,0.9-2.2C36.5,27.8,36.5,28.4,36.5,30z"/>
				</g>
			</g>
		</g>
		<g>
			<g>
				<g>
					<g>
						<polygon class="st7" points="18.4,16.9 18.4,18.7 13.1,18.7 13.1,23.9 11.3,23.9 11.3,16.9 						"/>
					</g>
				</g>
			</g>
			<g>
				<g>
					<g>
						<polygon class="st7" points="52.7,16.9 52.7,23.9 50.9,23.9 50.9,18.6 45.7,18.6 45.7,16.9 						"/>
					</g>
				</g>
			</g>
		</g>
		<g>
			<g>
				<g>
					<g>
						<polygon class="st7" points="52.7,40.1 52.7,47.1 45.6,47.1 45.6,45.3 50.9,45.3 50.9,40.1 						"/>
					</g>
				</g>
			</g>
			<g>
				<g>
					<g>
						<polygon class="st7" points="18.3,45.3 18.3,47.1 11.3,47.1 11.3,40 13.1,40 13.1,45.3 						"/>
					</g>
				</g>
			</g>
		</g>
	</g>
</g>
</svg>
