<?xml version="1.0" encoding="utf-8"?>
<!-- Generator: Adobe Illustrator 25.2.0, SVG Export Plug-In . SVG Version: 6.00 Build 0)  -->
<svg version="1.1" id="Layer_1" xmlns="http://www.w3.org/2000/svg" xmlns:xlink="http://www.w3.org/1999/xlink" x="0px" y="0px"
	 viewBox="0 0 360 86.86" style="enable-background:new 0 0 360 86.86;" xml:space="preserve">
<style type="text/css">
	.st0{fill:#FFFFFF;}
</style>
<g>
	<path class="st0" d="M88.4,37.7c1.76,10.49,15.61,4.05,22.29,7.94c17.66,7.48,11.68,34.8-7.74,34.41c0,0-25.13,0-25.13,0
		C76.52,65.07,94.36,69.67,103.41,69c6.32,0.19,10.36-8.09,5.57-12.5c-6.15-4.82-14.48,0.47-21.15-3.37
		c-13.85-5.84-12.81-27.92,1.81-32.37c7.75-2.23,24.95-0.37,32.33-0.94C123.19,41.98,90.44,21.06,88.4,37.7z"/>
	<path class="st0" d="M66.78,49.95v30.1H53.63c-1.23-14.61,6.52-46.19-16.51-47.04c-26,1.69-22.36,38.37,7.15,33.85v13.16
		C26.54,82.5,7.69,71.2,6.66,52.25C4.53,11.04,65.97,9.11,66.78,49.95z"/>
	<g>
		<path class="st0" d="M167.37,68.02v11.84c-23.62,1.45-32.89-18.3-30.51-39.12h-8.47V27.78h8.47V6.5h11.74v45.75
			C148.49,62.08,157.72,69.8,167.37,68.02z"/>
		<path class="st0" d="M167.36,27.79v12.95h-8.76c-1.36-2.43-5.81-10.4-7.23-12.95H167.36z"/>
	</g>
	<path class="st0" d="M225.92,31.42l-8.37,8.37c-9.93-9.65-27.79-1.43-27.26,12.52c0,0,0,27.71,0,27.71h-11.82V19.86h11.82v9.1
		C200.43,21.2,217.02,22.41,225.92,31.42z"/>
	<path class="st0" d="M251.24,44.74h23.81c-5.25-17.86-32.78-14.76-33.73,4.11c-1.48,15.81,19.48,24.55,29.76,12.98l12.2,5.24
		c-15.82,24.08-55.69,11.6-54.77-17.58c2.1-43.88,67.98-35.54,59.36,7.28h-29.07L251.24,44.74z"/>
	<g>
		<polygon class="st0" points="306.8,56.84 318.12,65.15 306.84,80.02 289.41,80.02 289.41,80.02 		"/>
		<path class="st0" d="M353.39,79.8v0.23c0,0-17.43,0-17.43,0c-15.21-20.27-30.63-40.39-46.48-60.17h17.9l14,17.68l13.99-17.68h17.9
			l-23.14,29.23L353.39,79.8z"/>
	</g>
</g>
</svg>
