<?xml version="1.0" encoding="utf-8"?>
<!-- Generator: Adobe Illustrator 25.2.0, SVG Export Plug-In . SVG Version: 6.00 Build 0)  -->
<svg version="1.1" id="Layer_1" xmlns="http://www.w3.org/2000/svg" xmlns:xlink="http://www.w3.org/1999/xlink" x="0px" y="0px"
	 viewBox="0 0 223.2 311.8" style="enable-background:new 0 0 223.2 311.8;" xml:space="preserve">
<style type="text/css">
	.st0{fill:#B20033;}
	.st1{fill:#190B38;}
	.st2{fill:#241451;}
	.st3{opacity:2.000000e-02;}
	.st4{opacity:5.000000e-02;}
	.st5{stroke:#000000;stroke-miterlimit:10;}
</style>
<g>
	<g>
		<g>
			<polygon class="st0" points="65.9,121 61.8,123 73.5,144.3 90.1,142.2 91.3,167.2 114.7,167.2 121.2,146.3 140.8,154.9 
				154.8,146 153.4,142.2 138.9,147 118.5,133.2 105.8,128.4 90.1,131 76.9,135.6 			"/>
		</g>
		<g>
			<g>
				<polygon class="st1" points="90.1,142.2 105.2,140.9 105,145.9 90.3,147.1 				"/>
			</g>
			<g>
				<polygon class="st1" points="105.2,140.9 122.3,142.1 122.6,136.2 106,134.4 				"/>
			</g>
			<g>
				<polygon class="st1" points="90.1,142.2 90.1,136.8 76.5,139 76.7,143.9 				"/>
			</g>
			<g>
				<polygon class="st1" points="90.1,136.8 106,134.4 105.2,128.5 90.1,131 				"/>
			</g>
			<g>
				<polygon class="st1" points="76.5,139 76.8,135.2 71.5,128.5 69.1,130.8 				"/>
			</g>
			<g>
				<polygon class="st1" points="69.1,130.8 66.8,132.2 61.8,123 64,122 				"/>
			</g>
			<g>
				<polygon class="st1" points="121.2,146.3 122.3,142.1 133.8,147.8 132.7,151.4 				"/>
			</g>
			<g>
				<polygon class="st1" points="135,144.7 133.8,147.8 140.2,151 146.4,147.1 145.1,145.1 138.9,147 				"/>
			</g>
			<g>
				<polygon class="st1" points="146.4,147.1 148.3,150.2 154.8,146 154.2,144.4 				"/>
			</g>
			<g>
				<polygon class="st1" points="91,161.2 104.3,161.2 104.3,167.2 91.3,167.2 				"/>
			</g>
			<g>
				<polygon class="st1" points="104.3,161.2 104.3,156 118,156 116.6,161.2 				"/>
			</g>
			<g>
				<polygon class="st1" points="104.3,156 90.7,156 90.5,151 104.3,151 				"/>
			</g>
			<g>
				<polygon class="st1" points="104.3,151 105.1,145.7 121.2,146.3 119.7,151.2 				"/>
			</g>
		</g>
		<g>
			<path d="M114.7,167.7H91.3c-0.3,0-0.5-0.2-0.5-0.5l-1.3-24.4l-16.1,2c-0.2,0-0.4-0.1-0.5-0.2l-10.5-18c-0.2-0.4-0.4-0.9-0.6-1.3
				l-0.6-2c-0.3-0.9-0.7-1.7-1.2-2.4l-8-10.8c-0.8-1.1-1.1-2.5-0.8-3.8l0.1-0.4c0.1-0.6,0.5-1.1,1.1-1.4c0.5-0.3,1.2-0.4,1.8-0.2
				c2.3,0.7,3.8,3,3.7,5.4c0,0.8,0.3,1.5,0.9,1.9l3.6,2.7c0.5,0.3,1.1,0.3,1.5-0.1l3.4-3.3c0.2-0.2,0.4-0.2,0.6-0.1l1.2,0.7
				c0.2,0.1,0.3,0.4,0.2,0.6l-3.2,7.5c-0.1,0.3-0.1,0.8,0.1,1.1l10,13.5c0.4,0.5,1,0.7,1.6,0.5l12-4.2c0,0,0.1,0,0.1,0l15.7-2.6
				c0.1,0,0.2,0,0.3,0l12.7,4.8c0,0,0.1,0,0.1,0.1l19.3,13.5c0.4,0.3,1,0.4,1.5,0.2l13.5-4.6l3.4-5.9c0.4-0.7,1.3-1,2-0.7l0.2,0.1
				c0.5,0.2,0.8,0.6,0.8,1.1v2.4l4,0.2c1.2,0.1,2.4-0.4,3.3-1.2l1.9-1.8c0.9-0.9,2.4-0.9,3.3-0.1l0.5,0.4c0.1,0.1,0.2,0.2,0.2,0.4
				s-0.1,0.3-0.2,0.4l-5.6,5.2c-0.8,0.7-1.8,1.3-2.9,1.5l-5.1,1.2c-1.4,0.3-2.7,0.9-3.9,1.6l-14,8.9c-0.1,0.1-0.3,0.1-0.5,0
				l-19.1-8.4l-6.3,20.4C115.1,167.5,114.9,167.7,114.7,167.7z M91.8,166.7h22.5l6.4-20.6c0-0.1,0.1-0.2,0.3-0.3
				c0.1-0.1,0.3-0.1,0.4,0l19.4,8.5l13.8-8.8c1.3-0.8,2.7-1.4,4.2-1.7l5.1-1.2c0.9-0.2,1.7-0.6,2.4-1.3l5.2-4.8l-0.1-0.1
				c-0.6-0.5-1.4-0.5-2,0.1l-1.9,1.8c-1.1,1-2.6,1.6-4,1.5l-4.5-0.2c-0.3,0-0.5-0.2-0.5-0.5v-2.8c0-0.1-0.1-0.2-0.1-0.2l-0.2-0.1
				c-0.3-0.1-0.7,0-0.8,0.3l-3.5,6.1c-0.1,0.1-0.2,0.2-0.3,0.2l-13.7,4.7c-0.8,0.3-1.7,0.1-2.4-0.3l-19.2-13.5l-12.5-4.7l-15.5,2.6
				l-11.9,4.2c-1,0.3-2.1,0-2.7-0.8l-10-13.5c-0.4-0.6-0.5-1.4-0.2-2l3.1-7.1l-0.5-0.3l-3.1,3c-0.8,0.7-2,0.8-2.8,0.2l-3.6-2.7
				c-0.9-0.7-1.3-1.7-1.3-2.8c0.1-2-1.1-3.8-3-4.4c-0.3-0.1-0.7-0.1-1,0.1c-0.3,0.2-0.5,0.4-0.6,0.8l-0.1,0.4c-0.3,1,0,2.1,0.6,3
				l8,10.8c0.6,0.8,1.1,1.7,1.4,2.7l0.6,2c0.1,0.4,0.3,0.8,0.5,1.1l10.3,17.7l16.3-2c0.1,0,0.3,0,0.4,0.1c0.1,0.1,0.2,0.2,0.2,0.4
				L91.8,166.7z"/>
		</g>
		<g>
			<path d="M118.9,133.9l-13.6-5.1l-0.9-10.4c-0.2-2.1,0.1-4.2,0.9-6.1l3.2-7.8l13.8,4.4l1,5.1c0.2,0.8,0.1,1.7-0.3,2.5l-0.9,2
				l0.5,3.9c0.1,0.5-0.1,1-0.5,1.3c-0.4,0.3-0.8,0.5-1.3,0.4l-1.1-0.2L118.9,133.9z M106.2,128l11.8,4.4l0.9-9.8l2.2,0.4
				c0.2,0,0.3,0,0.5-0.1c0.1-0.1,0.2-0.3,0.2-0.4l-0.6-4.2l1-2.2c0.3-0.6,0.3-1.2,0.2-1.9l-0.9-4.5l-12.4-4l-2.9,7
				c-0.7,1.8-1,3.7-0.9,5.6L106.2,128z"/>
		</g>
		<g>
			<path d="M108.8,105c0,0-6.1-10.1-15,2.2c0.1-0.4,1.7-15.5,20.4-8.5c0,0.1,14.2-16.4,21.1,4.4c-0.1,0-8.5-9.2-11.5-1.3
				c0.1,0.4,8.7,0.1,9.1,12.5c0.1,0.1-6.1-10.3-11-5L108.8,105z"/>
			<path d="M132.7,114.9l-0.3-0.4c-0.6-1-3.8-5.9-7.1-6.2c-1.1-0.1-2.1,0.3-3,1.3l-0.2,0.2l-13.6-4.3l-0.1-0.2c0,0-2.2-3.5-5.6-3.7
				c-2.8-0.1-5.6,1.9-8.6,5.9l-1.9,2.6l1-3.2c0.8-4.2,2.8-7.4,5.9-9.1c3.7-2.1,8.7-2,14.9,0.3c2.2-2.2,7.6-7,13-5.8
				c3.7,0.8,6.7,4.4,8.8,10.6l0.2,0.7h-0.7c-0.2,0-0.3-0.1-0.5-0.3c-3.1-3.1-5.9-4.5-7.9-4.1c-1,0.2-1.8,1-2.5,2.3
				c5.7,1.2,8.7,5.5,8.9,12.8l0,0.3L132.7,114.9z M125,107.2c0.1,0,0.3,0,0.4,0c2.8,0.3,5.4,3.2,6.9,5.2c-1-8.5-6.2-9.6-8-10
				c-0.5-0.1-0.8-0.2-0.9-0.5l0-0.1l0.1-0.1c0.7-1.9,1.9-3.1,3.4-3.4c2-0.4,4.6,0.7,7.4,3.1c-1.9-4.7-4.3-7.4-7.3-8.1
				c-4.9-1.1-10.1,3.6-12.1,5.6c-0.2,0.2-0.4,0.4-0.7,0.3c-6-2.3-10.9-2.4-14.3-0.5c-2.3,1.3-4,3.5-4.9,6.4c2.7-3.1,5.3-4.6,8-4.5
				c3.6,0.2,5.8,3.2,6.3,4l12.7,4C122.7,107.7,123.8,107.2,125,107.2z"/>
		</g>
		<g>
			<path d="M105.4,240.4l-6.5-1l-15.1-25.7l4.4-28.9l15.1-13l20.3,3.2l17.3,0c1.9,0,3.6,0.7,4.9,2l2.5,2.5c1.2,1.2,1.7,3,1.1,4.7
				l-1.6,5l-8.9,22v5l-8.1-1.9l1.4-4.3c0.6-1.8,0.9-3.6,0.9-5.5l0.1-6.3c0.1-2.9,0.8-5.8,2.1-8.4l2-4.1l-17.7,4.6
				c-3.9,1-7.9,1.2-11.8,0.5l-3-0.5l-8.1,23.4l1.2,1.4c1.6,1.9,2.7,4.3,3,6.8l1.1,7.4c0.3,1.8,0.7,3.7,1.3,5.4L105.4,240.4z
				 M99.4,238.4l4.4,0.7l-1.4-4.2c-0.6-1.8-1.1-3.7-1.3-5.6L100,222c-0.3-2.3-1.3-4.5-2.8-6.3l-1.6-1.8l8.6-24.8l3.8,0.7
				c3.8,0.7,7.6,0.5,11.4-0.5l19.8-5.1l-3,6.1c-1.2,2.5-1.9,5.2-2,8l-0.1,6.3c0,2-0.4,3.9-1,5.8l-1.1,3.2l5.8,1.3l0-4l8.9-22.1
				l1.6-4.9c0.4-1.3,0.1-2.7-0.9-3.7l-2.5-2.5c-1.1-1.1-2.6-1.7-4.2-1.7h-17.4l-19.9-3.1l-14.4,12.4l-4.3,28.2L99.4,238.4z"/>
		</g>
		<g>
			<path class="st0" d="M99.1,238.9l1.6,14.4c0.1,1.3-0.2,2.6-1.1,3.6c-0.7,0.8-1.8,1.5-3.1,1.6c-0.6,0-1.2,0.3-1.6,0.7
				c-0.3,0.3-0.5,0.6-0.7,0.8c-0.2,0.2-0.2,0.5,0,0.7c1.4,1.3,7,6.3,11.6,2.1c1.3-1.1,1.9-2.8,1.9-4.6v-2.3c0-0.7,0.1-1.4,0.4-2
				l0.8-2.2l-4.2-11.8L99.1,238.9z"/>
			<path d="M101.6,264.7c-2.8,0-5.7-1.7-7.9-3.8c-0.4-0.4-0.4-0.9-0.1-1.3c0.2-0.2,0.4-0.5,0.7-0.8c0.5-0.5,1.2-0.9,2-0.9
				c1,0,1.9-0.5,2.8-1.4c0.8-0.8,1.1-2,1-3.2l-1.6-15l6.4,1l4.3,12.3l-0.9,2.4c-0.2,0.6-0.3,1.2-0.3,1.9v2.3c0,1.9-0.8,3.7-2.1,4.9
				C104.7,264.2,103.2,264.7,101.6,264.7z M99.7,239.5l1.5,13.7c0.2,1.5-0.3,2.9-1.3,4c-1,1.1-2.2,1.7-3.5,1.7c-0.5,0-1,0.2-1.3,0.6
				c-0.3,0.3-0.5,0.5-0.7,0.7c1.5,1.4,6.7,5.9,10.9,2c1.1-1,1.7-2.5,1.7-4.2v-2.3c0-0.8,0.1-1.5,0.4-2.2l0.7-2l-4-11.4L99.7,239.5z"
				/>
		</g>
		<g>
			<path class="st0" d="M131.4,213.9c0,0-5.6,1.6-6.1,6.6c0,0.3,5.3,0.7,9.4,6.6c0.1,0.4,11.4,13.3,16.4-0.9
				c0.3,0.3-10.7,7.2-12.9-9.4c-0.1,0.1,0.1-1.4,0.1-1.4L131.4,213.9z"/>
			<path d="M144.3,233.4C144.3,233.4,144.3,233.4,144.3,233.4c-4.7,0-9.3-5-10-6l0,0c-3.1-4.6-7.1-5.8-8.5-6.2
				c-0.6-0.2-0.9-0.3-0.9-0.7c0.5-5.4,6.2-7,6.4-7.1l0.1,0l7.5,1.7l0,0.4c0,0.5-0.1,1-0.1,1.2l0,0.1c0.8,5.8,2.8,9.4,5.9,10.4
				c2.8,0.9,5.6-0.7,6.1-1.1l0.3-0.7l0.8,0.8l-0.2,0.4c0,0,0,0,0,0C150,231.1,147.5,233.4,144.3,233.4z M125.9,220.3
				c0.1,0,0.1,0,0.2,0.1c1.6,0.5,5.7,1.7,9.1,6.6l0.1,0.1c0.3,0.4,5.1,5.9,9.6,5.4c2.2-0.2,3.9-1.8,5.3-4.8c-1.2,0.6-3.1,1.1-5,0.8
				c-2.7-0.5-6.2-2.8-7.3-11.2c-0.1-0.2-0.1-0.6,0-1.3l-6.4-1.5C130.7,214.7,126.5,216.3,125.9,220.3z"/>
		</g>
		<g>
			<path d="M91.3,167.2c0,0-8.8,7.5-13.7,6.3c0.4,0.4,4.9,4.8,12.5,0.7c0.3-0.3,2.3,0.1,1.2,3.2c-0.1-0.1-4.6,7.1-12.5,4.8
				c0.7,0.1,4.5,4.5,11.7,2.3c0,0,14.1-4.5,15.9-9.7c0.1,0.6,17.9,3.5,22.8-2.3c0.4,0.3-10.4-0.9-14.4-5.3H91.3z"/>
		</g>
		<g>
			<path class="st0" d="M91.6,113.8c-1.1,0-2-0.9-2-2s0.9-2,2-2s2,0.9,2,2S92.7,113.8,91.6,113.8z M91.6,110.8c-0.6,0-1,0.5-1,1
				c0,0.6,0.5,1,1,1c0.6,0,1-0.5,1-1C92.6,111.3,92.2,110.8,91.6,110.8z"/>
		</g>
		<g>
			<path class="st0" d="M136.4,107c-1.1,0-2-0.9-2-2s0.9-2,2-2s2,0.9,2,2S137.6,107,136.4,107z M136.4,104c-0.6,0-1,0.5-1,1
				c0,0.6,0.5,1,1,1s1-0.5,1-1C137.5,104.5,137,104,136.4,104z"/>
		</g>
		<g>
			<path class="st2" d="M133.4,118.3c-1.1,0-2-0.9-2-2s0.9-2,2-2c1.1,0,2,0.9,2,2S134.5,118.3,133.4,118.3z M133.4,115.3
				c-0.6,0-1,0.5-1,1c0,0.6,0.5,1,1,1c0.6,0,1-0.5,1-1C134.4,115.7,134,115.3,133.4,115.3z"/>
		</g>
	</g>
	<g>
		<g>
			<path class="st1" d="M60.3,96.7c0.8-1.2,2.2-3.1,3.1-4.3c0.5-0.7,1.4-0.8,2-0.3l6.2,4.9c0.6,0.5,0.7,1.3,0.3,1.9l-3.1,4.2
				c-0.5,0.6-1.4,0.8-2,0.3l-6.2-4.8C60,98.1,59.8,97.3,60.3,96.7z"/>
		</g>
		<g>
			<path class="st1" d="M68,83.1l-0.4-4.9c-0.1-0.8,0.5-1.5,1.3-1.5l8.1-0.6c0.8-0.1,1.4,0.5,1.5,1.3l0.5,5c0.1,0.8-0.5,1.5-1.3,1.5
				l-8.1,0.5C68.8,84.4,68.1,83.9,68,83.1z"/>
		</g>
		<g>
			<path class="st1" d="M78.4,65.8l3.5-3.2c0.5-0.5,1.3-0.5,1.9,0l5.9,5.3c0.6,0.5,0.6,1.4,0.1,2l-3.4,3.6c-0.5,0.6-1.4,0.6-2,0.1
				l-6-5.7C77.8,67.3,77.9,66.4,78.4,65.8z"/>
		</g>
		<g>
			<path class="st1" d="M94,54.8l0.6,8.1c0.1,0.7,0.7,1.3,1.4,1.3h4.8c0.8,0,1.4-0.6,1.4-1.4v-8.1c0-0.8-0.6-1.4-1.4-1.4h-5.4
				C94.6,53.3,94,54,94,54.8z"/>
		</g>
		<g>
			<path class="st1" d="M111.3,57.5l2.9-7.3c0.3-0.7,1.1-1.1,1.8-0.8l4.3,1.7c0.7,0.3,1.1,1.1,0.8,1.8l-2.9,7.5
				c-0.3,0.7-1.1,1.1-1.9,0.8l-4.3-1.9C111.3,59,111,58.2,111.3,57.5z"/>
		</g>
		<g>
			<path class="st1" d="M127.9,61.6l1.4-7.7c0.1-0.7,0.8-1.2,1.5-1.1l4.4,0.5c0.8,0.1,1.3,0.8,1.2,1.6l-1,8.1
				c-0.1,0.8-0.8,1.3-1.6,1.2l-4.8-0.8C128.3,63.1,127.8,62.3,127.9,61.6z"/>
		</g>
		<g>
			<path class="st1" d="M140.6,65.8l4.6-6.3c0.4-0.6,1.3-0.8,1.9-0.3l3.8,2.7c0.6,0.4,0.8,1.3,0.3,2l-4.5,6.3
				c-0.4,0.6-1.3,0.8-1.9,0.3l-3.9-2.7C140.3,67.3,140.1,66.4,140.6,65.8z"/>
		</g>
		<g>
			<path class="st1" d="M153.1,72.1l-2,7.4c-0.2,0.7,0.2,1.4,0.9,1.7l4.6,1.7c0.8,0.3,1.6-0.1,1.8-0.9l2.1-7.7
				c0.2-0.7-0.2-1.5-1-1.7l-4.8-1.4C154.1,70.9,153.3,71.4,153.1,72.1z"/>
		</g>
		<g>
			<path class="st1" d="M159.4,89.4l6.5-4.2c0.6-0.4,1.5-0.2,1.9,0.4l2.4,3.4c0.4,0.6,0.3,1.5-0.3,1.9l-6.5,4.9
				c-0.7,0.5-1.6,0.3-2.1-0.4l-2.4-4.2C158.5,90.6,158.7,89.8,159.4,89.4z"/>
		</g>
		<g>
			<path class="st1" d="M161.2,104.7l0.7,5c0.1,0.8,0.8,1.3,1.6,1.2l7.9-1.4c0.8-0.1,1.3-0.8,1.1-1.6l-0.8-4.7
				c-0.1-0.8-0.8-1.3-1.6-1.2l-7.9,1.1C161.6,103.2,161,103.9,161.2,104.7z"/>
		</g>
		<g>
			<path class="st1" d="M159,124l2.2,3.6c0.4,0.6,1.2,0.8,1.9,0.5l6.6-3.9c0.7-0.4,0.9-1.3,0.5-1.9l-2.5-4c-0.4-0.7-1.3-0.8-2-0.4
				l-6.3,4.3C158.8,122.5,158.6,123.4,159,124z"/>
		</g>
	</g>
	<g>
		<g class="st3">
			<rect x="0.8" y="2.1" width="222.4" height="309.3"/>
		</g>
		<g class="st3">
			<rect x="0.8" y="2.1" width="222.4" height="309.3"/>
		</g>
		<g class="st4">
			<path d="M172.8,282.4H51.2c-4.2,0-7.5-3.4-7.5-7.5V38.7c0-4.2,3.4-7.5,7.5-7.5h121.7c4.2,0,7.5,3.4,7.5,7.5v236.1
				C180.4,279,177,282.4,172.8,282.4z"/>
		</g>
		<g>
			<path class="st5" d="M27.1,50.7c-0.6,1.2-1.5,2.1-2.7,2.8c-1.1,0.6-2.4,0.9-3.9,0.9c-2.7,0-4.9-1-6.6-2.9l1.4-1.5
				c0.6,0.7,1.3,1.2,2.1,1.7c0.9,0.4,1.8,0.6,2.9,0.6c1.6,0,2.9-0.5,3.9-1.6c1-1,1.4-2.6,1.4-4.5V32.5h2.2v13.8
				C28.1,48,27.8,49.4,27.1,50.7z"/>
			<path class="st5" d="M26.1,71.1c1.2,0.7,2.1,1.6,2.7,2.7c0.7,1.2,1,2.4,1,3.9s-0.3,2.7-1,3.9c-0.7,1.2-1.6,2.1-2.8,2.7
				s-2.5,1-3.9,1c-1.4,0-2.7-0.3-3.9-1s-2.1-1.6-2.7-2.7c-0.7-1.2-1-2.4-1-3.9s0.3-2.7,1-3.9c0.7-1.2,1.6-2.1,2.7-2.7
				c1.2-0.7,2.5-1,3.9-1C23.6,70.1,24.9,70.4,26.1,71.1z M19.4,72.7c-0.8,0.5-1.5,1.2-2,2c-0.5,0.9-0.7,1.8-0.7,2.9
				c0,1.1,0.2,2,0.7,2.9c0.5,0.8,1.1,1.5,2,2c0.8,0.5,1.8,0.7,2.8,0.7c1,0,2-0.2,2.8-0.7c0.8-0.5,1.5-1.1,2-2
				c0.5-0.8,0.7-1.8,0.7-2.9c0-1.1-0.2-2-0.7-2.9c-0.5-0.9-1.1-1.5-2-2c-0.8-0.5-1.8-0.7-2.8-0.7C21.2,72,20.3,72.3,19.4,72.7z"/>
			<path class="st5" d="M21.2,107.2l5.8-6h2.6l-6.8,6.9l6.9,7.7h-2.6l-5.9-6.7h-2.2v6.7h-2.1V93.5h2.1v13.6H21.2z"/>
			<path class="st5" d="M25.9,132.7c1,0.6,1.9,1.5,2.5,2.7c0.6,1.1,0.9,2.4,0.9,3.9c0,0.4,0,0.7,0,0.8H17.3c0.1,1.6,0.7,2.8,1.7,3.7
				c1,0.9,2.2,1.3,3.7,1.3c1.8,0,3.3-0.7,4.7-2l1.1,1.4c-1.6,1.6-3.6,2.4-6,2.4c-1.4,0-2.7-0.3-3.8-1c-1.1-0.6-2-1.5-2.6-2.7
				s-0.9-2.5-0.9-3.9c0-1.4,0.3-2.7,0.9-3.9c0.6-1.2,1.5-2,2.6-2.7c1.1-0.6,2.3-1,3.7-1C23.7,131.7,24.9,132.1,25.9,132.7z
				 M19,134.9c-0.9,0.9-1.4,2-1.6,3.5h9.8c-0.1-1.4-0.6-2.6-1.5-3.5c-0.9-0.9-2-1.3-3.2-1.3C21,133.6,19.9,134,19,134.9z"/>
			<path class="st5" d="M27.7,163.1l-0.5,2.1c-0.7-0.4-1.6-0.6-2.6-0.6c-1.2,0-2.1,0.4-2.9,1.3c-0.8,0.9-1.1,2-1.1,3.4v8.2h-2.1
				v-14.6h2v2.3c0.5-0.8,1.1-1.5,1.9-1.9c0.8-0.5,1.6-0.7,2.6-0.7C26.1,162.5,27,162.7,27.7,163.1z"/>
		</g>
		<g>
			<path class="st5" d="M195.9,263.6c0.6-1.2,1.5-2.1,2.7-2.8c1.1-0.6,2.4-0.9,3.9-0.9c2.7,0,4.9,1,6.6,2.9l-1.4,1.5
				c-0.6-0.7-1.3-1.2-2.1-1.7c-0.9-0.4-1.8-0.6-2.9-0.6c-1.6,0-2.9,0.5-3.9,1.6c-1,1-1.4,2.6-1.4,4.5v13.6h-2.2V268
				C194.9,266.3,195.2,264.8,195.9,263.6z"/>
			<path class="st5" d="M196.9,243.2c-1.2-0.7-2.1-1.6-2.7-2.7c-0.7-1.2-1-2.4-1-3.9s0.3-2.7,1-3.9c0.7-1.2,1.6-2.1,2.8-2.7
				c1.2-0.7,2.5-1,3.9-1s2.7,0.3,3.9,1c1.2,0.7,2.1,1.6,2.7,2.7c0.7,1.2,1,2.4,1,3.9s-0.3,2.7-1,3.9c-0.7,1.2-1.6,2.1-2.7,2.7
				c-1.2,0.7-2.5,1-3.9,1C199.4,244.2,198.1,243.9,196.9,243.2z M203.6,241.5c0.8-0.5,1.5-1.2,2-2c0.5-0.9,0.7-1.8,0.7-2.9
				c0-1.1-0.2-2-0.7-2.9c-0.5-0.8-1.1-1.5-2-2c-0.8-0.5-1.8-0.7-2.8-0.7c-1,0-2,0.2-2.8,0.7c-0.8,0.5-1.5,1.1-2,2
				c-0.5,0.8-0.7,1.8-0.7,2.9c0,1.1,0.2,2,0.7,2.9c0.5,0.9,1.1,1.5,2,2c0.8,0.5,1.8,0.7,2.8,0.7C201.8,242.2,202.8,242,203.6,241.5z
				"/>
			<path class="st5" d="M201.9,207.1l-5.8,6h-2.6l6.8-6.9l-6.9-7.7h2.6l5.9,6.7h2.2v-6.7h2.1v22.2h-2.1v-13.6H201.9z"/>
			<path class="st5" d="M197.1,181.6c-1-0.6-1.9-1.5-2.5-2.7c-0.6-1.1-0.9-2.4-0.9-3.9c0-0.4,0-0.7,0-0.8h11.9
				c-0.1-1.6-0.7-2.8-1.7-3.7c-1-0.9-2.2-1.3-3.7-1.3c-1.8,0-3.3,0.7-4.7,2l-1.1-1.4c1.6-1.6,3.6-2.4,6-2.4c1.4,0,2.7,0.3,3.8,1
				c1.1,0.6,2,1.5,2.6,2.7c0.6,1.2,0.9,2.5,0.9,3.9c0,1.4-0.3,2.7-0.9,3.9c-0.6,1.2-1.5,2-2.6,2.7c-1.1,0.6-2.3,1-3.7,1
				C199.3,182.5,198.1,182.2,197.1,181.6z M204.1,179.4c0.9-0.9,1.4-2,1.6-3.5h-9.8c0.1,1.4,0.6,2.6,1.5,3.5c0.9,0.9,2,1.3,3.2,1.3
				C202,180.7,203.2,180.3,204.1,179.4z"/>
			<path class="st5" d="M195.3,151.2l0.5-2.1c0.7,0.4,1.6,0.6,2.6,0.6c1.2,0,2.1-0.4,2.9-1.3c0.8-0.9,1.1-2,1.1-3.4v-8.2h2.1v14.6
				h-2v-2.3c-0.5,0.8-1.1,1.5-1.9,1.9c-0.8,0.5-1.6,0.7-2.6,0.7C196.9,151.7,196.1,151.6,195.3,151.2z"/>
		</g>
	</g>
</g>
</svg>
