<?xml version="1.0" encoding="utf-8"?>
<!-- Generator: Adobe Illustrator 25.2.0, SVG Export Plug-In . SVG Version: 6.00 Build 0)  -->
<svg version="1.1" id="Layer_1" xmlns="http://www.w3.org/2000/svg" xmlns:xlink="http://www.w3.org/1999/xlink" x="0px" y="0px"
	 viewBox="0 0 224.2 312.8" style="enable-background:new 0 0 224.2 312.8;" xml:space="preserve">
<style type="text/css">
	.st0{opacity:2.000000e-02;enable-background:new    ;}
	.st1{opacity:5.000000e-02;enable-background:new    ;}
	.st2{enable-background:new    ;}
	.st3{fill:none;stroke:#000000;stroke-miterlimit:10;}
	.st4{fill:#B20033;}
	.st5{fill:#050307;}
</style>
<g>
	<g class="st0">
		<rect x="-0.2" y="0.7" width="224.4" height="312.1"/>
	</g>
	<g class="st1">
		<path d="M173.4,283.5H50.6c-4.2,0-7.5-3.4-7.5-7.5V37.6c0-4.2,3.4-7.5,7.5-7.5h122.9c4.2,0,7.5,3.4,7.5,7.5V276
			C181,280.1,177.6,283.5,173.4,283.5z"/>
	</g>
	<g class="st2">
		<path d="M209.7,219.1V238l6.7-2.9v2.2l-8.9,3.8v-22H209.7z"/>
		<path d="M188.7,239.8c-1.4-0.9-2.4-2.2-3.2-3.9c-0.8-1.7-1.2-3.7-1.2-5.9c0-2.2,0.4-4.2,1.2-5.9c0.8-1.7,1.9-3,3.2-3.9
			c1.4-0.9,2.9-1.4,4.5-1.4c1.7,0,3.2,0.5,4.5,1.4c1.4,0.9,2.4,2.2,3.2,3.9c0.8,1.7,1.2,3.7,1.2,5.9c0,2.3-0.4,4.2-1.2,5.9
			c-0.8,1.7-1.9,3-3.2,3.9c-1.4,0.9-2.9,1.4-4.5,1.4C191.5,241.1,190,240.7,188.7,239.8z M196.6,237.9c1-0.7,1.8-1.8,2.4-3.1
			s0.9-3,0.9-4.9c0-1.9-0.3-3.5-0.9-4.9s-1.4-2.4-2.4-3.1c-1-0.7-2.2-1.1-3.4-1.1s-2.4,0.4-3.4,1.1c-1,0.7-1.8,1.8-2.4,3.1
			c-0.6,1.4-0.9,3-0.9,4.9c0,1.9,0.3,3.5,0.9,4.9c0.6,1.4,1.4,2.4,2.4,3.1c1,0.7,2.1,1.1,3.4,1.1S195.6,238.7,196.6,237.9z"/>
	</g>
	<g class="st2">
		<path class="st3" d="M209.7,219.1V238l6.7-2.9v2.2l-8.9,3.8v-22H209.7z"/>
		<path class="st3" d="M188.7,239.8c-1.4-0.9-2.4-2.2-3.2-3.9c-0.8-1.7-1.2-3.7-1.2-5.9c0-2.2,0.4-4.2,1.2-5.9
			c0.8-1.7,1.9-3,3.2-3.9c1.4-0.9,2.9-1.4,4.5-1.4c1.7,0,3.2,0.5,4.5,1.4c1.4,0.9,2.4,2.2,3.2,3.9c0.8,1.7,1.2,3.7,1.2,5.9
			c0,2.3-0.4,4.2-1.2,5.9c-0.8,1.7-1.9,3-3.2,3.9c-1.4,0.9-2.9,1.4-4.5,1.4C191.5,241.1,190,240.7,188.7,239.8z M196.6,237.9
			c1-0.7,1.8-1.8,2.4-3.1s0.9-3,0.9-4.9c0-1.9-0.3-3.5-0.9-4.9s-1.4-2.4-2.4-3.1c-1-0.7-2.2-1.1-3.4-1.1s-2.4,0.4-3.4,1.1
			c-1,0.7-1.8,1.8-2.4,3.1c-0.6,1.4-0.9,3-0.9,4.9c0,1.9,0.3,3.5,0.9,4.9c0.6,1.4,1.4,2.4,2.4,3.1c1,0.7,2.1,1.1,3.4,1.1
			S195.6,238.7,196.6,237.9z"/>
	</g>
	<g class="st2">
		<path d="M13.3,96.1V77.2l-6.7,2.9v-2.2l8.9-3.8v22H13.3z"/>
		<path d="M34.4,75.4c1.4,0.9,2.4,2.2,3.2,3.9c0.8,1.7,1.2,3.7,1.2,5.9c0,2.2-0.4,4.2-1.2,5.9c-0.8,1.7-1.9,3-3.2,3.9
			c-1.4,0.9-2.9,1.4-4.5,1.4c-1.7,0-3.2-0.5-4.5-1.4c-1.4-0.9-2.4-2.2-3.2-3.9c-0.8-1.7-1.2-3.7-1.2-5.9c0-2.3,0.4-4.2,1.2-5.9
			c0.8-1.7,1.9-3,3.2-3.9c1.4-0.9,2.9-1.4,4.5-1.4C31.5,74.1,33,74.5,34.4,75.4z M26.4,77.3c-1,0.7-1.8,1.8-2.4,3.1s-0.9,3-0.9,4.9
			c0,1.9,0.3,3.5,0.9,4.9s1.4,2.4,2.4,3.1c1,0.7,2.2,1.1,3.4,1.1s2.4-0.4,3.4-1.1c1-0.7,1.8-1.8,2.4-3.1c0.6-1.4,0.9-3,0.9-4.9
			c0-1.9-0.3-3.5-0.9-4.9c-0.6-1.4-1.4-2.4-2.4-3.1c-1-0.7-2.1-1.1-3.4-1.1S27.5,76.5,26.4,77.3z"/>
	</g>
	<g class="st2">
		<path class="st3" d="M13.3,96.1V77.2l-6.7,2.9v-2.2l8.9-3.8v22H13.3z"/>
		<path class="st3" d="M34.4,75.4c1.4,0.9,2.4,2.2,3.2,3.9c0.8,1.7,1.2,3.7,1.2,5.9c0,2.2-0.4,4.2-1.2,5.9c-0.8,1.7-1.9,3-3.2,3.9
			c-1.4,0.9-2.9,1.4-4.5,1.4c-1.7,0-3.2-0.5-4.5-1.4c-1.4-0.9-2.4-2.2-3.2-3.9c-0.8-1.7-1.2-3.7-1.2-5.9c0-2.3,0.4-4.2,1.2-5.9
			c0.8-1.7,1.9-3,3.2-3.9c1.4-0.9,2.9-1.4,4.5-1.4C31.5,74.1,33,74.5,34.4,75.4z M26.4,77.3c-1,0.7-1.8,1.8-2.4,3.1s-0.9,3-0.9,4.9
			c0,1.9,0.3,3.5,0.9,4.9s1.4,2.4,2.4,3.1c1,0.7,2.2,1.1,3.4,1.1s2.4-0.4,3.4-1.1c1-0.7,1.8-1.8,2.4-3.1c0.6-1.4,0.9-3,0.9-4.9
			c0-1.9-0.3-3.5-0.9-4.9c-0.6-1.4-1.4-2.4-2.4-3.1c-1-0.7-2.1-1.1-3.4-1.1S27.5,76.5,26.4,77.3z"/>
	</g>
	<g>
		<g>
			<path class="st4" d="M131.7,264.8c0-0.2,0-0.4,0-0.6s0-0.4,0-0.6c0-0.3,0.1-0.5,0.1-0.8c0-0.2,0.1-0.4,0.1-0.6
				c0.8-3.5,3.2-6.6,6.3-8c0.4-0.2,0.8-0.3,1.2-0.5c0.9-0.3,1.8-0.4,2.7-0.4c2,0.1,3.9,0.9,5.5,2.2c0.8,0.7,1.6,1.5,2.2,2.4
				c0.4,0.5,0.7,1.1,0.9,1.7c0.3,0.5,0.3,0.4,0.4,1c0-0.4,0-0.7-0.1-1.1c-0.1-0.8-0.2-0.9-0.5-1.6c-0.7-1.9-1.9-3.5-3.4-4.7
				c-1-0.9-2.2-1.7-3.4-2.1l0,0c2.9-2.9,7.9-8.8,9-15.5c0.1-0.3,0.1-0.6,0.1-0.9c0,0.3,0.1,0.6,0.1,0.9c0.5,3,1.8,5.9,3.4,8.5
				c1.2,2,2.6,3.9,4.2,5.6c0.9,1,1.8,1.9,2.8,2.6c0.3,0.2,0.6,0.4,0.9,0.5l0,0c0.9,0.5,1.8,0.7,2.8,1.1c0.4,0.1,0.7,0.3,1.1,0.5
				c0.6,0.3,1.1,0.7,1.6,1.1c0,0,0.1,0,0.1,0.1c0.5,0.4,1,0.9,1.4,1.4c0.4,0.4,0.7,0.9,1,1.4c0.2,0.3,0.4,0.6,0.5,1
				c0.1,0.2,0.2,0.3,0.2,0.5c0.3,0.7,0.6,1.4,0.7,2.1c0.1,0.6,0.2,1.1,0.3,1.7v0.1c0,0.4,0.1,0.7,0.1,1.1c0,1.6-0.3,3.1-0.9,4.5
				c-0.9,2.2-2.4,4.1-4.3,5.4c-0.1,0.1-0.3,0.2-0.4,0.3c-0.8,0.4-1.6,0.8-2.4,1c-0.5,0.1-1,0.3-1.6,0.3c-0.4,0-0.7,0.1-1.1,0.1
				c-0.7,0-1.4-0.1-2-0.2c-0.1,0-0.3-0.1-0.4-0.1c-0.2-0.1-0.4-0.1-0.6-0.2c-0.2-0.1-0.3-0.1-0.5-0.2s-0.3-0.1-0.5-0.2
				c-0.3-0.1-0.6-0.3-0.9-0.4c-0.2-0.1-0.5-0.3-0.7-0.4c-0.1,0-0.1-0.1-0.2-0.1c-0.3-0.2-0.6-0.5-0.9-0.7c-0.1-0.1-0.1-0.1-0.2-0.2
				l-0.1-0.1c-0.1-0.1-0.2-0.2-0.3-0.3c-0.1-0.1-0.1-0.1-0.2-0.2c-0.3-0.3-0.5-0.6-0.8-0.9c-0.1-0.1-0.2-0.2-0.2-0.3
				c-0.3-0.4-0.6-0.9-0.9-1.3c-0.6-1-1-2.1-1.2-3.3c-0.2-0.7-0.3-1.5-0.3-2.3c0,0.3,0,0.6-0.1,1c0,0.3-0.1,0.6-0.1,0.9
				c-0.1,0.3-0.1,0.5-0.2,0.7c0,0.1,0,0.2-0.1,0.3c0,0.1-0.1,0.3-0.1,0.4c0,0.2-0.1,0.4-0.2,0.5c-0.1,0.2-0.1,0.4-0.2,0.5
				c-0.1,0.4-0.3,0.8-0.5,1.1c-0.1,0.1-0.2,0.3-0.2,0.4c-0.2,0.3-0.4,0.6-0.6,0.9c-0.1,0.1-0.2,0.3-0.3,0.4
				c-0.2,0.2-0.4,0.5-0.6,0.7c-0.1,0.1-0.2,0.2-0.3,0.3c-0.4,0.4-0.7,0.7-1.2,1c-0.1,0.1-0.3,0.2-0.4,0.3c-0.3,0.2-0.6,0.4-0.9,0.5
				c-0.9,0.5-1.8,0.9-2.9,1.1c-0.3,0.1-0.7,0.1-1,0.2l0,0c-0.4,0-0.7,0.1-1.1,0.1c-0.4,0-0.7,0-1.1-0.1c-0.5-0.1-1.1-0.2-1.6-0.3
				c-0.9-0.2-1.7-0.6-2.4-1c-0.2-0.1-0.3-0.2-0.5-0.3c-0.4-0.3-0.8-0.5-1.1-0.9c-0.1-0.1-0.2-0.1-0.2-0.2c-1.3-1.2-2.3-2.6-2.9-4.3
				C132,267.9,131.7,266.4,131.7,264.8z"/>
		</g>
		<g>
			<path class="st5" d="M153.1,231.9l0.4,2.8c0,0.4,0.1,0.6,0.1,0.9c0.5,2.7,1.6,5.6,3.3,8.4c1.2,2,2.6,3.8,4.2,5.5
				c0.8,0.8,1.7,1.8,2.8,2.6c0.3,0.2,0.5,0.3,0.8,0.5l0.2,0.1c0.5,0.3,1.1,0.5,1.6,0.7c0.3,0.1,0.6,0.2,0.9,0.4
				c0.4,0.1,0.8,0.3,1.1,0.5c0.6,0.3,1.2,0.7,1.7,1.1c0.1,0.1,0.1,0.1,0.1,0.1c0.5,0.4,0.9,0.8,1.4,1.4c0.4,0.5,0.8,1,1,1.4
				c0.2,0.3,0.4,0.6,0.6,1c0.1,0.2,0.2,0.4,0.2,0.5c0.3,0.7,0.6,1.4,0.7,2.2c0.1,0.5,0.2,1.1,0.3,1.7v0.1c0,0.4,0.1,0.7,0.1,1.1
				c0,1.6-0.3,3.2-0.9,4.6c-0.9,2.3-2.5,4.2-4.4,5.5l-0.2,0.1c-0.1,0.1-0.2,0.1-0.3,0.2c-0.8,0.5-1.6,0.8-2.5,1.1
				c-0.6,0.2-1.1,0.3-1.6,0.3c-0.3,0-0.7,0.1-1.1,0.1c-0.7,0-1.4-0.1-2.1-0.2h-0.1c-0.1,0-0.2,0-0.3-0.1c-0.2,0-0.4-0.1-0.6-0.2
				l-0.5-0.2c-0.1,0-0.2-0.1-0.4-0.1l-0.1-0.1c-0.3-0.1-0.6-0.3-0.9-0.4c-0.2-0.1-0.5-0.3-0.7-0.4c-0.1-0.1-0.2-0.1-0.2-0.2
				c-0.3-0.2-0.6-0.5-0.9-0.7c-0.1-0.1-0.1-0.1-0.2-0.1l-0.2-0.2c-0.1-0.1-0.1-0.1-0.2-0.2l-0.1-0.1c-0.3-0.4-0.6-0.7-0.9-1
				c-0.1-0.1-0.2-0.2-0.2-0.3c-0.3-0.5-0.6-0.9-0.9-1.4c-0.5-0.9-0.9-1.9-1.1-2.9c0,0,0,0,0,0.1s-0.1,0.3-0.1,0.4
				c0,0.2-0.1,0.4-0.2,0.5c-0.1,0.2-0.1,0.4-0.2,0.5c-0.1,0.4-0.3,0.8-0.5,1.1c-0.1,0.1-0.2,0.3-0.2,0.4c-0.2,0.4-0.4,0.7-0.6,1
				l-0.1,0.2c-0.1,0.1-0.1,0.2-0.2,0.3c-0.2,0.2-0.4,0.5-0.6,0.7c-0.1,0.1-0.2,0.2-0.3,0.3c-0.4,0.4-0.8,0.8-1.2,1.1
				c-0.1,0.1-0.3,0.2-0.4,0.3c-0.3,0.2-0.6,0.4-0.9,0.6c-0.9,0.5-1.9,0.9-3,1.1c-0.3,0.1-0.7,0.1-1,0.2c-0.7,0.1-1.7,0.1-2.3,0
				s-1.1-0.2-1.6-0.3c-0.9-0.2-1.7-0.6-2.5-1.1l-0.1-0.1c-0.1-0.1-0.2-0.1-0.3-0.2c-0.5-0.3-0.8-0.6-1.2-0.9c-0.1,0-0.2-0.1-0.2-0.2
				c-1.3-1.2-2.4-2.7-3-4.4c-0.6-1.5-0.9-3-0.9-4.6c0-0.2,0-0.4,0-0.6s0-0.4,0-0.6c0-0.3,0.1-0.5,0.1-0.8c0-0.2,0.1-0.4,0.1-0.7
				c0.8-3.6,3.3-6.8,6.5-8.3c0.4-0.2,0.8-0.3,1.2-0.5c1-0.3,1.9-0.4,2.9-0.4c2,0.1,4,0.9,5.7,2.3c0.8,0.7,1.6,1.5,2.3,2.5
				c-0.7-1.6-1.7-3.1-3.1-4.2c-1-0.9-2.1-1.6-3.3-2.1l-0.5-0.2l0.4-0.4c2.9-2.9,7.8-8.7,8.9-15.3c0-0.3,0.1-0.6,0.1-0.9L153.1,231.9
				z M164.2,253.1c-0.3-0.1-0.5-0.3-0.7-0.5c-1.2-0.8-2.2-1.9-2.9-2.7c-1.6-1.8-3-3.6-4.3-5.6c-1.5-2.5-2.6-5-3.2-7.5
				c-1.4,6-5.7,11.2-8.5,14.1c1.1,0.5,2.1,1.1,3,2c1.5,1.3,2.7,3,3.5,4.9l0.1,0.3c0.2,0.5,0.3,0.7,0.4,1.3c0.1,0.3,0.1,0.6,0.1,0.9
				v0.3l0.2,3.5l-0.9-3.4c-0.1-0.4-0.1-0.4-0.2-0.6c0-0.1-0.1-0.2-0.2-0.3c-0.2-0.6-0.5-1.1-0.9-1.6c-0.6-0.9-1.3-1.7-2.1-2.3
				c-1.6-1.3-3.5-2.1-5.3-2.1c-0.9,0-1.7,0.1-2.6,0.4c-0.4,0.1-0.8,0.3-1.1,0.5c-3,1.4-5.3,4.4-6.1,7.8c0,0.2-0.1,0.4-0.1,0.6
				c0,0.3-0.1,0.5-0.1,0.8c0,0.2,0,0.4,0,0.5c0,0.2,0,0.4,0,0.5c0,1.5,0.3,3,0.8,4.3c0.6,1.6,1.6,3.1,2.8,4.2
				c0.1,0.1,0.1,0.1,0.2,0.2c0.4,0.3,0.7,0.6,1.1,0.8c0.1,0,0.2,0.1,0.3,0.2l0.1,0.1c0.7,0.4,1.5,0.7,2.3,1c0.5,0.1,1,0.2,1.5,0.3
				c0.7,0.1,1.4,0.1,2.1,0c0.3,0,0.7-0.1,1-0.2c1-0.2,1.9-0.6,2.7-1c0.3-0.1,0.5-0.3,0.8-0.5c0.1-0.1,0.3-0.2,0.4-0.3
				c0.4-0.3,0.8-0.6,1.1-1c0.1-0.1,0.2-0.2,0.3-0.3c0.2-0.2,0.4-0.5,0.6-0.7c0.1-0.1,0.1-0.2,0.2-0.3l0.1-0.2
				c0.2-0.3,0.4-0.6,0.6-0.9c0.1-0.1,0.1-0.3,0.2-0.4c0.2-0.3,0.3-0.7,0.4-1c0.1-0.2,0.1-0.3,0.2-0.5c0.1-0.2,0.1-0.3,0.2-0.5
				c0-0.1,0.1-0.2,0.1-0.3v-0.1v-0.1l0.2-0.8c0-0.3,0.1-0.6,0.1-0.9s0-0.6,0-0.9h0.8c0,0.8,0.1,1.6,0.3,2.2c0.2,1.1,0.6,2.2,1.2,3.2
				c0.2,0.4,0.5,0.9,0.8,1.3c0.1,0.1,0.1,0.2,0.2,0.3c0.3,0.3,0.5,0.6,0.7,0.9l0.1,0.1c0.1,0.1,0.2,0.2,0.2,0.2l0.2,0.1
				c0.1,0.1,0.2,0.2,0.2,0.2c0.3,0.2,0.6,0.5,0.9,0.7l0.1,0.1c0.3,0.2,0.5,0.3,0.7,0.4c0.3,0.2,0.6,0.3,0.9,0.4l0.1,0.1
				c0.1,0,0.2,0.1,0.3,0.1l0.5,0.2c0.2,0.1,0.4,0.1,0.5,0.2c0.1,0,0.2,0,0.2,0.1h0.1c1,0.2,2,0.3,3,0.1c0.5,0,1-0.1,1.5-0.3
				c0.8-0.2,1.6-0.6,2.3-1c0.1-0.1,0.2-0.1,0.3-0.2l0.2-0.1c1.8-1.2,3.3-3,4.1-5.2c0.5-1.4,0.8-2.8,0.8-4.3c0-0.3,0-0.7,0-1v-0.1
				c0-0.5-0.1-1.1-0.3-1.6c-0.2-0.7-0.4-1.4-0.7-2c-0.1-0.2-0.1-0.3-0.2-0.5c-0.2-0.3-0.3-0.6-0.5-0.9c-0.2-0.4-0.6-0.8-1-1.3
				s-0.9-0.9-1.4-1.3l-0.1-0.1c-0.5-0.4-1-0.7-1.6-1c-0.3-0.2-0.6-0.3-1-0.4c-0.3-0.1-0.6-0.2-0.9-0.4c-0.6-0.2-1.2-0.5-1.8-0.8
				h-0.3L164.2,253.1z"/>
		</g>
	</g>
	<g>
		<g>
			<path class="st4" d="M49.3,264.8c0-0.2,0-0.4,0-0.6s0-0.4,0-0.6c0-0.3,0.1-0.5,0.1-0.8c0-0.2,0.1-0.4,0.1-0.6
				c0.8-3.5,3.2-6.6,6.3-8c0.4-0.2,0.8-0.3,1.2-0.5c0.9-0.3,1.8-0.4,2.7-0.4c2,0.1,3.9,0.9,5.5,2.2c0.8,0.7,1.6,1.5,2.2,2.4
				c0.4,0.5,0.7,1.1,0.9,1.7c0.3,0.5,0.3,0.4,0.4,1c0-0.4,0-0.7-0.1-1.1c-0.1-0.8-0.2-0.9-0.5-1.6c-0.7-1.9-1.9-3.5-3.4-4.7
				c-1-0.9-2.2-1.7-3.4-2.1l0,0c2.9-2.9,7.9-8.8,9-15.5c0.1-0.3,0.1-0.6,0.1-0.9c0,0.3,0.1,0.6,0.1,0.9c0.5,3,1.8,5.9,3.4,8.5
				c1.2,2,2.6,3.9,4.2,5.6c0.9,1,1.8,1.9,2.8,2.6c0.3,0.2,0.6,0.4,0.9,0.5l0,0c0.9,0.5,1.8,0.7,2.8,1.1c0.4,0.1,0.7,0.3,1.1,0.5
				c0.6,0.3,1.1,0.7,1.6,1.1c0,0,0.1,0,0.1,0.1c0.5,0.4,1,0.9,1.4,1.4c0.4,0.4,0.7,0.9,1,1.4c0.2,0.3,0.4,0.6,0.5,1
				c0.1,0.2,0.2,0.3,0.2,0.5c0.3,0.7,0.6,1.4,0.7,2.1c0.1,0.6,0.2,1.1,0.3,1.7v0.1c0,0.4,0.1,0.7,0.1,1.1c0,1.6-0.3,3.1-0.9,4.5
				c-0.9,2.2-2.4,4.1-4.3,5.4c-0.1,0.1-0.3,0.2-0.4,0.3c-0.8,0.4-1.6,0.8-2.4,1c-0.5,0.1-1,0.3-1.6,0.3c-0.4,0-0.7,0.1-1.1,0.1
				c-0.7,0-1.4-0.1-2-0.2c-0.1,0-0.3-0.1-0.4-0.1c-0.2-0.1-0.4-0.1-0.6-0.2s-0.3-0.1-0.5-0.2s-0.3-0.1-0.5-0.2
				c-0.3-0.1-0.6-0.3-0.9-0.4c-0.2-0.1-0.5-0.3-0.7-0.4c-0.1,0-0.1-0.1-0.2-0.1c-0.3-0.2-0.6-0.5-0.9-0.7c-0.1-0.1-0.1-0.1-0.2-0.2
				l-0.1-0.1c-0.1-0.1-0.2-0.2-0.3-0.3c-0.1-0.1-0.1-0.1-0.2-0.2c-0.3-0.3-0.5-0.6-0.8-0.9c-0.1-0.1-0.2-0.2-0.2-0.3
				c-0.3-0.4-0.6-0.9-0.9-1.3c-0.6-1-1-2.1-1.2-3.3c-0.2-0.7-0.3-1.5-0.3-2.3c0,0.3,0,0.6-0.1,1c0,0.3-0.1,0.6-0.1,0.9
				c-0.1,0.3-0.1,0.5-0.2,0.7c0,0.1,0,0.2-0.1,0.3c0,0.1-0.1,0.3-0.1,0.4c0,0.2-0.1,0.4-0.2,0.5c-0.1,0.2-0.1,0.4-0.2,0.5
				c-0.1,0.4-0.3,0.8-0.5,1.1c-0.1,0.1-0.2,0.3-0.2,0.4c-0.2,0.3-0.4,0.6-0.6,0.9c-0.1,0.1-0.2,0.3-0.3,0.4
				c-0.2,0.2-0.4,0.5-0.6,0.7c-0.1,0.1-0.2,0.2-0.3,0.3c-0.4,0.4-0.7,0.7-1.2,1c-0.1,0.1-0.3,0.2-0.4,0.3c-0.3,0.2-0.6,0.4-0.9,0.5
				c-0.9,0.5-1.8,0.9-2.9,1.1c-0.3,0.1-0.7,0.1-1,0.2l0,0c-0.4,0-0.7,0.1-1.1,0.1c-0.4,0-0.7,0-1.1-0.1c-0.5-0.1-1.1-0.2-1.6-0.3
				c-0.9-0.2-1.7-0.6-2.4-1c-0.2-0.1-0.3-0.2-0.5-0.3c-0.4-0.3-0.8-0.5-1.1-0.9c-0.1-0.1-0.2-0.1-0.2-0.2c-1.3-1.2-2.3-2.6-2.9-4.3
				C49.6,267.9,49.3,266.4,49.3,264.8z"/>
		</g>
		<g>
			<path class="st5" d="M70.7,231.9l0.4,2.8c0,0.4,0.1,0.6,0.1,0.9c0.5,2.7,1.6,5.6,3.3,8.4c1.2,2,2.6,3.8,4.2,5.5
				c0.8,0.8,1.7,1.8,2.8,2.6c0.3,0.2,0.5,0.3,0.8,0.5l0.2,0.1c0.5,0.3,1.1,0.5,1.6,0.7c0.3,0.1,0.6,0.2,0.9,0.4
				c0.4,0.1,0.8,0.3,1.1,0.5c0.6,0.3,1.2,0.7,1.7,1.1c0.1,0.1,0.1,0.1,0.1,0.1c0.5,0.4,0.9,0.8,1.4,1.4c0.4,0.5,0.8,1,1,1.4
				c0.2,0.3,0.4,0.6,0.6,1c0.1,0.2,0.2,0.4,0.2,0.5c0.3,0.7,0.6,1.4,0.7,2.2c0.1,0.5,0.2,1.1,0.3,1.7v0.1c0,0.4,0.1,0.7,0.1,1.1
				c0,1.6-0.3,3.2-0.9,4.6c-0.9,2.3-2.5,4.2-4.4,5.5l-0.2,0.1c-0.1,0.1-0.2,0.1-0.3,0.2c-0.8,0.5-1.6,0.8-2.5,1.1
				c-0.6,0.2-1.1,0.3-1.6,0.3c-0.3,0-0.7,0.1-1.1,0.1c-0.7,0-1.4-0.1-2.1-0.2H79c-0.1,0-0.2,0-0.3-0.1c-0.2,0-0.4-0.1-0.6-0.2
				l-0.5-0.2c-0.1,0-0.2-0.1-0.4-0.1l-0.1-0.1c-0.3-0.1-0.6-0.3-0.9-0.4c-0.2-0.1-0.5-0.3-0.7-0.4c-0.1-0.1-0.2-0.1-0.2-0.2
				c-0.3-0.2-0.6-0.5-0.9-0.7c-0.1-0.1-0.1-0.1-0.2-0.1l-0.2-0.2c-0.1-0.1-0.1-0.1-0.2-0.2l-0.1-0.1c-0.3-0.4-0.6-0.7-0.9-1
				c-0.1-0.1-0.2-0.2-0.2-0.3c-0.3-0.5-0.6-0.9-0.9-1.4c-0.5-0.9-0.9-1.9-1.1-2.9c0,0,0,0,0,0.1s-0.1,0.3-0.1,0.4
				c0,0.2-0.1,0.4-0.2,0.5c-0.1,0.2-0.1,0.4-0.2,0.5c-0.1,0.4-0.3,0.8-0.5,1.1c-0.1,0.1-0.2,0.3-0.2,0.4c-0.2,0.4-0.4,0.7-0.6,1
				l-0.1,0.2c-0.1,0.1-0.1,0.2-0.2,0.3c-0.2,0.2-0.4,0.5-0.6,0.7c-0.1,0.1-0.2,0.2-0.3,0.3c-0.4,0.4-0.8,0.8-1.2,1.1
				c-0.1,0.1-0.3,0.2-0.4,0.3c-0.3,0.2-0.6,0.4-0.9,0.6c-0.9,0.5-1.9,0.9-3,1.1c-0.3,0.1-0.7,0.1-1,0.2c-0.7,0.1-1.7,0.1-2.3,0
				s-1.1-0.2-1.6-0.3c-0.9-0.2-1.7-0.6-2.5-1.1l-0.1-0.1c-0.1-0.1-0.2-0.1-0.3-0.2c-0.5-0.3-0.8-0.6-1.2-0.9c-0.1,0-0.2-0.1-0.2-0.2
				c-1.3-1.2-2.4-2.7-3-4.4c-0.6-1.5-0.9-3-0.9-4.6c0-0.2,0-0.4,0-0.6s0-0.4,0-0.6c0-0.3,0.1-0.5,0.1-0.8c0-0.2,0.1-0.4,0.1-0.7
				c0.8-3.6,3.3-6.8,6.5-8.3c0.4-0.2,0.8-0.3,1.2-0.5c1-0.3,1.9-0.4,2.9-0.4c2,0.1,4,0.9,5.7,2.3c0.8,0.7,1.6,1.5,2.3,2.5
				c-0.7-1.6-1.7-3.1-3.1-4.2c-1-0.9-2.1-1.6-3.3-2.1l-0.5-0.2l0.4-0.4c2.9-2.9,7.8-8.7,8.9-15.3c0-0.3,0.1-0.6,0.1-0.9L70.7,231.9z
				 M81.8,253.1c-0.3-0.1-0.5-0.3-0.7-0.5c-1.2-0.8-2.2-1.9-2.9-2.7c-1.6-1.8-3-3.6-4.3-5.6c-1.5-2.5-2.6-5-3.2-7.5
				c-1.4,6-5.7,11.2-8.5,14.1c1.1,0.5,2.1,1.1,3,2c1.5,1.3,2.7,3,3.5,4.9l0.1,0.3c0.2,0.5,0.3,0.7,0.4,1.3c0.1,0.3,0.1,0.6,0.1,0.9
				v0.3l0.2,3.5l-0.9-3.4c-0.1-0.4-0.1-0.4-0.2-0.6c0-0.1-0.1-0.2-0.2-0.3c-0.2-0.6-0.5-1.1-0.9-1.6c-0.6-0.9-1.3-1.7-2.1-2.3
				c-1.6-1.3-3.5-2.1-5.3-2.1c-0.9,0-1.7,0.1-2.6,0.4c-0.4,0.1-0.8,0.3-1.1,0.5c-3,1.4-5.3,4.4-6.1,7.8c0,0.2-0.1,0.4-0.1,0.6
				c0,0.3-0.1,0.5-0.1,0.8c0,0.2,0,0.4,0,0.5c0,0.2,0,0.4,0,0.5c0,1.5,0.3,3,0.8,4.3c0.6,1.6,1.6,3.1,2.8,4.2
				c0.1,0.1,0.1,0.1,0.2,0.2c0.4,0.3,0.7,0.6,1.1,0.8c0.1,0,0.2,0.1,0.3,0.2l0.1,0.1c0.7,0.4,1.5,0.7,2.3,1c0.5,0.1,1,0.2,1.5,0.3
				c0.7,0.1,1.4,0.1,2.1,0c0.3,0,0.7-0.1,1-0.2c1-0.2,1.9-0.6,2.7-1c0.3-0.1,0.5-0.3,0.8-0.5c0.1-0.1,0.3-0.2,0.4-0.3
				c0.4-0.3,0.8-0.6,1.1-1c0.1-0.1,0.2-0.2,0.3-0.3c0.2-0.2,0.4-0.5,0.6-0.7c0.1-0.1,0.1-0.2,0.2-0.3l0.1-0.2
				c0.2-0.3,0.4-0.6,0.6-0.9c0.1-0.1,0.1-0.3,0.2-0.4c0.2-0.3,0.3-0.7,0.4-1c0.1-0.2,0.1-0.3,0.2-0.5s0.1-0.3,0.2-0.5
				c0-0.1,0.1-0.2,0.1-0.3v-0.1v-0.1l0.2-0.8c0-0.3,0.1-0.6,0.1-0.9s0-0.6,0-0.9h0.8c0,0.8,0.1,1.6,0.3,2.2c0.2,1.1,0.6,2.2,1.2,3.2
				c0.2,0.4,0.5,0.9,0.8,1.3c0.1,0.1,0.1,0.2,0.2,0.3c0.3,0.3,0.5,0.6,0.7,0.9l0.1,0.1c0.1,0.1,0.2,0.2,0.2,0.2l0.2,0.1
				c0.1,0.1,0.2,0.2,0.2,0.2c0.3,0.2,0.6,0.5,0.9,0.7l0.1,0.1c0.3,0.2,0.5,0.3,0.7,0.4c0.3,0.2,0.6,0.3,0.9,0.4l0.1,0.1
				c0.1,0,0.2,0.1,0.3,0.1l0.5,0.2c0.2,0.1,0.4,0.1,0.5,0.2c0.1,0,0.2,0,0.2,0.1h0.1c1,0.2,2,0.3,3,0.1c0.5,0,1-0.1,1.5-0.3
				c0.8-0.2,1.6-0.6,2.3-1c0.1-0.1,0.2-0.1,0.3-0.2l0.2-0.1c1.8-1.2,3.3-3,4.1-5.2c0.5-1.4,0.8-2.8,0.8-4.3c0-0.3,0-0.7,0-1v-0.1
				c0-0.5-0.1-1.1-0.3-1.6c-0.2-0.7-0.4-1.4-0.7-2c-0.1-0.2-0.1-0.3-0.2-0.5c-0.2-0.3-0.3-0.6-0.5-0.9c-0.2-0.4-0.6-0.8-1-1.3
				s-0.9-0.9-1.4-1.3l-0.1-0.1c-0.5-0.4-1-0.7-1.6-1c-0.3-0.2-0.6-0.3-1-0.4c-0.3-0.1-0.6-0.2-0.9-0.4c-0.6-0.2-1.2-0.5-1.8-0.8
				h-0.3L81.8,253.1z"/>
		</g>
	</g>
	<g>
		<g>
			<path class="st4" d="M131.7,193.8c0-0.2,0-0.4,0-0.6c0-0.2,0-0.4,0-0.6c0-0.3,0.1-0.5,0.1-0.8c0-0.2,0.1-0.4,0.1-0.6
				c0.8-3.5,3.2-6.6,6.3-8c0.4-0.2,0.8-0.3,1.2-0.5c0.9-0.3,1.8-0.4,2.7-0.4c2,0.1,3.9,0.9,5.5,2.2c0.8,0.7,1.6,1.5,2.2,2.4
				c0.4,0.5,0.7,1.1,0.9,1.7c0.3,0.5,0.3,0.4,0.4,1c0-0.4,0-0.7-0.1-1.1c-0.1-0.8-0.2-0.9-0.5-1.6c-0.7-1.9-1.9-3.5-3.4-4.7
				c-1-0.9-2.2-1.7-3.4-2.1l0,0c2.9-2.9,7.9-8.8,9-15.5c0.1-0.3,0.1-0.6,0.1-0.9c0,0.3,0.1,0.6,0.1,0.9c0.5,3,1.8,5.9,3.4,8.5
				c1.2,2,2.6,3.9,4.2,5.6c0.9,1,1.8,1.9,2.8,2.6c0.3,0.2,0.6,0.4,0.9,0.5l0,0c0.9,0.5,1.8,0.7,2.8,1.1c0.4,0.1,0.7,0.3,1.1,0.5
				c0.6,0.3,1.1,0.7,1.6,1.1c0,0,0.1,0,0.1,0.1c0.5,0.4,1,0.9,1.4,1.4c0.4,0.4,0.7,0.9,1,1.4c0.2,0.3,0.4,0.6,0.5,1
				c0.1,0.2,0.2,0.3,0.2,0.5c0.3,0.7,0.6,1.4,0.7,2.1c0.1,0.6,0.2,1.1,0.3,1.7v0.1c0,0.4,0.1,0.7,0.1,1.1c0,1.6-0.3,3.1-0.9,4.5
				c-0.9,2.2-2.4,4.1-4.3,5.4c-0.1,0.1-0.3,0.2-0.4,0.3c-0.8,0.4-1.6,0.8-2.4,1c-0.5,0.1-1,0.3-1.6,0.3c-0.4,0-0.7,0.1-1.1,0.1
				c-0.7,0-1.4-0.1-2-0.2c-0.1,0-0.3-0.1-0.4-0.1c-0.2-0.1-0.4-0.1-0.6-0.2c-0.2-0.1-0.3-0.1-0.5-0.2c-0.2-0.1-0.3-0.1-0.5-0.2
				c-0.3-0.1-0.6-0.3-0.9-0.4c-0.2-0.1-0.5-0.3-0.7-0.4c-0.1,0-0.1-0.1-0.2-0.1c-0.3-0.2-0.6-0.5-0.9-0.7c-0.1-0.1-0.1-0.1-0.2-0.2
				l-0.1-0.1c-0.1-0.1-0.2-0.2-0.3-0.3s-0.1-0.1-0.2-0.2c-0.3-0.3-0.5-0.6-0.8-0.9c-0.1-0.1-0.2-0.2-0.2-0.3
				c-0.3-0.4-0.6-0.9-0.9-1.3c-0.6-1-1-2.1-1.2-3.3c-0.2-0.7-0.3-1.5-0.3-2.3c0,0.3,0,0.6-0.1,1c0,0.3-0.1,0.6-0.1,0.9
				c-0.1,0.3-0.1,0.5-0.2,0.7c0,0.1,0,0.2-0.1,0.3c0,0.1-0.1,0.3-0.1,0.4c0,0.2-0.1,0.4-0.2,0.5c-0.1,0.2-0.1,0.4-0.2,0.5
				c-0.1,0.4-0.3,0.8-0.5,1.1c-0.1,0.1-0.2,0.3-0.2,0.4c-0.2,0.3-0.4,0.6-0.6,0.9c-0.1,0.1-0.2,0.3-0.3,0.4
				c-0.2,0.2-0.4,0.5-0.6,0.7c-0.1,0.1-0.2,0.2-0.3,0.3c-0.4,0.4-0.7,0.7-1.2,1c-0.1,0.1-0.3,0.2-0.4,0.3c-0.3,0.2-0.6,0.4-0.9,0.5
				c-0.9,0.5-1.8,0.9-2.9,1.1c-0.3,0.1-0.7,0.1-1,0.2l0,0c-0.4,0-0.7,0.1-1.1,0.1c-0.4,0-0.7,0-1.1-0.1c-0.5-0.1-1.1-0.2-1.6-0.3
				c-0.9-0.2-1.7-0.6-2.4-1c-0.2-0.1-0.3-0.2-0.5-0.3c-0.4-0.3-0.8-0.5-1.1-0.9c-0.1-0.1-0.2-0.1-0.2-0.2c-1.3-1.2-2.3-2.6-2.9-4.3
				C132,196.9,131.7,195.4,131.7,193.8z"/>
		</g>
		<g>
			<path class="st5" d="M153.1,160.9l0.4,2.8c0,0.4,0.1,0.6,0.1,0.9c0.5,2.7,1.6,5.6,3.3,8.4c1.2,2,2.6,3.8,4.2,5.5
				c0.8,0.8,1.7,1.8,2.8,2.6c0.3,0.2,0.5,0.3,0.8,0.5l0.2,0.1c0.5,0.3,1.1,0.5,1.6,0.7c0.3,0.1,0.6,0.2,0.9,0.4
				c0.4,0.1,0.8,0.3,1.1,0.5c0.6,0.3,1.2,0.7,1.7,1.1c0.1,0.1,0.1,0.1,0.1,0.1c0.5,0.4,0.9,0.8,1.4,1.4c0.4,0.5,0.8,1,1,1.4
				c0.2,0.3,0.4,0.6,0.6,1c0.1,0.2,0.2,0.4,0.2,0.5c0.3,0.7,0.6,1.4,0.7,2.2c0.1,0.5,0.2,1.1,0.3,1.7v0.1c0,0.4,0.1,0.7,0.1,1.1
				c0,1.6-0.3,3.2-0.9,4.6c-0.9,2.3-2.5,4.2-4.4,5.5l-0.2,0.1c-0.1,0.1-0.2,0.1-0.3,0.2c-0.8,0.5-1.6,0.8-2.5,1.1
				c-0.6,0.2-1.1,0.3-1.6,0.3c-0.3,0-0.7,0.1-1.1,0.1c-0.7,0-1.4-0.1-2.1-0.2h-0.1c-0.1,0-0.2,0-0.3-0.1c-0.2,0-0.4-0.1-0.6-0.2
				l-0.5-0.2c-0.1,0-0.2-0.1-0.4-0.1l-0.1-0.1c-0.3-0.1-0.6-0.3-0.9-0.4c-0.2-0.1-0.5-0.3-0.7-0.4c-0.1-0.1-0.2-0.1-0.2-0.2
				c-0.3-0.2-0.6-0.5-0.9-0.7c-0.1-0.1-0.1-0.1-0.2-0.1l-0.2-0.2c-0.1-0.1-0.1-0.1-0.2-0.2l-0.1-0.1c-0.3-0.3-0.6-0.7-0.9-1
				c-0.1-0.1-0.2-0.2-0.2-0.3c-0.3-0.5-0.6-0.9-0.9-1.4c-0.5-0.9-0.9-1.9-1.1-2.9c0,0,0,0,0,0.1s-0.1,0.3-0.1,0.4
				c0,0.2-0.1,0.4-0.2,0.5c-0.1,0.2-0.1,0.4-0.2,0.5c-0.1,0.4-0.3,0.8-0.5,1.1c-0.1,0.1-0.2,0.3-0.2,0.4c-0.2,0.4-0.4,0.7-0.6,1
				l-0.1,0.2c-0.1,0.1-0.1,0.2-0.2,0.3c-0.2,0.2-0.4,0.5-0.6,0.7c-0.1,0.1-0.2,0.2-0.3,0.3c-0.4,0.4-0.8,0.8-1.2,1.1
				c-0.1,0.1-0.3,0.2-0.4,0.3c-0.3,0.2-0.6,0.4-0.9,0.6c-0.9,0.5-1.9,0.9-3,1.1c-0.3,0.1-0.7,0.1-1,0.2c-0.7,0.1-1.7,0.1-2.3,0
				s-1.1-0.2-1.6-0.3c-0.9-0.2-1.7-0.6-2.5-1.1l-0.1-0.1c-0.1-0.1-0.2-0.1-0.3-0.2c-0.5-0.3-0.8-0.6-1.2-0.9c-0.1,0-0.2-0.1-0.2-0.2
				c-1.3-1.2-2.4-2.7-3-4.4c-0.6-1.5-0.9-3-0.9-4.6c0-0.2,0-0.4,0-0.6c0-0.2,0-0.4,0-0.6c0-0.3,0.1-0.5,0.1-0.8
				c0-0.2,0.1-0.4,0.1-0.7c0.8-3.6,3.3-6.8,6.5-8.3c0.4-0.2,0.8-0.3,1.2-0.5c1-0.3,1.9-0.4,2.9-0.4c2,0.1,4,0.9,5.7,2.3
				c0.8,0.7,1.6,1.5,2.3,2.5c-0.7-1.6-1.7-3.1-3.1-4.2c-1-0.9-2.1-1.6-3.3-2.1l-0.5-0.2l0.4-0.4c2.9-2.9,7.8-8.7,8.9-15.3
				c0-0.3,0.1-0.6,0.1-0.9L153.1,160.9z M164.2,182.1c-0.3-0.1-0.5-0.3-0.7-0.5c-1.2-0.8-2.2-1.9-2.9-2.7c-1.6-1.8-3-3.6-4.3-5.6
				c-1.5-2.5-2.6-5-3.2-7.5c-1.4,6-5.7,11.2-8.5,14.1c1.1,0.5,2.1,1.1,3,2c1.5,1.3,2.7,3,3.5,4.9l0.1,0.3c0.2,0.5,0.3,0.7,0.4,1.3
				c0.1,0.3,0.1,0.6,0.1,0.9v0.3l0.2,3.5l-0.9-3.4c-0.1-0.4-0.1-0.4-0.2-0.6c0-0.1-0.1-0.2-0.2-0.3c-0.2-0.6-0.5-1.1-0.9-1.6
				c-0.6-0.9-1.3-1.7-2.1-2.3c-1.6-1.3-3.5-2.1-5.3-2.1c-0.9,0-1.7,0.1-2.6,0.4c-0.4,0.1-0.8,0.3-1.1,0.5c-3,1.4-5.3,4.4-6.1,7.8
				c0,0.2-0.1,0.4-0.1,0.6c0,0.3-0.1,0.5-0.1,0.8c0,0.2,0,0.4,0,0.5c0,0.2,0,0.4,0,0.5c0,1.5,0.3,3,0.8,4.3c0.6,1.6,1.6,3.1,2.8,4.2
				c0.1,0.1,0.1,0.1,0.2,0.2c0.4,0.3,0.7,0.6,1.1,0.8c0.1,0,0.2,0.1,0.3,0.2l0.1,0.1c0.7,0.4,1.5,0.7,2.3,1c0.5,0.1,1,0.2,1.5,0.3
				c0.7,0.1,1.4,0.1,2.1,0c0.3,0,0.7-0.1,1-0.2c1-0.2,1.9-0.6,2.7-1c0.3-0.1,0.5-0.3,0.8-0.5c0.1-0.1,0.3-0.2,0.4-0.3
				c0.4-0.3,0.8-0.6,1.1-1c0.1-0.1,0.2-0.2,0.3-0.3c0.2-0.2,0.4-0.5,0.6-0.7c0.1-0.1,0.1-0.2,0.2-0.3l0.1-0.2
				c0.2-0.3,0.4-0.6,0.6-0.9c0.1-0.1,0.1-0.3,0.2-0.4c0.2-0.3,0.3-0.7,0.4-1c0.1-0.2,0.1-0.3,0.2-0.5c0.1-0.2,0.1-0.3,0.2-0.5
				c0-0.1,0.1-0.2,0.1-0.3v-0.1v-0.1l0.2-0.8c0-0.3,0.1-0.6,0.1-0.9c0-0.3,0-0.6,0-0.9h0.8c0,0.8,0.1,1.6,0.3,2.2
				c0.2,1.1,0.6,2.2,1.2,3.2c0.2,0.4,0.5,0.9,0.8,1.3c0.1,0.1,0.1,0.2,0.2,0.3c0.3,0.3,0.5,0.6,0.7,0.9l0.1,0.1
				c0.1,0.1,0.2,0.2,0.2,0.2l0.2,0.1c0.1,0.1,0.2,0.2,0.2,0.2c0.3,0.2,0.6,0.5,0.9,0.7l0.1,0.1c0.3,0.2,0.5,0.3,0.7,0.4
				c0.3,0.2,0.6,0.3,0.9,0.4l0.1,0.1c0.1,0,0.2,0.1,0.3,0.1l0.5,0.2c0.2,0.1,0.4,0.1,0.5,0.2c0.1,0,0.2,0,0.2,0.1h0.1
				c1,0.2,2,0.3,3,0.1c0.5,0,1-0.1,1.5-0.3c0.8-0.2,1.6-0.6,2.3-1c0.1-0.1,0.2-0.1,0.3-0.2l0.2-0.1c1.8-1.2,3.3-3,4.1-5.2
				c0.5-1.4,0.8-2.8,0.8-4.3c0-0.3,0-0.7,0-1v-0.1c0-0.5-0.1-1.1-0.3-1.6c-0.2-0.7-0.4-1.4-0.7-2c-0.1-0.2-0.1-0.3-0.2-0.5
				c-0.2-0.3-0.3-0.6-0.5-0.9c-0.2-0.4-0.6-0.8-1-1.3s-0.9-0.9-1.4-1.3l-0.1-0.1c-0.5-0.4-1-0.7-1.6-1c-0.3-0.2-0.6-0.3-1-0.4
				c-0.3-0.1-0.6-0.2-0.9-0.4c-0.6-0.2-1.2-0.5-1.8-0.8h-0.3L164.2,182.1z"/>
		</g>
	</g>
	<g>
		<g>
			<path class="st4" d="M49.3,193.8c0-0.2,0-0.4,0-0.6c0-0.2,0-0.4,0-0.6c0-0.3,0.1-0.5,0.1-0.8c0-0.2,0.1-0.4,0.1-0.6
				c0.8-3.5,3.2-6.6,6.3-8c0.4-0.2,0.8-0.3,1.2-0.5c0.9-0.3,1.8-0.4,2.7-0.4c2,0.1,3.9,0.9,5.5,2.2c0.8,0.7,1.6,1.5,2.2,2.4
				c0.4,0.5,0.7,1.1,0.9,1.7c0.3,0.5,0.3,0.4,0.4,1c0-0.4,0-0.7-0.1-1.1c-0.1-0.8-0.2-0.9-0.5-1.6c-0.7-1.9-1.9-3.5-3.4-4.7
				c-1-0.9-2.2-1.7-3.4-2.1l0,0c2.9-2.9,7.9-8.8,9-15.5c0.1-0.3,0.1-0.6,0.1-0.9c0,0.3,0.1,0.6,0.1,0.9c0.5,3,1.8,5.9,3.4,8.5
				c1.2,2,2.6,3.9,4.2,5.6c0.9,1,1.8,1.9,2.8,2.6c0.3,0.2,0.6,0.4,0.9,0.5l0,0c0.9,0.5,1.8,0.7,2.8,1.1c0.4,0.1,0.7,0.3,1.1,0.5
				c0.6,0.3,1.1,0.7,1.6,1.1c0,0,0.1,0,0.1,0.1c0.5,0.4,1,0.9,1.4,1.4c0.4,0.4,0.7,0.9,1,1.4c0.2,0.3,0.4,0.6,0.5,1
				c0.1,0.2,0.2,0.3,0.2,0.5c0.3,0.7,0.6,1.4,0.7,2.1c0.1,0.6,0.2,1.1,0.3,1.7v0.1c0,0.4,0.1,0.7,0.1,1.1c0,1.6-0.3,3.1-0.9,4.5
				c-0.9,2.2-2.4,4.1-4.3,5.4c-0.1,0.1-0.3,0.2-0.4,0.3c-0.8,0.4-1.6,0.8-2.4,1c-0.5,0.1-1,0.3-1.6,0.3c-0.4,0-0.7,0.1-1.1,0.1
				c-0.7,0-1.4-0.1-2-0.2c-0.1,0-0.3-0.1-0.4-0.1c-0.2-0.1-0.4-0.1-0.6-0.2c-0.2-0.1-0.3-0.1-0.5-0.2c-0.2-0.1-0.3-0.1-0.5-0.2
				c-0.3-0.1-0.6-0.3-0.9-0.4c-0.2-0.1-0.5-0.3-0.7-0.4c-0.1,0-0.1-0.1-0.2-0.1c-0.3-0.2-0.6-0.5-0.9-0.7c-0.1-0.1-0.1-0.1-0.2-0.2
				l-0.1-0.1c-0.1-0.1-0.2-0.2-0.3-0.3c-0.1-0.1-0.1-0.1-0.2-0.2c-0.3-0.3-0.5-0.6-0.8-0.9c-0.1-0.1-0.2-0.2-0.2-0.3
				c-0.3-0.4-0.6-0.9-0.9-1.3c-0.6-1-1-2.1-1.2-3.3c-0.2-0.7-0.3-1.5-0.3-2.3c0,0.3,0,0.6-0.1,1c0,0.3-0.1,0.6-0.1,0.9
				c-0.1,0.3-0.1,0.5-0.2,0.7c0,0.1,0,0.2-0.1,0.3c0,0.1-0.1,0.3-0.1,0.4c0,0.2-0.1,0.4-0.2,0.5c-0.1,0.2-0.1,0.4-0.2,0.5
				c-0.1,0.4-0.3,0.8-0.5,1.1c-0.1,0.1-0.2,0.3-0.2,0.4c-0.2,0.3-0.4,0.6-0.6,0.9c-0.1,0.1-0.2,0.3-0.3,0.4
				c-0.2,0.2-0.4,0.5-0.6,0.7c-0.1,0.1-0.2,0.2-0.3,0.3c-0.4,0.4-0.7,0.7-1.2,1c-0.1,0.1-0.3,0.2-0.4,0.3c-0.3,0.2-0.6,0.4-0.9,0.5
				c-0.9,0.5-1.8,0.9-2.9,1.1c-0.3,0.1-0.7,0.1-1,0.2l0,0c-0.4,0-0.7,0.1-1.1,0.1c-0.4,0-0.7,0-1.1-0.1c-0.5-0.1-1.1-0.2-1.6-0.3
				c-0.9-0.2-1.7-0.6-2.4-1c-0.2-0.1-0.3-0.2-0.5-0.3c-0.4-0.3-0.8-0.5-1.1-0.9c-0.1-0.1-0.2-0.1-0.2-0.2c-1.3-1.2-2.3-2.6-2.9-4.3
				C49.6,196.9,49.3,195.4,49.3,193.8z"/>
		</g>
		<g>
			<path class="st5" d="M70.7,160.9l0.4,2.8c0,0.4,0.1,0.6,0.1,0.9c0.5,2.7,1.6,5.6,3.3,8.4c1.2,2,2.6,3.8,4.2,5.5
				c0.8,0.8,1.7,1.8,2.8,2.6c0.3,0.2,0.5,0.3,0.8,0.5l0.2,0.1c0.5,0.3,1.1,0.5,1.6,0.7c0.3,0.1,0.6,0.2,0.9,0.4
				c0.4,0.1,0.8,0.3,1.1,0.5c0.6,0.3,1.2,0.7,1.7,1.1c0.1,0.1,0.1,0.1,0.1,0.1c0.5,0.4,0.9,0.8,1.4,1.4c0.4,0.5,0.8,1,1,1.4
				c0.2,0.3,0.4,0.6,0.6,1c0.1,0.2,0.2,0.4,0.2,0.5c0.3,0.7,0.6,1.4,0.7,2.2c0.1,0.5,0.2,1.1,0.3,1.7v0.1c0,0.4,0.1,0.7,0.1,1.1
				c0,1.6-0.3,3.2-0.9,4.6c-0.9,2.3-2.5,4.2-4.4,5.5l-0.2,0.1c-0.1,0.1-0.2,0.1-0.3,0.2c-0.8,0.5-1.6,0.8-2.5,1.1
				c-0.6,0.2-1.1,0.3-1.6,0.3c-0.3,0-0.7,0.1-1.1,0.1c-0.7,0-1.4-0.1-2.1-0.2H79c-0.1,0-0.2,0-0.3-0.1c-0.2,0-0.4-0.1-0.6-0.2
				l-0.5-0.2c-0.1,0-0.2-0.1-0.4-0.1l-0.1-0.1c-0.3-0.1-0.6-0.3-0.9-0.4c-0.2-0.1-0.5-0.3-0.7-0.4c-0.1-0.1-0.2-0.1-0.2-0.2
				c-0.3-0.2-0.6-0.5-0.9-0.7c-0.1-0.1-0.1-0.1-0.2-0.1l-0.2-0.2c-0.1-0.1-0.1-0.1-0.2-0.2l-0.1-0.1c-0.3-0.3-0.6-0.7-0.9-1
				c-0.1-0.1-0.2-0.2-0.2-0.3c-0.3-0.5-0.6-0.9-0.9-1.4c-0.5-0.9-0.9-1.9-1.1-2.9c0,0,0,0,0,0.1s-0.1,0.3-0.1,0.4
				c0,0.2-0.1,0.4-0.2,0.5c-0.1,0.2-0.1,0.4-0.2,0.5c-0.1,0.4-0.3,0.8-0.5,1.1c-0.1,0.1-0.2,0.3-0.2,0.4c-0.2,0.4-0.4,0.7-0.6,1
				l-0.1,0.2c-0.1,0.1-0.1,0.2-0.2,0.3c-0.2,0.2-0.4,0.5-0.6,0.7c-0.1,0.1-0.2,0.2-0.3,0.3c-0.4,0.4-0.8,0.8-1.2,1.1
				c-0.1,0.1-0.3,0.2-0.4,0.3c-0.3,0.2-0.6,0.4-0.9,0.6c-0.9,0.5-1.9,0.9-3,1.1c-0.3,0.1-0.7,0.1-1,0.2c-0.7,0.1-1.7,0.1-2.3,0
				s-1.1-0.2-1.6-0.3c-0.9-0.2-1.7-0.6-2.5-1.1l-0.1-0.1c-0.1-0.1-0.2-0.1-0.3-0.2c-0.5-0.3-0.8-0.6-1.2-0.9c-0.1,0-0.2-0.1-0.2-0.2
				c-1.3-1.2-2.4-2.7-3-4.4c-0.6-1.5-0.9-3-0.9-4.6c0-0.2,0-0.4,0-0.6c0-0.2,0-0.4,0-0.6c0-0.3,0.1-0.5,0.1-0.8
				c0-0.2,0.1-0.4,0.1-0.7c0.8-3.6,3.3-6.8,6.5-8.3c0.4-0.2,0.8-0.3,1.2-0.5c1-0.3,1.9-0.4,2.9-0.4c2,0.1,4,0.9,5.7,2.3
				c0.8,0.7,1.6,1.5,2.3,2.5c-0.7-1.6-1.7-3.1-3.1-4.2c-1-0.9-2.1-1.6-3.3-2.1l-0.5-0.2l0.4-0.4c2.9-2.9,7.8-8.7,8.9-15.3
				c0-0.3,0.1-0.6,0.1-0.9L70.7,160.9z M81.8,182.1c-0.3-0.1-0.5-0.3-0.7-0.5c-1.2-0.8-2.2-1.9-2.9-2.7c-1.6-1.8-3-3.6-4.3-5.6
				c-1.5-2.5-2.6-5-3.2-7.5c-1.4,6-5.7,11.2-8.5,14.1c1.1,0.5,2.1,1.1,3,2c1.5,1.3,2.7,3,3.5,4.9l0.1,0.3c0.2,0.5,0.3,0.7,0.4,1.3
				c0.1,0.3,0.1,0.6,0.1,0.9v0.3l0.2,3.5l-0.9-3.4c-0.1-0.4-0.1-0.4-0.2-0.6c0-0.1-0.1-0.2-0.2-0.3c-0.2-0.6-0.5-1.1-0.9-1.6
				c-0.6-0.9-1.3-1.7-2.1-2.3c-1.6-1.3-3.5-2.1-5.3-2.1c-0.9,0-1.7,0.1-2.6,0.4c-0.4,0.1-0.8,0.3-1.1,0.5c-3,1.4-5.3,4.4-6.1,7.8
				c0,0.2-0.1,0.4-0.1,0.6c0,0.3-0.1,0.5-0.1,0.8c0,0.2,0,0.4,0,0.5c0,0.2,0,0.4,0,0.5c0,1.5,0.3,3,0.8,4.3c0.6,1.6,1.6,3.1,2.8,4.2
				c0.1,0.1,0.1,0.1,0.2,0.2c0.4,0.3,0.7,0.6,1.1,0.8c0.1,0,0.2,0.1,0.3,0.2l0.1,0.1c0.7,0.4,1.5,0.7,2.3,1c0.5,0.1,1,0.2,1.5,0.3
				c0.7,0.1,1.4,0.1,2.1,0c0.3,0,0.7-0.1,1-0.2c1-0.2,1.9-0.6,2.7-1c0.3-0.1,0.5-0.3,0.8-0.5c0.1-0.1,0.3-0.2,0.4-0.3
				c0.4-0.3,0.8-0.6,1.1-1c0.1-0.1,0.2-0.2,0.3-0.3c0.2-0.2,0.4-0.5,0.6-0.7c0.1-0.1,0.1-0.2,0.2-0.3l0.1-0.2
				c0.2-0.3,0.4-0.6,0.6-0.9c0.1-0.1,0.1-0.3,0.2-0.4c0.2-0.3,0.3-0.7,0.4-1c0.1-0.2,0.1-0.3,0.2-0.5s0.1-0.3,0.2-0.5
				c0-0.1,0.1-0.2,0.1-0.3v-0.1v-0.1l0.2-0.8c0-0.3,0.1-0.6,0.1-0.9c0-0.3,0-0.6,0-0.9h0.8c0,0.8,0.1,1.6,0.3,2.2
				c0.2,1.1,0.6,2.2,1.2,3.2c0.2,0.4,0.5,0.9,0.8,1.3c0.1,0.1,0.1,0.2,0.2,0.3c0.3,0.3,0.5,0.6,0.7,0.9l0.1,0.1
				c0.1,0.1,0.2,0.2,0.2,0.2l0.2,0.1c0.1,0.1,0.2,0.2,0.2,0.2c0.3,0.2,0.6,0.5,0.9,0.7l0.1,0.1c0.3,0.2,0.5,0.3,0.7,0.4
				c0.3,0.2,0.6,0.3,0.9,0.4l0.1,0.1c0.1,0,0.2,0.1,0.3,0.1l0.5,0.2c0.2,0.1,0.4,0.1,0.5,0.2c0.1,0,0.2,0,0.2,0.1h0.1
				c1,0.2,2,0.3,3,0.1c0.5,0,1-0.1,1.5-0.3c0.8-0.2,1.6-0.6,2.3-1c0.1-0.1,0.2-0.1,0.3-0.2l0.2-0.1c1.8-1.2,3.3-3,4.1-5.2
				c0.5-1.4,0.8-2.8,0.8-4.3c0-0.3,0-0.7,0-1v-0.1c0-0.5-0.1-1.1-0.3-1.6c-0.2-0.7-0.4-1.4-0.7-2c-0.1-0.2-0.1-0.3-0.2-0.5
				c-0.2-0.3-0.3-0.6-0.5-0.9c-0.2-0.4-0.6-0.8-1-1.3s-0.9-0.9-1.4-1.3l-0.1-0.1c-0.5-0.4-1-0.7-1.6-1c-0.3-0.2-0.6-0.3-1-0.4
				c-0.3-0.1-0.6-0.2-0.9-0.4c-0.6-0.2-1.2-0.5-1.8-0.8h-0.3L81.8,182.1z"/>
		</g>
	</g>
	<g>
		<g>
			<path class="st4" d="M132.8,216.8c0,0.2,0,0.4,0,0.6c0,0.2,0,0.4,0,0.5c0,0.3-0.1,0.5-0.1,0.8c0,0.2-0.1,0.4-0.1,0.6
				c-0.8,3.5-3.1,6.6-6.3,8c-0.4,0.2-0.8,0.3-1.2,0.5c-0.9,0.3-1.8,0.4-2.7,0.4c-2-0.1-3.9-0.9-5.5-2.2c-0.8-0.7-1.6-1.5-2.2-2.4
				c-0.3-0.5-0.7-1.1-0.9-1.7c-0.3-0.5-0.3-0.4-0.4-1c0,0.4,0,0.7,0.1,1.1c0.1,0.8,0.2,0.9,0.5,1.6c0.7,1.9,1.9,3.5,3.3,4.7
				c1,0.9,2.1,1.7,3.4,2.1l0,0c-2.8,2.9-7.9,8.8-9,15.4c0,0.3-0.1,0.6-0.1,0.9c0-0.3-0.1-0.6-0.1-0.9c-0.5-3-1.8-5.9-3.4-8.4
				c-1.2-2-2.6-3.8-4.2-5.6c-0.9-0.9-1.8-1.9-2.8-2.6c-0.3-0.2-0.6-0.4-0.9-0.5l0,0c-0.9-0.5-1.8-0.7-2.8-1.1
				c-0.4-0.1-0.7-0.3-1.1-0.5c-0.6-0.3-1.1-0.7-1.6-1.1c0,0,0,0-0.1-0.1c-0.5-0.4-1-0.9-1.4-1.4c-0.4-0.4-0.7-0.9-1-1.4
				c-0.2-0.3-0.4-0.6-0.5-0.9c-0.1-0.2-0.2-0.3-0.2-0.5c-0.3-0.7-0.5-1.4-0.7-2.1c-0.1-0.5-0.2-1.1-0.3-1.7v-0.1c0-0.3,0-0.7,0-1.1
				c0-1.6,0.3-3.1,0.8-4.4c0.9-2.2,2.4-4.1,4.3-5.3c0.1-0.1,0.3-0.2,0.4-0.3c0.7-0.4,1.6-0.8,2.4-1c0.5-0.1,1-0.2,1.6-0.3
				c0.4,0,0.7-0.1,1.1-0.1c0.7,0,1.4,0.1,2,0.2c0.1,0,0.3,0,0.4,0.1c0.2,0,0.4,0.1,0.6,0.2c0.2,0,0.3,0.1,0.5,0.2
				c0.2,0,0.3,0.1,0.5,0.2c0.3,0.1,0.6,0.3,0.9,0.4c0.2,0.1,0.5,0.3,0.7,0.4c0.1,0,0.1,0.1,0.2,0.1c0.3,0.2,0.6,0.5,0.9,0.7
				c0.1,0.1,0.1,0.1,0.2,0.1c0,0,0,0,0.1,0.1s0.2,0.2,0.3,0.3c0.1,0.1,0.1,0.1,0.2,0.2c0.3,0.3,0.5,0.6,0.8,0.9
				c0.1,0.1,0.2,0.2,0.2,0.3c0.3,0.4,0.6,0.9,0.9,1.3c0.6,1,1,2.1,1.2,3.3c0.2,0.7,0.2,1.5,0.3,2.3c0-0.3,0-0.6,0-1
				c0-0.3,0.1-0.6,0.1-0.9c0-0.2,0.1-0.5,0.1-0.7c0-0.1,0-0.2,0.1-0.2c0-0.1,0-0.2,0.1-0.4c0-0.2,0.1-0.3,0.2-0.5s0.1-0.4,0.2-0.5
				c0.1-0.4,0.3-0.7,0.5-1.1c0.1-0.1,0.1-0.3,0.2-0.4c0.2-0.3,0.4-0.6,0.6-0.9c0.1-0.1,0.2-0.3,0.3-0.4c0.2-0.2,0.4-0.5,0.6-0.7
				c0.1-0.1,0.2-0.2,0.3-0.3c0.4-0.4,0.7-0.7,1.1-1c0.1-0.1,0.3-0.2,0.4-0.3c0.3-0.2,0.6-0.4,0.9-0.5c0.9-0.5,1.8-0.9,2.8-1.1
				c0.3-0.1,0.7-0.1,1-0.2l0,0c0.3,0,0.7-0.1,1.1-0.1s0.7,0,1.1,0.1c0.5,0,1.1,0.1,1.6,0.3c0.8,0.2,1.6,0.6,2.4,1
				c0.2,0.1,0.3,0.2,0.5,0.3c0.4,0.3,0.8,0.5,1.1,0.9c0.1,0.1,0.1,0.1,0.2,0.2c1.3,1.1,2.3,2.6,2.9,4.3
				C132.5,213.7,132.8,215.2,132.8,216.8z"/>
		</g>
		<g>
			<path class="st5" d="M111.6,249.5l-0.4-2.8c0-0.4-0.1-0.6-0.1-0.9c-0.5-2.7-1.6-5.5-3.3-8.3c-1.2-2-2.6-3.8-4.2-5.5
				c-0.8-0.8-1.7-1.8-2.8-2.6c-0.3-0.2-0.5-0.3-0.8-0.5l-0.2-0.1c-0.5-0.3-1-0.4-1.6-0.7c-0.3-0.1-0.6-0.2-0.9-0.4
				c-0.4-0.1-0.8-0.3-1.1-0.5c-0.6-0.3-1.1-0.7-1.7-1.1c-0.1-0.1-0.1-0.1-0.1-0.1c-0.5-0.3-0.9-0.8-1.4-1.3c-0.4-0.5-0.8-1-1-1.4
				c-0.2-0.3-0.4-0.6-0.5-1c-0.1-0.2-0.2-0.4-0.2-0.5c-0.3-0.7-0.6-1.4-0.7-2.2c-0.1-0.5-0.2-1.1-0.3-1.7v-0.1
				c0-0.4-0.1-0.7-0.1-1.1c0-1.6,0.3-3.1,0.9-4.6c0.9-2.3,2.4-4.2,4.4-5.5l0.2-0.1c0.1-0.1,0.2-0.1,0.3-0.2c0.8-0.5,1.6-0.8,2.5-1.1
				c0.6-0.2,1.1-0.3,1.6-0.3c0.3,0,0.7-0.1,1.1-0.1c0.7,0,1.4,0.1,2.1,0.2h0.1c0.1,0,0.2,0,0.3,0.1c0.2,0,0.4,0.1,0.6,0.2l0.5,0.2
				c0.1,0,0.2,0.1,0.4,0.1l0.1,0.1c0.3,0.1,0.6,0.3,0.9,0.4c0.2,0.1,0.5,0.3,0.7,0.4c0.1,0.1,0.2,0.1,0.2,0.2
				c0.3,0.2,0.6,0.5,0.9,0.7c0.1,0.1,0.1,0.1,0.2,0.1l0.2,0.2c0.1,0.1,0.1,0.1,0.2,0.2l0.1,0.1c0.3,0.3,0.6,0.6,0.8,1
				c0.1,0.1,0.2,0.2,0.2,0.3c0.3,0.5,0.6,0.9,0.9,1.4c0.5,0.9,0.9,1.9,1.1,2.9c0,0,0,0,0-0.1s0.1-0.3,0.1-0.4c0-0.2,0.1-0.4,0.2-0.5
				c0.1-0.2,0.1-0.4,0.2-0.5c0.1-0.4,0.3-0.8,0.5-1.1c0.1-0.1,0.1-0.3,0.2-0.4c0.2-0.4,0.4-0.7,0.6-1l0.1-0.2
				c0.1-0.1,0.1-0.2,0.2-0.3c0.2-0.2,0.4-0.5,0.6-0.7c0.1-0.1,0.2-0.2,0.3-0.3c0.4-0.4,0.8-0.8,1.2-1.1c0.1-0.1,0.3-0.2,0.4-0.3
				c0.3-0.2,0.6-0.4,0.9-0.6c0.9-0.5,1.9-0.9,2.9-1.1c0.3-0.1,0.7-0.1,1-0.2c0.7-0.1,1.7-0.1,2.3,0c0.6,0.1,1.1,0.2,1.6,0.3
				c0.9,0.2,1.7,0.6,2.5,1.1l0.1,0.1c0.1,0.1,0.2,0.1,0.3,0.2c0.5,0.3,0.8,0.6,1.2,0.9c0.1,0,0.2,0.1,0.2,0.2c1.3,1.2,2.3,2.7,3,4.4
				c0.6,1.5,0.9,3,0.9,4.6c0,0.2,0,0.4,0,0.6c0,0.2,0,0.4,0,0.5c0,0.3-0.1,0.5-0.1,0.8c0,0.2-0.1,0.4-0.1,0.7
				c-0.8,3.6-3.3,6.8-6.5,8.3c-0.4,0.2-0.8,0.3-1.2,0.5c-1,0.3-1.9,0.4-2.9,0.4c-2-0.1-4-0.9-5.7-2.3c-0.8-0.7-1.6-1.5-2.2-2.5
				c0.7,1.6,1.7,3,3.1,4.2c1,0.9,2.1,1.6,3.3,2.1l0.5,0.2l-0.4,0.4c-2.8,2.9-7.8,8.7-8.9,15.2c0,0.3-0.1,0.6-0.1,0.9L111.6,249.5z
				 M100.5,228.4c0.3,0.1,0.5,0.3,0.7,0.5c1.2,0.8,2.1,1.9,2.9,2.7c1.6,1.8,3,3.6,4.2,5.6c1.5,2.5,2.6,5,3.2,7.4
				c1.4-6,5.7-11.2,8.5-14c-1.1-0.5-2.1-1.1-3-2c-1.5-1.3-2.7-2.9-3.4-4.8l-0.1-0.3c-0.2-0.5-0.3-0.7-0.4-1.3
				c-0.1-0.3-0.1-0.6-0.1-0.9V221l-0.2-3.5l0.9,3.4c0.1,0.4,0.1,0.4,0.2,0.6c0,0.1,0.1,0.2,0.2,0.3c0.2,0.5,0.5,1.1,0.9,1.6
				c0.6,0.9,1.3,1.7,2.1,2.3c1.6,1.3,3.4,2.1,5.3,2.1c0.9,0,1.7-0.1,2.6-0.4c0.4-0.1,0.8-0.3,1.1-0.5c3-1.4,5.3-4.4,6.1-7.7
				c0-0.2,0.1-0.4,0.1-0.6c0-0.3,0.1-0.5,0.1-0.8c0-0.2,0-0.4,0-0.5c0-0.2,0-0.4,0-0.5c0-1.5-0.3-2.9-0.8-4.3
				c-0.6-1.6-1.6-3-2.8-4.2c-0.1-0.1-0.1-0.1-0.2-0.2c-0.4-0.3-0.7-0.6-1.1-0.8c-0.1,0-0.2-0.1-0.3-0.2l-0.1-0.1
				c-0.7-0.4-1.5-0.7-2.3-1c-0.5-0.1-1-0.2-1.5-0.3c-0.7-0.1-1.4-0.1-2.1,0c-0.3,0-0.7,0.1-1,0.2c-1,0.2-1.9,0.5-2.7,1
				c-0.3,0.1-0.5,0.3-0.8,0.5c-0.1,0.1-0.3,0.2-0.4,0.3c-0.4,0.3-0.7,0.6-1.1,1c-0.1,0.1-0.2,0.2-0.3,0.3c-0.2,0.2-0.4,0.5-0.6,0.7
				c-0.1,0.1-0.1,0.2-0.2,0.3l-0.1,0.2c-0.2,0.3-0.4,0.6-0.6,0.9c-0.1,0.1-0.1,0.3-0.2,0.4c-0.2,0.3-0.3,0.7-0.4,1
				c-0.1,0.2-0.1,0.3-0.2,0.5s-0.1,0.3-0.2,0.5c0,0.1-0.1,0.2-0.1,0.3v0.1v0.1l-0.2,0.8c0,0.3-0.1,0.6-0.1,0.8c0,0.3,0,0.6,0,0.9
				h-0.7c0-0.8-0.1-1.6-0.3-2.2c-0.2-1.1-0.6-2.2-1.2-3.2c-0.2-0.4-0.5-0.8-0.8-1.3c-0.1-0.1-0.1-0.2-0.2-0.3
				c-0.3-0.3-0.5-0.6-0.7-0.9l-0.1-0.1c-0.1-0.1-0.2-0.2-0.2-0.2l-0.2-0.1c-0.1-0.1-0.2-0.2-0.2-0.2c-0.3-0.2-0.6-0.5-0.9-0.7
				l-0.1-0.1c-0.3-0.2-0.5-0.3-0.7-0.4c-0.3-0.2-0.6-0.3-0.9-0.4l-0.1-0.1c-0.1,0-0.2-0.1-0.3-0.1l-0.5-0.2
				c-0.2-0.1-0.4-0.1-0.5-0.2c-0.1,0-0.2,0-0.2-0.1h-0.1c-1-0.2-2-0.2-3-0.1c-0.5,0-0.9,0.1-1.5,0.3c-0.8,0.2-1.6,0.6-2.3,1
				c-0.1,0.1-0.2,0.1-0.3,0.2l-0.2,0.1c-1.8,1.2-3.3,3-4.1,5.1c-0.5,1.4-0.8,2.8-0.8,4.3c0,0.3,0,0.7,0,1v0.1c0,0.5,0.1,1.1,0.3,1.6
				c0.2,0.7,0.4,1.4,0.7,2c0.1,0.2,0.1,0.3,0.2,0.5c0.2,0.3,0.3,0.6,0.5,0.9c0.2,0.4,0.5,0.8,1,1.3c0.4,0.5,0.9,0.9,1.3,1.3l0.1,0.1
				c0.5,0.4,1,0.7,1.6,1c0.3,0.2,0.6,0.3,1,0.4c0.3,0.1,0.6,0.2,0.9,0.4c0.6,0.2,1.2,0.4,1.8,0.7h0.3L100.5,228.4z"/>
		</g>
	</g>
	<g>
		<g>
			<path class="st4" d="M37.7,39.6c0,0.1,0,0.3,0,0.4c0,0.1,0,0.3,0,0.4c0,0.2,0,0.4-0.1,0.6c0,0.2-0.1,0.3-0.1,0.5
				c-0.6,2.6-2.3,4.9-4.7,5.9c-0.3,0.1-0.6,0.3-0.9,0.4c-0.7,0.2-1.3,0.3-2,0.3c-1.5,0-2.9-0.7-4.1-1.6c-0.6-0.5-1.2-1.1-1.6-1.8
				c-0.3-0.4-0.5-0.8-0.7-1.2s-0.2-0.3-0.3-0.8c0,0.3,0,0.6,0.1,0.8c0.1,0.6,0.2,0.6,0.3,1.2c0.5,1.4,1.4,2.6,2.5,3.5
				c0.7,0.7,1.6,1.2,2.5,1.6l0,0c-2.1,2.1-5.8,6.5-6.7,11.4c0,0.2-0.1,0.4-0.1,0.7c0-0.2-0.1-0.5-0.1-0.7c-0.4-2.2-1.3-4.4-2.5-6.3
				c-0.9-1.5-2-2.8-3.1-4.1c-0.6-0.7-1.3-1.4-2.1-1.9c-0.2-0.2-0.4-0.3-0.7-0.4l0,0c-0.7-0.3-1.3-0.5-2.1-0.8
				c-0.3-0.1-0.5-0.2-0.8-0.3c-0.4-0.2-0.8-0.5-1.2-0.8c0,0,0,0-0.1-0.1c-0.4-0.3-0.7-0.6-1-1c-0.3-0.3-0.5-0.7-0.7-1
				C7.3,44.3,7.1,44,7,43.8c-0.1-0.1-0.1-0.2-0.2-0.4c-0.2-0.5-0.4-1-0.5-1.6c-0.1-0.4-0.2-0.8-0.2-1.3c0,0,0,0,0-0.1
				c0-0.3,0-0.5,0-0.8c0-1.2,0.2-2.3,0.6-3.3c0.6-1.7,1.8-3,3.2-4c0.1-0.1,0.2-0.1,0.3-0.2c0.6-0.3,1.2-0.6,1.8-0.8
				c0.4-0.1,0.8-0.2,1.2-0.2c0.3,0,0.5-0.1,0.8-0.1c0.5,0,1,0.1,1.5,0.2c0.1,0,0.2,0,0.3,0.1c0.1,0,0.3,0.1,0.4,0.1s0.2,0.1,0.3,0.1
				c0.1,0,0.2,0.1,0.3,0.1c0.2,0.1,0.4,0.2,0.7,0.3c0.2,0.1,0.4,0.2,0.5,0.3l0.1,0.1c0.2,0.2,0.5,0.3,0.7,0.5l0.1,0.1
				c0,0,0,0,0.1,0.1s0.2,0.1,0.2,0.2l0.1,0.1c0.2,0.2,0.4,0.4,0.6,0.7c0.1,0.1,0.1,0.1,0.2,0.2c0.2,0.3,0.4,0.6,0.6,1
				c0.4,0.7,0.7,1.6,0.9,2.4c0.1,0.5,0.2,1.1,0.2,1.7c0-0.2,0-0.5,0-0.7s0.1-0.4,0.1-0.7c0-0.2,0.1-0.4,0.1-0.5s0-0.1,0-0.2
				c0-0.1,0-0.2,0.1-0.3c0-0.1,0.1-0.3,0.1-0.4c0-0.1,0.1-0.3,0.1-0.4c0.1-0.3,0.2-0.6,0.4-0.8c0.1-0.1,0.1-0.2,0.2-0.3
				c0.1-0.2,0.3-0.5,0.4-0.7c0.1-0.1,0.1-0.2,0.2-0.3c0.1-0.2,0.3-0.4,0.4-0.5s0.1-0.1,0.2-0.2c0.3-0.3,0.5-0.5,0.9-0.7
				c0.1-0.1,0.2-0.2,0.3-0.2c0.2-0.1,0.4-0.3,0.6-0.4c0.7-0.4,1.4-0.7,2.1-0.8c0.2,0,0.5-0.1,0.7-0.1l0,0c0.3,0,0.5-0.1,0.8-0.1
				s0.5,0,0.8,0.1c0.4,0,0.8,0.1,1.2,0.2c0.6,0.2,1.2,0.4,1.8,0.8c0.1,0.1,0.2,0.1,0.3,0.2c0.3,0.2,0.6,0.4,0.8,0.6
				c0.1,0,0.1,0.1,0.2,0.1c0.9,0.9,1.7,1.9,2.2,3.2C37.5,37.3,37.7,38.4,37.7,39.6z"/>
		</g>
		<g>
			<path class="st5" d="M21.9,63.9l-0.3-2.1c0-0.3-0.1-0.5-0.1-0.7c-0.3-2-1.2-4.1-2.5-6.2c-0.9-1.5-1.9-2.8-3.1-4.1
				c-0.6-0.6-1.2-1.3-2.1-1.9c-0.2-0.1-0.4-0.3-0.6-0.4L13,48.4c-0.4-0.2-0.8-0.3-1.2-0.5c-0.2-0.1-0.5-0.2-0.7-0.3
				c-0.3-0.1-0.6-0.2-0.8-0.4c-0.4-0.2-0.9-0.5-1.2-0.8L9,46.3c-0.3-0.3-0.7-0.6-1-1s-0.6-0.7-0.8-1.1c-0.1-0.2-0.3-0.5-0.4-0.7
				c-0.1-0.1-0.1-0.3-0.2-0.4c-0.2-0.5-0.4-1-0.5-1.6c0-0.2-0.1-0.6-0.1-1.1v-0.1c0-0.3,0-0.5,0-0.8c0-1.2,0.2-2.3,0.6-3.4
				C7.3,34.4,8.4,33,9.9,32l0.1,0c0.1,0,0.1-0.1,0.2-0.1c0.6-0.3,1.2-0.6,1.9-0.8c0.4-0.1,0.8-0.2,1.2-0.2c0.2,0,0.5-0.1,0.8-0.1
				c0.5,0,1,0.1,1.6,0.2h0.1c0.1,0,0.1,0,0.2,0.1c0.1,0,0.3,0.1,0.4,0.1l0.3,0.1c0.1,0,0.2,0.1,0.3,0.1h0.1c0.2,0.1,0.5,0.2,0.7,0.3
				c0.2,0.1,0.4,0.2,0.5,0.3s0.1,0.1,0.2,0.1c0.2,0.2,0.5,0.3,0.7,0.5c0.1,0.1,0.1,0.1,0.1,0.1l0.2,0.1c0.1,0,0.1,0.1,0.2,0.1
				l0.1,0.1c0.3,0.3,0.4,0.5,0.6,0.7c0.1,0.1,0.1,0.1,0.2,0.2c0.3,0.3,0.5,0.7,0.7,1c0.4,0.7,0.7,1.4,0.8,2.1c0,0,0,0,0-0.1
				s0-0.2,0.1-0.3c0-0.1,0.1-0.3,0.1-0.4c0-0.1,0.1-0.3,0.1-0.4c0.1-0.3,0.2-0.6,0.4-0.8c0.1-0.1,0.1-0.2,0.2-0.3
				c0.1-0.3,0.3-0.5,0.5-0.7l0.1-0.1c0.1-0.1,0.1-0.1,0.2-0.2c0.1-0.2,0.3-0.4,0.5-0.5c0.1-0.1,0.1-0.1,0.2-0.2
				c0.3-0.3,0.6-0.6,0.9-0.8c0.1-0.1,0.2-0.2,0.3-0.2c0.2-0.2,0.4-0.3,0.7-0.4c0.7-0.4,1.4-0.7,2.2-0.8c0.2,0,0.5-0.1,0.8-0.1
				c0.5-0.1,1.2,0,1.7,0c0.4,0,0.8,0.1,1.2,0.2c0.6,0.2,1.3,0.4,1.8,0.8l0.1,0.1C33.9,32,34,32,34.1,32c0.3,0.2,0.6,0.4,0.9,0.7
				c0.1,0,0.1,0.1,0.2,0.2c1,0.9,1.7,2,2.2,3.3c0.4,1.1,0.6,2.2,0.6,3.4c0,0.1,0,0.3,0,0.4c0,0.1,0,0.3,0,0.4c0,0.2,0,0.4-0.1,0.6
				c0,0.2-0.1,0.3-0.1,0.5c-0.6,2.7-2.4,5-4.8,6.1c-0.3,0.1-0.6,0.3-0.9,0.4c-0.7,0.2-1.4,0.3-2.1,0.3c-1.5,0-3-0.6-4.2-1.7
				c-0.6-0.5-1.2-1.1-1.7-1.8c0.5,1.2,1.3,2.3,2.3,3.1c0.8,0.7,1.6,1.2,2.4,1.5l0.4,0.2l-0.3,0.3c-2.1,2.1-5.8,6.4-6.6,11.3
				c0,0.2-0.1,0.4-0.1,0.6L21.9,63.9z M13.7,48.2c0.2,0.1,0.4,0.2,0.5,0.3c0.9,0.6,1.6,1.4,2.1,2c1.2,1.3,2.2,2.7,3.2,4.2
				c1.1,1.8,1.9,3.7,2.4,5.5c1.1-4.4,4.2-8.3,6.3-10.4c-0.8-0.3-1.5-0.8-2.2-1.5c-1.1-0.9-2-2.2-2.6-3.6l-0.1-0.2
				c-0.1-0.3-0.2-0.5-0.3-1c0-0.2,0-0.4-0.1-0.6v-0.2V40l0.7,2.5c0.1,0.3,0.1,0.3,0.2,0.5c0,0.1,0.1,0.1,0.1,0.2
				c0.2,0.4,0.4,0.8,0.7,1.2c0.5,0.7,1,1.3,1.6,1.7c1.2,1,2.6,1.5,3.9,1.6c0.6,0,1.3-0.1,1.9-0.3c0.3-0.1,0.6-0.2,0.8-0.4
				c2.2-1,3.9-3.2,4.5-5.8c0-0.2,0.1-0.3,0.1-0.4c0-0.2,0.1-0.4,0.1-0.6c0-0.1,0-0.3,0-0.4c0-0.1,0-0.3,0-0.4c0-1.1-0.2-2.2-0.6-3.2
				c-0.5-1.2-1.2-2.3-2.1-3.1C34.7,33,34.7,33,34.7,33c-0.3-0.2-0.5-0.4-0.8-0.6c-0.1,0-0.2-0.1-0.3-0.2h-0.1
				c-0.5-0.3-1.1-0.6-1.7-0.7c-0.4-0.1-0.7-0.2-1.1-0.2c-0.5-0.1-1-0.1-1.5,0c-0.3,0-0.5,0.1-0.7,0.1c-0.7,0.1-1.4,0.4-2,0.8
				c-0.2,0.1-0.4,0.2-0.6,0.4c-0.1,0.1-0.2,0.1-0.3,0.2c-0.3,0.2-0.6,0.5-0.8,0.7c-0.1,0.1-0.1,0.1-0.2,0.2
				c-0.1,0.2-0.3,0.3-0.4,0.5c0,0.1-0.1,0.1-0.1,0.2L24,34.5c-0.1,0.2-0.3,0.4-0.4,0.7c-0.1,0.1-0.1,0.2-0.2,0.3
				c-0.1,0.2-0.2,0.5-0.3,0.8C23,36.4,23,36.6,23,36.7c-0.1,0.1-0.1,0.2-0.1,0.4c0,0.1-0.1,0.2-0.1,0.3v0.1c0,0,0,0,0,0.1l-0.1,0.6
				c0,0.2-0.1,0.4-0.1,0.6c0,0.2,0,0.5,0,0.7H22c0-0.6-0.1-1.2-0.2-1.6c-0.2-0.8-0.5-1.6-0.9-2.4c-0.2-0.3-0.4-0.6-0.6-1
				c0-0.1-0.1-0.1-0.2-0.2c-0.2-0.2-0.4-0.5-0.6-0.6l-0.1-0.1c-0.1-0.1-0.1-0.1-0.2-0.2L19,33.3c-0.1-0.1-0.1-0.1-0.2-0.2
				c-0.2-0.2-0.4-0.3-0.7-0.5c0,0-0.1,0-0.1-0.1c-0.2-0.1-0.4-0.2-0.5-0.3c-0.2-0.1-0.4-0.2-0.6-0.3h-0.1c-0.1,0-0.1-0.1-0.2-0.1
				l-0.3-0.1c-0.1,0-0.3-0.1-0.4-0.1c-0.1,0-0.1,0-0.2,0h-0.1c-0.8-0.2-1.5-0.2-2.2-0.1c-0.4,0-0.7,0.1-1.1,0.2
				c-0.6,0.2-1.2,0.4-1.7,0.7c-0.1,0-0.1,0.1-0.2,0.1l-0.1,0.1c-1.4,0.9-2.4,2.2-3.1,3.8c-0.4,1-0.6,2.1-0.6,3.2c0,0.3,0,0.5,0,0.8
				v0.1c0,0.4,0.1,0.8,0.2,1.2c0.1,0.5,0.3,1,0.5,1.5c0.1,0.1,0.1,0.3,0.2,0.4c0.1,0.2,0.3,0.5,0.4,0.7c0.2,0.3,0.4,0.6,0.7,1
				s0.6,0.7,1,1l0.1,0.1c0.4,0.3,0.8,0.6,1.2,0.8c0.2,0.1,0.5,0.2,0.8,0.3c0.2,0.1,0.5,0.2,0.7,0.3c0.5,0.2,0.9,0.3,1.3,0.6h0.2
				L13.7,48.2z"/>
		</g>
	</g>
	<g>
		<g>
			<path class="st4" d="M186,274.8c0-0.1,0-0.3,0-0.4s0-0.3,0-0.4c0-0.2,0-0.4,0.1-0.6c0-0.2,0.1-0.3,0.1-0.5
				c0.6-2.6,2.3-4.8,4.6-5.9c0.3-0.1,0.6-0.2,0.9-0.4c0.6-0.2,1.3-0.3,2-0.3c1.5,0,2.9,0.6,4,1.6c0.6,0.5,1.2,1.1,1.6,1.8
				c0.3,0.4,0.5,0.8,0.7,1.2c0.2,0.4,0.2,0.3,0.3,0.8c0-0.3,0-0.5-0.1-0.8c-0.1-0.6-0.2-0.6-0.3-1.1c-0.5-1.4-1.4-2.6-2.4-3.4
				c-0.7-0.7-1.6-1.2-2.5-1.6l0,0c2.1-2.1,5.8-6.4,6.6-11.3c0-0.2,0.1-0.4,0.1-0.6c0,0.2,0.1,0.4,0.1,0.7c0.4,2.2,1.3,4.3,2.5,6.2
				c0.9,1.5,1.9,2.8,3.1,4.1c0.6,0.7,1.3,1.4,2.1,1.9c0.2,0.2,0.4,0.3,0.6,0.4l0,0c0.6,0.3,1.3,0.5,2,0.8c0.3,0.1,0.5,0.2,0.8,0.3
				c0.4,0.2,0.8,0.5,1.2,0.8c0,0,0,0,0.1,0.1c0.4,0.3,0.7,0.6,1,1c0.3,0.3,0.5,0.6,0.7,1c0.1,0.2,0.3,0.5,0.4,0.7
				c0.1,0.1,0.1,0.2,0.2,0.4c0.2,0.5,0.4,1,0.5,1.5c0.1,0.4,0.2,0.8,0.2,1.2c0,0,0,0,0,0.1c0,0.3,0,0.5,0,0.8c0,1.2-0.2,2.3-0.6,3.3
				c-0.6,1.6-1.7,3-3.1,3.9c-0.1,0.1-0.2,0.1-0.3,0.2c-0.5,0.3-1.1,0.6-1.8,0.7c-0.4,0.1-0.8,0.2-1.1,0.2s-0.5,0.1-0.8,0.1
				c-0.5,0-1-0.1-1.5-0.2c-0.1,0-0.2,0-0.3-0.1c-0.1,0-0.3-0.1-0.4-0.1c-0.1,0-0.2-0.1-0.3-0.1s-0.2-0.1-0.3-0.1
				c-0.2-0.1-0.4-0.2-0.6-0.3c-0.2-0.1-0.4-0.2-0.5-0.3l-0.1-0.1c-0.2-0.2-0.5-0.3-0.7-0.5l-0.1-0.1c0,0,0,0-0.1-0.1
				s-0.2-0.1-0.2-0.2l-0.1-0.1c-0.2-0.2-0.4-0.4-0.6-0.6c-0.1-0.1-0.1-0.1-0.2-0.2c-0.2-0.3-0.4-0.6-0.6-1c-0.4-0.7-0.7-1.5-0.9-2.4
				c-0.1-0.5-0.2-1.1-0.2-1.7c0,0.2,0,0.5,0,0.7s-0.1,0.4-0.1,0.6s-0.1,0.4-0.1,0.5s0,0.1,0,0.2s0,0.2-0.1,0.3
				c0,0.1-0.1,0.3-0.1,0.4s-0.1,0.3-0.1,0.4c-0.1,0.3-0.2,0.5-0.4,0.8c-0.1,0.1-0.1,0.2-0.2,0.3c-0.1,0.2-0.3,0.5-0.4,0.7
				c-0.1,0.1-0.1,0.2-0.2,0.3c-0.1,0.2-0.3,0.4-0.4,0.5c-0.1,0.1-0.1,0.1-0.2,0.2c-0.3,0.3-0.5,0.5-0.8,0.7
				c-0.1,0.1-0.2,0.2-0.3,0.2c-0.2,0.1-0.4,0.3-0.6,0.4c-0.6,0.4-1.3,0.6-2.1,0.8c-0.2,0-0.5,0.1-0.7,0.1l0,0
				c-0.3,0-0.5,0.1-0.8,0.1s-0.5,0-0.8-0.1c-0.4,0-0.8-0.1-1.2-0.2c-0.6-0.2-1.2-0.4-1.8-0.7c-0.1-0.1-0.2-0.1-0.3-0.2
				c-0.3-0.2-0.6-0.4-0.8-0.6c-0.1,0-0.1-0.1-0.2-0.1c-0.9-0.8-1.7-1.9-2.1-3.1C186.3,277.1,186,276,186,274.8z"/>
		</g>
		<g>
			<path class="st5" d="M201.6,250.8l0.3,2c0,0.3,0.1,0.5,0.1,0.7c0.3,2,1.2,4,2.4,6.1c0.9,1.5,1.9,2.8,3,4c0.6,0.6,1.2,1.3,2,1.9
				c0.2,0.1,0.4,0.3,0.6,0.4l0.2,0.1c0.4,0.2,0.8,0.3,1.2,0.5c0.2,0.1,0.5,0.2,0.7,0.3c0.3,0.1,0.6,0.2,0.8,0.3
				c0.4,0.2,0.8,0.5,1.2,0.8l0.1,0.1c0.3,0.3,0.7,0.6,1,1s0.6,0.7,0.7,1c0.1,0.2,0.3,0.5,0.4,0.7c0.1,0.1,0.1,0.3,0.2,0.4
				c0.2,0.5,0.4,1,0.5,1.6c0.1,0.4,0.2,0.8,0.2,1.3v0.1c0,0.3,0,0.5,0,0.8c0,1.2-0.2,2.3-0.6,3.4c-0.6,1.7-1.8,3.1-3.2,4l-0.1,0.1
				c-0.1,0-0.1,0.1-0.2,0.1c-0.6,0.3-1.2,0.6-1.8,0.8c-0.4,0.1-0.8,0.2-1.2,0.2c-0.2,0-0.5,0.1-0.8,0.1c-0.5,0-1-0.1-1.5-0.2h-0.1
				c-0.1,0-0.1,0-0.2-0.1c-0.1,0-0.3-0.1-0.4-0.1l-0.3-0.1c-0.1,0-0.2-0.1-0.3-0.1h-0.1c-0.2-0.1-0.5-0.2-0.7-0.3
				c-0.2-0.1-0.3-0.2-0.5-0.3c-0.1-0.1-0.1-0.1-0.2-0.1c-0.2-0.2-0.5-0.3-0.7-0.5c-0.1-0.1-0.1-0.1-0.1-0.1l-0.2-0.1
				c-0.1,0-0.1-0.1-0.1-0.1l-0.1-0.1c-0.2-0.3-0.4-0.5-0.6-0.7c-0.1-0.1-0.1-0.1-0.2-0.2c-0.2-0.3-0.5-0.7-0.6-1
				c-0.4-0.7-0.6-1.4-0.8-2.1c0,0,0,0,0,0.1s0,0.2-0.1,0.3c0,0.1-0.1,0.3-0.1,0.4s-0.1,0.3-0.1,0.4c-0.1,0.3-0.2,0.6-0.4,0.8
				c-0.1,0.1-0.1,0.2-0.2,0.3c-0.1,0.3-0.3,0.5-0.4,0.7l-0.1,0.1c0,0.1-0.1,0.1-0.2,0.2c-0.1,0.2-0.3,0.4-0.5,0.5
				c-0.1,0.1-0.1,0.1-0.2,0.2c-0.3,0.3-0.6,0.6-0.9,0.8c-0.1,0.1-0.2,0.2-0.3,0.2c-0.2,0.2-0.4,0.3-0.6,0.4
				c-0.7,0.4-1.4,0.7-2.2,0.8c-0.2,0-0.5,0.1-0.7,0.1c-0.5,0.1-1.2,0-1.7,0c-0.4,0-0.8-0.1-1.2-0.2c-0.6-0.2-1.2-0.4-1.8-0.8
				l-0.1-0.1c-0.1-0.1-0.2-0.1-0.2-0.1c-0.3-0.2-0.6-0.4-0.9-0.7c-0.1,0-0.1-0.1-0.2-0.1c-0.9-0.9-1.7-2-2.2-3.2
				c-0.4-1.1-0.6-2.2-0.6-3.4c0-0.1,0-0.3,0-0.4s0-0.3,0-0.4c0-0.2,0-0.4,0.1-0.6c0-0.2,0.1-0.3,0.1-0.5c0.6-2.6,2.4-5,4.7-6.1
				c0.3-0.1,0.6-0.3,0.9-0.4c0.7-0.2,1.4-0.3,2.1-0.3c1.5,0,2.9,0.6,4.2,1.7c0.6,0.5,1.2,1.1,1.6,1.8c-0.5-1.2-1.3-2.2-2.3-3.1
				c-0.8-0.7-1.6-1.2-2.4-1.5l-0.4-0.1l0.3-0.3c2.1-2.1,5.7-6.3,6.5-11.1c0-0.2,0.1-0.4,0.1-0.6L201.6,250.8z M209.7,266.3
				c-0.2-0.1-0.4-0.2-0.5-0.3c-0.8-0.6-1.6-1.4-2.1-1.9c-1.2-1.3-2.2-2.6-3.1-4.1c-1.1-1.8-1.9-3.6-2.3-5.4c-1,4.4-4.2,8.2-6.2,10.3
				c0.8,0.3,1.5,0.8,2.2,1.5c1.1,0.9,2,2.2,2.5,3.5l0.1,0.2c0.1,0.3,0.2,0.5,0.3,1c0,0.2,0,0.4,0.1,0.6v0.2l0.1,2.6l-0.7-2.5
				c-0.1-0.3-0.1-0.3-0.2-0.5c0-0.1-0.1-0.1-0.1-0.2c-0.2-0.4-0.4-0.8-0.6-1.2c-0.5-0.7-1-1.2-1.6-1.7c-1.2-1-2.5-1.5-3.8-1.5
				c-0.6,0-1.3,0.1-1.9,0.3c-0.3,0.1-0.6,0.2-0.8,0.4c-2.2,1-3.9,3.2-4.4,5.7c0,0.1-0.1,0.3-0.1,0.4c0,0.2-0.1,0.4-0.1,0.6
				c0,0.1,0,0.3,0,0.4s0,0.3,0,0.4c0,1.1,0.2,2.2,0.6,3.2c0.5,1.2,1.2,2.2,2.1,3c0.1,0,0.1,0.1,0.1,0.1c0.3,0.2,0.5,0.4,0.8,0.6
				c0.1,0,0.2,0.1,0.3,0.2h0.1c0.5,0.3,1.1,0.5,1.7,0.7c0.4,0.1,0.7,0.2,1.1,0.2c0.5,0.1,1,0.1,1.5,0c0.3,0,0.5-0.1,0.7-0.1
				c0.7-0.1,1.4-0.4,2-0.8c0.2-0.1,0.4-0.2,0.6-0.4c0.1-0.1,0.2-0.1,0.3-0.2c0.3-0.2,0.5-0.4,0.8-0.7c0.1-0.1,0.1-0.1,0.2-0.2
				c0.1-0.2,0.3-0.3,0.4-0.5c0-0.1,0.1-0.1,0.1-0.2l0.1-0.1c0.1-0.2,0.3-0.4,0.4-0.6c0.1-0.1,0.1-0.2,0.2-0.3
				c0.1-0.2,0.2-0.5,0.3-0.8c0.1-0.1,0.1-0.2,0.1-0.4c0.1-0.1,0.1-0.2,0.1-0.4c0-0.1,0.1-0.2,0.1-0.3V277c0,0,0,0,0-0.1l0.1-0.6
				c0-0.2,0.1-0.4,0.1-0.6s0-0.5,0-0.7h0.5c0,0.6,0.1,1.1,0.2,1.6c0.2,0.8,0.4,1.6,0.8,2.3c0.2,0.3,0.4,0.6,0.6,0.9
				c0,0.1,0.1,0.1,0.2,0.2c0.2,0.2,0.4,0.4,0.5,0.6l0.1,0.1c0.1,0.1,0.1,0.1,0.2,0.1l0.1,0.1c0.1,0.1,0.1,0.1,0.2,0.2
				c0.2,0.2,0.4,0.3,0.7,0.5c0,0,0.1,0,0.1,0.1c0.2,0.1,0.4,0.2,0.5,0.3c0.2,0.1,0.4,0.2,0.6,0.3h0.1c0.1,0,0.1,0.1,0.2,0.1l0.3,0.1
				c0.1,0,0.3,0.1,0.4,0.1c0.1,0,0.1,0,0.2,0h0.1c0.8,0.2,1.5,0.2,2.2,0.1c0.3,0,0.7-0.1,1.1-0.2c0.6-0.2,1.2-0.4,1.7-0.7
				c0.1,0,0.1-0.1,0.2-0.1l0.1-0.1c1.3-0.9,2.4-2.2,3-3.8c0.4-1,0.6-2.1,0.6-3.2c0-0.3,0-0.5,0-0.8v-0.1c0-0.4-0.1-0.8-0.2-1.2
				c-0.1-0.5-0.3-1-0.5-1.5c-0.1-0.1-0.1-0.2-0.2-0.4c-0.1-0.2-0.2-0.5-0.4-0.7c-0.2-0.3-0.4-0.6-0.7-1s-0.6-0.7-1-1l-0.1-0.1
				c-0.4-0.3-0.7-0.5-1.1-0.8c-0.2-0.1-0.5-0.2-0.7-0.3c-0.2-0.1-0.5-0.2-0.7-0.3c-0.5-0.2-0.9-0.3-1.3-0.5h-0.2L209.7,266.3z"/>
		</g>
	</g>
	<g>
		<g>
			<path class="st4" d="M91.8,51.7c0,0.2,0,0.4,0,0.6c0,0.2,0,0.4,0,0.6c0,0.3-0.1,0.5-0.1,0.8c0,0.2-0.1,0.4-0.1,0.6
				c-0.8,3.5-3.2,6.6-6.3,8c-0.4,0.2-0.8,0.3-1.2,0.5c-0.9,0.3-1.8,0.4-2.7,0.4c-2-0.1-3.9-0.9-5.5-2.2c-0.8-0.7-1.6-1.5-2.2-2.4
				c-0.4-0.5-0.7-1.1-0.9-1.7c-0.3-0.5-0.3-0.4-0.4-1c0,0.4,0,0.7,0.1,1.1c0.1,0.8,0.2,0.9,0.5,1.6c0.7,1.9,1.9,3.5,3.4,4.7
				c1,0.9,2.2,1.7,3.4,2.1l0,0c-2.9,2.9-7.9,8.8-9,15.5c-0.1,0.3-0.1,0.6-0.1,0.9c0-0.3-0.1-0.6-0.1-0.9c-0.5-3-1.8-5.9-3.4-8.5
				c-1.2-2-2.6-3.9-4.2-5.6c-0.9-1-1.8-1.9-2.8-2.6c-0.3-0.2-0.6-0.4-0.9-0.5l0,0c-0.9-0.5-1.8-0.7-2.8-1.1
				c-0.4-0.1-0.7-0.3-1.1-0.5c-0.6-0.3-1.1-0.7-1.6-1.1c0,0-0.1,0-0.1-0.1c-0.5-0.4-1-0.9-1.4-1.4c-0.4-0.4-0.7-0.9-1-1.4
				c-0.2-0.3-0.4-0.6-0.5-1c-0.1-0.2-0.2-0.3-0.2-0.5c-0.3-0.7-0.6-1.4-0.7-2.1c-0.1-0.6-0.2-1.1-0.3-1.7v-0.1
				c0-0.4-0.1-0.7-0.1-1.1c0-1.6,0.3-3.1,0.9-4.5c0.9-2.2,2.4-4.1,4.3-5.4c0.1-0.1,0.3-0.2,0.4-0.3c0.8-0.4,1.6-0.8,2.4-1
				c0.5-0.1,1-0.3,1.6-0.3c0.4,0,0.7-0.1,1.1-0.1c0.7,0,1.4,0.1,2,0.2c0.1,0,0.3,0.1,0.4,0.1c0.2,0.1,0.4,0.1,0.6,0.2
				c0.2,0.1,0.3,0.1,0.5,0.2c0.2,0.1,0.3,0.1,0.5,0.2c0.3,0.1,0.6,0.3,0.9,0.4c0.2,0.1,0.5,0.3,0.7,0.4c0.1,0,0.1,0.1,0.2,0.1
				c0.3,0.2,0.6,0.5,0.9,0.7c0.1,0.1,0.1,0.1,0.2,0.2l0.1,0.1c0.1,0.1,0.2,0.2,0.3,0.3c0.1,0.1,0.1,0.1,0.2,0.2
				c0.3,0.3,0.5,0.6,0.8,0.9c0.1,0.1,0.2,0.2,0.2,0.3c0.3,0.4,0.6,0.9,0.9,1.3c0.6,1,1,2.1,1.2,3.3c0.2,0.7,0.3,1.5,0.3,2.3
				c0-0.3,0-0.6,0.1-1c0-0.3,0.1-0.6,0.1-0.9c0.1-0.3,0.1-0.5,0.2-0.7c0-0.1,0-0.2,0.1-0.3c0-0.1,0.1-0.3,0.1-0.4
				c0-0.2,0.1-0.4,0.2-0.5c0.1-0.2,0.1-0.4,0.2-0.5c0.1-0.4,0.3-0.8,0.5-1.1c0.1-0.1,0.2-0.3,0.2-0.4c0.2-0.3,0.4-0.6,0.6-0.9
				c0.1-0.1,0.2-0.3,0.3-0.4c0.2-0.2,0.4-0.5,0.6-0.7c0.1-0.1,0.2-0.2,0.3-0.3c0.4-0.4,0.7-0.7,1.2-1c0.1-0.1,0.3-0.2,0.4-0.3
				c0.3-0.2,0.6-0.4,0.9-0.5c0.9-0.5,1.8-0.9,2.9-1.1c0.3-0.1,0.7-0.1,1-0.2l0,0c0.4,0,0.7-0.1,1.1-0.1s0.7,0,1.1,0.1
				c0.5,0.1,1.1,0.2,1.6,0.3c0.9,0.2,1.7,0.6,2.4,1c0.2,0.1,0.3,0.2,0.5,0.3c0.4,0.3,0.8,0.5,1.1,0.9c0.1,0.1,0.2,0.1,0.2,0.2
				c1.3,1.2,2.3,2.6,2.9,4.3C91.5,48.6,91.8,50.1,91.8,51.7z"/>
		</g>
		<g>
			<path class="st5" d="M70.4,84.6L70,81.8c0-0.4-0.1-0.6-0.1-0.9c-0.5-2.7-1.6-5.6-3.3-8.4c-1.2-2-2.6-3.8-4.2-5.5
				c-0.8-0.8-1.7-1.8-2.8-2.6c-0.3-0.2-0.5-0.3-0.8-0.5l-0.2-0.1c-0.5-0.3-1.1-0.5-1.6-0.7c-0.3-0.1-0.6-0.2-0.9-0.4
				c-0.4-0.1-0.8-0.3-1.1-0.5c-0.6-0.3-1.2-0.7-1.7-1.1C53.2,61,53.2,61,53.2,61c-0.5-0.4-0.9-0.8-1.4-1.4c-0.4-0.5-0.8-1-1-1.4
				c-0.2-0.3-0.4-0.6-0.6-1C50.1,57,50,56.8,50,56.7c-0.3-0.7-0.6-1.4-0.7-2.2c-0.1-0.5-0.2-1.1-0.3-1.7v-0.1c0-0.4-0.1-0.7-0.1-1.1
				c0-1.6,0.3-3.2,0.9-4.6c0.9-2.3,2.5-4.2,4.4-5.5l0.2-0.1c0.1-0.1,0.2-0.1,0.3-0.2c0.8-0.5,1.6-0.8,2.5-1.1
				c0.6-0.2,1.1-0.3,1.6-0.3c0.3,0,0.7-0.1,1.1-0.1c0.7,0,1.4,0.1,2.1,0.2h0.1c0.1,0,0.2,0,0.3,0.1c0.2,0,0.4,0.1,0.6,0.2l0.5,0.2
				c0.1,0,0.2,0.1,0.4,0.1l0.1,0.1c0.3,0.1,0.6,0.3,0.9,0.4c0.2,0.1,0.5,0.3,0.7,0.4c0.1,0.1,0.2,0.1,0.2,0.2
				c0.3,0.2,0.6,0.5,0.9,0.7c0.1,0.1,0.1,0.1,0.2,0.1l0.2,0.2c0.1,0.1,0.1,0.1,0.2,0.2l0.1,0.1c0.3,0.3,0.6,0.7,0.9,1
				c0.1,0.1,0.2,0.2,0.2,0.3c0.3,0.5,0.6,0.9,0.9,1.4c0.5,0.9,0.9,1.9,1.1,2.9c0,0,0,0,0-0.1s0.1-0.3,0.1-0.4c0-0.2,0.1-0.4,0.2-0.5
				c0.1-0.2,0.1-0.4,0.2-0.5c0.1-0.4,0.3-0.8,0.5-1.1c0.1-0.1,0.2-0.3,0.2-0.4c0.2-0.4,0.4-0.7,0.6-1l0.1-0.2
				c0.1-0.1,0.1-0.2,0.2-0.3c0.2-0.2,0.4-0.5,0.6-0.7c0.1-0.1,0.2-0.2,0.3-0.3c0.4-0.4,0.8-0.8,1.2-1.1c0.1-0.1,0.3-0.2,0.4-0.3
				c0.3-0.2,0.6-0.4,0.9-0.6c0.9-0.5,1.9-0.9,3-1.1c0.3-0.1,0.7-0.1,1-0.2c0.7-0.1,1.7-0.1,2.3,0c0.6,0.1,1.1,0.2,1.6,0.3
				c0.9,0.2,1.7,0.6,2.5,1.1l0.1,0.1c0.1,0.1,0.2,0.1,0.3,0.2c0.5,0.3,0.8,0.6,1.2,0.9c0.1,0,0.2,0.1,0.2,0.2c1.3,1.2,2.4,2.7,3,4.4
				c0.6,1.5,0.9,3,0.9,4.6c0,0.2,0,0.4,0,0.6c0,0.2,0,0.4,0,0.6c0,0.3-0.1,0.5-0.1,0.8c0,0.2-0.1,0.4-0.1,0.7
				c-0.8,3.6-3.3,6.8-6.5,8.3c-0.4,0.2-0.8,0.3-1.2,0.5c-1,0.3-1.9,0.4-2.9,0.4c-2-0.1-4-0.9-5.7-2.3c-0.8-0.7-1.6-1.5-2.3-2.5
				c0.7,1.6,1.7,3.1,3.1,4.2c1,0.9,2.1,1.6,3.3,2.1l0.5,0.2l-0.4,0.4c-2.9,2.9-7.8,8.7-8.9,15.3c0,0.3-0.1,0.6-0.1,0.9L70.4,84.6z
				 M59.3,63.4c0.3,0.1,0.5,0.3,0.7,0.5c1.2,0.8,2.2,1.9,2.9,2.7c1.6,1.8,3,3.6,4.3,5.6c1.5,2.5,2.6,5,3.2,7.5
				c1.4-6,5.7-11.2,8.5-14.1c-1.1-0.5-2.1-1.1-3-2c-1.5-1.3-2.7-3-3.5-4.9l-0.1-0.3c-0.2-0.5-0.3-0.7-0.4-1.3
				c-0.1-0.3-0.1-0.6-0.1-0.9v-0.3l-0.2-3.5l0.9,3.4c0.1,0.4,0.1,0.4,0.2,0.6c0,0.1,0.1,0.2,0.2,0.3c0.2,0.6,0.5,1.1,0.9,1.6
				c0.6,0.9,1.3,1.7,2.1,2.3c1.6,1.3,3.5,2.1,5.3,2.1c0.9,0,1.7-0.1,2.6-0.4c0.4-0.1,0.8-0.3,1.1-0.5c3-1.4,5.3-4.4,6.1-7.8
				c0-0.2,0.1-0.4,0.1-0.6c0-0.3,0.1-0.5,0.1-0.8c0-0.2,0-0.4,0-0.5c0-0.2,0-0.4,0-0.5c0-1.5-0.3-3-0.8-4.3
				c-0.6-1.6-1.6-3.1-2.8-4.2c-0.1-0.1-0.1-0.1-0.2-0.2c-0.4-0.3-0.7-0.6-1.1-0.8c-0.1,0-0.2-0.1-0.3-0.2l0,0
				c-0.7-0.4-1.5-0.7-2.3-1c-0.5-0.1-1-0.2-1.5-0.3c-0.7-0.1-1.4-0.1-2.1,0c-0.3,0-0.7,0.1-1,0.2c-1,0.2-1.9,0.6-2.7,1
				c-0.3,0.1-0.5,0.3-0.8,0.5c-0.1,0.1-0.3,0.2-0.4,0.3c-0.4,0.3-0.8,0.6-1.1,1c-0.1,0.1-0.2,0.2-0.3,0.3c-0.2,0.2-0.4,0.5-0.6,0.7
				c-0.1,0.1-0.1,0.2-0.2,0.3L72.9,45c-0.2,0.3-0.4,0.6-0.6,0.9c-0.1,0.1-0.1,0.3-0.2,0.4c-0.2,0.3-0.3,0.7-0.4,1
				c-0.1,0.2-0.1,0.3-0.2,0.5s-0.1,0.3-0.2,0.5c0,0.1-0.1,0.2-0.1,0.3v0.1v0.1L71,49.7c0,0.3-0.1,0.6-0.1,0.9c0,0.3,0,0.6,0,0.9
				h-0.8c0-0.8-0.1-1.6-0.3-2.2c-0.2-1.1-0.6-2.2-1.2-3.2c-0.2-0.4-0.5-0.9-0.8-1.3c-0.1-0.1-0.1-0.2-0.2-0.3
				c-0.3-0.3-0.5-0.6-0.7-0.9l-0.1-0.1c-0.1-0.1-0.2-0.2-0.2-0.2l-0.2-0.1c-0.1-0.1-0.2-0.2-0.2-0.2c-0.3-0.2-0.6-0.5-0.9-0.7
				l-0.1-0.1c-0.3-0.2-0.5-0.3-0.7-0.4c-0.3-0.2-0.6-0.3-0.9-0.4l-0.1-0.1c-0.1,0-0.2-0.1-0.3-0.1L62.7,41c-0.2-0.1-0.4-0.1-0.5-0.2
				c-0.1,0-0.2,0-0.2-0.1h-0.1c-1-0.2-2-0.3-3-0.1c-0.5,0-1,0.1-1.5,0.3c-0.8,0.2-1.6,0.6-2.3,1C55,42,54.9,42,54.8,42.1l-0.2,0.1
				c-1.8,1.2-3.3,3-4.1,5.2c-0.5,1.4-0.8,2.8-0.8,4.3c0,0.3,0,0.7,0,1v0.1c0,0.5,0.1,1.1,0.3,1.6c0.2,0.7,0.4,1.4,0.7,2
				c0.1,0.2,0.1,0.3,0.2,0.5c0.2,0.3,0.3,0.6,0.5,0.9c0.2,0.4,0.6,0.8,1,1.3s0.9,0.9,1.4,1.3l0.1,0.1c0.5,0.4,1,0.7,1.6,1
				c0.3,0.2,0.6,0.3,1,0.4c0.3,0.1,0.6,0.2,0.9,0.4c0.6,0.2,1.2,0.5,1.8,0.8h0.3L59.3,63.4z"/>
		</g>
	</g>
	<g>
		<g>
			<path class="st4" d="M174.1,51.7c0,0.2,0,0.4,0,0.6c0,0.2,0,0.4,0,0.6c0,0.3-0.1,0.5-0.1,0.8c0,0.2-0.1,0.4-0.1,0.6
				c-0.8,3.5-3.2,6.6-6.3,8c-0.4,0.2-0.8,0.3-1.2,0.5c-0.9,0.3-1.8,0.4-2.7,0.4c-2-0.1-3.9-0.9-5.5-2.2c-0.8-0.7-1.6-1.5-2.2-2.4
				c-0.4-0.5-0.7-1.1-0.9-1.7c-0.3-0.5-0.3-0.4-0.4-1c0,0.4,0,0.7,0.1,1.1c0.1,0.8,0.2,0.9,0.5,1.6c0.7,1.9,1.9,3.5,3.4,4.7
				c1,0.9,2.2,1.7,3.4,2.1l0,0c-2.9,2.9-7.9,8.8-9,15.5c-0.1,0.3-0.1,0.6-0.1,0.9c0-0.3-0.1-0.6-0.1-0.9c-0.5-3-1.8-5.9-3.4-8.5
				c-1.2-2-2.6-3.9-4.2-5.6c-0.9-1-1.8-1.9-2.8-2.6c-0.3-0.2-0.6-0.4-0.9-0.5l0,0c-0.9-0.5-1.8-0.7-2.8-1.1
				c-0.4-0.1-0.7-0.3-1.1-0.5c-0.6-0.3-1.1-0.7-1.6-1.1c0,0-0.1,0-0.1-0.1c-0.5-0.4-1-0.9-1.4-1.4c-0.4-0.4-0.7-0.9-1-1.4
				c-0.2-0.3-0.4-0.6-0.5-1c-0.1-0.2-0.2-0.3-0.2-0.5c-0.3-0.7-0.6-1.4-0.7-2.1c-0.1-0.6-0.2-1.1-0.3-1.7v-0.1
				c0-0.4-0.1-0.7-0.1-1.1c0-1.6,0.3-3.1,0.9-4.5c0.9-2.2,2.4-4.1,4.3-5.4c0.1-0.1,0.3-0.2,0.4-0.3c0.8-0.4,1.6-0.8,2.4-1
				c0.5-0.1,1-0.3,1.6-0.3c0.4,0,0.7-0.1,1.1-0.1c0.7,0,1.4,0.1,2,0.2c0.1,0,0.3,0.1,0.4,0.1c0.2,0.1,0.4,0.1,0.6,0.2
				c0.2,0.1,0.3,0.1,0.5,0.2c0.2,0.1,0.3,0.1,0.5,0.2c0.3,0.1,0.6,0.3,0.9,0.4c0.2,0.1,0.5,0.3,0.7,0.4c0.1,0,0.1,0.1,0.2,0.1
				c0.3,0.2,0.6,0.5,0.9,0.7c0.1,0.1,0.1,0.1,0.2,0.2l0.1,0.1c0.1,0.1,0.2,0.2,0.3,0.3s0.1,0.1,0.2,0.2c0.3,0.3,0.5,0.6,0.8,0.9
				c0.1,0.1,0.2,0.2,0.2,0.3c0.3,0.4,0.6,0.9,0.9,1.3c0.6,1,1,2.1,1.2,3.3c0.2,0.7,0.3,1.5,0.3,2.3c0-0.3,0-0.6,0.1-1
				c0-0.3,0.1-0.6,0.1-0.9c0.1-0.3,0.1-0.5,0.2-0.7c0-0.1,0-0.2,0.1-0.3c0-0.1,0.1-0.3,0.1-0.4c0-0.2,0.1-0.4,0.2-0.5
				c0.1-0.2,0.1-0.4,0.2-0.5c0.1-0.4,0.3-0.8,0.5-1.1c0.1-0.1,0.2-0.3,0.2-0.4c0.2-0.3,0.4-0.6,0.6-0.9c0.1-0.1,0.2-0.3,0.3-0.4
				c0.2-0.2,0.4-0.5,0.6-0.7c0.1-0.1,0.2-0.2,0.3-0.3c0.4-0.4,0.7-0.7,1.2-1c0.1-0.1,0.3-0.2,0.4-0.3c0.3-0.2,0.6-0.4,0.9-0.5
				c0.9-0.5,1.8-0.9,2.9-1.1c0.3-0.1,0.7-0.1,1-0.2l0,0c0.4,0,0.7-0.1,1.1-0.1c0.4,0,0.7,0,1.1,0.1c0.5,0.1,1.1,0.2,1.6,0.3
				c0.9,0.2,1.7,0.6,2.4,1c0.2,0.1,0.3,0.2,0.5,0.3c0.4,0.3,0.8,0.5,1.1,0.9c0.1,0.1,0.2,0.1,0.2,0.2c1.3,1.2,2.3,2.6,2.9,4.3
				C173.8,48.6,174.1,50.1,174.1,51.7z"/>
		</g>
		<g>
			<path class="st5" d="M152.7,84.6l-0.4-2.8c0-0.4-0.1-0.6-0.1-0.9c-0.5-2.7-1.6-5.6-3.3-8.4c-1.2-2-2.6-3.8-4.2-5.5
				c-0.8-0.8-1.7-1.8-2.8-2.6c-0.3-0.2-0.5-0.3-0.8-0.5l-0.2-0.1c-0.5-0.3-1.1-0.5-1.6-0.7c-0.3-0.1-0.6-0.2-0.9-0.4
				c-0.4-0.1-0.8-0.3-1.1-0.5c-0.6-0.3-1.2-0.7-1.7-1.1c-0.1-0.1-0.1-0.1-0.1-0.1c-0.5-0.4-0.9-0.8-1.4-1.4c-0.4-0.5-0.8-1-1-1.4
				c-0.2-0.3-0.4-0.6-0.6-1c-0.1-0.2-0.2-0.4-0.2-0.5c-0.3-0.7-0.6-1.4-0.7-2.2c-0.1-0.5-0.2-1.1-0.3-1.7v-0.1
				c0-0.4-0.1-0.7-0.1-1.1c0-1.6,0.3-3.2,0.9-4.6c0.9-2.3,2.5-4.2,4.4-5.5l0.2-0.1c0.1-0.1,0.2-0.1,0.3-0.2c0.8-0.5,1.6-0.8,2.5-1.1
				c0.6-0.2,1.1-0.3,1.6-0.3c0.3,0,0.7-0.1,1.1-0.1c0.7,0,1.4,0.1,2.1,0.2h0.1c0.1,0,0.2,0,0.3,0.1c0.2,0,0.4,0.1,0.6,0.2l0.5,0.2
				c0.1,0,0.2,0.1,0.4,0.1l0.1,0.1c0.3,0.1,0.6,0.3,0.9,0.4c0.2,0.1,0.5,0.3,0.7,0.4c0.1,0.1,0.2,0.1,0.2,0.2
				c0.3,0.2,0.6,0.5,0.9,0.7c0.1,0.1,0.1,0.1,0.2,0.1l0.2,0.2c0.1,0.1,0.1,0.1,0.2,0.2l0.1,0.1c0.3,0.3,0.6,0.7,0.9,1
				c0.1,0.1,0.2,0.2,0.2,0.3c0.3,0.5,0.6,0.9,0.9,1.4c0.5,0.9,0.9,1.9,1.1,2.9c0,0,0,0,0-0.1s0.1-0.3,0.1-0.4c0-0.2,0.1-0.4,0.2-0.5
				c0.1-0.2,0.1-0.4,0.2-0.5c0.1-0.4,0.3-0.8,0.5-1.1c0.1-0.1,0.2-0.3,0.2-0.4c0.2-0.4,0.4-0.7,0.6-1l0.1-0.2
				c0.1-0.1,0.1-0.2,0.2-0.3c0.2-0.2,0.4-0.5,0.6-0.7c0.1-0.1,0.2-0.2,0.3-0.3c0.4-0.4,0.8-0.8,1.2-1.1c0.1-0.1,0.3-0.2,0.4-0.3
				c0.3-0.2,0.6-0.4,0.9-0.6c0.9-0.5,1.9-0.9,3-1.1c0.3-0.1,0.7-0.1,1-0.2c0.7-0.1,1.7-0.1,2.3,0s1.1,0.2,1.6,0.3
				c0.9,0.2,1.7,0.6,2.5,1.1l0.1,0.1c0.1,0.1,0.2,0.1,0.3,0.2c0.5,0.3,0.8,0.6,1.2,0.9c0.1,0,0.2,0.1,0.2,0.2c1.3,1.2,2.4,2.7,3,4.4
				c0.6,1.5,0.9,3,0.9,4.6c0,0.2,0,0.4,0,0.6c0,0.2,0,0.4,0,0.6c0,0.3-0.1,0.5-0.1,0.8c0,0.2-0.1,0.4-0.1,0.7
				c-0.8,3.6-3.3,6.8-6.5,8.3c-0.4,0.2-0.8,0.3-1.2,0.5c-1,0.3-1.9,0.4-2.9,0.4c-2-0.1-4-0.9-5.7-2.3c-0.8-0.7-1.6-1.5-2.3-2.5
				c0.7,1.6,1.7,3.1,3.1,4.2c1,0.9,2.1,1.6,3.3,2.1l0.5,0.2l-0.4,0.4c-2.9,2.9-7.8,8.7-8.9,15.3c0,0.3-0.1,0.6-0.1,0.9L152.7,84.6z
				 M141.6,63.4c0.3,0.1,0.5,0.3,0.7,0.5c1.2,0.8,2.2,1.9,2.9,2.7c1.6,1.8,3,3.6,4.3,5.6c1.5,2.5,2.6,5,3.2,7.5
				c1.4-6,5.7-11.2,8.5-14.1c-1.1-0.5-2.1-1.1-3-2c-1.5-1.3-2.7-3-3.5-4.9l-0.1-0.3c-0.2-0.5-0.3-0.7-0.4-1.3
				c-0.1-0.3-0.1-0.6-0.1-0.9v-0.3l-0.2-3.5l0.9,3.4c0.1,0.4,0.1,0.4,0.2,0.6c0,0.1,0.1,0.2,0.2,0.3c0.2,0.6,0.5,1.1,0.9,1.6
				c0.6,0.9,1.3,1.7,2.1,2.3c1.6,1.3,3.5,2.1,5.3,2.1c0.9,0,1.7-0.1,2.6-0.4c0.4-0.1,0.8-0.3,1.1-0.5c3-1.4,5.3-4.4,6.1-7.8
				c0-0.2,0.1-0.4,0.1-0.6c0-0.3,0.1-0.5,0.1-0.8c0-0.2,0-0.4,0-0.5c0-0.2,0-0.4,0-0.5c0-1.5-0.3-3-0.8-4.3
				c-0.6-1.6-1.6-3.1-2.8-4.2c-0.1-0.1-0.1-0.1-0.2-0.2c-0.4-0.3-0.7-0.6-1.1-0.8c-0.1,0-0.2-0.1-0.3-0.2l-0.1-0.1
				c-0.7-0.4-1.5-0.7-2.3-1c-0.5-0.1-1-0.2-1.5-0.3c-0.7-0.1-1.4-0.1-2.1,0c-0.3,0-0.7,0.1-1,0.2c-1,0.2-1.9,0.6-2.7,1
				c-0.3,0.1-0.5,0.3-0.8,0.5c-0.1,0.1-0.3,0.2-0.4,0.3c-0.4,0.3-0.8,0.6-1.1,1c-0.1,0.1-0.2,0.2-0.3,0.3c-0.2,0.2-0.4,0.5-0.6,0.7
				c-0.1,0.1-0.1,0.2-0.2,0.3l-0.1,0.2c-0.2,0.3-0.4,0.6-0.6,0.9c-0.1,0.1-0.1,0.3-0.2,0.4c-0.2,0.3-0.3,0.7-0.4,1
				c-0.1,0.2-0.1,0.3-0.2,0.5c-0.1,0.2-0.1,0.3-0.2,0.5c0,0.1-0.1,0.2-0.1,0.3v0.1v0.1l-0.2,0.8c0,0.3-0.1,0.6-0.1,0.9
				c0,0.3,0,0.6,0,0.9h-0.8c0-0.8-0.1-1.6-0.3-2.2c-0.2-1.1-0.6-2.2-1.2-3.2c-0.2-0.4-0.5-0.9-0.8-1.3c-0.1-0.1-0.1-0.2-0.2-0.3
				c-0.3-0.3-0.5-0.6-0.7-0.9l-0.1-0.1c-0.1-0.1-0.2-0.2-0.2-0.2l-0.2-0.1c-0.1-0.1-0.2-0.2-0.2-0.2c-0.3-0.2-0.6-0.5-0.9-0.7
				l-0.1-0.1c-0.3-0.2-0.5-0.3-0.7-0.4c-0.3-0.2-0.6-0.3-0.9-0.4l-0.1-0.1c-0.1,0-0.2-0.1-0.3-0.1L145,41c-0.2-0.1-0.4-0.1-0.5-0.2
				c-0.1,0-0.2,0-0.2-0.1h-0.1c-1-0.2-2-0.3-3-0.1c-0.5,0-1,0.1-1.5,0.3c-0.8,0.2-1.6,0.6-2.3,1c-0.1,0.1-0.2,0.1-0.3,0.2l-0.2,0.1
				c-1.8,1.2-3.3,3-4.1,5.2c-0.5,1.4-0.8,2.8-0.8,4.3c0,0.3,0,0.7,0,1v0.1c0,0.5,0.1,1.1,0.3,1.6c0.2,0.7,0.4,1.4,0.7,2
				c0.1,0.2,0.1,0.3,0.2,0.5c0.2,0.3,0.3,0.6,0.5,0.9c0.2,0.4,0.6,0.8,1,1.3s0.9,0.9,1.4,1.3l0.1,0.1c0.5,0.4,1,0.7,1.6,1
				c0.3,0.2,0.6,0.3,1,0.4c0.3,0.1,0.6,0.2,0.9,0.4c0.6,0.2,1.2,0.5,1.8,0.8h0.3L141.6,63.4z"/>
		</g>
	</g>
	<g>
		<g>
			<path class="st4" d="M91.8,122.6c0,0.2,0,0.4,0,0.6s0,0.4,0,0.6c0,0.3-0.1,0.5-0.1,0.8c0,0.2-0.1,0.4-0.1,0.6
				c-0.8,3.5-3.2,6.6-6.3,8c-0.4,0.2-0.8,0.3-1.2,0.5c-0.9,0.3-1.8,0.4-2.7,0.4c-2-0.1-3.9-0.9-5.5-2.2c-0.8-0.7-1.6-1.5-2.2-2.4
				c-0.4-0.5-0.7-1.1-0.9-1.7c-0.3-0.5-0.3-0.4-0.4-1c0,0.4,0,0.7,0.1,1.1c0.1,0.8,0.2,0.9,0.5,1.6c0.7,1.9,1.9,3.5,3.4,4.7
				c1,0.9,2.2,1.7,3.4,2.1l0,0c-2.9,2.9-7.9,8.8-9,15.5c-0.1,0.3-0.1,0.6-0.1,0.9c0-0.3-0.1-0.6-0.1-0.9c-0.5-3-1.8-5.9-3.4-8.5
				c-1.2-2-2.6-3.9-4.2-5.6c-0.9-1-1.8-1.9-2.8-2.6c-0.3-0.2-0.6-0.4-0.9-0.5l0,0c-0.9-0.5-1.8-0.7-2.8-1.1
				c-0.4-0.1-0.7-0.3-1.1-0.5c-0.6-0.3-1.1-0.7-1.6-1.1c0,0-0.1,0-0.1-0.1c-0.5-0.4-1-0.9-1.4-1.4c-0.4-0.4-0.7-0.9-1-1.4
				c-0.2-0.3-0.4-0.6-0.5-1c-0.1-0.2-0.2-0.3-0.2-0.5c-0.3-0.7-0.6-1.4-0.7-2.1c-0.1-0.6-0.2-1.1-0.3-1.7v-0.1
				c0-0.4-0.1-0.7-0.1-1.1c0-1.6,0.3-3.1,0.9-4.5c0.9-2.2,2.4-4.1,4.3-5.4c0.1-0.1,0.3-0.2,0.4-0.3c0.8-0.4,1.6-0.8,2.4-1
				c0.5-0.1,1-0.3,1.6-0.3c0.4,0,0.7-0.1,1.1-0.1c0.7,0,1.4,0.1,2,0.2c0.1,0,0.3,0.1,0.4,0.1c0.2,0.1,0.4,0.1,0.6,0.2
				c0.2,0.1,0.3,0.1,0.5,0.2s0.3,0.1,0.5,0.2c0.3,0.1,0.6,0.3,0.9,0.4c0.2,0.1,0.5,0.3,0.7,0.4c0.1,0,0.1,0.1,0.2,0.1
				c0.3,0.2,0.6,0.5,0.9,0.7c0.1,0.1,0.1,0.1,0.2,0.2l0.1,0.1c0.1,0.1,0.2,0.2,0.3,0.3c0.1,0.1,0.1,0.1,0.2,0.2
				c0.3,0.3,0.5,0.6,0.8,0.9c0.1,0.1,0.2,0.2,0.2,0.3c0.3,0.4,0.6,0.9,0.9,1.3c0.6,1,1,2.1,1.2,3.3c0.2,0.7,0.3,1.5,0.3,2.3
				c0-0.3,0-0.6,0.1-1c0-0.3,0.1-0.6,0.1-0.9c0.1-0.3,0.1-0.5,0.2-0.7c0-0.1,0-0.2,0.1-0.3c0-0.1,0.1-0.3,0.1-0.4
				c0-0.2,0.1-0.4,0.2-0.5c0.1-0.2,0.1-0.4,0.2-0.5c0.1-0.4,0.3-0.8,0.5-1.1c0.1-0.1,0.2-0.3,0.2-0.4c0.2-0.3,0.4-0.6,0.6-0.9
				c0.1-0.1,0.2-0.3,0.3-0.4c0.2-0.2,0.4-0.5,0.6-0.7c0.1-0.1,0.2-0.2,0.3-0.3c0.4-0.4,0.7-0.7,1.2-1c0.1-0.1,0.3-0.2,0.4-0.3
				c0.3-0.2,0.6-0.4,0.9-0.5c0.9-0.5,1.8-0.9,2.9-1.1c0.3-0.1,0.7-0.1,1-0.2l0,0c0.4,0,0.7-0.1,1.1-0.1s0.7,0,1.1,0.1
				c0.5,0.1,1.1,0.2,1.6,0.3c0.9,0.2,1.7,0.6,2.4,1c0.2,0.1,0.3,0.2,0.5,0.3c0.4,0.3,0.8,0.5,1.1,0.9c0.1,0.1,0.2,0.1,0.2,0.2
				c1.3,1.2,2.3,2.6,2.9,4.3C91.5,119.5,91.8,121,91.8,122.6z"/>
		</g>
		<g>
			<path class="st5" d="M70.4,155.5l-0.4-2.8c0-0.4-0.1-0.6-0.1-0.9c-0.5-2.7-1.6-5.6-3.3-8.4c-1.2-2-2.6-3.8-4.2-5.5
				c-0.8-0.8-1.7-1.8-2.8-2.6c-0.3-0.2-0.5-0.3-0.8-0.5l-0.2-0.1c-0.5-0.3-1.1-0.5-1.6-0.7c-0.3-0.1-0.6-0.2-0.9-0.4
				c-0.4-0.1-0.8-0.3-1.1-0.5c-0.6-0.3-1.2-0.7-1.7-1.1c-0.1-0.1-0.1-0.1-0.1-0.1c-0.5-0.4-0.9-0.8-1.4-1.4c-0.4-0.5-0.8-1-1-1.4
				c-0.2-0.3-0.4-0.6-0.6-1c-0.1-0.2-0.2-0.4-0.2-0.5c-0.3-0.7-0.6-1.4-0.7-2.2c-0.1-0.5-0.2-1.1-0.3-1.7v-0.1
				c0-0.4-0.1-0.7-0.1-1.1c0-1.6,0.3-3.2,0.9-4.6c0.9-2.3,2.5-4.2,4.4-5.5l0.2-0.1c0.1-0.1,0.2-0.1,0.3-0.2c0.8-0.5,1.6-0.8,2.5-1.1
				c0.6-0.2,1.1-0.3,1.6-0.3c0.3,0,0.7-0.1,1.1-0.1c0.7,0,1.4,0.1,2.1,0.2h0.1c0.1,0,0.2,0,0.3,0.1c0.2,0,0.4,0.1,0.6,0.2l0.5,0.2
				c0.1,0,0.2,0.1,0.4,0.1l0.1,0.1c0.3,0.1,0.6,0.3,0.9,0.4c0.2,0.1,0.5,0.3,0.7,0.4c0.1,0.1,0.2,0.1,0.2,0.2
				c0.3,0.2,0.6,0.5,0.9,0.7c0.1,0.1,0.1,0.1,0.2,0.1l0.2,0.2c0.1,0.1,0.1,0.1,0.2,0.2l0.1,0.1c0.3,0.3,0.6,0.7,0.9,1
				c0.1,0.1,0.2,0.2,0.2,0.3c0.3,0.5,0.6,0.9,0.9,1.4c0.5,0.9,0.9,1.9,1.1,2.9c0,0,0,0,0-0.1s0.1-0.3,0.1-0.4c0-0.2,0.1-0.4,0.2-0.5
				c0.1-0.2,0.1-0.4,0.2-0.5c0.1-0.4,0.3-0.8,0.5-1.1c0.1-0.1,0.2-0.3,0.2-0.4c0.2-0.4,0.4-0.7,0.6-1l0.1-0.2
				c0.1-0.1,0.1-0.2,0.2-0.3c0.2-0.2,0.4-0.5,0.6-0.7c0.1-0.1,0.2-0.2,0.3-0.3c0.4-0.4,0.8-0.8,1.2-1.1c0.1-0.1,0.3-0.2,0.4-0.3
				c0.3-0.2,0.6-0.4,0.9-0.6c0.9-0.5,1.9-0.9,3-1.1c0.3-0.1,0.7-0.1,1-0.2c0.7-0.1,1.7-0.1,2.3,0c0.6,0.1,1.1,0.2,1.6,0.3
				c0.9,0.2,1.7,0.6,2.5,1.1l0.1,0.1c0.1,0.1,0.2,0.1,0.3,0.2c0.5,0.3,0.8,0.6,1.2,0.9c0.1,0,0.2,0.1,0.2,0.2c1.3,1.2,2.4,2.7,3,4.4
				c0.6,1.5,0.9,3,0.9,4.6c0,0.2,0,0.4,0,0.6s0,0.4,0,0.6c0,0.3-0.1,0.5-0.1,0.8c0,0.2-0.1,0.4-0.1,0.7c-0.8,3.6-3.3,6.8-6.5,8.3
				c-0.4,0.2-0.8,0.3-1.2,0.5c-1,0.3-1.9,0.4-2.9,0.4c-2-0.1-4-0.9-5.7-2.3c-0.8-0.7-1.6-1.5-2.3-2.5c0.7,1.6,1.7,3.1,3.1,4.2
				c1,0.9,2.1,1.6,3.3,2.1l0.5,0.2l-0.4,0.4c-2.9,2.9-7.8,8.7-8.9,15.3c0,0.3-0.1,0.6-0.1,0.9L70.4,155.5z M59.3,134.3
				c0.3,0.1,0.5,0.3,0.7,0.5c1.2,0.8,2.2,1.9,2.9,2.7c1.6,1.8,3,3.6,4.3,5.6c1.5,2.5,2.6,5,3.2,7.5c1.4-6,5.7-11.2,8.5-14.1
				c-1.1-0.5-2.1-1.1-3-2c-1.5-1.3-2.7-3-3.5-4.9l-0.1-0.3c-0.2-0.5-0.3-0.7-0.4-1.3c-0.1-0.3-0.1-0.6-0.1-0.9v-0.3l-0.2-3.5
				l0.9,3.4c0.1,0.4,0.1,0.4,0.2,0.6c0,0.1,0.1,0.2,0.2,0.3c0.2,0.6,0.5,1.1,0.9,1.6c0.6,0.9,1.3,1.7,2.1,2.3
				c1.6,1.3,3.5,2.1,5.3,2.1c0.9,0,1.7-0.1,2.6-0.4c0.4-0.1,0.8-0.3,1.1-0.5c3-1.4,5.3-4.4,6.1-7.8c0-0.2,0.1-0.4,0.1-0.6
				c0-0.3,0.1-0.5,0.1-0.8c0-0.2,0-0.4,0-0.5c0-0.2,0-0.4,0-0.5c0-1.5-0.3-3-0.8-4.3c-0.6-1.6-1.6-3.1-2.8-4.2
				c-0.1-0.1-0.1-0.1-0.2-0.2c-0.4-0.3-0.7-0.6-1.1-0.8c-0.1,0-0.2-0.1-0.3-0.2l-0.1-0.1c-0.7-0.4-1.5-0.7-2.3-1
				c-0.5-0.1-1-0.2-1.5-0.3c-0.7-0.1-1.4-0.1-2.1,0c-0.3,0-0.7,0.1-1,0.2c-1,0.2-1.9,0.6-2.7,1c-0.3,0.1-0.5,0.3-0.8,0.5
				c-0.1,0.1-0.3,0.2-0.4,0.3c-0.4,0.3-0.8,0.6-1.1,1c-0.1,0.1-0.2,0.2-0.3,0.3c-0.2,0.2-0.4,0.5-0.6,0.7c-0.1,0.1-0.1,0.2-0.2,0.3
				l-0.1,0.2c-0.2,0.3-0.4,0.6-0.6,0.9c-0.1,0.1-0.1,0.3-0.2,0.4c-0.2,0.3-0.3,0.7-0.4,1c-0.1,0.2-0.1,0.3-0.2,0.5s-0.1,0.3-0.2,0.5
				c0,0.1-0.1,0.2-0.1,0.3v0.1v0.1l-0.2,0.8c0,0.3-0.1,0.6-0.1,0.9s0,0.6,0,0.9H70c0-0.8-0.1-1.6-0.3-2.2c-0.2-1.1-0.6-2.2-1.2-3.2
				c-0.2-0.4-0.5-0.9-0.8-1.3c-0.1-0.1-0.1-0.2-0.2-0.3c-0.3-0.3-0.5-0.6-0.7-0.9l-0.1-0.1c-0.1-0.1-0.2-0.2-0.2-0.2l-0.2-0.1
				c-0.1-0.1-0.2-0.2-0.2-0.2c-0.3-0.2-0.6-0.5-0.9-0.7l-0.1-0.1c-0.3-0.2-0.5-0.3-0.7-0.4c-0.3-0.2-0.6-0.3-0.9-0.4l-0.1-0.1
				c-0.1,0-0.2-0.1-0.3-0.1l-0.5-0.2c-0.2-0.1-0.4-0.1-0.5-0.2c-0.1,0-0.2,0-0.2-0.1h-0.1c-1-0.2-2-0.3-3-0.1c-0.5,0-1,0.1-1.5,0.3
				c-0.8,0.2-1.6,0.6-2.3,1c-0.1,0.1-0.2,0.1-0.3,0.2l-0.2,0.1c-1.8,1.2-3.3,3-4.1,5.2c-0.5,1.4-0.8,2.8-0.8,4.3c0,0.3,0,0.7,0,1
				v0.1c0,0.5,0.1,1.1,0.3,1.6c0.2,0.7,0.4,1.4,0.7,2c0.1,0.2,0.1,0.3,0.2,0.5c0.2,0.3,0.3,0.6,0.5,0.9c0.2,0.4,0.6,0.8,1,1.3
				s0.9,0.9,1.4,1.3l0.1,0.1c0.5,0.4,1,0.7,1.6,1c0.3,0.2,0.6,0.3,1,0.4c0.3,0.1,0.6,0.2,0.9,0.4c0.6,0.2,1.2,0.5,1.8,0.8h0.3
				L59.3,134.3z"/>
		</g>
	</g>
	<g>
		<g>
			<path class="st4" d="M174.1,122.6c0,0.2,0,0.4,0,0.6s0,0.4,0,0.6c0,0.3-0.1,0.5-0.1,0.8c0,0.2-0.1,0.4-0.1,0.6
				c-0.8,3.5-3.2,6.6-6.3,8c-0.4,0.2-0.8,0.3-1.2,0.5c-0.9,0.3-1.8,0.4-2.7,0.4c-2-0.1-3.9-0.9-5.5-2.2c-0.8-0.7-1.6-1.5-2.2-2.4
				c-0.4-0.5-0.7-1.1-0.9-1.7c-0.3-0.5-0.3-0.4-0.4-1c0,0.4,0,0.7,0.1,1.1c0.1,0.8,0.2,0.9,0.5,1.6c0.7,1.9,1.9,3.5,3.4,4.7
				c1,0.9,2.2,1.7,3.4,2.1l0,0c-2.9,2.9-7.9,8.8-9,15.5c-0.1,0.3-0.1,0.6-0.1,0.9c0-0.3-0.1-0.6-0.1-0.9c-0.5-3-1.8-5.9-3.4-8.5
				c-1.2-2-2.6-3.9-4.2-5.6c-0.9-1-1.8-1.9-2.8-2.6c-0.3-0.2-0.6-0.4-0.9-0.5l0,0c-0.9-0.5-1.8-0.7-2.8-1.1
				c-0.4-0.1-0.7-0.3-1.1-0.5c-0.6-0.3-1.1-0.7-1.6-1.1c0,0-0.1,0-0.1-0.1c-0.5-0.4-1-0.9-1.4-1.4c-0.4-0.4-0.7-0.9-1-1.4
				c-0.2-0.3-0.4-0.6-0.5-1c-0.1-0.2-0.2-0.3-0.2-0.5c-0.3-0.7-0.6-1.4-0.7-2.1c-0.1-0.6-0.2-1.1-0.3-1.7v-0.1
				c0-0.4-0.1-0.7-0.1-1.1c0-1.6,0.3-3.1,0.9-4.5c0.9-2.2,2.4-4.1,4.3-5.4c0.1-0.1,0.3-0.2,0.4-0.3c0.8-0.4,1.6-0.8,2.4-1
				c0.5-0.1,1-0.3,1.6-0.3c0.4,0,0.7-0.1,1.1-0.1c0.7,0,1.4,0.1,2,0.2c0.1,0,0.3,0.1,0.4,0.1c0.2,0.1,0.4,0.1,0.6,0.2
				c0.2,0.1,0.3,0.1,0.5,0.2s0.3,0.1,0.5,0.2c0.3,0.1,0.6,0.3,0.9,0.4c0.2,0.1,0.5,0.3,0.7,0.4c0.1,0,0.1,0.1,0.2,0.1
				c0.3,0.2,0.6,0.5,0.9,0.7c0.1,0.1,0.1,0.1,0.2,0.2l0.1,0.1c0.1,0.1,0.2,0.2,0.3,0.3c0.1,0.1,0.1,0.1,0.2,0.2
				c0.3,0.3,0.5,0.6,0.8,0.9c0.1,0.1,0.2,0.2,0.2,0.3c0.3,0.4,0.6,0.9,0.9,1.3c0.6,1,1,2.1,1.2,3.3c0.2,0.7,0.3,1.5,0.3,2.3
				c0-0.3,0-0.6,0.1-1c0-0.3,0.1-0.6,0.1-0.9c0.1-0.3,0.1-0.5,0.2-0.7c0-0.1,0-0.2,0.1-0.3c0-0.1,0.1-0.3,0.1-0.4
				c0-0.2,0.1-0.4,0.2-0.5c0.1-0.2,0.1-0.4,0.2-0.5c0.1-0.4,0.3-0.8,0.5-1.1c0.1-0.1,0.2-0.3,0.2-0.4c0.2-0.3,0.4-0.6,0.6-0.9
				c0.1-0.1,0.2-0.3,0.3-0.4c0.2-0.2,0.4-0.5,0.6-0.7c0.1-0.1,0.2-0.2,0.3-0.3c0.4-0.4,0.7-0.7,1.2-1c0.1-0.1,0.3-0.2,0.4-0.3
				c0.3-0.2,0.6-0.4,0.9-0.5c0.9-0.5,1.8-0.9,2.9-1.1c0.3-0.1,0.7-0.1,1-0.2l0,0c0.4,0,0.7-0.1,1.1-0.1c0.4,0,0.7,0,1.1,0.1
				c0.5,0.1,1.1,0.2,1.6,0.3c0.9,0.2,1.7,0.6,2.4,1c0.2,0.1,0.3,0.2,0.5,0.3c0.4,0.3,0.8,0.5,1.1,0.9c0.1,0.1,0.2,0.1,0.2,0.2
				c1.3,1.2,2.3,2.6,2.9,4.3C173.8,119.5,174.1,121,174.1,122.6z"/>
		</g>
		<g>
			<path class="st5" d="M152.7,155.5l-0.4-2.8c0-0.4-0.1-0.6-0.1-0.9c-0.5-2.7-1.6-5.6-3.3-8.4c-1.2-2-2.6-3.8-4.2-5.5
				c-0.8-0.8-1.7-1.8-2.8-2.6c-0.3-0.2-0.5-0.3-0.8-0.5l-0.2-0.1c-0.5-0.3-1.1-0.5-1.6-0.7c-0.3-0.1-0.6-0.2-0.9-0.4
				c-0.4-0.1-0.8-0.3-1.1-0.5c-0.6-0.3-1.2-0.7-1.7-1.1c-0.1-0.1-0.1-0.1-0.1-0.1c-0.5-0.4-0.9-0.8-1.4-1.4c-0.4-0.5-0.8-1-1-1.4
				c-0.2-0.3-0.4-0.6-0.6-1c-0.1-0.2-0.2-0.4-0.2-0.5c-0.3-0.7-0.6-1.4-0.7-2.2c-0.1-0.5-0.2-1.1-0.3-1.7v-0.1
				c0-0.4-0.1-0.7-0.1-1.1c0-1.6,0.3-3.2,0.9-4.6c0.9-2.3,2.5-4.2,4.4-5.5l0.2-0.1c0.1-0.1,0.2-0.1,0.3-0.2c0.8-0.5,1.6-0.8,2.5-1.1
				c0.6-0.2,1.1-0.3,1.6-0.3c0.3,0,0.7-0.1,1.1-0.1c0.7,0,1.4,0.1,2.1,0.2h0.1c0.1,0,0.2,0,0.3,0.1c0.2,0,0.4,0.1,0.6,0.2l0.5,0.2
				c0.1,0,0.2,0.1,0.4,0.1l0.1,0.1c0.3,0.1,0.6,0.3,0.9,0.4c0.2,0.1,0.5,0.3,0.7,0.4c0.1,0.1,0.2,0.1,0.2,0.2
				c0.3,0.2,0.6,0.5,0.9,0.7c0.1,0.1,0.1,0.1,0.2,0.1l0.2,0.2c0.1,0.1,0.1,0.1,0.2,0.2l0.1,0.1c0.3,0.3,0.6,0.7,0.9,1
				c0.1,0.1,0.2,0.2,0.2,0.3c0.3,0.5,0.6,0.9,0.9,1.4c0.5,0.9,0.9,1.9,1.1,2.9c0,0,0,0,0-0.1s0.1-0.3,0.1-0.4c0-0.2,0.1-0.4,0.2-0.5
				c0.1-0.2,0.1-0.4,0.2-0.5c0.1-0.4,0.3-0.8,0.5-1.1c0.1-0.1,0.2-0.3,0.2-0.4c0.2-0.4,0.4-0.7,0.6-1l0.1-0.2
				c0.1-0.1,0.1-0.2,0.2-0.3c0.2-0.2,0.4-0.5,0.6-0.7c0.1-0.1,0.2-0.2,0.3-0.3c0.4-0.4,0.8-0.8,1.2-1.1c0.1-0.1,0.3-0.2,0.4-0.3
				c0.3-0.2,0.6-0.4,0.9-0.6c0.9-0.5,1.9-0.9,3-1.1c0.3-0.1,0.7-0.1,1-0.2c0.7-0.1,1.7-0.1,2.3,0s1.1,0.2,1.6,0.3
				c0.9,0.2,1.7,0.6,2.5,1.1l0.1,0.1c0.1,0.1,0.2,0.1,0.3,0.2c0.5,0.3,0.8,0.6,1.2,0.9c0.1,0,0.2,0.1,0.2,0.2c1.3,1.2,2.4,2.7,3,4.4
				c0.6,1.5,0.9,3,0.9,4.6c0,0.2,0,0.4,0,0.6s0,0.4,0,0.6c0,0.3-0.1,0.5-0.1,0.8c0,0.2-0.1,0.4-0.1,0.7c-0.8,3.6-3.3,6.8-6.5,8.3
				c-0.4,0.2-0.8,0.3-1.2,0.5c-1,0.3-1.9,0.4-2.9,0.4c-2-0.1-4-0.9-5.7-2.3c-0.8-0.7-1.6-1.5-2.3-2.5c0.7,1.6,1.7,3.1,3.1,4.2
				c1,0.9,2.1,1.6,3.3,2.1l0.5,0.2l-0.4,0.4c-2.9,2.9-7.8,8.7-8.9,15.3c0,0.3-0.1,0.6-0.1,0.9L152.7,155.5z M141.6,134.3
				c0.3,0.1,0.5,0.3,0.7,0.5c1.2,0.8,2.2,1.9,2.9,2.7c1.6,1.8,3,3.6,4.3,5.6c1.5,2.5,2.6,5,3.2,7.5c1.4-6,5.7-11.2,8.5-14.1
				c-1.1-0.5-2.1-1.1-3-2c-1.5-1.3-2.7-3-3.5-4.9l-0.1-0.3c-0.2-0.5-0.3-0.7-0.4-1.3c-0.1-0.3-0.1-0.6-0.1-0.9v-0.3l-0.2-3.5
				l0.9,3.4c0.1,0.4,0.1,0.4,0.2,0.6c0,0.1,0.1,0.2,0.2,0.3c0.2,0.6,0.5,1.1,0.9,1.6c0.6,0.9,1.3,1.7,2.1,2.3
				c1.6,1.3,3.5,2.1,5.3,2.1c0.9,0,1.7-0.1,2.6-0.4c0.4-0.1,0.8-0.3,1.1-0.5c3-1.4,5.3-4.4,6.1-7.8c0-0.2,0.1-0.4,0.1-0.6
				c0-0.3,0.1-0.5,0.1-0.8c0-0.2,0-0.4,0-0.5c0-0.2,0-0.4,0-0.5c0-1.5-0.3-3-0.8-4.3c-0.6-1.6-1.6-3.1-2.8-4.2
				c-0.1-0.1-0.1-0.1-0.2-0.2c-0.4-0.3-0.7-0.6-1.1-0.8c-0.1,0-0.2-0.1-0.3-0.2l-0.1-0.1c-0.7-0.4-1.5-0.7-2.3-1
				c-0.5-0.1-1-0.2-1.5-0.3c-0.7-0.1-1.4-0.1-2.1,0c-0.3,0-0.7,0.1-1,0.2c-1,0.2-1.9,0.6-2.7,1c-0.3,0.1-0.5,0.3-0.8,0.5
				c-0.1,0.1-0.3,0.2-0.4,0.3c-0.4,0.3-0.8,0.6-1.1,1c-0.1,0.1-0.2,0.2-0.3,0.3c-0.2,0.2-0.4,0.5-0.6,0.7c-0.1,0.1-0.1,0.2-0.2,0.3
				l-0.1,0.2c-0.2,0.3-0.4,0.6-0.6,0.9c-0.1,0.1-0.1,0.3-0.2,0.4c-0.2,0.3-0.3,0.7-0.4,1c-0.1,0.2-0.1,0.3-0.2,0.5
				c-0.1,0.2-0.1,0.3-0.2,0.5c0,0.1-0.1,0.2-0.1,0.3v0.1v0.1l-0.2,0.8c0,0.3-0.1,0.6-0.1,0.9s0,0.6,0,0.9h-0.8
				c0-0.8-0.1-1.6-0.3-2.2c-0.2-1.1-0.6-2.2-1.2-3.2c-0.2-0.4-0.5-0.9-0.8-1.3c-0.1-0.1-0.1-0.2-0.2-0.3c-0.3-0.3-0.5-0.6-0.7-0.9
				l-0.1-0.1c-0.1-0.1-0.2-0.2-0.2-0.2l-0.2-0.1c-0.1-0.1-0.2-0.2-0.2-0.2c-0.3-0.2-0.6-0.5-0.9-0.7l-0.1-0.1
				c-0.3-0.2-0.5-0.3-0.7-0.4c-0.3-0.2-0.6-0.3-0.9-0.4l-0.1-0.1c-0.1,0-0.2-0.1-0.3-0.1l-0.4,0c-0.2-0.1-0.4-0.1-0.5-0.2
				c-0.1,0-0.2,0-0.2-0.1h-0.1c-1-0.2-2-0.3-3-0.1c-0.5,0-1,0.1-1.5,0.3c-0.8,0.2-1.6,0.6-2.3,1c-0.1,0.1-0.2,0.1-0.3,0.2l-0.2,0.1
				c-1.8,1.2-3.3,3-4.1,5.2c-0.5,1.4-0.8,2.8-0.8,4.3c0,0.3,0,0.7,0,1v0.1c0,0.5,0.1,1.1,0.3,1.6c0.2,0.7,0.4,1.4,0.7,2
				c0.1,0.2,0.1,0.3,0.2,0.5c0.2,0.3,0.3,0.6,0.5,0.9c0.2,0.4,0.6,0.8,1,1.3s0.9,0.9,1.4,1.3l0.1,0.1c0.5,0.4,1,0.7,1.6,1
				c0.3,0.2,0.6,0.3,1,0.4c0.3,0.1,0.6,0.2,0.9,0.4c0.6,0.2,1.2,0.5,1.8,0.8h0.3L141.6,134.3z"/>
		</g>
	</g>
	<g>
		<g>
			<path class="st4" d="M90.6,99.7c0-0.2,0-0.4,0-0.6s0-0.4,0-0.5c0-0.3,0.1-0.5,0.1-0.8c0-0.2,0.1-0.4,0.1-0.6
				c0.8-3.5,3.1-6.6,6.3-8c0.4-0.2,0.8-0.3,1.2-0.5c0.9-0.3,1.8-0.4,2.7-0.4c2,0.1,3.9,0.9,5.5,2.2c0.8,0.7,1.6,1.5,2.2,2.4
				c0.3,0.5,0.7,1.1,0.9,1.7c0.3,0.5,0.3,0.4,0.4,1c0-0.4,0-0.7-0.1-1.1c-0.1-0.8-0.2-0.9-0.5-1.6c-0.7-1.9-1.9-3.5-3.3-4.7
				c-1-0.9-2.1-1.7-3.4-2.1l0,0c2.8-2.9,7.9-8.8,9-15.4c0-0.3,0.1-0.6,0.1-0.9c0,0.3,0.1,0.6,0.1,0.9c0.5,3,1.8,5.9,3.4,8.4
				c1.2,2,2.6,3.8,4.2,5.6c0.9,0.9,1.8,1.9,2.8,2.6c0.3,0.2,0.6,0.4,0.9,0.5l0,0c0.9,0.5,1.8,0.7,2.8,1.1c0.4,0.1,0.7,0.3,1.1,0.5
				c0.6,0.3,1.1,0.7,1.6,1.1c0,0,0,0,0.1,0.1c0.5,0.4,1,0.9,1.4,1.4c0.4,0.4,0.7,0.9,1,1.4c0.2,0.3,0.4,0.6,0.5,0.9
				c0.1,0.2,0.2,0.3,0.2,0.5c0.3,0.7,0.5,1.4,0.7,2.1c0.1,0.5,0.2,1.1,0.3,1.7v0.1c0,0.3,0,0.7,0,1.1c0,1.6-0.3,3.1-0.8,4.4
				c-0.9,2.2-2.4,4.1-4.3,5.3c-0.1,0.1-0.3,0.2-0.4,0.3c-0.7,0.4-1.6,0.8-2.4,1c-0.5,0.1-1,0.2-1.6,0.3c-0.4,0-0.7,0.1-1.1,0.1
				c-0.7,0-1.4-0.1-2-0.2c-0.1,0-0.3,0-0.4-0.1c-0.2,0-0.4-0.1-0.6-0.2c-0.2,0-0.3-0.1-0.5-0.2c-0.2,0-0.3-0.1-0.5-0.2
				c-0.3-0.1-0.6-0.3-0.9-0.4c-0.2-0.1-0.5-0.3-0.7-0.4c-0.1,0-0.1-0.1-0.2-0.1c-0.3-0.2-0.6-0.5-0.9-0.7c-0.1-0.1-0.1-0.1-0.2-0.1
				c0,0,0,0-0.1-0.1s-0.2-0.2-0.3-0.3c-0.1-0.1-0.1-0.1-0.2-0.2c-0.3-0.3-0.5-0.6-0.8-0.9c-0.1-0.1-0.2-0.2-0.2-0.3
				c-0.3-0.4-0.6-0.9-0.9-1.3c-0.6-1-1-2.1-1.2-3.3c-0.2-0.7-0.2-1.5-0.3-2.3c0,0.3,0,0.6,0,1c0,0.3-0.1,0.6-0.1,0.9
				c0,0.2-0.1,0.5-0.1,0.7c0,0.1,0,0.2-0.1,0.2c0,0.1,0,0.2-0.1,0.4c0,0.2-0.1,0.3-0.2,0.5s-0.1,0.4-0.2,0.5
				c-0.1,0.4-0.3,0.7-0.5,1.1c-0.1,0.1-0.1,0.3-0.2,0.4c-0.2,0.3-0.4,0.6-0.6,0.9c-0.1,0.1-0.2,0.3-0.3,0.4
				c-0.2,0.2-0.4,0.5-0.6,0.7c-0.1,0.1-0.2,0.2-0.3,0.3c-0.4,0.4-0.7,0.7-1.1,1c-0.1,0.1-0.3,0.2-0.4,0.3c-0.3,0.2-0.6,0.4-0.9,0.5
				c-0.9,0.5-1.8,0.9-2.8,1.1c-0.3,0.1-0.7,0.1-1,0.2l0,0c-0.3,0-0.7,0.1-1.1,0.1s-0.7,0-1.1-0.1c-0.5,0-1.1-0.1-1.6-0.3
				c-0.8-0.2-1.6-0.6-2.4-1c-0.2-0.1-0.3-0.2-0.5-0.3c-0.4-0.3-0.8-0.5-1.1-0.9c-0.1-0.1-0.1-0.1-0.2-0.2c-1.3-1.1-2.3-2.6-2.9-4.3
				C90.9,102.8,90.6,101.3,90.6,99.7z"/>
		</g>
		<g>
			<path class="st5" d="M111.9,67l0.4,2.8c0,0.4,0.1,0.6,0.1,0.9c0.5,2.7,1.6,5.5,3.3,8.3c1.2,2,2.6,3.8,4.2,5.5
				c0.8,0.8,1.7,1.8,2.8,2.6c0.3,0.2,0.5,0.3,0.8,0.5l0.2,0.1c0.5,0.3,1,0.4,1.6,0.7c0.3,0.1,0.6,0.2,0.9,0.4
				c0.4,0.1,0.8,0.3,1.1,0.5c0.6,0.3,1.1,0.7,1.7,1.1c0.1,0.1,0.1,0.1,0.1,0.1c0.5,0.3,0.9,0.8,1.4,1.3c0.4,0.5,0.8,1,1,1.4
				c0.2,0.3,0.4,0.6,0.5,1c0.1,0.2,0.2,0.4,0.2,0.5c0.3,0.7,0.6,1.4,0.7,2.2c0.1,0.5,0.2,1.1,0.3,1.7v0.1c0,0.4,0.1,0.7,0.1,1.1
				c0,1.6-0.3,3.1-0.9,4.6c-0.9,2.3-2.4,4.2-4.4,5.5l-0.2,0.1c-0.1,0.1-0.2,0.1-0.3,0.2c-0.8,0.5-1.6,0.8-2.5,1.1
				c-0.6,0.2-1.1,0.3-1.6,0.3c-0.3,0-0.7,0.1-1.1,0.1c-0.7,0-1.4-0.1-2.1-0.2h-0.1c-0.1,0-0.2,0-0.3-0.1c-0.2,0-0.4-0.1-0.6-0.2
				l-0.5-0.2c-0.1,0-0.2-0.1-0.4-0.1l-0.1-0.1c-0.3-0.1-0.6-0.3-0.9-0.4c-0.2-0.1-0.5-0.3-0.7-0.4c-0.1-0.1-0.2-0.1-0.2-0.2
				c-0.3-0.2-0.6-0.5-0.9-0.7c-0.1-0.1-0.1-0.1-0.2-0.1l-0.2-0.2c-0.1-0.1-0.1-0.1-0.2-0.2l-0.1-0.1c-0.3-0.3-0.6-0.6-0.8-1
				c-0.1-0.1-0.2-0.2-0.2-0.3c-0.3-0.5-0.6-0.9-0.9-1.4c-0.5-0.9-0.9-1.9-1.1-2.9c0,0,0,0,0,0.1s-0.1,0.3-0.1,0.4
				c0,0.2-0.1,0.4-0.2,0.5c-0.1,0.2-0.1,0.4-0.2,0.5c-0.1,0.4-0.3,0.8-0.5,1.1c-0.1,0.1-0.1,0.3-0.2,0.4c-0.2,0.4-0.4,0.7-0.6,1
				l-0.1,0.2c-0.1,0.1-0.1,0.2-0.2,0.3c-0.2,0.2-0.4,0.5-0.6,0.7c-0.1,0.1-0.2,0.2-0.3,0.3c-0.4,0.4-0.8,0.8-1.2,1.1
				c-0.1,0.1-0.3,0.2-0.4,0.3c-0.3,0.2-0.6,0.4-0.9,0.6c-0.9,0.5-1.9,0.9-2.9,1.1c-0.3,0.1-0.7,0.1-1,0.2c-0.7,0.1-1.7,0.1-2.3,0
				c-0.6-0.1-1.1-0.2-1.6-0.3c-0.9-0.2-1.7-0.6-2.5-1.1l-0.1-0.1c-0.1-0.1-0.2-0.1-0.3-0.2c-0.5-0.3-0.8-0.6-1.2-0.9
				c-0.1,0-0.2-0.1-0.2-0.2c-1.3-1.2-2.3-2.7-3-4.4c-0.6-1.5-0.9-3-0.9-4.6c0-0.2,0-0.4,0-0.6s0-0.4,0-0.5c0-0.3,0.1-0.5,0.1-0.8
				c0-0.2,0.1-0.4,0.1-0.7c0.8-3.6,3.3-6.8,6.5-8.3c0.4-0.2,0.8-0.3,1.2-0.5c1-0.3,1.9-0.4,2.9-0.4c2,0.1,4,0.9,5.7,2.3
				c0.8,0.7,1.6,1.5,2.2,2.5c-0.7-1.6-1.7-3-3.1-4.2c-1-0.9-2.1-1.6-3.3-2.1l-0.5-0.2l0.4-0.4c2.8-2.9,7.8-8.7,8.9-15.2
				c0-0.3,0.1-0.6,0.1-0.9L111.9,67z M122.9,88.1c-0.3-0.1-0.5-0.3-0.7-0.5c-1.2-0.8-2.1-1.9-2.9-2.7c-1.6-1.8-3-3.6-4.2-5.6
				c-1.5-2.5-2.6-5-3.2-7.4c-1.4,6-5.7,11.2-8.5,14c1.1,0.5,2.1,1.1,3,2c1.5,1.3,2.7,2.9,3.4,4.8l0.1,0.3c0.2,0.5,0.3,0.7,0.4,1.3
				c0.1,0.3,0.1,0.6,0.1,0.9v0.3l0.2,3.5l-0.9-3.4c-0.1-0.4-0.1-0.4-0.2-0.6c0-0.1-0.1-0.2-0.2-0.3c-0.2-0.5-0.5-1.1-0.9-1.6
				c-0.6-0.9-1.3-1.7-2.1-2.3c-1.6-1.3-3.4-2.1-5.3-2.1c-0.9,0-1.7,0.1-2.6,0.4c-0.4,0.1-0.8,0.3-1.1,0.5c-3,1.4-5.3,4.4-6.1,7.7
				c0,0.2-0.1,0.4-0.1,0.6c0,0.3-0.1,0.5-0.1,0.8c0,0.2,0,0.4,0,0.5c0,0.2,0,0.4,0,0.5c0,1.5,0.3,2.9,0.8,4.3c0.6,1.6,1.6,3,2.8,4.2
				c0.1,0.1,0.1,0.1,0.2,0.2c0.4,0.3,0.7,0.6,1.1,0.8c0.1,0,0.2,0.1,0.3,0.2l0.1,0.1c0.7,0.4,1.5,0.7,2.3,1c0.5,0.1,1,0.2,1.5,0.3
				c0.7,0.1,1.4,0.1,2.1,0c0.3,0,0.7-0.1,1-0.2c1-0.2,1.9-0.5,2.7-1c0.3-0.1,0.5-0.3,0.8-0.5c0.1-0.1,0.3-0.2,0.4-0.3
				c0.4-0.3,0.7-0.6,1.1-1c0.1-0.1,0.2-0.2,0.3-0.3c0.2-0.2,0.4-0.5,0.6-0.7c0.1-0.1,0.1-0.2,0.2-0.3l0.1-0.2
				c0.2-0.3,0.4-0.6,0.6-0.9c0.1-0.1,0.1-0.3,0.2-0.4c0.2-0.3,0.3-0.7,0.4-1c0.1-0.2,0.1-0.3,0.2-0.5s0.1-0.3,0.2-0.5
				c0-0.1,0.1-0.2,0.1-0.3v-0.1v-0.1l0.2-0.8c0-0.3,0.1-0.6,0.1-0.8c0-0.3,0-0.6,0-0.9h0.7c0,0.8,0.1,1.6,0.3,2.2
				c0.2,1.1,0.6,2.2,1.2,3.2c0.2,0.4,0.5,0.8,0.8,1.3c0.1,0.1,0.1,0.2,0.2,0.3c0.3,0.3,0.5,0.6,0.7,0.9l0.1,0.1
				c0.1,0.1,0.2,0.2,0.2,0.2l0.2,0.1c0.1,0.1,0.2,0.2,0.2,0.2c0.3,0.2,0.6,0.5,0.9,0.7l0.1,0.1c0.3,0.2,0.5,0.3,0.7,0.4
				c0.3,0.2,0.6,0.3,0.9,0.4l0.1,0.1c0.1,0,0.2,0.1,0.3,0.1l0.5,0.2c0.2,0.1,0.4,0.1,0.5,0.2c0.1,0,0.2,0,0.2,0.1h0.1
				c1,0.2,2,0.2,3,0.1c0.5,0,0.9-0.1,1.5-0.3c0.8-0.2,1.6-0.6,2.3-1c0.1-0.1,0.2-0.1,0.3-0.2l0.2-0.1c1.8-1.2,3.3-3,4.1-5.1
				c0.5-1.4,0.8-2.8,0.8-4.3c0-0.3,0-0.7,0-1v-0.1c0-0.5-0.1-1.1-0.3-1.6c-0.2-0.7-0.4-1.4-0.7-2c-0.1-0.2-0.1-0.3-0.2-0.5
				c-0.2-0.3-0.3-0.6-0.5-0.9c-0.2-0.4-0.5-0.8-1-1.3c-0.4-0.5-0.9-0.9-1.3-1.3l-0.1-0.1c-0.5-0.4-1-0.7-1.6-1
				c-0.3-0.2-0.6-0.3-1-0.4c-0.3-0.1-0.6-0.2-0.9-0.4c-0.6-0.2-1.2-0.4-1.8-0.7h-0.3L122.9,88.1z"/>
		</g>
	</g>
</g>
</svg>
