<?xml version="1.0" encoding="utf-8"?>
<!-- Generator: Adobe Illustrator 25.2.0, SVG Export Plug-In . SVG Version: 6.00 Build 0)  -->
<svg version="1.1" id="Layer_1" xmlns="http://www.w3.org/2000/svg" xmlns:xlink="http://www.w3.org/1999/xlink" x="0px" y="0px"
	 viewBox="0 0 224.2 312.8" style="enable-background:new 0 0 224.2 312.8;" xml:space="preserve">
<style type="text/css">
	.st0{opacity:2.000000e-02;enable-background:new    ;}
	.st1{opacity:5.000000e-02;enable-background:new    ;}
	.st2{fill:#B20033;}
	.st3{fill:#050307;}
	.st4{enable-background:new    ;}
	.st5{fill:none;stroke:#000000;stroke-miterlimit:10;}
</style>
<g>
	<g>
		<g class="st0">
			<rect x="-0.2" y="0.7" width="224.4" height="312.1"/>
		</g>
		<g class="st0">
			<rect x="-0.2" y="0.7" width="224.4" height="312.1"/>
		</g>
		<g class="st1">
			<path d="M173.4,283.5H50.6c-4.2,0-7.5-3.4-7.5-7.5V37.6c0-4.2,3.4-7.5,7.5-7.5h122.9c4.2,0,7.5,3.4,7.5,7.5V276
				C181,280.1,177.6,283.5,173.4,283.5z"/>
		</g>
		<g>
			<g>
				<path class="st2" d="M37.7,39.6c0,0.1,0,0.3,0,0.4c0,0.1,0,0.3,0,0.4c0,0.2,0,0.4-0.1,0.6c0,0.2-0.1,0.3-0.1,0.5
					c-0.6,2.6-2.3,4.9-4.7,5.9c-0.3,0.1-0.6,0.3-0.9,0.4c-0.7,0.2-1.3,0.3-2,0.3c-1.5,0-2.9-0.7-4.1-1.6c-0.6-0.5-1.2-1.1-1.6-1.8
					c-0.3-0.4-0.5-0.8-0.7-1.2s-0.2-0.3-0.3-0.8c0,0.3,0,0.6,0.1,0.8c0.1,0.6,0.2,0.6,0.3,1.2c0.5,1.4,1.4,2.6,2.5,3.5
					c0.7,0.7,1.6,1.2,2.5,1.6l0,0c-2.1,2.1-5.8,6.5-6.7,11.4c0,0.2-0.1,0.4-0.1,0.7c0-0.2-0.1-0.5-0.1-0.7c-0.4-2.2-1.3-4.4-2.5-6.3
					c-0.9-1.5-2-2.8-3.1-4.1c-0.6-0.7-1.3-1.4-2.1-1.9c-0.2-0.2-0.4-0.3-0.7-0.4l0,0c-0.7-0.3-1.3-0.5-2.1-0.8
					c-0.3-0.1-0.5-0.2-0.8-0.3c-0.4-0.2-0.8-0.5-1.2-0.8c0,0,0,0-0.1-0.1c-0.4-0.3-0.7-0.6-1-1c-0.3-0.3-0.5-0.7-0.7-1
					C7.3,44.3,7.1,44,7,43.8c-0.1-0.1-0.1-0.2-0.2-0.4c-0.2-0.5-0.4-1-0.5-1.6c-0.1-0.4-0.2-0.8-0.2-1.3c0,0,0,0,0-0.1
					c0-0.3,0-0.5,0-0.8c0-1.2,0.2-2.3,0.6-3.3c0.6-1.7,1.8-3,3.2-4c0.1-0.1,0.2-0.1,0.3-0.2c0.6-0.3,1.2-0.6,1.8-0.8
					c0.4-0.1,0.8-0.2,1.2-0.2c0.3,0,0.5-0.1,0.8-0.1c0.5,0,1,0.1,1.5,0.2c0.1,0,0.2,0,0.3,0.1c0.1,0,0.3,0.1,0.4,0.1
					s0.2,0.1,0.3,0.1c0.1,0,0.2,0.1,0.3,0.1c0.2,0.1,0.4,0.2,0.7,0.3c0.2,0.1,0.4,0.2,0.5,0.3l0.1,0.1c0.2,0.2,0.5,0.3,0.7,0.5
					l0.1,0.1c0,0,0,0,0.1,0.1s0.2,0.1,0.2,0.2l0.1,0.1c0.2,0.2,0.4,0.4,0.6,0.7c0.1,0.1,0.1,0.1,0.2,0.2c0.2,0.3,0.4,0.6,0.6,1
					c0.4,0.7,0.7,1.6,0.9,2.4c0.1,0.5,0.2,1.1,0.2,1.7c0-0.2,0-0.5,0-0.7s0.1-0.4,0.1-0.7c0-0.2,0.1-0.4,0.1-0.5s0-0.1,0-0.2
					c0-0.1,0-0.2,0.1-0.3c0-0.1,0.1-0.3,0.1-0.4c0-0.1,0.1-0.3,0.1-0.4c0.1-0.3,0.2-0.6,0.4-0.8c0.1-0.1,0.1-0.2,0.2-0.3
					c0.1-0.2,0.3-0.5,0.4-0.7c0.1-0.1,0.1-0.2,0.2-0.3c0.1-0.2,0.3-0.4,0.4-0.5s0.1-0.1,0.2-0.2c0.3-0.3,0.5-0.5,0.9-0.7
					c0.1-0.1,0.2-0.2,0.3-0.2c0.2-0.1,0.4-0.3,0.6-0.4c0.7-0.4,1.4-0.7,2.1-0.8c0.2,0,0.5-0.1,0.7-0.1l0,0c0.3,0,0.5-0.1,0.8-0.1
					s0.5,0,0.8,0.1c0.4,0,0.8,0.1,1.2,0.2c0.6,0.2,1.2,0.4,1.8,0.8c0.1,0.1,0.2,0.1,0.3,0.2c0.3,0.2,0.6,0.4,0.8,0.6
					c0.1,0,0.1,0.1,0.2,0.1c0.9,0.9,1.7,1.9,2.2,3.2C37.5,37.3,37.7,38.4,37.7,39.6z"/>
			</g>
			<g>
				<path class="st3" d="M21.9,63.9l-0.3-2.1c0-0.3-0.1-0.5-0.1-0.7c-0.3-2-1.2-4.1-2.5-6.2c-0.9-1.5-1.9-2.8-3.1-4.1
					c-0.6-0.6-1.2-1.3-2.1-1.9c-0.2-0.1-0.4-0.3-0.6-0.4L13,48.4c-0.4-0.2-0.8-0.3-1.2-0.5c-0.2-0.1-0.5-0.2-0.7-0.3
					c-0.3-0.1-0.6-0.2-0.8-0.4c-0.4-0.2-0.9-0.5-1.2-0.8L9,46.3c-0.3-0.3-0.7-0.6-1-1s-0.6-0.7-0.8-1.1c-0.1-0.2-0.3-0.5-0.4-0.7
					c-0.1-0.1-0.1-0.3-0.2-0.4c-0.2-0.5-0.4-1-0.5-1.6c0-0.2-0.1-0.6-0.1-1.1v-0.1c0-0.3,0-0.5,0-0.8c0-1.2,0.2-2.3,0.6-3.4
					C7.3,34.4,8.4,33,9.9,32l0.1,0c0.1,0,0.1-0.1,0.2-0.1c0.6-0.3,1.2-0.6,1.9-0.8c0.4-0.1,0.8-0.2,1.2-0.2c0.2,0,0.5-0.1,0.8-0.1
					c0.5,0,1,0.1,1.6,0.2h0.1c0.1,0,0.1,0,0.2,0.1c0.1,0,0.3,0.1,0.4,0.1l0.3,0.1c0.1,0,0.2,0.1,0.3,0.1h0.1
					c0.2,0.1,0.5,0.2,0.7,0.3c0.2,0.1,0.4,0.2,0.5,0.3s0.1,0.1,0.2,0.1c0.2,0.2,0.5,0.3,0.7,0.5c0.1,0.1,0.1,0.1,0.1,0.1l0.2,0.1
					c0.1,0,0.1,0.1,0.2,0.1l0.1,0.1c0.3,0.3,0.4,0.5,0.6,0.7c0.1,0.1,0.1,0.1,0.2,0.2c0.3,0.3,0.5,0.7,0.7,1
					c0.4,0.7,0.7,1.4,0.8,2.1c0,0,0,0,0-0.1s0-0.2,0.1-0.3c0-0.1,0.1-0.3,0.1-0.4c0-0.1,0.1-0.3,0.1-0.4c0.1-0.3,0.2-0.6,0.4-0.8
					c0.1-0.1,0.1-0.2,0.2-0.3c0.1-0.3,0.3-0.5,0.5-0.7l0.1-0.1c0.1-0.1,0.1-0.1,0.2-0.2c0.1-0.2,0.3-0.4,0.5-0.5
					c0.1-0.1,0.1-0.1,0.2-0.2c0.3-0.3,0.6-0.6,0.9-0.8c0.1-0.1,0.2-0.2,0.3-0.2c0.2-0.2,0.4-0.3,0.7-0.4c0.7-0.4,1.4-0.7,2.2-0.8
					c0.2,0,0.5-0.1,0.8-0.1c0.5-0.1,1.2,0,1.7,0c0.4,0,0.8,0.1,1.2,0.2c0.6,0.2,1.3,0.4,1.8,0.8l0.1,0.1C33.9,32,34,32,34.1,32
					c0.3,0.2,0.6,0.4,0.9,0.7c0.1,0,0.1,0.1,0.2,0.2c1,0.9,1.7,2,2.2,3.3c0.4,1.1,0.6,2.2,0.6,3.4c0,0.1,0,0.3,0,0.4
					c0,0.1,0,0.3,0,0.4c0,0.2,0,0.4-0.1,0.6c0,0.2-0.1,0.3-0.1,0.5c-0.6,2.7-2.4,5-4.8,6.1c-0.3,0.1-0.6,0.3-0.9,0.4
					c-0.7,0.2-1.4,0.3-2.1,0.3c-1.5,0-3-0.6-4.2-1.7c-0.6-0.5-1.2-1.1-1.7-1.8c0.5,1.2,1.3,2.3,2.3,3.1c0.8,0.7,1.6,1.2,2.4,1.5
					l0.4,0.2l-0.3,0.3c-2.1,2.1-5.8,6.4-6.6,11.3c0,0.2-0.1,0.4-0.1,0.6L21.9,63.9z M13.7,48.2c0.2,0.1,0.4,0.2,0.5,0.3
					c0.9,0.6,1.6,1.4,2.1,2c1.2,1.3,2.2,2.7,3.2,4.2c1.1,1.8,1.9,3.7,2.4,5.5c1.1-4.4,4.2-8.3,6.3-10.4c-0.8-0.3-1.5-0.8-2.2-1.5
					c-1.1-0.9-2-2.2-2.6-3.6l-0.1-0.2c-0.1-0.3-0.2-0.5-0.3-1c0-0.2,0-0.4-0.1-0.6v-0.2V40l0.7,2.5c0.1,0.3,0.1,0.3,0.2,0.5
					c0,0.1,0.1,0.1,0.1,0.2c0.2,0.4,0.4,0.8,0.7,1.2c0.5,0.7,1,1.3,1.6,1.7c1.2,1,2.6,1.5,3.9,1.6c0.6,0,1.3-0.1,1.9-0.3
					c0.3-0.1,0.6-0.2,0.8-0.4c2.2-1,3.9-3.2,4.5-5.8c0-0.2,0.1-0.3,0.1-0.4c0-0.2,0.1-0.4,0.1-0.6c0-0.1,0-0.3,0-0.4
					c0-0.1,0-0.3,0-0.4c0-1.1-0.2-2.2-0.6-3.2c-0.5-1.2-1.2-2.3-2.1-3.1C34.7,33,34.7,33,34.7,33c-0.3-0.2-0.5-0.4-0.8-0.6
					c-0.1,0-0.2-0.1-0.3-0.2h-0.1c-0.5-0.3-1.1-0.6-1.7-0.7c-0.4-0.1-0.7-0.2-1.1-0.2c-0.5-0.1-1-0.1-1.5,0c-0.3,0-0.5,0.1-0.7,0.1
					c-0.7,0.1-1.4,0.4-2,0.8c-0.2,0.1-0.4,0.2-0.6,0.4c-0.1,0.1-0.2,0.1-0.3,0.2c-0.3,0.2-0.6,0.5-0.8,0.7c-0.1,0.1-0.1,0.1-0.2,0.2
					c-0.1,0.2-0.3,0.3-0.4,0.5c0,0.1-0.1,0.1-0.1,0.2L24,34.5c-0.1,0.2-0.3,0.4-0.4,0.7c-0.1,0.1-0.1,0.2-0.2,0.3
					c-0.1,0.2-0.2,0.5-0.3,0.8C23,36.4,23,36.6,23,36.7c-0.1,0.1-0.1,0.2-0.1,0.4c0,0.1-0.1,0.2-0.1,0.3v0.1c0,0,0,0,0,0.1l-0.1,0.6
					c0,0.2-0.1,0.4-0.1,0.6c0,0.2,0,0.5,0,0.7H22c0-0.6-0.1-1.2-0.2-1.6c-0.2-0.8-0.5-1.6-0.9-2.4c-0.2-0.3-0.4-0.6-0.6-1
					c0-0.1-0.1-0.1-0.2-0.2c-0.2-0.2-0.4-0.5-0.6-0.6l-0.1-0.1c-0.1-0.1-0.1-0.1-0.2-0.2L19,33.3c-0.1-0.1-0.1-0.1-0.2-0.2
					c-0.2-0.2-0.4-0.3-0.7-0.5c0,0-0.1,0-0.1-0.1c-0.2-0.1-0.4-0.2-0.5-0.3c-0.2-0.1-0.4-0.2-0.6-0.3h-0.1c-0.1,0-0.1-0.1-0.2-0.1
					l-0.3-0.1c-0.1,0-0.3-0.1-0.4-0.1c-0.1,0-0.1,0-0.2,0h-0.1c-0.8-0.2-1.5-0.2-2.2-0.1c-0.4,0-0.7,0.1-1.1,0.2
					c-0.6,0.2-1.2,0.4-1.7,0.7c-0.1,0-0.1,0.1-0.2,0.1l-0.1,0.1c-1.4,0.9-2.4,2.2-3.1,3.8c-0.4,1-0.6,2.1-0.6,3.2c0,0.3,0,0.5,0,0.8
					v0.1c0,0.4,0.1,0.8,0.2,1.2c0.1,0.5,0.3,1,0.5,1.5c0.1,0.1,0.1,0.3,0.2,0.4c0.1,0.2,0.3,0.5,0.4,0.7c0.2,0.3,0.4,0.6,0.7,1
					s0.6,0.7,1,1l0.1,0.1c0.4,0.3,0.8,0.6,1.2,0.8c0.2,0.1,0.5,0.2,0.8,0.3c0.2,0.1,0.5,0.2,0.7,0.3c0.5,0.2,0.9,0.3,1.3,0.6h0.2
					L13.7,48.2z"/>
			</g>
		</g>
		<g>
			<g>
				<path class="st2" d="M186,274.8c0-0.1,0-0.3,0-0.4s0-0.3,0-0.4c0-0.2,0-0.4,0.1-0.6c0-0.2,0.1-0.3,0.1-0.5
					c0.6-2.6,2.3-4.8,4.6-5.9c0.3-0.1,0.6-0.2,0.9-0.4c0.6-0.2,1.3-0.3,2-0.3c1.5,0,2.9,0.6,4,1.6c0.6,0.5,1.2,1.1,1.6,1.8
					c0.3,0.4,0.5,0.8,0.7,1.2c0.2,0.4,0.2,0.3,0.3,0.8c0-0.3,0-0.5-0.1-0.8c-0.1-0.6-0.2-0.6-0.3-1.1c-0.5-1.4-1.4-2.6-2.4-3.4
					c-0.7-0.7-1.6-1.2-2.5-1.6l0,0c2.1-2.1,5.8-6.4,6.6-11.3c0-0.2,0.1-0.4,0.1-0.6c0,0.2,0.1,0.4,0.1,0.7c0.4,2.2,1.3,4.3,2.5,6.2
					c0.9,1.5,1.9,2.8,3.1,4.1c0.6,0.7,1.3,1.4,2.1,1.9c0.2,0.2,0.4,0.3,0.6,0.4l0,0c0.6,0.3,1.3,0.5,2,0.8c0.3,0.1,0.5,0.2,0.8,0.3
					c0.4,0.2,0.8,0.5,1.2,0.8c0,0,0,0,0.1,0.1c0.4,0.3,0.7,0.6,1,1c0.3,0.3,0.5,0.6,0.7,1c0.1,0.2,0.3,0.5,0.4,0.7
					c0.1,0.1,0.1,0.2,0.2,0.4c0.2,0.5,0.4,1,0.5,1.5c0.1,0.4,0.2,0.8,0.2,1.2c0,0,0,0,0,0.1c0,0.3,0,0.5,0,0.8
					c0,1.2-0.2,2.3-0.6,3.3c-0.6,1.6-1.7,3-3.1,3.9c-0.1,0.1-0.2,0.1-0.3,0.2c-0.5,0.3-1.1,0.6-1.8,0.7c-0.4,0.1-0.8,0.2-1.1,0.2
					s-0.5,0.1-0.8,0.1c-0.5,0-1-0.1-1.5-0.2c-0.1,0-0.2,0-0.3-0.1c-0.1,0-0.3-0.1-0.4-0.1c-0.1,0-0.2-0.1-0.3-0.1s-0.2-0.1-0.3-0.1
					c-0.2-0.1-0.4-0.2-0.6-0.3c-0.2-0.1-0.4-0.2-0.5-0.3l-0.1-0.1c-0.2-0.2-0.5-0.3-0.7-0.5l-0.1-0.1c0,0,0,0-0.1-0.1
					s-0.2-0.1-0.2-0.2l-0.1-0.1c-0.2-0.2-0.4-0.4-0.6-0.6c-0.1-0.1-0.1-0.1-0.2-0.2c-0.2-0.3-0.4-0.6-0.6-1
					c-0.4-0.7-0.7-1.5-0.9-2.4c-0.1-0.5-0.2-1.1-0.2-1.7c0,0.2,0,0.5,0,0.7s-0.1,0.4-0.1,0.6s-0.1,0.4-0.1,0.5s0,0.1,0,0.2
					s0,0.2-0.1,0.3c0,0.1-0.1,0.3-0.1,0.4s-0.1,0.3-0.1,0.4c-0.1,0.3-0.2,0.5-0.4,0.8c-0.1,0.1-0.1,0.2-0.2,0.3
					c-0.1,0.2-0.3,0.5-0.4,0.7c-0.1,0.1-0.1,0.2-0.2,0.3c-0.1,0.2-0.3,0.4-0.4,0.5c-0.1,0.1-0.1,0.1-0.2,0.2
					c-0.3,0.3-0.5,0.5-0.8,0.7c-0.1,0.1-0.2,0.2-0.3,0.2c-0.2,0.1-0.4,0.3-0.6,0.4c-0.6,0.4-1.3,0.6-2.1,0.8c-0.2,0-0.5,0.1-0.7,0.1
					l0,0c-0.3,0-0.5,0.1-0.8,0.1s-0.5,0-0.8-0.1c-0.4,0-0.8-0.1-1.2-0.2c-0.6-0.2-1.2-0.4-1.8-0.7c-0.1-0.1-0.2-0.1-0.3-0.2
					c-0.3-0.2-0.6-0.4-0.8-0.6c-0.1,0-0.1-0.1-0.2-0.1c-0.9-0.8-1.7-1.9-2.1-3.1C186.3,277.1,186,276,186,274.8z"/>
			</g>
			<g>
				<path class="st3" d="M201.6,250.8l0.3,2c0,0.3,0.1,0.5,0.1,0.7c0.3,2,1.2,4,2.4,6.1c0.9,1.5,1.9,2.8,3,4c0.6,0.6,1.2,1.3,2,1.9
					c0.2,0.1,0.4,0.3,0.6,0.4l0.2,0.1c0.4,0.2,0.8,0.3,1.2,0.5c0.2,0.1,0.5,0.2,0.7,0.3c0.3,0.1,0.6,0.2,0.8,0.3
					c0.4,0.2,0.8,0.5,1.2,0.8l0.1,0.1c0.3,0.3,0.7,0.6,1,1s0.6,0.7,0.7,1c0.1,0.2,0.3,0.5,0.4,0.7c0.1,0.1,0.1,0.3,0.2,0.4
					c0.2,0.5,0.4,1,0.5,1.6c0.1,0.4,0.2,0.8,0.2,1.3v0.1c0,0.3,0,0.5,0,0.8c0,1.2-0.2,2.3-0.6,3.4c-0.6,1.7-1.8,3.1-3.2,4l-0.1,0.1
					c-0.1,0-0.1,0.1-0.2,0.1c-0.6,0.3-1.2,0.6-1.8,0.8c-0.4,0.1-0.8,0.2-1.2,0.2c-0.2,0-0.5,0.1-0.8,0.1c-0.5,0-1-0.1-1.5-0.2h-0.1
					c-0.1,0-0.1,0-0.2-0.1c-0.1,0-0.3-0.1-0.4-0.1l-0.3-0.1c-0.1,0-0.2-0.1-0.3-0.1h-0.1c-0.2-0.1-0.5-0.2-0.7-0.3
					c-0.2-0.1-0.3-0.2-0.5-0.3c-0.1-0.1-0.1-0.1-0.2-0.1c-0.2-0.2-0.5-0.3-0.7-0.5c-0.1-0.1-0.1-0.1-0.1-0.1l-0.2-0.1
					c-0.1,0-0.1-0.1-0.1-0.1l-0.1-0.1c-0.2-0.3-0.4-0.5-0.6-0.7c-0.1-0.1-0.1-0.1-0.2-0.2c-0.2-0.3-0.5-0.7-0.6-1
					c-0.4-0.7-0.6-1.4-0.8-2.1c0,0,0,0,0,0.1s0,0.2-0.1,0.3c0,0.1-0.1,0.3-0.1,0.4s-0.1,0.3-0.1,0.4c-0.1,0.3-0.2,0.6-0.4,0.8
					c-0.1,0.1-0.1,0.2-0.2,0.3c-0.1,0.3-0.3,0.5-0.4,0.7l-0.1,0.1c0,0.1-0.1,0.1-0.2,0.2c-0.1,0.2-0.3,0.4-0.5,0.5
					c-0.1,0.1-0.1,0.1-0.2,0.2c-0.3,0.3-0.6,0.6-0.9,0.8c-0.1,0.1-0.2,0.2-0.3,0.2c-0.2,0.2-0.4,0.3-0.6,0.4
					c-0.7,0.4-1.4,0.7-2.2,0.8c-0.2,0-0.5,0.1-0.7,0.1c-0.5,0.1-1.2,0-1.7,0c-0.4,0-0.8-0.1-1.2-0.2c-0.6-0.2-1.2-0.4-1.8-0.8
					l-0.1-0.1c-0.1-0.1-0.2-0.1-0.2-0.1c-0.3-0.2-0.6-0.4-0.9-0.7c-0.1,0-0.1-0.1-0.2-0.1c-0.9-0.9-1.7-2-2.2-3.2
					c-0.4-1.1-0.6-2.2-0.6-3.4c0-0.1,0-0.3,0-0.4s0-0.3,0-0.4c0-0.2,0-0.4,0.1-0.6c0-0.2,0.1-0.3,0.1-0.5c0.6-2.6,2.4-5,4.7-6.1
					c0.3-0.1,0.6-0.3,0.9-0.4c0.7-0.2,1.4-0.3,2.1-0.3c1.5,0,2.9,0.6,4.2,1.7c0.6,0.5,1.2,1.1,1.6,1.8c-0.5-1.2-1.3-2.2-2.3-3.1
					c-0.8-0.7-1.6-1.2-2.4-1.5l-0.4-0.1l0.3-0.3c2.1-2.1,5.7-6.3,6.5-11.1c0-0.2,0.1-0.4,0.1-0.6L201.6,250.8z M209.7,266.3
					c-0.2-0.1-0.4-0.2-0.5-0.3c-0.8-0.6-1.6-1.4-2.1-1.9c-1.2-1.3-2.2-2.6-3.1-4.1c-1.1-1.8-1.9-3.6-2.3-5.4
					c-1,4.4-4.2,8.2-6.2,10.3c0.8,0.3,1.5,0.8,2.2,1.5c1.1,0.9,2,2.2,2.5,3.5l0.1,0.2c0.1,0.3,0.2,0.5,0.3,1c0,0.2,0,0.4,0.1,0.6
					v0.2l0.1,2.6l-0.7-2.5c-0.1-0.3-0.1-0.3-0.2-0.5c0-0.1-0.1-0.1-0.1-0.2c-0.2-0.4-0.4-0.8-0.6-1.2c-0.5-0.7-1-1.2-1.6-1.7
					c-1.2-1-2.5-1.5-3.8-1.5c-0.6,0-1.3,0.1-1.9,0.3c-0.3,0.1-0.6,0.2-0.8,0.4c-2.2,1-3.9,3.2-4.4,5.7c0,0.1-0.1,0.3-0.1,0.4
					c0,0.2-0.1,0.4-0.1,0.6c0,0.1,0,0.3,0,0.4s0,0.3,0,0.4c0,1.1,0.2,2.2,0.6,3.2c0.5,1.2,1.2,2.2,2.1,3c0.1,0,0.1,0.1,0.1,0.1
					c0.3,0.2,0.5,0.4,0.8,0.6c0.1,0,0.2,0.1,0.3,0.2h0.1c0.5,0.3,1.1,0.5,1.7,0.7c0.4,0.1,0.7,0.2,1.1,0.2c0.5,0.1,1,0.1,1.5,0
					c0.3,0,0.5-0.1,0.7-0.1c0.7-0.1,1.4-0.4,2-0.8c0.2-0.1,0.4-0.2,0.6-0.4c0.1-0.1,0.2-0.1,0.3-0.2c0.3-0.2,0.5-0.4,0.8-0.7
					c0.1-0.1,0.1-0.1,0.2-0.2c0.1-0.2,0.3-0.3,0.4-0.5c0-0.1,0.1-0.1,0.1-0.2l0.1-0.1c0.1-0.2,0.3-0.4,0.4-0.6
					c0.1-0.1,0.1-0.2,0.2-0.3c0.1-0.2,0.2-0.5,0.3-0.8c0.1-0.1,0.1-0.2,0.1-0.4c0.1-0.1,0.1-0.2,0.1-0.4c0-0.1,0.1-0.2,0.1-0.3V277
					c0,0,0,0,0-0.1l0.1-0.6c0-0.2,0.1-0.4,0.1-0.6s0-0.5,0-0.7h0.5c0,0.6,0.1,1.1,0.2,1.6c0.2,0.8,0.4,1.6,0.8,2.3
					c0.2,0.3,0.4,0.6,0.6,0.9c0,0.1,0.1,0.1,0.2,0.2c0.2,0.2,0.4,0.4,0.5,0.6l0.1,0.1c0.1,0.1,0.1,0.1,0.2,0.1l0.1,0.1
					c0.1,0.1,0.1,0.1,0.2,0.2c0.2,0.2,0.4,0.3,0.7,0.5c0,0,0.1,0,0.1,0.1c0.2,0.1,0.4,0.2,0.5,0.3c0.2,0.1,0.4,0.2,0.6,0.3h0.1
					c0.1,0,0.1,0.1,0.2,0.1l0.3,0.1c0.1,0,0.3,0.1,0.4,0.1c0.1,0,0.1,0,0.2,0h0.1c0.8,0.2,1.5,0.2,2.2,0.1c0.3,0,0.7-0.1,1.1-0.2
					c0.6-0.2,1.2-0.4,1.7-0.7c0.1,0,0.1-0.1,0.2-0.1l0.1-0.1c1.3-0.9,2.4-2.2,3-3.8c0.4-1,0.6-2.1,0.6-3.2c0-0.3,0-0.5,0-0.8v-0.1
					c0-0.4-0.1-0.8-0.2-1.2c-0.1-0.5-0.3-1-0.5-1.5c-0.1-0.1-0.1-0.2-0.2-0.4c-0.1-0.2-0.2-0.5-0.4-0.7c-0.2-0.3-0.4-0.6-0.7-1
					s-0.6-0.7-1-1l-0.1-0.1c-0.4-0.3-0.7-0.5-1.1-0.8c-0.2-0.1-0.5-0.2-0.7-0.3c-0.2-0.1-0.5-0.2-0.7-0.3c-0.5-0.2-0.9-0.3-1.3-0.5
					h-0.2L209.7,266.3z"/>
			</g>
		</g>
		<g class="st4">
			<path d="M27.3,75.5c1.7,1,3,2.3,4,4s1.5,3.6,1.5,5.8c0,1.4-0.2,2.7-0.6,3.9c-0.4,1.2-1,2.3-1.8,3.2l3,3.8h-2.6l-1.9-2.3
				c-1,0.8-2.1,1.4-3.3,1.9c-1.3,0.5-2.6,0.7-4,0.7c-2.1,0-4-0.5-5.7-1.4c-1.7-1-3-2.3-4-4s-1.4-3.6-1.4-5.8c0-2.1,0.5-4.1,1.4-5.8
				s2.3-3,4-4c1.7-1,3.6-1.4,5.7-1.4C23.7,74.1,25.6,74.5,27.3,75.5z M17.1,77.4c-1.3,0.8-2.4,1.8-3.2,3.2c-0.8,1.4-1.2,2.9-1.2,4.7
				c0,1.7,0.4,3.3,1.2,4.7c0.8,1.4,1.8,2.4,3.2,3.2c1.3,0.8,2.9,1.1,4.5,1.1c1.1,0,2.2-0.2,3.2-0.6c1-0.4,1.9-0.9,2.7-1.6l-5.2-6.5
				h2.7l3.9,4.9c1-1.5,1.5-3.2,1.5-5.2c0-1.8-0.4-3.3-1.2-4.7c-0.8-1.4-1.8-2.4-3.2-3.2c-1.3-0.8-2.8-1.1-4.5-1.1
				C20,76.3,18.5,76.6,17.1,77.4z"/>
		</g>
		<g class="st4">
			<path class="st5" d="M27.3,75.5c1.7,1,3,2.3,4,4s1.5,3.6,1.5,5.8c0,1.4-0.2,2.7-0.6,3.9c-0.4,1.2-1,2.3-1.8,3.2l3,3.8h-2.6
				l-1.9-2.3c-1,0.8-2.1,1.4-3.3,1.9c-1.3,0.5-2.6,0.7-4,0.7c-2.1,0-4-0.5-5.7-1.4c-1.7-1-3-2.3-4-4s-1.4-3.6-1.4-5.8
				c0-2.1,0.5-4.1,1.4-5.8s2.3-3,4-4c1.7-1,3.6-1.4,5.7-1.4C23.7,74.1,25.6,74.5,27.3,75.5z M17.1,77.4c-1.3,0.8-2.4,1.8-3.2,3.2
				c-0.8,1.4-1.2,2.9-1.2,4.7c0,1.7,0.4,3.3,1.2,4.7c0.8,1.4,1.8,2.4,3.2,3.2c1.3,0.8,2.9,1.1,4.5,1.1c1.1,0,2.2-0.2,3.2-0.6
				c1-0.4,1.9-0.9,2.7-1.6l-5.2-6.5h2.7l3.9,4.9c1-1.5,1.5-3.2,1.5-5.2c0-1.8-0.4-3.3-1.2-4.7c-0.8-1.4-1.8-2.4-3.2-3.2
				c-1.3-0.8-2.8-1.1-4.5-1.1C20,76.3,18.5,76.6,17.1,77.4z"/>
		</g>
		<g class="st4">
			<path d="M196.9,239.7c-1.7-1-3-2.3-4-4s-1.5-3.6-1.5-5.8c0-1.4,0.2-2.7,0.6-3.9c0.4-1.2,1-2.3,1.8-3.2l-3-3.8h2.6l1.9,2.3
				c1-0.8,2.1-1.4,3.3-1.9c1.3-0.5,2.6-0.7,4-0.7c2.1,0,4,0.5,5.7,1.4c1.7,1,3,2.3,4,4s1.4,3.6,1.4,5.8c0,2.1-0.5,4.1-1.4,5.8
				s-2.3,3-4,4c-1.7,1-3.6,1.4-5.7,1.4C200.5,241.1,198.6,240.7,196.9,239.7z M207.1,237.8c1.3-0.8,2.4-1.8,3.2-3.2
				c0.8-1.4,1.2-2.9,1.2-4.7c0-1.7-0.4-3.3-1.2-4.7s-1.8-2.4-3.2-3.2s-2.9-1.1-4.5-1.1c-1.1,0-2.2,0.2-3.2,0.6
				c-1,0.4-1.9,0.9-2.7,1.6l5.2,6.5h-2.7l-3.9-4.9c-1,1.5-1.5,3.2-1.5,5.2c0,1.8,0.4,3.3,1.2,4.7c0.8,1.4,1.8,2.4,3.2,3.2
				c1.3,0.8,2.8,1.1,4.5,1.1S205.8,238.6,207.1,237.8z"/>
		</g>
		<g class="st4">
			<path class="st5" d="M196.9,239.7c-1.7-1-3-2.3-4-4s-1.5-3.6-1.5-5.8c0-1.4,0.2-2.7,0.6-3.9c0.4-1.2,1-2.3,1.8-3.2l-3-3.8h2.6
				l1.9,2.3c1-0.8,2.1-1.4,3.3-1.9c1.3-0.5,2.6-0.7,4-0.7c2.1,0,4,0.5,5.7,1.4c1.7,1,3,2.3,4,4s1.4,3.6,1.4,5.8
				c0,2.1-0.5,4.1-1.4,5.8s-2.3,3-4,4c-1.7,1-3.6,1.4-5.7,1.4C200.5,241.1,198.6,240.7,196.9,239.7z M207.1,237.8
				c1.3-0.8,2.4-1.8,3.2-3.2c0.8-1.4,1.2-2.9,1.2-4.7c0-1.7-0.4-3.3-1.2-4.7s-1.8-2.4-3.2-3.2s-2.9-1.1-4.5-1.1
				c-1.1,0-2.2,0.2-3.2,0.6c-1,0.4-1.9,0.9-2.7,1.6l5.2,6.5h-2.7l-3.9-4.9c-1,1.5-1.5,3.2-1.5,5.2c0,1.8,0.4,3.3,1.2,4.7
				c0.8,1.4,1.8,2.4,3.2,3.2c1.3,0.8,2.8,1.1,4.5,1.1S205.8,238.6,207.1,237.8z"/>
		</g>
	</g>
	<g>
		<g>
			<path d="M103.3,150.3c-1.6,0-3.4-0.4-5.4-1.2l0.4-0.9c3.4,1.3,6.1,1.5,8,0.4c1.9-1,2.4-2.9,2.4-2.9l1,0.2c0,0.1-0.6,2.3-2.9,3.5
				C105.7,150.1,104.6,150.3,103.3,150.3z"/>
		</g>
		<g>
			<g>
				<path d="M74.3,138l18.8-42c2.3-5.2,7.4-8.5,13.1-8.5h40.3l-48.9,51.4L74.3,138z"/>
			</g>
			<g>
				<path d="M145,88.1l-8.3,8.8l-39.3,41.3l-22.1-0.7l18.4-41.2c2.2-4.9,7.1-8.1,12.5-8.1H145 M147.9,86.8H145h-38.8
					c-5.9,0-11.3,3.5-13.7,8.9l-18.4,41.2l-0.7,1.7l1.8,0.1l22.1,0.7h0.6l0.4-0.4l39.3-41.3l8.3-8.8L147.9,86.8L147.9,86.8z"/>
			</g>
		</g>
		<g>
			<path d="M122.5,81.3c-0.9,0-1.8-0.2-2.7-0.7c-0.2-0.1-0.3-0.4-0.2-0.7c0.1-0.2,0.4-0.3,0.7-0.2c1.5,0.7,3,0.7,4.5,0
				c0.2-0.1,0.5,0,0.7,0.2c0.1,0.2,0,0.5-0.2,0.7C124.2,81.1,123.3,81.3,122.5,81.3z"/>
		</g>
		<g>
			<polygon points="149.8,153.1 129.2,153.1 106.5,130.5 107.3,129.7 129.6,152.1 149.8,152.1 			"/>
		</g>
		<g>
			<path d="M147,88.1l2.4,17.5l-12.7-8.7l-39.3,41.3l-22.1-0.7l17.8-39.9c2.6-5.7,8.2-9.4,14.5-9.4L147,88.1 M148,86.8h-1h-39.3
				c-6.8,0-12.9,4-15.7,10.2l-17.8,39.9l-0.7,1.7l1.8,0.1l22.1,0.7H98l0.4-0.4L137,98.4l11.8,8.1l2.3,1.6l-0.4-2.8l-2.4-17.5
				L148,86.8L148,86.8z"/>
		</g>
		<g>
			<polygon class="st2" points="145,88.1 136.9,96.7 97.4,138.2 85.8,137.8 129.9,88.1 			"/>
		</g>
		<g>
			<path d="M143.7,77.2l-3.6-24.1c-0.4-2.9-2.4-5.2-5.1-6.2l-13.1-4.7l-12.2,5.2c-2.5,1-4.2,3.3-4.7,5.9l-4,23.9l-2.6,10.9h47.4
				L143.7,77.2z M134.9,84.7L134,87h-22.6l-0.7-1.5c-2.2-4.7-2.9-9.8-2.2-14.9l2.2-14.6l11.4-5.5l12.3,5l2.1,16.1
				C137.1,76.1,136.5,80.6,134.9,84.7z"/>
		</g>
		<g>
			<path d="M120.9,49.8c0,0,8.5,7.1,14.1,6.3c5.5-0.7-1.6-5.1-1.6-5.1L120.9,49.8z"/>
		</g>
		<g>
			<path d="M123,50.2c0,0-8.5,7.1-14.1,6.3s1.6-5.1,1.6-5.1L123,50.2z"/>
		</g>
		<g>
			<g>
				<polygon class="st2" points="73.5,138.7 69.8,149.7 101,151.1 103.7,140 				"/>
			</g>
			<g>
				<path d="M101.4,151.6l-32.3-1.4l4-12l31.2,1.3L101.4,151.6z M70.5,149.2l30.1,1.4l2.5-10.1l-29.2-1.3L70.5,149.2z"/>
			</g>
		</g>
		<g>
			<path d="M114.1,142.1c-0.1,0-0.1,0-0.2,0c-0.9,0-2.1-0.2-3.3-0.4c-1.2-0.3-2.4-0.6-3.2-1c-0.8-0.3-1.6-0.8-1.5-1.5l0,0l0,0
				c0,0,0,0,0,0c0.1-0.7,1.1-0.7,1.9-0.7c0.9,0,2.1,0.2,3.3,0.4c1.8,0.4,4.1,1.1,4.6,1.9c0.1,0.2,0.1,0.4,0.1,0.6
				C115.7,142,114.9,142.1,114.1,142.1z M107.2,139.5c0.6,0.3,1.8,0.8,3.6,1.2c1.8,0.4,3.1,0.4,3.8,0.4c-0.6-0.3-1.8-0.8-3.6-1.2
				C109.1,139.5,107.8,139.4,107.2,139.5z"/>
		</g>
		<g>
			<path d="M109.6,146.5c-0.2,0-0.4,0-0.5-0.1c-0.7-0.2-1.2-0.7-1.4-1.4l-1.7-5.6l1-0.3l1.7,5.6c0.1,0.4,0.4,0.6,0.7,0.7
				c0.3,0.1,0.7,0,0.9-0.2l4.7-4.3l0.7,0.7l-4.7,4.3C110.6,146.3,110.1,146.5,109.6,146.5z"/>
		</g>
		<g>
			<path d="M105.8,149.6c-0.1,0-0.2,0-0.3-0.1c-0.6-0.3-1.3-2.1-0.6-3.6c0.1-0.2,0.4-0.4,0.7-0.2c0.2,0.1,0.4,0.4,0.2,0.7
				c-0.4,0.9-0.1,1.9,0.1,2.2c0.1,0,0.1,0,0.2,0.1c0.2,0.2,0.3,0.5,0.1,0.7C106.2,149.5,106,149.6,105.8,149.6z"/>
		</g>
		<g>
			<path d="M107.8,151.3c-2.1,0-4-0.9-4.1-1c-0.2-0.1-0.3-0.4-0.2-0.7c0.1-0.2,0.4-0.3,0.7-0.2c0,0,4.3,2.2,7-0.4
				c0.2-0.2,0.5-0.2,0.7,0c0.2,0.2,0.2,0.5,0,0.7C110.6,151,109.1,151.3,107.8,151.3z"/>
		</g>
		<g>
			<path d="M115.3,167.7l-1-0.2c0-0.1,0.6-2.3,2.9-3.5c2.2-1.2,5.2-1,8.9,0.4l-0.4,0.9c-3.4-1.3-6.1-1.5-8-0.4
				C115.8,165.8,115.3,167.7,115.3,167.7z"/>
		</g>
		<g>
			<g>
				<path d="M77.5,226.1l48.9-51.4l23.3,0.8l-18.8,42.1c-2.3,5.2-7.4,8.5-13.1,8.5H77.5z"/>
			</g>
			<g>
				<path d="M126.6,175.4l22.1,0.7l-18.4,41.2c-2.2,4.9-7.1,8.1-12.5,8.1H78.9l8.3-8.8L126.6,175.4 M126.1,174.1l-0.4,0.4
					l-39.3,41.3l-8.3,8.8l-2,2.1H79h38.8c5.9,0,11.3-3.5,13.7-8.9l18.4-41.2l0.7-1.7l-1.8-0.1l-22.1-0.7L126.1,174.1L126.1,174.1z"
					/>
			</g>
		</g>
		<g>
			<path d="M103.9,233.8c-0.1,0-0.2,0-0.2-0.1c-1.5-0.7-3-0.7-4.5,0c-0.2,0.1-0.5,0-0.7-0.2s0-0.5,0.2-0.7c1.8-0.9,3.6-0.9,5.3,0
				c0.2,0.1,0.3,0.4,0.2,0.7C104.3,233.7,104.1,233.8,103.9,233.8z"/>
		</g>
		<g>
			<polygon points="116.7,183.9 94.3,161.4 74.1,161.4 74.1,160.4 94.7,160.4 117.5,183.1 			"/>
		</g>
		<g>
			<path d="M126.6,175.4l22.1,0.7L130.9,216c-2.6,5.7-8.2,9.4-14.5,9.4H77L74.6,208l12.7,8.7L126.6,175.4 M126.1,174.1l-0.4,0.4
				l-38.6,40.6L75.3,207l-2.3-1.6l0.4,2.8l2.4,17.5l0.1,1.1H77h39.3c6.8,0,12.9-4,15.7-10.2l17.8-39.9l0.7-1.7l-1.8-0.1l-22.1-0.7
				L126.1,174.1L126.1,174.1z"/>
		</g>
		<g>
			<polygon class="st2" points="78.9,225.5 87.1,216.9 126.6,175.4 138.2,175.8 94,225.5 			"/>
		</g>
		<g>
			<path d="M80.2,236.3l3.6,24.1c0.4,2.9,2.4,5.2,5.1,6.2l13.1,4.7l12.2-5.2c2.5-1,4.2-3.3,4.7-5.9l4-23.9l2.6-10.9H78.1L80.2,236.3
				z M89.1,228.8l0.9-2.3h22.6l0.7,1.5c2.2,4.7,2.9,9.8,2.2,14.9l-2.2,14.6l-11.4,5.5l-12.3-5l-2.1-16.1
				C86.9,237.5,87.4,233,89.1,228.8z"/>
		</g>
		<g>
			<path d="M103.1,263.7c0,0-8.5-7.1-14.1-6.3s1.6,5.1,1.6,5.1L103.1,263.7z"/>
		</g>
		<g>
			<path d="M100.9,263.3c0,0,8.5-7.1,14.1-6.3c5.5,0.7-1.6,5.1-1.6,5.1L100.9,263.3z"/>
		</g>
		<g>
			<g>
				<polygon class="st2" points="150.4,174.8 154.2,163.8 122.9,162.5 120.3,173.6 				"/>
			</g>
			<g>
				<path d="M150.8,175.3l-31.1-1.2l2.8-12.1l32.4,1.3L150.8,175.3z M120.9,173.1l29.1,1.2l3.5-10l-30.2-1.3L120.9,173.1z"/>
			</g>
		</g>
		<g>
			<path d="M116.2,175c-0.1,0-0.1,0-0.2,0c-0.9,0-2.1-0.2-3.3-0.4c-1.5-0.3-5-1.2-4.7-2.4h0c0.3-1.2,3.8-0.6,5.3-0.3
				c1.5,0.3,5,1.2,4.7,2.4C117.9,174.9,117,175,116.2,175z M109.4,172.4c0.6,0.3,1.8,0.8,3.6,1.2c1.8,0.4,3.1,0.5,3.8,0.4
				c-0.6-0.3-1.8-0.8-3.6-1.2C111.3,172.4,110,172.4,109.4,172.4z"/>
		</g>
		<g>
			<path d="M117.1,174.3l-1.7-5.6c-0.1-0.4-0.4-0.6-0.7-0.7c-0.3-0.1-0.7,0-0.9,0.2l-4.7,4.3l-0.7-0.7l4.7-4.3
				c0.5-0.5,1.2-0.7,1.9-0.5c0.7,0.2,1.2,0.7,1.4,1.4l1.7,5.6L117.1,174.3z"/>
		</g>
		<g>
			<path d="M118.6,167.9c-0.1,0-0.1,0-0.2,0c-0.2-0.1-0.4-0.4-0.2-0.7c0.4-0.9,0.1-1.9-0.1-2.2c-0.1,0-0.1,0-0.2-0.1
				c-0.2-0.2-0.3-0.5-0.1-0.7c0.2-0.3,0.5-0.3,0.8-0.2c0.6,0.3,1.3,2.1,0.6,3.6C119,167.8,118.8,167.9,118.6,167.9z"/>
		</g>
		<g>
			<path d="M112.5,164.6c-0.1,0-0.3-0.1-0.4-0.2c-0.2-0.2-0.2-0.5,0-0.7c3.2-3.1,8-0.7,8.2-0.6c0.2,0.1,0.3,0.4,0.2,0.7
				c-0.1,0.2-0.4,0.3-0.7,0.2c0,0-4.3-2.2-7,0.4C112.8,164.6,112.6,164.6,112.5,164.6z"/>
		</g>
		<g>
			<g>
				<path class="st2" d="M70.1,190.2c0-0.1,0-0.3,0-0.4c0-0.1,0-0.3,0-0.4c0-0.2,0-0.4,0.1-0.6c0-0.2,0.1-0.3,0.1-0.5
					c0.6-2.8,2.5-5.3,5-6.5c0.3-0.1,0.6-0.3,1-0.4c0.7-0.2,1.5-0.3,2.2-0.3c1.6,0,3.1,0.7,4.4,1.8c0.7,0.5,1.3,1.2,1.8,1.9
					c0.3,0.4,0.5,0.9,0.7,1.3c0.2,0.4,0.2,0.4,0.3,0.8c0-0.3,0-0.6-0.1-0.9c-0.1-0.6-0.2-0.7-0.4-1.3c-0.6-1.5-1.5-2.8-2.7-3.8
					c-0.8-0.7-1.7-1.3-2.7-1.7l0,0c2.3-2.3,6.3-7.1,7.2-12.4c0-0.2,0.1-0.5,0.1-0.7c0,0.2,0.1,0.5,0.1,0.7c0.4,2.4,1.4,4.7,2.7,6.8
					c1,1.6,2.1,3.1,3.4,4.5c0.7,0.8,1.4,1.5,2.3,2.1c0.2,0.2,0.5,0.3,0.7,0.4l0,0c0.7,0.4,1.5,0.6,2.2,0.9c0.3,0.1,0.6,0.2,0.9,0.4
					c0.5,0.2,0.9,0.5,1.3,0.9c0,0,0,0,0.1,0.1c0.4,0.3,0.8,0.7,1.1,1.1c0.3,0.4,0.6,0.7,0.8,1.1c0.2,0.2,0.3,0.5,0.4,0.8
					c0.1,0.1,0.1,0.3,0.2,0.4c0.2,0.5,0.4,1.1,0.6,1.7c0.1,0.4,0.2,0.9,0.2,1.4c0,0,0,0,0,0.1c0,0.3,0,0.6,0,0.9
					c0,1.3-0.2,2.5-0.7,3.6c-0.7,1.8-1.9,3.3-3.4,4.3c-0.1,0.1-0.2,0.1-0.4,0.2c-0.6,0.4-1.3,0.6-1.9,0.8c-0.4,0.1-0.8,0.2-1.3,0.2
					c-0.3,0-0.6,0.1-0.9,0.1c-0.6,0-1.1-0.1-1.6-0.2c-0.1,0-0.2,0-0.3-0.1c-0.2,0-0.3-0.1-0.5-0.1c-0.1,0-0.3-0.1-0.4-0.1
					s-0.2-0.1-0.4-0.1c-0.2-0.1-0.5-0.2-0.7-0.3s-0.4-0.2-0.6-0.3l-0.1-0.1c-0.3-0.2-0.5-0.4-0.8-0.6l-0.1-0.1c0,0,0,0-0.1-0.1
					s-0.2-0.1-0.3-0.2c0,0-0.1-0.1-0.1-0.2c-0.2-0.2-0.4-0.4-0.6-0.7c-0.1-0.1-0.1-0.1-0.2-0.2c-0.2-0.3-0.5-0.7-0.7-1.1
					c-0.4-0.8-0.8-1.7-1-2.6c-0.1-0.6-0.2-1.2-0.2-1.8c0,0.3,0,0.5,0,0.8c0,0.2-0.1,0.5-0.1,0.7s-0.1,0.4-0.1,0.6c0,0.1,0,0.1,0,0.2
					c0,0.1,0,0.2-0.1,0.3c0,0.1-0.1,0.3-0.1,0.4c0,0.1-0.1,0.3-0.2,0.4c-0.1,0.3-0.2,0.6-0.4,0.9c-0.1,0.1-0.1,0.2-0.2,0.3
					c-0.1,0.3-0.3,0.5-0.5,0.7c-0.1,0.1-0.2,0.2-0.2,0.4c-0.2,0.2-0.3,0.4-0.5,0.6c-0.1,0.1-0.1,0.2-0.2,0.2
					c-0.3,0.3-0.6,0.6-0.9,0.8c-0.1,0.1-0.2,0.2-0.3,0.2c-0.2,0.2-0.4,0.3-0.7,0.4c-0.7,0.4-1.5,0.7-2.3,0.9c-0.3,0-0.5,0.1-0.8,0.1
					l0,0c-0.3,0-0.6,0.1-0.9,0.1s-0.6,0-0.9-0.1c-0.4,0-0.9-0.1-1.3-0.2c-0.7-0.2-1.3-0.5-1.9-0.8c-0.1-0.1-0.2-0.2-0.4-0.2
					c-0.3-0.2-0.6-0.4-0.9-0.7c-0.1,0-0.1-0.1-0.2-0.2c-1-0.9-1.8-2.1-2.4-3.5C70.3,192.7,70.1,191.5,70.1,190.2z"/>
			</g>
			<g>
				<path class="st3" d="M87.2,163.8l0.3,2.2c0,0.3,0.1,0.5,0.1,0.7c0.4,2.2,1.3,4.5,2.7,6.7c1,1.6,2.1,3,3.4,4.4
					c0.6,0.7,1.4,1.4,2.2,2.1c0.2,0.1,0.4,0.3,0.7,0.4l0.2,0.1c0.4,0.2,0.8,0.4,1.3,0.5c0.2,0.1,0.5,0.2,0.8,0.3s0.6,0.2,0.9,0.4
					c0.5,0.3,0.9,0.6,1.3,0.9l0.1,0.1c0.4,0.3,0.8,0.7,1.1,1.1c0.4,0.4,0.6,0.8,0.8,1.1c0.2,0.3,0.3,0.5,0.4,0.8
					c0.1,0.1,0.1,0.3,0.2,0.4c0.3,0.5,0.5,1.1,0.6,1.7c0.1,0.4,0.2,0.9,0.2,1.4v0.1c0,0.3,0,0.6,0,0.9c0,1.3-0.2,2.5-0.7,3.7
					c-0.7,1.8-2,3.4-3.5,4.4l-0.1,0.1c-0.1,0-0.1,0.1-0.2,0.1c-0.6,0.4-1.3,0.7-2,0.9c-0.5,0.1-0.9,0.2-1.3,0.2
					c-0.2,0-0.6,0.1-0.9,0.1c-0.6,0-1.1-0.1-1.7-0.2H94c-0.1,0-0.2,0-0.2-0.1c-0.2,0-0.3-0.1-0.5-0.1l-0.4-0.1
					c-0.1,0-0.2-0.1-0.3-0.1h-0.1c-0.3-0.1-0.5-0.2-0.7-0.4c-0.2-0.1-0.4-0.2-0.6-0.3c-0.1-0.1-0.1-0.1-0.2-0.1
					c-0.2-0.2-0.5-0.4-0.8-0.6c-0.1-0.1-0.1-0.1-0.1-0.1l-0.2-0.2c-0.1,0-0.1-0.1-0.2-0.1l-0.1-0.1c-0.3-0.3-0.5-0.5-0.7-0.8
					c-0.1-0.1-0.1-0.1-0.2-0.2c-0.3-0.4-0.5-0.7-0.7-1.1c-0.4-0.7-0.7-1.5-0.9-2.3c0,0,0,0,0,0.1s0,0.2-0.1,0.3
					c0,0.1-0.1,0.3-0.1,0.4c0,0.1-0.1,0.3-0.2,0.4c-0.1,0.3-0.2,0.6-0.4,0.9c-0.1,0.1-0.1,0.2-0.2,0.3c-0.2,0.3-0.3,0.5-0.5,0.8
					l-0.1,0.1c-0.1,0.1-0.1,0.2-0.2,0.2c-0.2,0.2-0.3,0.4-0.5,0.6c-0.1,0.1-0.1,0.2-0.2,0.2c-0.3,0.3-0.6,0.6-1,0.8
					c-0.1,0.1-0.2,0.2-0.3,0.3c-0.2,0.2-0.5,0.3-0.7,0.4c-0.7,0.4-1.5,0.7-2.4,0.9c-0.3,0.1-0.5,0.1-0.8,0.1c-0.5,0.1-1.3,0.1-1.8,0
					c-0.4,0-0.9-0.1-1.3-0.3c-0.7-0.2-1.4-0.5-2-0.8l-0.1-0.1c-0.1-0.1-0.2-0.1-0.3-0.2c-0.4-0.2-0.7-0.5-1-0.7
					c-0.1,0-0.1-0.1-0.2-0.2c-1-0.9-1.9-2.2-2.4-3.6c-0.5-1.2-0.7-2.4-0.7-3.7c0-0.2,0-0.3,0-0.5c0-0.1,0-0.3,0-0.4
					c0-0.2,0-0.4,0.1-0.6c0-0.2,0.1-0.4,0.1-0.5c0.6-2.9,2.6-5.5,5.2-6.7c0.3-0.1,0.6-0.3,1-0.4c0.8-0.2,1.6-0.3,2.3-0.3
					c1.6,0,3.2,0.7,4.6,1.8c0.7,0.5,1.3,1.2,1.8,2c-0.5-1.3-1.4-2.5-2.5-3.4c-0.8-0.8-1.7-1.3-2.6-1.7l-0.4-0.2l0.3-0.3
					c2.3-2.3,6.3-7,7.2-12.3c0-0.2,0.1-0.5,0.1-0.7L87.2,163.8z M96.1,180.8c-0.2-0.1-0.4-0.2-0.6-0.4c-0.9-0.7-1.7-1.5-2.3-2.1
					c-1.3-1.4-2.4-2.9-3.4-4.5c-1.2-2-2.1-4-2.6-6c-1.1,4.8-4.6,9-6.8,11.3c0.8,0.4,1.7,0.9,2.4,1.6c1.2,1,2.2,2.4,2.8,3.9l0.1,0.2
					c0.1,0.4,0.2,0.5,0.3,1.1c0,0.2,0,0.5,0.1,0.7v0.3l0.1,2.8l-0.7-2.7c-0.1-0.3-0.1-0.4-0.2-0.5c0-0.1-0.1-0.1-0.1-0.3
					c-0.2-0.4-0.4-0.9-0.7-1.3c-0.5-0.7-1.1-1.4-1.7-1.9c-1.3-1.1-2.8-1.7-4.2-1.7c-0.7,0-1.4,0.1-2.1,0.3c-0.3,0.1-0.6,0.2-0.9,0.4
					c-2.4,1.1-4.3,3.5-4.9,6.2c0,0.2-0.1,0.3-0.1,0.5s-0.1,0.4-0.1,0.6c0,0.2,0,0.3,0,0.4c0,0.2,0,0.3,0,0.4c0,1.2,0.2,2.4,0.7,3.5
					c0.5,1.3,1.3,2.5,2.3,3.3c0.1,0.1,0.1,0.1,0.2,0.1c0.3,0.3,0.6,0.5,0.9,0.7c0.1,0,0.2,0.1,0.3,0.2L75,198
					c0.6,0.3,1.2,0.6,1.8,0.8c0.4,0.1,0.8,0.2,1.2,0.2c0.6,0.1,1.1,0.1,1.7,0c0.3,0,0.5-0.1,0.8-0.1c0.8-0.2,1.5-0.4,2.2-0.8
					c0.2-0.1,0.4-0.3,0.7-0.4c0.1-0.1,0.2-0.1,0.3-0.2c0.3-0.2,0.6-0.5,0.9-0.8c0.1-0.1,0.1-0.2,0.2-0.2c0.2-0.2,0.3-0.4,0.5-0.6
					c0-0.1,0.1-0.1,0.1-0.2l0.1-0.1c0.2-0.2,0.3-0.5,0.4-0.7c0.1-0.1,0.1-0.2,0.2-0.3c0.1-0.2,0.2-0.5,0.4-0.8
					c0.1-0.1,0.1-0.3,0.1-0.4c0.1-0.1,0.1-0.3,0.1-0.4c0-0.1,0.1-0.2,0.1-0.3v-0.1v-0.1l0.1-0.6c0-0.2,0.1-0.5,0.1-0.7
					c0-0.3,0-0.5,0-0.7h0.6c0,0.7,0.1,1.3,0.2,1.8c0.2,0.9,0.5,1.8,0.9,2.6c0.2,0.3,0.4,0.7,0.7,1c0.1,0.1,0.1,0.1,0.2,0.2
					c0.2,0.3,0.4,0.5,0.6,0.7l0.1,0.1c0.1,0.1,0.1,0.1,0.2,0.2l0.1,0.1c0.1,0.1,0.1,0.1,0.2,0.2c0.2,0.2,0.5,0.4,0.7,0.5
					c0,0,0.1,0,0.1,0.1c0.2,0.1,0.4,0.3,0.6,0.4c0.2,0.1,0.5,0.2,0.7,0.3H93c0.1,0,0.2,0.1,0.2,0.1l0.4,0.1c0.1,0,0.3,0.1,0.4,0.1
					s0.1,0,0.2,0h0.1c0.8,0.2,1.6,0.2,2.4,0.1c0.4,0,0.8-0.1,1.2-0.2c0.7-0.2,1.3-0.5,1.9-0.8c0.1,0,0.1-0.1,0.2-0.1l0.1-0.1
					c1.5-1,2.6-2.4,3.3-4.2c0.4-1.1,0.7-2.3,0.7-3.5c0-0.3,0-0.6,0-0.8v-0.1c0-0.4-0.1-0.9-0.2-1.3c-0.1-0.6-0.3-1.1-0.6-1.6
					c-0.1-0.1-0.1-0.3-0.2-0.4c-0.1-0.2-0.3-0.5-0.4-0.7c-0.2-0.3-0.4-0.7-0.8-1.1c-0.3-0.4-0.7-0.7-1.1-1.1l-0.1-0.1
					c-0.4-0.3-0.8-0.6-1.3-0.8c-0.2-0.1-0.5-0.2-0.8-0.4c-0.3-0.1-0.5-0.2-0.8-0.3c-0.5-0.2-1-0.4-1.4-0.6L96.1,180.8L96.1,180.8z"
					/>
			</g>
		</g>
		<g>
			<g>
				<path class="st2" d="M154.3,123.7c0,0.1,0,0.3,0,0.4s0,0.3,0,0.4c0,0.2,0,0.4-0.1,0.6c0,0.2-0.1,0.3-0.1,0.5
					c-0.6,2.8-2.5,5.3-5,6.5c-0.3,0.1-0.6,0.3-1,0.4c-0.7,0.2-1.5,0.3-2.2,0.3c-1.6,0-3.1-0.7-4.4-1.8c-0.7-0.5-1.3-1.2-1.8-1.9
					c-0.3-0.4-0.5-0.9-0.7-1.3c-0.2-0.4-0.2-0.4-0.3-0.8c0,0.3,0,0.6,0.1,0.9c0.1,0.6,0.2,0.7,0.4,1.3c0.6,1.5,1.5,2.8,2.7,3.8
					c0.8,0.7,1.7,1.3,2.7,1.7l0,0c-2.3,2.3-6.3,7.1-7.2,12.4c0,0.2-0.1,0.5-0.1,0.7c0-0.2-0.1-0.5-0.1-0.7c-0.4-2.4-1.4-4.7-2.7-6.8
					c-1-1.6-2.1-3.1-3.4-4.5c-0.7-0.8-1.4-1.5-2.3-2.1c-0.2-0.2-0.5-0.3-0.7-0.4l0,0c-0.7-0.4-1.5-0.6-2.2-0.9
					c-0.3-0.1-0.6-0.2-0.9-0.4c-0.5-0.2-0.9-0.5-1.3-0.9c0,0,0,0-0.1-0.1c-0.4-0.3-0.8-0.7-1.1-1.1c-0.3-0.4-0.6-0.7-0.8-1.1
					c-0.2-0.2-0.3-0.5-0.4-0.8c-0.1-0.1-0.1-0.3-0.2-0.4c-0.2-0.5-0.4-1.1-0.6-1.7c-0.1-0.4-0.2-0.9-0.2-1.4c0,0,0,0,0-0.1
					c0-0.3,0-0.6,0-0.9c0-1.3,0.2-2.5,0.7-3.6c0.7-1.8,1.9-3.3,3.4-4.3c0.1-0.1,0.2-0.1,0.4-0.2c0.6-0.4,1.3-0.6,1.9-0.8
					c0.4-0.1,0.8-0.2,1.3-0.2c0.3,0,0.6-0.1,0.9-0.1c0.6,0,1.1,0.1,1.6,0.2c0.1,0,0.2,0,0.3,0.1c0.2,0,0.3,0.1,0.5,0.1
					c0.1,0,0.3,0.1,0.4,0.1c0.1,0,0.2,0.1,0.4,0.1c0.2,0.1,0.5,0.2,0.7,0.3c0.2,0.1,0.4,0.2,0.6,0.3l0.1,0.1
					c0.3,0.2,0.5,0.4,0.8,0.6l0.1,0.1c0,0,0,0,0.1,0.1s0.2,0.1,0.3,0.2c0,0,0.1,0.1,0.1,0.2c0.2,0.2,0.4,0.4,0.6,0.7
					c0.1,0.1,0.1,0.1,0.2,0.2c0.2,0.3,0.5,0.7,0.7,1.1c0.4,0.8,0.8,1.7,1,2.6c0.1,0.6,0.2,1.2,0.2,1.8c0-0.3,0-0.5,0-0.8
					c0-0.2,0.1-0.5,0.1-0.7s0.1-0.4,0.1-0.6c0-0.1,0-0.1,0-0.2s0-0.2,0.1-0.3c0-0.1,0.1-0.3,0.1-0.4s0.1-0.3,0.2-0.4
					c0.1-0.3,0.2-0.6,0.4-0.9c0.1-0.1,0.1-0.2,0.2-0.3c0.1-0.3,0.3-0.5,0.5-0.7c0.1-0.1,0.2-0.2,0.2-0.4c0.2-0.2,0.3-0.4,0.5-0.6
					c0.1-0.1,0.1-0.2,0.2-0.2c0.3-0.3,0.6-0.6,0.9-0.8c0.1-0.1,0.2-0.2,0.3-0.2c0.2-0.2,0.4-0.3,0.7-0.4c0.7-0.4,1.5-0.7,2.3-0.9
					c0.3,0,0.5-0.1,0.8-0.1l0,0c0.3,0,0.6-0.1,0.9-0.1c0.3,0,0.6,0,0.9,0.1c0.4,0,0.9,0.1,1.3,0.2c0.7,0.2,1.3,0.5,1.9,0.8
					c0.1,0.1,0.2,0.2,0.4,0.2c0.3,0.2,0.6,0.4,0.9,0.7c0.1,0,0.1,0.1,0.2,0.2c1,0.9,1.8,2.1,2.4,3.5
					C154.1,121.2,154.3,122.4,154.3,123.7z"/>
			</g>
			<g>
				<path class="st3" d="M137.2,150.1l-0.3-2.2c0-0.3-0.1-0.5-0.1-0.7c-0.4-2.2-1.3-4.5-2.7-6.7c-1-1.6-2.1-3-3.4-4.4
					c-0.6-0.7-1.4-1.4-2.2-2.1c-0.2-0.1-0.4-0.3-0.7-0.4l-0.2-0.1c-0.4-0.2-0.8-0.4-1.3-0.5c-0.2-0.1-0.5-0.2-0.8-0.3
					s-0.6-0.2-0.9-0.4c-0.5-0.3-0.9-0.6-1.3-0.9l-0.1-0.1c-0.4-0.3-0.8-0.7-1.1-1.1c-0.4-0.4-0.6-0.8-0.8-1.1
					c-0.2-0.3-0.3-0.5-0.4-0.8c-0.1-0.1-0.1-0.3-0.2-0.4c-0.3-0.5-0.5-1.1-0.6-1.7c-0.1-0.4-0.2-0.9-0.2-1.4v-0.1c0-0.3,0-0.6,0-0.9
					c0-1.3,0.2-2.5,0.7-3.7c0.7-1.8,2-3.4,3.5-4.4l0.1-0.1c0.1,0,0.1-0.1,0.2-0.1c0.6-0.4,1.3-0.7,2-0.9c0.5-0.1,0.9-0.2,1.3-0.2
					c0.2,0,0.6-0.1,0.9-0.1c0.6,0,1.1,0.1,1.7,0.2h0.1c0.1,0,0.2,0,0.2,0.1c0.2,0,0.3,0.1,0.5,0.1l0.4,0.1c0.1,0,0.2,0.1,0.3,0.1
					h0.1c0.3,0.1,0.5,0.2,0.7,0.4c0.2,0.1,0.4,0.2,0.6,0.3c0.1,0.1,0.1,0.1,0.2,0.1c0.2,0.2,0.5,0.4,0.8,0.6
					c0.1,0.1,0.1,0.1,0.1,0.1l0.2,0.2c0.1,0,0.1,0.1,0.2,0.1l0.1,0.1c0.3,0.3,0.5,0.5,0.7,0.8c0.1,0.1,0.1,0.1,0.2,0.2
					c0.3,0.4,0.5,0.7,0.7,1.1c0.4,0.7,0.7,1.5,0.9,2.3c0,0,0,0,0-0.1s0-0.2,0.1-0.3c0-0.1,0.1-0.3,0.1-0.4s0.1-0.3,0.2-0.4
					c0.1-0.3,0.2-0.6,0.4-0.9c0.1-0.1,0.1-0.2,0.2-0.3c0.2-0.3,0.3-0.5,0.5-0.8l0.1-0.1c0.1-0.1,0.1-0.2,0.2-0.2
					c0.2-0.2,0.3-0.4,0.5-0.6c0.1-0.1,0.1-0.2,0.2-0.2c0.3-0.3,0.6-0.6,1-0.8c0.1-0.1,0.2-0.2,0.3-0.3c0.2-0.2,0.5-0.3,0.7-0.4
					c0.7-0.4,1.5-0.7,2.4-0.9c0.3-0.1,0.5-0.1,0.8-0.1c0.5-0.1,1.3-0.1,1.8,0c0.4,0,0.9,0.1,1.3,0.3c0.7,0.2,1.4,0.5,2,0.8l0.1,0.1
					c0.1,0.1,0.2,0.1,0.3,0.2c0.4,0.2,0.7,0.5,1,0.7c0.1,0,0.1,0.1,0.2,0.2c1,0.9,1.9,2.2,2.4,3.6c0.5,1.2,0.7,2.4,0.7,3.7
					c0,0.2,0,0.3,0,0.5c0,0.1,0,0.3,0,0.4c0,0.2,0,0.4-0.1,0.6c0,0.2-0.1,0.4-0.1,0.5c-0.6,2.9-2.6,5.5-5.2,6.7
					c-0.3,0.1-0.6,0.3-1,0.4c-0.8,0.2-1.6,0.3-2.3,0.3c-1.6,0-3.2-0.7-4.6-1.8c-0.7-0.5-1.3-1.2-1.8-2c0.5,1.3,1.4,2.5,2.5,3.4
					c0.8,0.8,1.7,1.3,2.6,1.7l0.4,0.2l-0.3,0.3c-2.3,2.3-6.3,7-7.2,12.3c0,0.2-0.1,0.5-0.1,0.7L137.2,150.1z M128.3,133.1
					c0.2,0.1,0.4,0.2,0.6,0.4c0.9,0.7,1.7,1.5,2.3,2.1c1.3,1.4,2.4,2.9,3.4,4.5c1.2,2,2.1,4,2.6,6c1.1-4.8,4.6-9,6.8-11.3
					c-0.8-0.4-1.7-0.9-2.4-1.6c-1.2-1-2.2-2.4-2.8-3.9l-0.1-0.2c-0.1-0.4-0.2-0.5-0.3-1.1c0-0.2,0-0.5-0.1-0.7V127l-0.1-2.8l0.7,2.7
					c0.1,0.3,0.1,0.4,0.2,0.5c0,0.1,0.1,0.1,0.1,0.3c0.2,0.4,0.4,0.9,0.7,1.3c0.5,0.7,1.1,1.4,1.7,1.9c1.3,1.1,2.8,1.7,4.2,1.7
					c0.7,0,1.4-0.1,2.1-0.3c0.3-0.1,0.6-0.2,0.9-0.4c2.4-1.1,4.3-3.5,4.9-6.2c0-0.2,0.1-0.3,0.1-0.5s0.1-0.4,0.1-0.6s0-0.3,0-0.4
					c0-0.2,0-0.3,0-0.4c0-1.2-0.2-2.4-0.7-3.5c-0.5-1.3-1.3-2.5-2.3-3.3c-0.1-0.1-0.1-0.1-0.2-0.1c-0.3-0.3-0.6-0.5-0.9-0.7
					c-0.1,0-0.2-0.1-0.3-0.2l-0.1-0.1c-0.6-0.3-1.2-0.6-1.8-0.8c-0.4-0.1-0.8-0.2-1.2-0.2c-0.6-0.1-1.1-0.1-1.7,0
					c-0.3,0-0.5,0.1-0.8,0.1c-0.8,0.2-1.5,0.4-2.2,0.8c-0.2,0.1-0.4,0.3-0.7,0.4c-0.1,0.1-0.2,0.1-0.3,0.2c-0.3,0.2-0.6,0.5-0.9,0.8
					c-0.1,0.1-0.1,0.2-0.2,0.2c-0.2,0.2-0.3,0.4-0.5,0.6c0,0.1-0.1,0.1-0.1,0.2l-0.1,0.1c-0.2,0.2-0.3,0.5-0.4,0.7
					c-0.1,0.1-0.1,0.2-0.2,0.3c-0.1,0.2-0.2,0.5-0.4,0.8c-0.1,0.1-0.1,0.3-0.1,0.4c-0.1,0.1-0.1,0.3-0.1,0.4s-0.1,0.2-0.1,0.3v0.1
					v0.1l-0.1,0.6c0,0.2-0.1,0.5-0.1,0.7c0,0.3,0,0.5,0,0.7h-0.6c0-0.7-0.1-1.3-0.2-1.8c-0.2-0.9-0.5-1.8-0.9-2.6
					c-0.2-0.3-0.4-0.7-0.7-1c-0.1-0.1-0.1-0.1-0.2-0.2c-0.2-0.3-0.4-0.5-0.6-0.7l-0.1-0.1c-0.1-0.1-0.1-0.1-0.2-0.2l-0.1-0.1
					c-0.1-0.1-0.1-0.1-0.2-0.2c-0.2-0.2-0.5-0.4-0.7-0.5c0,0-0.1,0-0.1-0.1c-0.2-0.1-0.4-0.3-0.6-0.4c-0.2-0.1-0.5-0.2-0.7-0.3h-0.1
					c-0.1,0-0.2-0.1-0.2-0.1l-0.4-0.1c-0.1,0-0.3-0.1-0.4-0.1c-0.1,0-0.1,0-0.2,0h-0.1c-0.8-0.2-1.6-0.2-2.4-0.1
					c-0.4,0-0.8,0.1-1.2,0.2c-0.7,0.2-1.3,0.5-1.9,0.8c-0.1,0-0.1,0.1-0.2,0.1l-0.1,0.1c-1.5,1-2.6,2.4-3.3,4.2
					c-0.4,1.1-0.7,2.3-0.7,3.5c0,0.3,0,0.6,0,0.8v0.1c0,0.4,0.1,0.9,0.2,1.3c0.1,0.6,0.3,1.1,0.6,1.6c0.1,0.1,0.1,0.3,0.2,0.4
					c0.1,0.2,0.3,0.5,0.4,0.7c0.2,0.3,0.4,0.7,0.8,1.1c0.3,0.4,0.7,0.7,1.1,1.1l0.1,0.1c0.4,0.3,0.8,0.6,1.3,0.8
					c0.2,0.1,0.5,0.2,0.8,0.4c0.3,0.1,0.5,0.2,0.8,0.3c0.5,0.2,1,0.4,1.4,0.6h0.2L128.3,133.1z"/>
			</g>
		</g>
	</g>
</g>
</svg>
