<?xml version="1.0" encoding="utf-8"?>
<!-- Generator: Adobe Illustrator 25.2.0, SVG Export Plug-In . SVG Version: 6.00 Build 0)  -->
<svg version="1.1" id="Layer_1" xmlns="http://www.w3.org/2000/svg" xmlns:xlink="http://www.w3.org/1999/xlink" x="0px" y="0px"
	 viewBox="0 0 224.2 312.8" style="enable-background:new 0 0 224.2 312.8;" xml:space="preserve">
<style type="text/css">
	.st0{opacity:2.000000e-02;enable-background:new    ;}
	.st1{opacity:5.000000e-02;enable-background:new    ;}
	.st2{fill:#B20033;}
	.st3{fill:#050307;}
	.st4{enable-background:new    ;}
	.st5{fill:none;stroke:#000000;stroke-miterlimit:10;}
</style>
<g>
	<g>
		<g class="st0">
			<rect x="-0.2" y="0.7" width="224.4" height="312.1"/>
		</g>
		<g class="st0">
			<rect x="-0.2" y="0.7" width="224.4" height="312.1"/>
		</g>
		<g class="st1">
			<path d="M173.4,283.5H50.6c-4.2,0-7.5-3.4-7.5-7.5V37.6c0-4.2,3.4-7.5,7.5-7.5h122.9c4.2,0,7.5,3.4,7.5,7.5V276
				C181,280.1,177.6,283.5,173.4,283.5z"/>
		</g>
		<g>
			<g>
				<path class="st2" d="M37.7,39.6c0,0.1,0,0.3,0,0.4c0,0.1,0,0.3,0,0.4c0,0.2,0,0.4-0.1,0.6c0,0.2-0.1,0.3-0.1,0.5
					c-0.6,2.6-2.3,4.9-4.7,5.9c-0.3,0.1-0.6,0.3-0.9,0.4c-0.7,0.2-1.3,0.3-2,0.3c-1.5,0-2.9-0.7-4.1-1.6c-0.6-0.5-1.2-1.1-1.6-1.8
					c-0.3-0.4-0.5-0.8-0.7-1.2s-0.2-0.3-0.3-0.8c0,0.3,0,0.6,0.1,0.8c0.1,0.6,0.2,0.6,0.3,1.2c0.5,1.4,1.4,2.6,2.5,3.5
					c0.7,0.7,1.6,1.2,2.5,1.6l0,0c-2.1,2.1-5.8,6.5-6.7,11.4c0,0.2-0.1,0.4-0.1,0.7c0-0.2-0.1-0.5-0.1-0.7c-0.4-2.2-1.3-4.4-2.5-6.3
					c-0.9-1.5-2-2.8-3.1-4.1c-0.6-0.7-1.3-1.4-2.1-1.9c-0.2-0.2-0.4-0.3-0.7-0.4l0,0c-0.7-0.3-1.3-0.5-2.1-0.8
					c-0.3-0.1-0.5-0.2-0.8-0.3c-0.4-0.2-0.8-0.5-1.2-0.8c0,0,0,0-0.1-0.1c-0.4-0.3-0.7-0.6-1-1c-0.3-0.3-0.5-0.7-0.7-1
					C7.3,44.3,7.1,44,7,43.8c-0.1-0.1-0.1-0.2-0.2-0.4c-0.2-0.5-0.4-1-0.5-1.6c-0.1-0.4-0.2-0.8-0.2-1.3c0,0,0,0,0-0.1
					c0-0.3,0-0.5,0-0.8c0-1.2,0.2-2.3,0.6-3.3c0.6-1.7,1.8-3,3.2-4c0.1-0.1,0.2-0.1,0.3-0.2c0.6-0.3,1.2-0.6,1.8-0.8
					c0.4-0.1,0.8-0.2,1.2-0.2c0.3,0,0.5-0.1,0.8-0.1c0.5,0,1,0.1,1.5,0.2c0.1,0,0.2,0,0.3,0.1c0.1,0,0.3,0.1,0.4,0.1
					s0.2,0.1,0.3,0.1c0.1,0,0.2,0.1,0.3,0.1c0.2,0.1,0.4,0.2,0.7,0.3c0.2,0.1,0.4,0.2,0.5,0.3l0.1,0.1c0.2,0.2,0.5,0.3,0.7,0.5
					l0.1,0.1c0,0,0,0,0.1,0.1s0.2,0.1,0.2,0.2l0.1,0.1c0.2,0.2,0.4,0.4,0.6,0.7c0.1,0.1,0.1,0.1,0.2,0.2c0.2,0.3,0.4,0.6,0.6,1
					c0.4,0.7,0.7,1.6,0.9,2.4c0.1,0.5,0.2,1.1,0.2,1.7c0-0.2,0-0.5,0-0.7s0.1-0.4,0.1-0.7c0-0.2,0.1-0.4,0.1-0.5s0-0.1,0-0.2
					c0-0.1,0-0.2,0.1-0.3c0-0.1,0.1-0.3,0.1-0.4c0-0.1,0.1-0.3,0.1-0.4c0.1-0.3,0.2-0.6,0.4-0.8c0.1-0.1,0.1-0.2,0.2-0.3
					c0.1-0.2,0.3-0.5,0.4-0.7c0.1-0.1,0.1-0.2,0.2-0.3c0.1-0.2,0.3-0.4,0.4-0.5s0.1-0.1,0.2-0.2c0.3-0.3,0.5-0.5,0.9-0.7
					c0.1-0.1,0.2-0.2,0.3-0.2c0.2-0.1,0.4-0.3,0.6-0.4c0.7-0.4,1.4-0.7,2.1-0.8c0.2,0,0.5-0.1,0.7-0.1l0,0c0.3,0,0.5-0.1,0.8-0.1
					s0.5,0,0.8,0.1c0.4,0,0.8,0.1,1.2,0.2c0.6,0.2,1.2,0.4,1.8,0.8c0.1,0.1,0.2,0.1,0.3,0.2c0.3,0.2,0.6,0.4,0.8,0.6
					c0.1,0,0.1,0.1,0.2,0.1c0.9,0.9,1.7,1.9,2.2,3.2C37.5,37.3,37.7,38.4,37.7,39.6z"/>
			</g>
			<g>
				<path class="st3" d="M21.9,63.9l-0.3-2.1c0-0.3-0.1-0.5-0.1-0.7c-0.3-2-1.2-4.1-2.5-6.2c-0.9-1.5-1.9-2.8-3.1-4.1
					c-0.6-0.6-1.2-1.3-2.1-1.9c-0.2-0.1-0.4-0.3-0.6-0.4L13,48.4c-0.4-0.2-0.8-0.3-1.2-0.5c-0.2-0.1-0.5-0.2-0.7-0.3
					c-0.3-0.1-0.6-0.2-0.8-0.4c-0.4-0.2-0.9-0.5-1.2-0.8L9,46.3c-0.3-0.3-0.7-0.6-1-1s-0.6-0.7-0.8-1.1c-0.1-0.2-0.3-0.5-0.4-0.7
					c-0.1-0.1-0.1-0.3-0.2-0.4c-0.2-0.5-0.4-1-0.5-1.6c0-0.2-0.1-0.6-0.1-1.1v-0.1c0-0.3,0-0.5,0-0.8c0-1.2,0.2-2.3,0.6-3.4
					C7.3,34.4,8.4,33,9.9,32l0.1,0c0.1,0,0.1-0.1,0.2-0.1c0.6-0.3,1.2-0.6,1.9-0.8c0.4-0.1,0.8-0.2,1.2-0.2c0.2,0,0.5-0.1,0.8-0.1
					c0.5,0,1,0.1,1.6,0.2h0.1c0.1,0,0.1,0,0.2,0.1c0.1,0,0.3,0.1,0.4,0.1l0.3,0.1c0.1,0,0.2,0.1,0.3,0.1h0.1
					c0.2,0.1,0.5,0.2,0.7,0.3c0.2,0.1,0.4,0.2,0.5,0.3s0.1,0.1,0.2,0.1c0.2,0.2,0.5,0.3,0.7,0.5c0.1,0.1,0.1,0.1,0.1,0.1l0.2,0.1
					c0.1,0,0.1,0.1,0.2,0.1l0.1,0.1c0.3,0.3,0.4,0.5,0.6,0.7c0.1,0.1,0.1,0.1,0.2,0.2c0.3,0.3,0.5,0.7,0.7,1
					c0.4,0.7,0.7,1.4,0.8,2.1c0,0,0,0,0-0.1s0-0.2,0.1-0.3c0-0.1,0.1-0.3,0.1-0.4c0-0.1,0.1-0.3,0.1-0.4c0.1-0.3,0.2-0.6,0.4-0.8
					c0.1-0.1,0.1-0.2,0.2-0.3c0.1-0.3,0.3-0.5,0.5-0.7l0.1-0.1c0.1-0.1,0.1-0.1,0.2-0.2c0.1-0.2,0.3-0.4,0.5-0.5
					c0.1-0.1,0.1-0.1,0.2-0.2c0.3-0.3,0.6-0.6,0.9-0.8c0.1-0.1,0.2-0.2,0.3-0.2c0.2-0.2,0.4-0.3,0.7-0.4c0.7-0.4,1.4-0.7,2.2-0.8
					c0.2,0,0.5-0.1,0.8-0.1c0.5-0.1,1.2,0,1.7,0c0.4,0,0.8,0.1,1.2,0.2c0.6,0.2,1.3,0.4,1.8,0.8l0.1,0.1C33.9,32,34,32,34.1,32
					c0.3,0.2,0.6,0.4,0.9,0.7c0.1,0,0.1,0.1,0.2,0.2c1,0.9,1.7,2,2.2,3.3c0.4,1.1,0.6,2.2,0.6,3.4c0,0.1,0,0.3,0,0.4
					c0,0.1,0,0.3,0,0.4c0,0.2,0,0.4-0.1,0.6c0,0.2-0.1,0.3-0.1,0.5c-0.6,2.7-2.4,5-4.8,6.1c-0.3,0.1-0.6,0.3-0.9,0.4
					c-0.7,0.2-1.4,0.3-2.1,0.3c-1.5,0-3-0.6-4.2-1.7c-0.6-0.5-1.2-1.1-1.7-1.8c0.5,1.2,1.3,2.3,2.3,3.1c0.8,0.7,1.6,1.2,2.4,1.5
					l0.4,0.2l-0.3,0.3c-2.1,2.1-5.8,6.4-6.6,11.3c0,0.2-0.1,0.4-0.1,0.6L21.9,63.9z M13.7,48.2c0.2,0.1,0.4,0.2,0.5,0.3
					c0.9,0.6,1.6,1.4,2.1,2c1.2,1.3,2.2,2.7,3.2,4.2c1.1,1.8,1.9,3.7,2.4,5.5c1.1-4.4,4.2-8.3,6.3-10.4c-0.8-0.3-1.5-0.8-2.2-1.5
					c-1.1-0.9-2-2.2-2.6-3.6l-0.1-0.2c-0.1-0.3-0.2-0.5-0.3-1c0-0.2,0-0.4-0.1-0.6v-0.2V40l0.7,2.5c0.1,0.3,0.1,0.3,0.2,0.5
					c0,0.1,0.1,0.1,0.1,0.2c0.2,0.4,0.4,0.8,0.7,1.2c0.5,0.7,1,1.3,1.6,1.7c1.2,1,2.6,1.5,3.9,1.6c0.6,0,1.3-0.1,1.9-0.3
					c0.3-0.1,0.6-0.2,0.8-0.4c2.2-1,3.9-3.2,4.5-5.8c0-0.2,0.1-0.3,0.1-0.4c0-0.2,0.1-0.4,0.1-0.6c0-0.1,0-0.3,0-0.4
					c0-0.1,0-0.3,0-0.4c0-1.1-0.2-2.2-0.6-3.2c-0.5-1.2-1.2-2.3-2.1-3.1C34.7,33,34.7,33,34.7,33c-0.3-0.2-0.5-0.4-0.8-0.6
					c-0.1,0-0.2-0.1-0.3-0.2h-0.1c-0.5-0.3-1.1-0.6-1.7-0.7c-0.4-0.1-0.7-0.2-1.1-0.2c-0.5-0.1-1-0.1-1.5,0c-0.3,0-0.5,0.1-0.7,0.1
					c-0.7,0.1-1.4,0.4-2,0.8c-0.2,0.1-0.4,0.2-0.6,0.4c-0.1,0.1-0.2,0.1-0.3,0.2c-0.3,0.2-0.6,0.5-0.8,0.7c-0.1,0.1-0.1,0.1-0.2,0.2
					c-0.1,0.2-0.3,0.3-0.4,0.5c0,0.1-0.1,0.1-0.1,0.2L24,34.5c-0.1,0.2-0.3,0.4-0.4,0.7c-0.1,0.1-0.1,0.2-0.2,0.3
					c-0.1,0.2-0.2,0.5-0.3,0.8C23,36.4,23,36.6,23,36.7c-0.1,0.1-0.1,0.2-0.1,0.4c0,0.1-0.1,0.2-0.1,0.3v0.1c0,0,0,0,0,0.1l-0.1,0.6
					c0,0.2-0.1,0.4-0.1,0.6c0,0.2,0,0.5,0,0.7H22c0-0.6-0.1-1.2-0.2-1.6c-0.2-0.8-0.5-1.6-0.9-2.4c-0.2-0.3-0.4-0.6-0.6-1
					c0-0.1-0.1-0.1-0.2-0.2c-0.2-0.2-0.4-0.5-0.6-0.6l-0.1-0.1c-0.1-0.1-0.1-0.1-0.2-0.2L19,33.3c-0.1-0.1-0.1-0.1-0.2-0.2
					c-0.2-0.2-0.4-0.3-0.7-0.5c0,0-0.1,0-0.1-0.1c-0.2-0.1-0.4-0.2-0.5-0.3c-0.2-0.1-0.4-0.2-0.6-0.3h-0.1c-0.1,0-0.1-0.1-0.2-0.1
					l-0.3-0.1c-0.1,0-0.3-0.1-0.4-0.1c-0.1,0-0.1,0-0.2,0h-0.1c-0.8-0.2-1.5-0.2-2.2-0.1c-0.4,0-0.7,0.1-1.1,0.2
					c-0.6,0.2-1.2,0.4-1.7,0.7c-0.1,0-0.1,0.1-0.2,0.1l-0.1,0.1c-1.4,0.9-2.4,2.2-3.1,3.8c-0.4,1-0.6,2.1-0.6,3.2c0,0.3,0,0.5,0,0.8
					v0.1c0,0.4,0.1,0.8,0.2,1.2c0.1,0.5,0.3,1,0.5,1.5c0.1,0.1,0.1,0.3,0.2,0.4c0.1,0.2,0.3,0.5,0.4,0.7c0.2,0.3,0.4,0.6,0.7,1
					s0.6,0.7,1,1l0.1,0.1c0.4,0.3,0.8,0.6,1.2,0.8c0.2,0.1,0.5,0.2,0.8,0.3c0.2,0.1,0.5,0.2,0.7,0.3c0.5,0.2,0.9,0.3,1.3,0.6h0.2
					L13.7,48.2z"/>
			</g>
		</g>
		<g>
			<g>
				<path class="st2" d="M186,274.8c0-0.1,0-0.3,0-0.4s0-0.3,0-0.4c0-0.2,0-0.4,0.1-0.6c0-0.2,0.1-0.3,0.1-0.5
					c0.6-2.6,2.3-4.8,4.6-5.9c0.3-0.1,0.6-0.2,0.9-0.4c0.6-0.2,1.3-0.3,2-0.3c1.5,0,2.9,0.6,4,1.6c0.6,0.5,1.2,1.1,1.6,1.8
					c0.3,0.4,0.5,0.8,0.7,1.2c0.2,0.4,0.2,0.3,0.3,0.8c0-0.3,0-0.5-0.1-0.8c-0.1-0.6-0.2-0.6-0.3-1.1c-0.5-1.4-1.4-2.6-2.4-3.4
					c-0.7-0.7-1.6-1.2-2.5-1.6l0,0c2.1-2.1,5.8-6.4,6.6-11.3c0-0.2,0.1-0.4,0.1-0.6c0,0.2,0.1,0.4,0.1,0.7c0.4,2.2,1.3,4.3,2.5,6.2
					c0.9,1.5,1.9,2.8,3.1,4.1c0.6,0.7,1.3,1.4,2.1,1.9c0.2,0.2,0.4,0.3,0.6,0.4l0,0c0.6,0.3,1.3,0.5,2,0.8c0.3,0.1,0.5,0.2,0.8,0.3
					c0.4,0.2,0.8,0.5,1.2,0.8c0,0,0,0,0.1,0.1c0.4,0.3,0.7,0.6,1,1c0.3,0.3,0.5,0.6,0.7,1c0.1,0.2,0.3,0.5,0.4,0.7
					c0.1,0.1,0.1,0.2,0.2,0.4c0.2,0.5,0.4,1,0.5,1.5c0.1,0.4,0.2,0.8,0.2,1.2c0,0,0,0,0,0.1c0,0.3,0,0.5,0,0.8
					c0,1.2-0.2,2.3-0.6,3.3c-0.6,1.6-1.7,3-3.1,3.9c-0.1,0.1-0.2,0.1-0.3,0.2c-0.5,0.3-1.1,0.6-1.8,0.7c-0.4,0.1-0.8,0.2-1.1,0.2
					s-0.5,0.1-0.8,0.1c-0.5,0-1-0.1-1.5-0.2c-0.1,0-0.2,0-0.3-0.1c-0.1,0-0.3-0.1-0.4-0.1c-0.1,0-0.2-0.1-0.3-0.1s-0.2-0.1-0.3-0.1
					c-0.2-0.1-0.4-0.2-0.6-0.3c-0.2-0.1-0.4-0.2-0.5-0.3l-0.1-0.1c-0.2-0.2-0.5-0.3-0.7-0.5l-0.1-0.1c0,0,0,0-0.1-0.1
					s-0.2-0.1-0.2-0.2l-0.1-0.1c-0.2-0.2-0.4-0.4-0.6-0.6c-0.1-0.1-0.1-0.1-0.2-0.2c-0.2-0.3-0.4-0.6-0.6-1
					c-0.4-0.7-0.7-1.5-0.9-2.4c-0.1-0.5-0.2-1.1-0.2-1.7c0,0.2,0,0.5,0,0.7s-0.1,0.4-0.1,0.6s-0.1,0.4-0.1,0.5s0,0.1,0,0.2
					s0,0.2-0.1,0.3c0,0.1-0.1,0.3-0.1,0.4s-0.1,0.3-0.1,0.4c-0.1,0.3-0.2,0.5-0.4,0.8c-0.1,0.1-0.1,0.2-0.2,0.3
					c-0.1,0.2-0.3,0.5-0.4,0.7c-0.1,0.1-0.1,0.2-0.2,0.3c-0.1,0.2-0.3,0.4-0.4,0.5c-0.1,0.1-0.1,0.1-0.2,0.2
					c-0.3,0.3-0.5,0.5-0.8,0.7c-0.1,0.1-0.2,0.2-0.3,0.2c-0.2,0.1-0.4,0.3-0.6,0.4c-0.6,0.4-1.3,0.6-2.1,0.8c-0.2,0-0.5,0.1-0.7,0.1
					l0,0c-0.3,0-0.5,0.1-0.8,0.1s-0.5,0-0.8-0.1c-0.4,0-0.8-0.1-1.2-0.2c-0.6-0.2-1.2-0.4-1.8-0.7c-0.1-0.1-0.2-0.1-0.3-0.2
					c-0.3-0.2-0.6-0.4-0.8-0.6c-0.1,0-0.1-0.1-0.2-0.1c-0.9-0.8-1.7-1.9-2.1-3.1C186.3,277.1,186,276,186,274.8z"/>
			</g>
			<g>
				<path class="st3" d="M201.6,250.8l0.3,2c0,0.3,0.1,0.5,0.1,0.7c0.3,2,1.2,4,2.4,6.1c0.9,1.5,1.9,2.8,3,4c0.6,0.6,1.2,1.3,2,1.9
					c0.2,0.1,0.4,0.3,0.6,0.4l0.2,0.1c0.4,0.2,0.8,0.3,1.2,0.5c0.2,0.1,0.5,0.2,0.7,0.3c0.3,0.1,0.6,0.2,0.8,0.3
					c0.4,0.2,0.8,0.5,1.2,0.8l0.1,0.1c0.3,0.3,0.7,0.6,1,1s0.6,0.7,0.7,1c0.1,0.2,0.3,0.5,0.4,0.7c0.1,0.1,0.1,0.3,0.2,0.4
					c0.2,0.5,0.4,1,0.5,1.6c0.1,0.4,0.2,0.8,0.2,1.3v0.1c0,0.3,0,0.5,0,0.8c0,1.2-0.2,2.3-0.6,3.4c-0.6,1.7-1.8,3.1-3.2,4l-0.1,0.1
					c-0.1,0-0.1,0.1-0.2,0.1c-0.6,0.3-1.2,0.6-1.8,0.8c-0.4,0.1-0.8,0.2-1.2,0.2c-0.2,0-0.5,0.1-0.8,0.1c-0.5,0-1-0.1-1.5-0.2h-0.1
					c-0.1,0-0.1,0-0.2-0.1c-0.1,0-0.3-0.1-0.4-0.1l-0.3-0.1c-0.1,0-0.2-0.1-0.3-0.1h-0.1c-0.2-0.1-0.5-0.2-0.7-0.3
					c-0.2-0.1-0.3-0.2-0.5-0.3c-0.1-0.1-0.1-0.1-0.2-0.1c-0.2-0.2-0.5-0.3-0.7-0.5c-0.1-0.1-0.1-0.1-0.1-0.1l-0.2-0.1
					c-0.1,0-0.1-0.1-0.1-0.1l-0.1-0.1c-0.2-0.3-0.4-0.5-0.6-0.7c-0.1-0.1-0.1-0.1-0.2-0.2c-0.2-0.3-0.5-0.7-0.6-1
					c-0.4-0.7-0.6-1.4-0.8-2.1c0,0,0,0,0,0.1s0,0.2-0.1,0.3c0,0.1-0.1,0.3-0.1,0.4s-0.1,0.3-0.1,0.4c-0.1,0.3-0.2,0.6-0.4,0.8
					c-0.1,0.1-0.1,0.2-0.2,0.3c-0.1,0.3-0.3,0.5-0.4,0.7l-0.1,0.1c0,0.1-0.1,0.1-0.2,0.2c-0.1,0.2-0.3,0.4-0.5,0.5
					c-0.1,0.1-0.1,0.1-0.2,0.2c-0.3,0.3-0.6,0.6-0.9,0.8c-0.1,0.1-0.2,0.2-0.3,0.2c-0.2,0.2-0.4,0.3-0.6,0.4
					c-0.7,0.4-1.4,0.7-2.2,0.8c-0.2,0-0.5,0.1-0.7,0.1c-0.5,0.1-1.2,0-1.7,0c-0.4,0-0.8-0.1-1.2-0.2c-0.6-0.2-1.2-0.4-1.8-0.8
					l-0.1-0.1c-0.1-0.1-0.2-0.1-0.2-0.1c-0.3-0.2-0.6-0.4-0.9-0.7c-0.1,0-0.1-0.1-0.2-0.1c-0.9-0.9-1.7-2-2.2-3.2
					c-0.4-1.1-0.6-2.2-0.6-3.4c0-0.1,0-0.3,0-0.4s0-0.3,0-0.4c0-0.2,0-0.4,0.1-0.6c0-0.2,0.1-0.3,0.1-0.5c0.6-2.6,2.4-5,4.7-6.1
					c0.3-0.1,0.6-0.3,0.9-0.4c0.7-0.2,1.4-0.3,2.1-0.3c1.5,0,2.9,0.6,4.2,1.7c0.6,0.5,1.2,1.1,1.6,1.8c-0.5-1.2-1.3-2.2-2.3-3.1
					c-0.8-0.7-1.6-1.2-2.4-1.5l-0.4-0.1l0.3-0.3c2.1-2.1,5.7-6.3,6.5-11.1c0-0.2,0.1-0.4,0.1-0.6L201.6,250.8z M209.7,266.3
					c-0.2-0.1-0.4-0.2-0.5-0.3c-0.8-0.6-1.6-1.4-2.1-1.9c-1.2-1.3-2.2-2.6-3.1-4.1c-1.1-1.8-1.9-3.6-2.3-5.4
					c-1,4.4-4.2,8.2-6.2,10.3c0.8,0.3,1.5,0.8,2.2,1.5c1.1,0.9,2,2.2,2.5,3.5l0.1,0.2c0.1,0.3,0.2,0.5,0.3,1c0,0.2,0,0.4,0.1,0.6
					v0.2l0.1,2.6l-0.7-2.5c-0.1-0.3-0.1-0.3-0.2-0.5c0-0.1-0.1-0.1-0.1-0.2c-0.2-0.4-0.4-0.8-0.6-1.2c-0.5-0.7-1-1.2-1.6-1.7
					c-1.2-1-2.5-1.5-3.8-1.5c-0.6,0-1.3,0.1-1.9,0.3c-0.3,0.1-0.6,0.2-0.8,0.4c-2.2,1-3.9,3.2-4.4,5.7c0,0.1-0.1,0.3-0.1,0.4
					c0,0.2-0.1,0.4-0.1,0.6c0,0.1,0,0.3,0,0.4s0,0.3,0,0.4c0,1.1,0.2,2.2,0.6,3.2c0.5,1.2,1.2,2.2,2.1,3c0.1,0,0.1,0.1,0.1,0.1
					c0.3,0.2,0.5,0.4,0.8,0.6c0.1,0,0.2,0.1,0.3,0.2h0.1c0.5,0.3,1.1,0.5,1.7,0.7c0.4,0.1,0.7,0.2,1.1,0.2c0.5,0.1,1,0.1,1.5,0
					c0.3,0,0.5-0.1,0.7-0.1c0.7-0.1,1.4-0.4,2-0.8c0.2-0.1,0.4-0.2,0.6-0.4c0.1-0.1,0.2-0.1,0.3-0.2c0.3-0.2,0.5-0.4,0.8-0.7
					c0.1-0.1,0.1-0.1,0.2-0.2c0.1-0.2,0.3-0.3,0.4-0.5c0-0.1,0.1-0.1,0.1-0.2l0.1-0.1c0.1-0.2,0.3-0.4,0.4-0.6
					c0.1-0.1,0.1-0.2,0.2-0.3c0.1-0.2,0.2-0.5,0.3-0.8c0.1-0.1,0.1-0.2,0.1-0.4c0.1-0.1,0.1-0.2,0.1-0.4c0-0.1,0.1-0.2,0.1-0.3V277
					c0,0,0,0,0-0.1l0.1-0.6c0-0.2,0.1-0.4,0.1-0.6s0-0.5,0-0.7h0.5c0,0.6,0.1,1.1,0.2,1.6c0.2,0.8,0.4,1.6,0.8,2.3
					c0.2,0.3,0.4,0.6,0.6,0.9c0,0.1,0.1,0.1,0.2,0.2c0.2,0.2,0.4,0.4,0.5,0.6l0.1,0.1c0.1,0.1,0.1,0.1,0.2,0.1l0.1,0.1
					c0.1,0.1,0.1,0.1,0.2,0.2c0.2,0.2,0.4,0.3,0.7,0.5c0,0,0.1,0,0.1,0.1c0.2,0.1,0.4,0.2,0.5,0.3c0.2,0.1,0.4,0.2,0.6,0.3h0.1
					c0.1,0,0.1,0.1,0.2,0.1l0.3,0.1c0.1,0,0.3,0.1,0.4,0.1c0.1,0,0.1,0,0.2,0h0.1c0.8,0.2,1.5,0.2,2.2,0.1c0.3,0,0.7-0.1,1.1-0.2
					c0.6-0.2,1.2-0.4,1.7-0.7c0.1,0,0.1-0.1,0.2-0.1l0.1-0.1c1.3-0.9,2.4-2.2,3-3.8c0.4-1,0.6-2.1,0.6-3.2c0-0.3,0-0.5,0-0.8v-0.1
					c0-0.4-0.1-0.8-0.2-1.2c-0.1-0.5-0.3-1-0.5-1.5c-0.1-0.1-0.1-0.2-0.2-0.4c-0.1-0.2-0.2-0.5-0.4-0.7c-0.2-0.3-0.4-0.6-0.7-1
					s-0.6-0.7-1-1l-0.1-0.1c-0.4-0.3-0.7-0.5-1.1-0.8c-0.2-0.1-0.5-0.2-0.7-0.3c-0.2-0.1-0.5-0.2-0.7-0.3c-0.5-0.2-0.9-0.3-1.3-0.5
					h-0.2L209.7,266.3z"/>
			</g>
		</g>
		<g class="st4">
			<path d="M15.2,86.2v9.9h-2.3V74.4h2.3v9.8h2.8l9.2-9.8h2.9L19.7,85.1l11,11.1h-3l-9.8-9.9H15.2z"/>
		</g>
		<g class="st4">
			<path class="st5" d="M15.2,86.2v9.9h-2.3V74.4h2.3v9.8h2.8l9.2-9.8h2.9L19.7,85.1l11,11.1h-3l-9.8-9.9H15.2z"/>
		</g>
		<g class="st4">
			<path d="M207,229v-9.9h2.3v21.8H207v-9.8h-2.8l-9.2,9.8h-2.9l10.3-10.7l-11-11.1h3l9.8,9.9H207z"/>
		</g>
		<g class="st4">
			<path class="st5" d="M207,229v-9.9h2.3v21.8H207v-9.8h-2.8l-9.2,9.8h-2.9l10.3-10.7l-11-11.1h3l9.8,9.9H207z"/>
		</g>
	</g>
	<g>
		<path d="M128.2,89.5h-19.4c-1,0-1.9-0.7-2.2-1.8l-2-8.7c-0.1-0.6-0.6-1-1.2-1H92.2c-0.9,0-1.6-0.5-2-1.3c-0.4-0.8-0.3-1.6,0.2-2.3
			l13.5-18.6c0.3-0.4,0.8-0.9,1.8-0.9l26.2-0.7c1.3,0,2.3,1,2.3,2.3v6.4c0,1.3-1,2.3-2.3,2.3H125c-0.4,0-0.8,0.2-1,0.5
			c-0.2,0.3-0.3,0.7-0.3,1L128.2,89.5z M131.9,55.2l-26.2,0.7c-0.6,0-0.9,0.3-1,0.5l0,0L91.2,75c-0.3,0.4-0.3,0.9-0.1,1.3
			c0.2,0.4,0.6,0.7,1.1,0.7h11.2c1.1,0,2.1,0.8,2.2,1.8l2,8.6c0.1,0.6,0.7,1,1.2,1H127l-4.3-21.6c-0.1-0.7,0.1-1.4,0.5-1.9
			c0.4-0.5,1.1-0.8,1.8-0.8h6.9c0.7,0,1.3-0.6,1.3-1.3v-6.4C133.2,55.8,132.6,55.2,131.9,55.2z"/>
	</g>
	<g>
		<path d="M133,45.2l-2.7,7.6c0,0.1-0.1,0.2-0.2,0.2l-23.3,0.6c-0.1,0-0.2-0.1-0.2-0.1l-3.1-7.5c-0.1-0.2,0.2-0.4,0.4-0.3l5.2,3.5
			c0.1,0.1,0.2,0.1,0.3,0l7.6-5.4c0.8-0.5,1.8-0.6,2.6-0.1l7.8,5c0.1,0.1,0.2,0,0.3,0l5-3.8C132.9,44.8,133.1,45,133,45.2z"/>
	</g>
	<g>
		<circle cx="118.3" cy="40.9" r="1.1"/>
	</g>
	<g>
		<path d="M108,89.5H95c-1,0-1.9-0.4-2.5-1.2c-0.6-0.7-0.8-1.7-0.5-2.6l2-8.7h11.1L108,89.5z M94.8,78.1L93,86
			c-0.2,0.6,0,1.2,0.3,1.7c0.4,0.5,1,0.8,1.7,0.8h11.8l-2.5-10.4H94.8z"/>
	</g>
	<g>
		<polygon points="105.6,137.1 82.8,137.1 82.8,136.1 105.2,136.1 140.9,99.2 154.4,108.5 153.8,109.3 141.1,100.6 		"/>
	</g>
	<g>
		<polygon points="140.8,89 127.7,89 122.9,64.7 126.5,64.7 125.8,64.9 131.8,88.7 133.4,88.7 127.2,64.7 130.2,64.7 129.5,64.9 
			136.5,88.8 138,88.7 131,64.7 133.8,64.7 		"/>
	</g>
	<g>
		<path class="st2" d="M140.8,89h7.1c1,0,1.6,1.2,0.8,2l-44,45.1h-22L131.9,89H140.8z"/>
	</g>
	<g>
		<path d="M128.8,90.2c-7.2,6.9-29.5,28.3-36.1,34.6c-0.1-1.4-0.2-3.3-0.4-4.9c-0.4-5.5-0.6-7.5-0.7-8.3c0.4-1.8,5.4-13.7,8.8-21.4
			L128.8,90.2 M131.9,89H99.6c0,0-9.5,21.9-9.2,22.7c0.3,0.8,1.1,15.8,1.3,15.8l0,0C91.9,127.3,131.9,89,131.9,89L131.9,89z"/>
	</g>
	<g>
		<path class="st2" d="M89.3,113.8l1,11.6l-5.6,5.9l-0.1-14.6L89.3,113.8 M90.4,111.7l-7,4.3l0.1,18.4l8.1-8.6L90.4,111.7
			L90.4,111.7z"/>
	</g>
	<g>
		<path d="M83.3,144.7H72.1V90.9c0-6.9,2.6-13.3,7.4-18.2l3.8-3.9V144.7z M73.1,143.7h9.2V71.2l-2,2.1c-4.6,4.7-7.2,10.9-7.2,17.6
			V143.7z"/>
	</g>
	<g>
		<rect x="70.1" y="144.2" width="15.2" height="1.6"/>
	</g>
	<g>
		<rect x="77.2" y="90.4" width="1" height="51.8"/>
	</g>
	<g>
		<path d="M93.4,85c-0.2,0-0.5-0.2-0.5-0.4c0-0.3,0.1-0.5,0.4-0.6l5.5-0.9c0.3,0,0.5,0.1,0.6,0.4c0,0.3-0.1,0.5-0.4,0.6L93.4,85
			C93.5,85,93.4,85,93.4,85z"/>
	</g>
	<g>
		<g>
			<polygon points="131,64.7 130.2,64.7 130.9,64.5 			"/>
		</g>
	</g>
	<g>
		<g>
			<polygon points="127.2,64.7 126.5,64.7 127.2,64.5 			"/>
		</g>
	</g>
	<g>
		<path d="M92.1,117.9l-0.9-0.5C108,88.5,108.6,88.5,109,88.5V89l0.3,0.4C108.3,90.3,98.5,106.9,92.1,117.9z"/>
	</g>
	<g>
		<rect x="84.5" y="105.7" transform="matrix(0.6434 -0.7655 0.7655 0.6434 -43.5513 118.7996)" width="42.4" height="1"/>
	</g>
	<g>
		<path class="st2" d="M149.5,92v11.3l-6.6-4.6L149.5,92 M149.7,90.5c-0.2,0-0.5,0.1-0.7,0.3l-8,8.2l9.7,6.7V91.5
			C150.7,90.9,150.3,90.5,149.7,90.5L149.7,90.5z"/>
	</g>
	<g>
		<rect x="80.5" y="130.3" transform="matrix(0.6787 -0.7344 0.7344 0.6787 -67.9353 106.408)" width="14.3" height="1"/>
	</g>
	<g>
		<rect x="83.4" y="139" width="18.9" height="1"/>
	</g>
	<g>
		<rect x="83.4" y="141.9" width="11.6" height="1"/>
	</g>
	<g>
		<polygon points="154.1,162.7 130.7,162.7 105,137 105.8,136.2 131.1,161.7 154.1,161.7 		"/>
	</g>
	<g>
		<path d="M92.2,259.4c-1.3,0-2.3-1-2.3-2.3v-6.4c0-1.3,1-2.3,2.3-2.3h6.9c0.4,0,0.8-0.2,1-0.5c0.2-0.3,0.3-0.7,0.3-1l-4.5-22.8
			h19.5c1,0,1.9,0.7,2.2,1.8l2,8.7c0.1,0.6,0.6,1,1.2,1H132c0.9,0,1.6,0.5,2,1.3c0.4,0.8,0.3,1.6-0.2,2.3l-13.5,18.6
			c-0.4,0.6-1.1,0.9-1.9,0.9L92.2,259.4z M92.2,249.4c-0.7,0-1.3,0.6-1.3,1.3v6.4c0,0.7,0.6,1.3,1.3,1.3l26.2-0.7
			c0.6,0,0.9-0.3,1.1-0.5l13.5-18.6c0.3-0.4,0.3-0.9,0.1-1.3c-0.2-0.4-0.6-0.7-1.1-0.7h-11.2c-1.1,0-2.1-0.8-2.2-1.8l-2-8.7
			c-0.1-0.6-0.7-1-1.2-1H97.1l4.3,21.6c0.1,0.7-0.1,1.4-0.5,1.9c-0.4,0.5-1.1,0.8-1.8,0.8H92.2z"/>
	</g>
	<g>
		<path d="M91.2,268.4l2.7-7.6c0-0.1,0.1-0.2,0.2-0.2l23.3-0.6c0.1,0,0.2,0.1,0.2,0.1l3.1,7.5c0.1,0.2-0.2,0.4-0.4,0.3l-5.2-3.5
			c-0.1-0.1-0.2-0.1-0.3,0l-7.6,5.4c-0.8,0.5-1.8,0.6-2.6,0.1l-7.8-5c-0.1-0.1-0.2,0-0.3,0l-5,3.8C91.3,268.8,91.1,268.6,91.2,268.4
			z"/>
	</g>
	<g>
		<circle cx="105.9" cy="272.7" r="1.1"/>
	</g>
	<g>
		<path d="M129.3,240.4v-4h-10.2l-2.9-12.4h13c0.9,0,1.8,0.4,2.4,1.2c0.6,0.8,0.8,1.7,0.6,2.6L129.3,240.4z M119.9,235.4h9.5
			l1.8-7.8c0.2-0.6,0-1.3-0.4-1.8c-0.4-0.5-1-0.8-1.6-0.8h-11.8L119.9,235.4z"/>
	</g>
	<g>
		<polygon points="83.3,214.4 69.8,205.1 70.4,204.3 83.1,213 118.6,176.4 141.4,176.4 141.4,177.4 119,177.4 		"/>
	</g>
	<g>
		<polygon points="83.4,224.5 96.5,224.5 101.3,248.9 97.7,248.9 98.4,248.7 92.4,224.8 90.8,224.8 97,248.9 94,248.9 94.7,248.6 
			87.7,224.8 86.2,224.8 93.2,248.9 90.4,248.9 		"/>
	</g>
	<g>
		<path class="st2" d="M83.4,224.5h-7.1c-1,0-1.6-1.2-0.8-2l44-45.1h22l-49.1,47.1H83.4z"/>
	</g>
	<g>
		<path d="M131.5,188.7c0.1,1.4,0.2,3.3,0.4,4.9c0.4,5.5,0.6,7.5,0.7,8.3c-0.4,1.8-5.4,13.7-8.8,21.4H95.4L131.5,188.7 M132.5,186.1
			C132.4,186.1,132.4,186.1,132.5,186.1c-0.2,0.2-40.1,38.5-40.1,38.5h32.3c0,0,9.5-21.9,9.2-22.7
			C133.5,201,132.7,186.1,132.5,186.1L132.5,186.1z"/>
	</g>
	<g>
		<path class="st2" d="M139.4,182.2l0.1,14.6l-4.7,2.9l-1-11.6L139.4,182.2 M140.7,179.1l-8.1,8.6l1.2,14.1l7-4.3L140.7,179.1
			L140.7,179.1z"/>
	</g>
	<g>
		<path d="M140.9,244.7v-75.8h11.2v53.8c0,6.9-2.6,13.3-7.4,18.2L140.9,244.7z M141.9,169.9v72.4l2-2c4.6-4.7,7.2-10.9,7.2-17.5
			v-52.8H141.9z"/>
	</g>
	<g>
		<rect x="138.9" y="167.8" width="15.2" height="1.6"/>
	</g>
	<g>
		<rect x="146" y="171.3" width="1" height="51.9"/>
	</g>
	<g>
		<path d="M125.3,230.4c-0.2,0-0.5-0.2-0.5-0.4c0-0.3,0.1-0.5,0.4-0.6l5.5-0.9c0.3,0,0.5,0.1,0.6,0.4c0,0.3-0.1,0.5-0.4,0.6
			L125.3,230.4C125.4,230.4,125.3,230.4,125.3,230.4z"/>
	</g>
	<g>
		<g>
			<polygon points="93.2,248.9 94,248.9 93.3,249.1 			"/>
		</g>
	</g>
	<g>
		<g>
			<polygon points="97,248.9 97.7,248.9 97,249 			"/>
		</g>
	</g>
	<g>
		<path d="M115.1,225v-0.5l-0.3-0.4c1-0.8,10.8-17.5,17.1-28.4l0.9,0.5C116.1,225,115.5,225,115.1,225z"/>
	</g>
	<g>
		<rect x="97.2" y="206.9" transform="matrix(0.6429 -0.766 0.766 0.6429 -116.5791 164.7598)" width="42.3" height="1"/>
	</g>
	<g>
		<path class="st2" d="M74.7,210.2l6.6,4.6l-6.6,6.7V210.2 M73.4,207.9v14.2c0,0.6,0.5,1,1,1c0.2,0,0.5-0.1,0.7-0.3l8-8.2
			L73.4,207.9L73.4,207.9z"/>
	</g>
	<g>
		<rect x="129.4" y="182.1" transform="matrix(0.6782 -0.7349 0.7349 0.6782 -90.2832 159.1247)" width="14.3" height="1"/>
	</g>
	<g>
		<rect x="121.9" y="173.6" width="18.9" height="1"/>
	</g>
	<g>
		<rect x="129.2" y="170.7" width="11.6" height="1"/>
	</g>
	<g>
		<polygon points="118.4,177.3 93.1,151.8 70.1,151.8 70.1,150.8 93.5,150.8 119.2,176.5 		"/>
	</g>
	<g>
		<g>
			<path class="st2" d="M158.1,130c0,0.2,0,0.3,0,0.5s0,0.3,0,0.5s-0.1,0.5-0.1,0.7s-0.1,0.4-0.1,0.6c-0.7,3.2-2.8,5.9-5.7,7.2
				c-0.3,0.2-0.7,0.3-1.1,0.5c-0.8,0.2-1.6,0.4-2.5,0.4c-1.8-0.1-3.5-0.8-5-2c-0.8-0.6-1.4-1.4-2-2.2c-0.3-0.5-0.6-1-0.8-1.5
				s-0.2-0.4-0.4-0.9c0,0.3,0,0.7,0.1,1c0.1,0.7,0.2,0.8,0.4,1.4c0.6,1.7,1.7,3.2,3,4.2c0.9,0.8,1.9,1.5,3.1,1.9l0,0
				c-2.6,2.6-7.1,7.9-8.1,13.9c0,0.3-0.1,0.5-0.1,0.8c0-0.3-0.1-0.5-0.1-0.8c-0.5-2.7-1.6-5.3-3-7.6c-1.1-1.8-2.4-3.5-3.8-5
				c-0.8-0.9-1.6-1.7-2.6-2.4c-0.3-0.2-0.5-0.3-0.8-0.5l0,0c-0.8-0.4-1.6-0.7-2.5-1c-0.3-0.1-0.6-0.3-1-0.4c-0.5-0.3-1-0.6-1.5-1
				c0,0,0,0-0.1-0.1c-0.5-0.4-0.9-0.8-1.3-1.2c-0.3-0.4-0.6-0.8-0.9-1.2c-0.2-0.3-0.3-0.6-0.5-0.9c-0.1-0.1-0.1-0.3-0.2-0.5
				c-0.3-0.6-0.5-1.2-0.6-1.9c-0.1-0.5-0.2-1-0.3-1.5v-0.1c0-0.3,0-0.6,0-1c0-1.4,0.3-2.8,0.8-4c0.8-2,2.1-3.7,3.9-4.8
				c0.1-0.1,0.3-0.2,0.4-0.3c0.7-0.4,1.4-0.7,2.2-0.9c0.5-0.1,0.9-0.2,1.4-0.3c0.3,0,0.6-0.1,1-0.1c0.6,0,1.2,0.1,1.8,0.2
				c0.1,0,0.2,0,0.4,0.1c0.2,0,0.4,0.1,0.5,0.1s0.3,0.1,0.4,0.1c0.1,0,0.3,0.1,0.4,0.2c0.3,0.1,0.5,0.2,0.8,0.4
				c0.2,0.1,0.4,0.3,0.6,0.4c0.1,0,0.1,0.1,0.1,0.1c0.3,0.2,0.6,0.4,0.8,0.6c0.1,0.1,0.1,0.1,0.1,0.1s0,0,0.1,0.1s0.2,0.2,0.3,0.3
				c0.1,0.1,0.1,0.1,0.2,0.2c0.2,0.2,0.5,0.5,0.7,0.8c0.1,0.1,0.1,0.2,0.2,0.3c0.3,0.4,0.5,0.8,0.8,1.2c0.5,0.9,0.9,1.9,1.1,3
				c0.2,0.7,0.2,1.4,0.2,2.1c0-0.3,0-0.6,0-0.9c0-0.3,0.1-0.5,0.1-0.8c0-0.2,0.1-0.4,0.1-0.7c0-0.1,0-0.1,0.1-0.2
				c0-0.1,0-0.2,0.1-0.3c0-0.2,0.1-0.3,0.2-0.5c0.1-0.2,0.1-0.3,0.2-0.5c0.1-0.3,0.3-0.7,0.4-1c0.1-0.1,0.1-0.2,0.2-0.4
				c0.2-0.3,0.3-0.6,0.5-0.8c0.1-0.1,0.2-0.3,0.3-0.4c0.2-0.2,0.4-0.4,0.5-0.6c0.1-0.1,0.2-0.2,0.2-0.3c0.3-0.3,0.7-0.6,1-0.9
				c0.1-0.1,0.2-0.2,0.4-0.3c0.3-0.2,0.5-0.3,0.8-0.5c0.8-0.5,1.7-0.8,2.6-1c0.3-0.1,0.6-0.1,0.9-0.1l0,0c0.3,0,0.6-0.1,1-0.1
				c0.3,0,0.7,0,1,0.1c0.5,0,1,0.1,1.4,0.3c0.8,0.2,1.5,0.5,2.2,0.9c0.1,0.1,0.3,0.2,0.4,0.3c0.4,0.2,0.7,0.5,1,0.8
				c0.1,0.1,0.1,0.1,0.2,0.2c1.1,1,2.1,2.4,2.7,3.9C157.8,127.2,158.1,128.6,158.1,130z"/>
		</g>
		<g>
			<path class="st3" d="M138.8,159.7l-0.3-2.5c0-0.3-0.1-0.6-0.1-0.8c-0.4-2.5-1.4-5-3-7.5c-1.1-1.8-2.3-3.4-3.8-5
				c-0.7-0.7-1.5-1.6-2.5-2.3c-0.2-0.2-0.5-0.3-0.7-0.4l-0.2-0.1c-0.5-0.2-0.9-0.4-1.5-0.6c-0.3-0.1-0.6-0.2-0.9-0.3
				c-0.4-0.1-0.7-0.3-1-0.4c-0.5-0.3-1-0.6-1.5-1c-0.1,0-0.1-0.1-0.1-0.1c-0.4-0.3-0.9-0.7-1.3-1.2s-0.7-0.9-0.9-1.3
				c-0.2-0.3-0.3-0.6-0.5-0.9c-0.1-0.2-0.2-0.3-0.2-0.5c-0.3-0.6-0.5-1.3-0.7-2c-0.1-0.5-0.2-1-0.3-1.6v-0.1c0-0.3,0-0.7,0-1
				c0-1.4,0.3-2.8,0.8-4.2c0.8-2.1,2.2-3.8,4-5l0.1-0.1c0.1-0.1,0.2-0.1,0.2-0.2c0.7-0.4,1.5-0.7,2.3-1c0.5-0.1,1-0.2,1.5-0.3
				c0.3,0,0.6-0.1,1-0.1c0.6,0,1.2,0.1,1.9,0.2h0.1c0.1,0,0.2,0,0.3,0.1c0.2,0,0.4,0.1,0.5,0.1l0.4,0.1c0.1,0,0.2,0.1,0.3,0.1h0.1
				c0.3,0.1,0.6,0.3,0.8,0.4s0.4,0.2,0.6,0.4c0.1,0.1,0.2,0.1,0.2,0.1c0.3,0.2,0.6,0.4,0.9,0.7c0.1,0.1,0.1,0.1,0.1,0.1l0.2,0.2
				c0.1,0.1,0.1,0.1,0.2,0.2l0.1,0.1c0.3,0.3,0.5,0.6,0.8,0.9c0.1,0.1,0.1,0.2,0.2,0.3c0.3,0.4,0.6,0.8,0.8,1.2
				c0.5,0.8,0.8,1.7,1,2.6c0,0,0,0,0-0.1s0.1-0.2,0.1-0.3c0-0.1,0.1-0.3,0.2-0.5c0-0.1,0.1-0.3,0.2-0.5c0.1-0.3,0.3-0.7,0.4-1
				c0.1-0.1,0.1-0.2,0.2-0.3c0.2-0.3,0.4-0.6,0.6-0.9l0.1-0.1c0.1-0.1,0.1-0.2,0.2-0.3c0.2-0.2,0.4-0.5,0.6-0.7
				c0.1-0.1,0.2-0.2,0.2-0.3c0.4-0.4,0.7-0.7,1.1-1c0.1-0.1,0.3-0.2,0.4-0.3c0.3-0.2,0.5-0.4,0.8-0.5c0.8-0.5,1.7-0.8,2.7-1
				c0.3-0.1,0.6-0.1,0.9-0.1c0.6-0.1,1.5-0.1,2,0c0.5,0,1,0.1,1.5,0.3c0.8,0.2,1.5,0.5,2.2,1l0.1,0.1c0.1,0.1,0.2,0.1,0.3,0.2
				c0.4,0.3,0.8,0.5,1.1,0.8c0.1,0,0.1,0.1,0.2,0.2c1.2,1.1,2.1,2.4,2.7,4c0.5,1.3,0.8,2.7,0.8,4.1c0,0.2,0,0.4,0,0.5
				c0,0.2,0,0.3,0,0.5s-0.1,0.5-0.1,0.7s-0.1,0.4-0.1,0.6c-0.7,3.3-3,6.1-5.9,7.5c-0.3,0.2-0.7,0.3-1.1,0.5
				c-0.9,0.3-1.8,0.4-2.6,0.4c-1.8-0.1-3.6-0.8-5.2-2.1c-0.7-0.6-1.4-1.4-2-2.2c0.6,1.5,1.6,2.8,2.8,3.8c0.9,0.8,1.9,1.5,3,1.9
				l0.5,0.2l-0.4,0.4c-2.6,2.6-7,7.8-8,13.8c0,0.3-0.1,0.5-0.1,0.8L138.8,159.7z M128.8,140.6c0.2,0.1,0.5,0.3,0.7,0.4
				c1,0.7,1.9,1.7,2.6,2.4c1.5,1.6,2.7,3.3,3.8,5.1c1.4,2.2,2.4,4.5,2.9,6.7c1.3-5.4,5.2-10.1,7.7-12.7c-1-0.4-1.9-1-2.7-1.8
				c-1.4-1.2-2.5-2.7-3.1-4.4l-0.1-0.3c-0.2-0.4-0.2-0.6-0.3-1.2c0-0.3-0.1-0.5-0.1-0.8v-0.3l-0.2-3.2l0.8,3.1
				c0.1,0.4,0.1,0.4,0.2,0.6c0,0.1,0.1,0.2,0.1,0.3c0.2,0.5,0.5,1,0.8,1.5c0.6,0.8,1.2,1.5,1.9,2.1c1.4,1.2,3.1,1.9,4.8,1.9
				c0.8,0,1.6-0.1,2.4-0.3c0.3-0.1,0.7-0.3,1-0.4c2.7-1.3,4.8-3.9,5.5-7c0-0.2,0.1-0.4,0.1-0.5c0-0.2,0.1-0.5,0.1-0.7s0-0.3,0-0.5
				s0-0.3,0-0.5c0-1.4-0.2-2.7-0.7-3.9c-0.6-1.5-1.5-2.8-2.6-3.8c-0.1-0.1-0.1-0.1-0.2-0.2c-0.3-0.3-0.6-0.5-1-0.8
				c-0.1,0-0.2-0.1-0.3-0.2l-0.1-0.1c-0.6-0.4-1.3-0.7-2.1-0.9c-0.5-0.1-0.9-0.2-1.4-0.3c-0.6-0.1-1.3-0.1-1.9,0
				c-0.3,0-0.6,0.1-0.9,0.1c-0.9,0.2-1.7,0.5-2.5,0.9c-0.2,0.1-0.5,0.3-0.7,0.5c-0.1,0.1-0.2,0.2-0.3,0.3c-0.3,0.3-0.7,0.6-1,0.9
				c-0.1,0.1-0.2,0.2-0.2,0.3c-0.2,0.2-0.3,0.4-0.5,0.6c-0.1,0.1-0.1,0.2-0.2,0.2L141,124c-0.2,0.3-0.3,0.5-0.5,0.8
				c-0.1,0.1-0.1,0.2-0.2,0.4c-0.1,0.3-0.3,0.6-0.4,0.9c-0.1,0.2-0.1,0.3-0.2,0.5c-0.1,0.2-0.1,0.3-0.1,0.4s-0.1,0.2-0.1,0.3v0.1
				v0.1l-0.1,0.7c0,0.2-0.1,0.5-0.1,0.8s0,0.6,0,0.8h-0.7c0-0.7-0.1-1.4-0.2-2c-0.2-1-0.6-2-1-2.9c-0.2-0.4-0.5-0.8-0.8-1.2
				c-0.1-0.1-0.1-0.2-0.2-0.2c-0.2-0.3-0.4-0.5-0.7-0.8l-0.1-0.1c-0.1-0.1-0.1-0.1-0.2-0.2l-0.1-0.1c-0.1-0.1-0.2-0.1-0.2-0.2
				c-0.2-0.2-0.5-0.4-0.8-0.6c0,0-0.1,0-0.1-0.1c-0.3-0.2-0.5-0.3-0.7-0.4c-0.3-0.1-0.5-0.3-0.8-0.4h-0.1c-0.1,0-0.2-0.1-0.3-0.1
				l-0.4-0.1c-0.2-0.1-0.3-0.1-0.5-0.1c-0.1,0-0.2,0-0.2-0.1h-0.1c-0.9-0.2-1.8-0.2-2.7-0.1c-0.4,0-0.9,0.1-1.4,0.3
				c-0.8,0.2-1.5,0.5-2.1,0.9c-0.1,0-0.2,0.1-0.2,0.2l-0.1,0.1c-1.6,1.1-3,2.7-3.7,4.7c-0.5,1.2-0.7,2.6-0.7,3.9c0,0.3,0,0.6,0,0.9
				v0.1c0,0.5,0.1,1,0.2,1.4c0.1,0.6,0.4,1.3,0.6,1.8c0.1,0.2,0.1,0.3,0.2,0.4c0.1,0.3,0.3,0.6,0.5,0.8c0.2,0.4,0.5,0.7,0.9,1.2
				c0.4,0.4,0.8,0.8,1.2,1.2l0.1,0.1c0.4,0.4,0.9,0.7,1.4,0.9c0.3,0.1,0.6,0.3,0.9,0.4c0.3,0.1,0.6,0.2,0.8,0.3
				c0.6,0.2,1.1,0.4,1.6,0.7h0.3L128.8,140.6z"/>
		</g>
	</g>
	<g>
		<g>
			<path class="st2" d="M65.5,184.8c0-0.2,0-0.3,0-0.5s0-0.3,0-0.5s0.1-0.5,0.1-0.7s0.1-0.4,0.1-0.6c0.7-3.2,2.8-5.9,5.7-7.2
				c0.3-0.2,0.7-0.3,1.1-0.5c0.8-0.2,1.6-0.4,2.5-0.4c1.8,0.1,3.5,0.8,5,2c0.8,0.6,1.4,1.4,2,2.2c0.3,0.5,0.6,1,0.8,1.5
				c0.2,0.5,0.2,0.4,0.4,0.9c0-0.3,0-0.7-0.1-1c-0.1-0.7-0.2-0.8-0.4-1.4c-0.6-1.7-1.7-3.2-3-4.2c-0.9-0.8-1.9-1.5-3.1-1.9l0,0
				c2.6-2.6,7.1-7.9,8.1-13.9c0-0.3,0.1-0.5,0.1-0.8c0,0.3,0.1,0.5,0.1,0.8c0.5,2.7,1.6,5.3,3,7.6c1.1,1.8,2.4,3.5,3.8,5
				c0.8,0.9,1.6,1.7,2.6,2.4c0.3,0.2,0.5,0.3,0.8,0.5l0,0c0.8,0.4,1.6,0.7,2.5,1c0.3,0.1,0.6,0.3,1,0.4c0.5,0.3,1,0.6,1.5,1
				c0,0,0,0,0.1,0.1c0.5,0.4,0.9,0.8,1.3,1.2c0.3,0.4,0.6,0.8,0.9,1.2c0.2,0.3,0.3,0.6,0.5,0.9c0.1,0.1,0.1,0.3,0.2,0.5
				c0.3,0.6,0.5,1.2,0.6,1.9c0.1,0.5,0.2,1,0.3,1.5v0.1c0,0.3,0,0.6,0,1c0,1.4-0.3,2.8-0.8,4c-0.8,2-2.1,3.7-3.9,4.8
				c-0.1,0.1-0.3,0.2-0.4,0.3c-0.7,0.4-1.4,0.7-2.2,0.9c-0.5,0.1-0.9,0.2-1.4,0.3c-0.3,0-0.6,0.1-1,0.1c-0.6,0-1.2-0.1-1.8-0.2
				c-0.1,0-0.2,0-0.4-0.1c-0.2,0-0.4-0.1-0.5-0.1s-0.3-0.1-0.4-0.1s-0.3-0.1-0.4-0.2c-0.3-0.1-0.5-0.2-0.8-0.4
				c-0.2-0.1-0.4-0.3-0.6-0.4c-0.1,0-0.1-0.1-0.1-0.1c-0.3-0.2-0.6-0.4-0.8-0.6c-0.1-0.1-0.1-0.1-0.1-0.1s0,0-0.1-0.1
				s-0.2-0.2-0.3-0.3c-0.1-0.1-0.1-0.1-0.2-0.2c-0.2-0.2-0.5-0.5-0.7-0.8c-0.1-0.1-0.1-0.2-0.2-0.3c-0.3-0.4-0.5-0.8-0.8-1.2
				c-0.5-0.9-0.9-1.9-1.1-3c-0.2-0.7-0.2-1.4-0.2-2.1c0,0.3,0,0.6,0,0.9c0,0.3-0.1,0.5-0.1,0.8c0,0.2-0.1,0.4-0.1,0.7
				c0,0.1,0,0.1-0.1,0.2c0,0.1,0,0.2-0.1,0.3c0,0.2-0.1,0.3-0.2,0.5s-0.1,0.3-0.2,0.5c-0.1,0.3-0.3,0.7-0.4,1
				c-0.1,0.1-0.1,0.2-0.2,0.4c-0.2,0.3-0.3,0.6-0.5,0.8c-0.1,0.1-0.2,0.3-0.3,0.4c-0.2,0.2-0.4,0.4-0.5,0.6
				c-0.1,0.1-0.2,0.2-0.2,0.3c-0.3,0.3-0.7,0.6-1,0.9c-0.1,0.1-0.2,0.2-0.4,0.3c-0.3,0.2-0.5,0.3-0.8,0.5c-0.8,0.5-1.7,0.8-2.6,1
				c-0.3,0.1-0.6,0.1-0.9,0.1l0,0c-0.3,0-0.6,0.1-1,0.1c-0.3,0-0.7,0-1-0.1c-0.5,0-1-0.1-1.4-0.3c-0.8-0.2-1.5-0.5-2.2-0.9
				c-0.1-0.1-0.3-0.2-0.4-0.3c-0.4-0.2-0.7-0.5-1-0.8c-0.1-0.1-0.1-0.1-0.2-0.2c-1.1-1-2.1-2.4-2.7-3.9
				C65.8,187.6,65.5,186.2,65.5,184.8z"/>
		</g>
		<g>
			<path class="st3" d="M84.8,155.2l0.3,2.5c0,0.3,0.1,0.6,0.1,0.8c0.4,2.5,1.4,5,3,7.5c1.1,1.8,2.3,3.4,3.8,5
				c0.7,0.7,1.5,1.6,2.5,2.3c0.2,0.2,0.5,0.3,0.7,0.4l0.2,0.1c0.5,0.2,0.9,0.4,1.5,0.6c0.3,0.1,0.6,0.2,0.9,0.3
				c0.4,0.1,0.7,0.3,1,0.4c0.5,0.3,1,0.6,1.5,1c0.1,0,0.1,0.1,0.1,0.1c0.4,0.3,0.9,0.7,1.3,1.2s0.7,0.9,0.9,1.3
				c0.2,0.3,0.3,0.6,0.5,0.9c0.1,0.2,0.2,0.3,0.2,0.5c0.3,0.6,0.5,1.3,0.7,2c0.1,0.5,0.2,1,0.3,1.6v0.1c0,0.3,0,0.7,0,1
				c0,1.4-0.3,2.8-0.8,4.2c-0.8,2.1-2.2,3.8-4,5l-0.1,0.1c-0.1,0.1-0.2,0.1-0.2,0.2c-0.7,0.4-1.5,0.7-2.3,1c-0.5,0.1-1,0.2-1.5,0.3
				c-0.3,0-0.6,0.1-1,0.1c-0.6,0-1.2-0.1-1.9-0.2h-0.1c-0.1,0-0.2,0-0.3-0.1c-0.2,0-0.4-0.1-0.5-0.1l-0.4-0.1
				c-0.1,0-0.2-0.1-0.3-0.1h-0.1c-0.3-0.1-0.6-0.3-0.8-0.4c-0.2-0.1-0.4-0.2-0.6-0.4c-0.1-0.1-0.2-0.1-0.2-0.1
				c-0.3-0.2-0.6-0.4-0.9-0.7c-0.1-0.1-0.1-0.1-0.1-0.1l-0.2-0.2c-0.1-0.1-0.1-0.1-0.2-0.2l-0.1-0.1c-0.3-0.3-0.5-0.6-0.8-0.9
				c-0.1-0.1-0.1-0.2-0.2-0.3c-0.3-0.4-0.6-0.8-0.8-1.2c-0.5-0.8-0.8-1.7-1-2.6c0,0,0,0,0,0.1s-0.1,0.2-0.1,0.3s-0.1,0.3-0.2,0.5
				c0,0.1-0.1,0.3-0.2,0.5c-0.1,0.3-0.3,0.7-0.4,1c-0.1,0.1-0.1,0.2-0.2,0.3c-0.2,0.3-0.4,0.6-0.6,0.9l-0.1,0.1
				c-0.1,0.1-0.1,0.2-0.2,0.3c-0.2,0.2-0.4,0.5-0.6,0.7c-0.1,0.1-0.2,0.2-0.2,0.3c-0.4,0.4-0.7,0.7-1.1,1c-0.1,0.1-0.3,0.2-0.4,0.3
				c-0.3,0.2-0.5,0.4-0.8,0.5c-0.8,0.5-1.7,0.8-2.7,1c-0.3,0.1-0.6,0.1-0.9,0.1c-0.6,0.1-1.5,0.1-2,0c-0.5,0-1-0.1-1.5-0.3
				c-0.8-0.2-1.5-0.5-2.2-1l-0.1-0.1c-0.1-0.1-0.2-0.1-0.3-0.2c-0.4-0.3-0.8-0.5-1.1-0.8c-0.1,0-0.1-0.1-0.2-0.2
				c-1.2-1.1-2.1-2.4-2.7-4c-0.5-1.3-0.8-2.7-0.8-4.1c0-0.2,0-0.4,0-0.5c0-0.2,0-0.3,0-0.5s0.1-0.5,0.1-0.7s0.1-0.4,0.1-0.6
				c0.7-3.3,3-6.1,5.9-7.5c0.3-0.2,0.7-0.3,1.1-0.5c0.9-0.3,1.8-0.4,2.6-0.4c1.8,0.1,3.6,0.8,5.2,2.1c0.7,0.6,1.4,1.4,2,2.2
				c-0.6-1.5-1.6-2.8-2.8-3.8c-0.9-0.8-1.9-1.5-3-1.9l-0.5-0.2l0.4-0.4c2.6-2.6,7-7.8,8-13.8c0-0.3,0.1-0.5,0.1-0.8L84.8,155.2z
				 M94.8,174.3c-0.2-0.1-0.5-0.3-0.7-0.4c-1-0.7-1.9-1.7-2.6-2.4c-1.5-1.6-2.7-3.3-3.8-5.1c-1.4-2.2-2.4-4.5-2.9-6.7
				c-1.3,5.4-5.2,10.1-7.7,12.7c1,0.4,1.9,1,2.7,1.8c1.4,1.2,2.5,2.7,3.1,4.4l0.1,0.3c0.2,0.4,0.2,0.6,0.3,1.2
				c0,0.3,0.1,0.5,0.1,0.8v0.3l0.2,3.2l-0.8-3.1c-0.1-0.4-0.1-0.4-0.2-0.6c0-0.1-0.1-0.2-0.1-0.3c-0.2-0.5-0.5-1-0.8-1.5
				c-0.6-0.8-1.2-1.5-1.9-2.1c-1.4-1.2-3.1-1.9-4.8-1.9c-0.8,0-1.6,0.1-2.4,0.3c-0.3,0.1-0.7,0.3-1,0.4c-2.7,1.3-4.8,3.9-5.5,7
				c0,0.2-0.1,0.4-0.1,0.5c0,0.2-0.1,0.5-0.1,0.7s0,0.3,0,0.5s0,0.3,0,0.5c0,1.4,0.2,2.7,0.7,3.9c0.6,1.5,1.5,2.8,2.6,3.8
				c0.1,0.1,0.1,0.1,0.2,0.2c0.3,0.3,0.6,0.5,1,0.8c0.1,0,0.2,0.1,0.3,0.2l0.1,0.1c0.6,0.4,1.3,0.7,2.1,0.9c0.5,0.1,0.9,0.2,1.4,0.3
				c0.6,0.1,1.3,0.1,1.9,0c0.3,0,0.6-0.1,0.9-0.1c0.9-0.2,1.7-0.5,2.5-0.9c0.2-0.1,0.5-0.3,0.7-0.5c0.1-0.1,0.2-0.2,0.3-0.3
				c0.3-0.3,0.7-0.6,1-0.9c0.1-0.1,0.2-0.2,0.2-0.3c0.2-0.2,0.3-0.4,0.5-0.6c0.1-0.1,0.1-0.2,0.2-0.2l0.1-0.2
				c0.2-0.3,0.3-0.5,0.5-0.8c0.1-0.1,0.1-0.2,0.2-0.4c0.1-0.3,0.3-0.6,0.4-0.9c0.1-0.2,0.1-0.3,0.2-0.5s0.1-0.3,0.1-0.4
				c0-0.1,0.1-0.2,0.1-0.3v-0.1v-0.1l0.1-0.7c0-0.2,0.1-0.5,0.1-0.8s0-0.6,0-0.8H85c0,0.7,0.1,1.4,0.2,2c0.2,1,0.6,2,1,2.9
				c0.2,0.4,0.5,0.8,0.8,1.2c0.1,0.1,0.1,0.2,0.2,0.2c0.2,0.3,0.4,0.5,0.7,0.8l0.1,0.1c0.1,0.1,0.1,0.1,0.2,0.2l0.1,0.1
				c0.1,0.1,0.2,0.1,0.2,0.2c0.2,0.2,0.5,0.4,0.8,0.6c0,0,0.1,0,0.1,0.1c0.3,0.2,0.5,0.3,0.7,0.4c0.3,0.1,0.5,0.3,0.8,0.4H91
				c0.1,0,0.2,0.1,0.3,0.1l0.4,0.1c0.2,0.1,0.3,0.1,0.5,0.1c0.1,0,0.2,0,0.2,0.1h0.1c0.9,0.2,1.8,0.2,2.7,0.1c0.4,0,0.9-0.1,1.4-0.3
				c0.8-0.2,1.5-0.5,2.1-0.9c0.1,0,0.2-0.1,0.2-0.2l0.1-0.1c1.6-1.1,3-2.7,3.7-4.7c0.5-1.2,0.7-2.6,0.7-3.9c0-0.3,0-0.6,0-0.9v-0.1
				c0-0.5-0.1-1-0.2-1.4c-0.1-0.6-0.4-1.3-0.6-1.8c-0.1-0.2-0.1-0.3-0.2-0.4c-0.1-0.3-0.3-0.6-0.5-0.8c-0.2-0.4-0.5-0.7-0.9-1.2
				c-0.4-0.4-0.8-0.8-1.2-1.2l-0.1-0.1c-0.4-0.4-0.9-0.7-1.4-0.9c-0.3-0.1-0.6-0.3-0.9-0.4c-0.3-0.1-0.6-0.2-0.8-0.3
				c-0.6-0.2-1.1-0.4-1.6-0.7h-0.3L94.8,174.3z"/>
		</g>
	</g>
</g>
</svg>
