<?xml version="1.0" encoding="utf-8"?>
<!-- Generator: Adobe Illustrator 25.2.0, SVG Export Plug-In . SVG Version: 6.00 Build 0)  -->
<svg version="1.1" id="Layer_1" xmlns="http://www.w3.org/2000/svg" xmlns:xlink="http://www.w3.org/1999/xlink" x="0px" y="0px"
	 viewBox="0 0 224.2 312.8" style="enable-background:new 0 0 224.2 312.8;" xml:space="preserve">
<style type="text/css">
	.st0{opacity:2.000000e-02;enable-background:new    ;}
	.st1{opacity:5.000000e-02;enable-background:new    ;}
	.st2{fill:#B20033;}
	.st3{fill:#050307;}
	.st4{enable-background:new    ;}
	.st5{fill:none;stroke:#000000;stroke-miterlimit:10;}
</style>
<g>
	<g class="st0">
		<rect x="-0.2" y="0.7" width="224.4" height="312.1"/>
	</g>
	<g class="st0">
		<rect x="-0.2" y="0.7" width="224.4" height="312.1"/>
	</g>
	<g class="st1">
		<path d="M173.4,283.5H50.6c-4.2,0-7.5-3.4-7.5-7.5V37.6c0-4.2,3.4-7.5,7.5-7.5h122.9c4.2,0,7.5,3.4,7.5,7.5V276
			C181,280.1,177.6,283.5,173.4,283.5z"/>
	</g>
	<g>
		<g>
			<path class="st2" d="M37.7,39.6c0,0.1,0,0.3,0,0.4c0,0.1,0,0.3,0,0.4c0,0.2,0,0.4-0.1,0.6c0,0.2-0.1,0.3-0.1,0.5
				c-0.6,2.6-2.3,4.9-4.7,5.9c-0.3,0.1-0.6,0.3-0.9,0.4c-0.7,0.2-1.3,0.3-2,0.3c-1.5,0-2.9-0.7-4.1-1.6c-0.6-0.5-1.2-1.1-1.6-1.8
				c-0.3-0.4-0.5-0.8-0.7-1.2s-0.2-0.3-0.3-0.8c0,0.3,0,0.6,0.1,0.8c0.1,0.6,0.2,0.6,0.3,1.2c0.5,1.4,1.4,2.6,2.5,3.5
				c0.7,0.7,1.6,1.2,2.5,1.6l0,0c-2.1,2.1-5.8,6.5-6.7,11.4c0,0.2-0.1,0.4-0.1,0.7c0-0.2-0.1-0.5-0.1-0.7c-0.4-2.2-1.3-4.4-2.5-6.3
				c-0.9-1.5-2-2.8-3.1-4.1c-0.6-0.7-1.3-1.4-2.1-1.9c-0.2-0.2-0.4-0.3-0.7-0.4l0,0c-0.7-0.3-1.3-0.5-2.1-0.8
				c-0.3-0.1-0.5-0.2-0.8-0.3c-0.4-0.2-0.8-0.5-1.2-0.8c0,0,0,0-0.1-0.1c-0.4-0.3-0.7-0.6-1-1c-0.3-0.3-0.5-0.7-0.7-1
				C7.3,44.3,7.1,44,7,43.8c-0.1-0.1-0.1-0.2-0.2-0.4c-0.2-0.5-0.4-1-0.5-1.6c-0.1-0.4-0.2-0.8-0.2-1.3c0,0,0,0,0-0.1
				c0-0.3,0-0.5,0-0.8c0-1.2,0.2-2.3,0.6-3.3c0.6-1.7,1.8-3,3.2-4c0.1-0.1,0.2-0.1,0.3-0.2c0.6-0.3,1.2-0.6,1.8-0.8
				c0.4-0.1,0.8-0.2,1.2-0.2c0.3,0,0.5-0.1,0.8-0.1c0.5,0,1,0.1,1.5,0.2c0.1,0,0.2,0,0.3,0.1c0.1,0,0.3,0.1,0.4,0.1s0.2,0.1,0.3,0.1
				c0.1,0,0.2,0.1,0.3,0.1c0.2,0.1,0.4,0.2,0.7,0.3c0.2,0.1,0.4,0.2,0.5,0.3l0.1,0.1c0.2,0.2,0.5,0.3,0.7,0.5l0.1,0.1
				c0,0,0,0,0.1,0.1s0.2,0.1,0.2,0.2l0.1,0.1c0.2,0.2,0.4,0.4,0.6,0.7c0.1,0.1,0.1,0.1,0.2,0.2c0.2,0.3,0.4,0.6,0.6,1
				c0.4,0.7,0.7,1.6,0.9,2.4c0.1,0.5,0.2,1.1,0.2,1.7c0-0.2,0-0.5,0-0.7s0.1-0.4,0.1-0.7c0-0.2,0.1-0.4,0.1-0.5s0-0.1,0-0.2
				c0-0.1,0-0.2,0.1-0.3c0-0.1,0.1-0.3,0.1-0.4c0-0.1,0.1-0.3,0.1-0.4c0.1-0.3,0.2-0.6,0.4-0.8c0.1-0.1,0.1-0.2,0.2-0.3
				c0.1-0.2,0.3-0.5,0.4-0.7c0.1-0.1,0.1-0.2,0.2-0.3c0.1-0.2,0.3-0.4,0.4-0.5s0.1-0.1,0.2-0.2c0.3-0.3,0.5-0.5,0.9-0.7
				c0.1-0.1,0.2-0.2,0.3-0.2c0.2-0.1,0.4-0.3,0.6-0.4c0.7-0.4,1.4-0.7,2.1-0.8c0.2,0,0.5-0.1,0.7-0.1l0,0c0.3,0,0.5-0.1,0.8-0.1
				s0.5,0,0.8,0.1c0.4,0,0.8,0.1,1.2,0.2c0.6,0.2,1.2,0.4,1.8,0.8c0.1,0.1,0.2,0.1,0.3,0.2c0.3,0.2,0.6,0.4,0.8,0.6
				c0.1,0,0.1,0.1,0.2,0.1c0.9,0.9,1.7,1.9,2.2,3.2C37.5,37.3,37.7,38.4,37.7,39.6z"/>
		</g>
		<g>
			<path class="st3" d="M21.9,63.9l-0.3-2.1c0-0.3-0.1-0.5-0.1-0.7c-0.3-2-1.2-4.1-2.5-6.2c-0.9-1.5-1.9-2.8-3.1-4.1
				c-0.6-0.6-1.2-1.3-2.1-1.9c-0.2-0.1-0.4-0.3-0.6-0.4L13,48.4c-0.4-0.2-0.8-0.3-1.2-0.5c-0.2-0.1-0.5-0.2-0.7-0.3
				c-0.3-0.1-0.6-0.2-0.8-0.4c-0.4-0.2-0.9-0.5-1.2-0.8L9,46.3c-0.3-0.3-0.7-0.6-1-1s-0.6-0.7-0.8-1.1c-0.1-0.2-0.3-0.5-0.4-0.7
				c-0.1-0.1-0.1-0.3-0.2-0.4c-0.2-0.5-0.4-1-0.5-1.6c0-0.2-0.1-0.6-0.1-1.1v-0.1c0-0.3,0-0.5,0-0.8c0-1.2,0.2-2.3,0.6-3.4
				C7.3,34.4,8.4,33,9.9,32l0.1,0c0.1,0,0.1-0.1,0.2-0.1c0.6-0.3,1.2-0.6,1.9-0.8c0.4-0.1,0.8-0.2,1.2-0.2c0.2,0,0.5-0.1,0.8-0.1
				c0.5,0,1,0.1,1.6,0.2h0.1c0.1,0,0.1,0,0.2,0.1c0.1,0,0.3,0.1,0.4,0.1l0.3,0.1c0.1,0,0.2,0.1,0.3,0.1h0.1c0.2,0.1,0.5,0.2,0.7,0.3
				c0.2,0.1,0.4,0.2,0.5,0.3s0.1,0.1,0.2,0.1c0.2,0.2,0.5,0.3,0.7,0.5c0.1,0.1,0.1,0.1,0.1,0.1l0.2,0.1c0.1,0,0.1,0.1,0.2,0.1
				l0.1,0.1c0.3,0.3,0.4,0.5,0.6,0.7c0.1,0.1,0.1,0.1,0.2,0.2c0.3,0.3,0.5,0.7,0.7,1c0.4,0.7,0.7,1.4,0.8,2.1c0,0,0,0,0-0.1
				s0-0.2,0.1-0.3c0-0.1,0.1-0.3,0.1-0.4c0-0.1,0.1-0.3,0.1-0.4c0.1-0.3,0.2-0.6,0.4-0.8c0.1-0.1,0.1-0.2,0.2-0.3
				c0.1-0.3,0.3-0.5,0.5-0.7l0.1-0.1c0.1-0.1,0.1-0.1,0.2-0.2c0.1-0.2,0.3-0.4,0.5-0.5c0.1-0.1,0.1-0.1,0.2-0.2
				c0.3-0.3,0.6-0.6,0.9-0.8c0.1-0.1,0.2-0.2,0.3-0.2c0.2-0.2,0.4-0.3,0.7-0.4c0.7-0.4,1.4-0.7,2.2-0.8c0.2,0,0.5-0.1,0.8-0.1
				c0.5-0.1,1.2,0,1.7,0c0.4,0,0.8,0.1,1.2,0.2c0.6,0.2,1.3,0.4,1.8,0.8l0.1,0.1C33.9,32,34,32,34.1,32c0.3,0.2,0.6,0.4,0.9,0.7
				c0.1,0,0.1,0.1,0.2,0.2c1,0.9,1.7,2,2.2,3.3c0.4,1.1,0.6,2.2,0.6,3.4c0,0.1,0,0.3,0,0.4c0,0.1,0,0.3,0,0.4c0,0.2,0,0.4-0.1,0.6
				c0,0.2-0.1,0.3-0.1,0.5c-0.6,2.7-2.4,5-4.8,6.1c-0.3,0.1-0.6,0.3-0.9,0.4c-0.7,0.2-1.4,0.3-2.1,0.3c-1.5,0-3-0.6-4.2-1.7
				c-0.6-0.5-1.2-1.1-1.7-1.8c0.5,1.2,1.3,2.3,2.3,3.1c0.8,0.7,1.6,1.2,2.4,1.5l0.4,0.2l-0.3,0.3c-2.1,2.1-5.8,6.4-6.6,11.3
				c0,0.2-0.1,0.4-0.1,0.6L21.9,63.9z M13.7,48.2c0.2,0.1,0.4,0.2,0.5,0.3c0.9,0.6,1.6,1.4,2.1,2c1.2,1.3,2.2,2.7,3.2,4.2
				c1.1,1.8,1.9,3.7,2.4,5.5c1.1-4.4,4.2-8.3,6.3-10.4c-0.8-0.3-1.5-0.8-2.2-1.5c-1.1-0.9-2-2.2-2.6-3.6l-0.1-0.2
				c-0.1-0.3-0.2-0.5-0.3-1c0-0.2,0-0.4-0.1-0.6v-0.2V40l0.7,2.5c0.1,0.3,0.1,0.3,0.2,0.5c0,0.1,0.1,0.1,0.1,0.2
				c0.2,0.4,0.4,0.8,0.7,1.2c0.5,0.7,1,1.3,1.6,1.7c1.2,1,2.6,1.5,3.9,1.6c0.6,0,1.3-0.1,1.9-0.3c0.3-0.1,0.6-0.2,0.8-0.4
				c2.2-1,3.9-3.2,4.5-5.8c0-0.2,0.1-0.3,0.1-0.4c0-0.2,0.1-0.4,0.1-0.6c0-0.1,0-0.3,0-0.4c0-0.1,0-0.3,0-0.4c0-1.1-0.2-2.2-0.6-3.2
				c-0.5-1.2-1.2-2.3-2.1-3.1C34.7,33,34.7,33,34.7,33c-0.3-0.2-0.5-0.4-0.8-0.6c-0.1,0-0.2-0.1-0.3-0.2h-0.1
				c-0.5-0.3-1.1-0.6-1.7-0.7c-0.4-0.1-0.7-0.2-1.1-0.2c-0.5-0.1-1-0.1-1.5,0c-0.3,0-0.5,0.1-0.7,0.1c-0.7,0.1-1.4,0.4-2,0.8
				c-0.2,0.1-0.4,0.2-0.6,0.4c-0.1,0.1-0.2,0.1-0.3,0.2c-0.3,0.2-0.6,0.5-0.8,0.7c-0.1,0.1-0.1,0.1-0.2,0.2
				c-0.1,0.2-0.3,0.3-0.4,0.5c0,0.1-0.1,0.1-0.1,0.2L24,34.5c-0.1,0.2-0.3,0.4-0.4,0.7c-0.1,0.1-0.1,0.2-0.2,0.3
				c-0.1,0.2-0.2,0.5-0.3,0.8C23,36.4,23,36.6,23,36.7c-0.1,0.1-0.1,0.2-0.1,0.4c0,0.1-0.1,0.2-0.1,0.3v0.1c0,0,0,0,0,0.1l-0.1,0.6
				c0,0.2-0.1,0.4-0.1,0.6c0,0.2,0,0.5,0,0.7H22c0-0.6-0.1-1.2-0.2-1.6c-0.2-0.8-0.5-1.6-0.9-2.4c-0.2-0.3-0.4-0.6-0.6-1
				c0-0.1-0.1-0.1-0.2-0.2c-0.2-0.2-0.4-0.5-0.6-0.6l-0.1-0.1c-0.1-0.1-0.1-0.1-0.2-0.2L19,33.3c-0.1-0.1-0.1-0.1-0.2-0.2
				c-0.2-0.2-0.4-0.3-0.7-0.5c0,0-0.1,0-0.1-0.1c-0.2-0.1-0.4-0.2-0.5-0.3c-0.2-0.1-0.4-0.2-0.6-0.3h-0.1c-0.1,0-0.1-0.1-0.2-0.1
				l-0.3-0.1c-0.1,0-0.3-0.1-0.4-0.1c-0.1,0-0.1,0-0.2,0h-0.1c-0.8-0.2-1.5-0.2-2.2-0.1c-0.4,0-0.7,0.1-1.1,0.2
				c-0.6,0.2-1.2,0.4-1.7,0.7c-0.1,0-0.1,0.1-0.2,0.1l-0.1,0.1c-1.4,0.9-2.4,2.2-3.1,3.8c-0.4,1-0.6,2.1-0.6,3.2c0,0.3,0,0.5,0,0.8
				v0.1c0,0.4,0.1,0.8,0.2,1.2c0.1,0.5,0.3,1,0.5,1.5c0.1,0.1,0.1,0.3,0.2,0.4c0.1,0.2,0.3,0.5,0.4,0.7c0.2,0.3,0.4,0.6,0.7,1
				s0.6,0.7,1,1l0.1,0.1c0.4,0.3,0.8,0.6,1.2,0.8c0.2,0.1,0.5,0.2,0.8,0.3c0.2,0.1,0.5,0.2,0.7,0.3c0.5,0.2,0.9,0.3,1.3,0.6h0.2
				L13.7,48.2z"/>
		</g>
	</g>
	<g>
		<g>
			<path class="st2" d="M186,274.8c0-0.1,0-0.3,0-0.4s0-0.3,0-0.4c0-0.2,0-0.4,0.1-0.6c0-0.2,0.1-0.3,0.1-0.5
				c0.6-2.6,2.3-4.8,4.6-5.9c0.3-0.1,0.6-0.2,0.9-0.4c0.6-0.2,1.3-0.3,2-0.3c1.5,0,2.9,0.6,4,1.6c0.6,0.5,1.2,1.1,1.6,1.8
				c0.3,0.4,0.5,0.8,0.7,1.2c0.2,0.4,0.2,0.3,0.3,0.8c0-0.3,0-0.5-0.1-0.8c-0.1-0.6-0.2-0.6-0.3-1.1c-0.5-1.4-1.4-2.6-2.4-3.4
				c-0.7-0.7-1.6-1.2-2.5-1.6l0,0c2.1-2.1,5.8-6.4,6.6-11.3c0-0.2,0.1-0.4,0.1-0.6c0,0.2,0.1,0.4,0.1,0.7c0.4,2.2,1.3,4.3,2.5,6.2
				c0.9,1.5,1.9,2.8,3.1,4.1c0.6,0.7,1.3,1.4,2.1,1.9c0.2,0.2,0.4,0.3,0.6,0.4l0,0c0.6,0.3,1.3,0.5,2,0.8c0.3,0.1,0.5,0.2,0.8,0.3
				c0.4,0.2,0.8,0.5,1.2,0.8c0,0,0,0,0.1,0.1c0.4,0.3,0.7,0.6,1,1c0.3,0.3,0.5,0.6,0.7,1c0.1,0.2,0.3,0.5,0.4,0.7
				c0.1,0.1,0.1,0.2,0.2,0.4c0.2,0.5,0.4,1,0.5,1.5c0.1,0.4,0.2,0.8,0.2,1.2c0,0,0,0,0,0.1c0,0.3,0,0.5,0,0.8c0,1.2-0.2,2.3-0.6,3.3
				c-0.6,1.6-1.7,3-3.1,3.9c-0.1,0.1-0.2,0.1-0.3,0.2c-0.5,0.3-1.1,0.6-1.8,0.7c-0.4,0.1-0.8,0.2-1.1,0.2s-0.5,0.1-0.8,0.1
				c-0.5,0-1-0.1-1.5-0.2c-0.1,0-0.2,0-0.3-0.1c-0.1,0-0.3-0.1-0.4-0.1c-0.1,0-0.2-0.1-0.3-0.1s-0.2-0.1-0.3-0.1
				c-0.2-0.1-0.4-0.2-0.6-0.3c-0.2-0.1-0.4-0.2-0.5-0.3l-0.1-0.1c-0.2-0.2-0.5-0.3-0.7-0.5l-0.1-0.1c0,0,0,0-0.1-0.1
				s-0.2-0.1-0.2-0.2l-0.1-0.1c-0.2-0.2-0.4-0.4-0.6-0.6c-0.1-0.1-0.1-0.1-0.2-0.2c-0.2-0.3-0.4-0.6-0.6-1c-0.4-0.7-0.7-1.5-0.9-2.4
				c-0.1-0.5-0.2-1.1-0.2-1.7c0,0.2,0,0.5,0,0.7s-0.1,0.4-0.1,0.6s-0.1,0.4-0.1,0.5s0,0.1,0,0.2s0,0.2-0.1,0.3
				c0,0.1-0.1,0.3-0.1,0.4s-0.1,0.3-0.1,0.4c-0.1,0.3-0.2,0.5-0.4,0.8c-0.1,0.1-0.1,0.2-0.2,0.3c-0.1,0.2-0.3,0.5-0.4,0.7
				c-0.1,0.1-0.1,0.2-0.2,0.3c-0.1,0.2-0.3,0.4-0.4,0.5c-0.1,0.1-0.1,0.1-0.2,0.2c-0.3,0.3-0.5,0.5-0.8,0.7
				c-0.1,0.1-0.2,0.2-0.3,0.2c-0.2,0.1-0.4,0.3-0.6,0.4c-0.6,0.4-1.3,0.6-2.1,0.8c-0.2,0-0.5,0.1-0.7,0.1l0,0
				c-0.3,0-0.5,0.1-0.8,0.1s-0.5,0-0.8-0.1c-0.4,0-0.8-0.1-1.2-0.2c-0.6-0.2-1.2-0.4-1.8-0.7c-0.1-0.1-0.2-0.1-0.3-0.2
				c-0.3-0.2-0.6-0.4-0.8-0.6c-0.1,0-0.1-0.1-0.2-0.1c-0.9-0.8-1.7-1.9-2.1-3.1C186.3,277.1,186,276,186,274.8z"/>
		</g>
		<g>
			<path class="st3" d="M201.6,250.8l0.3,2c0,0.3,0.1,0.5,0.1,0.7c0.3,2,1.2,4,2.4,6.1c0.9,1.5,1.9,2.8,3,4c0.6,0.6,1.2,1.3,2,1.9
				c0.2,0.1,0.4,0.3,0.6,0.4l0.2,0.1c0.4,0.2,0.8,0.3,1.2,0.5c0.2,0.1,0.5,0.2,0.7,0.3c0.3,0.1,0.6,0.2,0.8,0.3
				c0.4,0.2,0.8,0.5,1.2,0.8l0.1,0.1c0.3,0.3,0.7,0.6,1,1s0.6,0.7,0.7,1c0.1,0.2,0.3,0.5,0.4,0.7c0.1,0.1,0.1,0.3,0.2,0.4
				c0.2,0.5,0.4,1,0.5,1.6c0.1,0.4,0.2,0.8,0.2,1.3v0.1c0,0.3,0,0.5,0,0.8c0,1.2-0.2,2.3-0.6,3.4c-0.6,1.7-1.8,3.1-3.2,4l-0.1,0.1
				c-0.1,0-0.1,0.1-0.2,0.1c-0.6,0.3-1.2,0.6-1.8,0.8c-0.4,0.1-0.8,0.2-1.2,0.2c-0.2,0-0.5,0.1-0.8,0.1c-0.5,0-1-0.1-1.5-0.2h-0.1
				c-0.1,0-0.1,0-0.2-0.1c-0.1,0-0.3-0.1-0.4-0.1l-0.3-0.1c-0.1,0-0.2-0.1-0.3-0.1h-0.1c-0.2-0.1-0.5-0.2-0.7-0.3
				c-0.2-0.1-0.3-0.2-0.5-0.3c-0.1-0.1-0.1-0.1-0.2-0.1c-0.2-0.2-0.5-0.3-0.7-0.5c-0.1-0.1-0.1-0.1-0.1-0.1l-0.2-0.1
				c-0.1,0-0.1-0.1-0.1-0.1l-0.1-0.1c-0.2-0.3-0.4-0.5-0.6-0.7c-0.1-0.1-0.1-0.1-0.2-0.2c-0.2-0.3-0.5-0.7-0.6-1
				c-0.4-0.7-0.6-1.4-0.8-2.1c0,0,0,0,0,0.1s0,0.2-0.1,0.3c0,0.1-0.1,0.3-0.1,0.4s-0.1,0.3-0.1,0.4c-0.1,0.3-0.2,0.6-0.4,0.8
				c-0.1,0.1-0.1,0.2-0.2,0.3c-0.1,0.3-0.3,0.5-0.4,0.7l-0.1,0.1c0,0.1-0.1,0.1-0.2,0.2c-0.1,0.2-0.3,0.4-0.5,0.5
				c-0.1,0.1-0.1,0.1-0.2,0.2c-0.3,0.3-0.6,0.6-0.9,0.8c-0.1,0.1-0.2,0.2-0.3,0.2c-0.2,0.2-0.4,0.3-0.6,0.4
				c-0.7,0.4-1.4,0.7-2.2,0.8c-0.2,0-0.5,0.1-0.7,0.1c-0.5,0.1-1.2,0-1.7,0c-0.4,0-0.8-0.1-1.2-0.2c-0.6-0.2-1.2-0.4-1.8-0.8
				l-0.1-0.1c-0.1-0.1-0.2-0.1-0.2-0.1c-0.3-0.2-0.6-0.4-0.9-0.7c-0.1,0-0.1-0.1-0.2-0.1c-0.9-0.9-1.7-2-2.2-3.2
				c-0.4-1.1-0.6-2.2-0.6-3.4c0-0.1,0-0.3,0-0.4s0-0.3,0-0.4c0-0.2,0-0.4,0.1-0.6c0-0.2,0.1-0.3,0.1-0.5c0.6-2.6,2.4-5,4.7-6.1
				c0.3-0.1,0.6-0.3,0.9-0.4c0.7-0.2,1.4-0.3,2.1-0.3c1.5,0,2.9,0.6,4.2,1.7c0.6,0.5,1.2,1.1,1.6,1.8c-0.5-1.2-1.3-2.2-2.3-3.1
				c-0.8-0.7-1.6-1.2-2.4-1.5l-0.4-0.1l0.3-0.3c2.1-2.1,5.7-6.3,6.5-11.1c0-0.2,0.1-0.4,0.1-0.6L201.6,250.8z M209.7,266.3
				c-0.2-0.1-0.4-0.2-0.5-0.3c-0.8-0.6-1.6-1.4-2.1-1.9c-1.2-1.3-2.2-2.6-3.1-4.1c-1.1-1.8-1.9-3.6-2.3-5.4c-1,4.4-4.2,8.2-6.2,10.3
				c0.8,0.3,1.5,0.8,2.2,1.5c1.1,0.9,2,2.2,2.5,3.5l0.1,0.2c0.1,0.3,0.2,0.5,0.3,1c0,0.2,0,0.4,0.1,0.6v0.2l0.1,2.6l-0.7-2.5
				c-0.1-0.3-0.1-0.3-0.2-0.5c0-0.1-0.1-0.1-0.1-0.2c-0.2-0.4-0.4-0.8-0.6-1.2c-0.5-0.7-1-1.2-1.6-1.7c-1.2-1-2.5-1.5-3.8-1.5
				c-0.6,0-1.3,0.1-1.9,0.3c-0.3,0.1-0.6,0.2-0.8,0.4c-2.2,1-3.9,3.2-4.4,5.7c0,0.1-0.1,0.3-0.1,0.4c0,0.2-0.1,0.4-0.1,0.6
				c0,0.1,0,0.3,0,0.4s0,0.3,0,0.4c0,1.1,0.2,2.2,0.6,3.2c0.5,1.2,1.2,2.2,2.1,3c0.1,0,0.1,0.1,0.1,0.1c0.3,0.2,0.5,0.4,0.8,0.6
				c0.1,0,0.2,0.1,0.3,0.2h0.1c0.5,0.3,1.1,0.5,1.7,0.7c0.4,0.1,0.7,0.2,1.1,0.2c0.5,0.1,1,0.1,1.5,0c0.3,0,0.5-0.1,0.7-0.1
				c0.7-0.1,1.4-0.4,2-0.8c0.2-0.1,0.4-0.2,0.6-0.4c0.1-0.1,0.2-0.1,0.3-0.2c0.3-0.2,0.5-0.4,0.8-0.7c0.1-0.1,0.1-0.1,0.2-0.2
				c0.1-0.2,0.3-0.3,0.4-0.5c0-0.1,0.1-0.1,0.1-0.2l0.1-0.1c0.1-0.2,0.3-0.4,0.4-0.6c0.1-0.1,0.1-0.2,0.2-0.3
				c0.1-0.2,0.2-0.5,0.3-0.8c0.1-0.1,0.1-0.2,0.1-0.4c0.1-0.1,0.1-0.2,0.1-0.4c0-0.1,0.1-0.2,0.1-0.3V277c0,0,0,0,0-0.1l0.1-0.6
				c0-0.2,0.1-0.4,0.1-0.6s0-0.5,0-0.7h0.5c0,0.6,0.1,1.1,0.2,1.6c0.2,0.8,0.4,1.6,0.8,2.3c0.2,0.3,0.4,0.6,0.6,0.9
				c0,0.1,0.1,0.1,0.2,0.2c0.2,0.2,0.4,0.4,0.5,0.6l0.1,0.1c0.1,0.1,0.1,0.1,0.2,0.1l0.1,0.1c0.1,0.1,0.1,0.1,0.2,0.2
				c0.2,0.2,0.4,0.3,0.7,0.5c0,0,0.1,0,0.1,0.1c0.2,0.1,0.4,0.2,0.5,0.3c0.2,0.1,0.4,0.2,0.6,0.3h0.1c0.1,0,0.1,0.1,0.2,0.1l0.3,0.1
				c0.1,0,0.3,0.1,0.4,0.1c0.1,0,0.1,0,0.2,0h0.1c0.8,0.2,1.5,0.2,2.2,0.1c0.3,0,0.7-0.1,1.1-0.2c0.6-0.2,1.2-0.4,1.7-0.7
				c0.1,0,0.1-0.1,0.2-0.1l0.1-0.1c1.3-0.9,2.4-2.2,3-3.8c0.4-1,0.6-2.1,0.6-3.2c0-0.3,0-0.5,0-0.8v-0.1c0-0.4-0.1-0.8-0.2-1.2
				c-0.1-0.5-0.3-1-0.5-1.5c-0.1-0.1-0.1-0.2-0.2-0.4c-0.1-0.2-0.2-0.5-0.4-0.7c-0.2-0.3-0.4-0.6-0.7-1s-0.6-0.7-1-1l-0.1-0.1
				c-0.4-0.3-0.7-0.5-1.1-0.8c-0.2-0.1-0.5-0.2-0.7-0.3c-0.2-0.1-0.5-0.2-0.7-0.3c-0.5-0.2-0.9-0.3-1.3-0.5h-0.2L209.7,266.3z"/>
		</g>
	</g>
	<g class="st4">
		<path d="M28.8,96.1l-2.5-6.2h-11l-2.6,6.2h-2.3l9.1-21.8h2.7l9.1,21.8H28.8z M25.4,87.8l-4.6-11.3l-4.7,11.3H25.4z"/>
	</g>
	<g class="st4">
		<path class="st5" d="M28.8,96.1l-2.5-6.2h-11l-2.6,6.2h-2.3l9.1-21.8h2.7l9.1,21.8H28.8z M25.4,87.8l-4.6-11.3l-4.7,11.3H25.4z"/>
	</g>
	<g class="st4">
		<path d="M193.4,219.1l2.5,6.2h11l2.5-6.2h2.3l-9.1,21.8H200l-9.1-21.8H193.4z M196.8,227.4l4.6,11.3l4.7-11.3H196.8z"/>
	</g>
	<g class="st4">
		<path class="st5" d="M193.4,219.1l2.5,6.2h11l2.5-6.2h2.3l-9.1,21.8H200l-9.1-21.8H193.4z M196.8,227.4l4.6,11.3l4.7-11.3H196.8z"
			/>
	</g>
	<g>
		<g>
			<path class="st2" d="M150.9,137.6c0,0.3,0,0.7,0,1s0,0.7-0.1,1c0,0.5-0.1,0.9-0.2,1.4c-0.1,0.4-0.1,0.8-0.2,1.2
				c-1.4,6.5-5.8,12-11.5,14.7c-0.7,0.3-1.4,0.6-2.2,0.9c-1.6,0.5-3.3,0.7-5,0.7c-3.7-0.1-7.2-1.6-10-4c-1.5-1.2-2.9-2.8-4-4.4
				c-0.6-0.9-1.2-2-1.7-3s-0.5-0.8-0.8-1.9c0,0.7,0,1.4,0.1,2.1c0.3,1.4,0.4,1.6,0.9,2.8c1.3,3.5,3.5,6.4,6.1,8.6
				c1.8,1.7,3.9,3,6.2,3.9l0,0c-5.2,5.3-14.4,16.1-16.5,28.2c-0.1,0.5-0.2,1.1-0.2,1.6c-0.1-0.5-0.1-1.1-0.2-1.7
				c-0.9-5.5-3.2-10.7-6.2-15.5c-2.3-3.7-4.8-7-7.7-10.2c-1.6-1.7-3.3-3.4-5.2-4.8c-0.5-0.4-1.1-0.7-1.6-1l0,0
				c-1.6-0.8-3.3-1.4-5.1-2.1c-0.7-0.2-1.3-0.5-2-0.8c-1-0.6-2-1.2-2.9-2l-0.1-0.1c-0.9-0.7-1.8-1.6-2.6-2.5
				c-0.7-0.8-1.3-1.6-1.8-2.5c-0.3-0.6-0.7-1.2-1-1.7c-0.1-0.3-0.3-0.6-0.4-0.9c-0.6-1.2-1-2.5-1.3-3.9c-0.3-1-0.4-2-0.5-3.1
				c0-0.1,0-0.1,0-0.2c-0.1-0.6-0.1-1.3-0.1-2c0-2.9,0.5-5.6,1.6-8.2c1.6-4.1,4.3-7.5,7.8-9.8c0.3-0.2,0.5-0.3,0.8-0.5
				c1.4-0.8,2.9-1.4,4.4-1.9c0.9-0.3,1.9-0.5,2.9-0.5c0.7-0.1,1.3-0.1,2-0.1c1.3,0,2.5,0.1,3.7,0.4c0.2,0.1,0.5,0.1,0.7,0.2
				c0.4,0.1,0.7,0.2,1,0.3c0.3,0.1,0.6,0.2,0.9,0.3c0.3,0.1,0.6,0.2,0.8,0.3c0.5,0.2,1.1,0.5,1.6,0.8c0.4,0.2,0.9,0.5,1.3,0.8
				c0.1,0.1,0.2,0.1,0.3,0.2c0.6,0.4,1.2,0.9,1.7,1.3c0.1,0.1,0.2,0.2,0.3,0.3c0.1,0.1,0.1,0.1,0.1,0.1c0.2,0.2,0.4,0.3,0.6,0.5
				c0.1,0.1,0.2,0.3,0.3,0.4c0.5,0.5,0.9,1,1.4,1.6c0.1,0.2,0.3,0.3,0.4,0.5c0.6,0.8,1.1,1.6,1.6,2.4c1,1.8,1.8,3.9,2.2,6
				c0.3,1.4,0.5,2.8,0.5,4.2c0-0.6,0-1.2,0.1-1.8c0.1-0.5,0.1-1.1,0.2-1.6s0.2-0.9,0.3-1.3c0-0.2,0-0.3,0.1-0.5
				c0-0.2,0.1-0.5,0.2-0.7c0.1-0.3,0.2-0.6,0.3-0.9c0.1-0.3,0.2-0.7,0.3-0.9c0.3-0.7,0.5-1.4,0.9-2c0.1-0.2,0.3-0.5,0.4-0.7
				c0.3-0.6,0.7-1.1,1.1-1.7c0.2-0.3,0.4-0.5,0.6-0.8c0.3-0.4,0.7-0.9,1.1-1.3c0.2-0.2,0.3-0.3,0.5-0.5c0.7-0.7,1.4-1.3,2.1-1.8
				c0.2-0.2,0.5-0.4,0.7-0.5c0.5-0.4,1-0.7,1.6-1c1.6-0.9,3.4-1.6,5.2-2c0.6-0.1,1.2-0.2,1.8-0.3h0.1c0.6-0.1,1.3-0.1,1.9-0.1
				c0.7,0,1.3,0.1,2,0.1c1,0.1,1.9,0.3,2.9,0.5c1.6,0.4,3,1.1,4.4,1.9c0.3,0.2,0.6,0.4,0.8,0.5c0.7,0.5,1.4,1,2,1.6
				c0.1,0.1,0.3,0.2,0.4,0.3c2.3,2.1,4.2,4.8,5.4,7.9C150.3,132,150.9,134.7,150.9,137.6z"/>
		</g>
		<g>
			<path class="st3" d="M111.9,197.6l-0.7-5.1c-0.1-0.7-0.2-1.2-0.2-1.6c-0.9-5-2.9-10.1-6.1-15.2c-2.3-3.6-4.7-6.9-7.6-10.1
				c-1.4-1.5-3.1-3.3-5.1-4.7c-0.5-0.3-1-0.6-1.5-0.9l-0.4-0.2c-0.9-0.5-1.9-0.8-2.9-1.2c-0.6-0.2-1.1-0.4-1.7-0.7
				c-0.7-0.3-1.4-0.5-2-0.9c-1.1-0.6-2.1-1.3-3.1-2c-0.1-0.1-0.2-0.2-0.3-0.3c-0.8-0.6-1.7-1.5-2.5-2.5s-1.4-1.8-1.9-2.6
				c-0.4-0.6-0.7-1.2-1-1.8c-0.2-0.3-0.3-0.6-0.4-1c-0.6-1.2-1-2.6-1.3-4c-0.2-1-0.4-2.1-0.5-3.2v-0.2c-0.1-0.7-0.1-1.3-0.1-2
				c0-2.9,0.5-5.7,1.6-8.4c1.6-4.2,4.5-7.8,8.1-10.1l0.3-0.2c0.2-0.1,0.3-0.2,0.5-0.3c1.4-0.8,3-1.5,4.6-2c1.1-0.3,2.1-0.5,3-0.6
				c0.5-0.1,1.3-0.1,2.1-0.1c1.3,0,2.5,0.1,3.8,0.4l0.2,0.1c0.2,0,0.4,0.1,0.5,0.1c0.3,0.1,0.7,0.2,1.1,0.3l0.9,0.3
				c0.2,0.1,0.4,0.2,0.7,0.3l0.2,0.1c0.6,0.3,1.2,0.5,1.7,0.8c0.4,0.2,0.9,0.5,1.3,0.8c0.2,0.1,0.3,0.2,0.4,0.3
				c0.6,0.4,1.2,0.9,1.7,1.3c0.1,0.1,0.2,0.2,0.3,0.3l0.4,0.4c0.1,0.1,0.3,0.2,0.4,0.3c0.1,0.1,0.1,0.2,0.2,0.2
				c0.6,0.6,1.1,1.2,1.6,1.8c0.1,0.1,0.3,0.3,0.4,0.5c0.6,0.8,1.1,1.7,1.6,2.5c0.9,1.7,1.6,3.4,2.1,5.3v-0.1c0-0.2,0.1-0.5,0.2-0.7
				c0.1-0.3,0.2-0.7,0.3-1c0.1-0.3,0.2-0.7,0.4-1c0.3-0.7,0.6-1.4,0.9-2.1c0.2-0.3,0.3-0.5,0.4-0.7c0.4-0.6,0.7-1.2,1.1-1.8l0.2-0.3
				c0.1-0.2,0.3-0.4,0.4-0.5c0.4-0.5,0.7-0.9,1.1-1.4c0.2-0.2,0.3-0.3,0.5-0.5c0.8-0.8,1.5-1.4,2.2-1.9c0.2-0.2,0.5-0.4,0.8-0.6
				c0.5-0.4,1.1-0.7,1.6-1c1.7-1,3.5-1.7,5.4-2.1c0.6-0.1,1.2-0.2,1.9-0.3c1.2-0.1,3-0.1,4.1,0c1,0.1,2,0.3,3,0.6
				c1.6,0.5,3.1,1.1,4.5,1.9l0.2,0.1c0.2,0.1,0.4,0.3,0.6,0.4c0.8,0.6,1.5,1.1,2.2,1.7c0.1,0.1,0.3,0.2,0.4,0.4
				c2.4,2.1,4.3,5,5.5,8.1c1,2.7,1.6,5.5,1.6,8.4c0,0.4,0,0.7,0,1.1c0,0.3,0,0.6-0.1,1c0,0.5-0.1,1-0.2,1.5
				c-0.1,0.4-0.1,0.8-0.2,1.2c-1.5,6.6-6,12.4-11.9,15.1c-0.7,0.3-1.4,0.6-2.2,0.9c-1.8,0.5-3.5,0.8-5.2,0.8
				c-3.6-0.1-7.3-1.6-10.5-4.2c-1.5-1.2-2.9-2.7-4.1-4.5c1.2,3,3.2,5.6,5.6,7.6c1.9,1.7,3.9,3,6,3.8l1,0.4l-0.7,0.8
				c-5.2,5.3-14.2,15.9-16.3,27.9c-0.1,0.5-0.2,1.1-0.2,1.6L111.9,197.6z M91.6,158.9c0.5,0.3,0.9,0.5,1.3,0.8
				c2.1,1.5,3.9,3.4,5.3,4.9c2.9,3.2,5.5,6.6,7.8,10.3c2.8,4.5,4.8,9.1,5.8,13.6c2.6-10.9,10.5-20.5,15.5-25.7
				c-1.9-0.9-3.8-2.1-5.5-3.6c-2.8-2.3-5-5.4-6.3-8.9l-0.2-0.5c-0.3-0.8-0.5-1.2-0.7-2.4c-0.1-0.6-0.1-1.1-0.1-1.6v-0.6l-0.3-6.4
				l1.7,6.2c0.2,0.7,0.2,0.8,0.4,1.2c0.1,0.1,0.2,0.3,0.3,0.6c0.4,1,1,2,1.6,2.9c1.1,1.7,2.4,3.1,3.9,4.3c2.9,2.4,6.3,3.8,9.6,3.9
				c1.6,0,3.2-0.2,4.8-0.7c0.7-0.3,1.4-0.6,2.1-0.9c5.5-2.5,9.7-8,11.1-14.2c0.1-0.4,0.2-0.7,0.2-1.1c0.1-0.5,0.1-0.9,0.2-1.4
				c0-0.4,0.1-0.7,0.1-1c0-0.4,0-0.7,0-1c0-2.7-0.5-5.4-1.5-7.9c-1.2-3-3-5.6-5.2-7.6c-0.1-0.1-0.2-0.2-0.4-0.3
				c-0.6-0.6-1.3-1.1-2-1.5c-0.2-0.1-0.4-0.2-0.6-0.4l-0.2-0.1c-1.3-0.8-2.7-1.4-4.2-1.8c-0.9-0.3-1.8-0.4-2.8-0.5
				c-1.3-0.1-2.5-0.1-3.8,0c-0.6,0.1-1.2,0.2-1.8,0.3c-1.7,0.4-3.4,1-5,1.9c-0.5,0.3-1,0.6-1.5,1c-0.3,0.2-0.5,0.3-0.7,0.5
				c-0.7,0.5-1.4,1.1-2.1,1.8c-0.1,0.2-0.3,0.4-0.5,0.5c-0.4,0.4-0.7,0.8-1,1.3c-0.1,0.1-0.2,0.3-0.3,0.5l-0.2,0.3
				c-0.4,0.5-0.7,1.1-1,1.6c-0.1,0.3-0.3,0.5-0.4,0.7c-0.3,0.5-0.6,1.2-0.8,1.9c-0.1,0.3-0.2,0.6-0.3,0.9c-0.1,0.3-0.2,0.6-0.3,0.9
				c-0.1,0.2-0.1,0.4-0.2,0.6l-0.1,0.2c0,0.1,0,0.1-0.1,0.3L113,134c-0.1,0.5-0.2,1-0.2,1.6c-0.1,0.6-0.1,1.1-0.1,1.7h-1.4
				c0-1.5-0.2-2.9-0.5-4.1c-0.4-2.1-1.1-4-2.1-5.8c-0.4-0.8-0.9-1.6-1.5-2.4c-0.1-0.2-0.3-0.3-0.4-0.5c-0.5-0.6-0.9-1.1-1.4-1.6
				c-0.1-0.1-0.1-0.2-0.2-0.2c-0.2-0.2-0.3-0.3-0.4-0.4l-0.3-0.2c-0.2-0.2-0.3-0.3-0.4-0.4c-0.5-0.4-1.1-0.8-1.6-1.2
				c-0.1-0.1-0.1-0.1-0.2-0.1c-0.5-0.3-0.9-0.6-1.3-0.8c-0.5-0.3-1-0.5-1.6-0.8l-0.2-0.1c-0.2-0.1-0.4-0.2-0.5-0.2l-0.9-0.3
				c-0.3-0.1-0.7-0.2-1-0.3c-0.2-0.1-0.3-0.1-0.5-0.1l-0.3-0.1c-1.9-0.4-3.7-0.5-5.4-0.3c-0.9,0.1-1.7,0.2-2.8,0.5
				c-1.5,0.4-3,1-4.3,1.8c-0.1,0.1-0.3,0.2-0.5,0.3l-0.3,0.2c-3.3,2.2-6,5.5-7.5,9.4c-1,2.5-1.5,5.2-1.5,7.9c0,0.6,0,1.3,0.1,1.9
				v0.2c0.1,1,0.3,2,0.5,2.9c0.3,1.3,0.7,2.6,1.3,3.7c0.1,0.3,0.3,0.6,0.4,0.9c0.3,0.6,0.6,1.1,1,1.7c0.4,0.7,1,1.5,1.8,2.4
				s1.6,1.7,2.5,2.4l0.1,0.1c0.9,0.7,1.9,1.4,2.9,1.9c0.5,0.3,1.2,0.5,1.9,0.8c0.6,0.2,1.2,0.4,1.7,0.7c1.1,0.4,2.2,0.8,3.3,1.4h0.5
				L91.6,158.9z"/>
		</g>
	</g>
</g>
</svg>
