<?xml version="1.0" encoding="utf-8"?>
<!-- Generator: Adobe Illustrator 25.2.0, SVG Export Plug-In . SVG Version: 6.00 Build 0)  -->
<svg version="1.1" id="Layer_1" xmlns="http://www.w3.org/2000/svg" xmlns:xlink="http://www.w3.org/1999/xlink" x="0px" y="0px"
	 viewBox="0 0 224.2 312.8" style="enable-background:new 0 0 224.2 312.8;" xml:space="preserve">
<style type="text/css">
	.st0{opacity:2.000000e-02;enable-background:new    ;}
	.st1{opacity:5.000000e-02;enable-background:new    ;}
	.st2{fill:#B20033;}
	.st3{fill:#050307;}
	.st4{enable-background:new    ;}
	.st5{fill:none;stroke:#000000;stroke-miterlimit:10;}
</style>
<g>
	<g>
		<g class="st0">
			<rect x="-0.2" y="0.7" width="224.4" height="312.1"/>
		</g>
		<g class="st0">
			<rect x="-0.2" y="0.7" width="224.4" height="312.1"/>
		</g>
		<g class="st1">
			<path d="M173.4,283.5H50.6c-4.2,0-7.5-3.4-7.5-7.5V37.6c0-4.2,3.4-7.5,7.5-7.5h122.9c4.2,0,7.5,3.4,7.5,7.5V276
				C181,280.1,177.6,283.5,173.4,283.5z"/>
		</g>
		<g>
			<g>
				<path class="st2" d="M37.7,39.6c0,0.1,0,0.3,0,0.4c0,0.1,0,0.3,0,0.4c0,0.2,0,0.4-0.1,0.6c0,0.2-0.1,0.3-0.1,0.5
					c-0.6,2.6-2.3,4.9-4.7,5.9c-0.3,0.1-0.6,0.3-0.9,0.4c-0.7,0.2-1.3,0.3-2,0.3c-1.5,0-2.9-0.7-4.1-1.6c-0.6-0.5-1.2-1.1-1.6-1.8
					c-0.3-0.4-0.5-0.8-0.7-1.2s-0.2-0.3-0.3-0.8c0,0.3,0,0.6,0.1,0.8c0.1,0.6,0.2,0.6,0.3,1.2c0.5,1.4,1.4,2.6,2.5,3.5
					c0.7,0.7,1.6,1.2,2.5,1.6l0,0c-2.1,2.1-5.8,6.5-6.7,11.4c0,0.2-0.1,0.4-0.1,0.7c0-0.2-0.1-0.5-0.1-0.7c-0.4-2.2-1.3-4.4-2.5-6.3
					c-0.9-1.5-2-2.8-3.1-4.1c-0.6-0.7-1.3-1.4-2.1-1.9c-0.2-0.2-0.4-0.3-0.7-0.4l0,0c-0.7-0.3-1.3-0.5-2.1-0.8
					c-0.3-0.1-0.5-0.2-0.8-0.3c-0.4-0.2-0.8-0.5-1.2-0.8c0,0,0,0-0.1-0.1c-0.4-0.3-0.7-0.6-1-1c-0.3-0.3-0.5-0.7-0.7-1
					C7.3,44.3,7.1,44,7,43.8c-0.1-0.1-0.1-0.2-0.2-0.4c-0.2-0.5-0.4-1-0.5-1.6c-0.1-0.4-0.2-0.8-0.2-1.3c0,0,0,0,0-0.1
					c0-0.3,0-0.5,0-0.8c0-1.2,0.2-2.3,0.6-3.3c0.6-1.7,1.8-3,3.2-4c0.1-0.1,0.2-0.1,0.3-0.2c0.6-0.3,1.2-0.6,1.8-0.8
					c0.4-0.1,0.8-0.2,1.2-0.2c0.3,0,0.5-0.1,0.8-0.1c0.5,0,1,0.1,1.5,0.2c0.1,0,0.2,0,0.3,0.1c0.1,0,0.3,0.1,0.4,0.1
					s0.2,0.1,0.3,0.1c0.1,0,0.2,0.1,0.3,0.1c0.2,0.1,0.4,0.2,0.7,0.3c0.2,0.1,0.4,0.2,0.5,0.3l0.1,0.1c0.2,0.2,0.5,0.3,0.7,0.5
					l0.1,0.1c0,0,0,0,0.1,0.1s0.2,0.1,0.2,0.2l0.1,0.1c0.2,0.2,0.4,0.4,0.6,0.7c0.1,0.1,0.1,0.1,0.2,0.2c0.2,0.3,0.4,0.6,0.6,1
					c0.4,0.7,0.7,1.6,0.9,2.4c0.1,0.5,0.2,1.1,0.2,1.7c0-0.2,0-0.5,0-0.7s0.1-0.4,0.1-0.7c0-0.2,0.1-0.4,0.1-0.5s0-0.1,0-0.2
					c0-0.1,0-0.2,0.1-0.3c0-0.1,0.1-0.3,0.1-0.4c0-0.1,0.1-0.3,0.1-0.4c0.1-0.3,0.2-0.6,0.4-0.8c0.1-0.1,0.1-0.2,0.2-0.3
					c0.1-0.2,0.3-0.5,0.4-0.7c0.1-0.1,0.1-0.2,0.2-0.3c0.1-0.2,0.3-0.4,0.4-0.5s0.1-0.1,0.2-0.2c0.3-0.3,0.5-0.5,0.9-0.7
					c0.1-0.1,0.2-0.2,0.3-0.2c0.2-0.1,0.4-0.3,0.6-0.4c0.7-0.4,1.4-0.7,2.1-0.8c0.2,0,0.5-0.1,0.7-0.1l0,0c0.3,0,0.5-0.1,0.8-0.1
					s0.5,0,0.8,0.1c0.4,0,0.8,0.1,1.2,0.2c0.6,0.2,1.2,0.4,1.8,0.8c0.1,0.1,0.2,0.1,0.3,0.2c0.3,0.2,0.6,0.4,0.8,0.6
					c0.1,0,0.1,0.1,0.2,0.1c0.9,0.9,1.7,1.9,2.2,3.2C37.5,37.3,37.7,38.4,37.7,39.6z"/>
			</g>
			<g>
				<path class="st3" d="M21.9,63.9l-0.3-2.1c0-0.3-0.1-0.5-0.1-0.7c-0.3-2-1.2-4.1-2.5-6.2c-0.9-1.5-1.9-2.8-3.1-4.1
					c-0.6-0.6-1.2-1.3-2.1-1.9c-0.2-0.1-0.4-0.3-0.6-0.4L13,48.4c-0.4-0.2-0.8-0.3-1.2-0.5c-0.2-0.1-0.5-0.2-0.7-0.3
					c-0.3-0.1-0.6-0.2-0.8-0.4c-0.4-0.2-0.9-0.5-1.2-0.8L9,46.3c-0.3-0.3-0.7-0.6-1-1s-0.6-0.7-0.8-1.1c-0.1-0.2-0.3-0.5-0.4-0.7
					c-0.1-0.1-0.1-0.3-0.2-0.4c-0.2-0.5-0.4-1-0.5-1.6c0-0.2-0.1-0.6-0.1-1.1v-0.1c0-0.3,0-0.5,0-0.8c0-1.2,0.2-2.3,0.6-3.4
					C7.3,34.4,8.4,33,9.9,32l0.1,0c0.1,0,0.1-0.1,0.2-0.1c0.6-0.3,1.2-0.6,1.9-0.8c0.4-0.1,0.8-0.2,1.2-0.2c0.2,0,0.5-0.1,0.8-0.1
					c0.5,0,1,0.1,1.6,0.2h0.1c0.1,0,0.1,0,0.2,0.1c0.1,0,0.3,0.1,0.4,0.1l0.3,0.1c0.1,0,0.2,0.1,0.3,0.1h0.1
					c0.2,0.1,0.5,0.2,0.7,0.3c0.2,0.1,0.4,0.2,0.5,0.3s0.1,0.1,0.2,0.1c0.2,0.2,0.5,0.3,0.7,0.5c0.1,0.1,0.1,0.1,0.1,0.1l0.2,0.1
					c0.1,0,0.1,0.1,0.2,0.1l0.1,0.1c0.3,0.3,0.4,0.5,0.6,0.7c0.1,0.1,0.1,0.1,0.2,0.2c0.3,0.3,0.5,0.7,0.7,1
					c0.4,0.7,0.7,1.4,0.8,2.1c0,0,0,0,0-0.1s0-0.2,0.1-0.3c0-0.1,0.1-0.3,0.1-0.4c0-0.1,0.1-0.3,0.1-0.4c0.1-0.3,0.2-0.6,0.4-0.8
					c0.1-0.1,0.1-0.2,0.2-0.3c0.1-0.3,0.3-0.5,0.5-0.7l0.1-0.1c0.1-0.1,0.1-0.1,0.2-0.2c0.1-0.2,0.3-0.4,0.5-0.5
					c0.1-0.1,0.1-0.1,0.2-0.2c0.3-0.3,0.6-0.6,0.9-0.8c0.1-0.1,0.2-0.2,0.3-0.2c0.2-0.2,0.4-0.3,0.7-0.4c0.7-0.4,1.4-0.7,2.2-0.8
					c0.2,0,0.5-0.1,0.8-0.1c0.5-0.1,1.2,0,1.7,0c0.4,0,0.8,0.1,1.2,0.2c0.6,0.2,1.3,0.4,1.8,0.8l0.1,0.1C33.9,32,34,32,34.1,32
					c0.3,0.2,0.6,0.4,0.9,0.7c0.1,0,0.1,0.1,0.2,0.2c1,0.9,1.7,2,2.2,3.3c0.4,1.1,0.6,2.2,0.6,3.4c0,0.1,0,0.3,0,0.4
					c0,0.1,0,0.3,0,0.4c0,0.2,0,0.4-0.1,0.6c0,0.2-0.1,0.3-0.1,0.5c-0.6,2.7-2.4,5-4.8,6.1c-0.3,0.1-0.6,0.3-0.9,0.4
					c-0.7,0.2-1.4,0.3-2.1,0.3c-1.5,0-3-0.6-4.2-1.7c-0.6-0.5-1.2-1.1-1.7-1.8c0.5,1.2,1.3,2.3,2.3,3.1c0.8,0.7,1.6,1.2,2.4,1.5
					l0.4,0.2l-0.3,0.3c-2.1,2.1-5.8,6.4-6.6,11.3c0,0.2-0.1,0.4-0.1,0.6L21.9,63.9z M13.7,48.2c0.2,0.1,0.4,0.2,0.5,0.3
					c0.9,0.6,1.6,1.4,2.1,2c1.2,1.3,2.2,2.7,3.2,4.2c1.1,1.8,1.9,3.7,2.4,5.5c1.1-4.4,4.2-8.3,6.3-10.4c-0.8-0.3-1.5-0.8-2.2-1.5
					c-1.1-0.9-2-2.2-2.6-3.6l-0.1-0.2c-0.1-0.3-0.2-0.5-0.3-1c0-0.2,0-0.4-0.1-0.6v-0.2V40l0.7,2.5c0.1,0.3,0.1,0.3,0.2,0.5
					c0,0.1,0.1,0.1,0.1,0.2c0.2,0.4,0.4,0.8,0.7,1.2c0.5,0.7,1,1.3,1.6,1.7c1.2,1,2.6,1.5,3.9,1.6c0.6,0,1.3-0.1,1.9-0.3
					c0.3-0.1,0.6-0.2,0.8-0.4c2.2-1,3.9-3.2,4.5-5.8c0-0.2,0.1-0.3,0.1-0.4c0-0.2,0.1-0.4,0.1-0.6c0-0.1,0-0.3,0-0.4
					c0-0.1,0-0.3,0-0.4c0-1.1-0.2-2.2-0.6-3.2c-0.5-1.2-1.2-2.3-2.1-3.1C34.7,33,34.7,33,34.7,33c-0.3-0.2-0.5-0.4-0.8-0.6
					c-0.1,0-0.2-0.1-0.3-0.2h-0.1c-0.5-0.3-1.1-0.6-1.7-0.7c-0.4-0.1-0.7-0.2-1.1-0.2c-0.5-0.1-1-0.1-1.5,0c-0.3,0-0.5,0.1-0.7,0.1
					c-0.7,0.1-1.4,0.4-2,0.8c-0.2,0.1-0.4,0.2-0.6,0.4c-0.1,0.1-0.2,0.1-0.3,0.2c-0.3,0.2-0.6,0.5-0.8,0.7c-0.1,0.1-0.1,0.1-0.2,0.2
					c-0.1,0.2-0.3,0.3-0.4,0.5c0,0.1-0.1,0.1-0.1,0.2L24,34.5c-0.1,0.2-0.3,0.4-0.4,0.7c-0.1,0.1-0.1,0.2-0.2,0.3
					c-0.1,0.2-0.2,0.5-0.3,0.8C23,36.4,23,36.6,23,36.7c-0.1,0.1-0.1,0.2-0.1,0.4c0,0.1-0.1,0.2-0.1,0.3v0.1c0,0,0,0,0,0.1l-0.1,0.6
					c0,0.2-0.1,0.4-0.1,0.6c0,0.2,0,0.5,0,0.7H22c0-0.6-0.1-1.2-0.2-1.6c-0.2-0.8-0.5-1.6-0.9-2.4c-0.2-0.3-0.4-0.6-0.6-1
					c0-0.1-0.1-0.1-0.2-0.2c-0.2-0.2-0.4-0.5-0.6-0.6l-0.1-0.1c-0.1-0.1-0.1-0.1-0.2-0.2L19,33.3c-0.1-0.1-0.1-0.1-0.2-0.2
					c-0.2-0.2-0.4-0.3-0.7-0.5c0,0-0.1,0-0.1-0.1c-0.2-0.1-0.4-0.2-0.5-0.3c-0.2-0.1-0.4-0.2-0.6-0.3h-0.1c-0.1,0-0.1-0.1-0.2-0.1
					l-0.3-0.1c-0.1,0-0.3-0.1-0.4-0.1c-0.1,0-0.1,0-0.2,0h-0.1c-0.8-0.2-1.5-0.2-2.2-0.1c-0.4,0-0.7,0.1-1.1,0.2
					c-0.6,0.2-1.2,0.4-1.7,0.7c-0.1,0-0.1,0.1-0.2,0.1l-0.1,0.1c-1.4,0.9-2.4,2.2-3.1,3.8c-0.4,1-0.6,2.1-0.6,3.2c0,0.3,0,0.5,0,0.8
					v0.1c0,0.4,0.1,0.8,0.2,1.2c0.1,0.5,0.3,1,0.5,1.5c0.1,0.1,0.1,0.3,0.2,0.4c0.1,0.2,0.3,0.5,0.4,0.7c0.2,0.3,0.4,0.6,0.7,1
					s0.6,0.7,1,1l0.1,0.1c0.4,0.3,0.8,0.6,1.2,0.8c0.2,0.1,0.5,0.2,0.8,0.3c0.2,0.1,0.5,0.2,0.7,0.3c0.5,0.2,0.9,0.3,1.3,0.6h0.2
					L13.7,48.2z"/>
			</g>
		</g>
		<g>
			<g>
				<path class="st2" d="M186,274.8c0-0.1,0-0.3,0-0.4s0-0.3,0-0.4c0-0.2,0-0.4,0.1-0.6c0-0.2,0.1-0.3,0.1-0.5
					c0.6-2.6,2.3-4.8,4.6-5.9c0.3-0.1,0.6-0.2,0.9-0.4c0.6-0.2,1.3-0.3,2-0.3c1.5,0,2.9,0.6,4,1.6c0.6,0.5,1.2,1.1,1.6,1.8
					c0.3,0.4,0.5,0.8,0.7,1.2c0.2,0.4,0.2,0.3,0.3,0.8c0-0.3,0-0.5-0.1-0.8c-0.1-0.6-0.2-0.6-0.3-1.1c-0.5-1.4-1.4-2.6-2.4-3.4
					c-0.7-0.7-1.6-1.2-2.5-1.6l0,0c2.1-2.1,5.8-6.4,6.6-11.3c0-0.2,0.1-0.4,0.1-0.6c0,0.2,0.1,0.4,0.1,0.7c0.4,2.2,1.3,4.3,2.5,6.2
					c0.9,1.5,1.9,2.8,3.1,4.1c0.6,0.7,1.3,1.4,2.1,1.9c0.2,0.2,0.4,0.3,0.6,0.4l0,0c0.6,0.3,1.3,0.5,2,0.8c0.3,0.1,0.5,0.2,0.8,0.3
					c0.4,0.2,0.8,0.5,1.2,0.8c0,0,0,0,0.1,0.1c0.4,0.3,0.7,0.6,1,1c0.3,0.3,0.5,0.6,0.7,1c0.1,0.2,0.3,0.5,0.4,0.7
					c0.1,0.1,0.1,0.2,0.2,0.4c0.2,0.5,0.4,1,0.5,1.5c0.1,0.4,0.2,0.8,0.2,1.2c0,0,0,0,0,0.1c0,0.3,0,0.5,0,0.8
					c0,1.2-0.2,2.3-0.6,3.3c-0.6,1.6-1.7,3-3.1,3.9c-0.1,0.1-0.2,0.1-0.3,0.2c-0.5,0.3-1.1,0.6-1.8,0.7c-0.4,0.1-0.8,0.2-1.1,0.2
					s-0.5,0.1-0.8,0.1c-0.5,0-1-0.1-1.5-0.2c-0.1,0-0.2,0-0.3-0.1c-0.1,0-0.3-0.1-0.4-0.1c-0.1,0-0.2-0.1-0.3-0.1s-0.2-0.1-0.3-0.1
					c-0.2-0.1-0.4-0.2-0.6-0.3c-0.2-0.1-0.4-0.2-0.5-0.3l-0.1-0.1c-0.2-0.2-0.5-0.3-0.7-0.5l-0.1-0.1c0,0,0,0-0.1-0.1
					s-0.2-0.1-0.2-0.2l-0.1-0.1c-0.2-0.2-0.4-0.4-0.6-0.6c-0.1-0.1-0.1-0.1-0.2-0.2c-0.2-0.3-0.4-0.6-0.6-1
					c-0.4-0.7-0.7-1.5-0.9-2.4c-0.1-0.5-0.2-1.1-0.2-1.7c0,0.2,0,0.5,0,0.7s-0.1,0.4-0.1,0.6s-0.1,0.4-0.1,0.5s0,0.1,0,0.2
					s0,0.2-0.1,0.3c0,0.1-0.1,0.3-0.1,0.4s-0.1,0.3-0.1,0.4c-0.1,0.3-0.2,0.5-0.4,0.8c-0.1,0.1-0.1,0.2-0.2,0.3
					c-0.1,0.2-0.3,0.5-0.4,0.7c-0.1,0.1-0.1,0.2-0.2,0.3c-0.1,0.2-0.3,0.4-0.4,0.5c-0.1,0.1-0.1,0.1-0.2,0.2
					c-0.3,0.3-0.5,0.5-0.8,0.7c-0.1,0.1-0.2,0.2-0.3,0.2c-0.2,0.1-0.4,0.3-0.6,0.4c-0.6,0.4-1.3,0.6-2.1,0.8c-0.2,0-0.5,0.1-0.7,0.1
					l0,0c-0.3,0-0.5,0.1-0.8,0.1s-0.5,0-0.8-0.1c-0.4,0-0.8-0.1-1.2-0.2c-0.6-0.2-1.2-0.4-1.8-0.7c-0.1-0.1-0.2-0.1-0.3-0.2
					c-0.3-0.2-0.6-0.4-0.8-0.6c-0.1,0-0.1-0.1-0.2-0.1c-0.9-0.8-1.7-1.9-2.1-3.1C186.3,277.1,186,276,186,274.8z"/>
			</g>
			<g>
				<path class="st3" d="M201.6,250.8l0.3,2c0,0.3,0.1,0.5,0.1,0.7c0.3,2,1.2,4,2.4,6.1c0.9,1.5,1.9,2.8,3,4c0.6,0.6,1.2,1.3,2,1.9
					c0.2,0.1,0.4,0.3,0.6,0.4l0.2,0.1c0.4,0.2,0.8,0.3,1.2,0.5c0.2,0.1,0.5,0.2,0.7,0.3c0.3,0.1,0.6,0.2,0.8,0.3
					c0.4,0.2,0.8,0.5,1.2,0.8l0.1,0.1c0.3,0.3,0.7,0.6,1,1s0.6,0.7,0.7,1c0.1,0.2,0.3,0.5,0.4,0.7c0.1,0.1,0.1,0.3,0.2,0.4
					c0.2,0.5,0.4,1,0.5,1.6c0.1,0.4,0.2,0.8,0.2,1.3v0.1c0,0.3,0,0.5,0,0.8c0,1.2-0.2,2.3-0.6,3.4c-0.6,1.7-1.8,3.1-3.2,4l-0.1,0.1
					c-0.1,0-0.1,0.1-0.2,0.1c-0.6,0.3-1.2,0.6-1.8,0.8c-0.4,0.1-0.8,0.2-1.2,0.2c-0.2,0-0.5,0.1-0.8,0.1c-0.5,0-1-0.1-1.5-0.2h-0.1
					c-0.1,0-0.1,0-0.2-0.1c-0.1,0-0.3-0.1-0.4-0.1l-0.3-0.1c-0.1,0-0.2-0.1-0.3-0.1h-0.1c-0.2-0.1-0.5-0.2-0.7-0.3
					c-0.2-0.1-0.3-0.2-0.5-0.3c-0.1-0.1-0.1-0.1-0.2-0.1c-0.2-0.2-0.5-0.3-0.7-0.5c-0.1-0.1-0.1-0.1-0.1-0.1l-0.2-0.1
					c-0.1,0-0.1-0.1-0.1-0.1l-0.1-0.1c-0.2-0.3-0.4-0.5-0.6-0.7c-0.1-0.1-0.1-0.1-0.2-0.2c-0.2-0.3-0.5-0.7-0.6-1
					c-0.4-0.7-0.6-1.4-0.8-2.1c0,0,0,0,0,0.1s0,0.2-0.1,0.3c0,0.1-0.1,0.3-0.1,0.4s-0.1,0.3-0.1,0.4c-0.1,0.3-0.2,0.6-0.4,0.8
					c-0.1,0.1-0.1,0.2-0.2,0.3c-0.1,0.3-0.3,0.5-0.4,0.7l-0.1,0.1c0,0.1-0.1,0.1-0.2,0.2c-0.1,0.2-0.3,0.4-0.5,0.5
					c-0.1,0.1-0.1,0.1-0.2,0.2c-0.3,0.3-0.6,0.6-0.9,0.8c-0.1,0.1-0.2,0.2-0.3,0.2c-0.2,0.2-0.4,0.3-0.6,0.4
					c-0.7,0.4-1.4,0.7-2.2,0.8c-0.2,0-0.5,0.1-0.7,0.1c-0.5,0.1-1.2,0-1.7,0c-0.4,0-0.8-0.1-1.2-0.2c-0.6-0.2-1.2-0.4-1.8-0.8
					l-0.1-0.1c-0.1-0.1-0.2-0.1-0.2-0.1c-0.3-0.2-0.6-0.4-0.9-0.7c-0.1,0-0.1-0.1-0.2-0.1c-0.9-0.9-1.7-2-2.2-3.2
					c-0.4-1.1-0.6-2.2-0.6-3.4c0-0.1,0-0.3,0-0.4s0-0.3,0-0.4c0-0.2,0-0.4,0.1-0.6c0-0.2,0.1-0.3,0.1-0.5c0.6-2.6,2.4-5,4.7-6.1
					c0.3-0.1,0.6-0.3,0.9-0.4c0.7-0.2,1.4-0.3,2.1-0.3c1.5,0,2.9,0.6,4.2,1.7c0.6,0.5,1.2,1.1,1.6,1.8c-0.5-1.2-1.3-2.2-2.3-3.1
					c-0.8-0.7-1.6-1.2-2.4-1.5l-0.4-0.1l0.3-0.3c2.1-2.1,5.7-6.3,6.5-11.1c0-0.2,0.1-0.4,0.1-0.6L201.6,250.8z M209.7,266.3
					c-0.2-0.1-0.4-0.2-0.5-0.3c-0.8-0.6-1.6-1.4-2.1-1.9c-1.2-1.3-2.2-2.6-3.1-4.1c-1.1-1.8-1.9-3.6-2.3-5.4
					c-1,4.4-4.2,8.2-6.2,10.3c0.8,0.3,1.5,0.8,2.2,1.5c1.1,0.9,2,2.2,2.5,3.5l0.1,0.2c0.1,0.3,0.2,0.5,0.3,1c0,0.2,0,0.4,0.1,0.6
					v0.2l0.1,2.6l-0.7-2.5c-0.1-0.3-0.1-0.3-0.2-0.5c0-0.1-0.1-0.1-0.1-0.2c-0.2-0.4-0.4-0.8-0.6-1.2c-0.5-0.7-1-1.2-1.6-1.7
					c-1.2-1-2.5-1.5-3.8-1.5c-0.6,0-1.3,0.1-1.9,0.3c-0.3,0.1-0.6,0.2-0.8,0.4c-2.2,1-3.9,3.2-4.4,5.7c0,0.1-0.1,0.3-0.1,0.4
					c0,0.2-0.1,0.4-0.1,0.6c0,0.1,0,0.3,0,0.4s0,0.3,0,0.4c0,1.1,0.2,2.2,0.6,3.2c0.5,1.2,1.2,2.2,2.1,3c0.1,0,0.1,0.1,0.1,0.1
					c0.3,0.2,0.5,0.4,0.8,0.6c0.1,0,0.2,0.1,0.3,0.2h0.1c0.5,0.3,1.1,0.5,1.7,0.7c0.4,0.1,0.7,0.2,1.1,0.2c0.5,0.1,1,0.1,1.5,0
					c0.3,0,0.5-0.1,0.7-0.1c0.7-0.1,1.4-0.4,2-0.8c0.2-0.1,0.4-0.2,0.6-0.4c0.1-0.1,0.2-0.1,0.3-0.2c0.3-0.2,0.5-0.4,0.8-0.7
					c0.1-0.1,0.1-0.1,0.2-0.2c0.1-0.2,0.3-0.3,0.4-0.5c0-0.1,0.1-0.1,0.1-0.2l0.1-0.1c0.1-0.2,0.3-0.4,0.4-0.6
					c0.1-0.1,0.1-0.2,0.2-0.3c0.1-0.2,0.2-0.5,0.3-0.8c0.1-0.1,0.1-0.2,0.1-0.4c0.1-0.1,0.1-0.2,0.1-0.4c0-0.1,0.1-0.2,0.1-0.3V277
					c0,0,0,0,0-0.1l0.1-0.6c0-0.2,0.1-0.4,0.1-0.6s0-0.5,0-0.7h0.5c0,0.6,0.1,1.1,0.2,1.6c0.2,0.8,0.4,1.6,0.8,2.3
					c0.2,0.3,0.4,0.6,0.6,0.9c0,0.1,0.1,0.1,0.2,0.2c0.2,0.2,0.4,0.4,0.5,0.6l0.1,0.1c0.1,0.1,0.1,0.1,0.2,0.1l0.1,0.1
					c0.1,0.1,0.1,0.1,0.2,0.2c0.2,0.2,0.4,0.3,0.7,0.5c0,0,0.1,0,0.1,0.1c0.2,0.1,0.4,0.2,0.5,0.3c0.2,0.1,0.4,0.2,0.6,0.3h0.1
					c0.1,0,0.1,0.1,0.2,0.1l0.3,0.1c0.1,0,0.3,0.1,0.4,0.1c0.1,0,0.1,0,0.2,0h0.1c0.8,0.2,1.5,0.2,2.2,0.1c0.3,0,0.7-0.1,1.1-0.2
					c0.6-0.2,1.2-0.4,1.7-0.7c0.1,0,0.1-0.1,0.2-0.1l0.1-0.1c1.3-0.9,2.4-2.2,3-3.8c0.4-1,0.6-2.1,0.6-3.2c0-0.3,0-0.5,0-0.8v-0.1
					c0-0.4-0.1-0.8-0.2-1.2c-0.1-0.5-0.3-1-0.5-1.5c-0.1-0.1-0.1-0.2-0.2-0.4c-0.1-0.2-0.2-0.5-0.4-0.7c-0.2-0.3-0.4-0.6-0.7-1
					s-0.6-0.7-1-1l-0.1-0.1c-0.4-0.3-0.7-0.5-1.1-0.8c-0.2-0.1-0.5-0.2-0.7-0.3c-0.2-0.1-0.5-0.2-0.7-0.3c-0.5-0.2-0.9-0.3-1.3-0.5
					h-0.2L209.7,266.3z"/>
			</g>
		</g>
		<g class="st4">
			<path d="M26.1,92.7c-0.7,1.2-1.6,2.2-2.7,2.8c-1.1,0.6-2.4,0.9-3.9,0.9c-2.7,0-4.9-1-6.6-3l1.5-1.6c0.6,0.7,1.3,1.2,2.2,1.7
				c0.9,0.4,1.8,0.7,2.9,0.7c1.6,0,2.9-0.5,3.9-1.6s1.5-2.6,1.5-4.6V74.4H27v13.9C27,90,26.7,91.4,26.1,92.7z"/>
		</g>
		<g class="st4">
			<path class="st5" d="M26.1,92.7c-0.7,1.2-1.6,2.2-2.7,2.8c-1.1,0.6-2.4,0.9-3.9,0.9c-2.7,0-4.9-1-6.6-3l1.5-1.6
				c0.6,0.7,1.3,1.2,2.2,1.7c0.9,0.4,1.8,0.7,2.9,0.7c1.6,0,2.9-0.5,3.9-1.6s1.5-2.6,1.5-4.6V74.4H27v13.9
				C27,90,26.7,91.4,26.1,92.7z"/>
		</g>
		<g class="st4">
			<path d="M197.2,222.5c0.7-1.2,1.5-2.2,2.7-2.8c1.1-0.6,2.4-0.9,3.9-0.9c2.7,0,4.9,1,6.6,3l-1.5,1.6c-0.6-0.7-1.3-1.2-2.2-1.7
				c-0.9-0.4-1.8-0.7-2.9-0.7c-1.6,0-2.9,0.5-3.9,1.6s-1.5,2.6-1.5,4.6v13.7h-2.2v-13.9C196.2,225.2,196.6,223.8,197.2,222.5z"/>
		</g>
		<g class="st4">
			<path class="st5" d="M197.2,222.5c0.7-1.2,1.5-2.2,2.7-2.8c1.1-0.6,2.4-0.9,3.9-0.9c2.7,0,4.9,1,6.6,3l-1.5,1.6
				c-0.6-0.7-1.3-1.2-2.2-1.7c-0.9-0.4-1.8-0.7-2.9-0.7c-1.6,0-2.9,0.5-3.9,1.6s-1.5,2.6-1.5,4.6v13.7h-2.2v-13.9
				C196.2,225.2,196.6,223.8,197.2,222.5z"/>
		</g>
	</g>
	<g>
		<path d="M90.1,84c-0.2,0-0.5-0.2-0.5-0.4c0-0.3,0.1-0.5,0.4-0.6l5.2-0.9c0.3,0,0.5,0.1,0.6,0.4c0,0.3-0.1,0.5-0.4,0.6L90.1,84
			C90.2,84,90.1,84,90.1,84z"/>
	</g>
	<g>
		<polygon points="146.7,156.9 124.8,156.9 100.6,132.8 101.4,132 125.2,155.9 146.7,155.9 		"/>
	</g>
	<g>
		<path d="M128,88.2h-25.3l-1-7c-0.4-2.1-2.3-3.8-4.4-3.8H86.6l6.1-28.7c0.4-3.3,3.2-5.7,6.6-5.7h27.4c3.6,0,6.6,2.9,6.7,6.5
			l1.3,31.7c0.1,1.9-0.6,3.7-1.9,5C131.5,87.5,129.8,88.2,128,88.2z M103.5,87.2H128c1.5,0,3-0.6,4.1-1.7c1.1-1.1,1.7-2.7,1.6-4.3
			l-1.3-31.7c-0.1-3-2.6-5.5-5.7-5.5H99.3c-2.9,0-5.2,2-5.6,4.9l-5.9,27.5h9.5c2.6,0,5,2,5.4,4.6L103.5,87.2z"/>
	</g>
	<g>
		<path d="M103.7,88.2H91.6c-1,0-1.9-0.4-2.5-1.2c-0.6-0.7-0.9-1.7-0.7-2.6l1.4-7.9h6.6c3.2,0,5.9,2.3,6.3,5.4L103.7,88.2z
			 M90.6,77.5l-1.2,7.1c-0.1,0.6,0.1,1.3,0.5,1.8c0.4,0.5,1.1,0.8,1.7,0.8h10.9l-0.8-5.1c-0.4-2.6-2.6-4.6-5.3-4.6H90.6z"/>
	</g>
	<g>
		<path d="M100.8,133.3H80.1l12.1-46.1h51l1.2,17.2l-9.6-6.8L100.8,133.3z M81.3,132.3h19l34.1-36l8.6,6l-1-14.2H92.9L81.3,132.3z"
			/>
	</g>
	<g>
		<polygon points="77.7,68.1 77.7,138.7 75.1,138.7 75.1,72.2 		"/>
	</g>
	<g>
		<rect x="78" y="141.3" width="6" height="1"/>
	</g>
	<g>
		<g>
			<polygon class="st2" points="89.4,132.8 100.6,132.8 117.3,149.5 75.1,149.5 75.1,140.2 94.1,140.2 			"/>
		</g>
		<g>
			<path d="M118.5,150H74.6v-10.3h18.6l-4.7-7.4h12.3L118.5,150z M75.6,149h40.5l-15.7-15.7H90.3l4.7,7.4H75.6V149z"/>
		</g>
	</g>
	<g>
		<g>
			<polygon class="st2" points="92.5,87.7 99.4,106.9 89.4,132.8 100.6,132.8 134.6,97 141.8,87.7 			"/>
		</g>
		<g>
			<path d="M100.8,133.3H88.7l10.2-26.4l-7.1-19.7h51L135,97.3L100.8,133.3z M90.1,132.3h10.3l33.9-35.6l6.5-8.5H93.2l6.7,18.7
				L90.1,132.3z"/>
		</g>
	</g>
	<g>
		<path d="M108.1,57.3H91.4c-0.3,0-0.5-0.2-0.5-0.5s0.2-0.5,0.5-0.5h16.7c0.3,0,0.5,0.2,0.5,0.5S108.4,57.3,108.1,57.3z"/>
	</g>
	<g>
		<path d="M104.8,62.7H90.9c-0.3,0-0.5-0.2-0.5-0.5s0.2-0.5,0.5-0.5h13.9c0.3,0,0.5,0.2,0.5,0.5S105.1,62.7,104.8,62.7z"/>
	</g>
	<g>
		<path d="M92.3,62.7c0,0-0.1,0-0.1,0c-0.3-0.1-0.4-0.3-0.4-0.6l1.2-5.4c0.1-0.3,0.3-0.4,0.6-0.4c0.3,0.1,0.4,0.3,0.4,0.6l-1.2,5.4
			C92.7,62.5,92.5,62.7,92.3,62.7z"/>
	</g>
	<g>
		<path d="M94.5,62.7c0,0-0.1,0-0.1,0c-0.3-0.1-0.4-0.3-0.4-0.6l1.2-5.4c0.1-0.3,0.3-0.4,0.6-0.4c0.3,0.1,0.4,0.3,0.4,0.6L95,62.3
			C94.9,62.5,94.7,62.7,94.5,62.7z"/>
	</g>
	<g>
		<path d="M96.6,62.7c0,0-0.1,0-0.1,0c-0.3-0.1-0.4-0.3-0.4-0.6l1.2-5.4c0.1-0.3,0.3-0.4,0.6-0.4c0.3,0.1,0.4,0.3,0.4,0.6l-1.2,5.4
			C97,62.5,96.8,62.7,96.6,62.7z"/>
	</g>
	<g>
		<path d="M98.8,62.7c0,0-0.1,0-0.1,0c-0.3-0.1-0.4-0.3-0.4-0.6l1.2-5.4c0.1-0.3,0.3-0.4,0.6-0.4c0.3,0.1,0.4,0.3,0.4,0.6l-1.2,5.4
			C99.2,62.5,99,62.7,98.8,62.7z"/>
	</g>
	<g>
		<path d="M100.9,62.7c0,0-0.1,0-0.1,0c-0.3-0.1-0.4-0.3-0.4-0.6l1.2-5.4c0.1-0.3,0.3-0.4,0.6-0.4c0.3,0.1,0.4,0.3,0.4,0.6l-1.2,5.4
			C101.3,62.5,101.1,62.7,100.9,62.7z"/>
	</g>
	<g>
		<path d="M103.1,62.7c0,0-0.1,0-0.1,0c-0.3-0.1-0.4-0.3-0.4-0.6l1.2-5.4c0.1-0.3,0.3-0.4,0.6-0.4c0.3,0.1,0.4,0.3,0.4,0.6l-1.2,5.4
			C103.5,62.5,103.3,62.7,103.1,62.7z"/>
	</g>
	<g>
		<path d="M128.7,231.4c-0.2,0-0.5-0.2-0.5-0.4c0-0.3,0.1-0.5,0.4-0.6l5.1-0.8c0.3,0,0.5,0.1,0.6,0.4c0,0.3-0.1,0.5-0.4,0.6
			L128.7,231.4C128.8,231.4,128.7,231.4,128.7,231.4z"/>
	</g>
	<g>
		<polygon points="122.6,181.5 98.8,157.6 77.3,157.6 77.3,156.6 99.2,156.6 123.4,180.7 		"/>
	</g>
	<g>
		<path d="M124.7,270.6H97.3c-3.6,0-6.6-2.9-6.7-6.5l-1.3-31.7c-0.1-1.9,0.6-3.7,1.9-5c1.3-1.3,3-2,4.8-2h25.3l1,7
			c0.4,2.1,2.3,3.8,4.4,3.8h10.7l-6.1,28.7C130.9,268.2,128.1,270.6,124.7,270.6z M96,226.4c-1.5,0-3,0.6-4.1,1.7
			c-1.1,1.1-1.7,2.7-1.6,4.3l1.3,31.7c0.1,3,2.6,5.5,5.7,5.5h27.4c2.9,0,5.2-2,5.6-4.9l5.9-27.5h-9.5c-2.6,0-5-2-5.4-4.6l-0.8-6.2
			H96z"/>
	</g>
	<g>
		<path d="M134.2,237.1h-6.6c-3.2,0-5.9-2.3-6.3-5.4l-1-6.3h12.1c1,0,1.9,0.4,2.5,1.2c0.6,0.7,0.9,1.7,0.7,2.6L134.2,237.1z
			 M121.5,226.4l0.8,5.1c0.4,2.6,2.6,4.6,5.3,4.6h5.8l1.2-7.1c0.1-0.6-0.1-1.3-0.5-1.8c-0.4-0.5-1.1-0.8-1.7-0.8H121.5z"/>
	</g>
	<g>
		<path d="M131.9,226.4H80.9l-1.3-17.2l9.6,6.7l34-35.6h20.8L131.9,226.4z M81.9,225.4h49.2l11.5-44.2h-19l-34.2,36l-8.6-5.9
			L81.9,225.4z"/>
	</g>
	<g>
		<polygon points="146.3,245.4 146.3,174.9 148.8,174.9 148.8,241.4 		"/>
	</g>
	<g>
		<rect x="140" y="171.3" width="6" height="1"/>
	</g>
	<g>
		<g>
			<polygon class="st2" points="134.6,180.7 123.4,180.7 106.7,164.1 148.8,164.1 148.8,173.3 129.8,173.3 			"/>
		</g>
		<g>
			<path d="M135.5,181.2h-12.3l-17.7-17.6h43.8v10.2h-18.6L135.5,181.2z M123.6,180.2h10.1l-4.8-7.4h19.4v-8.2h-40.4L123.6,180.2z"
				/>
		</g>
	</g>
	<g>
		<g>
			<polygon class="st2" points="131.5,225.9 124.6,206.7 134.6,180.7 123.4,180.7 89.3,216.5 82.1,225.9 			"/>
		</g>
		<g>
			<path d="M132.2,226.4H81.1l7.8-10.2l34.3-36h12.1l-10.2,26.5L132.2,226.4z M83.1,225.4h47.7l-6.7-18.7l0.1-0.2l9.7-25.3h-10.3
				l-34,35.6L83.1,225.4z"/>
		</g>
	</g>
	<g>
		<path d="M132.5,257.2h-16.6c-0.3,0-0.5-0.2-0.5-0.5s0.2-0.5,0.5-0.5h16.6c0.3,0,0.5,0.2,0.5,0.5S132.8,257.2,132.5,257.2z"/>
	</g>
	<g>
		<path d="M133.1,251.8h-13.9c-0.3,0-0.5-0.2-0.5-0.5s0.2-0.5,0.5-0.5h13.9c0.3,0,0.5,0.2,0.5,0.5S133.4,251.8,133.1,251.8z"/>
	</g>
	<g>
		<path d="M130.5,257.2c0,0-0.1,0-0.1,0c-0.3-0.1-0.4-0.3-0.4-0.6l1.2-5.4c0.1-0.3,0.3-0.4,0.6-0.4c0.3,0.1,0.4,0.3,0.4,0.6
			l-1.2,5.4C130.9,257,130.7,257.2,130.5,257.2z"/>
	</g>
	<g>
		<path d="M128.3,257.2c0,0-0.1,0-0.1,0c-0.3-0.1-0.4-0.3-0.4-0.6l1.2-5.4c0.1-0.3,0.3-0.4,0.6-0.4c0.3,0.1,0.4,0.3,0.4,0.6
			l-1.2,5.4C128.7,257,128.5,257.2,128.3,257.2z"/>
	</g>
	<g>
		<path d="M126.1,257.2c0,0-0.1,0-0.1,0c-0.3-0.1-0.4-0.3-0.4-0.6l1.2-5.4c0.1-0.3,0.3-0.4,0.6-0.4c0.3,0.1,0.4,0.3,0.4,0.6
			l-1.2,5.4C126.5,257,126.3,257.2,126.1,257.2z"/>
	</g>
	<g>
		<path d="M124,257.2c0,0-0.1,0-0.1,0c-0.3-0.1-0.4-0.3-0.4-0.6l1.2-5.4c0.1-0.3,0.3-0.4,0.6-0.4c0.3,0.1,0.4,0.3,0.4,0.6l-1.2,5.4
			C124.4,257,124.2,257.2,124,257.2z"/>
	</g>
	<g>
		<path d="M121.8,257.2c0,0-0.1,0-0.1,0c-0.3-0.1-0.4-0.3-0.4-0.6l1.2-5.4c0.1-0.3,0.3-0.4,0.6-0.4c0.3,0.1,0.4,0.3,0.4,0.6
			l-1.2,5.4C122.2,257,122,257.2,121.8,257.2z"/>
	</g>
	<g>
		<path d="M119.7,257.2c0,0-0.1,0-0.1,0c-0.3-0.1-0.4-0.3-0.4-0.6l1.2-5.4c0.1-0.3,0.3-0.4,0.6-0.4c0.3,0.1,0.4,0.3,0.4,0.6
			l-1.2,5.4C120.1,257,119.9,257.2,119.7,257.2z"/>
	</g>
	<g>
		<g>
			<path class="st2" d="M73.6,188.4c0-0.1,0-0.3,0-0.5c0-0.1,0-0.3,0-0.4c0-0.2,0-0.4,0.1-0.6c0-0.2,0.1-0.3,0.1-0.5
				c0.6-2.9,2.6-5.4,5.1-6.6c0.3-0.1,0.6-0.3,1-0.4c0.7-0.2,1.5-0.3,2.2-0.3c1.6,0,3.2,0.7,4.5,1.8c0.7,0.6,1.3,1.2,1.8,2
				c0.3,0.4,0.5,0.9,0.7,1.4c0.2,0.4,0.2,0.4,0.3,0.8c0-0.3,0-0.6-0.1-0.9c-0.1-0.6-0.2-0.7-0.4-1.3c-0.6-1.6-1.6-2.9-2.7-3.8
				c-0.8-0.8-1.8-1.4-2.8-1.7l0,0c2.3-2.3,6.4-7.2,7.4-12.6c0-0.2,0.1-0.5,0.1-0.7c0,0.2,0.1,0.5,0.1,0.7c0.4,2.5,1.4,4.8,2.7,6.9
				c1,1.6,2.2,3.1,3.4,4.6c0.7,0.8,1.5,1.5,2.3,2.1c0.2,0.2,0.5,0.3,0.7,0.4l0,0c0.7,0.4,1.5,0.6,2.3,0.9c0.3,0.1,0.6,0.2,0.9,0.4
				c0.5,0.3,0.9,0.5,1.3,0.9c0,0,0,0,0.1,0.1c0.4,0.3,0.8,0.7,1.2,1.1c0.3,0.4,0.6,0.7,0.8,1.1c0.2,0.3,0.3,0.5,0.4,0.8
				c0.1,0.1,0.1,0.3,0.2,0.4c0.3,0.5,0.4,1.1,0.6,1.7c0.1,0.4,0.2,0.9,0.2,1.4c0,0,0,0,0,0.1c0,0.3,0,0.6,0,0.9
				c0,1.3-0.2,2.5-0.7,3.6c-0.7,1.8-1.9,3.4-3.5,4.4c-0.1,0.1-0.2,0.1-0.4,0.2c-0.6,0.4-1.3,0.6-2,0.8c-0.4,0.1-0.8,0.2-1.3,0.2
				c-0.3,0-0.6,0.1-0.9,0.1c-0.6,0-1.1-0.1-1.6-0.2c-0.1,0-0.2,0-0.3-0.1c-0.2,0-0.3-0.1-0.5-0.1c-0.1,0-0.3-0.1-0.4-0.1
				s-0.3-0.1-0.4-0.1c-0.2-0.1-0.5-0.2-0.7-0.4c-0.2-0.1-0.4-0.2-0.6-0.4l-0.1-0.1c-0.3-0.2-0.5-0.4-0.8-0.6l-0.1-0.1
				c0,0,0,0-0.1-0.1s-0.2-0.1-0.3-0.2c0,0-0.1-0.1-0.1-0.2c-0.2-0.2-0.4-0.5-0.6-0.7c-0.1-0.1-0.1-0.1-0.2-0.2
				c-0.3-0.3-0.5-0.7-0.7-1.1c-0.5-0.8-0.8-1.7-1-2.7c-0.1-0.6-0.2-1.2-0.2-1.9c0,0.3,0,0.5,0,0.8c0,0.2-0.1,0.5-0.1,0.7
				s-0.1,0.4-0.1,0.6c0,0.1,0,0.1,0,0.2c0,0.1,0,0.2-0.1,0.3c0,0.1-0.1,0.3-0.1,0.4c0,0.1-0.1,0.3-0.2,0.4c-0.1,0.3-0.2,0.6-0.4,0.9
				c-0.1,0.1-0.1,0.2-0.2,0.3c-0.1,0.3-0.3,0.5-0.5,0.8c-0.1,0.1-0.2,0.2-0.3,0.4c-0.2,0.2-0.3,0.4-0.5,0.6
				c-0.1,0.1-0.1,0.2-0.2,0.2c-0.3,0.3-0.6,0.6-0.9,0.8c-0.1,0.1-0.2,0.2-0.3,0.2c-0.2,0.2-0.5,0.3-0.7,0.4
				c-0.7,0.4-1.5,0.7-2.3,0.9c-0.3,0-0.5,0.1-0.8,0.1l0,0c-0.3,0-0.6,0.1-0.9,0.1s-0.6,0-0.9-0.1c-0.4,0-0.9-0.1-1.3-0.2
				c-0.7-0.2-1.3-0.5-2-0.8c-0.1-0.1-0.3-0.2-0.4-0.2c-0.3-0.2-0.6-0.4-0.9-0.7c-0.1,0-0.1-0.1-0.2-0.2c-1-0.9-1.9-2.1-2.4-3.5
				C73.8,191,73.6,189.7,73.6,188.4z"/>
		</g>
		<g>
			<path class="st3" d="M91,161.6l0.3,2.3c0,0.3,0.1,0.5,0.1,0.7c0.4,2.2,1.3,4.5,2.7,6.8c1,1.6,2.1,3.1,3.4,4.5
				c0.6,0.7,1.4,1.5,2.3,2.1c0.2,0.2,0.4,0.3,0.7,0.4l0.2,0.1c0.4,0.2,0.9,0.4,1.3,0.5c0.3,0.1,0.5,0.2,0.8,0.3s0.6,0.2,0.9,0.4
				c0.5,0.3,0.9,0.6,1.4,0.9l0.1,0.1c0.4,0.3,0.8,0.7,1.1,1.1c0.4,0.4,0.6,0.8,0.8,1.2c0.2,0.3,0.3,0.5,0.4,0.8
				c0.1,0.1,0.1,0.3,0.2,0.4c0.3,0.6,0.5,1.2,0.6,1.8c0.1,0.4,0.2,0.9,0.2,1.4v0.1c0,0.3,0,0.6,0,0.9c0,1.3-0.2,2.6-0.7,3.8
				c-0.7,1.9-2,3.5-3.6,4.5l-0.1,0.1c-0.1,0-0.1,0.1-0.2,0.1c-0.6,0.4-1.3,0.7-2.1,0.9c-0.5,0.1-0.9,0.2-1.3,0.3
				c-0.2,0-0.6,0.1-0.9,0.1c-0.6,0-1.1-0.1-1.7-0.2h-0.1c-0.1,0-0.2,0-0.2-0.1c-0.2,0-0.3-0.1-0.5-0.1l-0.4-0.1
				c-0.1,0-0.2-0.1-0.3-0.1h-0.1c-0.3-0.1-0.5-0.2-0.8-0.4c-0.2-0.1-0.4-0.2-0.6-0.3c-0.1-0.1-0.1-0.1-0.2-0.1
				c-0.3-0.2-0.5-0.4-0.8-0.6c-0.1-0.1-0.1-0.1-0.1-0.1l-0.2-0.2c-0.1,0-0.1-0.1-0.2-0.1l-0.1-0.1c-0.3-0.3-0.5-0.5-0.7-0.8
				c-0.1-0.1-0.1-0.1-0.2-0.2c-0.3-0.4-0.5-0.7-0.7-1.1c-0.4-0.7-0.7-1.5-0.9-2.4c0,0,0,0,0,0.1s0,0.2-0.1,0.3
				c0,0.1-0.1,0.3-0.1,0.4c0,0.1-0.1,0.3-0.2,0.4c-0.1,0.3-0.3,0.6-0.4,0.9c-0.1,0.1-0.1,0.2-0.2,0.3c-0.2,0.3-0.3,0.5-0.5,0.8
				l-0.1,0.1c-0.1,0.1-0.1,0.2-0.2,0.2c-0.2,0.2-0.3,0.4-0.5,0.6c-0.1,0.1-0.1,0.2-0.2,0.2c-0.3,0.3-0.7,0.6-1,0.9
				c-0.1,0.1-0.2,0.2-0.4,0.3c-0.2,0.2-0.5,0.3-0.7,0.5c-0.7,0.4-1.6,0.7-2.4,0.9c-0.3,0.1-0.6,0.1-0.8,0.1c-0.5,0.1-1.4,0.1-1.8,0
				c-0.5,0-0.9-0.1-1.3-0.3c-0.7-0.2-1.4-0.5-2-0.9l-0.1-0.1c-0.1-0.1-0.2-0.1-0.3-0.2c-0.4-0.2-0.7-0.5-1-0.7
				c-0.1,0-0.1-0.1-0.2-0.2c-1.1-1-1.9-2.2-2.5-3.6c-0.5-1.2-0.7-2.5-0.7-3.8c0-0.2,0-0.3,0-0.5c0-0.1,0-0.3,0-0.4
				c0-0.2,0-0.4,0.1-0.7c0-0.2,0.1-0.4,0.1-0.5c0.7-3,2.7-5.6,5.3-6.8c0.3-0.1,0.6-0.3,1-0.4c0.8-0.2,1.6-0.3,2.3-0.3
				c1.6,0,3.3,0.7,4.7,1.9c0.7,0.5,1.3,1.2,1.8,2c-0.6-1.3-1.4-2.5-2.5-3.4c-0.8-0.8-1.7-1.3-2.7-1.7l-0.4-0.2l0.3-0.3
				c2.3-2.4,6.4-7.1,7.3-12.5c0-0.2,0.1-0.5,0.1-0.7L91,161.6z M100.1,178.9c-0.2-0.1-0.4-0.2-0.6-0.4c-0.9-0.7-1.8-1.5-2.4-2.2
				c-1.3-1.4-2.5-2.9-3.5-4.6c-1.3-2-2.1-4.1-2.6-6.1c-1.2,4.9-4.7,9.1-6.9,11.5c0.9,0.4,1.7,0.9,2.5,1.6c1.3,1,2.2,2.4,2.8,4
				l0.1,0.2c0.1,0.4,0.2,0.5,0.3,1.1c0,0.2,0.1,0.5,0.1,0.7v0.3l0.2,2.9l-0.8-2.8c-0.1-0.3-0.1-0.4-0.2-0.5c0-0.1-0.1-0.1-0.1-0.3
				c-0.2-0.5-0.4-0.9-0.7-1.3c-0.5-0.7-1.1-1.4-1.7-1.9c-1.3-1.1-2.8-1.7-4.3-1.7c-0.7,0-1.4,0.1-2.1,0.3c-0.3,0.1-0.6,0.2-0.9,0.4
				c-2.5,1.1-4.4,3.6-5,6.3c0,0.2-0.1,0.3-0.1,0.5s-0.1,0.4-0.1,0.6c0,0.2,0,0.3,0,0.4c0,0.2,0,0.3,0,0.4c0,1.2,0.2,2.4,0.7,3.5
				c0.5,1.3,1.3,2.5,2.3,3.4c0.1,0.1,0.1,0.1,0.2,0.1c0.3,0.3,0.6,0.5,0.9,0.7c0.1,0,0.2,0.1,0.3,0.2l0.1,0.1
				c0.6,0.3,1.2,0.6,1.9,0.8c0.4,0.1,0.8,0.2,1.2,0.2c0.6,0.1,1.1,0.1,1.7,0c0.3,0,0.6-0.1,0.8-0.1c0.8-0.2,1.5-0.5,2.2-0.9
				c0.2-0.1,0.4-0.3,0.7-0.4c0.1-0.1,0.2-0.1,0.3-0.2c0.3-0.2,0.6-0.5,0.9-0.8c0.1-0.1,0.1-0.2,0.2-0.2c0.2-0.2,0.3-0.4,0.5-0.6
				c0.1-0.1,0.1-0.1,0.1-0.2l0.1-0.1c0.2-0.2,0.3-0.5,0.5-0.7c0.1-0.1,0.1-0.2,0.2-0.3c0.1-0.2,0.3-0.5,0.4-0.8
				c0.1-0.1,0.1-0.3,0.2-0.4c0.1-0.1,0.1-0.3,0.1-0.4c0-0.1,0.1-0.2,0.1-0.3v-0.1v-0.1l0.1-0.6c0-0.2,0.1-0.5,0.1-0.7
				c0-0.3,0-0.5,0-0.8h0.6c0,0.7,0.1,1.3,0.2,1.8c0.2,0.9,0.5,1.8,0.9,2.6c0.2,0.4,0.4,0.7,0.7,1.1c0.1,0.1,0.1,0.1,0.2,0.2
				c0.2,0.3,0.4,0.5,0.6,0.7l0.1,0.1c0.1,0.1,0.1,0.1,0.2,0.2l0.1,0.1c0.1,0.1,0.1,0.1,0.2,0.2c0.2,0.2,0.5,0.4,0.7,0.6
				c0,0,0.1,0,0.1,0.1c0.2,0.1,0.4,0.3,0.6,0.4c0.2,0.1,0.5,0.2,0.7,0.3h0.1c0.1,0,0.2,0.1,0.2,0.1l0.4,0.1c0.1,0,0.3,0.1,0.4,0.1
				s0.1,0,0.2,0h0.1c0.8,0.2,1.6,0.2,2.4,0.1c0.4,0,0.8-0.1,1.2-0.2c0.7-0.2,1.3-0.5,1.9-0.8c0.1,0,0.1-0.1,0.2-0.1l0.1-0.1
				c1.5-1,2.7-2.5,3.4-4.2c0.4-1.1,0.7-2.3,0.7-3.5c0-0.3,0-0.6,0-0.8v-0.1c0-0.4-0.1-0.9-0.2-1.3c-0.1-0.6-0.3-1.1-0.6-1.7
				c-0.1-0.1-0.1-0.3-0.2-0.4c-0.1-0.2-0.3-0.5-0.4-0.8c-0.2-0.3-0.4-0.7-0.8-1.1c-0.3-0.4-0.7-0.8-1.1-1.1l-0.1-0.1
				c-0.4-0.3-0.8-0.6-1.3-0.9c-0.2-0.1-0.5-0.2-0.8-0.4c-0.3-0.1-0.5-0.2-0.8-0.3c-0.5-0.2-1-0.4-1.5-0.6H100.1L100.1,178.9z"/>
		</g>
	</g>
	<g>
		<g>
			<path class="st2" d="M150.7,125.8c0,0.1,0,0.3,0,0.5c0,0.1,0,0.3,0,0.4c0,0.2,0,0.4-0.1,0.6c0,0.2-0.1,0.3-0.1,0.5
				c-0.6,2.9-2.6,5.4-5.1,6.6c-0.3,0.1-0.6,0.3-1,0.4c-0.7,0.2-1.5,0.3-2.2,0.3c-1.6,0-3.2-0.7-4.5-1.8c-0.7-0.6-1.3-1.2-1.8-2
				c-0.3-0.4-0.5-0.9-0.7-1.4c-0.2-0.4-0.2-0.4-0.3-0.8c0,0.3,0,0.6,0.1,0.9c0.1,0.6,0.2,0.7,0.4,1.3c0.6,1.6,1.6,2.9,2.7,3.8
				c0.8,0.8,1.8,1.4,2.8,1.7l0,0c-2.3,2.3-6.4,7.2-7.4,12.6c0,0.2-0.1,0.5-0.1,0.7c0-0.2-0.1-0.5-0.1-0.7c-0.4-2.5-1.4-4.8-2.7-6.9
				c-1-1.6-2.2-3.1-3.4-4.6c-0.7-0.8-1.5-1.5-2.3-2.1c-0.2-0.2-0.5-0.3-0.7-0.4l0,0c-0.7-0.4-1.5-0.6-2.3-0.9
				c-0.3-0.1-0.6-0.2-0.9-0.4c-0.5-0.3-0.9-0.5-1.3-0.9c0,0,0,0-0.1-0.1c-0.4-0.3-0.8-0.7-1.2-1.1c-0.3-0.4-0.6-0.7-0.8-1.1
				c-0.2-0.3-0.3-0.5-0.4-0.8c-0.1-0.1-0.1-0.3-0.2-0.4c-0.3-0.5-0.4-1.1-0.6-1.7c-0.1-0.4-0.2-0.9-0.2-1.4c0,0,0,0,0-0.1
				c0-0.3,0-0.6,0-0.9c0-1.3,0.2-2.5,0.7-3.6c0.7-1.8,1.9-3.4,3.5-4.4c0.1-0.1,0.2-0.1,0.4-0.2c0.6-0.4,1.3-0.6,2-0.8
				c0.4-0.1,0.8-0.2,1.3-0.2c0.3,0,0.6-0.1,0.9-0.1c0.6,0,1.1,0.1,1.6,0.2c0.1,0,0.2,0,0.3,0.1c0.2,0,0.3,0.1,0.5,0.1
				c0.1,0,0.3,0.1,0.4,0.1s0.3,0.1,0.4,0.1c0.2,0.1,0.5,0.2,0.7,0.4c0.2,0.1,0.4,0.2,0.6,0.4l0.1,0.1c0.3,0.2,0.5,0.4,0.8,0.6
				l0.1,0.1c0,0,0,0,0.1,0.1s0.2,0.1,0.3,0.2c0,0,0.1,0.1,0.1,0.2c0.2,0.2,0.4,0.5,0.6,0.7c0.1,0.1,0.1,0.1,0.2,0.2
				c0.3,0.3,0.5,0.7,0.7,1.1c0.5,0.8,0.8,1.7,1,2.7c0.1,0.6,0.2,1.2,0.2,1.9c0-0.3,0-0.5,0-0.8c0-0.2,0.1-0.5,0.1-0.7
				s0.1-0.4,0.1-0.6c0-0.1,0-0.1,0-0.2s0-0.2,0.1-0.3c0-0.1,0.1-0.3,0.1-0.4s0.1-0.3,0.2-0.4c0.1-0.3,0.2-0.6,0.4-0.9
				c0.1-0.1,0.1-0.2,0.2-0.3c0.1-0.3,0.3-0.5,0.5-0.8c0.1-0.1,0.2-0.2,0.3-0.4c0.2-0.2,0.3-0.4,0.5-0.6c0.1-0.1,0.1-0.2,0.2-0.2
				c0.3-0.3,0.6-0.6,0.9-0.8c0.1-0.1,0.2-0.2,0.3-0.2c0.2-0.2,0.5-0.3,0.7-0.4c0.7-0.4,1.5-0.7,2.3-0.9c0.3,0,0.5-0.1,0.8-0.1l0,0
				c0.3,0,0.6-0.1,0.9-0.1c0.3,0,0.6,0,0.9,0.1c0.4,0,0.9,0.1,1.3,0.2c0.7,0.2,1.3,0.5,2,0.8c0.1,0.1,0.3,0.2,0.4,0.2
				c0.3,0.2,0.6,0.4,0.9,0.7c0.1,0,0.1,0.1,0.2,0.2c1,0.9,1.9,2.1,2.4,3.5C150.4,123.3,150.7,124.5,150.7,125.8z"/>
		</g>
		<g>
			<path class="st3" d="M133.2,152.6l-0.3-2.3c0-0.3-0.1-0.5-0.1-0.7c-0.4-2.2-1.3-4.5-2.7-6.8c-1-1.6-2.1-3.1-3.4-4.5
				c-0.6-0.7-1.4-1.5-2.3-2.1c-0.2-0.2-0.4-0.3-0.7-0.4l-0.2-0.1c-0.4-0.2-0.9-0.4-1.3-0.5c-0.3-0.1-0.5-0.2-0.8-0.3
				s-0.6-0.2-0.9-0.4c-0.5-0.3-0.9-0.6-1.4-0.9l-0.1-0.1c-0.4-0.3-0.8-0.7-1.1-1.1c-0.4-0.4-0.6-0.8-0.8-1.2
				c-0.2-0.3-0.3-0.5-0.4-0.8c-0.1-0.1-0.1-0.3-0.2-0.4c-0.3-0.6-0.5-1.2-0.6-1.8c-0.1-0.4-0.2-0.9-0.2-1.4v-0.1c0-0.3,0-0.6,0-0.9
				c0-1.3,0.2-2.6,0.7-3.8c0.7-1.9,2-3.5,3.6-4.5l0.1-0.1c0.1,0,0.1-0.1,0.2-0.1c0.6-0.4,1.3-0.7,2.1-0.9c0.5-0.1,0.9-0.2,1.3-0.3
				c0.2,0,0.6-0.1,0.9-0.1c0.6,0,1.1,0.1,1.7,0.2h0.1c0.1,0,0.2,0,0.2,0.1c0.2,0,0.3,0.1,0.5,0.1l0.4,0.1c0.1,0,0.2,0.1,0.3,0.1h0.1
				c0.3,0.1,0.5,0.2,0.8,0.4c0.2,0.1,0.4,0.2,0.6,0.3c0.1,0.1,0.1,0.1,0.2,0.1c0.3,0.2,0.5,0.4,0.8,0.6c0.1,0.1,0.1,0.1,0.1,0.1
				l0.2,0.2c0.1,0,0.1,0.1,0.2,0.1l0.1,0.1c0.3,0.3,0.5,0.5,0.7,0.8c0.1,0.1,0.1,0.1,0.2,0.2c0.3,0.4,0.5,0.7,0.7,1.1
				c0.4,0.7,0.7,1.5,0.9,2.4c0,0,0,0,0-0.1s0-0.2,0.1-0.3c0-0.1,0.1-0.3,0.1-0.4s0.1-0.3,0.2-0.4c0.1-0.3,0.3-0.6,0.4-0.9
				c0.1-0.1,0.1-0.2,0.2-0.3c0.2-0.3,0.3-0.5,0.5-0.8l0.1-0.1c0.1-0.1,0.1-0.2,0.2-0.2c0.2-0.2,0.3-0.4,0.5-0.6
				c0.1-0.1,0.1-0.2,0.2-0.2c0.3-0.3,0.7-0.6,1-0.9c0.1-0.1,0.2-0.2,0.4-0.3c0.2-0.2,0.5-0.3,0.7-0.5c0.7-0.4,1.6-0.7,2.4-0.9
				c0.3-0.1,0.6-0.1,0.8-0.1c0.5-0.1,1.4-0.1,1.8,0c0.5,0,0.9,0.1,1.3,0.3c0.7,0.2,1.4,0.5,2,0.9l0.1,0.1c0.1,0.1,0.2,0.1,0.3,0.2
				c0.4,0.2,0.7,0.5,1,0.7c0.1,0,0.1,0.1,0.2,0.2c1.1,1,1.9,2.2,2.5,3.6c0.5,1.2,0.7,2.5,0.7,3.8c0,0.2,0,0.3,0,0.5
				c0,0.1,0,0.3,0,0.4c0,0.2,0,0.4-0.1,0.7c0,0.2-0.1,0.4-0.1,0.5c-0.7,3-2.7,5.6-5.3,6.8c-0.3,0.1-0.6,0.3-1,0.4
				c-0.8,0.2-1.6,0.3-2.3,0.3c-1.6,0-3.3-0.7-4.7-1.9c-0.7-0.5-1.3-1.2-1.8-2c0.6,1.3,1.4,2.5,2.5,3.4c0.8,0.8,1.7,1.3,2.7,1.7
				l0.4,0.2l-0.3,0.3c-2.3,2.4-6.4,7.1-7.3,12.5c0,0.2-0.1,0.5-0.1,0.7L133.2,152.6z M124.2,135.3c0.2,0.1,0.4,0.2,0.6,0.4
				c0.9,0.7,1.8,1.5,2.4,2.2c1.3,1.4,2.5,2.9,3.5,4.6c1.3,2,2.1,4.1,2.6,6.1c1.2-4.9,4.7-9.1,6.9-11.5c-0.9-0.4-1.7-0.9-2.5-1.6
				c-1.3-1-2.2-2.4-2.8-4l-0.1-0.2c-0.1-0.4-0.2-0.5-0.3-1.1c0-0.2-0.1-0.5-0.1-0.7v-0.3l-0.2-2.9l0.8,2.8c0.1,0.3,0.1,0.4,0.2,0.5
				c0,0.1,0.1,0.1,0.1,0.3c0.2,0.5,0.4,0.9,0.7,1.3c0.5,0.7,1.1,1.4,1.7,1.9c1.3,1.1,2.8,1.7,4.3,1.7c0.7,0,1.4-0.1,2.1-0.3
				c0.3-0.1,0.6-0.2,0.9-0.4c2.5-1.1,4.4-3.6,5-6.3c0-0.2,0.1-0.3,0.1-0.5s0.1-0.4,0.1-0.6s0-0.3,0-0.4c0-0.2,0-0.3,0-0.4
				c0-1.2-0.2-2.4-0.7-3.5c-0.5-1.3-1.3-2.5-2.3-3.4c-0.1-0.1-0.1-0.1-0.2-0.1c-0.3-0.3-0.6-0.5-0.9-0.7c-0.1,0-0.2-0.1-0.3-0.2
				l-0.1-0.1c-0.6-0.3-1.2-0.6-1.9-0.8c-0.4-0.1-0.8-0.2-1.2-0.2c-0.6-0.1-1.1-0.1-1.7,0c-0.3,0-0.6,0.1-0.8,0.1
				c-0.8,0.2-1.5,0.5-2.2,0.9c-0.2,0.1-0.4,0.3-0.7,0.4c-0.1,0.1-0.2,0.1-0.3,0.2c-0.3,0.2-0.6,0.5-0.9,0.8
				c-0.1,0.1-0.1,0.2-0.2,0.2c-0.2,0.2-0.3,0.4-0.5,0.6c-0.1,0.1-0.1,0.1-0.1,0.2l-0.1,0.1c-0.2,0.2-0.3,0.5-0.5,0.7
				c-0.1,0.1-0.1,0.2-0.2,0.3c-0.1,0.2-0.3,0.5-0.4,0.8c-0.1,0.1-0.1,0.3-0.2,0.4c-0.1,0.1-0.1,0.3-0.1,0.4s-0.1,0.2-0.1,0.3v0.1
				v0.1l-0.1,0.6c0,0.2-0.1,0.5-0.1,0.7c0,0.3,0,0.5,0,0.8h-0.6c0-0.7-0.1-1.3-0.2-1.8c-0.2-0.9-0.5-1.8-0.9-2.6
				c-0.2-0.4-0.4-0.7-0.7-1.1c-0.1-0.1-0.1-0.1-0.2-0.2c-0.2-0.3-0.4-0.5-0.6-0.7l-0.1-0.1c-0.1-0.1-0.1-0.1-0.2-0.2l-0.1-0.1
				c-0.1-0.1-0.1-0.1-0.2-0.2c-0.2-0.2-0.5-0.4-0.7-0.6c0,0-0.1,0-0.1-0.1c-0.2-0.1-0.4-0.3-0.6-0.4c-0.2-0.1-0.5-0.2-0.7-0.3h-0.1
				c-0.1,0-0.2-0.1-0.2-0.1l-0.4-0.1c-0.1,0-0.3-0.1-0.4-0.1s-0.1,0-0.2,0h-0.1c-0.8-0.2-1.6-0.2-2.4-0.1c-0.4,0-0.8,0.1-1.2,0.2
				c-0.7,0.2-1.3,0.5-1.9,0.8c-0.1,0-0.1,0.1-0.2,0.1l-0.1,0.1c-1.5,1-2.7,2.5-3.4,4.2c-0.4,1.1-0.7,2.3-0.7,3.5c0,0.3,0,0.6,0,0.8
				v0.1c0,0.4,0.1,0.9,0.2,1.3c0.1,0.6,0.3,1.1,0.6,1.7c0.1,0.1,0.1,0.3,0.2,0.4c0.1,0.2,0.3,0.5,0.4,0.8c0.2,0.3,0.4,0.7,0.8,1.1
				c0.3,0.4,0.7,0.8,1.1,1.1l0.1,0.1c0.4,0.3,0.8,0.6,1.3,0.9c0.2,0.1,0.5,0.2,0.8,0.4c0.3,0.1,0.5,0.2,0.8,0.3
				c0.5,0.2,1,0.4,1.5,0.6L124.2,135.3L124.2,135.3z"/>
		</g>
	</g>
</g>
</svg>
