<?xml version="1.0" encoding="utf-8"?>
<!-- Generator: Adobe Illustrator 26.0.0, SVG Export Plug-In . SVG Version: 6.00 Build 0)  -->
<svg version="1.1" id="Layer_1" xmlns="http://www.w3.org/2000/svg" xmlns:xlink="http://www.w3.org/1999/xlink" x="0px" y="0px"
	 viewBox="0 0 64 64" style="enable-background:new 0 0 64 64;" xml:space="preserve">
<style type="text/css">
	.st0{fill:#E21E2C;}
</style>
<g>
	<g>
		<g>
			<g>
				<g>
					<path class="st0" d="M63,11.86V1H52.13v4.05H11.86V1H1v10.86h4.05v40.28H1V63h10.86v-4.05h40.27V63H63V52.14h-4.06V11.86H63z
						 M3,9.88V3h6.86v6.88H3z M9.86,61.02H3v-6.88h6.86V61.02z M52.13,56.18H11.86v-4.05H7.81V11.86h4.04V7.82h40.27v4.05h4.05
						v40.28h-4.05V56.18z M61,54.14v6.88h-6.88v-6.88H61z M54.13,9.88V3H61v6.88H54.13z"/>
				</g>
			</g>
		</g>
	</g>
	<g>
		<g>
			
				<rect x="18.9" y="30.7" transform="matrix(0.2869 -0.958 0.958 0.2869 -7.2536 54.4367)" class="st0" width="28.08" height="2.78"/>
		</g>
		<g>
			<polygon class="st0" points="49.2,32.09 47.89,35.73 45.43,42.47 43,41.88 46.55,32.09 43,22.3 45.43,21.7 47.89,28.45 			"/>
		</g>
		<g>
			<polygon class="st0" points="16.67,32.09 17.99,28.44 20.44,21.7 22.88,22.29 19.32,32.09 22.88,41.87 20.44,42.47 17.99,35.72 
							"/>
		</g>
	</g>
</g>
</svg>
