<?xml version="1.0" encoding="utf-8"?>
<!-- Generator: Adobe Illustrator 26.0.0, SVG Export Plug-In . SVG Version: 6.00 Build 0)  -->
<svg version="1.1" id="Layer_1" xmlns="http://www.w3.org/2000/svg" xmlns:xlink="http://www.w3.org/1999/xlink" x="0px" y="0px"
	 viewBox="0 0 64 64" style="enable-background:new 0 0 64 64;" xml:space="preserve">
<style type="text/css">
	.st0{fill:#E21E2C;}
</style>
<g>
	<g>
		<g>
			<g>
				<g>
					<g>
						<path class="st0" d="M63,11.86V1H52.13v4.05H11.86V1H1v10.86h4.05v40.28H1V63h10.86v-4.05h40.27V63H63V52.14h-4.06V11.86H63z
							 M3,9.88V3h6.86v6.88H3z M9.86,61.02H3v-6.88h6.86V61.02z M52.13,56.18H11.86v-4.05H7.81V11.86h4.04V7.82h40.27v4.05h4.05
							v40.28h-4.05V56.18z M61,54.14v6.88h-6.88v-6.88H61z M54.13,9.88V3H61v6.88H54.13z"/>
					</g>
				</g>
			</g>
		</g>
	</g>
	<g>
		<g>
			<g>
				<path class="st0" d="M17.18,18.48l-0.02,0.02l0.03,0.03L17.18,18.48z M19.04,16.62l-0.02,0.02l0.05,0.02L19.04,16.62z"/>
			</g>
		</g>
		<g>
			<g>
				<path class="st0" d="M48.74,35.71l1.14-1.14L48,32.69l-0.65,0.65l-5.72-9.94l-22.56-6.75l-0.05-0.02l-2.63-0.78l0.78,2.63
					l0.02,0.05l6.72,22.42l0.03,0.15l9.94,5.72l-0.71,0.71l1.88,1.88l1.2-1.2l6.09,3.51l9.91-9.91L48.74,35.71z M35.82,44.88
					l-9.63-5.55l-5.04-16.85l6.29,6.29c-0.71,1.49-0.46,3.31,0.77,4.54c0.78,0.78,1.8,1.17,2.81,1.17c1.03,0,2.05-0.38,2.83-1.17
					c1.55-1.55,1.55-4.08,0-5.65c-0.75-0.75-1.75-1.15-2.83-1.15c-0.6,0-1.18,0.14-1.71,0.38l-6.29-6.29l16.84,5.05l5.55,9.63
					L35.82,44.88z M30.09,29.54c0.26-0.25,0.6-0.38,0.94-0.38c0.35,0,0.69,0.14,0.95,0.38c0.52,0.52,0.52,1.37,0,1.89
					c-0.52,0.52-1.37,0.52-1.89,0C29.56,30.91,29.56,30.06,30.09,29.54z M41.91,48.38l-3.71-2.14l8.58-8.58l2.14,3.69L41.91,48.38z"
					/>
			</g>
		</g>
	</g>
</g>
</svg>
