<?xml version="1.0" encoding="utf-8"?>
<!-- Generator: Adobe Illustrator 26.0.0, SVG Export Plug-In . SVG Version: 6.00 Build 0)  -->
<svg version="1.1" id="Layer_1" xmlns="http://www.w3.org/2000/svg" xmlns:xlink="http://www.w3.org/1999/xlink" x="0px" y="0px"
	 viewBox="0 0 64 64" style="enable-background:new 0 0 64 64;" xml:space="preserve">
<style type="text/css">
	.st0{fill:#E21E2C;}
</style>
<g>
	<g>
		<g>
			<g>
				<g>
					<g>
						<path class="st0" d="M63,11.87V1H52.13v4.06H11.86V1H1v10.87h4.05v40.25H1V63h10.86v-4.06h40.27V63H63V52.13h-4.06V11.87H63z
							 M3,9.87V3h6.86v6.88H3z M9.86,61H3v-6.88h6.86V61z M52.13,56.17H11.86v-4.05H7.81V11.87h4.04V7.81h40.27v4.06h4.05v40.25
							h-4.05V56.17z M61,54.13V61h-6.88v-6.88H61z M54.13,9.87V3H61v6.88H54.13z"/>
					</g>
				</g>
			</g>
		</g>
	</g>
	<g>
		<g>
			<g>
				<g>
					<path class="st0" d="M32.04,19c-7.18,0-13.01,5.83-13.01,13c0,7.18,5.83,13.01,13.01,13.01c7.17,0,13.01-5.83,13.01-13.01
						C45.05,24.82,39.21,19,32.04,19z M32.04,43.22c-6.18,0-11.23-5.03-11.23-11.23c0-6.18,5.04-11.21,11.23-11.21
						s11.21,5.03,11.21,11.21C43.25,38.19,38.22,43.22,32.04,43.22z"/>
				</g>
			</g>
		</g>
		<g>
			<g>
				<g>
					<g>
						<path class="st0" d="M39.27,34.36v0.12c-0.06,0.28-0.2,0.49-0.31,0.68l-0.09,0.15c-0.18,0.32-0.42,0.6-0.63,0.88l-0.06,0.08
							c-1.52,1.95-3.81,3.11-6.14,3.11c-3.03,0-5.78-1.83-7.18-4.77c-0.03-0.06-0.06-0.11-0.06-0.14l-0.03-0.22
							c0-0.38,0.31-0.69,0.71-0.69c0.22,0,0.43,0.11,0.57,0.29l0.09,0.22c0.25,0.49,0.58,1.02,0.98,1.51
							c1.26,1.52,3.06,2.4,4.92,2.4c1.98,0,3.98-1.08,5.23-2.8c0.22-0.31,0.37-0.65,0.51-0.94c0.06-0.17,0.18-0.38,0.4-0.54
							c0.18-0.12,0.4-0.15,0.6-0.09c0.2,0.06,0.35,0.22,0.45,0.42C39.25,34.15,39.27,34.25,39.27,34.36z"/>
					</g>
				</g>
			</g>
		</g>
		<g>
			<g>
				<g>
					<path class="st0" d="M29.36,29.99c0,1.63,0,2.17-0.92,2.17c-0.91,0-0.91-0.54-0.91-2.17c0-1.63,0-2.18,0.91-2.18
						C29.36,27.81,29.36,28.36,29.36,29.99z"/>
				</g>
			</g>
		</g>
		<g>
			<g>
				<g>
					<path class="st0" d="M36.47,29.99c0,1.63,0,2.17-0.91,2.17c-0.92,0-0.92-0.54-0.92-2.17c0-1.63,0-2.18,0.92-2.18
						C36.47,27.81,36.47,28.36,36.47,29.99z"/>
				</g>
			</g>
		</g>
		<g>
			<g>
				<g>
					<g>
						<polygon class="st0" points="18.41,16.89 18.41,18.69 13.12,18.69 13.12,23.9 11.32,23.9 11.32,16.89 						"/>
					</g>
				</g>
			</g>
			<g>
				<g>
					<g>
						<polygon class="st0" points="52.71,16.86 52.71,23.93 50.93,23.93 50.93,18.64 45.71,18.64 45.71,16.86 						"/>
					</g>
				</g>
			</g>
		</g>
		<g>
			<g>
				<g>
					<g>
						<polygon class="st0" points="52.71,40.1 52.71,47.1 45.64,47.1 45.64,45.31 50.93,45.31 50.93,40.1 						"/>
					</g>
				</g>
			</g>
			<g>
				<g>
					<g>
						<polygon class="st0" points="18.33,45.34 18.33,47.14 11.34,47.14 11.34,40.05 13.12,40.05 13.12,45.34 						"/>
					</g>
				</g>
			</g>
		</g>
	</g>
</g>
</svg>
