<?xml version="1.0" encoding="utf-8"?>
<!-- Generator: Adobe Illustrator 26.0.0, SVG Export Plug-In . SVG Version: 6.00 Build 0)  -->
<svg version="1.1" id="Layer_1" xmlns="http://www.w3.org/2000/svg" xmlns:xlink="http://www.w3.org/1999/xlink" x="0px" y="0px"
	 viewBox="0 0 64 64" style="enable-background:new 0 0 64 64;" xml:space="preserve">
<style type="text/css">
	.st0{fill:#E21E2C;}
</style>
<g>
	<g>
		<g>
			<g>
				<g>
					<path class="st0" d="M63,11.87V1H52.13v4.05H11.86V1H1v10.87h4.05v40.25H1V63h10.86v-4.06h40.27V63H63V52.13h-4.06V11.87H63z
						 M3,9.87V3h6.86v6.88H3z M9.86,61H3v-6.88h6.86V61z M52.13,56.17H11.86v-4.05H7.81V11.87h4.04V7.81h40.27v4.06h4.05v40.25
						h-4.05V56.17z M61,54.13V61h-6.88v-6.88H61z M54.13,9.87V3H61v6.88H54.13z"/>
				</g>
			</g>
		</g>
	</g>
	<g>
		<path class="st0" d="M40.48,32.19l-2.01,7.46l-4.55-7.03l3.98-7.92L40.48,32.19l1.54-2.6c0.06-0.12,0.06-0.28,0.02-0.4l-3.03-8.71
			c-0.09-0.28-0.38-0.42-0.65-0.35l-8.94,2.17c-0.17,0.05-0.31,0.17-0.37,0.34l-0.95,2.37l7.66-1.4l-4.03,7.94h-9.15l5.52-6.54
			h-2.89c-0.15,0-0.31,0.06-0.4,0.18l-6.54,7.06c-0.2,0.23-0.18,0.57,0.03,0.77l6.84,6.52c0.11,0.11,0.23,0.15,0.37,0.15h3.12
			l-6.06-5.98h9.15l4.77,7.17l-7.86-1.18l0.95,2.38c0.08,0.17,0.23,0.29,0.42,0.32l9.49,1.63c0.03,0.02,0.06,0.02,0.09,0.02
			c0.26,0,0.48-0.17,0.54-0.43l1.92-8.83c0.03-0.14,0.02-0.28-0.06-0.4L40.48,32.19z"/>
	</g>
</g>
</svg>
