<?xml version="1.0" encoding="utf-8"?>
<!-- Generator: Adobe Illustrator 25.2.0, SVG Export Plug-In . SVG Version: 6.00 Build 0)  -->
<svg version="1.1" id="Layer_1" xmlns="http://www.w3.org/2000/svg" xmlns:xlink="http://www.w3.org/1999/xlink" x="0px" y="0px"
	 viewBox="0 0 224.2 312.8" style="enable-background:new 0 0 224.2 312.8;" xml:space="preserve">
<style type="text/css">
	.st0{fill:#190B38;}
	.st1{opacity:2.000000e-02;}
	.st2{opacity:5.000000e-02;}
	.st3{stroke:#000000;stroke-miterlimit:10;}
	.st4{fill:#050307;}
</style>
<g>
	<g>
		<path d="M125.7,100.3h-16.3c-0.9,0-1.7-0.6-1.9-1.5l-1.7-7.2c-0.1-0.5-0.5-0.8-1-0.8h-9.3c-0.8,0-1.4-0.4-1.8-1.1
			c-0.3-0.7-0.3-1.5,0.2-2.1L105.1,72c0.4-0.5,0.9-0.8,1.6-0.8l21.9-0.5c0.5,0,1.1,0.2,1.4,0.6c0.4,0.4,0.6,0.9,0.6,1.4V78
			c0,1.1-0.9,2-2,2h-5.8c-0.3,0-0.6,0.1-0.8,0.4c-0.2,0.2-0.3,0.5-0.2,0.8L125.7,100.3z M105.9,72.6L94.6,88.2
			c-0.2,0.3-0.3,0.7-0.1,1s0.5,0.5,0.9,0.5h9.3c0.9,0,1.7,0.6,1.9,1.5l1.7,7.2c0.1,0.5,0.5,0.8,1,0.8h15.1l-3.5-17.9
			c-0.1-0.6,0-1.2,0.4-1.7c0.4-0.5,0.9-0.7,1.5-0.7h5.8c0.5,0,1-0.4,1-1v-5.4c0-0.3-0.1-0.5-0.3-0.7c-0.2-0.2-0.5-0.3-0.7-0.3
			l-21.9,0.5C106.4,72.2,106.1,72.4,105.9,72.6L105.9,72.6z"/>
	</g>
	<g>
		<path d="M129.5,63.2l-2.2,6.4c0,0.1-0.1,0.1-0.2,0.1l-19.4,0.5c-0.1,0-0.2,0-0.2-0.1l-2.6-6.2c-0.1-0.2,0.1-0.4,0.3-0.2l4.4,2.9
			c0.1,0,0.2,0,0.2,0l6.3-4.5c0.6-0.5,1.5-0.5,2.1-0.1l6.5,4.2c0.1,0,0.2,0,0.2,0l4.2-3.2C129.4,62.9,129.6,63,129.5,63.2z"/>
	</g>
	<g>
		<circle cx="117.2" cy="59.6" r="0.9"/>
	</g>
	<g>
		<path d="M108.8,100.3h-11c-0.8,0-1.6-0.4-2.1-1c-0.5-0.6-0.7-1.5-0.5-2.3l1.7-7.3h9.5L108.8,100.3z M97.7,90.8l-1.5,6.5
			c-0.1,0.5,0,1,0.3,1.4c0.3,0.4,0.8,0.6,1.3,0.6h9.8l-2-8.6H97.7z"/>
	</g>
	<g>
		<polygon points="106.6,140.1 87.5,140.1 87.5,139.1 106.2,139.1 136.2,108.3 147.4,116 146.8,116.9 136.3,109.6 		"/>
	</g>
	<g>
		<polygon points="136.1,99.9 125.1,99.9 121.1,79.5 124.1,79.5 123.5,79.7 128.5,99.6 129.8,99.6 124.7,79.5 127.2,79.5 
			126.6,79.7 132.4,99.6 133.7,99.6 127.8,79.5 130.1,79.5 		"/>
	</g>
	<g>
		<path class="st0" d="M136,99.8h6c0.9,0,1.3,1,0.7,1.7l-36.8,37.7H87.5l41-39.4H136z"/>
	</g>
	<g>
		<path d="M125.5,101.1L96,129.4c-0.1-1.1-0.2-2.5-0.3-3.7c-0.3-4.5-0.5-6.2-0.6-6.9c0.4-1.5,3.9-9.9,7.2-17.7H125.5 M128.6,99.8
			h-27c0,0-7.9,18.3-7.7,19c0.2,0.7,0.9,13.2,1.1,13.2c0,0,0,0,0,0C95.2,131.8,128.6,99.8,128.6,99.8L128.6,99.8z"/>
	</g>
	<g>
		<path class="st0" d="M92.9,120.9l0.8,9.2l-4.3,4.5l-0.1-11.6L92.9,120.9 M93.9,118.8l-5.8,3.6l0.1,15.4l6.8-7.2L93.9,118.8
			L93.9,118.8z"/>
	</g>
	<g>
		<path d="M88,146.4h-9.5v-45c0-5.8,2.2-11.2,6.3-15.3l3.3-3.3V146.4z M79.5,145.4H87V85.2l-1.5,1.6c-3.9,3.9-6,9.1-6,14.6V145.4z"
			/>
	</g>
	<g>
		<rect x="76.9" y="145.9" width="12.7" height="1.3"/>
	</g>
	<g>
		<rect x="82.8" y="101" width="1" height="43.3"/>
	</g>
	<g>
		<path d="M96.4,96.6c-0.2,0-0.5-0.2-0.5-0.4c0-0.3,0.1-0.5,0.4-0.6l4.6-0.7c0.3,0,0.5,0.1,0.6,0.4c0,0.3-0.1,0.5-0.4,0.6L96.4,96.6
			C96.5,96.6,96.4,96.6,96.4,96.6z"/>
	</g>
	<g>
		<g>
			<polygon points="127.8,79.5 127.2,79.5 127.8,79.4 			"/>
		</g>
	</g>
	<g>
		<g>
			<polygon points="124.7,79.5 124.1,79.5 124.7,79.4 			"/>
		</g>
	</g>
	<g>
		<path d="M95.5,124l-0.9-0.5c14-24.1,14.5-24.1,14.9-24.1v0.5l0.3,0.4C109,101,100.8,114.9,95.5,124z"/>
	</g>
	<g>
		<rect x="89.1" y="113.7" transform="matrix(0.6429 -0.766 0.766 0.6429 -49.3149 122.5524)" width="35.4" height="1"/>
	</g>
	<g>
		<path class="st0" d="M143.1,102.9v8.5l-5-3.5L143.1,102.9 M143.5,101.1c-0.2,0-0.4,0.1-0.6,0.3l-6.7,6.8l8.1,5.6v-11.9
			C144.3,101.4,143.9,101.1,143.5,101.1L143.5,101.1z"/>
	</g>
	<g>
		<rect x="85.6" y="134.3" transform="matrix(0.6818 -0.7316 0.7316 0.6818 -69.4847 109.923)" width="11.9" height="1"/>
	</g>
	<g>
		<rect x="88.1" y="141.5" width="15.8" height="1"/>
	</g>
	<g>
		<rect x="88.1" y="144" width="9.7" height="1"/>
	</g>
	<g>
		<polygon points="147.1,161.5 127.6,161.5 106.1,140 106.8,139.3 128,160.5 147.1,160.5 		"/>
	</g>
	<g>
		<path d="M95.4,242.3c-0.5,0-1-0.2-1.4-0.6c-0.4-0.4-0.6-0.9-0.6-1.4v-5.4c0-1.1,0.9-2,2-2h5.8c0.3,0,0.6-0.1,0.8-0.4
			c0.2-0.2,0.3-0.5,0.2-0.8l-3.8-19.1h16.3c0.9,0,1.7,0.6,1.9,1.5l1.7,7.2c0.1,0.5,0.5,0.8,1,0.8h9.3c0.8,0,1.4,0.4,1.8,1.1
			c0.3,0.7,0.3,1.5-0.2,2.1L119,240.9c-0.4,0.5-0.9,0.8-1.6,0.8L95.4,242.3C95.5,242.3,95.5,242.3,95.4,242.3z M95.4,233.9
			c-0.5,0-1,0.4-1,1v5.4c0,0.3,0.1,0.5,0.3,0.7c0.2,0.2,0.5,0.3,0.7,0.3l21.9-0.5c0.3,0,0.6-0.2,0.8-0.4l0,0l11.3-15.6
			c0.2-0.3,0.3-0.7,0.1-1c-0.2-0.3-0.5-0.5-0.9-0.5h-9.3c-0.9,0-1.7-0.6-1.9-1.5l-1.7-7.2c-0.1-0.5-0.5-0.8-1-0.8H99.6l3.5,17.9
			c0.1,0.6,0,1.2-0.4,1.7c-0.4,0.5-0.9,0.7-1.5,0.7H95.4z"/>
	</g>
	<g>
		<path d="M94.5,249.7l2.2-6.4c0-0.1,0.1-0.1,0.2-0.1l19.4-0.5c0.1,0,0.2,0,0.2,0.1l2.6,6.2c0.1,0.2-0.1,0.4-0.3,0.2l-4.4-2.9
			c-0.1,0-0.2,0-0.2,0l-6.3,4.5c-0.6,0.5-1.5,0.5-2.1,0.1l-6.5-4.2c-0.1,0-0.2,0-0.2,0l-4.2,3.2C94.7,250,94.5,249.9,94.5,249.7z"/>
	</g>
	<g>
		<circle cx="106.9" cy="253.3" r="0.9"/>
	</g>
	<g>
		<path d="M127.2,223.1h-9.5l-2.5-10.6h11c0.8,0,1.6,0.4,2.1,1c0.5,0.6,0.7,1.5,0.5,2.3L127.2,223.1z M118.5,222.1h7.9l1.5-6.5
			c0.1-0.5,0-1-0.3-1.4c-0.3-0.4-0.8-0.6-1.3-0.6h-9.8L118.5,222.1z"/>
	</g>
	<g>
		<polygon points="87.9,204.7 76.7,196.9 77.3,196.1 87.8,203.4 117.5,172.8 136.6,172.8 136.6,173.8 117.9,173.8 		"/>
	</g>
	<g>
		<polygon points="88,213.1 99,213.1 103,233.4 100,233.4 100.6,233.3 95.6,213.3 94.3,213.3 99.4,233.4 96.9,233.4 97.5,233.2 
			91.7,213.3 90.4,213.3 96.3,233.4 94,233.4 		"/>
	</g>
	<g>
		<path class="st0" d="M88,213.1h-6c-0.9,0-1.3-1-0.7-1.7l36.8-37.7h18.4l-41,39.4H88z"/>
	</g>
	<g>
		<path d="M128.1,183.6c0.1,1.1,0.2,2.5,0.3,3.7c0.3,4.5,0.5,6.2,0.6,6.9c-0.4,1.5-3.9,9.9-7.2,17.7H98.6L128.1,183.6 M129.1,180.9
			C129.1,180.9,129.1,180.9,129.1,180.9c-0.2,0.2-33.5,32.2-33.5,32.2h27c0,0,7.9-18.3,7.7-19C129.9,193.5,129.2,180.9,129.1,180.9
			L129.1,180.9z"/>
	</g>
	<g>
		<path class="st0" d="M134.7,178.3l0.1,11.6l-3.5,2.2l-0.8-9.2L134.7,178.3 M135.9,175.2l-6.8,7.2l1,11.8l5.8-3.6L135.9,175.2
			L135.9,175.2z"/>
	</g>
	<g>
		<path d="M136.1,230.2v-63.7h9.5v45c0,5.8-2.2,11.2-6.3,15.3L136.1,230.2z M137.1,167.5v60.2l1.5-1.6c3.9-3.9,6-9.1,6-14.6v-44
			H137.1z"/>
	</g>
	<g>
		<rect x="134.5" y="165.6" width="12.7" height="1.3"/>
	</g>
	<g>
		<rect x="140.3" y="168.6" width="1" height="43.3"/>
	</g>
	<g>
		<path d="M123.1,218.1c-0.2,0-0.5-0.2-0.5-0.4c0-0.3,0.1-0.5,0.4-0.6l4.6-0.7c0.3,0,0.5,0.1,0.6,0.4c0,0.3-0.1,0.5-0.4,0.6
			L123.1,218.1C123.2,218.1,123.1,218.1,123.1,218.1z"/>
	</g>
	<g>
		<g>
			<polygon points="96.3,233.4 96.9,233.4 96.3,233.6 			"/>
		</g>
	</g>
	<g>
		<g>
			<polygon points="99.4,233.4 100,233.4 99.4,233.6 			"/>
		</g>
	</g>
	<g>
		<path d="M114.6,213.6v-0.5l-0.3-0.4c0.8-0.8,9-14.6,14.3-23.7l0.9,0.5C115.4,213.6,115,213.6,114.6,213.6z"/>
	</g>
	<g>
		<rect x="99.6" y="198.3" transform="matrix(0.6429 -0.766 0.766 0.6429 -110.3538 160.8531)" width="35.4" height="1"/>
	</g>
	<g>
		<path class="st0" d="M81,201.5l5,3.5l-5,5.1V201.5 M79.8,199.1V211c0,0.5,0.4,0.8,0.8,0.8c0.2,0,0.4-0.1,0.6-0.3l6.7-6.8
			L79.8,199.1L79.8,199.1z"/>
	</g>
	<g>
		<rect x="126.5" y="177.6" transform="matrix(0.6813 -0.732 0.732 0.6813 -88.1502 153.7508)" width="11.9" height="1"/>
	</g>
	<g>
		<rect x="120.2" y="170.4" width="15.8" height="1"/>
	</g>
	<g>
		<rect x="126.3" y="168" width="9.7" height="1"/>
	</g>
	<g>
		<polygon points="117.3,173.6 96.1,152.4 77,152.4 77,151.4 96.5,151.4 118,172.9 		"/>
	</g>
	<g>
		<g class="st1">
			<rect x="-0.2" y="0.7" width="224.4" height="312.1"/>
		</g>
		<g class="st1">
			<rect x="-0.2" y="0.7" width="224.4" height="312.1"/>
		</g>
		<g class="st2">
			<path d="M173.4,283.5H50.6c-4.2,0-7.5-3.4-7.5-7.5V37.6c0-4.2,3.4-7.5,7.5-7.5h122.9c4.2,0,7.5,3.4,7.5,7.5V276
				C181,280.1,177.6,283.5,173.4,283.5z"/>
		</g>
		<g>
			<path class="st3" d="M15.2,86.2v9.9h-2.3V74.4h2.3v9.8h2.8l9.2-9.8h2.9L19.7,85.1l11,11.1h-3l-9.8-9.9H15.2z"/>
		</g>
		<g>
			<path class="st3" d="M207,229v-9.9h2.3v21.8H207v-9.8h-2.8l-9.2,9.8h-2.9l10.3-10.7l-11-11.1h3l9.8,9.9H207z"/>
		</g>
		<g>
			<g>
				<path class="st0" d="M24.5,54.4c0,0.2,0,0.4,0,0.7c0.2,2.3,1.4,4.3,3.2,5.6c0.6,0.4,0.9,1,0.9,1.7v0H15.5v0
					c0-0.7,0.4-1.3,0.9-1.7c1.7-1.3,2.9-3.2,3.2-5.5c0-0.3,0-0.5,0-0.8c0-3-1.7-5.5-4.1-6.8v-2.7h8.3c-0.2,0.5-0.3,1-0.4,1.5
					c0,0.3-0.1,0.5-0.1,0.8c0.2-0.8,0.6-1.6,1.1-2.3h4.2v2.7C26.1,48.8,24.5,51.4,24.5,54.4z"/>
			</g>
			<g>
				<path class="st4" d="M28.6,62.6H15.2v-0.3c0-0.8,0.4-1.5,1-1.9c1.7-1.3,2.8-3.2,3-5.3c0-0.2,0-0.5,0-0.8c0-2.8-1.5-5.3-4-6.6
					l-0.1-0.1v-3.1h9l0,0.1l0.1-0.1h4.6v3.1l-0.1,0.1c-2.4,1.3-4,3.8-4,6.6c0,0.2,0,0.4,0,0.6c0.2,2.2,1.3,4.1,3.1,5.4
					c0.6,0.5,1,1.2,1,1.9v0.3L28.6,62.6z M15.8,62.1h12.5c-0.1-0.5-0.3-0.9-0.8-1.2c-1.9-1.4-3.1-3.5-3.3-5.8c0-0.2,0-0.5,0-0.7
					c0-2.9,1.6-5.6,4.1-7v-2.3h-3.8c-0.4,0.6-0.8,1.3-1,2.1l-0.7,2.3l0.2-2.4c0-0.3,0.1-0.6,0.1-0.8c0.1-0.4,0.2-0.8,0.3-1.2h-7.6
					v2.3c2.5,1.4,4.1,4.1,4.1,7c0,0.3,0,0.6,0,0.8c-0.2,2.3-1.4,4.3-3.3,5.7C16.1,61.1,15.9,61.6,15.8,62.1z"/>
			</g>
			<g>
				<path class="st0" d="M37.5,49.5c0,1.1-0.2,2.1-0.6,3c0,0,0,0,0,0c-0.6,1.5-1.7,2.8-3.1,3.6c-0.1,0.1-0.2,0.1-0.3,0.2
					c-0.5,0.3-1.1,0.5-1.7,0.7c0,0,0,0,0,0c-0.4,0.1-0.7,0.2-1.1,0.2c-0.3,0-0.5,0-0.8,0c-0.3,0-0.5,0-0.8,0h0
					c-0.2,0-0.5-0.1-0.7-0.1c-0.7-0.1-1.4-0.4-2.1-0.7c-0.2-0.1-0.4-0.2-0.6-0.4c-0.1-0.1-0.2-0.1-0.3-0.2c-0.3-0.2-0.6-0.4-0.8-0.7
					c-0.1-0.1-0.1-0.1-0.2-0.2c-0.2-0.2-0.3-0.3-0.4-0.5c-0.1-0.1-0.2-0.2-0.2-0.3c-0.2-0.2-0.3-0.4-0.4-0.6
					c-0.1-0.1-0.1-0.2-0.2-0.3c-0.1-0.2-0.2-0.5-0.3-0.7c-0.1-0.1-0.1-0.2-0.1-0.3c-0.1-0.1-0.1-0.2-0.1-0.4c0-0.1-0.1-0.2-0.1-0.2
					c0-0.1,0-0.1,0-0.2c-0.1-0.4-0.2-0.7-0.2-1.1c0-0.2,0-0.4,0-0.6c0,0.5-0.1,1-0.2,1.5c-0.2,0.8-0.5,1.5-0.9,2.2
					c-0.2,0.3-0.4,0.6-0.6,0.9c-0.1,0.1-0.1,0.1-0.2,0.2c-0.2,0.2-0.4,0.4-0.6,0.6c0,0-0.1,0.1-0.1,0.1c-0.1,0.1-0.2,0.1-0.2,0.2
					c-0.1,0-0.1,0.1-0.2,0.1c-0.2,0.2-0.4,0.3-0.7,0.5c0,0-0.1,0.1-0.1,0.1c-0.2,0.1-0.3,0.2-0.5,0.3c-0.2,0.1-0.4,0.2-0.6,0.3
					c-0.1,0-0.2,0.1-0.3,0.1c-0.1,0-0.2,0.1-0.3,0.1c-0.1,0-0.3,0.1-0.4,0.1c-0.1,0-0.2,0-0.3,0.1c-0.5,0.1-1,0.1-1.5,0.1
					c-0.3,0-0.5,0-0.8,0c-0.4,0-0.8-0.1-1.1-0.2c-0.6-0.2-1.2-0.4-1.8-0.7c-0.1-0.1-0.2-0.1-0.3-0.2c-1.4-0.8-2.5-2.1-3.1-3.6
					c0,0,0,0,0,0c-0.4-0.9-0.6-1.9-0.6-3c0-0.2,0-0.5,0-0.7c0,0,0,0,0-0.1c0-0.4,0.1-0.8,0.2-1.1c0.1-0.5,0.3-1,0.5-1.4
					c0.1-0.1,0.1-0.2,0.2-0.3c0.1-0.2,0.3-0.4,0.4-0.6c0.2-0.3,0.5-0.6,0.7-0.9c0.6-0.7,1.4-1.3,2.3-1.7c0.3-0.1,0.5-0.2,0.8-0.3
					c0.1,0,0.2-0.1,0.3-0.1c0.1,0,0.3-0.1,0.4-0.1c0,0,0,0,0,0c0.5-0.1,1-0.3,1.5-0.5c0.2-0.1,0.4-0.2,0.6-0.3c1-0.4,1.9-1,2.8-1.7
					c1-0.8,1.9-1.8,2.7-2.9c0.9-1.3,1.6-2.8,1.9-4.3c0-0.1,0-0.2,0-0.3c0-0.1,0-0.3,0.1-0.4c0,0,0,0,0,0c0,0,0,0,0,0
					c0.1,0.2,0.2,0.5,0.2,0.8c0.4,1.6,1,3.1,2,4.4c0,0,0,0,0,0.1c1,1.5,2.4,2.8,4,3.7c-2,0.7-3.7,2.3-4.6,4.3
					c-0.2,0.5-0.3,1-0.4,1.5c-0.1,0.3-0.1,0.5-0.1,0.8c0.2-0.8,0.6-1.6,1.1-2.3c1.3-1.8,3.4-3,5.6-3.1c0.7,0,1.3,0.1,2,0.3
					c0,0,0,0,0,0c0.3,0.1,0.6,0.2,0.8,0.3c2.3,1,4,3,4.6,5.4c0,0.1,0.1,0.3,0.1,0.4c0,0.2,0.1,0.4,0.1,0.5c0,0.1,0,0.2,0,0.4
					C37.5,49.2,37.5,49.4,37.5,49.5z"/>
			</g>
			<g>
				<path class="st4" d="M29.8,57.5c-0.3,0-0.5,0-0.8,0c-0.3,0-0.5-0.1-0.8-0.1c-0.7-0.1-1.5-0.4-2.1-0.8c-0.2-0.1-0.4-0.2-0.6-0.4
					c-0.1-0.1-0.2-0.1-0.3-0.2c-0.3-0.2-0.6-0.4-0.9-0.7L24,55.1c-0.2-0.2-0.3-0.3-0.5-0.5c-0.1-0.1-0.1-0.1-0.2-0.2l-0.1-0.1
					c-0.2-0.2-0.3-0.4-0.4-0.6c-0.1-0.1-0.1-0.2-0.2-0.3c-0.1-0.3-0.3-0.5-0.4-0.8c0-0.1-0.1-0.2-0.1-0.3c-0.1-0.2-0.1-0.3-0.2-0.4
					c0,0,0-0.1-0.1-0.2c0,0,0-0.1,0-0.1c-0.2,0.7-0.5,1.4-0.8,2c-0.2,0.3-0.4,0.6-0.6,0.9c0,0-0.1,0.1-0.1,0.1l-0.1,0.1
					c-0.2,0.2-0.4,0.4-0.6,0.6c-0.1,0.1-0.1,0.1-0.1,0.1c0,0-0.1,0.1-0.2,0.1l-0.3,0.2c-0.3,0.2-0.5,0.4-0.7,0.5
					c0,0-0.1,0.1-0.1,0.1c-0.2,0.1-0.4,0.2-0.5,0.3c-0.2,0.1-0.4,0.2-0.7,0.3C17.1,57,17,57,16.9,57.1l-0.3,0.1
					c-0.1,0-0.3,0.1-0.4,0.1l-0.3,0.1c-0.8,0.2-1.6,0.2-2.3,0.1c-0.4,0-0.8-0.1-1.2-0.2c-0.6-0.2-1.3-0.4-1.8-0.7l-0.1-0.1
					c-0.1,0-0.1-0.1-0.2-0.1c-1.4-0.8-2.5-2.1-3.2-3.7l0-0.1c-0.4-1-0.6-2-0.6-3.1c0-0.3,0-0.5,0-0.7c0-0.5,0.1-0.9,0.2-1.2
					c0.1-0.5,0.3-1,0.5-1.5c0.1-0.1,0.1-0.2,0.2-0.3c0.1-0.2,0.3-0.4,0.4-0.7c0.2-0.3,0.4-0.6,0.7-1c0.7-0.7,1.5-1.3,2.3-1.8
					c0.2-0.1,0.5-0.2,0.8-0.3c0.1,0,0.2-0.1,0.4-0.1c0.1,0,0.2-0.1,0.3-0.1l0.4-0.1c0.4-0.1,0.8-0.2,1.2-0.4
					c0.2-0.1,0.4-0.2,0.6-0.3c1-0.4,1.9-1,2.7-1.7c1-0.8,1.9-1.8,2.6-2.9c1-1.5,1.6-2.9,1.8-4.2c0-0.1,0-0.2,0-0.3
					c0-0.2,0-0.5,0.2-0.6l0.1-0.1l0.4,0v0.2c0.1,0.2,0.1,0.4,0.2,0.6c0,0.1,0,0.1,0,0.2c0.4,1.7,1.1,3.1,1.9,4.3l-0.2,0.2l0.2-0.2
					c1,1.5,2.4,2.7,3.9,3.7l0.5,0.3l-0.6,0.2c-1.9,0.7-3.4,2.1-4.3,3.9c1.4-1.9,3.6-3.1,5.8-3.2c0.7,0,1.3,0.1,2,0.3H32l0,0
					c0.3,0.1,0.5,0.2,0.8,0.3c2.4,1,4.1,3.1,4.7,5.6c0,0.1,0.1,0.3,0.1,0.4c0,0.2,0.1,0.4,0.1,0.5c0,0.1,0,0.2,0,0.4
					c0,0.1,0,0.3,0,0.4c0,1.1-0.2,2.1-0.6,3.1l0,0.1c-0.6,1.5-1.8,2.8-3.2,3.7c-0.1,0-0.1,0.1-0.2,0.1l-0.1,0.1
					c-0.6,0.3-1.2,0.6-1.8,0.7l-0.1,0l0,0c-0.3,0.1-0.7,0.1-1,0.2C30.3,57.5,30,57.5,29.8,57.5z M21.8,49.6l0.5,0c0,0.2,0,0.4,0,0.6
					c0,0.4,0.1,0.7,0.2,1.1c0,0.1,0,0.1,0,0.1l0,0.1c0,0.1,0,0.1,0.1,0.2c0,0.1,0.1,0.2,0.1,0.3l0,0.1c0,0.1,0.1,0.2,0.1,0.3
					c0.1,0.3,0.2,0.5,0.3,0.7c0,0.1,0.1,0.2,0.2,0.3c0.1,0.2,0.3,0.4,0.4,0.6l0.1,0.1c0,0.1,0.1,0.1,0.1,0.2
					c0.1,0.2,0.3,0.3,0.4,0.5l0.2,0.2c0.2,0.2,0.5,0.4,0.8,0.7c0.1,0.1,0.2,0.1,0.3,0.2c0.2,0.1,0.4,0.2,0.6,0.3
					c0.6,0.3,1.3,0.6,2,0.7c0.2,0,0.5,0.1,0.7,0.1c0.5,0.1,1,0.1,1.5,0c0.4,0,0.7-0.1,1.1-0.2l0.2-0.1l0,0c0.5-0.1,1-0.4,1.5-0.6
					l0.1-0.1c0.1,0,0.1-0.1,0.2-0.1c1.3-0.8,2.4-2,3-3.5l0-0.1c0.4-0.9,0.6-1.9,0.6-2.8c0-0.1,0-0.2,0-0.3c0-0.1,0-0.3,0-0.4
					c0-0.2,0-0.3-0.1-0.5c0-0.1,0-0.3-0.1-0.4c-0.5-2.3-2.2-4.3-4.4-5.2c-0.3-0.1-0.5-0.2-0.8-0.3l0,0c-0.6-0.2-1.2-0.3-1.9-0.2
					c-2,0.1-4.1,1.2-5.4,3c-0.5,0.7-0.8,1.4-1.1,2.2l-0.7,2.2l0.1-2.3c0-0.2,0-0.5,0.1-0.8c0.1-0.5,0.3-1.1,0.4-1.5
					c0.8-1.9,2.3-3.5,4.2-4.3c-1.4-0.9-2.7-2.1-3.6-3.5l0.2-0.2L24,36.9c-0.8-1.2-1.5-2.6-1.9-4.2c-0.3,1.3-0.9,2.7-1.8,4.1
					c-0.8,1.1-1.7,2.1-2.7,3c-0.9,0.7-1.8,1.3-2.8,1.8c-0.2,0.1-0.4,0.2-0.6,0.3c-0.4,0.2-0.8,0.3-1.2,0.4l-0.4,0.1
					c-0.1,0-0.2,0.1-0.3,0.1c-0.1,0-0.2,0.1-0.3,0.1c-0.3,0.1-0.5,0.2-0.8,0.3c-0.8,0.4-1.6,1-2.2,1.6c-0.3,0.3-0.5,0.6-0.7,0.9
					C8,45.5,7.9,45.7,7.8,46c-0.1,0.1-0.1,0.2-0.2,0.3c-0.2,0.4-0.4,0.9-0.5,1.4C7,48,7,48.4,6.9,48.7l0,0.1c0,0.2,0,0.4,0,0.6
					c0,1,0.2,1.9,0.6,2.8l0,0.1c0.6,1.4,1.7,2.7,3,3.5c0.1,0,0.1,0.1,0.2,0.1l0.1,0.1c0.5,0.3,1.1,0.5,1.7,0.7
					c0.4,0.1,0.7,0.2,1.1,0.2c0.7,0.1,1.4,0,2.2-0.1l0.3-0.1c0.1,0,0.3-0.1,0.4-0.1l0.3-0.1c0.1,0,0.2-0.1,0.3-0.1
					c0.2-0.1,0.4-0.2,0.6-0.3c0.2-0.1,0.3-0.2,0.5-0.3c0.1,0,0.1-0.1,0.1-0.1c0.2-0.1,0.4-0.3,0.7-0.5l0.3-0.2c0,0,0.1-0.1,0.1-0.1
					c0.1-0.1,0.1-0.1,0.1-0.1c0.2-0.2,0.4-0.4,0.5-0.6l0.1-0.1c0,0,0.1-0.1,0.1-0.1c0.2-0.3,0.4-0.6,0.6-0.9
					c0.4-0.7,0.7-1.4,0.8-2.1C21.7,50.7,21.8,50.2,21.8,49.6z"/>
			</g>
		</g>
		<g>
			<g>
				<path class="st0" d="M199.2,260.6c0-0.2,0-0.4,0-0.7c-0.2-2.3-1.4-4.3-3.2-5.6c-0.6-0.4-0.9-1-0.9-1.7v0h13.1v0
					c0,0.7-0.4,1.3-0.9,1.7c-1.7,1.3-2.9,3.2-3.2,5.5c0,0.3,0,0.5,0,0.8c0,3,1.7,5.5,4.1,6.8v2.7h-8.3c0.2-0.5,0.3-1,0.4-1.5
					c0-0.3,0.1-0.5,0.1-0.8c-0.2,0.8-0.6,1.6-1.1,2.3h-4.2v-2.7C197.5,266.2,199.2,263.6,199.2,260.6z"/>
			</g>
			<g>
				<path class="st4" d="M195.1,252.4h13.3v0.3c0,0.8-0.4,1.5-1,1.9c-1.7,1.3-2.8,3.2-3,5.3c0,0.2,0,0.5,0,0.8c0,2.8,1.5,5.3,4,6.6
					l0.1,0.1v3.1h-9l0-0.1l-0.1,0.1h-4.6v-3.1l0.1-0.1c2.4-1.3,4-3.8,4-6.6c0-0.2,0-0.4,0-0.6c-0.2-2.2-1.3-4.1-3.1-5.4
					c-0.6-0.5-1-1.2-1-1.9v-0.3L195.1,252.4z M207.8,252.9h-12.5c0.1,0.5,0.3,0.9,0.8,1.2c1.9,1.4,3.1,3.5,3.3,5.8
					c0,0.2,0,0.5,0,0.7c0,2.9-1.6,5.6-4.1,7v2.3h3.8c0.4-0.6,0.8-1.3,1-2.1l0.7-2.3l-0.2,2.4c0,0.3-0.1,0.6-0.1,0.8
					c-0.1,0.4-0.2,0.8-0.3,1.2h7.6v-2.3c-2.5-1.4-4.1-4.1-4.1-7c0-0.3,0-0.6,0-0.8c0.2-2.3,1.4-4.3,3.3-5.7
					C207.5,253.9,207.8,253.4,207.8,252.9z"/>
			</g>
			<g>
				<path class="st0" d="M186.2,265.5c0-1.1,0.2-2.1,0.6-3c0,0,0,0,0,0c0.6-1.5,1.7-2.8,3.1-3.6c0.1-0.1,0.2-0.1,0.3-0.2
					c0.5-0.3,1.1-0.5,1.7-0.7c0,0,0,0,0,0c0.4-0.1,0.7-0.2,1.1-0.2c0.3,0,0.5,0,0.8,0c0.3,0,0.5,0,0.8,0h0c0.2,0,0.5,0.1,0.7,0.1
					c0.7,0.1,1.4,0.4,2.1,0.7c0.2,0.1,0.4,0.2,0.6,0.4c0.1,0.1,0.2,0.1,0.3,0.2c0.3,0.2,0.6,0.4,0.8,0.7c0.1,0.1,0.1,0.1,0.2,0.2
					c0.2,0.2,0.3,0.3,0.4,0.5c0.1,0.1,0.2,0.2,0.2,0.3c0.2,0.2,0.3,0.4,0.4,0.6c0.1,0.1,0.1,0.2,0.2,0.3c0.1,0.2,0.2,0.5,0.3,0.7
					c0.1,0.1,0.1,0.2,0.1,0.3c0.1,0.1,0.1,0.2,0.1,0.4c0,0.1,0.1,0.2,0.1,0.2c0,0.1,0,0.1,0,0.2c0.1,0.4,0.2,0.7,0.2,1.1
					c0,0.2,0,0.4,0,0.6c0-0.5,0.1-1,0.2-1.5c0.2-0.8,0.5-1.5,0.9-2.2c0.2-0.3,0.4-0.6,0.6-0.9c0.1-0.1,0.1-0.1,0.2-0.2
					c0.2-0.2,0.4-0.4,0.6-0.6c0,0,0.1-0.1,0.1-0.1c0.1-0.1,0.2-0.1,0.2-0.2c0.1,0,0.1-0.1,0.2-0.1c0.2-0.2,0.4-0.3,0.7-0.5
					c0,0,0.1-0.1,0.1-0.1c0.2-0.1,0.3-0.2,0.5-0.3c0.2-0.1,0.4-0.2,0.6-0.3c0.1,0,0.2-0.1,0.3-0.1c0.1,0,0.2-0.1,0.3-0.1
					c0.1,0,0.3-0.1,0.4-0.1c0.1,0,0.2,0,0.3-0.1c0.5-0.1,1-0.1,1.5-0.1c0.3,0,0.5,0,0.8,0c0.4,0,0.8,0.1,1.1,0.2
					c0.6,0.2,1.2,0.4,1.8,0.7c0.1,0.1,0.2,0.1,0.3,0.2c1.4,0.8,2.5,2.1,3.1,3.6c0,0,0,0,0,0c0.4,0.9,0.6,1.9,0.6,3
					c0,0.2,0,0.5,0,0.7c0,0,0,0,0,0.1c0,0.4-0.1,0.8-0.2,1.1c-0.1,0.5-0.3,1-0.5,1.4c-0.1,0.1-0.1,0.2-0.2,0.3
					c-0.1,0.2-0.3,0.4-0.4,0.6c-0.2,0.3-0.5,0.6-0.7,0.9c-0.6,0.7-1.4,1.3-2.3,1.7c-0.3,0.1-0.5,0.2-0.8,0.3c-0.1,0-0.2,0.1-0.3,0.1
					c-0.1,0-0.3,0.1-0.4,0.1c0,0,0,0,0,0c-0.5,0.1-1,0.3-1.5,0.5c-0.2,0.1-0.4,0.2-0.6,0.3c-1,0.4-1.9,1-2.8,1.7
					c-1,0.8-1.9,1.8-2.7,2.9c-0.9,1.3-1.6,2.8-1.9,4.3c0,0.1,0,0.2,0,0.3c0,0.1,0,0.3-0.1,0.4c0,0,0,0,0,0c0,0,0,0,0,0
					c-0.1-0.2-0.2-0.5-0.2-0.8c-0.4-1.6-1-3.1-2-4.4c0,0,0,0,0-0.1c-1-1.5-2.4-2.8-4-3.7c2-0.7,3.7-2.3,4.6-4.3
					c0.2-0.5,0.3-1,0.4-1.5c0.1-0.3,0.1-0.5,0.1-0.8c-0.2,0.8-0.6,1.6-1.1,2.3c-1.3,1.8-3.4,3-5.6,3.1c-0.7,0-1.3-0.1-2-0.3
					c0,0,0,0,0,0c-0.3-0.1-0.6-0.2-0.8-0.3c-2.3-1-4-3-4.6-5.4c0-0.1-0.1-0.3-0.1-0.4c0-0.2-0.1-0.4-0.1-0.5c0-0.1,0-0.2,0-0.4
					C186.2,265.8,186.2,265.6,186.2,265.5z"/>
			</g>
			<g>
				<path class="st4" d="M193.9,257.5c0.3,0,0.5,0,0.8,0c0.3,0,0.5,0.1,0.8,0.1c0.7,0.1,1.5,0.4,2.1,0.8c0.2,0.1,0.4,0.2,0.6,0.4
					c0.1,0.1,0.2,0.1,0.3,0.2c0.3,0.2,0.6,0.4,0.9,0.7l0.2,0.2c0.2,0.2,0.3,0.3,0.5,0.5c0.1,0.1,0.1,0.1,0.2,0.2l0.1,0.1
					c0.2,0.2,0.3,0.4,0.4,0.6c0.1,0.1,0.1,0.2,0.2,0.3c0.1,0.3,0.3,0.5,0.4,0.8c0,0.1,0.1,0.2,0.1,0.3c0.1,0.2,0.1,0.3,0.2,0.4
					c0,0,0,0.1,0.1,0.2c0,0,0,0.1,0,0.1c0.2-0.7,0.5-1.4,0.8-2c0.2-0.3,0.4-0.6,0.6-0.9c0,0,0.1-0.1,0.1-0.1l0.1-0.1
					c0.2-0.2,0.4-0.4,0.6-0.6c0.1-0.1,0.1-0.1,0.1-0.1c0,0,0.1-0.1,0.2-0.1l0.3-0.2c0.3-0.2,0.5-0.4,0.7-0.5c0,0,0.1-0.1,0.1-0.1
					c0.2-0.1,0.4-0.2,0.5-0.3c0.2-0.1,0.4-0.2,0.7-0.3c0.1-0.1,0.2-0.1,0.4-0.1l0.3-0.1c0.1,0,0.3-0.1,0.4-0.1l0.3-0.1
					c0.8-0.2,1.6-0.2,2.3-0.1c0.4,0,0.8,0.1,1.2,0.2c0.6,0.2,1.3,0.4,1.8,0.7l0.1,0.1c0.1,0,0.1,0.1,0.2,0.1
					c1.4,0.8,2.5,2.1,3.2,3.7l0,0.1c0.4,1,0.6,2,0.6,3.1c0,0.3,0,0.5,0,0.7c0,0.5-0.1,0.9-0.2,1.2c-0.1,0.5-0.3,1-0.5,1.5
					c-0.1,0.1-0.1,0.2-0.2,0.3c-0.1,0.2-0.3,0.4-0.4,0.7c-0.2,0.3-0.4,0.6-0.7,1c-0.7,0.7-1.5,1.3-2.3,1.8c-0.2,0.1-0.5,0.2-0.8,0.3
					c-0.1,0-0.2,0.1-0.4,0.1c-0.1,0-0.2,0.1-0.3,0.1l-0.4,0.1c-0.4,0.1-0.8,0.2-1.2,0.4c-0.2,0.1-0.4,0.2-0.6,0.3
					c-1,0.4-1.9,1-2.7,1.7c-1,0.8-1.9,1.8-2.6,2.9c-1,1.5-1.6,2.9-1.8,4.2c0,0.1,0,0.2,0,0.3c0,0.2,0,0.5-0.2,0.6l-0.1,0.1l-0.4,0
					v-0.2c-0.1-0.2-0.1-0.4-0.2-0.6c0-0.1,0-0.1,0-0.2c-0.4-1.7-1.1-3.1-1.9-4.3l0.2-0.2l-0.2,0.2c-1-1.5-2.4-2.7-3.9-3.7l-0.5-0.3
					l0.6-0.2c1.9-0.7,3.4-2.1,4.3-3.9c-1.4,1.9-3.6,3.1-5.8,3.2c-0.7,0-1.3-0.1-2-0.3h-0.1l0,0c-0.3-0.1-0.5-0.2-0.8-0.3
					c-2.4-1-4.1-3.1-4.7-5.6c0-0.1-0.1-0.3-0.1-0.4c0-0.2-0.1-0.4-0.1-0.5c0-0.1,0-0.2,0-0.4c0-0.1,0-0.3,0-0.4
					c0-1.1,0.2-2.1,0.6-3.1l0-0.1c0.6-1.5,1.8-2.8,3.2-3.7c0.1,0,0.1-0.1,0.2-0.1l0.1-0.1c0.6-0.3,1.2-0.6,1.8-0.7l0.1,0l0,0
					c0.3-0.1,0.7-0.1,1-0.2C193.3,257.5,193.6,257.5,193.9,257.5z M201.9,265.4l-0.5,0c0-0.2,0-0.4,0-0.6c0-0.4-0.1-0.7-0.2-1.1
					c0-0.1,0-0.1,0-0.1l0-0.1c0-0.1,0-0.1-0.1-0.2c0-0.1-0.1-0.2-0.1-0.3l0-0.1c0-0.1-0.1-0.2-0.1-0.3c-0.1-0.3-0.2-0.5-0.3-0.7
					c0-0.1-0.1-0.2-0.2-0.3c-0.1-0.2-0.3-0.4-0.4-0.6l-0.1-0.1c0-0.1-0.1-0.1-0.1-0.2c-0.1-0.2-0.3-0.3-0.4-0.5l-0.2-0.2
					c-0.2-0.2-0.5-0.4-0.8-0.7c-0.1-0.1-0.2-0.1-0.3-0.2c-0.2-0.1-0.4-0.2-0.6-0.3c-0.6-0.3-1.3-0.6-2-0.7c-0.2,0-0.5-0.1-0.7-0.1
					c-0.5-0.1-1-0.1-1.5,0c-0.4,0-0.7,0.1-1.1,0.2l-0.2,0.1l0,0c-0.5,0.1-1,0.4-1.5,0.6l-0.1,0.1c-0.1,0-0.1,0.1-0.2,0.1
					c-1.3,0.8-2.4,2-3,3.5l0,0.1c-0.4,0.9-0.6,1.9-0.6,2.8c0,0.1,0,0.2,0,0.3c0,0.1,0,0.3,0,0.4c0,0.2,0,0.3,0.1,0.5
					c0,0.1,0,0.3,0.1,0.4c0.5,2.3,2.2,4.3,4.4,5.2c0.3,0.1,0.5,0.2,0.8,0.3l0,0c0.6,0.2,1.2,0.3,1.9,0.2c2-0.1,4.1-1.2,5.4-3
					c0.5-0.7,0.8-1.4,1.1-2.2l0.7-2.2l-0.1,2.3c0,0.2,0,0.5-0.1,0.8c-0.1,0.5-0.3,1.1-0.4,1.5c-0.8,1.9-2.3,3.5-4.2,4.3
					c1.4,0.9,2.7,2.1,3.6,3.5l-0.2,0.2l0.2-0.2c0.8,1.2,1.5,2.6,1.9,4.2c0.3-1.3,0.9-2.7,1.8-4.1c0.8-1.1,1.7-2.1,2.7-3
					c0.9-0.7,1.8-1.3,2.8-1.8c0.2-0.1,0.4-0.2,0.6-0.3c0.4-0.2,0.8-0.3,1.2-0.4l0.4-0.1c0.1,0,0.2-0.1,0.3-0.1
					c0.1,0,0.2-0.1,0.3-0.1c0.3-0.1,0.5-0.2,0.8-0.3c0.8-0.4,1.6-1,2.2-1.6c0.3-0.3,0.5-0.6,0.7-0.9c0.1-0.2,0.3-0.4,0.4-0.6
					c0.1-0.1,0.1-0.2,0.2-0.3c0.2-0.4,0.4-0.9,0.5-1.4c0.1-0.3,0.2-0.7,0.2-1.1l0-0.1c0-0.2,0-0.4,0-0.6c0-1-0.2-1.9-0.6-2.8l0-0.1
					c-0.6-1.4-1.7-2.7-3-3.5c-0.1,0-0.1-0.1-0.2-0.1l-0.1-0.1c-0.5-0.3-1.1-0.5-1.7-0.7c-0.4-0.1-0.7-0.2-1.1-0.2
					c-0.7-0.1-1.4,0-2.2,0.1l-0.3,0.1c-0.1,0-0.3,0.1-0.4,0.1l-0.3,0.1c-0.1,0-0.2,0.1-0.3,0.1c-0.2,0.1-0.4,0.2-0.6,0.3
					c-0.2,0.1-0.3,0.2-0.5,0.3c-0.1,0-0.1,0.1-0.1,0.1c-0.2,0.1-0.4,0.3-0.7,0.5l-0.3,0.2c0,0-0.1,0.1-0.1,0.1
					c-0.1,0.1-0.1,0.1-0.1,0.1c-0.2,0.2-0.4,0.4-0.5,0.6l-0.1,0.1c0,0-0.1,0.1-0.1,0.1c-0.2,0.3-0.4,0.6-0.6,0.9
					c-0.4,0.7-0.7,1.4-0.8,2.1C201.9,264.3,201.9,264.8,201.9,265.4z"/>
			</g>
		</g>
	</g>
	<g>
		<g>
			<path class="st0" d="M87.1,168.4c0-0.2,0-0.5,0-0.7c-0.2-2.5-1.5-4.6-3.4-6c-0.6-0.4-1-1.1-1-1.8v0h14v0c0,0.7-0.4,1.4-1,1.8
				c-1.9,1.3-3.1,3.4-3.4,5.8c0,0.3,0,0.6,0,0.8c0,3.2,1.8,5.9,4.4,7.3v2.9h-8.8c0.2-0.5,0.4-1,0.5-1.6c0.1-0.3,0.1-0.6,0.1-0.8
				c-0.3,0.9-0.7,1.7-1.2,2.4h-4.5v-2.9C85.3,174.3,87.1,171.6,87.1,168.4z"/>
		</g>
		<g>
			<path class="st4" d="M82.7,159.6h14.2v0.3c0,0.8-0.4,1.6-1.1,2.1c-1.8,1.3-3,3.4-3.3,5.6c0,0.3,0,0.5,0,0.8c0,3,1.6,5.6,4.2,7
				l0.2,0.1v3.3h-9.6l0-0.1l-0.1,0.1h-4.9v-3.3l0.2-0.1c2.6-1.4,4.2-4.1,4.2-7c0-0.2,0-0.5,0-0.7c-0.2-2.3-1.4-4.4-3.3-5.8
				c-0.7-0.5-1.1-1.3-1.1-2.1v-0.3L82.7,159.6z M96.3,160.2H83c0.1,0.5,0.4,1,0.8,1.3c2,1.5,3.3,3.7,3.5,6.2c0,0.2,0,0.5,0,0.7
				c0,3.1-1.7,5.9-4.4,7.4v2.4h4.1c0.5-0.7,0.8-1.4,1.1-2.2l0.7-2.5l-0.2,2.6c0,0.3-0.1,0.6-0.1,0.9c-0.1,0.4-0.2,0.8-0.3,1.2h8.1
				v-2.4c-2.7-1.5-4.4-4.3-4.4-7.4c0-0.3,0-0.6,0-0.9c0.2-2.4,1.5-4.6,3.5-6C96,161.2,96.3,160.7,96.3,160.2z"/>
		</g>
		<g>
			<path class="st0" d="M73.2,173.6c0-1.1,0.2-2.2,0.6-3.2c0,0,0,0,0,0c0.7-1.6,1.8-2.9,3.3-3.8c0.1-0.1,0.2-0.1,0.4-0.2
				c0.6-0.3,1.2-0.6,1.9-0.7c0,0,0,0,0,0c0.4-0.1,0.8-0.2,1.2-0.2c0.3,0,0.6,0,0.8,0c0.3,0,0.5,0,0.8,0h0c0.3,0,0.5,0.1,0.8,0.1
				c0.8,0.1,1.5,0.4,2.2,0.8c0.2,0.1,0.4,0.2,0.7,0.4c0.1,0.1,0.2,0.1,0.3,0.2c0.3,0.2,0.6,0.5,0.9,0.7c0.1,0.1,0.1,0.1,0.2,0.2
				c0.2,0.2,0.3,0.3,0.5,0.5c0.1,0.1,0.2,0.2,0.2,0.3c0.2,0.2,0.3,0.4,0.4,0.7c0.1,0.1,0.1,0.2,0.2,0.3c0.1,0.3,0.3,0.5,0.4,0.8
				c0.1,0.1,0.1,0.2,0.1,0.4c0.1,0.1,0.1,0.3,0.1,0.4c0,0.1,0.1,0.2,0.1,0.3c0,0.1,0,0.1,0,0.2c0.1,0.4,0.2,0.8,0.2,1.2
				c0,0.2,0,0.5,0,0.7c0-0.6,0.1-1.1,0.2-1.7c0.2-0.8,0.5-1.6,0.9-2.3c0.2-0.3,0.4-0.7,0.7-1c0.1-0.1,0.1-0.1,0.2-0.2
				c0.2-0.2,0.4-0.4,0.6-0.6c0,0,0.1-0.1,0.1-0.1c0.1-0.1,0.2-0.1,0.2-0.2c0.1-0.1,0.1-0.1,0.2-0.2c0.2-0.2,0.5-0.4,0.7-0.5
				c0,0,0.1-0.1,0.1-0.1c0.2-0.1,0.4-0.2,0.6-0.3c0.2-0.1,0.5-0.2,0.7-0.3c0.1,0,0.2-0.1,0.4-0.1c0.1,0,0.2-0.1,0.4-0.1
				c0.1,0,0.3-0.1,0.4-0.1c0.1,0,0.2,0,0.3-0.1c0.5-0.1,1-0.2,1.6-0.2c0.3,0,0.6,0,0.8,0c0.4,0,0.8,0.1,1.2,0.2
				c0.7,0.2,1.3,0.4,1.9,0.7c0.1,0.1,0.2,0.1,0.3,0.2c1.5,0.9,2.6,2.2,3.3,3.8c0,0,0,0,0,0c0.4,1,0.6,2.1,0.6,3.2c0,0.3,0,0.5,0,0.8
				c0,0,0,0,0,0.1c0,0.4-0.1,0.8-0.2,1.2c-0.1,0.5-0.3,1-0.6,1.5c-0.1,0.1-0.1,0.2-0.2,0.4c-0.1,0.2-0.3,0.5-0.4,0.7
				c-0.2,0.3-0.5,0.7-0.8,1c-0.7,0.7-1.5,1.4-2.4,1.8c-0.3,0.1-0.5,0.2-0.8,0.3c-0.1,0-0.2,0.1-0.4,0.1c-0.1,0-0.3,0.1-0.4,0.1
				c0,0,0,0,0,0c-0.5,0.2-1.1,0.3-1.6,0.5c-0.2,0.1-0.5,0.2-0.7,0.3c-1.1,0.5-2.1,1.1-3,1.8c-1.1,0.9-2.1,1.9-2.9,3.1
				c-0.9,1.4-1.7,3-2,4.6c0,0.1,0,0.2,0,0.3c0,0.1,0,0.4-0.1,0.4c0,0,0,0,0,0c0,0,0,0,0,0c-0.1-0.2-0.2-0.5-0.2-0.8
				c-0.4-1.7-1.1-3.3-2.1-4.7c0,0,0,0,0-0.1c-1.1-1.6-2.6-3-4.3-4c2.2-0.7,4-2.4,4.9-4.6c0.2-0.5,0.4-1,0.5-1.6
				c0.1-0.3,0.1-0.6,0.1-0.8c-0.3,0.9-0.7,1.7-1.2,2.4c-1.4,1.9-3.6,3.3-6,3.3c-0.7,0-1.4-0.1-2.1-0.3c0,0,0,0,0,0
				c-0.3-0.1-0.6-0.2-0.9-0.3c-2.4-1-4.3-3.2-4.9-5.8c0-0.1-0.1-0.3-0.1-0.4c0-0.2-0.1-0.4-0.1-0.6c0-0.1,0-0.3,0-0.4
				C73.2,173.9,73.2,173.8,73.2,173.6z"/>
		</g>
		<g>
			<path class="st4" d="M81.4,165.1c0.3,0,0.6,0,0.9,0c0.3,0,0.6,0.1,0.8,0.1c0.8,0.1,1.6,0.4,2.3,0.8c0.2,0.1,0.5,0.3,0.7,0.4
				c0.1,0.1,0.2,0.1,0.3,0.2c0.3,0.2,0.6,0.5,0.9,0.7l0.2,0.2c0.2,0.2,0.3,0.4,0.5,0.5c0.1,0.1,0.1,0.1,0.2,0.2l0.1,0.1
				c0.2,0.2,0.3,0.5,0.5,0.7c0.1,0.1,0.1,0.2,0.2,0.3c0.2,0.3,0.3,0.6,0.4,0.8c0,0.1,0.1,0.2,0.1,0.3c0.1,0.2,0.1,0.3,0.2,0.5
				c0,0,0,0.1,0.1,0.2c0,0,0,0.1,0,0.1c0.2-0.7,0.5-1.4,0.9-2.1c0.2-0.3,0.4-0.6,0.7-1c0,0,0.1-0.1,0.1-0.1l0.1-0.1
				c0.2-0.2,0.4-0.4,0.6-0.7c0.1-0.1,0.1-0.1,0.1-0.1c0.1,0,0.1-0.1,0.2-0.1l0.3-0.2c0.3-0.2,0.5-0.4,0.8-0.5c0,0,0.1-0.1,0.1-0.1
				c0.2-0.1,0.4-0.2,0.6-0.3c0.2-0.1,0.5-0.2,0.7-0.3c0.1-0.1,0.3-0.1,0.4-0.1l0.4-0.1c0.2,0,0.3-0.1,0.5-0.1l0.3-0.1
				c0.9-0.2,1.7-0.2,2.5-0.1c0.4,0,0.8,0.1,1.3,0.2c0.7,0.2,1.3,0.4,1.9,0.8l0.2,0.1c0.1,0,0.1,0.1,0.2,0.1c1.5,0.9,2.7,2.3,3.4,3.9
				l0,0.1c0.4,1,0.7,2.2,0.7,3.3c0,0.3,0,0.5,0,0.8c0,0.5-0.1,0.9-0.2,1.3c-0.1,0.5-0.3,1.1-0.6,1.6c-0.1,0.1-0.1,0.2-0.2,0.4
				c-0.1,0.2-0.3,0.5-0.4,0.7c-0.2,0.3-0.5,0.7-0.8,1c-0.7,0.8-1.6,1.4-2.5,1.9c-0.3,0.1-0.5,0.2-0.9,0.3c-0.1,0-0.3,0.1-0.4,0.1
				c-0.1,0-0.2,0.1-0.3,0.1l-0.4,0.1c-0.4,0.1-0.9,0.2-1.3,0.4c-0.2,0.1-0.4,0.2-0.7,0.3c-1,0.5-2,1.1-2.9,1.8
				c-1.1,0.9-2,1.9-2.8,3.1c-1,1.6-1.7,3.1-1.9,4.5c0,0.1,0,0.2,0,0.3c0,0.2,0,0.5-0.2,0.6l-0.1,0.1l-0.4,0v-0.2
				c-0.1-0.2-0.1-0.4-0.2-0.6c0-0.1,0-0.2-0.1-0.2c-0.5-1.8-1.2-3.3-2.1-4.6l0.2-0.2l-0.2,0.2c-1.1-1.6-2.5-2.9-4.2-3.9l-0.5-0.3
				l0.6-0.2c2-0.7,3.7-2.2,4.6-4.1c-1.5,2.1-3.8,3.3-6.1,3.4c-0.7,0-1.4-0.1-2.2-0.3h-0.1l0,0c-0.3-0.1-0.6-0.2-0.9-0.3
				c-2.5-1.1-4.4-3.3-5-6c0-0.2-0.1-0.3-0.1-0.5c0-0.2-0.1-0.4-0.1-0.6c0-0.1,0-0.3,0-0.4c0-0.1,0-0.3,0-0.4c0-1.1,0.2-2.3,0.7-3.3
				l0-0.1c0.7-1.6,1.9-3,3.4-3.9c0.1,0,0.2-0.1,0.2-0.1l0.1-0.1c0.6-0.3,1.3-0.6,1.9-0.8l0.2,0l0,0c0.4-0.1,0.7-0.1,1.1-0.2
				C80.9,165.1,81.1,165.1,81.4,165.1z M90,173.5l-0.6,0c0-0.2,0-0.4,0-0.6c0-0.4-0.1-0.8-0.2-1.1c0-0.1,0-0.1,0-0.1l0-0.1
				c0-0.1,0-0.1-0.1-0.2c0-0.1-0.1-0.3-0.1-0.4l0-0.1c0-0.1-0.1-0.2-0.1-0.3c-0.1-0.3-0.2-0.5-0.4-0.8c-0.1-0.1-0.1-0.2-0.2-0.3
				c-0.1-0.2-0.3-0.4-0.4-0.6l-0.1-0.1c-0.1-0.1-0.1-0.1-0.2-0.2c-0.1-0.2-0.3-0.3-0.4-0.5l-0.2-0.2c-0.3-0.2-0.5-0.5-0.9-0.7
				c-0.1-0.1-0.2-0.1-0.3-0.2c-0.2-0.1-0.4-0.3-0.6-0.4c-0.7-0.4-1.4-0.6-2.1-0.8c-0.2,0-0.5-0.1-0.7-0.1c-0.6-0.1-1.1-0.1-1.6,0
				c-0.4,0-0.8,0.1-1.1,0.2l-0.2,0.1l0,0c-0.6,0.2-1.1,0.4-1.6,0.7l-0.1,0.1c-0.1,0-0.2,0.1-0.2,0.1c-1.4,0.8-2.5,2.2-3.2,3.7l0,0.1
				c-0.4,1-0.6,2-0.6,3c0,0.1,0,0.2,0,0.4c0,0.1,0,0.3,0,0.4c0,0.2,0,0.4,0.1,0.6c0,0.1,0.1,0.3,0.1,0.4c0.6,2.4,2.4,4.6,4.7,5.6
				c0.3,0.1,0.6,0.2,0.9,0.3l0,0c0.7,0.2,1.3,0.3,2,0.3c2.1-0.1,4.3-1.3,5.7-3.2c0.5-0.7,0.9-1.5,1.1-2.3l0.7-2.4l-0.1,2.5
				c0,0.3-0.1,0.5-0.1,0.9c-0.1,0.6-0.3,1.1-0.5,1.6c-0.9,2.1-2.5,3.7-4.5,4.6c1.5,1,2.9,2.3,3.9,3.8l-0.2,0.2l0.2-0.2
				c0.9,1.3,1.6,2.8,2.1,4.5c0.3-1.4,1-2.9,2-4.4c0.8-1.2,1.8-2.3,2.9-3.2c0.9-0.8,1.9-1.4,3-1.9c0.2-0.1,0.5-0.2,0.7-0.3
				c0.4-0.2,0.9-0.3,1.3-0.4l0.4-0.1c0.1,0,0.2-0.1,0.3-0.1c0.1,0,0.3-0.1,0.4-0.1c0.3-0.1,0.6-0.2,0.8-0.3c0.9-0.4,1.7-1,2.3-1.7
				c0.3-0.3,0.5-0.6,0.7-0.9c0.1-0.2,0.3-0.4,0.4-0.7c0.1-0.1,0.1-0.2,0.2-0.3c0.2-0.5,0.4-1,0.5-1.5c0.1-0.4,0.2-0.8,0.2-1.2l0-0.1
				c0-0.2,0-0.4,0-0.7c0-1.1-0.2-2.1-0.6-3l0-0.1c-0.6-1.5-1.8-2.8-3.2-3.7c-0.1,0-0.1-0.1-0.2-0.1l-0.2-0.1
				c-0.5-0.3-1.2-0.5-1.8-0.7c-0.4-0.1-0.8-0.2-1.2-0.2c-0.8-0.1-1.5,0-2.3,0.1l-0.3,0.1c-0.1,0-0.3,0.1-0.4,0.1l-0.3,0.1
				c-0.1,0-0.2,0.1-0.3,0.1c-0.2,0.1-0.5,0.2-0.7,0.3c-0.2,0.1-0.3,0.2-0.5,0.3c-0.1,0-0.1,0.1-0.1,0.1c-0.2,0.2-0.5,0.3-0.7,0.5
				l-0.3,0.2c0,0-0.1,0.1-0.1,0.1c-0.1,0.1-0.1,0.1-0.1,0.1c-0.2,0.2-0.4,0.4-0.6,0.6l-0.1,0.1c0,0-0.1,0.1-0.1,0.1
				c-0.3,0.3-0.5,0.6-0.6,0.9c-0.4,0.7-0.7,1.5-0.9,2.3C90,172.4,90,172.9,90,173.5z"/>
		</g>
	</g>
	<g>
		<g>
			<path class="st0" d="M138.6,144.1c0,0.2,0,0.5,0,0.7c0.2,2.5,1.5,4.6,3.4,6c0.6,0.4,1,1.1,1,1.8v0h-14v0c0-0.7,0.4-1.4,1-1.8
				c1.9-1.3,3.1-3.4,3.4-5.8c0-0.3,0-0.6,0-0.8c0-3.2-1.8-5.9-4.4-7.3v-2.9h8.8c-0.2,0.5-0.4,1-0.5,1.6c-0.1,0.3-0.1,0.6-0.1,0.8
				c0.3-0.9,0.7-1.7,1.2-2.4h4.5v2.9C140.4,138.2,138.6,140.9,138.6,144.1z"/>
		</g>
		<g>
			<path class="st4" d="M143,152.9h-14.2v-0.3c0-0.8,0.4-1.6,1.1-2.1c1.8-1.3,3-3.4,3.3-5.6c0-0.3,0-0.5,0-0.8c0-3-1.6-5.6-4.2-7
				l-0.2-0.1v-3.3h9.6l0,0.1l0.1-0.1h4.9v3.3l-0.2,0.1c-2.6,1.4-4.2,4.1-4.2,7c0,0.2,0,0.5,0,0.7c0.2,2.3,1.4,4.4,3.3,5.8
				c0.7,0.5,1.1,1.3,1.1,2.1v0.3L143,152.9z M129.3,152.3h13.3c-0.1-0.5-0.4-1-0.8-1.3c-2-1.5-3.3-3.7-3.5-6.2c0-0.2,0-0.5,0-0.7
				c0-3.1,1.7-5.9,4.4-7.4v-2.4h-4.1c-0.5,0.7-0.8,1.4-1.1,2.2l-0.7,2.5l0.2-2.6c0-0.3,0.1-0.6,0.1-0.9c0.1-0.4,0.2-0.8,0.3-1.2
				h-8.1v2.4c2.7,1.5,4.4,4.3,4.4,7.4c0,0.3,0,0.6,0,0.9c-0.2,2.4-1.5,4.6-3.5,6C129.7,151.3,129.4,151.8,129.3,152.3z"/>
		</g>
		<g>
			<path class="st0" d="M152.5,138.9c0,1.1-0.2,2.2-0.6,3.2c0,0,0,0,0,0c-0.7,1.6-1.8,2.9-3.3,3.8c-0.1,0.1-0.2,0.1-0.4,0.2
				c-0.6,0.3-1.2,0.6-1.9,0.7c0,0,0,0,0,0c-0.4,0.1-0.8,0.2-1.2,0.2c-0.3,0-0.6,0-0.8,0c-0.3,0-0.5,0-0.8,0h0
				c-0.3,0-0.5-0.1-0.8-0.1c-0.8-0.1-1.5-0.4-2.2-0.8c-0.2-0.1-0.4-0.2-0.7-0.4c-0.1-0.1-0.2-0.1-0.3-0.2c-0.3-0.2-0.6-0.5-0.9-0.7
				c-0.1-0.1-0.1-0.1-0.2-0.2c-0.2-0.2-0.3-0.3-0.5-0.5c-0.1-0.1-0.2-0.2-0.2-0.3c-0.2-0.2-0.3-0.4-0.4-0.7
				c-0.1-0.1-0.1-0.2-0.2-0.3c-0.1-0.3-0.3-0.5-0.4-0.8c-0.1-0.1-0.1-0.2-0.1-0.4c-0.1-0.1-0.1-0.3-0.1-0.4c0-0.1-0.1-0.2-0.1-0.3
				c0-0.1,0-0.1,0-0.2c-0.1-0.4-0.2-0.8-0.2-1.2c0-0.2,0-0.5,0-0.7c0,0.6-0.1,1.1-0.2,1.7c-0.2,0.8-0.5,1.6-0.9,2.3
				c-0.2,0.3-0.4,0.7-0.7,1c-0.1,0.1-0.1,0.1-0.2,0.2c-0.2,0.2-0.4,0.4-0.6,0.6c0,0-0.1,0.1-0.1,0.1c-0.1,0.1-0.2,0.1-0.2,0.2
				c-0.1,0.1-0.1,0.1-0.2,0.2c-0.2,0.2-0.5,0.4-0.7,0.5c0,0-0.1,0.1-0.1,0.1c-0.2,0.1-0.4,0.2-0.6,0.3c-0.2,0.1-0.5,0.2-0.7,0.3
				c-0.1,0-0.2,0.1-0.4,0.1c-0.1,0-0.2,0.1-0.4,0.1c-0.1,0-0.3,0.1-0.4,0.1c-0.1,0-0.2,0-0.3,0.1c-0.5,0.1-1,0.2-1.6,0.2
				c-0.3,0-0.6,0-0.8,0c-0.4,0-0.8-0.1-1.2-0.2c-0.7-0.2-1.3-0.4-1.9-0.7c-0.1-0.1-0.2-0.1-0.3-0.2c-1.5-0.9-2.6-2.2-3.3-3.8
				c0,0,0,0,0,0c-0.4-1-0.6-2.1-0.6-3.2c0-0.3,0-0.5,0-0.8c0,0,0,0,0-0.1c0-0.4,0.1-0.8,0.2-1.2c0.1-0.5,0.3-1,0.6-1.5
				c0.1-0.1,0.1-0.2,0.2-0.4c0.1-0.2,0.3-0.5,0.4-0.7c0.2-0.3,0.5-0.7,0.8-1c0.7-0.7,1.5-1.4,2.4-1.8c0.3-0.1,0.5-0.2,0.8-0.3
				c0.1,0,0.2-0.1,0.4-0.1c0.1,0,0.3-0.1,0.4-0.1c0,0,0,0,0,0c0.5-0.2,1.1-0.3,1.6-0.5c0.2-0.1,0.5-0.2,0.7-0.3
				c1.1-0.5,2.1-1.1,3-1.8c1.1-0.9,2.1-1.9,2.9-3.1c0.9-1.4,1.7-3,2-4.6c0-0.1,0-0.2,0-0.3c0-0.1,0-0.4,0.1-0.4c0,0,0,0,0,0
				c0,0,0,0,0,0c0.1,0.2,0.2,0.5,0.2,0.8c0.4,1.7,1.1,3.3,2.1,4.7c0,0,0,0,0,0.1c1.1,1.6,2.6,3,4.3,4c-2.2,0.7-4,2.4-4.9,4.6
				c-0.2,0.5-0.4,1-0.5,1.6c-0.1,0.3-0.1,0.6-0.1,0.8c0.3-0.9,0.7-1.7,1.2-2.4c1.4-1.9,3.6-3.3,6-3.3c0.7,0,1.4,0.1,2.1,0.3
				c0,0,0,0,0,0c0.3,0.1,0.6,0.2,0.9,0.3c2.4,1,4.3,3.2,4.9,5.8c0,0.1,0.1,0.3,0.1,0.4c0,0.2,0.1,0.4,0.1,0.6c0,0.1,0,0.3,0,0.4
				C152.5,138.6,152.5,138.8,152.5,138.9z"/>
		</g>
		<g>
			<path class="st4" d="M144.2,147.4c-0.3,0-0.6,0-0.9,0c-0.3,0-0.6-0.1-0.8-0.1c-0.8-0.1-1.6-0.4-2.3-0.8c-0.2-0.1-0.5-0.3-0.7-0.4
				c-0.1-0.1-0.2-0.1-0.3-0.2c-0.3-0.2-0.6-0.5-0.9-0.7l-0.2-0.2c-0.2-0.2-0.3-0.4-0.5-0.5c-0.1-0.1-0.1-0.1-0.2-0.2l-0.1-0.1
				c-0.2-0.2-0.3-0.5-0.5-0.7c-0.1-0.1-0.1-0.2-0.2-0.3c-0.2-0.3-0.3-0.6-0.4-0.8c0-0.1-0.1-0.2-0.1-0.3c-0.1-0.2-0.1-0.3-0.2-0.5
				c0,0,0-0.1-0.1-0.2c0,0,0-0.1,0-0.1c-0.2,0.7-0.5,1.4-0.9,2.1c-0.2,0.3-0.4,0.6-0.7,1c0,0-0.1,0.1-0.1,0.1l-0.1,0.1
				c-0.2,0.2-0.4,0.4-0.6,0.7c-0.1,0.1-0.1,0.1-0.1,0.1c-0.1,0-0.1,0.1-0.2,0.1l-0.3,0.2c-0.3,0.2-0.5,0.4-0.8,0.5
				c0,0-0.1,0.1-0.1,0.1c-0.2,0.1-0.4,0.2-0.6,0.3c-0.2,0.1-0.5,0.2-0.7,0.3c-0.1,0.1-0.3,0.1-0.4,0.1l-0.4,0.1
				c-0.2,0-0.3,0.1-0.5,0.1l-0.3,0.1c-0.9,0.2-1.7,0.2-2.5,0.1c-0.4,0-0.8-0.1-1.3-0.2c-0.7-0.2-1.3-0.4-1.9-0.8l-0.2-0.1
				c-0.1,0-0.1-0.1-0.2-0.1c-1.5-0.9-2.7-2.3-3.4-3.9l0-0.1c-0.4-1-0.7-2.2-0.7-3.3c0-0.3,0-0.5,0-0.8c0-0.5,0.1-0.9,0.2-1.3
				c0.1-0.5,0.3-1.1,0.6-1.6c0.1-0.1,0.1-0.2,0.2-0.4c0.1-0.2,0.3-0.5,0.4-0.7c0.2-0.3,0.5-0.7,0.8-1c0.7-0.8,1.6-1.4,2.5-1.9
				c0.3-0.1,0.5-0.2,0.9-0.3c0.1,0,0.3-0.1,0.4-0.1c0.1,0,0.2-0.1,0.3-0.1l0.4-0.1c0.4-0.1,0.9-0.2,1.3-0.4c0.2-0.1,0.4-0.2,0.7-0.3
				c1-0.5,2-1.1,2.9-1.8c1.1-0.9,2-1.9,2.8-3.1c1-1.6,1.7-3.1,1.9-4.5c0-0.1,0-0.2,0-0.3c0-0.2,0-0.5,0.2-0.6l0.1-0.1l0.4,0v0.2
				c0.1,0.2,0.1,0.4,0.2,0.6c0,0.1,0,0.2,0.1,0.2c0.5,1.8,1.2,3.3,2.1,4.6l-0.2,0.2l0.2-0.2c1.1,1.6,2.5,2.9,4.2,3.9l0.5,0.3
				l-0.6,0.2c-2,0.7-3.7,2.2-4.6,4.1c1.5-2.1,3.8-3.3,6.1-3.4c0.7,0,1.4,0.1,2.2,0.3h0.1l0,0c0.3,0.1,0.6,0.2,0.9,0.3
				c2.5,1.1,4.4,3.3,5,6c0,0.2,0.1,0.3,0.1,0.5c0,0.2,0.1,0.4,0.1,0.6c0,0.1,0,0.3,0,0.4c0,0.1,0,0.3,0,0.4c0,1.1-0.2,2.3-0.7,3.3
				l0,0.1c-0.7,1.6-1.9,3-3.4,3.9c-0.1,0-0.2,0.1-0.2,0.1l-0.1,0.1c-0.6,0.3-1.3,0.6-1.9,0.8l-0.2,0l0,0c-0.4,0.1-0.7,0.1-1.1,0.2
				C144.8,147.4,144.5,147.4,144.2,147.4z M135.7,139.1l0.6,0c0,0.2,0,0.4,0,0.6c0,0.4,0.1,0.8,0.2,1.1c0,0.1,0,0.1,0,0.1l0,0.1
				c0,0.1,0,0.1,0.1,0.2c0,0.1,0.1,0.3,0.1,0.4l0,0.1c0,0.1,0.1,0.2,0.1,0.3c0.1,0.3,0.2,0.5,0.4,0.8c0.1,0.1,0.1,0.2,0.2,0.3
				c0.1,0.2,0.3,0.4,0.4,0.6l0.1,0.1c0.1,0.1,0.1,0.1,0.2,0.2c0.1,0.2,0.3,0.3,0.4,0.5l0.2,0.2c0.3,0.2,0.5,0.5,0.9,0.7
				c0.1,0.1,0.2,0.1,0.3,0.2c0.2,0.1,0.4,0.3,0.6,0.4c0.7,0.4,1.4,0.6,2.1,0.8c0.2,0,0.5,0.1,0.7,0.1c0.6,0.1,1.1,0.1,1.6,0
				c0.4,0,0.8-0.1,1.1-0.2l0.2-0.1l0,0c0.6-0.2,1.1-0.4,1.6-0.7l0.1-0.1c0.1,0,0.2-0.1,0.2-0.1c1.4-0.8,2.5-2.2,3.2-3.7l0-0.1
				c0.4-1,0.6-2,0.6-3c0-0.1,0-0.2,0-0.4c0-0.1,0-0.3,0-0.4c0-0.2,0-0.4-0.1-0.6c0-0.1-0.1-0.3-0.1-0.4c-0.6-2.4-2.4-4.6-4.7-5.6
				c-0.3-0.1-0.6-0.2-0.9-0.3l0,0c-0.7-0.2-1.3-0.3-2-0.3c-2.1,0.1-4.3,1.3-5.7,3.2c-0.5,0.7-0.9,1.5-1.1,2.3l-0.7,2.4l0.1-2.5
				c0-0.3,0.1-0.5,0.1-0.9c0.1-0.6,0.3-1.1,0.5-1.6c0.9-2.1,2.5-3.7,4.5-4.6c-1.5-1-2.9-2.3-3.9-3.8l0.2-0.2l-0.2,0.2
				c-0.9-1.3-1.6-2.8-2.1-4.5c-0.3,1.4-1,2.9-2,4.4c-0.8,1.2-1.8,2.3-2.9,3.2c-0.9,0.8-1.9,1.4-3,1.9c-0.2,0.1-0.5,0.2-0.7,0.3
				c-0.4,0.2-0.9,0.3-1.3,0.4l-0.4,0.1c-0.1,0-0.2,0.1-0.3,0.1c-0.1,0-0.3,0.1-0.4,0.1c-0.3,0.1-0.6,0.2-0.8,0.3
				c-0.9,0.4-1.7,1-2.3,1.7c-0.3,0.3-0.5,0.6-0.7,0.9c-0.1,0.2-0.3,0.4-0.4,0.7c-0.1,0.1-0.1,0.2-0.2,0.3c-0.2,0.5-0.4,1-0.5,1.5
				c-0.1,0.4-0.2,0.8-0.2,1.2l0,0.1c0,0.2,0,0.4,0,0.7c0,1.1,0.2,2.1,0.6,3l0,0.1c0.6,1.5,1.8,2.8,3.2,3.7c0.1,0,0.1,0.1,0.2,0.1
				l0.2,0.1c0.5,0.3,1.2,0.5,1.8,0.7c0.4,0.1,0.8,0.2,1.2,0.2c0.8,0.1,1.5,0,2.3-0.1l0.3-0.1c0.1,0,0.3-0.1,0.4-0.1l0.3-0.1
				c0.1,0,0.2-0.1,0.3-0.1c0.2-0.1,0.5-0.2,0.7-0.3c0.2-0.1,0.3-0.2,0.5-0.3c0.1,0,0.1-0.1,0.1-0.1c0.2-0.2,0.5-0.3,0.7-0.5l0.3-0.2
				c0,0,0.1-0.1,0.1-0.1c0.1-0.1,0.1-0.1,0.1-0.1c0.2-0.2,0.4-0.4,0.6-0.6l0.1-0.1c0,0,0.1-0.1,0.1-0.1c0.3-0.3,0.5-0.6,0.6-0.9
				c0.4-0.7,0.7-1.5,0.9-2.3C135.6,140.2,135.7,139.7,135.7,139.1z"/>
		</g>
	</g>
</g>
</svg>
