<?xml version="1.0" encoding="utf-8"?>
<!-- Generator: Adobe Illustrator 25.2.0, SVG Export Plug-In . SVG Version: 6.00 Build 0)  -->
<svg version="1.1" id="Layer_1" xmlns="http://www.w3.org/2000/svg" xmlns:xlink="http://www.w3.org/1999/xlink" x="0px" y="0px"
	 viewBox="0 0 224.2 312.8" style="enable-background:new 0 0 224.2 312.8;" xml:space="preserve">
<style type="text/css">
	.st0{opacity:2.000000e-02;}
	.st1{opacity:5.000000e-02;}
	.st2{stroke:#000000;stroke-miterlimit:10;}
	.st3{fill:#190B38;}
	.st4{fill:#050307;}
</style>
<g>
	<g class="st0">
		<rect x="-0.2" y="0.7" width="224.4" height="312.1"/>
	</g>
	<g class="st0">
		<rect x="-0.2" y="0.7" width="224.4" height="312.1"/>
	</g>
	<g class="st1">
		<path d="M173.4,283.5H50.6c-4.2,0-7.5-3.4-7.5-7.5V37.6c0-4.2,3.4-7.5,7.5-7.5h122.9c4.2,0,7.5,3.4,7.5,7.5V276
			C181,280.1,177.6,283.5,173.4,283.5z"/>
	</g>
	<g>
		<path class="st2" d="M20.1,74.1c1.4,0,2.7,0.3,3.7,0.9c1,0.6,1.8,1.4,2.4,2.4c0.5,1,0.8,2.1,0.8,3.4c0,1.2-0.3,2.3-0.8,3.3
			c-0.5,1-1.3,2-2.1,2.9l-6.7,7.1h10.5v2.1H14.1v-1.7l8.3-8.7c0.7-0.8,1.3-1.6,1.7-2.4c0.4-0.8,0.6-1.7,0.6-2.6
			c0-1.3-0.4-2.4-1.3-3.3c-0.8-0.9-2-1.3-3.4-1.3c-1.2,0-2.2,0.3-3,0.8c-0.8,0.5-1.5,1.2-2.1,2.1l-1.5-1.3
			C15.1,75.3,17.3,74.1,20.1,74.1z"/>
	</g>
	<g>
		<path class="st2" d="M203.1,241.1c-1.4,0-2.7-0.3-3.7-0.9c-1-0.6-1.8-1.4-2.4-2.4s-0.8-2.1-0.8-3.4c0-1.2,0.3-2.3,0.8-3.3
			s1.3-2,2.1-2.9l6.8-7.1h-10.5v-2.1h13.7v1.7l-8.3,8.7c-0.7,0.8-1.3,1.6-1.7,2.4c-0.4,0.8-0.6,1.7-0.6,2.6c0,1.3,0.4,2.4,1.3,3.3
			s2,1.3,3.4,1.3c1.2,0,2.2-0.3,3-0.8c0.8-0.5,1.5-1.2,2.1-2.1l1.5,1.3C208.1,239.9,205.9,241.1,203.1,241.1z"/>
	</g>
	<g>
		<g>
			<path class="st3" d="M24.5,54.4c0,0.2,0,0.4,0,0.7c0.2,2.3,1.4,4.3,3.2,5.6c0.6,0.4,0.9,1,0.9,1.7v0H15.5v0
				c0-0.7,0.4-1.3,0.9-1.7c1.7-1.3,2.9-3.2,3.2-5.5c0-0.3,0-0.5,0-0.8c0-3-1.7-5.5-4.1-6.8v-2.7h8.3c-0.2,0.5-0.3,1-0.4,1.5
				c0,0.3-0.1,0.5-0.1,0.8c0.2-0.8,0.6-1.6,1.1-2.3h4.2v2.7C26.1,48.8,24.5,51.4,24.5,54.4z"/>
		</g>
		<g>
			<path class="st4" d="M28.6,62.6H15.2v-0.3c0-0.8,0.4-1.5,1-1.9c1.7-1.3,2.8-3.2,3-5.3c0-0.2,0-0.5,0-0.8c0-2.8-1.5-5.3-4-6.6
				l-0.1-0.1v-3.1h9l0,0.1l0.1-0.1h4.6v3.1l-0.1,0.1c-2.4,1.3-4,3.8-4,6.6c0,0.2,0,0.4,0,0.6c0.2,2.2,1.3,4.1,3.1,5.4
				c0.6,0.5,1,1.2,1,1.9v0.3L28.6,62.6z M15.8,62.1h12.5c-0.1-0.5-0.3-0.9-0.8-1.2c-1.9-1.4-3.1-3.5-3.3-5.8c0-0.2,0-0.5,0-0.7
				c0-2.9,1.6-5.6,4.1-7v-2.3h-3.8c-0.4,0.6-0.8,1.3-1,2.1l-0.7,2.3l0.2-2.4c0-0.3,0.1-0.6,0.1-0.8c0.1-0.4,0.2-0.8,0.3-1.2h-7.6
				v2.3c2.5,1.4,4.1,4.1,4.1,7c0,0.3,0,0.6,0,0.8c-0.2,2.3-1.4,4.3-3.3,5.7C16.1,61.1,15.9,61.6,15.8,62.1z"/>
		</g>
		<g>
			<path class="st3" d="M37.5,49.5c0,1.1-0.2,2.1-0.6,3c0,0,0,0,0,0c-0.6,1.5-1.7,2.8-3.1,3.6c-0.1,0.1-0.2,0.1-0.3,0.2
				c-0.5,0.3-1.1,0.5-1.7,0.7c0,0,0,0,0,0c-0.4,0.1-0.7,0.2-1.1,0.2c-0.3,0-0.5,0-0.8,0c-0.3,0-0.5,0-0.8,0h0
				c-0.2,0-0.5-0.1-0.7-0.1c-0.7-0.1-1.4-0.4-2.1-0.7c-0.2-0.1-0.4-0.2-0.6-0.4c-0.1-0.1-0.2-0.1-0.3-0.2c-0.3-0.2-0.6-0.4-0.8-0.7
				c-0.1-0.1-0.1-0.1-0.2-0.2c-0.2-0.2-0.3-0.3-0.4-0.5c-0.1-0.1-0.2-0.2-0.2-0.3c-0.2-0.2-0.3-0.4-0.4-0.6
				c-0.1-0.1-0.1-0.2-0.2-0.3c-0.1-0.2-0.2-0.5-0.3-0.7c-0.1-0.1-0.1-0.2-0.1-0.3c-0.1-0.1-0.1-0.2-0.1-0.4c0-0.1-0.1-0.2-0.1-0.2
				c0-0.1,0-0.1,0-0.2c-0.1-0.4-0.2-0.7-0.2-1.1c0-0.2,0-0.4,0-0.6c0,0.5-0.1,1-0.2,1.5c-0.2,0.8-0.5,1.5-0.9,2.2
				c-0.2,0.3-0.4,0.6-0.6,0.9c-0.1,0.1-0.1,0.1-0.2,0.2c-0.2,0.2-0.4,0.4-0.6,0.6c0,0-0.1,0.1-0.1,0.1c-0.1,0.1-0.2,0.1-0.2,0.2
				c-0.1,0-0.1,0.1-0.2,0.1c-0.2,0.2-0.4,0.3-0.7,0.5c0,0-0.1,0.1-0.1,0.1c-0.2,0.1-0.3,0.2-0.5,0.3c-0.2,0.1-0.4,0.2-0.6,0.3
				c-0.1,0-0.2,0.1-0.3,0.1c-0.1,0-0.2,0.1-0.3,0.1c-0.1,0-0.3,0.1-0.4,0.1c-0.1,0-0.2,0-0.3,0.1c-0.5,0.1-1,0.1-1.5,0.1
				c-0.3,0-0.5,0-0.8,0c-0.4,0-0.8-0.1-1.1-0.2c-0.6-0.2-1.2-0.4-1.8-0.7c-0.1-0.1-0.2-0.1-0.3-0.2c-1.4-0.8-2.5-2.1-3.1-3.6
				c0,0,0,0,0,0c-0.4-0.9-0.6-1.9-0.6-3c0-0.2,0-0.5,0-0.7c0,0,0,0,0-0.1c0-0.4,0.1-0.8,0.2-1.1c0.1-0.5,0.3-1,0.5-1.4
				c0.1-0.1,0.1-0.2,0.2-0.3c0.1-0.2,0.3-0.4,0.4-0.6c0.2-0.3,0.5-0.6,0.7-0.9c0.6-0.7,1.4-1.3,2.3-1.7c0.3-0.1,0.5-0.2,0.8-0.3
				c0.1,0,0.2-0.1,0.3-0.1c0.1,0,0.3-0.1,0.4-0.1c0,0,0,0,0,0c0.5-0.1,1-0.3,1.5-0.5c0.2-0.1,0.4-0.2,0.6-0.3c1-0.4,1.9-1,2.8-1.7
				c1-0.8,1.9-1.8,2.7-2.9c0.9-1.3,1.6-2.8,1.9-4.3c0-0.1,0-0.2,0-0.3c0-0.1,0-0.3,0.1-0.4c0,0,0,0,0,0c0,0,0,0,0,0
				c0.1,0.2,0.2,0.5,0.2,0.8c0.4,1.6,1,3.1,2,4.4c0,0,0,0,0,0.1c1,1.5,2.4,2.8,4,3.7c-2,0.7-3.7,2.3-4.6,4.3c-0.2,0.5-0.3,1-0.4,1.5
				c-0.1,0.3-0.1,0.5-0.1,0.8c0.2-0.8,0.6-1.6,1.1-2.3c1.3-1.8,3.4-3,5.6-3.1c0.7,0,1.3,0.1,2,0.3c0,0,0,0,0,0
				c0.3,0.1,0.6,0.2,0.8,0.3c2.3,1,4,3,4.6,5.4c0,0.1,0.1,0.3,0.1,0.4c0,0.2,0.1,0.4,0.1,0.5c0,0.1,0,0.2,0,0.4
				C37.5,49.2,37.5,49.4,37.5,49.5z"/>
		</g>
		<g>
			<path class="st4" d="M29.8,57.5c-0.3,0-0.5,0-0.8,0c-0.3,0-0.5-0.1-0.8-0.1c-0.7-0.1-1.5-0.4-2.1-0.8c-0.2-0.1-0.4-0.2-0.6-0.4
				c-0.1-0.1-0.2-0.1-0.3-0.2c-0.3-0.2-0.6-0.4-0.9-0.7L24,55.1c-0.2-0.2-0.3-0.3-0.5-0.5c-0.1-0.1-0.1-0.1-0.2-0.2l-0.1-0.1
				c-0.2-0.2-0.3-0.4-0.4-0.6c-0.1-0.1-0.1-0.2-0.2-0.3c-0.1-0.3-0.3-0.5-0.4-0.8c0-0.1-0.1-0.2-0.1-0.3c-0.1-0.2-0.1-0.3-0.2-0.4
				c0,0,0-0.1-0.1-0.2c0,0,0-0.1,0-0.1c-0.2,0.7-0.5,1.4-0.8,2c-0.2,0.3-0.4,0.6-0.6,0.9c0,0-0.1,0.1-0.1,0.1l-0.1,0.1
				c-0.2,0.2-0.4,0.4-0.6,0.6c-0.1,0.1-0.1,0.1-0.1,0.1c0,0-0.1,0.1-0.2,0.1l-0.3,0.2c-0.3,0.2-0.5,0.4-0.7,0.5c0,0-0.1,0.1-0.1,0.1
				c-0.2,0.1-0.4,0.2-0.5,0.3c-0.2,0.1-0.4,0.2-0.7,0.3C17.1,57,17,57,16.9,57.1l-0.3,0.1c-0.1,0-0.3,0.1-0.4,0.1l-0.3,0.1
				c-0.8,0.2-1.6,0.2-2.3,0.1c-0.4,0-0.8-0.1-1.2-0.2c-0.6-0.2-1.3-0.4-1.8-0.7l-0.1-0.1c-0.1,0-0.1-0.1-0.2-0.1
				c-1.4-0.8-2.5-2.1-3.2-3.7l0-0.1c-0.4-1-0.6-2-0.6-3.1c0-0.3,0-0.5,0-0.7c0-0.5,0.1-0.9,0.2-1.2c0.1-0.5,0.3-1,0.5-1.5
				c0.1-0.1,0.1-0.2,0.2-0.3c0.1-0.2,0.3-0.4,0.4-0.7c0.2-0.3,0.4-0.6,0.7-1c0.7-0.7,1.5-1.3,2.3-1.8c0.2-0.1,0.5-0.2,0.8-0.3
				c0.1,0,0.2-0.1,0.4-0.1c0.1,0,0.2-0.1,0.3-0.1l0.4-0.1c0.4-0.1,0.8-0.2,1.2-0.4c0.2-0.1,0.4-0.2,0.6-0.3c1-0.4,1.9-1,2.7-1.7
				c1-0.8,1.9-1.8,2.6-2.9c1-1.5,1.6-2.9,1.8-4.2c0-0.1,0-0.2,0-0.3c0-0.2,0-0.5,0.2-0.6l0.1-0.1l0.4,0v0.2c0.1,0.2,0.1,0.4,0.2,0.6
				c0,0.1,0,0.1,0,0.2c0.4,1.7,1.1,3.1,1.9,4.3l-0.2,0.2l0.2-0.2c1,1.5,2.4,2.7,3.9,3.7l0.5,0.3l-0.6,0.2c-1.9,0.7-3.4,2.1-4.3,3.9
				c1.4-1.9,3.6-3.1,5.8-3.2c0.7,0,1.3,0.1,2,0.3H32l0,0c0.3,0.1,0.5,0.2,0.8,0.3c2.4,1,4.1,3.1,4.7,5.6c0,0.1,0.1,0.3,0.1,0.4
				c0,0.2,0.1,0.4,0.1,0.5c0,0.1,0,0.2,0,0.4c0,0.1,0,0.3,0,0.4c0,1.1-0.2,2.1-0.6,3.1l0,0.1c-0.6,1.5-1.8,2.8-3.2,3.7
				c-0.1,0-0.1,0.1-0.2,0.1l-0.1,0.1c-0.6,0.3-1.2,0.6-1.8,0.7l-0.1,0l0,0c-0.3,0.1-0.7,0.1-1,0.2C30.3,57.5,30,57.5,29.8,57.5z
				 M21.8,49.6l0.5,0c0,0.2,0,0.4,0,0.6c0,0.4,0.1,0.7,0.2,1.1c0,0.1,0,0.1,0,0.1l0,0.1c0,0.1,0,0.1,0.1,0.2c0,0.1,0.1,0.2,0.1,0.3
				l0,0.1c0,0.1,0.1,0.2,0.1,0.3c0.1,0.3,0.2,0.5,0.3,0.7c0,0.1,0.1,0.2,0.2,0.3c0.1,0.2,0.3,0.4,0.4,0.6l0.1,0.1
				c0,0.1,0.1,0.1,0.1,0.2c0.1,0.2,0.3,0.3,0.4,0.5l0.2,0.2c0.2,0.2,0.5,0.4,0.8,0.7c0.1,0.1,0.2,0.1,0.3,0.2
				c0.2,0.1,0.4,0.2,0.6,0.3c0.6,0.3,1.3,0.6,2,0.7c0.2,0,0.5,0.1,0.7,0.1c0.5,0.1,1,0.1,1.5,0c0.4,0,0.7-0.1,1.1-0.2l0.2-0.1l0,0
				c0.5-0.1,1-0.4,1.5-0.6l0.1-0.1c0.1,0,0.1-0.1,0.2-0.1c1.3-0.8,2.4-2,3-3.5l0-0.1c0.4-0.9,0.6-1.9,0.6-2.8c0-0.1,0-0.2,0-0.3
				c0-0.1,0-0.3,0-0.4c0-0.2,0-0.3-0.1-0.5c0-0.1,0-0.3-0.1-0.4c-0.5-2.3-2.2-4.3-4.4-5.2c-0.3-0.1-0.5-0.2-0.8-0.3l0,0
				c-0.6-0.2-1.2-0.3-1.9-0.2c-2,0.1-4.1,1.2-5.4,3c-0.5,0.7-0.8,1.4-1.1,2.2l-0.7,2.2l0.1-2.3c0-0.2,0-0.5,0.1-0.8
				c0.1-0.5,0.3-1.1,0.4-1.5c0.8-1.9,2.3-3.5,4.2-4.3c-1.4-0.9-2.7-2.1-3.6-3.5l0.2-0.2L24,36.9c-0.8-1.2-1.5-2.6-1.9-4.2
				c-0.3,1.3-0.9,2.7-1.8,4.1c-0.8,1.1-1.7,2.1-2.7,3c-0.9,0.7-1.8,1.3-2.8,1.8c-0.2,0.1-0.4,0.2-0.6,0.3c-0.4,0.2-0.8,0.3-1.2,0.4
				l-0.4,0.1c-0.1,0-0.2,0.1-0.3,0.1c-0.1,0-0.2,0.1-0.3,0.1c-0.3,0.1-0.5,0.2-0.8,0.3c-0.8,0.4-1.6,1-2.2,1.6
				c-0.3,0.3-0.5,0.6-0.7,0.9C8,45.5,7.9,45.7,7.8,46c-0.1,0.1-0.1,0.2-0.2,0.3c-0.2,0.4-0.4,0.9-0.5,1.4C7,48,7,48.4,6.9,48.7
				l0,0.1c0,0.2,0,0.4,0,0.6c0,1,0.2,1.9,0.6,2.8l0,0.1c0.6,1.4,1.7,2.7,3,3.5c0.1,0,0.1,0.1,0.2,0.1l0.1,0.1
				c0.5,0.3,1.1,0.5,1.7,0.7c0.4,0.1,0.7,0.2,1.1,0.2c0.7,0.1,1.4,0,2.2-0.1l0.3-0.1c0.1,0,0.3-0.1,0.4-0.1l0.3-0.1
				c0.1,0,0.2-0.1,0.3-0.1c0.2-0.1,0.4-0.2,0.6-0.3c0.2-0.1,0.3-0.2,0.5-0.3c0.1,0,0.1-0.1,0.1-0.1c0.2-0.1,0.4-0.3,0.7-0.5l0.3-0.2
				c0,0,0.1-0.1,0.1-0.1c0.1-0.1,0.1-0.1,0.1-0.1c0.2-0.2,0.4-0.4,0.5-0.6l0.1-0.1c0,0,0.1-0.1,0.1-0.1c0.2-0.3,0.4-0.6,0.6-0.9
				c0.4-0.7,0.7-1.4,0.8-2.1C21.7,50.7,21.8,50.2,21.8,49.6z"/>
		</g>
	</g>
	<g>
		<g>
			<path class="st3" d="M199.2,260.6c0-0.2,0-0.4,0-0.7c-0.2-2.3-1.4-4.3-3.2-5.6c-0.6-0.4-0.9-1-0.9-1.7v0h13.1v0
				c0,0.7-0.4,1.3-0.9,1.7c-1.7,1.3-2.9,3.2-3.2,5.5c0,0.3,0,0.5,0,0.8c0,3,1.7,5.5,4.1,6.8v2.7h-8.3c0.2-0.5,0.3-1,0.4-1.5
				c0-0.3,0.1-0.5,0.1-0.8c-0.2,0.8-0.6,1.6-1.1,2.3h-4.2v-2.7C197.5,266.2,199.2,263.6,199.2,260.6z"/>
		</g>
		<g>
			<path class="st4" d="M195.1,252.4h13.3v0.3c0,0.8-0.4,1.5-1,1.9c-1.7,1.3-2.8,3.2-3,5.3c0,0.2,0,0.5,0,0.8c0,2.8,1.5,5.3,4,6.6
				l0.1,0.1v3.1h-9l0-0.1l-0.1,0.1h-4.6v-3.1l0.1-0.1c2.4-1.3,4-3.8,4-6.6c0-0.2,0-0.4,0-0.6c-0.2-2.2-1.3-4.1-3.1-5.4
				c-0.6-0.5-1-1.2-1-1.9v-0.3L195.1,252.4z M207.8,252.9h-12.5c0.1,0.5,0.3,0.9,0.8,1.2c1.9,1.4,3.1,3.5,3.3,5.8c0,0.2,0,0.5,0,0.7
				c0,2.9-1.6,5.6-4.1,7v2.3h3.8c0.4-0.6,0.8-1.3,1-2.1l0.7-2.3l-0.2,2.4c0,0.3-0.1,0.6-0.1,0.8c-0.1,0.4-0.2,0.8-0.3,1.2h7.6v-2.3
				c-2.5-1.4-4.1-4.1-4.1-7c0-0.3,0-0.6,0-0.8c0.2-2.3,1.4-4.3,3.3-5.7C207.5,253.9,207.8,253.4,207.8,252.9z"/>
		</g>
		<g>
			<path class="st3" d="M186.2,265.5c0-1.1,0.2-2.1,0.6-3c0,0,0,0,0,0c0.6-1.5,1.7-2.8,3.1-3.6c0.1-0.1,0.2-0.1,0.3-0.2
				c0.5-0.3,1.1-0.5,1.7-0.7c0,0,0,0,0,0c0.4-0.1,0.7-0.2,1.1-0.2c0.3,0,0.5,0,0.8,0c0.3,0,0.5,0,0.8,0h0c0.2,0,0.5,0.1,0.7,0.1
				c0.7,0.1,1.4,0.4,2.1,0.7c0.2,0.1,0.4,0.2,0.6,0.4c0.1,0.1,0.2,0.1,0.3,0.2c0.3,0.2,0.6,0.4,0.8,0.7c0.1,0.1,0.1,0.1,0.2,0.2
				c0.2,0.2,0.3,0.3,0.4,0.5c0.1,0.1,0.2,0.2,0.2,0.3c0.2,0.2,0.3,0.4,0.4,0.6c0.1,0.1,0.1,0.2,0.2,0.3c0.1,0.2,0.2,0.5,0.3,0.7
				c0.1,0.1,0.1,0.2,0.1,0.3c0.1,0.1,0.1,0.2,0.1,0.4c0,0.1,0.1,0.2,0.1,0.2c0,0.1,0,0.1,0,0.2c0.1,0.4,0.2,0.7,0.2,1.1
				c0,0.2,0,0.4,0,0.6c0-0.5,0.1-1,0.2-1.5c0.2-0.8,0.5-1.5,0.9-2.2c0.2-0.3,0.4-0.6,0.6-0.9c0.1-0.1,0.1-0.1,0.2-0.2
				c0.2-0.2,0.4-0.4,0.6-0.6c0,0,0.1-0.1,0.1-0.1c0.1-0.1,0.2-0.1,0.2-0.2c0.1,0,0.1-0.1,0.2-0.1c0.2-0.2,0.4-0.3,0.7-0.5
				c0,0,0.1-0.1,0.1-0.1c0.2-0.1,0.3-0.2,0.5-0.3c0.2-0.1,0.4-0.2,0.6-0.3c0.1,0,0.2-0.1,0.3-0.1c0.1,0,0.2-0.1,0.3-0.1
				c0.1,0,0.3-0.1,0.4-0.1c0.1,0,0.2,0,0.3-0.1c0.5-0.1,1-0.1,1.5-0.1c0.3,0,0.5,0,0.8,0c0.4,0,0.8,0.1,1.1,0.2
				c0.6,0.2,1.2,0.4,1.8,0.7c0.1,0.1,0.2,0.1,0.3,0.2c1.4,0.8,2.5,2.1,3.1,3.6c0,0,0,0,0,0c0.4,0.9,0.6,1.9,0.6,3c0,0.2,0,0.5,0,0.7
				c0,0,0,0,0,0.1c0,0.4-0.1,0.8-0.2,1.1c-0.1,0.5-0.3,1-0.5,1.4c-0.1,0.1-0.1,0.2-0.2,0.3c-0.1,0.2-0.3,0.4-0.4,0.6
				c-0.2,0.3-0.5,0.6-0.7,0.9c-0.6,0.7-1.4,1.3-2.3,1.7c-0.3,0.1-0.5,0.2-0.8,0.3c-0.1,0-0.2,0.1-0.3,0.1c-0.1,0-0.3,0.1-0.4,0.1
				c0,0,0,0,0,0c-0.5,0.1-1,0.3-1.5,0.5c-0.2,0.1-0.4,0.2-0.6,0.3c-1,0.4-1.9,1-2.8,1.7c-1,0.8-1.9,1.8-2.7,2.9
				c-0.9,1.3-1.6,2.8-1.9,4.3c0,0.1,0,0.2,0,0.3c0,0.1,0,0.3-0.1,0.4c0,0,0,0,0,0c0,0,0,0,0,0c-0.1-0.2-0.2-0.5-0.2-0.8
				c-0.4-1.6-1-3.1-2-4.4c0,0,0,0,0-0.1c-1-1.5-2.4-2.8-4-3.7c2-0.7,3.7-2.3,4.6-4.3c0.2-0.5,0.3-1,0.4-1.5c0.1-0.3,0.1-0.5,0.1-0.8
				c-0.2,0.8-0.6,1.6-1.1,2.3c-1.3,1.8-3.4,3-5.6,3.1c-0.7,0-1.3-0.1-2-0.3c0,0,0,0,0,0c-0.3-0.1-0.6-0.2-0.8-0.3
				c-2.3-1-4-3-4.6-5.4c0-0.1-0.1-0.3-0.1-0.4c0-0.2-0.1-0.4-0.1-0.5c0-0.1,0-0.2,0-0.4C186.2,265.8,186.2,265.6,186.2,265.5z"/>
		</g>
		<g>
			<path class="st4" d="M193.9,257.5c0.3,0,0.5,0,0.8,0c0.3,0,0.5,0.1,0.8,0.1c0.7,0.1,1.5,0.4,2.1,0.8c0.2,0.1,0.4,0.2,0.6,0.4
				c0.1,0.1,0.2,0.1,0.3,0.2c0.3,0.2,0.6,0.4,0.9,0.7l0.2,0.2c0.2,0.2,0.3,0.3,0.5,0.5c0.1,0.1,0.1,0.1,0.2,0.2l0.1,0.1
				c0.2,0.2,0.3,0.4,0.4,0.6c0.1,0.1,0.1,0.2,0.2,0.3c0.1,0.3,0.3,0.5,0.4,0.8c0,0.1,0.1,0.2,0.1,0.3c0.1,0.2,0.1,0.3,0.2,0.4
				c0,0,0,0.1,0.1,0.2c0,0,0,0.1,0,0.1c0.2-0.7,0.5-1.4,0.8-2c0.2-0.3,0.4-0.6,0.6-0.9c0,0,0.1-0.1,0.1-0.1l0.1-0.1
				c0.2-0.2,0.4-0.4,0.6-0.6c0.1-0.1,0.1-0.1,0.1-0.1c0,0,0.1-0.1,0.2-0.1l0.3-0.2c0.3-0.2,0.5-0.4,0.7-0.5c0,0,0.1-0.1,0.1-0.1
				c0.2-0.1,0.4-0.2,0.5-0.3c0.2-0.1,0.4-0.2,0.7-0.3c0.1-0.1,0.2-0.1,0.4-0.1l0.3-0.1c0.1,0,0.3-0.1,0.4-0.1l0.3-0.1
				c0.8-0.2,1.6-0.2,2.3-0.1c0.4,0,0.8,0.1,1.2,0.2c0.6,0.2,1.3,0.4,1.8,0.7l0.1,0.1c0.1,0,0.1,0.1,0.2,0.1c1.4,0.8,2.5,2.1,3.2,3.7
				l0,0.1c0.4,1,0.6,2,0.6,3.1c0,0.3,0,0.5,0,0.7c0,0.5-0.1,0.9-0.2,1.2c-0.1,0.5-0.3,1-0.5,1.5c-0.1,0.1-0.1,0.2-0.2,0.3
				c-0.1,0.2-0.3,0.4-0.4,0.7c-0.2,0.3-0.4,0.6-0.7,1c-0.7,0.7-1.5,1.3-2.3,1.8c-0.2,0.1-0.5,0.2-0.8,0.3c-0.1,0-0.2,0.1-0.4,0.1
				c-0.1,0-0.2,0.1-0.3,0.1l-0.4,0.1c-0.4,0.1-0.8,0.2-1.2,0.4c-0.2,0.1-0.4,0.2-0.6,0.3c-1,0.4-1.9,1-2.7,1.7
				c-1,0.8-1.9,1.8-2.6,2.9c-1,1.5-1.6,2.9-1.8,4.2c0,0.1,0,0.2,0,0.3c0,0.2,0,0.5-0.2,0.6l-0.1,0.1l-0.4,0v-0.2
				c-0.1-0.2-0.1-0.4-0.2-0.6c0-0.1,0-0.1,0-0.2c-0.4-1.7-1.1-3.1-1.9-4.3l0.2-0.2l-0.2,0.2c-1-1.5-2.4-2.7-3.9-3.7l-0.5-0.3
				l0.6-0.2c1.9-0.7,3.4-2.1,4.3-3.9c-1.4,1.9-3.6,3.1-5.8,3.2c-0.7,0-1.3-0.1-2-0.3h-0.1l0,0c-0.3-0.1-0.5-0.2-0.8-0.3
				c-2.4-1-4.1-3.1-4.7-5.6c0-0.1-0.1-0.3-0.1-0.4c0-0.2-0.1-0.4-0.1-0.5c0-0.1,0-0.2,0-0.4c0-0.1,0-0.3,0-0.4
				c0-1.1,0.2-2.1,0.6-3.1l0-0.1c0.6-1.5,1.8-2.8,3.2-3.7c0.1,0,0.1-0.1,0.2-0.1l0.1-0.1c0.6-0.3,1.2-0.6,1.8-0.7l0.1,0l0,0
				c0.3-0.1,0.7-0.1,1-0.2C193.3,257.5,193.6,257.5,193.9,257.5z M201.9,265.4l-0.5,0c0-0.2,0-0.4,0-0.6c0-0.4-0.1-0.7-0.2-1.1
				c0-0.1,0-0.1,0-0.1l0-0.1c0-0.1,0-0.1-0.1-0.2c0-0.1-0.1-0.2-0.1-0.3l0-0.1c0-0.1-0.1-0.2-0.1-0.3c-0.1-0.3-0.2-0.5-0.3-0.7
				c0-0.1-0.1-0.2-0.2-0.3c-0.1-0.2-0.3-0.4-0.4-0.6l-0.1-0.1c0-0.1-0.1-0.1-0.1-0.2c-0.1-0.2-0.3-0.3-0.4-0.5l-0.2-0.2
				c-0.2-0.2-0.5-0.4-0.8-0.7c-0.1-0.1-0.2-0.1-0.3-0.2c-0.2-0.1-0.4-0.2-0.6-0.3c-0.6-0.3-1.3-0.6-2-0.7c-0.2,0-0.5-0.1-0.7-0.1
				c-0.5-0.1-1-0.1-1.5,0c-0.4,0-0.7,0.1-1.1,0.2l-0.2,0.1l0,0c-0.5,0.1-1,0.4-1.5,0.6l-0.1,0.1c-0.1,0-0.1,0.1-0.2,0.1
				c-1.3,0.8-2.4,2-3,3.5l0,0.1c-0.4,0.9-0.6,1.9-0.6,2.8c0,0.1,0,0.2,0,0.3c0,0.1,0,0.3,0,0.4c0,0.2,0,0.3,0.1,0.5
				c0,0.1,0,0.3,0.1,0.4c0.5,2.3,2.2,4.3,4.4,5.2c0.3,0.1,0.5,0.2,0.8,0.3l0,0c0.6,0.2,1.2,0.3,1.9,0.2c2-0.1,4.1-1.2,5.4-3
				c0.5-0.7,0.8-1.4,1.1-2.2l0.7-2.2l-0.1,2.3c0,0.2,0,0.5-0.1,0.8c-0.1,0.5-0.3,1.1-0.4,1.5c-0.8,1.9-2.3,3.5-4.2,4.3
				c1.4,0.9,2.7,2.1,3.6,3.5l-0.2,0.2l0.2-0.2c0.8,1.2,1.5,2.6,1.9,4.2c0.3-1.3,0.9-2.7,1.8-4.1c0.8-1.1,1.7-2.1,2.7-3
				c0.9-0.7,1.8-1.3,2.8-1.8c0.2-0.1,0.4-0.2,0.6-0.3c0.4-0.2,0.8-0.3,1.2-0.4l0.4-0.1c0.1,0,0.2-0.1,0.3-0.1c0.1,0,0.2-0.1,0.3-0.1
				c0.3-0.1,0.5-0.2,0.8-0.3c0.8-0.4,1.6-1,2.2-1.6c0.3-0.3,0.5-0.6,0.7-0.9c0.1-0.2,0.3-0.4,0.4-0.6c0.1-0.1,0.1-0.2,0.2-0.3
				c0.2-0.4,0.4-0.9,0.5-1.4c0.1-0.3,0.2-0.7,0.2-1.1l0-0.1c0-0.2,0-0.4,0-0.6c0-1-0.2-1.9-0.6-2.8l0-0.1c-0.6-1.4-1.7-2.7-3-3.5
				c-0.1,0-0.1-0.1-0.2-0.1l-0.1-0.1c-0.5-0.3-1.1-0.5-1.7-0.7c-0.4-0.1-0.7-0.2-1.1-0.2c-0.7-0.1-1.4,0-2.2,0.1l-0.3,0.1
				c-0.1,0-0.3,0.1-0.4,0.1l-0.3,0.1c-0.1,0-0.2,0.1-0.3,0.1c-0.2,0.1-0.4,0.2-0.6,0.3c-0.2,0.1-0.3,0.2-0.5,0.3
				c-0.1,0-0.1,0.1-0.1,0.1c-0.2,0.1-0.4,0.3-0.7,0.5l-0.3,0.2c0,0-0.1,0.1-0.1,0.1c-0.1,0.1-0.1,0.1-0.1,0.1
				c-0.2,0.2-0.4,0.4-0.5,0.6l-0.1,0.1c0,0-0.1,0.1-0.1,0.1c-0.2,0.3-0.4,0.6-0.6,0.9c-0.4,0.7-0.7,1.4-0.8,2.1
				C201.9,264.3,201.9,264.8,201.9,265.4z"/>
		</g>
	</g>
	<g>
		<g>
			<path class="st3" d="M115.3,73.1c0,0.3,0,0.6,0,0.9c0.3,3.1,1.9,5.8,4.3,7.5c0.7,0.5,1.2,1.4,1.2,2.3v0h-17.6v0
				c0-0.9,0.5-1.8,1.2-2.3c2.3-1.7,3.9-4.3,4.2-7.4c0-0.3,0.1-0.7,0.1-1c0-4-2.2-7.4-5.5-9.2v-3.6h11.1c-0.3,0.6-0.5,1.3-0.6,2
				c-0.1,0.4-0.1,0.7-0.1,1.1c0.3-1.1,0.8-2.1,1.5-3.1h5.7V64C117.5,65.7,115.3,69.2,115.3,73.1z"/>
		</g>
		<g>
			<path class="st4" d="M120.8,84.2h-18v-0.4c0-1,0.5-2,1.4-2.6c2.3-1.7,3.8-4.3,4.1-7.1c0-0.3,0.1-0.7,0.1-1c0-3.7-2-7.1-5.3-8.8
				l-0.2-0.1V60h12.1l0,0.1l0.1-0.1h6.2v4.2l-0.2,0.1c-3.3,1.7-5.3,5.1-5.3,8.8c0,0.3,0,0.6,0,0.9c0.2,2.9,1.7,5.5,4.1,7.3
				c0.9,0.6,1.4,1.6,1.4,2.6v0.4L120.8,84.2z M103.6,83.5h16.8c-0.1-0.7-0.5-1.2-1-1.7c-2.5-1.8-4.2-4.7-4.4-7.8c0-0.3,0-0.6,0-0.9
				c0-3.9,2.1-7.5,5.5-9.4v-3.1h-5.1c-0.6,0.8-1,1.8-1.3,2.8l-0.9,3.1l0.2-3.2c0-0.4,0.1-0.8,0.1-1.1c0.1-0.5,0.2-1.1,0.4-1.6h-10.2
				v3.1c3.4,1.9,5.5,5.5,5.5,9.4c0,0.4,0,0.8-0.1,1.1c-0.3,3-1.9,5.8-4.4,7.6C104.1,82.3,103.7,82.9,103.6,83.5z"/>
		</g>
		<g>
			<path class="st3" d="M132.8,66.6c0,1.4-0.3,2.8-0.8,4c0,0,0,0,0,0c-0.8,2-2.3,3.7-4.2,4.8c-0.1,0.1-0.3,0.2-0.4,0.3
				c-0.7,0.4-1.5,0.7-2.3,0.9c0,0,0,0,0,0c-0.5,0.1-1,0.2-1.5,0.3c-0.4,0-0.7,0.1-1.1,0.1c-0.4,0-0.7,0-1-0.1h0
				c-0.3,0-0.7-0.1-1-0.1c-1-0.2-1.9-0.5-2.8-1c-0.3-0.1-0.6-0.3-0.8-0.5c-0.1-0.1-0.3-0.2-0.4-0.3c-0.4-0.3-0.8-0.6-1.1-0.9
				c-0.1-0.1-0.2-0.2-0.3-0.3c-0.2-0.2-0.4-0.4-0.6-0.7c-0.1-0.1-0.2-0.3-0.3-0.4c-0.2-0.3-0.4-0.5-0.6-0.8
				c-0.1-0.1-0.1-0.2-0.2-0.4c-0.2-0.3-0.3-0.7-0.5-1c-0.1-0.1-0.1-0.3-0.2-0.5c-0.1-0.2-0.1-0.3-0.2-0.5c0-0.1-0.1-0.2-0.1-0.3
				c0-0.1,0-0.1-0.1-0.2c-0.1-0.5-0.2-1-0.3-1.5c0-0.3,0-0.6,0-0.9c0,0.7-0.1,1.4-0.3,2.1c-0.2,1.1-0.6,2.1-1.2,3
				c-0.2,0.4-0.5,0.8-0.8,1.2c-0.1,0.1-0.1,0.2-0.2,0.3c-0.2,0.3-0.5,0.5-0.7,0.8c-0.1,0.1-0.1,0.1-0.2,0.2
				c-0.1,0.1-0.2,0.2-0.3,0.3c-0.1,0.1-0.2,0.1-0.2,0.2c-0.3,0.2-0.6,0.5-0.9,0.7c0,0-0.1,0.1-0.2,0.1c-0.2,0.1-0.5,0.3-0.7,0.4
				c-0.3,0.1-0.6,0.3-0.9,0.4c-0.1,0.1-0.3,0.1-0.4,0.2c-0.1,0-0.3,0.1-0.5,0.1c-0.2,0-0.4,0.1-0.6,0.1c-0.1,0-0.3,0-0.4,0.1
				c-0.6,0.1-1.3,0.2-2,0.2c-0.4,0-0.7,0-1.1-0.1c-0.5,0-1-0.1-1.5-0.3c-0.8-0.2-1.6-0.5-2.4-0.9c-0.1-0.1-0.3-0.2-0.4-0.3
				c-1.9-1.1-3.3-2.8-4.2-4.8c0,0,0,0,0,0c-0.5-1.2-0.8-2.6-0.8-4c0-0.3,0-0.7,0-1c0,0,0-0.1,0-0.1c0-0.5,0.1-1,0.3-1.5
				c0.2-0.7,0.4-1.3,0.7-1.9c0.1-0.1,0.1-0.3,0.2-0.4c0.2-0.3,0.3-0.6,0.5-0.9c0.3-0.4,0.6-0.8,1-1.2c0.9-0.9,1.9-1.7,3-2.3
				c0.3-0.2,0.7-0.3,1-0.4c0.1-0.1,0.3-0.1,0.5-0.2c0.2-0.1,0.3-0.1,0.5-0.2c0,0,0,0,0,0c0.7-0.2,1.4-0.4,2-0.6
				c0.3-0.1,0.6-0.2,0.9-0.4c1.3-0.6,2.6-1.4,3.7-2.3c1.4-1.1,2.6-2.5,3.6-3.9c1.2-1.7,2.2-3.7,2.5-5.8c0-0.1,0-0.3,0.1-0.4
				c0-0.1,0-0.5,0.2-0.5c0,0,0,0,0,0c0,0,0,0,0,0c0.2,0.3,0.2,0.7,0.3,1c0.6,2.1,1.4,4.1,2.7,5.9c0,0,0,0,0.1,0.1
				c1.4,2,3.3,3.8,5.4,5c-2.7,0.9-5,3.1-6.2,5.8c-0.3,0.6-0.4,1.3-0.6,2c-0.1,0.4-0.1,0.7-0.1,1.1c0.3-1.1,0.8-2.1,1.5-3
				c1.7-2.4,4.5-4.1,7.5-4.2c0.9,0,1.8,0.1,2.7,0.4c0,0,0,0,0,0c0.4,0.1,0.8,0.3,1.1,0.4c3.1,1.3,5.4,4.1,6.1,7.3
				c0,0.2,0.1,0.4,0.1,0.6c0,0.2,0.1,0.5,0.1,0.7c0,0.2,0,0.3,0,0.5C132.8,66.3,132.8,66.4,132.8,66.6z"/>
		</g>
		<g>
			<path class="st4" d="M122.4,77.4c-0.4,0-0.7,0-1.1-0.1c-0.4,0-0.7-0.1-1-0.2c-1-0.2-2-0.5-2.9-1c-0.3-0.1-0.6-0.3-0.9-0.5
				c-0.1-0.1-0.3-0.2-0.4-0.3c-0.4-0.3-0.8-0.6-1.1-0.9l-0.3-0.3c-0.2-0.2-0.4-0.4-0.6-0.7c-0.1-0.1-0.1-0.2-0.2-0.3l-0.1-0.1
				c-0.2-0.3-0.4-0.6-0.6-0.9c-0.1-0.1-0.1-0.2-0.2-0.3c-0.2-0.4-0.4-0.7-0.5-1.1c-0.1-0.1-0.1-0.3-0.2-0.4
				c-0.1-0.2-0.2-0.4-0.2-0.6c0-0.1-0.1-0.2-0.1-0.3c0,0,0-0.1,0-0.1c-0.2,0.9-0.6,1.8-1.1,2.6c-0.2,0.4-0.5,0.8-0.9,1.2
				c0,0.1-0.1,0.1-0.1,0.2l-0.1,0.1c-0.2,0.3-0.5,0.6-0.8,0.8c-0.1,0.1-0.1,0.1-0.2,0.2c-0.1,0.1-0.1,0.1-0.2,0.2l-0.4,0.3
				c-0.3,0.3-0.7,0.5-1,0.7c0,0-0.1,0.1-0.2,0.1c-0.2,0.1-0.5,0.3-0.7,0.4c-0.3,0.1-0.6,0.3-0.9,0.4c-0.2,0.1-0.3,0.1-0.5,0.2
				l-0.5,0.1c-0.2,0.1-0.4,0.1-0.6,0.2l-0.4,0.1c-1.1,0.2-2.1,0.3-3.2,0.1c-0.5,0-1-0.1-1.6-0.3c-0.9-0.2-1.7-0.5-2.4-1l-0.2-0.1
				c-0.1-0.1-0.2-0.1-0.3-0.2c-1.9-1.1-3.4-2.9-4.3-4.9l0-0.1c-0.6-1.3-0.8-2.7-0.8-4.2c0-0.3,0-0.7,0-1c0.1-0.6,0.2-1.2,0.3-1.7
				c0.2-0.7,0.4-1.3,0.7-2c0.1-0.1,0.1-0.3,0.2-0.5c0.2-0.3,0.4-0.6,0.5-0.9c0.3-0.4,0.6-0.8,1-1.3c0.9-1,2-1.8,3.1-2.4
				c0.3-0.2,0.7-0.3,1.1-0.4c0.1-0.1,0.3-0.1,0.5-0.2c0.1,0,0.2-0.1,0.4-0.1l0.6-0.2c0.5-0.1,1.1-0.3,1.6-0.5
				c0.3-0.1,0.6-0.2,0.8-0.4c1.3-0.6,2.5-1.4,3.7-2.3c1.4-1.1,2.5-2.4,3.5-3.8c1.3-2,2.1-3.9,2.4-5.7c0-0.1,0-0.3,0.1-0.4
				c0-0.3,0-0.6,0.3-0.8l0.1-0.1l0.5,0v0.3c0.1,0.2,0.2,0.5,0.2,0.7c0,0.1,0,0.2,0.1,0.3c0.6,2.2,1.5,4.2,2.6,5.8l-0.2,0.3l0.3-0.2
				c1.4,2,3.2,3.7,5.3,4.9l0.7,0.4l-0.7,0.3c-2.6,0.9-4.6,2.8-5.8,5.2c1.9-2.6,4.8-4.2,7.7-4.3c0.9,0,1.8,0.1,2.7,0.4h0.1l0.1,0.1
				c0.4,0.1,0.7,0.3,1.1,0.4c3.2,1.4,5.6,4.2,6.4,7.5c0,0.2,0.1,0.4,0.1,0.6c0,0.2,0.1,0.5,0.1,0.7c0,0.2,0,0.3,0,0.5
				c0,0.2,0,0.3,0,0.5c0,1.4-0.3,2.9-0.8,4.2l0,0.1c-0.9,2-2.4,3.8-4.3,4.9c-0.1,0.1-0.2,0.1-0.3,0.2l-0.2,0.1
				c-0.8,0.4-1.6,0.7-2.4,1l-0.2,0.1l0,0c-0.4,0.1-0.9,0.2-1.4,0.2C123.1,77.3,122.8,77.4,122.4,77.4z M111.6,66.8l0.7,0
				c0,0.3,0,0.6,0,0.8c0.1,0.5,0.1,1,0.3,1.4c0,0.1,0,0.1,0,0.2l0,0.1c0,0.1,0,0.2,0.1,0.2c0,0.2,0.1,0.3,0.2,0.5l0,0.1
				c0,0.1,0.1,0.2,0.1,0.4c0.1,0.3,0.3,0.7,0.5,1c0.1,0.1,0.1,0.2,0.2,0.3c0.2,0.3,0.3,0.5,0.5,0.8l0.1,0.1c0.1,0.1,0.1,0.2,0.2,0.3
				c0.2,0.2,0.4,0.4,0.6,0.6l0.3,0.3c0.3,0.3,0.7,0.6,1.1,0.9c0.1,0.1,0.3,0.2,0.4,0.3c0.3,0.2,0.5,0.3,0.8,0.5
				c0.9,0.5,1.8,0.8,2.7,1c0.3,0.1,0.6,0.1,0.9,0.1c0.7,0.1,1.4,0.1,2,0c0.5,0,1-0.1,1.4-0.3l0.2-0.1l0,0c0.7-0.2,1.4-0.5,2.1-0.8
				l0.2-0.1c0.1-0.1,0.2-0.1,0.3-0.2c1.8-1.1,3.2-2.7,4-4.7l0-0.1c0.5-1.2,0.8-2.5,0.8-3.8c0-0.2,0-0.3,0-0.5c0-0.2,0-0.3,0-0.5
				c0-0.2-0.1-0.5-0.1-0.7c0-0.2-0.1-0.4-0.1-0.5c-0.7-3.1-3-5.8-5.9-7c-0.4-0.2-0.7-0.3-1.1-0.4l0,0c-0.8-0.2-1.7-0.3-2.5-0.3
				c-2.7,0.1-5.5,1.6-7.2,4c-0.6,0.9-1.1,1.9-1.4,2.9l-0.9,3l0.2-3.1c0-0.3,0.1-0.7,0.2-1.1c0.1-0.7,0.3-1.4,0.6-2.1
				c1.1-2.6,3.1-4.7,5.7-5.8c-1.9-1.3-3.6-2.9-4.9-4.7l0.2-0.3l-0.3,0.2c-1.1-1.6-2-3.5-2.6-5.7c-0.4,1.8-1.2,3.6-2.5,5.5
				c-1,1.5-2.3,2.9-3.7,4c-1.2,0.9-2.5,1.7-3.8,2.4c-0.3,0.1-0.6,0.3-0.9,0.4c-0.6,0.2-1.1,0.4-1.7,0.5L99,56.9
				c-0.1,0-0.2,0.1-0.4,0.1c-0.2,0-0.3,0.1-0.5,0.2c-0.4,0.1-0.7,0.3-1,0.4c-1.1,0.5-2.1,1.3-2.9,2.2c-0.4,0.4-0.7,0.8-0.9,1.2
				c-0.2,0.3-0.4,0.6-0.5,0.8c-0.1,0.1-0.1,0.3-0.2,0.4c-0.3,0.6-0.5,1.2-0.7,1.8c-0.1,0.5-0.2,1-0.3,1.5l0,0.2c0,0.2,0,0.5,0,0.9
				c0,1.3,0.3,2.6,0.8,3.8l0,0.1c0.8,1.9,2.2,3.6,4,4.7c0.1,0.1,0.2,0.1,0.2,0.1l0.2,0.1c0.7,0.4,1.5,0.7,2.3,0.9
				c0.5,0.1,1,0.2,1.5,0.3c1,0.1,1.9,0.1,2.9-0.1l0.4-0.1c0.2,0,0.4-0.1,0.5-0.1l0.4-0.1c0.1,0,0.3-0.1,0.4-0.1
				c0.3-0.1,0.6-0.2,0.9-0.4c0.2-0.1,0.4-0.2,0.6-0.4c0.1-0.1,0.1-0.1,0.1-0.1c0.3-0.2,0.6-0.4,0.9-0.7l0.3-0.3
				c0.1,0,0.1-0.1,0.2-0.1c0.1-0.1,0.1-0.1,0.2-0.2c0.3-0.2,0.5-0.5,0.7-0.8l0.1-0.1c0,0,0.1-0.1,0.1-0.1c0.3-0.4,0.6-0.8,0.8-1.2
				c0.5-0.9,0.9-1.8,1.1-2.9C111.5,68.2,111.6,67.5,111.6,66.8z"/>
		</g>
	</g>
	<g>
		<g>
			<path class="st3" d="M108.7,240.4c0-0.3,0-0.6,0-0.9c-0.3-3.1-1.9-5.8-4.3-7.5c-0.7-0.5-1.2-1.4-1.2-2.3v0h17.6v0
				c0,0.9-0.5,1.8-1.2,2.3c-2.3,1.7-3.9,4.3-4.2,7.4c0,0.3-0.1,0.7-0.1,1c0,4,2.2,7.4,5.5,9.2v3.6h-11.1c0.3-0.6,0.5-1.3,0.6-2
				c0.1-0.4,0.1-0.7,0.1-1.1c-0.3,1.1-0.8,2.1-1.5,3.1h-5.7v-3.6C106.5,247.9,108.7,244.4,108.7,240.4z"/>
		</g>
		<g>
			<path class="st4" d="M103.2,229.3h18v0.4c0,1-0.5,2-1.4,2.6c-2.3,1.7-3.8,4.3-4.1,7.1c0,0.3-0.1,0.7-0.1,1c0,3.7,2,7.1,5.3,8.8
				l0.2,0.1v4.2h-12.1l0-0.1l-0.1,0.1h-6.2v-4.2l0.2-0.1c3.3-1.7,5.3-5.1,5.3-8.8c0-0.3,0-0.6,0-0.9c-0.2-2.9-1.7-5.5-4.1-7.3
				c-0.9-0.6-1.4-1.6-1.4-2.6v-0.4L103.2,229.3z M120.4,230h-16.8c0.1,0.7,0.5,1.2,1,1.7c2.5,1.8,4.2,4.7,4.4,7.8c0,0.3,0,0.6,0,0.9
				c0,3.9-2.1,7.5-5.5,9.4v3.1h5.1c0.6-0.8,1-1.8,1.3-2.8l0.9-3.1l-0.2,3.2c0,0.4-0.1,0.8-0.1,1.1c-0.1,0.5-0.2,1.1-0.4,1.6h10.2
				v-3.1c-3.4-1.9-5.5-5.5-5.5-9.4c0-0.4,0-0.8,0.1-1.1c0.3-3,1.9-5.8,4.4-7.6C119.9,231.3,120.3,230.7,120.4,230z"/>
		</g>
		<g>
			<path class="st3" d="M91.2,246.9c0-1.4,0.3-2.8,0.8-4c0,0,0,0,0,0c0.8-2,2.3-3.7,4.2-4.8c0.1-0.1,0.3-0.2,0.4-0.3
				c0.7-0.4,1.5-0.7,2.3-0.9c0,0,0,0,0,0c0.5-0.1,1-0.2,1.5-0.3c0.4,0,0.7-0.1,1.1-0.1c0.4,0,0.7,0,1,0.1h0c0.3,0,0.7,0.1,1,0.1
				c1,0.2,1.9,0.5,2.8,1c0.3,0.1,0.6,0.3,0.8,0.5c0.1,0.1,0.3,0.2,0.4,0.3c0.4,0.3,0.8,0.6,1.1,0.9c0.1,0.1,0.2,0.2,0.3,0.3
				c0.2,0.2,0.4,0.4,0.6,0.7c0.1,0.1,0.2,0.3,0.3,0.4c0.2,0.3,0.4,0.5,0.6,0.8c0.1,0.1,0.1,0.2,0.2,0.4c0.2,0.3,0.3,0.7,0.5,1
				c0.1,0.1,0.1,0.3,0.2,0.5c0.1,0.2,0.1,0.3,0.2,0.5c0,0.1,0.1,0.2,0.1,0.3c0,0.1,0,0.1,0.1,0.2c0.1,0.5,0.2,1,0.3,1.5
				c0,0.3,0,0.6,0,0.9c0-0.7,0.1-1.4,0.3-2.1c0.2-1.1,0.6-2.1,1.2-3c0.2-0.4,0.5-0.8,0.8-1.2c0.1-0.1,0.1-0.2,0.2-0.3
				c0.2-0.3,0.5-0.5,0.7-0.8c0.1-0.1,0.1-0.1,0.2-0.2c0.1-0.1,0.2-0.2,0.3-0.3c0.1-0.1,0.2-0.1,0.2-0.2c0.3-0.2,0.6-0.5,0.9-0.7
				c0,0,0.1-0.1,0.2-0.1c0.2-0.1,0.5-0.3,0.7-0.4c0.3-0.1,0.6-0.3,0.9-0.4c0.1-0.1,0.3-0.1,0.4-0.2c0.1,0,0.3-0.1,0.5-0.1
				c0.2,0,0.4-0.1,0.6-0.1c0.1,0,0.3,0,0.4-0.1c0.6-0.1,1.3-0.2,2-0.2c0.4,0,0.7,0,1.1,0.1c0.5,0,1,0.1,1.5,0.3
				c0.8,0.2,1.6,0.5,2.4,0.9c0.1,0.1,0.3,0.2,0.4,0.3c1.9,1.1,3.3,2.8,4.2,4.8c0,0,0,0,0,0c0.5,1.2,0.8,2.6,0.8,4c0,0.3,0,0.7,0,1
				c0,0,0,0.1,0,0.1c0,0.5-0.1,1-0.3,1.5c-0.2,0.7-0.4,1.3-0.7,1.9c-0.1,0.1-0.1,0.3-0.2,0.4c-0.2,0.3-0.3,0.6-0.5,0.9
				c-0.3,0.4-0.6,0.8-1,1.2c-0.9,0.9-1.9,1.7-3,2.3c-0.3,0.2-0.7,0.3-1,0.4c-0.1,0.1-0.3,0.1-0.5,0.2c-0.2,0.1-0.3,0.1-0.5,0.2
				c0,0,0,0,0,0c-0.7,0.2-1.4,0.4-2,0.6c-0.3,0.1-0.6,0.2-0.9,0.4c-1.3,0.6-2.6,1.4-3.7,2.3c-1.4,1.1-2.6,2.5-3.6,3.9
				c-1.2,1.7-2.2,3.7-2.5,5.8c0,0.1,0,0.3-0.1,0.4c0,0.1,0,0.5-0.2,0.5c0,0,0,0,0,0c0,0,0,0,0,0c-0.2-0.3-0.2-0.7-0.3-1
				c-0.6-2.1-1.4-4.1-2.7-5.9c0,0,0,0-0.1-0.1c-1.4-2-3.3-3.8-5.4-5c2.7-0.9,5-3.1,6.2-5.8c0.3-0.6,0.4-1.3,0.6-2
				c0.1-0.4,0.1-0.7,0.1-1.1c-0.3,1.1-0.8,2.1-1.5,3c-1.7,2.4-4.5,4.1-7.5,4.2c-0.9,0-1.8-0.1-2.7-0.4c0,0,0,0,0,0
				c-0.4-0.1-0.8-0.3-1.1-0.4c-3.1-1.3-5.4-4.1-6.1-7.3c0-0.2-0.1-0.4-0.1-0.6c0-0.2-0.1-0.5-0.1-0.7c0-0.2,0-0.3,0-0.5
				C91.2,247.3,91.2,247.1,91.2,246.9z"/>
		</g>
		<g>
			<path class="st4" d="M101.6,236.2c0.4,0,0.7,0,1.1,0.1c0.4,0,0.7,0.1,1,0.2c1,0.2,2,0.5,2.9,1c0.3,0.1,0.6,0.3,0.9,0.5
				c0.1,0.1,0.3,0.2,0.4,0.3c0.4,0.3,0.8,0.6,1.1,0.9l0.3,0.3c0.2,0.2,0.4,0.4,0.6,0.7c0.1,0.1,0.1,0.2,0.2,0.3l0.1,0.1
				c0.2,0.3,0.4,0.6,0.6,0.9c0.1,0.1,0.1,0.2,0.2,0.3c0.2,0.4,0.4,0.7,0.5,1.1c0.1,0.1,0.1,0.3,0.2,0.4c0.1,0.2,0.2,0.4,0.2,0.6
				c0,0.1,0.1,0.2,0.1,0.3c0,0,0,0.1,0,0.1c0.2-0.9,0.6-1.8,1.1-2.6c0.2-0.4,0.5-0.8,0.9-1.2c0-0.1,0.1-0.1,0.1-0.2l0.1-0.1
				c0.2-0.3,0.5-0.6,0.8-0.8c0.1-0.1,0.1-0.1,0.2-0.2c0.1-0.1,0.1-0.1,0.2-0.2l0.4-0.3c0.3-0.3,0.7-0.5,1-0.7c0,0,0.1-0.1,0.2-0.1
				c0.2-0.1,0.5-0.3,0.7-0.4c0.3-0.1,0.6-0.3,0.9-0.4c0.2-0.1,0.3-0.1,0.5-0.2l0.5-0.1c0.2-0.1,0.4-0.1,0.6-0.2l0.4-0.1
				c1.1-0.2,2.1-0.3,3.2-0.1c0.5,0,1,0.1,1.6,0.3c0.9,0.2,1.7,0.5,2.4,1l0.2,0.1c0.1,0.1,0.2,0.1,0.3,0.2c1.9,1.1,3.4,2.9,4.3,4.9
				l0,0.1c0.6,1.3,0.8,2.7,0.8,4.2c0,0.3,0,0.7,0,1c-0.1,0.6-0.2,1.2-0.3,1.7c-0.2,0.7-0.4,1.3-0.7,2c-0.1,0.1-0.1,0.3-0.2,0.5
				c-0.2,0.3-0.4,0.6-0.5,0.9c-0.3,0.4-0.6,0.8-1,1.3c-0.9,1-2,1.8-3.1,2.4c-0.3,0.2-0.7,0.3-1.1,0.4c-0.1,0.1-0.3,0.1-0.5,0.2
				c-0.1,0-0.2,0.1-0.4,0.1l-0.6,0.2c-0.5,0.1-1.1,0.3-1.6,0.5c-0.3,0.1-0.6,0.2-0.8,0.4c-1.3,0.6-2.5,1.4-3.7,2.3
				c-1.4,1.1-2.5,2.4-3.5,3.8c-1.3,2-2.1,3.9-2.4,5.7c0,0.1,0,0.3-0.1,0.4c0,0.3,0,0.6-0.3,0.8l-0.1,0.1l-0.5,0v-0.3
				c-0.1-0.2-0.2-0.5-0.2-0.7c0-0.1,0-0.2-0.1-0.3c-0.6-2.2-1.5-4.2-2.6-5.8l0.2-0.3l-0.3,0.2c-1.4-2-3.2-3.7-5.3-4.9l-0.7-0.4
				l0.7-0.3c2.6-0.9,4.6-2.8,5.8-5.2c-1.9,2.6-4.8,4.2-7.7,4.3c-0.9,0-1.8-0.1-2.7-0.4h-0.1l-0.1-0.1c-0.4-0.1-0.7-0.3-1.1-0.4
				c-3.2-1.4-5.6-4.2-6.4-7.5c0-0.2-0.1-0.4-0.1-0.6c0-0.2-0.1-0.5-0.1-0.7c0-0.2,0-0.3,0-0.5c0-0.2,0-0.3,0-0.5
				c0-1.4,0.3-2.9,0.8-4.2l0-0.1c0.9-2,2.4-3.8,4.3-4.9c0.1-0.1,0.2-0.1,0.3-0.2l0.2-0.1c0.8-0.4,1.6-0.7,2.4-1l0.2-0.1l0,0
				c0.4-0.1,0.9-0.2,1.4-0.2C100.9,236.2,101.2,236.2,101.6,236.2z M112.4,246.8l-0.7,0c0-0.3,0-0.6,0-0.8c-0.1-0.5-0.1-1-0.3-1.4
				c0-0.1,0-0.1,0-0.2l0-0.1c0-0.1,0-0.2-0.1-0.2c0-0.2-0.1-0.3-0.2-0.5l0-0.1c0-0.1-0.1-0.2-0.1-0.4c-0.1-0.3-0.3-0.7-0.5-1
				c-0.1-0.1-0.1-0.2-0.2-0.3c-0.2-0.3-0.3-0.5-0.5-0.8l-0.1-0.1c-0.1-0.1-0.1-0.2-0.2-0.3c-0.2-0.2-0.4-0.4-0.6-0.6l-0.3-0.3
				c-0.3-0.3-0.7-0.6-1.1-0.9c-0.1-0.1-0.3-0.2-0.4-0.3c-0.3-0.2-0.5-0.3-0.8-0.5c-0.9-0.5-1.8-0.8-2.7-1c-0.3-0.1-0.6-0.1-0.9-0.1
				c-0.7-0.1-1.4-0.1-2,0c-0.5,0-1,0.1-1.4,0.3l-0.2,0.1l0,0c-0.7,0.2-1.4,0.5-2.1,0.8l-0.2,0.1c-0.1,0.1-0.2,0.1-0.3,0.2
				c-1.8,1.1-3.2,2.7-4,4.7l0,0.1c-0.5,1.2-0.8,2.5-0.8,3.8c0,0.2,0,0.3,0,0.5c0,0.2,0,0.3,0,0.5c0,0.2,0.1,0.5,0.1,0.7
				c0,0.2,0.1,0.4,0.1,0.5c0.7,3.1,3,5.8,5.9,7c0.4,0.2,0.7,0.3,1.1,0.4l0,0c0.8,0.2,1.7,0.3,2.5,0.3c2.7-0.1,5.5-1.6,7.2-4
				c0.6-0.9,1.1-1.9,1.4-2.9l0.9-3l-0.2,3.1c0,0.3-0.1,0.7-0.2,1.1c-0.1,0.7-0.3,1.4-0.6,2.1c-1.1,2.6-3.1,4.7-5.7,5.8
				c1.9,1.3,3.6,2.9,4.9,4.7l-0.2,0.3l0.3-0.2c1.1,1.6,2,3.5,2.6,5.7c0.4-1.8,1.2-3.6,2.5-5.5c1-1.5,2.3-2.9,3.7-4
				c1.2-0.9,2.5-1.7,3.8-2.4c0.3-0.1,0.6-0.3,0.9-0.4c0.6-0.2,1.1-0.4,1.7-0.5l0.5-0.2c0.1,0,0.2-0.1,0.4-0.1c0.2,0,0.3-0.1,0.5-0.2
				c0.4-0.1,0.7-0.3,1-0.4c1.1-0.5,2.1-1.3,2.9-2.2c0.4-0.4,0.7-0.8,0.9-1.2c0.2-0.3,0.4-0.6,0.5-0.8c0.1-0.1,0.1-0.3,0.2-0.4
				c0.3-0.6,0.5-1.2,0.7-1.8c0.1-0.5,0.2-1,0.3-1.5l0-0.2c0-0.2,0-0.5,0-0.9c0-1.3-0.3-2.6-0.8-3.8l0-0.1c-0.8-1.9-2.2-3.6-4-4.7
				c-0.1-0.1-0.2-0.1-0.2-0.1l-0.2-0.1c-0.7-0.4-1.5-0.7-2.3-0.9c-0.5-0.1-1-0.2-1.5-0.3c-1-0.1-1.9-0.1-2.9,0.1l-0.4,0.1
				c-0.2,0-0.4,0.1-0.5,0.1l-0.4,0.1c-0.1,0-0.3,0.1-0.4,0.1c-0.3,0.1-0.6,0.2-0.9,0.4c-0.2,0.1-0.4,0.2-0.6,0.4
				c-0.1,0.1-0.1,0.1-0.1,0.1c-0.3,0.2-0.6,0.4-0.9,0.7l-0.3,0.3c-0.1,0-0.1,0.1-0.2,0.1c-0.1,0.1-0.1,0.1-0.2,0.2
				c-0.3,0.2-0.5,0.5-0.7,0.8l-0.1,0.1c0,0-0.1,0.1-0.1,0.1c-0.3,0.4-0.6,0.8-0.8,1.2c-0.5,0.9-0.9,1.8-1.1,2.9
				C112.5,245.4,112.4,246,112.4,246.8z"/>
		</g>
	</g>
</g>
</svg>
