<?xml version="1.0" encoding="utf-8"?>
<!-- Generator: Adobe Illustrator 25.2.0, SVG Export Plug-In . SVG Version: 6.00 Build 0)  -->
<svg version="1.1" id="Layer_1" xmlns="http://www.w3.org/2000/svg" xmlns:xlink="http://www.w3.org/1999/xlink" x="0px" y="0px"
	 viewBox="0 0 224.2 312.8" style="enable-background:new 0 0 224.2 312.8;" xml:space="preserve">
<style type="text/css">
	.st0{opacity:2.000000e-02;enable-background:new    ;}
	.st1{opacity:5.000000e-02;enable-background:new    ;}
	.st2{enable-background:new    ;}
	.st3{fill:none;stroke:#000000;stroke-miterlimit:10;}
	.st4{fill:#190B38;}
	.st5{fill:#050307;}
</style>
<g>
	<g class="st0">
		<rect x="-0.2" y="0.7" width="224.4" height="312.1"/>
	</g>
	<g class="st0">
		<rect x="-0.2" y="0.7" width="224.4" height="312.1"/>
	</g>
	<g class="st1">
		<path d="M173.4,283.5H50.6c-4.2,0-7.5-3.4-7.5-7.5V37.6c0-4.2,3.4-7.5,7.5-7.5h122.9c4.2,0,7.5,3.4,7.5,7.5V276
			C181,280.1,177.6,283.5,173.4,283.5z"/>
	</g>
	<g class="st2">
		<path d="M21.3,82.3c1.4,0,2.7,0.3,3.8,0.9c1.2,0.6,2,1.5,2.7,2.5c0.6,1.1,1,2.3,1,3.6s-0.3,2.5-1,3.6c-0.7,1.1-1.6,1.9-2.8,2.6
			c-1.2,0.6-2.5,0.9-3.9,0.9c-1.5,0-2.8-0.3-3.9-0.9c-1.2-0.6-2.1-1.5-2.8-2.6c-0.7-1.1-1-2.3-1-3.6c0-1.5,0.5-3,1.5-4.6l6.5-10.4
			h2.6l-5.4,8.4C19.5,82.4,20.4,82.3,21.3,82.3z M18.3,84.9c-0.8,0.4-1.5,1-1.9,1.8c-0.5,0.8-0.7,1.6-0.7,2.6s0.2,1.8,0.7,2.6
			c0.5,0.8,1.1,1.4,1.9,1.8c0.8,0.4,1.8,0.7,2.8,0.7c1,0,2-0.2,2.8-0.7c0.8-0.4,1.5-1,1.9-1.8c0.5-0.8,0.7-1.6,0.7-2.6
			s-0.2-1.8-0.7-2.6c-0.5-0.8-1.1-1.4-1.9-1.8c-0.8-0.4-1.8-0.7-2.8-0.7C20.1,84.2,19.1,84.5,18.3,84.9z"/>
	</g>
	<g class="st2">
		<path class="st3" d="M21.3,82.3c1.4,0,2.7,0.3,3.8,0.9c1.2,0.6,2,1.5,2.7,2.5c0.6,1.1,1,2.3,1,3.6s-0.3,2.5-1,3.6
			c-0.7,1.1-1.6,1.9-2.8,2.6c-1.2,0.6-2.5,0.9-3.9,0.9c-1.5,0-2.8-0.3-3.9-0.9c-1.2-0.6-2.1-1.5-2.8-2.6c-0.7-1.1-1-2.3-1-3.6
			c0-1.5,0.5-3,1.5-4.6l6.5-10.4h2.6l-5.4,8.4C19.5,82.4,20.4,82.3,21.3,82.3z M18.3,84.9c-0.8,0.4-1.5,1-1.9,1.8
			c-0.5,0.8-0.7,1.6-0.7,2.6s0.2,1.8,0.7,2.6c0.5,0.8,1.1,1.4,1.9,1.8c0.8,0.4,1.8,0.7,2.8,0.7c1,0,2-0.2,2.8-0.7
			c0.8-0.4,1.5-1,1.9-1.8c0.5-0.8,0.7-1.6,0.7-2.6s-0.2-1.8-0.7-2.6c-0.5-0.8-1.1-1.4-1.9-1.8c-0.8-0.4-1.8-0.7-2.8-0.7
			C20.1,84.2,19.1,84.5,18.3,84.9z"/>
	</g>
	<g class="st2">
		<path d="M201.9,232.9c-1.4,0-2.7-0.3-3.8-0.9c-1.2-0.6-2-1.5-2.7-2.5c-0.6-1.1-1-2.3-1-3.6s0.3-2.5,1-3.6c0.7-1.1,1.6-1.9,2.8-2.6
			s2.5-0.9,3.9-0.9c1.5,0,2.8,0.3,3.9,0.9s2.1,1.5,2.8,2.6c0.7,1.1,1,2.3,1,3.6c0,1.5-0.5,3-1.5,4.6l-6.5,10.4h-2.6l5.4-8.4
			C203.7,232.8,202.8,232.9,201.9,232.9z M205,230.3c0.8-0.4,1.5-1,1.9-1.8c0.5-0.8,0.7-1.6,0.7-2.6s-0.2-1.8-0.7-2.6
			c-0.5-0.8-1.1-1.4-1.9-1.8c-0.8-0.4-1.8-0.7-2.8-0.7c-1,0-2,0.2-2.8,0.7c-0.8,0.4-1.5,1-1.9,1.8c-0.5,0.8-0.7,1.6-0.7,2.6
			s0.2,1.8,0.7,2.6c0.5,0.8,1.1,1.4,1.9,1.8c0.8,0.4,1.8,0.7,2.8,0.7C203.2,231,204.1,230.7,205,230.3z"/>
	</g>
	<g class="st2">
		<path class="st3" d="M201.9,232.9c-1.4,0-2.7-0.3-3.8-0.9c-1.2-0.6-2-1.5-2.7-2.5c-0.6-1.1-1-2.3-1-3.6s0.3-2.5,1-3.6
			c0.7-1.1,1.6-1.9,2.8-2.6s2.5-0.9,3.9-0.9c1.5,0,2.8,0.3,3.9,0.9s2.1,1.5,2.8,2.6c0.7,1.1,1,2.3,1,3.6c0,1.5-0.5,3-1.5,4.6
			l-6.5,10.4h-2.6l5.4-8.4C203.7,232.8,202.8,232.9,201.9,232.9z M205,230.3c0.8-0.4,1.5-1,1.9-1.8c0.5-0.8,0.7-1.6,0.7-2.6
			s-0.2-1.8-0.7-2.6c-0.5-0.8-1.1-1.4-1.9-1.8c-0.8-0.4-1.8-0.7-2.8-0.7c-1,0-2,0.2-2.8,0.7c-0.8,0.4-1.5,1-1.9,1.8
			c-0.5,0.8-0.7,1.6-0.7,2.6s0.2,1.8,0.7,2.6c0.5,0.8,1.1,1.4,1.9,1.8c0.8,0.4,1.8,0.7,2.8,0.7C203.2,231,204.1,230.7,205,230.3z"/>
	</g>
	<g>
		<g>
			<path class="st4" d="M24.5,54.4c0,0.2,0,0.4,0,0.7c0.2,2.3,1.4,4.3,3.2,5.6c0.6,0.4,0.9,1,0.9,1.7l0,0H15.5l0,0
				c0-0.7,0.4-1.3,0.9-1.7c1.7-1.3,2.9-3.2,3.2-5.5c0-0.3,0-0.5,0-0.8c0-3-1.7-5.5-4.1-6.8v-2.7h8.3c-0.2,0.5-0.3,1-0.4,1.5
				c0,0.3-0.1,0.5-0.1,0.8c0.2-0.8,0.6-1.6,1.1-2.3h4.2v2.7C26.1,48.8,24.5,51.4,24.5,54.4z"/>
		</g>
		<g>
			<path class="st5" d="M28.6,62.6H15.2v-0.3c0-0.8,0.4-1.5,1-1.9c1.7-1.3,2.8-3.2,3-5.3c0-0.2,0-0.5,0-0.8c0-2.8-1.5-5.3-4-6.6
				l-0.1-0.1v-3.1h9v0.1l0.1-0.1h4.6v3.1l-0.1,0.1c-2.4,1.3-4,3.8-4,6.6c0,0.2,0,0.4,0,0.6c0.2,2.2,1.3,4.1,3.1,5.4
				c0.6,0.5,1,1.2,1,1.9v0.3L28.6,62.6z M15.8,62.1h12.5c-0.1-0.5-0.3-0.9-0.8-1.2c-1.9-1.4-3.1-3.5-3.3-5.8c0-0.2,0-0.5,0-0.7
				c0-2.9,1.6-5.6,4.1-7v-2.3h-3.8c-0.4,0.6-0.8,1.3-1,2.1l-0.7,2.3l0.2-2.4c0-0.3,0.1-0.6,0.1-0.8c0.1-0.4,0.2-0.8,0.3-1.2h-7.6
				v2.3c2.5,1.4,4.1,4.1,4.1,7c0,0.3,0,0.6,0,0.8c-0.2,2.3-1.4,4.3-3.3,5.7C16.1,61.1,15.9,61.6,15.8,62.1z"/>
		</g>
		<g>
			<path class="st4" d="M37.5,49.5c0,1.1-0.2,2.1-0.6,3l0,0c-0.6,1.5-1.7,2.8-3.1,3.6c-0.1,0.1-0.2,0.1-0.3,0.2
				c-0.5,0.3-1.1,0.5-1.7,0.7l0,0c-0.4,0.1-0.7,0.2-1.1,0.2c-0.3,0-0.5,0-0.8,0s-0.5,0-0.8,0l0,0c-0.2,0-0.5-0.1-0.7-0.1
				c-0.7-0.1-1.4-0.4-2.1-0.7c-0.2-0.1-0.4-0.2-0.6-0.4c-0.1-0.1-0.2-0.1-0.3-0.2c-0.3-0.2-0.6-0.4-0.8-0.7
				c-0.1-0.1-0.1-0.1-0.2-0.2c-0.2-0.2-0.3-0.3-0.4-0.5c-0.1-0.1-0.2-0.2-0.2-0.3c-0.2-0.2-0.3-0.4-0.4-0.6
				c-0.1-0.1-0.1-0.2-0.2-0.3c-0.1-0.2-0.2-0.5-0.3-0.7c-0.1-0.1-0.1-0.2-0.1-0.3c-0.1-0.1-0.1-0.2-0.1-0.4c0-0.1-0.1-0.2-0.1-0.2
				c0-0.1,0-0.1,0-0.2c-0.1-0.4-0.2-0.7-0.2-1.1c0-0.2,0-0.4,0-0.6c0,0.5-0.1,1-0.2,1.5c-0.2,0.8-0.5,1.5-0.9,2.2
				c-0.2,0.3-0.4,0.6-0.6,0.9c-0.1,0.1-0.1,0.1-0.2,0.2c-0.2,0.2-0.4,0.4-0.6,0.6l-0.1,0.1c-0.1,0.1-0.2,0.1-0.2,0.2
				c-0.1,0-0.1,0.1-0.2,0.1c-0.2,0.2-0.4,0.3-0.7,0.5l-0.1,0.1c-0.2,0.1-0.3,0.2-0.5,0.3s-0.4,0.2-0.6,0.3c-0.1,0-0.2,0.1-0.3,0.1
				c-0.1,0-0.2,0.1-0.3,0.1c-0.1,0-0.3,0.1-0.4,0.1s-0.2,0-0.3,0.1c-0.5,0.1-1,0.1-1.5,0.1c-0.3,0-0.5,0-0.8,0
				c-0.4,0-0.8-0.1-1.1-0.2c-0.6-0.2-1.2-0.4-1.8-0.7c-0.1-0.1-0.2-0.1-0.3-0.2c-1.4-0.8-2.5-2.1-3.1-3.6l0,0
				c-0.4-0.9-0.6-1.9-0.6-3c0-0.2,0-0.5,0-0.7c0,0,0,0,0-0.1c0-0.4,0.1-0.8,0.2-1.1c0.1-0.5,0.3-1,0.5-1.4c0.1-0.1,0.1-0.2,0.2-0.3
				c0.1-0.2,0.3-0.4,0.4-0.6C8.5,45,8.8,44.7,9,44.4c0.6-0.7,1.4-1.3,2.3-1.7c0.3-0.1,0.5-0.2,0.8-0.3c0.1,0,0.2-0.1,0.3-0.1
				s0.3-0.1,0.4-0.1l0,0c0.5-0.1,1-0.3,1.5-0.5c0.2-0.1,0.4-0.2,0.6-0.3c1-0.4,1.9-1,2.8-1.7c1-0.8,1.9-1.8,2.7-2.9
				c0.9-1.3,1.6-2.8,1.9-4.3c0-0.1,0-0.2,0-0.3s0-0.3,0.1-0.4l0,0l0,0c0.1,0.2,0.2,0.5,0.2,0.8c0.4,1.6,1,3.1,2,4.4c0,0,0,0,0,0.1
				c1,1.5,2.4,2.8,4,3.7c-2,0.7-3.7,2.3-4.6,4.3c-0.2,0.5-0.3,1-0.4,1.5c-0.1,0.3-0.1,0.5-0.1,0.8c0.2-0.8,0.6-1.6,1.1-2.3
				c1.3-1.8,3.4-3,5.6-3.1c0.7,0,1.3,0.1,2,0.3l0,0c0.3,0.1,0.6,0.2,0.8,0.3c2.3,1,4,3,4.6,5.4c0,0.1,0.1,0.3,0.1,0.4
				c0,0.2,0.1,0.4,0.1,0.5s0,0.2,0,0.4C37.5,49.2,37.5,49.4,37.5,49.5z"/>
		</g>
		<g>
			<path class="st5" d="M29.8,57.5c-0.3,0-0.5,0-0.8,0s-0.5-0.1-0.8-0.1c-0.7-0.1-1.5-0.4-2.1-0.8c-0.2-0.1-0.4-0.2-0.6-0.4
				c-0.1-0.1-0.2-0.1-0.3-0.2c-0.3-0.2-0.6-0.4-0.9-0.7L24,55.1c-0.2-0.2-0.3-0.3-0.5-0.5c-0.1-0.1-0.1-0.1-0.2-0.2l-0.1-0.1
				c-0.2-0.2-0.3-0.4-0.4-0.6c-0.1-0.1-0.1-0.2-0.2-0.3c-0.1-0.3-0.3-0.5-0.4-0.8c0-0.1-0.1-0.2-0.1-0.3C22,52.1,22,52,21.9,51.9
				c0,0,0-0.1-0.1-0.2v-0.1c-0.2,0.7-0.5,1.4-0.8,2c-0.2,0.3-0.4,0.6-0.6,0.9l-0.1,0.1l-0.1,0.1c-0.2,0.2-0.4,0.4-0.6,0.6
				c-0.1,0.1-0.1,0.1-0.1,0.1s-0.1,0.1-0.2,0.1L19,55.7c-0.3,0.2-0.5,0.4-0.7,0.5l-0.1,0.1c-0.2,0.1-0.4,0.2-0.5,0.3
				c-0.2,0.1-0.4,0.2-0.7,0.3c0.1,0.1,0,0.1-0.1,0.2l-0.3,0.1c-0.1,0-0.3,0.1-0.4,0.1l-0.3,0.1c-0.8,0.2-1.6,0.2-2.3,0.1
				c-0.4,0-0.8-0.1-1.2-0.2c-0.6-0.2-1.3-0.4-1.8-0.7l-0.1-0.1c-0.1,0-0.1-0.1-0.2-0.1c-1.4-0.8-2.5-2.1-3.2-3.7v-0.1
				c-0.4-1-0.6-2-0.6-3.1c0-0.3,0-0.5,0-0.7c0-0.5,0.1-0.9,0.2-1.2c0.1-0.5,0.3-1,0.5-1.5c0.1-0.1,0.1-0.2,0.2-0.3
				c0.1-0.2,0.3-0.4,0.4-0.7c0.2-0.3,0.4-0.6,0.7-1c0.7-0.7,1.5-1.3,2.3-1.8c0.2-0.1,0.5-0.2,0.8-0.3c0.1,0,0.2-0.1,0.4-0.1
				c0.1,0,0.2-0.1,0.3-0.1l0.4-0.1c0.4-0.1,0.8-0.2,1.2-0.4c0.2-0.1,0.4-0.2,0.6-0.3c1-0.4,1.9-1,2.7-1.7c1-0.8,1.9-1.8,2.6-2.9
				c1-1.5,1.6-2.9,1.8-4.2c0-0.1,0-0.2,0-0.3c0-0.2,0-0.5,0.2-0.6l0.1-0.1h0.4v0.2c0.1,0.2,0.1,0.4,0.2,0.6c0,0.1,0,0.1,0,0.2
				c0.4,1.7,1.1,3.1,1.9,4.3l-0.2,0.2l0.2-0.2c1,1.5,2.4,2.7,3.9,3.7l0.5,0.3l-0.6,0.2c-1.9,0.7-3.4,2.1-4.3,3.9
				c1.4-1.9,3.6-3.1,5.8-3.2c0.7,0,1.3,0.1,2,0.3H32l0,0c0.3,0.1,0.5,0.2,0.8,0.3c2.4,1,4.1,3.1,4.7,5.6c0,0.1,0.1,0.3,0.1,0.4
				c0,0.2,0.1,0.4,0.1,0.5s0,0.2,0,0.4c0,0.1,0,0.3,0,0.4c0,1.1-0.2,2.1-0.6,3.1v0.1c-0.6,1.5-1.8,2.8-3.2,3.7
				c-0.1,0-0.1,0.1-0.2,0.1l-0.1,0.1c-0.6,0.3-1.2,0.6-1.8,0.7h-0.1l0,0c-0.3,0.1-0.7,0.1-1,0.2C30.3,57.5,30,57.5,29.8,57.5z
				 M21.8,49.6h0.5c0,0.2,0,0.4,0,0.6c0,0.4,0.1,0.7,0.2,1.1c0,0.1,0,0.1,0,0.1v0.1c0,0.1,0,0.1,0.1,0.2c0,0.1,0.1,0.2,0.1,0.3v0.1
				c0,0.1,0.1,0.2,0.1,0.3c0.1,0.3,0.2,0.5,0.3,0.7c0,0.1,0.1,0.2,0.2,0.3c0.1,0.2,0.3,0.4,0.4,0.6l0.1,0.1c0,0.1,0.1,0.1,0.1,0.2
				c0.1,0.2,0.3,0.3,0.4,0.5l0.2,0.2c0.2,0.2,0.5,0.4,0.8,0.7c0.1,0.1,0.2,0.1,0.3,0.2c0.2,0.1,0.4,0.2,0.6,0.3
				c0.6,0.3,1.3,0.6,2,0.7c0.2,0,0.5,0.1,0.7,0.1c0.5,0.1,1,0.1,1.5,0c0.4,0,0.7-0.1,1.1-0.2l0.2-0.1l0,0c0.5-0.1,1-0.4,1.5-0.6
				l0.1-0.1c0.1,0,0.1-0.1,0.2-0.1c1.3-0.8,2.4-2,3-3.5v-0.1c0.4-0.9,0.6-1.9,0.6-2.8c0-0.1,0-0.2,0-0.3s0-0.3,0-0.4
				c0-0.2,0-0.3-0.1-0.5c0-0.1,0-0.3-0.1-0.4c-0.5-2.3-2.2-4.3-4.4-5.2c-0.3-0.1-0.5-0.2-0.8-0.3l0,0c-0.6-0.2-1.2-0.3-1.9-0.2
				c-2,0.1-4.1,1.2-5.4,3c-0.5,0.7-0.8,1.4-1.1,2.2l-0.7,2.2l0.1-2.3c0-0.2,0-0.5,0.1-0.8c0.1-0.5,0.3-1.1,0.4-1.5
				c0.8-1.9,2.3-3.5,4.2-4.3c-1.4-0.9-2.7-2.1-3.6-3.5L24,37l0-0.1c-0.8-1.2-1.5-2.6-1.9-4.2c-0.3,1.3-0.9,2.7-1.8,4.1
				c-0.8,1.1-1.7,2.1-2.7,3c-0.9,0.7-1.8,1.3-2.8,1.8c-0.2,0.1-0.4,0.2-0.6,0.3c-0.4,0.2-0.8,0.3-1.2,0.4l-0.4,0.1
				c-0.1,0-0.2,0.1-0.3,0.1s-0.2,0.1-0.3,0.1c-0.3,0.1-0.5,0.2-0.8,0.3c-0.8,0.4-1.6,1-2.2,1.6c-0.3,0.3-0.5,0.6-0.7,0.9
				C8,45.5,7.9,45.7,7.8,46c-0.1,0.1-0.1,0.2-0.2,0.3c-0.2,0.4-0.4,0.9-0.5,1.4C7,48,7,48.4,6.9,48.7v0.1c0,0.2,0,0.4,0,0.6
				c0,1,0.2,1.9,0.6,2.8v0.1c0.6,1.4,1.7,2.7,3,3.5c0.1,0,0.1,0.1,0.2,0.1l0.1,0.1c0.5,0.3,1.1,0.5,1.7,0.7c0.4,0.1,0.7,0.2,1.1,0.2
				c0.7,0.1,1.4,0,2.2-0.1l0.3-0.1c0.1,0,0.3-0.1,0.4-0.1l0.3-0.1c0.1,0,0.2-0.1,0.3-0.1c0.2-0.1,0.4-0.2,0.6-0.3s0.3-0.2,0.5-0.3
				c0.1,0,0.1-0.1,0.1-0.1c0.2-0.1,0.4-0.3,0.7-0.5l0.3-0.2l0.1-0.1c0.1-0.1,0.1-0.1,0.1-0.1c0.2-0.2,0.4-0.4,0.5-0.6l0.1-0.1
				l0.1-0.1c0.2-0.3,0.4-0.6,0.6-0.9c0.4-0.7,0.7-1.4,0.8-2.1C21.7,50.7,21.8,50.2,21.8,49.6z"/>
		</g>
	</g>
	<g>
		<g>
			<path class="st4" d="M199.2,260.6c0-0.2,0-0.4,0-0.7c-0.2-2.3-1.4-4.3-3.2-5.6c-0.6-0.4-0.9-1-0.9-1.7l0,0h13.1l0,0
				c0,0.7-0.4,1.3-0.9,1.7c-1.7,1.3-2.9,3.2-3.2,5.5c0,0.3,0,0.5,0,0.8c0,3,1.7,5.5,4.1,6.8v2.7h-8.3c0.2-0.5,0.3-1,0.4-1.5
				c0-0.3,0.1-0.5,0.1-0.8c-0.2,0.8-0.6,1.6-1.1,2.3h-4.2v-2.7C197.5,266.2,199.2,263.6,199.2,260.6z"/>
		</g>
		<g>
			<path class="st5" d="M195.1,252.4h13.3v0.3c0,0.8-0.4,1.5-1,1.9c-1.7,1.3-2.8,3.2-3,5.3c0,0.2,0,0.5,0,0.8c0,2.8,1.5,5.3,4,6.6
				l0.1,0.1v3.1h-9v-0.1l-0.1,0.1h-4.6v-3.1l0.1-0.1c2.4-1.3,4-3.8,4-6.6c0-0.2,0-0.4,0-0.6c-0.2-2.2-1.3-4.1-3.1-5.4
				c-0.6-0.5-1-1.2-1-1.9v-0.3L195.1,252.4z M207.8,252.9h-12.5c0.1,0.5,0.3,0.9,0.8,1.2c1.9,1.4,3.1,3.5,3.3,5.8c0,0.2,0,0.5,0,0.7
				c0,2.9-1.6,5.6-4.1,7v2.3h3.8c0.4-0.6,0.8-1.3,1-2.1l0.7-2.3l-0.2,2.4c0,0.3-0.1,0.6-0.1,0.8c-0.1,0.4-0.2,0.8-0.3,1.2h7.6v-2.3
				c-2.5-1.4-4.1-4.1-4.1-7c0-0.3,0-0.6,0-0.8c0.2-2.3,1.4-4.3,3.3-5.7C207.5,253.9,207.8,253.4,207.8,252.9z"/>
		</g>
		<g>
			<path class="st4" d="M186.2,265.5c0-1.1,0.2-2.1,0.6-3l0,0c0.6-1.5,1.7-2.8,3.1-3.6c0.1-0.1,0.2-0.1,0.3-0.2
				c0.5-0.3,1.1-0.5,1.7-0.7l0,0c0.4-0.1,0.7-0.2,1.1-0.2c0.3,0,0.5,0,0.8,0s0.5,0,0.8,0l0,0c0.2,0,0.5,0.1,0.7,0.1
				c0.7,0.1,1.4,0.4,2.1,0.7c0.2,0.1,0.4,0.2,0.6,0.4c0.1,0.1,0.2,0.1,0.3,0.2c0.3,0.2,0.6,0.4,0.8,0.7c0.1,0.1,0.1,0.1,0.2,0.2
				c0.2,0.2,0.3,0.3,0.4,0.5c0.1,0.1,0.2,0.2,0.2,0.3c0.2,0.2,0.3,0.4,0.4,0.6c0.1,0.1,0.1,0.2,0.2,0.3c0.1,0.2,0.2,0.5,0.3,0.7
				c0.1,0.1,0.1,0.2,0.1,0.3c0.1,0.1,0.1,0.2,0.1,0.4c0,0.1,0.1,0.2,0.1,0.2c0,0.1,0,0.1,0,0.2c0.1,0.4,0.2,0.7,0.2,1.1
				c0,0.2,0,0.4,0,0.6c0-0.5,0.1-1,0.2-1.5c0.2-0.8,0.5-1.5,0.9-2.2c0.2-0.3,0.4-0.6,0.6-0.9c0.1-0.1,0.1-0.1,0.2-0.2
				c0.2-0.2,0.4-0.4,0.6-0.6l0.1-0.1c0.1-0.1,0.2-0.1,0.2-0.2c0.1,0,0.1-0.1,0.2-0.1c0.2-0.2,0.4-0.3,0.7-0.5l0.1-0.1
				c0.2-0.1,0.3-0.2,0.5-0.3c0.2-0.1,0.4-0.2,0.6-0.3c0.1,0,0.2-0.1,0.3-0.1s0.2-0.1,0.3-0.1s0.3-0.1,0.4-0.1c0.1,0,0.2,0,0.3-0.1
				c0.5-0.1,1-0.1,1.5-0.1c0.3,0,0.5,0,0.8,0c0.4,0,0.8,0.1,1.1,0.2c0.6,0.2,1.2,0.4,1.8,0.7c0.1,0.1,0.2,0.1,0.3,0.2
				c1.4,0.8,2.5,2.1,3.1,3.6l0,0c0.4,0.9,0.6,1.9,0.6,3c0,0.2,0,0.5,0,0.7c0,0,0,0,0,0.1c0,0.4-0.1,0.8-0.2,1.1
				c-0.1,0.5-0.3,1-0.5,1.4c-0.1,0.1-0.1,0.2-0.2,0.3c-0.1,0.2-0.3,0.4-0.4,0.6c-0.2,0.3-0.5,0.6-0.7,0.9c-0.6,0.7-1.4,1.3-2.3,1.7
				c-0.3,0.1-0.5,0.2-0.8,0.3c-0.1,0-0.2,0.1-0.3,0.1s-0.3,0.1-0.4,0.1l0,0c-0.5,0.1-1,0.3-1.5,0.5c-0.2,0.1-0.4,0.2-0.6,0.3
				c-1,0.4-1.9,1-2.8,1.7c-1,0.8-1.9,1.8-2.7,2.9c-0.9,1.3-1.6,2.8-1.9,4.3c0,0.1,0,0.2,0,0.3c0,0.1,0,0.3-0.1,0.4l0,0l0,0
				c-0.1-0.2-0.2-0.5-0.2-0.8c-0.4-1.6-1-3.1-2-4.4c0,0,0,0,0-0.1c-1-1.5-2.4-2.8-4-3.7c2-0.7,3.7-2.3,4.6-4.3
				c0.2-0.5,0.3-1,0.4-1.5c0.1-0.3,0.1-0.5,0.1-0.8c-0.2,0.8-0.6,1.6-1.1,2.3c-1.3,1.8-3.4,3-5.6,3.1c-0.7,0-1.3-0.1-2-0.3l0,0
				c-0.3-0.1-0.6-0.2-0.8-0.3c-2.3-1-4-3-4.6-5.4c0-0.1-0.1-0.3-0.1-0.4c0-0.2-0.1-0.4-0.1-0.5s0-0.2,0-0.4
				C186.2,265.8,186.2,265.6,186.2,265.5z"/>
		</g>
		<g>
			<path class="st5" d="M193.9,257.5c0.3,0,0.5,0,0.8,0s0.5,0.1,0.8,0.1c0.7,0.1,1.5,0.4,2.1,0.8c0.2,0.1,0.4,0.2,0.6,0.4
				c0.1,0.1,0.2,0.1,0.3,0.2c0.3,0.2,0.6,0.4,0.9,0.7l0.2,0.2c0.2,0.2,0.3,0.3,0.5,0.5c0.1,0.1,0.1,0.1,0.2,0.2l0.1,0.1
				c0.2,0.2,0.3,0.4,0.4,0.6c0.1,0.1,0.1,0.2,0.2,0.3c0.1,0.3,0.3,0.5,0.4,0.8c0,0.1,0.1,0.2,0.1,0.3c0.1,0.2,0.1,0.3,0.2,0.4
				c0,0,0,0.1,0.1,0.2v0.1c0.2-0.7,0.5-1.4,0.8-2c0.2-0.3,0.4-0.6,0.6-0.9l0.1-0.1l0.1-0.1c0.2-0.2,0.4-0.4,0.6-0.6
				c0.1-0.1,0.1-0.1,0.1-0.1s0.1-0.1,0.2-0.1l0.3-0.2c0.3-0.2,0.5-0.4,0.7-0.5l0.1-0.1c0.2-0.1,0.4-0.2,0.5-0.3
				c0.2-0.1,0.4-0.2,0.7-0.3c0.1-0.1,0.2-0.1,0.4-0.1l0.3-0.1c0.1,0,0.3-0.1,0.4-0.1l0.3-0.1c0.8-0.2,1.6-0.2,2.3-0.1
				c0.4,0,0.8,0.1,1.2,0.2c0.6,0.2,1.3,0.4,1.8,0.7l0.1,0.1c0.1,0,0.1,0.1,0.2,0.1c1.4,0.8,2.5,2.1,3.2,3.7v0.1c0.4,1,0.6,2,0.6,3.1
				c0,0.3,0,0.5,0,0.7c0,0.5-0.1,0.9-0.2,1.2c-0.1,0.5-0.3,1-0.5,1.5c-0.1,0.1-0.1,0.2-0.2,0.3c-0.1,0.2-0.3,0.4-0.4,0.7
				c-0.2,0.3-0.4,0.6-0.7,1c-0.7,0.7-1.5,1.3-2.3,1.8c-0.2,0.1-0.5,0.2-0.8,0.3c-0.1,0-0.2,0.1-0.4,0.1c-0.1,0-0.2,0.1-0.3,0.1
				l-0.4,0.1c-0.4,0.1-0.8,0.2-1.2,0.4c-0.2,0.1-0.4,0.2-0.6,0.3c-1,0.4-1.9,1-2.7,1.7c-1,0.8-1.9,1.8-2.6,2.9
				c-1,1.5-1.6,2.9-1.8,4.2c0,0.1,0,0.2,0,0.3c0,0.2,0,0.5-0.2,0.6l-0.1,0.1h-0.4v-0.2c-0.1-0.2-0.1-0.4-0.2-0.6c0-0.1,0-0.1,0-0.2
				c-0.4-1.7-1.1-3.1-1.9-4.3l0.2-0.2l-0.2,0.2c-1-1.5-2.4-2.7-3.9-3.7l-0.5-0.3l0.6-0.2c1.9-0.7,3.4-2.1,4.3-3.9
				c-1.4,1.9-3.6,3.1-5.8,3.2c-0.7,0-1.3-0.1-2-0.3h-0.1l0,0c-0.3-0.1-0.5-0.2-0.8-0.3c-2.4-1-4.1-3.1-4.7-5.6
				c0-0.1-0.1-0.3-0.1-0.4c0-0.2-0.1-0.4-0.1-0.5s0-0.2,0-0.4c0-0.1,0-0.3,0-0.4c0-1.1,0.2-2.1,0.6-3.1v-0.1
				c0.6-1.5,1.8-2.8,3.2-3.7c0.1,0,0.1-0.1,0.2-0.1l0.1-0.1c0.6-0.3,1.2-0.6,1.8-0.7h0.1l0,0c0.3-0.1,0.7-0.1,1-0.2
				C193.3,257.5,193.6,257.5,193.9,257.5z M201.9,265.4h-0.5c0-0.2,0-0.4,0-0.6c0-0.4-0.1-0.7-0.2-1.1c0-0.1,0-0.1,0-0.1v-0.1
				c0-0.1,0-0.1-0.1-0.2c0-0.1-0.1-0.2-0.1-0.3v-0.1c0-0.1-0.1-0.2-0.1-0.3c-0.1-0.3-0.2-0.5-0.3-0.7c0-0.1-0.1-0.2-0.2-0.3
				c-0.1-0.2-0.3-0.4-0.4-0.6l-0.1-0.1c0-0.1-0.1-0.1-0.1-0.2c-0.1-0.2-0.3-0.3-0.4-0.5l-0.2-0.2c-0.2-0.2-0.5-0.4-0.8-0.7
				c-0.1-0.1-0.2-0.1-0.3-0.2c-0.2-0.1-0.4-0.2-0.6-0.3c-0.6-0.3-1.3-0.6-2-0.7c-0.2,0-0.5-0.1-0.7-0.1c-0.5-0.1-1-0.1-1.5,0
				c-0.4,0-0.7,0.1-1.1,0.2l-0.2,0.1l0,0c-0.5,0.1-1,0.4-1.5,0.6l-0.1,0.1c-0.1,0-0.1,0.1-0.2,0.1c-1.3,0.8-2.4,2-3,3.5v0.1
				c-0.4,0.9-0.6,1.9-0.6,2.8c0,0.1,0,0.2,0,0.3c0,0.1,0,0.3,0,0.4c0,0.2,0,0.3,0.1,0.5c0,0.1,0,0.3,0.1,0.4
				c0.5,2.3,2.2,4.3,4.4,5.2c0.3,0.1,0.5,0.2,0.8,0.3l0,0c0.6,0.2,1.2,0.3,1.9,0.2c2-0.1,4.1-1.2,5.4-3c0.5-0.7,0.8-1.4,1.1-2.2
				l0.7-2.2l-0.1,2.3c0,0.2,0,0.5-0.1,0.8c-0.1,0.5-0.3,1.1-0.4,1.5c-0.8,1.9-2.3,3.5-4.2,4.3c1.4,0.9,2.7,2.1,3.6,3.5l-0.2,0.2
				l0.2-0.2c0.8,1.2,1.5,2.6,1.9,4.2c0.3-1.3,0.9-2.7,1.8-4.1c0.8-1.1,1.7-2.1,2.7-3c0.9-0.7,1.8-1.3,2.8-1.8
				c0.2-0.1,0.4-0.2,0.6-0.3c0.4-0.2,0.8-0.3,1.2-0.4l0.4-0.1c0.1,0,0.2-0.1,0.3-0.1s0.2-0.1,0.3-0.1c0.3-0.1,0.5-0.2,0.8-0.3
				c0.8-0.4,1.6-1,2.2-1.6c0.3-0.3,0.5-0.6,0.7-0.9c0.1-0.2,0.3-0.4,0.4-0.6c0.1-0.1,0.1-0.2,0.2-0.3c0.2-0.4,0.4-0.9,0.5-1.4
				c0.1-0.3,0.2-0.7,0.2-1.1v-0.1c0-0.2,0-0.4,0-0.6c0-1-0.2-1.9-0.6-2.8v-0.1c-0.6-1.4-1.7-2.7-3-3.5c-0.1,0-0.1-0.1-0.2-0.1
				l-0.1-0.1c-0.5-0.3-1.1-0.5-1.7-0.7c-0.4-0.1-0.7-0.2-1.1-0.2c-0.7-0.1-1.4,0-2.2,0.1l-0.3,0.1c-0.1,0-0.3,0.1-0.4,0.1l-0.3,0.1
				c-0.1,0-0.2,0.1-0.3,0.1c-0.2,0.1-0.4,0.2-0.6,0.3c-0.2,0.1-0.3,0.2-0.5,0.3c-0.1,0-0.1,0.1-0.1,0.1c-0.2,0.1-0.4,0.3-0.7,0.5
				l-0.3,0.2l-0.1,0.1c-0.1,0.1-0.1,0.1-0.1,0.1c-0.2,0.2-0.4,0.4-0.5,0.6l-0.1,0.1l-0.1,0.1c-0.2,0.3-0.4,0.6-0.6,0.9
				c-0.4,0.7-0.7,1.4-0.8,2.1C201.9,264.3,201.9,264.8,201.9,265.4z"/>
		</g>
	</g>
	<g>
		<g>
			<path class="st4" d="M154.9,73.1c0,0.3,0,0.6,0,0.9c0.3,3.1,1.9,5.8,4.3,7.5c0.7,0.5,1.2,1.4,1.2,2.3l0,0h-17.6l0,0
				c0-0.9,0.5-1.8,1.2-2.3c2.3-1.7,3.9-4.3,4.2-7.4c0-0.3,0.1-0.7,0.1-1c0-4-2.2-7.4-5.5-9.2v-3.6H154c-0.3,0.6-0.5,1.3-0.6,2
				c-0.1,0.4-0.1,0.7-0.1,1.1c0.3-1.1,0.8-2.1,1.5-3.1h5.7V64C157.2,65.7,154.9,69.2,154.9,73.1z"/>
		</g>
		<g>
			<path class="st5" d="M160.5,84.2h-18v-0.4c0-1,0.5-2,1.4-2.6c2.3-1.7,3.8-4.3,4.1-7.1c0-0.3,0.1-0.7,0.1-1c0-3.7-2-7.1-5.3-8.8
				l-0.2-0.1V60h12.1v0.1l0.1-0.1h6.2v4.2l-0.2,0.1c-3.3,1.7-5.3,5.1-5.3,8.8c0,0.3,0,0.6,0,0.9c0.2,2.9,1.7,5.5,4.1,7.3
				c0.9,0.6,1.4,1.6,1.4,2.6v0.4L160.5,84.2z M143.3,83.5h16.8c-0.1-0.7-0.5-1.2-1-1.7c-2.5-1.8-4.2-4.7-4.4-7.8c0-0.3,0-0.6,0-0.9
				c0-3.9,2.1-7.5,5.5-9.4v-3.1H155c-0.6,0.8-1,1.8-1.3,2.8l-0.9,3.1l0.2-3.2c0-0.4,0.1-0.8,0.1-1.1c0.1-0.5,0.2-1.1,0.4-1.6h-10.2
				v3.1c3.4,1.9,5.5,5.5,5.5,9.4c0,0.4,0,0.8-0.1,1.1c-0.3,3-1.9,5.8-4.4,7.6C143.7,82.3,143.4,82.9,143.3,83.5z"/>
		</g>
		<g>
			<path class="st4" d="M172.4,66.6c0,1.4-0.3,2.8-0.8,4l0,0c-0.8,2-2.3,3.7-4.2,4.8c-0.1,0.1-0.3,0.2-0.4,0.3
				c-0.7,0.4-1.5,0.7-2.3,0.9l0,0c-0.5,0.1-1,0.2-1.5,0.3c-0.4,0-0.7,0.1-1.1,0.1c-0.4,0-0.7,0-1-0.1l0,0c-0.3,0-0.7-0.1-1-0.1
				c-1-0.2-1.9-0.5-2.8-1c-0.3-0.1-0.6-0.3-0.8-0.5c-0.1-0.1-0.3-0.2-0.4-0.3c-0.4-0.3-0.8-0.6-1.1-0.9c-0.1-0.1-0.2-0.2-0.3-0.3
				c-0.2-0.2-0.4-0.4-0.6-0.7c-0.1-0.1-0.2-0.3-0.3-0.4c-0.2-0.3-0.4-0.5-0.6-0.8c-0.1-0.1-0.1-0.2-0.2-0.4c-0.2-0.3-0.3-0.7-0.5-1
				c-0.1-0.1-0.1-0.3-0.2-0.5c-0.1-0.2-0.1-0.3-0.2-0.5c0-0.1-0.1-0.2-0.1-0.3c0-0.1,0-0.1-0.1-0.2c-0.1-0.5-0.2-1-0.3-1.5
				c0-0.3,0-0.6,0-0.9c0,0.7-0.1,1.4-0.3,2.1c-0.2,1.1-0.6,2.1-1.2,3c-0.2,0.4-0.5,0.8-0.8,1.2c-0.1,0.1-0.1,0.2-0.2,0.3
				c-0.2,0.3-0.5,0.5-0.7,0.8c-0.1,0.1-0.1,0.1-0.2,0.2c-0.1,0.1-0.2,0.2-0.3,0.3c-0.1,0.1-0.2,0.1-0.2,0.2
				c-0.3,0.2-0.6,0.5-0.9,0.7c0,0-0.1,0.1-0.2,0.1c-0.2,0.1-0.5,0.3-0.7,0.4c-0.3,0.1-0.6,0.3-0.9,0.4c-0.1,0.1-0.3,0.1-0.4,0.2
				c-0.1,0-0.3,0.1-0.5,0.1s-0.4,0.1-0.6,0.1c-0.1,0-0.3,0-0.4,0.1c-0.6,0.1-1.3,0.2-2,0.2c-0.4,0-0.7,0-1.1-0.1
				c-0.5,0-1-0.1-1.5-0.3c-0.8-0.2-1.6-0.5-2.4-0.9c-0.1-0.1-0.3-0.2-0.4-0.3c-1.9-1.1-3.3-2.8-4.2-4.8l0,0c-0.5-1.2-0.8-2.6-0.8-4
				c0-0.3,0-0.7,0-1v-0.1c0-0.5,0.1-1,0.3-1.5c0.2-0.7,0.4-1.3,0.7-1.9c0.1-0.1,0.1-0.3,0.2-0.4c0.2-0.3,0.3-0.6,0.5-0.9
				c0.3-0.4,0.6-0.8,1-1.2c0.9-0.9,1.9-1.7,3-2.3c0.3-0.2,0.7-0.3,1-0.4c0.1-0.1,0.3-0.1,0.5-0.2c0.2-0.1,0.3-0.1,0.5-0.2l0,0
				c0.7-0.2,1.4-0.4,2-0.6c0.3-0.1,0.6-0.2,0.9-0.4c1.3-0.6,2.6-1.4,3.7-2.3c1.4-1.1,2.6-2.5,3.6-3.9c1.2-1.7,2.2-3.7,2.5-5.8
				c0-0.1,0-0.3,0.1-0.4c0-0.1,0-0.5,0.2-0.5l0,0l0,0c0.2,0.3,0.2,0.7,0.3,1c0.6,2.1,1.4,4.1,2.7,5.9c0,0,0,0,0.1,0.1
				c1.4,2,3.3,3.8,5.4,5c-2.7,0.9-5,3.1-6.2,5.8c-0.3,0.6-0.4,1.3-0.6,2c-0.1,0.4-0.1,0.7-0.1,1.1c0.3-1.1,0.8-2.1,1.5-3
				c1.7-2.4,4.5-4.1,7.5-4.2c0.9,0,1.8,0.1,2.7,0.4l0,0c0.4,0.1,0.8,0.3,1.1,0.4c3.1,1.3,5.4,4.1,6.1,7.3c0,0.2,0.1,0.4,0.1,0.6
				s0.1,0.5,0.1,0.7s0,0.3,0,0.5C172.4,66.3,172.4,66.4,172.4,66.6z"/>
		</g>
		<g>
			<path class="st5" d="M162,77.4c-0.4,0-0.7,0-1.1-0.1c-0.4,0-0.7-0.1-1-0.2c-1-0.2-2-0.5-2.9-1c-0.3-0.1-0.6-0.3-0.9-0.5
				c-0.1-0.1-0.3-0.2-0.4-0.3c-0.4-0.3-0.8-0.6-1.1-0.9l-0.3-0.3c-0.2-0.2-0.4-0.4-0.6-0.7c-0.1-0.1-0.1-0.2-0.2-0.3l-0.1-0.1
				c-0.2-0.3-0.4-0.6-0.6-0.9c-0.1-0.1-0.1-0.2-0.2-0.3c-0.2-0.4-0.4-0.7-0.5-1.1c-0.1-0.1-0.1-0.3-0.2-0.4
				c-0.1-0.2-0.2-0.4-0.2-0.6c0-0.1-0.1-0.2-0.1-0.3v-0.1c-0.2,0.9-0.6,1.8-1.1,2.6c-0.2,0.4-0.5,0.8-0.9,1.2c0,0.1-0.1,0.1-0.1,0.2
				l-0.1,0.1c-0.2,0.3-0.5,0.6-0.8,0.8c-0.1,0.1-0.1,0.1-0.2,0.2c-0.1,0.1-0.1,0.1-0.2,0.2L148,75c-0.3,0.3-0.7,0.5-1,0.7
				c0,0-0.1,0.1-0.2,0.1c-0.2,0.1-0.5,0.3-0.7,0.4c-0.3,0.1-0.6,0.3-0.9,0.4c-0.2,0.1-0.3,0.1-0.5,0.2l-0.5,0.1
				c-0.2,0.1-0.4,0.1-0.6,0.2l-0.4,0.1c-1.1,0.2-2.1,0.3-3.2,0.1c-0.5,0-1-0.1-1.6-0.3c-0.9-0.2-1.7-0.5-2.4-1l-0.2-0.1
				c-0.1-0.1-0.2-0.1-0.3-0.2c-1.9-1.1-3.4-2.9-4.3-4.9v-0.1c-0.6-1.3-0.8-2.7-0.8-4.2c0-0.3,0-0.7,0-1c0.1-0.6,0.2-1.2,0.3-1.7
				c0.2-0.7,0.4-1.3,0.7-2c0.1-0.1,0.1-0.3,0.2-0.5c0.2-0.3,0.4-0.6,0.5-0.9c0.3-0.4,0.6-0.8,1-1.3c0.9-1,2-1.8,3.1-2.4
				c0.3-0.2,0.7-0.3,1.1-0.4c0.1-0.1,0.3-0.1,0.5-0.2c0.1,0,0.2-0.1,0.4-0.1l0.6-0.2c0.5-0.1,1.1-0.3,1.6-0.5
				c0.3-0.1,0.6-0.2,0.8-0.4c1.3-0.6,2.5-1.4,3.7-2.3c1.4-1.1,2.5-2.4,3.5-3.8c1.3-2,2.1-3.9,2.4-5.7c0-0.1,0-0.3,0.1-0.4
				c0-0.3,0-0.6,0.3-0.8l0.1-0.1h0.5v0.3c0.1,0.2,0.2,0.5,0.2,0.7c0,0.1,0,0.2,0.1,0.3c0.6,2.2,1.5,4.2,2.6,5.8l-0.2,0.3l0.3-0.2
				c1.4,2,3.2,3.7,5.3,4.9l0.7,0.4l-0.7,0.3c-2.6,0.9-4.6,2.8-5.8,5.2c1.9-2.6,4.8-4.2,7.7-4.3c0.9,0,1.8,0.1,2.7,0.4h0.1l0.1,0.1
				c0.4,0.1,0.7,0.3,1.1,0.4c3.2,1.4,5.6,4.2,6.4,7.5c0,0.2,0.1,0.4,0.1,0.6c0,0.2,0.1,0.5,0.1,0.7s0,0.3,0,0.5s0,0.3,0,0.5
				c0,1.4-0.3,2.9-0.8,4.2v0.1c-0.9,2-2.4,3.8-4.3,4.9c-0.1,0.1-0.2,0.1-0.3,0.2l-0.2,0.1c-0.8,0.4-1.6,0.7-2.4,1l-0.2,0.1l0,0
				c-0.4,0.1-0.9,0.2-1.4,0.2C162.8,77.3,162.4,77.4,162,77.4z M151.3,66.8h0.7c0,0.3,0,0.6,0,0.8c0.1,0.5,0.1,1,0.3,1.4
				c0,0.1,0,0.1,0,0.2v0.1c0,0.1,0,0.2,0.1,0.2c0,0.2,0.1,0.3,0.2,0.5v0.1c0,0.1,0.1,0.2,0.1,0.4c0.1,0.3,0.3,0.7,0.5,1
				c0.1,0.1,0.1,0.2,0.2,0.3c0.2,0.3,0.3,0.5,0.5,0.8l0.1,0.1c0.1,0.1,0.1,0.2,0.2,0.3c0.2,0.2,0.4,0.4,0.6,0.6l0.3,0.3
				c0.3,0.3,0.7,0.6,1.1,0.9c0.1,0.1,0.3,0.2,0.4,0.3c0.3,0.2,0.5,0.3,0.8,0.5c0.9,0.5,1.8,0.8,2.7,1c0.3,0.1,0.6,0.1,0.9,0.1
				c0.7,0.1,1.4,0.1,2,0c0.5,0,1-0.1,1.4-0.3l0.2-0.1l0,0c0.7-0.2,1.4-0.5,2.1-0.8l0.2-0.1c0.1-0.1,0.2-0.1,0.3-0.2
				c1.8-1.1,3.2-2.7,4-4.7v-0.1c0.5-1.2,0.8-2.5,0.8-3.8c0-0.2,0-0.3,0-0.5s0-0.3,0-0.5s-0.1-0.5-0.1-0.7s-0.1-0.4-0.1-0.5
				c-0.7-3.1-3-5.8-5.9-7c-0.4-0.2-0.7-0.3-1.1-0.4l0,0c-0.8-0.2-1.7-0.3-2.5-0.3c-2.7,0.1-5.5,1.6-7.2,4c-0.6,0.9-1.1,1.9-1.4,2.9
				l-0.9,3l0.2-3.1c0-0.3,0.1-0.7,0.2-1.1c0.1-0.7,0.3-1.4,0.6-2.1c1.1-2.6,3.1-4.7,5.7-5.8c-1.9-1.3-3.6-2.9-4.9-4.7l0.2-0.3
				l-0.3,0.2c-1.1-1.6-2-3.5-2.6-5.7c-0.4,1.8-1.2,3.6-2.5,5.5c-1,1.5-2.3,2.9-3.7,4c-1.2,0.9-2.5,1.7-3.8,2.4
				c-0.3,0.1-0.6,0.3-0.9,0.4c-0.6,0.2-1.1,0.4-1.7,0.5l-0.5,0.2c-0.1,0-0.2,0.1-0.4,0.1s-0.3,0.1-0.5,0.2c-0.4,0.1-0.7,0.3-1,0.4
				c-1.1,0.5-2.1,1.3-2.9,2.2c-0.4,0.4-0.7,0.8-0.9,1.2c-0.2,0.3-0.4,0.6-0.5,0.8c-0.1,0.1-0.1,0.3-0.2,0.4
				c-0.3,0.6-0.5,1.2-0.7,1.8c-0.1,0.5-0.2,1-0.3,1.5v0.2c0,0.2,0,0.5,0,0.9c0,1.3,0.3,2.6,0.8,3.8v0.1c0.8,1.9,2.2,3.6,4,4.7
				c0.1,0.1,0.2,0.1,0.2,0.1l0.2,0.1c0.7,0.4,1.5,0.7,2.3,0.9c0.5,0.1,1,0.2,1.5,0.3c1,0.1,1.9,0.1,2.9-0.1l0.4-0.1
				c0.2,0,0.4-0.1,0.5-0.1l0.4-0.1c0.1,0,0.3-0.1,0.4-0.1c0.3-0.1,0.6-0.2,0.9-0.4c0.2-0.1,0.4-0.2,0.6-0.4c0.1-0.1,0.1-0.1,0.1-0.1
				c0.3-0.2,0.6-0.4,0.9-0.7l0.3-0.3c0.1,0,0.1-0.1,0.2-0.1c0.1-0.1,0.1-0.1,0.2-0.2c0.3-0.2,0.5-0.5,0.7-0.8L149,73l0.1-0.1
				c0.3-0.4,0.6-0.8,0.8-1.2c0.5-0.9,0.9-1.8,1.1-2.9C151.2,68.2,151.3,67.5,151.3,66.8z"/>
		</g>
	</g>
	<g>
		<g>
			<path class="st4" d="M75.6,73.1c0,0.3,0,0.6,0,0.9c0.3,3.1,1.9,5.8,4.3,7.5c0.7,0.5,1.2,1.4,1.2,2.3l0,0H63.5l0,0
				c0-0.9,0.5-1.8,1.2-2.3c2.3-1.7,3.9-4.3,4.2-7.4c0-0.3,0.1-0.7,0.1-1c0-4-2.2-7.4-5.5-9.2v-3.6h11.1c-0.3,0.6-0.5,1.3-0.6,2
				c0,0.4,0,0.7,0,1.1c0.3-1.1,0.8-2.1,1.5-3.1h5.7V64C77.8,65.7,75.6,69.2,75.6,73.1z"/>
		</g>
		<g>
			<path class="st5" d="M81.1,84.2h-18v-0.4c0-1,0.5-2,1.4-2.6c2.3-1.7,3.8-4.3,4.1-7.1c0-0.3,0.1-0.7,0.1-1c0-3.7-2-7.1-5.3-8.8
				l-0.2-0.1V60h12.1v0.1l0.1-0.1h6.2v4.2l-0.2,0.1C78,66,76,69.4,76,73.1c0,0.3,0,0.6,0,0.9c0.2,2.9,1.7,5.5,4.1,7.3
				c0.9,0.6,1.4,1.6,1.4,2.6v0.4L81.1,84.2z M63.9,83.5h16.8c-0.1-0.7-0.5-1.2-1-1.7c-2.5-1.8-4.2-4.7-4.4-7.8c0-0.3,0-0.6,0-0.9
				c0-3.9,2.1-7.5,5.5-9.4v-3.1h-5.1c-0.6,0.8-1,1.8-1.3,2.8l-0.9,3.1l0.2-3.2c0-0.4,0.1-0.8,0.1-1.1c0.1-0.5,0.2-1.1,0.4-1.6H63.9
				v3.1c3.4,1.9,5.5,5.5,5.5,9.4c0,0.4,0,0.8-0.1,1.1c-0.3,3-1.9,5.8-4.4,7.6C64.4,82.3,64,82.9,63.9,83.5z"/>
		</g>
		<g>
			<path class="st4" d="M93.1,66.6c0,1.4-0.3,2.8-0.8,4l0,0c-0.8,2-2.3,3.7-4.2,4.8c-0.1,0.1-0.3,0.2-0.4,0.3
				c-0.7,0.4-1.5,0.7-2.3,0.9l0,0c-0.5,0.1-1,0.2-1.5,0.3c-0.4,0-0.7,0.1-1.1,0.1s-0.7,0-1-0.1l0,0c-0.3,0-0.7-0.1-1-0.1
				c-1-0.2-1.9-0.5-2.8-1c-0.3-0.1-0.6-0.3-0.8-0.5c-0.1-0.1-0.3-0.2-0.4-0.3c-0.4-0.3-0.8-0.6-1.1-0.9c-0.1-0.1-0.2-0.2-0.3-0.3
				c-0.2-0.2-0.4-0.4-0.6-0.7c-0.1-0.1-0.2-0.3-0.3-0.4c-0.2-0.3-0.4-0.5-0.6-0.8c-0.1-0.1-0.1-0.2-0.2-0.4c-0.2-0.3-0.3-0.7-0.5-1
				c-0.1-0.1-0.1-0.3-0.2-0.5s-0.1-0.3-0.2-0.5c0-0.1-0.1-0.2-0.1-0.3c0-0.1,0-0.1-0.1-0.2c-0.1-0.5-0.2-1-0.3-1.5
				c0-0.3,0-0.6,0-0.9c0,0.7-0.1,1.4-0.3,2.1c-0.2,1.1-0.6,2.1-1.2,3c-0.2,0.4-0.5,0.8-0.8,1.2c-0.1,0.1-0.1,0.2-0.2,0.3
				c-0.2,0.3-0.5,0.5-0.7,0.8c-0.1,0.1-0.1,0.1-0.2,0.2s-0.2,0.2-0.3,0.3c-0.1,0.1-0.2,0.1-0.2,0.2c-0.3,0.2-0.6,0.5-0.9,0.7
				c0,0-0.1,0.1-0.2,0.1c-0.2,0.1-0.5,0.3-0.7,0.4c-0.3,0.1-0.6,0.3-0.9,0.4c-0.1,0.1-0.3,0.1-0.4,0.2c-0.1,0-0.3,0.1-0.5,0.1
				s-0.4,0.1-0.6,0.1c-0.1,0-0.3,0-0.4,0.1c-0.6,0.1-1.3,0.2-2,0.2c-0.4,0-0.7,0-1.1-0.1c-0.5,0-1-0.1-1.5-0.3
				c-0.8-0.2-1.6-0.5-2.4-0.9c-0.1-0.1-0.3-0.2-0.4-0.3c-1.9-1.1-3.3-2.8-4.2-4.8l0,0c-0.5-1.2-0.8-2.6-0.8-4c0-0.3,0-0.7,0-1v-0.1
				c0-0.5,0.1-1,0.3-1.5c0.2-0.7,0.4-1.3,0.7-1.9c0.1-0.1,0.1-0.3,0.2-0.4c0.2-0.3,0.3-0.6,0.5-0.9c0.3-0.4,0.6-0.8,1-1.2
				c0.9-0.9,1.9-1.7,3-2.3c0.3-0.2,0.7-0.3,1-0.4c0.1-0.1,0.3-0.1,0.5-0.2c0.2-0.1,0.3-0.1,0.5-0.2l0,0c0.7-0.2,1.4-0.4,2-0.6
				c0.3-0.1,0.6-0.2,0.9-0.4c1.3-0.6,2.6-1.4,3.7-2.3c1.4-1.1,2.6-2.5,3.6-3.9c1.2-1.7,2.2-3.7,2.5-5.8c0-0.1,0-0.3,0.1-0.4
				c0-0.1,0-0.5,0.2-0.5l0,0l0,0c0.2,0.3,0.2,0.7,0.3,1c0.6,2.1,1.4,4.1,2.7,5.9c0,0,0,0,0.1,0.1c1.4,2,3.3,3.8,5.4,5
				c-2.7,0.9-5,3.1-6.2,5.8c-0.3,0.6-0.4,1.3-0.6,2c-0.1,0.4-0.1,0.7-0.1,1.1c0.3-1.1,0.8-2.1,1.5-3c1.7-2.4,4.5-4.1,7.5-4.2
				c0.9,0,1.8,0.1,2.7,0.4l0,0c0.4,0.1,0.8,0.3,1.1,0.4c3.1,1.3,5.4,4.1,6.1,7.3c0,0.2,0.1,0.4,0.1,0.6s0.1,0.5,0.1,0.7s0,0.3,0,0.5
				C93.1,66.3,93.1,66.4,93.1,66.6z"/>
		</g>
		<g>
			<path class="st5" d="M82.7,77.4c-0.4,0-0.7,0-1.1-0.1c-0.4,0-0.7-0.1-1-0.2c-1-0.2-2-0.5-2.9-1c-0.3-0.1-0.6-0.3-0.9-0.5
				c-0.1-0.1-0.3-0.2-0.4-0.3c-0.4-0.3-0.8-0.6-1.1-0.9L75,74.1c-0.2-0.2-0.4-0.4-0.6-0.7c-0.1-0.1-0.1-0.2-0.2-0.3L74.1,73
				c-0.2-0.3-0.4-0.6-0.6-0.9c-0.1-0.1-0.1-0.2-0.2-0.3c-0.2-0.4-0.4-0.7-0.5-1.1c-0.1-0.1-0.1-0.3-0.2-0.4
				c-0.1-0.2-0.2-0.4-0.2-0.6c0-0.1-0.1-0.2-0.1-0.3v-0.1c-0.2,0.9-0.6,1.8-1.1,2.6c-0.2,0.4-0.5,0.8-0.9,1.2c0,0.1-0.1,0.1-0.1,0.2
				l-0.1,0.1c-0.2,0.3-0.5,0.6-0.8,0.8c-0.1,0.1-0.1,0.1-0.2,0.2s-0.1,0.1-0.2,0.2L68.6,75c-0.3,0.3-0.7,0.5-1,0.7
				c0,0-0.1,0.1-0.2,0.1c-0.2,0.1-0.5,0.3-0.7,0.4c-0.3,0.1-0.6,0.3-0.9,0.4c-0.2,0.1-0.3,0.1-0.5,0.2L65,76.9
				c-0.2,0.1-0.4,0.1-0.6,0.2L64,77.2c-1.1,0.2-2.1,0.3-3.2,0.1c-0.5,0-1-0.1-1.6-0.3c-0.9-0.2-1.7-0.5-2.4-1l-0.2-0.1
				c-0.1-0.1-0.2-0.1-0.3-0.2c-1.9-1.1-3.4-2.9-4.3-4.9v-0.1c-0.6-1.3-0.8-2.7-0.8-4.2c0-0.3,0-0.7,0-1c0.1-0.6,0.2-1.2,0.3-1.7
				c0.2-0.7,0.4-1.3,0.7-2c0.1-0.1,0.1-0.3,0.2-0.5c0.2-0.3,0.4-0.6,0.5-0.9c0.3-0.4,0.6-0.8,1-1.3c0.9-1,2-1.8,3.1-2.4
				c0.3-0.2,0.7-0.3,1.1-0.4c0.1-0.1,0.3-0.1,0.5-0.2c0.1,0,0.2-0.1,0.4-0.1l0.6-0.2c0.5-0.1,1.1-0.3,1.6-0.5
				c0.3-0.1,0.6-0.2,0.8-0.4c1.3-0.6,2.5-1.4,3.7-2.3c1.4-1.1,2.5-2.4,3.5-3.8c1.3-2,2.1-3.9,2.4-5.7c0-0.1,0-0.3,0.1-0.4
				c0-0.3,0-0.6,0.3-0.8l0.1-0.1h0.5v0.3c0.1,0.2,0.2,0.5,0.2,0.7c0,0.1,0,0.2,0.1,0.3c0.6,2.2,1.5,4.2,2.6,5.8l-0.2,0.3l0.3-0.2
				c1.4,2,3.2,3.7,5.3,4.9l0.7,0.4l-0.7,0.3c-2.6,0.9-4.6,2.8-5.8,5.2c1.9-2.6,4.8-4.2,7.7-4.3c0.9,0,1.8,0.1,2.7,0.4h0.1l0.1,0.1
				c0.4,0.1,0.7,0.3,1.1,0.4c3.2,1.4,5.6,4.2,6.4,7.5c0,0.2,0.1,0.4,0.1,0.6c0,0.2,0.1,0.5,0.1,0.7s0,0.3,0,0.5s0,0.3,0,0.5
				c0,1.4-0.3,2.9-0.8,4.2v0.1c-0.9,2-2.4,3.8-4.3,4.9c-0.1,0.1-0.2,0.1-0.3,0.2l-0.2,0.1c-0.8,0.4-1.6,0.7-2.4,1l-0.2,0.1l0,0
				c-0.4,0.1-0.9,0.2-1.4,0.2C83.5,77.3,83.1,77.4,82.7,77.4z M72,66.8h0.7c0,0.3,0,0.6,0,0.8c0.1,0.5,0.1,1,0.3,1.4
				c0,0.1,0,0.1,0,0.2v0.1c0,0.1,0,0.2,0.1,0.2c0,0.2,0.1,0.3,0.2,0.5v0.1c0,0.1,0.1,0.2,0.1,0.4c0.1,0.3,0.3,0.7,0.5,1
				c0.1,0.1,0.1,0.2,0.2,0.3c0.2,0.3,0.3,0.5,0.5,0.8l0.1,0.1c0.1,0.1,0.1,0.2,0.2,0.3c0.2,0.2,0.4,0.4,0.6,0.6l0.3,0.3
				c0.3,0.3,0.7,0.6,1.1,0.9c0.1,0.1,0.3,0.2,0.4,0.3c0.3,0.2,0.5,0.3,0.8,0.5c0.9,0.5,1.8,0.8,2.7,1c0.3,0.1,0.6,0.1,0.9,0.1
				c0.7,0.1,1.4,0.1,2,0c0.5,0,1-0.1,1.4-0.3l0.2-0.1l0,0c0.7-0.2,1.4-0.5,2.1-0.8l0.2-0.1c0.1-0.1,0.2-0.1,0.3-0.2
				c1.8-1.1,3.2-2.7,4-4.7v-0.1c0.5-1.2,0.8-2.5,0.8-3.8c0-0.2,0-0.3,0-0.5s0-0.3,0-0.5s-0.1-0.5-0.1-0.7s-0.1-0.4-0.1-0.5
				c-0.7-3.1-3-5.8-5.9-7c-0.4-0.2-0.7-0.3-1.1-0.4l0,0c-0.8-0.2-1.7-0.3-2.5-0.3c-2.7,0.1-5.5,1.6-7.2,4c-0.6,0.9-1.1,1.9-1.4,2.9
				l-0.9,3l0.2-3.1c0-0.3,0.1-0.7,0.2-1.1c0.1-0.7,0.3-1.4,0.6-2.1c1.1-2.6,3.1-4.7,5.7-5.8c-1.9-1.3-3.6-2.9-4.9-4.7l0.2-0.3
				L75,49.7c-1.1-1.6-2-3.5-2.6-5.7c-0.4,1.8-1.2,3.6-2.5,5.5c-1,1.5-2.3,2.9-3.7,4c-1.2,0.9-2.5,1.7-3.8,2.4
				c-0.3,0.1-0.6,0.3-0.9,0.4c-0.6,0.2-1.1,0.4-1.7,0.5L59.3,57c-0.1,0-0.2,0-0.3,0c-0.2,0-0.3,0.1-0.5,0.2c-0.4,0.1-0.7,0.3-1,0.4
				c-1.1,0.5-2.1,1.3-2.9,2.2c-0.4,0.4-0.7,0.8-0.9,1.2c-0.2,0.3-0.4,0.6-0.5,0.8c-0.1,0.1-0.1,0.3-0.2,0.4
				c-0.3,0.6-0.5,1.2-0.7,1.8c-0.1,0.5-0.2,1-0.3,1.5v0.2c0,0.2,0,0.5,0,0.9c0,1.3,0.3,2.6,0.8,3.8v0.1c0.8,1.9,2.2,3.6,4,4.7
				c0.1,0.1,0.2,0.1,0.2,0.1l0.2,0.1c0.7,0.4,1.5,0.7,2.3,0.9c0.5,0.1,1,0.2,1.5,0.3c1,0.1,1.9,0.1,2.9-0.1l0.4-0.1
				c0.2,0,0.4-0.1,0.5-0.1l0.4-0.1c0.1,0,0.3-0.1,0.4-0.1c0.3-0.1,0.6-0.2,0.9-0.4c0.2-0.1,0.4-0.2,0.6-0.4c0.1-0.1,0.1-0.1,0.1-0.1
				c0.3-0.2,0.6-0.4,0.9-0.7l0.3-0.3c0.1,0,0.1-0.1,0.2-0.1c0.1-0.1,0.1-0.1,0.2-0.2c0.3-0.2,0.5-0.5,0.7-0.8l0.1-0.1l0.1-0.1
				c0.3-0.4,0.6-0.8,0.8-1.2c0.5-0.9,0.9-1.8,1.1-2.9C71.9,68.2,72,67.5,72,66.8z"/>
		</g>
	</g>
	<g>
		<g>
			<path class="st4" d="M148.4,146.8c0-0.3,0-0.6,0-0.9c-0.3-3.1-1.9-5.8-4.3-7.5c-0.7-0.5-1.2-1.4-1.2-2.3l0,0h17.6l0,0
				c0,0.9-0.5,1.8-1.2,2.3c-2.3,1.7-3.9,4.3-4.2,7.4c0,0.3-0.1,0.7-0.1,1c0,4,2.2,7.4,5.5,9.2v3.6h-11.1c0.3-0.6,0.5-1.3,0.6-2
				c0.1-0.4,0.1-0.7,0.1-1.1c-0.3,1.1-0.8,2.1-1.5,3.1h-5.7V156C146.2,154.3,148.4,150.8,148.4,146.8z"/>
		</g>
		<g>
			<path class="st5" d="M142.9,135.7h18v0.4c0,1-0.5,2-1.4,2.6c-2.3,1.7-3.8,4.3-4.1,7.1c0,0.3-0.1,0.7-0.1,1c0,3.7,2,7.1,5.3,8.8
				l0.2,0.1v4.2h-12.1v-0.1l-0.1,0.1h-6.2v-4.2l0.2-0.1c3.3-1.7,5.3-5.1,5.3-8.8c0-0.3,0-0.6,0-0.9c-0.2-2.9-1.7-5.5-4.1-7.3
				c-0.9-0.6-1.4-1.6-1.4-2.6v-0.4L142.9,135.7z M160.1,136.5h-16.8c0.1,0.7,0.5,1.2,1,1.7c2.5,1.8,4.2,4.7,4.4,7.8
				c0,0.3,0,0.6,0,0.9c0,3.9-2.1,7.5-5.5,9.4v3.1h5.1c0.6-0.8,1-1.8,1.3-2.8l0.9-3.1l-0.2,3.2c0,0.4-0.1,0.8-0.1,1.1
				c-0.1,0.5-0.2,1.1-0.4,1.6H160v-3.1c-3.4-1.9-5.5-5.5-5.5-9.4c0-0.4,0-0.8,0.1-1.1c0.3-3,1.9-5.8,4.4-7.6
				C159.6,137.7,160,137.1,160.1,136.5z"/>
		</g>
		<g>
			<path class="st4" d="M130.9,153.4c0-1.4,0.3-2.8,0.8-4l0,0c0.8-2,2.3-3.7,4.2-4.8c0.1-0.1,0.3-0.2,0.4-0.3
				c0.7-0.4,1.5-0.7,2.3-0.9l0,0c0.5-0.1,1-0.2,1.5-0.3c0.4,0,0.7-0.1,1.1-0.1c0.4,0,0.7,0,1,0.1l0,0c0.3,0,0.7,0.1,1,0.1
				c1,0.2,1.9,0.5,2.8,1c0.3,0.1,0.6,0.3,0.8,0.5c0.1,0.1,0.3,0.2,0.4,0.3c0.4,0.3,0.8,0.6,1.1,0.9c0.1,0.1,0.2,0.2,0.3,0.3
				c0.2,0.2,0.4,0.4,0.6,0.7c0.1,0.1,0.2,0.3,0.3,0.4c0.2,0.3,0.4,0.5,0.6,0.8c0.1,0.1,0.1,0.2,0.2,0.4c0.2,0.3,0.3,0.7,0.5,1
				c0.1,0.1,0.1,0.3,0.2,0.5c0.1,0.2,0.1,0.3,0.2,0.5c0,0.1,0.1,0.2,0.1,0.3s0,0.1,0.1,0.2c0.1,0.5,0.2,1,0.3,1.5c0,0.3,0,0.6,0,0.9
				c0-0.7,0.1-1.4,0.3-2.1c0.2-1.1,0.6-2.1,1.2-3c0.2-0.4,0.5-0.8,0.8-1.2c0.1-0.1,0.1-0.2,0.2-0.3c0.2-0.3,0.5-0.5,0.7-0.8
				c0.1-0.1,0.1-0.1,0.2-0.2c0.1-0.1,0.2-0.2,0.3-0.3s0.2-0.1,0.2-0.2c0.3-0.2,0.6-0.5,0.9-0.7c0,0,0.1-0.1,0.2-0.1
				c0.2-0.1,0.5-0.3,0.7-0.4c0.3-0.1,0.6-0.3,0.9-0.4c0.1-0.1,0.3-0.1,0.4-0.2c0.1,0,0.3-0.1,0.5-0.1s0.4-0.1,0.6-0.1
				c0.1,0,0.3,0,0.4-0.1c0.6-0.1,1.3-0.2,2-0.2c0.4,0,0.7,0,1.1,0.1c0.5,0,1,0.1,1.5,0.3c0.8,0.2,1.6,0.5,2.4,0.9
				c0.1,0.1,0.3,0.2,0.4,0.3c1.9,1.1,3.3,2.8,4.2,4.8l0,0c0.5,1.2,0.8,2.6,0.8,4c0,0.3,0,0.7,0,1v0.1c0,0.5-0.1,1-0.3,1.5
				c-0.2,0.7-0.4,1.3-0.7,1.9c-0.1,0.1-0.1,0.3-0.2,0.4c-0.2,0.3-0.3,0.6-0.5,0.9c-0.3,0.4-0.6,0.8-1,1.2c-0.9,0.9-1.9,1.7-3,2.3
				c-0.3,0.2-0.7,0.3-1,0.4c-0.1,0.1-0.3,0.1-0.5,0.2c-0.2,0.1-0.3,0.1-0.5,0.2l0,0c-0.7,0.2-1.4,0.4-2,0.6
				c-0.3,0.1-0.6,0.2-0.9,0.4c-1.3,0.6-2.6,1.4-3.7,2.3c-1.4,1.1-2.6,2.5-3.6,3.9c-1.2,1.7-2.2,3.7-2.5,5.8c0,0.1,0,0.3-0.1,0.4
				c0,0.1,0,0.5-0.2,0.5l0,0l0,0c-0.2-0.3-0.2-0.7-0.3-1c-0.6-2.1-1.4-4.1-2.7-5.9c0,0,0,0-0.1-0.1c-1.4-2-3.3-3.8-5.4-5
				c2.7-0.9,5-3.1,6.2-5.8c0.3-0.6,0.4-1.3,0.6-2c0.1-0.4,0.1-0.7,0.1-1.1c-0.3,1.1-0.8,2.1-1.5,3c-1.7,2.4-4.5,4.1-7.5,4.2
				c-0.9,0-1.8-0.1-2.7-0.4l0,0c-0.4-0.1-0.8-0.3-1.1-0.4c-3.1-1.3-5.4-4.1-6.1-7.3c0-0.2-0.1-0.4-0.1-0.6c0-0.2-0.1-0.5-0.1-0.7
				s0-0.3,0-0.5C130.9,153.7,130.9,153.5,130.9,153.4z"/>
		</g>
		<g>
			<path class="st5" d="M141.3,142.6c0.4,0,0.7,0,1.1,0.1c0.4,0,0.7,0.1,1,0.2c1,0.2,2,0.5,2.9,1c0.3,0.1,0.6,0.3,0.9,0.5
				c0.1,0.1,0.3,0.2,0.4,0.3c0.4,0.3,0.8,0.6,1.1,0.9l0.3,0.3c0.2,0.2,0.4,0.4,0.6,0.7c0.1,0.1,0.1,0.2,0.2,0.3l0.1,0.1
				c0.2,0.3,0.4,0.6,0.6,0.9c0.1,0.1,0.1,0.2,0.2,0.3c0.2,0.4,0.4,0.7,0.5,1.1c0.1,0.1,0.1,0.3,0.2,0.4c0.1,0.2,0.2,0.4,0.2,0.6
				c0,0.1,0.1,0.2,0.1,0.3v0.1c0.2-0.9,0.6-1.8,1.1-2.6c0.2-0.4,0.5-0.8,0.9-1.2c0-0.1,0.1-0.1,0.1-0.2l0.1-0.1
				c0.2-0.3,0.5-0.6,0.8-0.8c0.1-0.1,0.1-0.1,0.2-0.2c0.1-0.1,0.1-0.1,0.2-0.2l0.4-0.3c0.3-0.3,0.7-0.5,1-0.7c0,0,0.1-0.1,0.2-0.1
				c0.2-0.1,0.5-0.3,0.7-0.4c0.3-0.1,0.6-0.3,0.9-0.4c0.2-0.1,0.3-0.1,0.5-0.2l0.5-0.1c0.2-0.1,0.4-0.1,0.6-0.2l0.4-0.1
				c1.1-0.2,2.1-0.3,3.2-0.1c0.5,0,1,0.1,1.6,0.3c0.9,0.2,1.7,0.5,2.4,1l0.2,0.1c0.1,0.1,0.2,0.1,0.3,0.2c1.9,1.1,3.4,2.9,4.3,4.9
				v0.1c0.6,1.3,0.8,2.7,0.8,4.2c0,0.3,0,0.7,0,1c-0.1,0.6-0.2,1.2-0.3,1.7c-0.2,0.7-0.4,1.3-0.7,2c-0.1,0.1-0.1,0.3-0.2,0.5
				c-0.2,0.3-0.4,0.6-0.5,0.9c-0.3,0.4-0.6,0.8-1,1.3c-0.9,1-2,1.8-3.1,2.4c-0.3,0.2-0.7,0.3-1.1,0.4c-0.1,0.1-0.3,0.1-0.5,0.2
				c-0.1,0-0.2,0.1-0.4,0.1l-0.6,0.2c-0.5,0.1-1.1,0.3-1.6,0.5c-0.3,0.1-0.6,0.2-0.8,0.4c-1.3,0.6-2.5,1.4-3.7,2.3
				c-1.4,1.1-2.5,2.4-3.5,3.8c-1.3,2-2.1,3.9-2.4,5.7c0,0.1,0,0.3-0.1,0.4c0,0.3,0,0.6-0.3,0.8l-0.1,0.1h-0.5V178
				c-0.1-0.2-0.2-0.5-0.2-0.7c0-0.1,0-0.2-0.1-0.3c-0.6-2.2-1.5-4.2-2.6-5.8l0.2-0.3l-0.3,0.2c-1.4-2-3.2-3.7-5.3-4.9l-0.7-0.4
				l0.7-0.3c2.6-0.9,4.6-2.8,5.8-5.2c-1.9,2.6-4.8,4.2-7.7,4.3c-0.9,0-1.8-0.1-2.7-0.4h-0.1l-0.1-0.1c-0.4-0.1-0.7-0.3-1.1-0.4
				c-3.2-1.4-5.6-4.2-6.4-7.5c0-0.2-0.1-0.4-0.1-0.6c0-0.2-0.1-0.5-0.1-0.7s0-0.3,0-0.5s0-0.3,0-0.5c0-1.4,0.3-2.9,0.8-4.2v-0.1
				c0.9-2,2.4-3.8,4.3-4.9c0.1-0.1,0.2-0.1,0.3-0.2l0.2-0.1c0.8-0.4,1.6-0.7,2.4-1l0.2-0.1l0,0c0.4-0.1,0.9-0.2,1.4-0.2
				C140.5,142.6,140.9,142.6,141.3,142.6z M152,153.2h-0.7c0-0.3,0-0.6,0-0.8c-0.1-0.5-0.1-1-0.3-1.4c0-0.1,0-0.1,0-0.2v-0.1
				c0-0.1,0-0.2-0.1-0.2c0-0.2-0.1-0.3-0.2-0.5v-0.1c0-0.1-0.1-0.2-0.1-0.4c-0.1-0.3-0.3-0.7-0.5-1c-0.1-0.1-0.1-0.2-0.2-0.3
				c-0.2-0.3-0.3-0.5-0.5-0.8l-0.1-0.1c-0.1-0.1-0.1-0.2-0.2-0.3c-0.2-0.2-0.4-0.4-0.6-0.6l-0.3-0.3c-0.3-0.3-0.7-0.6-1.1-0.9
				c-0.1-0.1-0.3-0.2-0.4-0.3c-0.3-0.2-0.5-0.3-0.8-0.5c-0.9-0.5-1.8-0.8-2.7-1c-0.3-0.1-0.6-0.1-0.9-0.1c-0.7-0.1-1.4-0.1-2,0
				c-0.5,0-1,0.1-1.4,0.3l-0.2,0.1l0,0c-0.7,0.2-1.4,0.5-2.1,0.8l-0.2,0.1c-0.1,0.1-0.2,0.1-0.3,0.2c-1.8,1.1-3.2,2.7-4,4.7v0.1
				c-0.5,1.2-0.8,2.5-0.8,3.8c0,0.2,0,0.3,0,0.5s0,0.3,0,0.5s0.1,0.5,0.1,0.7s0.1,0.4,0.1,0.5c0.7,3.1,3,5.8,5.9,7
				c0.4,0.2,0.7,0.3,1.1,0.4l0,0c0.8,0.2,1.7,0.3,2.5,0.3c2.7-0.1,5.5-1.6,7.2-4c0.6-0.9,1.1-1.9,1.4-2.9l0.9-3l-0.2,3.1
				c0,0.3-0.1,0.7-0.2,1.1c-0.1,0.7-0.3,1.4-0.6,2.1c-1.1,2.6-3.1,4.7-5.7,5.8c1.9,1.3,3.6,2.9,4.9,4.7l-0.2,0.3l0.3-0.2
				c1.1,1.6,2,3.5,2.6,5.7c0.4-1.8,1.2-3.6,2.5-5.5c1-1.5,2.3-2.9,3.7-4c1.2-0.9,2.5-1.7,3.8-2.4c0.3-0.1,0.6-0.3,0.9-0.4
				c0.6-0.2,1.1-0.4,1.7-0.5l0.5-0.2c0.1,0,0.2-0.1,0.4-0.1s0.3-0.1,0.5-0.2c0.4-0.1,0.7-0.3,1-0.4c1.1-0.5,2.1-1.3,2.9-2.2
				c0.4-0.4,0.7-0.8,0.9-1.2c0.2-0.3,0.4-0.6,0.5-0.8c0.1-0.1,0.1-0.3,0.2-0.4c0.3-0.6,0.5-1.2,0.7-1.8c0.1-0.5,0.2-1,0.3-1.5v-0.2
				c0-0.2,0-0.5,0-0.9c0-1.3-0.3-2.6-0.8-3.8v-0.1c-0.8-1.9-2.2-3.6-4-4.7c-0.1-0.1-0.2-0.1-0.2-0.1l-0.2-0.1
				c-0.7-0.4-1.5-0.7-2.3-0.9c-0.5-0.1-1-0.2-1.5-0.3c-1-0.1-1.9-0.1-2.9,0.1l-0.4,0.1c-0.2,0-0.4,0.1-0.5,0.1l-0.4,0.1
				c-0.1,0-0.3,0.1-0.4,0.1c-0.3,0.1-0.6,0.2-0.9,0.4c-0.2,0.1-0.4,0.2-0.6,0.4c-0.1,0.1-0.1,0.1-0.1,0.1c-0.3,0.2-0.6,0.4-0.9,0.7
				l-0.3,0.3c-0.1,0-0.1,0.1-0.2,0.1c-0.1,0.1-0.1,0.1-0.2,0.2c-0.3,0.2-0.5,0.5-0.7,0.8l-0.1,0.1l-0.1,0.1
				c-0.3,0.4-0.6,0.8-0.8,1.2c-0.5,0.9-0.9,1.8-1.1,2.9C152.1,151.8,152,152.4,152,153.2z"/>
		</g>
	</g>
	<g>
		<g>
			<path class="st4" d="M75.6,166.7c0,0.3,0,0.6,0,0.9c0.3,3.1,1.9,5.8,4.3,7.5c0.7,0.5,1.2,1.4,1.2,2.3l0,0H63.5l0,0
				c0-0.9,0.5-1.8,1.2-2.3c2.3-1.7,3.9-4.3,4.2-7.4c0-0.3,0.1-0.7,0.1-1c0-4-2.2-7.4-5.5-9.2v-3.6h11.1c-0.3,0.6-0.5,1.3-0.6,2
				c-0.1,0.4-0.1,0.7-0.1,1.1c0.3-1.1,0.8-2.1,1.5-3.1h5.7v3.6C77.8,159.3,75.6,162.7,75.6,166.7z"/>
		</g>
		<g>
			<path class="st5" d="M81.1,177.8h-18v-0.4c0-1,0.5-2,1.4-2.6c2.3-1.7,3.8-4.3,4.1-7.1c0-0.3,0.1-0.7,0.1-1c0-3.7-2-7.1-5.3-8.8
				l-0.2-0.1v-4.2h12.1v0.1l0.1-0.1h6.2v4.2l-0.2,0.1c-3.3,1.7-5.3,5.1-5.3,8.8c0,0.3,0,0.6,0,0.9c0.2,2.9,1.7,5.5,4.1,7.3
				c0.9,0.6,1.4,1.6,1.4,2.6v0.4L81.1,177.8z M63.9,177.1h16.8c-0.1-0.7-0.5-1.2-1-1.7c-2.5-1.8-4.2-4.7-4.4-7.8c0-0.3,0-0.6,0-0.9
				c0-3.9,2.1-7.5,5.5-9.4v-3.1h-5.1c-0.6,0.8-1,1.8-1.3,2.8l-0.9,3.1l0.2-3.2c0-0.4,0.1-0.8,0.1-1.1c0.1-0.5,0.2-1.1,0.4-1.6H63.9
				v3.1c3.4,1.9,5.5,5.5,5.5,9.4c0,0.4,0,0.8-0.1,1.1c-0.3,3-1.9,5.8-4.4,7.6C64.4,175.8,64,176.4,63.9,177.1z"/>
		</g>
		<g>
			<path class="st4" d="M93.1,160.2c0,1.4-0.3,2.8-0.8,4l0,0c-0.8,2-2.3,3.7-4.2,4.8c-0.1,0.1-0.3,0.2-0.4,0.3
				c-0.7,0.4-1.5,0.7-2.3,0.9l0,0c-0.5,0.1-1,0.2-1.5,0.3c-0.4,0-0.7,0.1-1.1,0.1s-0.7,0-1-0.1l0,0c-0.3,0-0.7-0.1-1-0.1
				c-1-0.2-1.9-0.5-2.8-1c-0.3-0.1-0.6-0.3-0.8-0.5c-0.1-0.1-0.3-0.2-0.4-0.3c-0.4-0.3-0.8-0.6-1.1-0.9c-0.1-0.1-0.2-0.2-0.3-0.3
				c-0.2-0.2-0.4-0.4-0.6-0.7c-0.1-0.1-0.2-0.3-0.3-0.4c-0.2-0.3-0.4-0.5-0.6-0.8c-0.1-0.1-0.1-0.2-0.2-0.4c-0.2-0.3-0.3-0.7-0.5-1
				c-0.1-0.1-0.1-0.3-0.2-0.5s-0.1-0.3-0.2-0.5c0-0.1-0.1-0.2-0.1-0.3s0-0.1-0.1-0.2c-0.1-0.5-0.2-1-0.3-1.5c0-0.3,0-0.6,0-0.9
				c0,0.7-0.1,1.4-0.3,2.1c-0.2,1.1-0.6,2.1-1.2,3c-0.2,0.4-0.5,0.8-0.8,1.2c-0.1,0.1-0.1,0.2-0.2,0.3c-0.2,0.3-0.5,0.5-0.7,0.8
				c-0.1,0.1-0.1,0.1-0.2,0.2c-0.1,0.1-0.2,0.2-0.3,0.3c-0.1,0.1-0.2,0.1-0.2,0.2c-0.3,0.2-0.6,0.5-0.9,0.7c0,0-0.1,0.1-0.2,0.1
				c-0.2,0.1-0.5,0.3-0.7,0.4c-0.3,0.1-0.6,0.3-0.9,0.4c-0.1,0.1-0.3,0.1-0.4,0.2c-0.1,0-0.3,0.1-0.5,0.1s-0.4,0.1-0.6,0.1
				c-0.1,0-0.3,0-0.4,0.1c-0.6,0.1-1.3,0.2-2,0.2c-0.4,0-0.7,0-1.1-0.1c-0.5,0-1-0.1-1.5-0.3c-0.8-0.2-1.6-0.5-2.4-0.9
				c-0.1-0.1-0.3-0.2-0.4-0.3c-1.9-1.1-3.3-2.8-4.2-4.8l0,0c-0.5-1.2-0.8-2.6-0.8-4c0-0.3,0-0.7,0-1v-0.1c0-0.5,0.1-1,0.3-1.5
				c0.2-0.7,0.4-1.3,0.7-1.9c0.1-0.1,0.1-0.3,0.2-0.4c0.2-0.3,0.3-0.6,0.5-0.9c0.3-0.4,0.6-0.8,1-1.2c0.9-0.9,1.9-1.7,3-2.3
				c0.3-0.2,0.7-0.3,1-0.4c0.1-0.1,0.3-0.1,0.5-0.2c0.2-0.1,0.3-0.1,0.5-0.2l0,0c0.7-0.2,1.4-0.4,2-0.6c0.3-0.1,0.6-0.2,0.9-0.4
				c1.3-0.6,2.6-1.4,3.7-2.3c1.4-1.1,2.6-2.5,3.6-3.9c1.2-1.7,2.2-3.7,2.5-5.8c0-0.1,0-0.3,0.1-0.4c0-0.1,0-0.5,0.2-0.5l0,0l0,0
				c0.2,0.3,0.2,0.7,0.3,1c0.6,2.1,1.4,4.1,2.7,5.9c0,0,0,0,0.1,0.1c1.4,2,3.3,3.8,5.4,5c-2.7,0.9-5,3.1-6.2,5.8
				c-0.3,0.6-0.4,1.3-0.6,2c-0.1,0.4-0.1,0.7-0.1,1.1c0.3-1.1,0.8-2.1,1.5-3c1.7-2.4,4.5-4.1,7.5-4.2c0.9,0,1.8,0.1,2.7,0.4l0,0
				c0.4,0.1,0.8,0.3,1.1,0.4c3.1,1.3,5.4,4.1,6.1,7.3c0,0.2,0.1,0.4,0.1,0.6c0,0.2,0.1,0.5,0.1,0.7s0,0.3,0,0.5
				C93.1,159.8,93.1,160,93.1,160.2z"/>
		</g>
		<g>
			<path class="st5" d="M82.7,170.9c-0.4,0-0.7,0-1.1-0.1c-0.4,0-0.7-0.1-1-0.2c-1-0.2-2-0.5-2.9-1c-0.3-0.1-0.6-0.3-0.9-0.5
				c-0.1-0.1-0.3-0.2-0.4-0.3c-0.4-0.3-0.8-0.6-1.1-0.9l-0.3-0.3c-0.2-0.2-0.4-0.4-0.6-0.7c-0.1-0.1-0.1-0.2-0.2-0.3l-0.1-0.1
				c-0.2-0.3-0.4-0.6-0.6-0.9c-0.1-0.1-0.1-0.2-0.2-0.3c-0.2-0.4-0.4-0.7-0.5-1.1c-0.1-0.1-0.1-0.3-0.2-0.4
				c-0.1-0.2-0.2-0.4-0.2-0.6c0-0.1-0.1-0.2-0.1-0.3v-0.1c-0.2,0.9-0.6,1.8-1.1,2.6c-0.2,0.4-0.5,0.8-0.9,1.2c0,0.1-0.1,0.1-0.1,0.2
				l-0.1,0.1c-0.2,0.3-0.5,0.6-0.8,0.8c-0.1,0.1-0.1,0.1-0.2,0.2c-0.1,0.1-0.1,0.1-0.2,0.2l-0.4,0.3c-0.3,0.3-0.7,0.5-1,0.7
				c0,0-0.1,0.1-0.2,0.1c-0.2,0.1-0.5,0.3-0.7,0.4c-0.3,0.1-0.6,0.3-0.9,0.4c-0.2,0.1-0.3,0.1-0.5,0.2l-0.5,0.1
				c-0.2,0.1-0.4,0.1-0.6,0.2l-0.4,0.1c-1.1,0.2-2.1,0.3-3.2,0.1c-0.5,0-1-0.1-1.6-0.3c-0.9-0.2-1.7-0.5-2.4-1l-0.2-0.1
				c-0.1-0.1-0.2-0.1-0.3-0.2c-1.9-1.1-3.4-2.9-4.3-4.9v-0.1c-0.6-1.3-0.8-2.7-0.8-4.2c0-0.3,0-0.7,0-1c0.1-0.6,0.2-1.2,0.3-1.7
				c0.2-0.7,0.4-1.3,0.7-2c0.1-0.1,0.1-0.3,0.2-0.5c0.2-0.3,0.4-0.6,0.5-0.9c0.3-0.4,0.6-0.8,1-1.3c0.9-1,2-1.8,3.1-2.4
				c0.3-0.2,0.7-0.3,1.1-0.4c0.1-0.1,0.3-0.1,0.5-0.2c0.1,0,0.2-0.1,0.4-0.1l0.6-0.2c0.5-0.1,1.1-0.3,1.6-0.5
				c0.3-0.1,0.6-0.2,0.8-0.4c1.3-0.6,2.5-1.4,3.7-2.3c1.4-1.1,2.5-2.4,3.5-3.8c1.3-2,2.1-3.9,2.4-5.7c0-0.1,0-0.3,0.1-0.4
				c0-0.3,0-0.6,0.3-0.8l0.1-0.1h0.5v0.3c0.1,0.2,0.2,0.5,0.2,0.7c0,0.1,0,0.2,0.1,0.3c0.6,2.2,1.5,4.2,2.6,5.8l-0.2,0.3l0.3-0.2
				c1.4,2,3.2,3.7,5.3,4.9l0.7,0.4l-0.7,0.3c-2.6,0.9-4.6,2.8-5.8,5.2c1.9-2.6,4.8-4.2,7.7-4.3c0.9,0,1.8,0.1,2.7,0.4h0.1l0.1,0.1
				c0.4,0.1,0.7,0.3,1.1,0.4c3.2,1.4,5.6,4.2,6.4,7.5c0,0.2,0.1,0.4,0.1,0.6c0,0.2,0.1,0.5,0.1,0.7s0,0.3,0,0.5s0,0.3,0,0.5
				c0,1.4-0.3,2.9-0.8,4.2v0.1c-0.9,2-2.4,3.8-4.3,4.9c-0.1,0.1-0.2,0.1-0.3,0.2l-0.2,0.1c-0.8,0.4-1.6,0.7-2.4,1l-0.2,0.1l0,0
				c-0.4,0.1-0.9,0.2-1.4,0.2C83.5,170.9,83.1,170.9,82.7,170.9z M72,160.4h0.7c0,0.3,0,0.6,0,0.8c0.1,0.5,0.1,1,0.3,1.4
				c0,0.1,0,0.1,0,0.2v0.1c0,0.1,0,0.2,0.1,0.2c0,0.2,0.1,0.3,0.2,0.5v0.1c0,0.1,0.1,0.2,0.1,0.4c0.1,0.3,0.3,0.7,0.5,1
				c0.1,0.1,0.1,0.2,0.2,0.3c0.2,0.3,0.3,0.5,0.5,0.8l0.1,0.1c0.1,0.1,0.1,0.2,0.2,0.3c0.2,0.2,0.4,0.4,0.6,0.6l0.3,0.3
				c0.3,0.3,0.7,0.6,1.1,0.9c0.1,0.1,0.3,0.2,0.4,0.3c0.3,0.2,0.5,0.3,0.8,0.5c0.9,0.5,1.8,0.8,2.7,1c0.3,0.1,0.6,0.1,0.9,0.1
				c0.7,0.1,1.4,0.1,2,0c0.5,0,1-0.1,1.4-0.3l0.2-0.1l0,0c0.7-0.2,1.4-0.5,2.1-0.8l0.2-0.1c0.1-0.1,0.2-0.1,0.3-0.2
				c1.8-1.1,3.2-2.7,4-4.7V164c0.5-1.2,0.8-2.5,0.8-3.8c0-0.2,0-0.3,0-0.5s0-0.3,0-0.5s-0.1-0.5-0.1-0.7s-0.1-0.4-0.1-0.5
				c-0.7-3.1-3-5.8-5.9-7c-0.4-0.2-0.7-0.3-1.1-0.4l0,0c-0.8-0.2-1.7-0.3-2.5-0.3c-2.7,0.1-5.5,1.6-7.2,4c-0.6,0.9-1.1,1.9-1.4,2.9
				l-0.9,3l0.2-3.1c0-0.3,0.1-0.7,0.2-1.1c0.1-0.7,0.3-1.4,0.6-2.1c1.1-2.6,3.1-4.7,5.7-5.8c-1.9-1.3-3.6-2.9-4.9-4.7l0.2-0.3
				l-0.3,0.2c-1.1-1.6-2-3.5-2.6-5.7c-0.4,1.8-1.2,3.6-2.5,5.5c-1,1.5-2.3,2.9-3.7,4c-1.2,0.9-2.5,1.7-3.8,2.4
				c-0.3,0.1-0.6,0.3-0.9,0.4c-0.6,0.2-1.1,0.4-1.7,0.5l-0.5,0.2c-0.1,0-0.2,0.1-0.4,0.1s-0.3,0.1-0.5,0.2c-0.4,0.1-0.7,0.3-1,0.4
				c-1.1,0.5-2.1,1.3-2.9,2.2c-0.4,0.4-0.7,0.8-0.9,1.2c-0.2,0.3-0.4,0.6-0.5,0.8c-0.1,0.1-0.1,0.3-0.2,0.4
				c-0.3,0.6-0.5,1.2-0.7,1.8c-0.1,0.5-0.2,1-0.3,1.5v0.2c0,0.2,0,0.5,0,0.9c0,1.3,0.3,2.6,0.8,3.8v0.1c0.8,1.9,2.2,3.6,4,4.7
				c0.1,0.1,0.2,0.1,0.2,0.1l0.2,0.1c0.7,0.4,1.5,0.7,2.3,0.9c0.5,0.1,1,0.2,1.5,0.3c1,0.1,1.9,0.1,2.9-0.1l0.4-0.1
				c0.2,0,0.4-0.1,0.5-0.1l0.4-0.1c0.1,0,0.3-0.1,0.4-0.1c0.3-0.1,0.6-0.2,0.9-0.4c0.2-0.1,0.4-0.2,0.6-0.4c0.1-0.1,0.1-0.1,0.1-0.1
				c0.3-0.2,0.6-0.4,0.9-0.7l0.3-0.3c0.1,0,0.1-0.1,0.2-0.1c0.1-0.1,0.1-0.1,0.2-0.2c0.3-0.2,0.5-0.5,0.7-0.8l0.1-0.1l0.1-0.1
				c0.3-0.4,0.6-0.8,0.8-1.2c0.5-0.9,0.9-1.8,1.1-2.9C71.9,161.8,72,161.1,72,160.4z"/>
		</g>
	</g>
	<g>
		<g>
			<path class="st4" d="M69.1,240.4c0-0.3,0-0.6,0-0.9c-0.3-3.1-1.9-5.8-4.3-7.5c-0.7-0.5-1.2-1.4-1.2-2.3l0,0h17.6l0,0
				c0,0.9-0.5,1.8-1.2,2.3c-2.3,1.7-3.9,4.3-4.2,7.4c0,0.3-0.1,0.7-0.1,1c0,4,2.2,7.4,5.5,9.2v3.6H70c0.3-0.6,0.5-1.3,0.6-2
				c0.1-0.4,0.1-0.7,0.1-1.1c-0.3,1.1-0.8,2.1-1.5,3.1h-5.7v-3.6C66.8,247.9,69.1,244.4,69.1,240.4z"/>
		</g>
		<g>
			<path class="st5" d="M63.5,229.3h18v0.4c0,1-0.5,2-1.4,2.6c-2.3,1.7-3.8,4.3-4.1,7.1c0,0.3-0.1,0.7-0.1,1c0,3.7,2,7.1,5.3,8.8
				l0.2,0.1v4.2h-12v-0.1l-0.1,0.1h-6.2v-4.2l0.2-0.1c3.3-1.7,5.3-5.1,5.3-8.8c0-0.3,0-0.6,0-0.9c-0.2-2.9-1.7-5.5-4.1-7.3
				c-0.9-0.6-1.4-1.6-1.4-2.6v-0.4L63.5,229.3z M80.7,230H63.9c0.1,0.7,0.5,1.2,1,1.7c2.5,1.8,4.2,4.7,4.4,7.8c0,0.3,0,0.6,0,0.9
				c0,3.9-2.1,7.5-5.5,9.4v3.1H69c0.6-0.8,1-1.8,1.3-2.8l0.9-3.1l-0.2,3.2c0,0.4-0.1,0.8-0.1,1.1c-0.1,0.5-0.2,1.1-0.4,1.6h10.2
				v-3.1c-3.4-1.9-5.5-5.5-5.5-9.4c0-0.4,0-0.8,0.1-1.1c0.3-3,1.9-5.8,4.4-7.6C80.3,231.3,80.6,230.7,80.7,230z"/>
		</g>
		<g>
			<path class="st4" d="M51.6,246.9c0-1.4,0.3-2.8,0.8-4l0,0c0.8-2,2.3-3.7,4.2-4.8c0.1-0.1,0.3-0.2,0.4-0.3
				c0.7-0.4,1.5-0.7,2.3-0.9l0,0c0.5-0.1,1-0.2,1.5-0.3c0.4,0,0.7-0.1,1.1-0.1c0.4,0,0.7,0,1,0.1l0,0c0.3,0,0.7,0.1,1,0.1
				c1,0.2,1.9,0.5,2.8,1c0.3,0.1,0.6,0.3,0.8,0.5c0.1,0.1,0.3,0.2,0.4,0.3c0.4,0.3,0.8,0.6,1.1,0.9c0.1,0.1,0.2,0.2,0.3,0.3
				c0.2,0.2,0.4,0.4,0.6,0.7c0.1,0.1,0.2,0.3,0.3,0.4c0.2,0.3,0.4,0.5,0.6,0.8c0.1,0.1,0.1,0.2,0.2,0.4c0.2,0.3,0.3,0.7,0.5,1
				c0.1,0.1,0.1,0.3,0.2,0.5s0.1,0.3,0.2,0.5c0,0.1,0.1,0.2,0.1,0.3s0,0.1,0.1,0.2c0.1,0.5,0.2,1,0.3,1.5c0,0.3,0,0.6,0,0.9
				c0-0.7,0.1-1.4,0.3-2.1c0.2-1.1,0.6-2.1,1.2-3c0.2-0.4,0.5-0.8,0.8-1.2c0.1-0.1,0.1-0.2,0.2-0.3c0.2-0.3,0.5-0.5,0.7-0.8
				c0.1-0.1,0.1-0.1,0.2-0.2c0.1-0.1,0.2-0.2,0.3-0.3c0.1-0.1,0.2-0.1,0.2-0.2c0.3-0.2,0.6-0.5,0.9-0.7c0,0,0.1-0.1,0.2-0.1
				c0.2-0.1,0.5-0.3,0.7-0.4c0.3-0.1,0.6-0.3,0.9-0.4c0.1-0.1,0.3-0.1,0.4-0.2c0.1,0,0.3-0.1,0.5-0.1s0.4-0.1,0.6-0.1
				c0.1,0,0.3,0,0.4-0.1c0.6-0.1,1.3-0.2,2-0.2c0.4,0,0.7,0,1.1,0.1c0.5,0,1,0.1,1.5,0.3c0.8,0.2,1.6,0.5,2.4,0.9
				c0.1,0.1,0.3,0.2,0.4,0.3c1.9,1.1,3.3,2.8,4.2,4.8l0,0c0.5,1.2,0.8,2.6,0.8,4c0,0.3,0,0.7,0,1v0.1c0,0.5-0.1,1-0.3,1.5
				c-0.2,0.7-0.4,1.3-0.7,1.9c-0.1,0.1-0.1,0.3-0.2,0.4c-0.2,0.3-0.3,0.6-0.5,0.9c-0.3,0.4-0.6,0.8-1,1.2c-0.9,0.9-1.9,1.7-3,2.3
				c-0.3,0.2-0.7,0.3-1,0.4c-0.1,0.1-0.3,0.1-0.5,0.2s-0.3,0.1-0.5,0.2l0,0c-0.7,0.2-1.4,0.4-2,0.6c-0.3,0.1-0.6,0.2-0.9,0.4
				c-1.3,0.6-2.6,1.4-3.7,2.3c-1.4,1.1-2.6,2.5-3.6,3.9c-1.2,1.7-2.2,3.7-2.5,5.8c0,0.1,0,0.3-0.1,0.4c0,0.1,0,0.5-0.2,0.5l0,0l0,0
				c-0.2-0.3-0.2-0.7-0.3-1c-0.6-2.1-1.4-4.1-2.7-5.9c0,0,0,0-0.1-0.1c-1.4-2-3.3-3.8-5.4-5c2.7-0.9,5-3.1,6.2-5.8
				c0.3-0.6,0.4-1.3,0.6-2c0.1-0.4,0.1-0.7,0.1-1.1c-0.3,1.1-0.8,2.1-1.5,3c-1.7,2.4-4.5,4.1-7.5,4.2c-0.9,0-1.8-0.1-2.7-0.4l0,0
				c-0.4-0.1-0.8-0.3-1.1-0.4c-3.1-1.3-5.4-4.1-6.1-7.3c0-0.2-0.1-0.4-0.1-0.6c0-0.2-0.1-0.5-0.1-0.7s0-0.3,0-0.5
				C51.6,247.3,51.6,247.1,51.6,246.9z"/>
		</g>
		<g>
			<path class="st5" d="M62,236.2c0.4,0,0.7,0,1.1,0.1c0.4,0,0.7,0.1,1,0.2c1,0.2,2,0.5,2.9,1c0.3,0.1,0.6,0.3,0.9,0.5
				c0.1,0.1,0.3,0.2,0.4,0.3c0.4,0.3,0.8,0.6,1.1,0.9l0.3,0.3c0.2,0.2,0.4,0.4,0.6,0.7c0.1,0.1,0.1,0.2,0.2,0.3l0.1,0.1
				c0.2,0.3,0.4,0.6,0.6,0.9c0.1,0.1,0.1,0.2,0.2,0.3c0.2,0.4,0.4,0.7,0.5,1.1c0.1,0.1,0.1,0.3,0.2,0.4c0.1,0.2,0.2,0.4,0.2,0.6
				c0,0.1,0.1,0.2,0.1,0.3v0.1c0.2-0.9,0.6-1.8,1.1-2.6c0.2-0.4,0.5-0.8,0.9-1.2c0-0.1,0.1-0.1,0.1-0.2l0.1-0.1
				c0.2-0.3,0.5-0.6,0.8-0.8c0.1-0.1,0.1-0.1,0.2-0.2c0.1-0.1,0.1-0.1,0.2-0.2l0.4-0.3c0.3-0.3,0.7-0.5,1-0.7c0,0,0.1-0.1,0.2-0.1
				c0.2-0.1,0.5-0.3,0.7-0.4c0.3-0.1,0.6-0.3,0.9-0.4c0.2-0.1,0.3-0.1,0.5-0.2l0.5-0.1c0.2-0.1,0.4-0.1,0.6-0.2l0.4-0.1
				c1.1-0.2,2.1-0.3,3.2-0.1c0.5,0,1,0.1,1.6,0.3c0.9,0.2,1.7,0.5,2.4,1l0.2,0.1c0.1,0.1,0.2,0.1,0.3,0.2c1.9,1.1,3.4,2.9,4.3,4.9
				v0.1c0.6,1.3,0.8,2.7,0.8,4.2c0,0.3,0,0.7,0,1c-0.1,0.6-0.2,1.2-0.3,1.7c-0.2,0.7-0.4,1.3-0.7,2c-0.1,0.1-0.1,0.3-0.2,0.5
				c-0.2,0.3-0.4,0.6-0.5,0.9c-0.3,0.4-0.6,0.8-1,1.3c-0.9,1-2,1.8-3.1,2.4c-0.3,0.2-0.7,0.3-1.1,0.4c-0.1,0.1-0.3,0.1-0.5,0.2
				c-0.1,0-0.2,0.1-0.4,0.1l-0.6,0.2c-0.5,0.1-1.1,0.3-1.6,0.5c-0.3,0.1-0.6,0.2-0.8,0.4c-1.3,0.6-2.5,1.4-3.7,2.3
				c-1.4,1.1-2.5,2.4-3.5,3.8c-1.3,2-2.1,3.9-2.4,5.7c0,0.1,0,0.3-0.1,0.4c0,0.3,0,0.6-0.3,0.8l-0.1,0.1h-0.5v-0.3
				c-0.1-0.2-0.2-0.5-0.2-0.7c0-0.1,0-0.2-0.1-0.3c-0.6-2.2-1.5-4.2-2.6-5.8l0.2-0.3l-0.3,0.2c-1.4-2-3.2-3.7-5.3-4.9l-0.7-0.4
				l0.7-0.3c2.6-0.9,4.6-2.8,5.8-5.2c-1.9,2.6-4.8,4.2-7.7,4.3c-0.9,0-1.8-0.1-2.7-0.4H59l-0.1-0.1c-0.4-0.1-0.7-0.3-1.1-0.4
				c-3.2-1.4-5.6-4.2-6.4-7.5c0-0.2-0.1-0.4-0.1-0.6c0-0.2-0.1-0.5-0.1-0.7s0-0.3,0-0.5s0-0.3,0-0.5c0-1.4,0.3-2.9,0.8-4.2v-0.1
				c0.9-2,2.4-3.8,4.3-4.9c0.1-0.1,0.2-0.1,0.3-0.2l0.2-0.1c0.8-0.4,1.6-0.7,2.4-1l0.2-0.1l0,0c0.4-0.1,0.9-0.2,1.4-0.2
				C61.2,236.2,61.6,236.2,62,236.2z M72.7,246.8H72c0-0.3,0-0.6,0-0.8c-0.1-0.5-0.1-1-0.3-1.4c0-0.1,0-0.1,0-0.2v-0.1
				c0-0.1,0-0.2-0.1-0.2c0-0.2-0.1-0.3-0.2-0.5v-0.1c0-0.1-0.1-0.2-0.1-0.4c-0.1-0.3-0.3-0.7-0.5-1c-0.1-0.1-0.1-0.2-0.2-0.3
				c-0.2-0.3-0.3-0.5-0.5-0.8l-0.1-0.1c-0.1-0.1-0.1-0.2-0.2-0.3c-0.2-0.2-0.4-0.4-0.6-0.6l-0.3-0.3c-0.3-0.3-0.7-0.6-1.1-0.9
				c-0.1-0.1-0.3-0.2-0.4-0.3c-0.3-0.2-0.5-0.3-0.8-0.5c-0.9-0.5-1.8-0.8-2.7-1c-0.3-0.1-0.6-0.1-0.9-0.1c-0.7-0.1-1.4-0.1-2,0
				c-0.5,0-1,0.1-1.4,0.3l-0.2,0.1l0,0c-0.7,0.2-1.4,0.5-2.1,0.8l-0.2,0.1c-0.1,0.1-0.2,0.1-0.3,0.2c-1.8,1.1-3.2,2.7-4,4.7v0.1
				c-0.5,1.2-0.8,2.5-0.8,3.8c0,0.2,0,0.3,0,0.5s0,0.3,0,0.5s0.1,0.5,0.1,0.7s0.1,0.4,0.1,0.5c0.7,3.1,3,5.8,5.9,7
				c0.4,0.2,0.7,0.3,1.1,0.4l0,0c0.8,0.2,1.7,0.3,2.5,0.3c2.7-0.1,5.5-1.6,7.2-4c0.6-0.9,1.1-1.9,1.4-2.9l0.9-3l-0.2,3.1
				c0,0.3-0.1,0.7-0.2,1.1c-0.1,0.7-0.3,1.4-0.6,2.1c-1.1,2.6-3.1,4.7-5.7,5.8c1.9,1.3,3.6,2.9,4.9,4.7l-0.2,0.3l0.3-0.2
				c1.1,1.6,2,3.5,2.6,5.7c0.4-1.8,1.2-3.6,2.5-5.5c1-1.5,2.3-2.9,3.7-4c1.2-0.9,2.5-1.7,3.8-2.4c0.3-0.1,0.6-0.3,0.9-0.4
				c0.6-0.2,1.1-0.4,1.7-0.5l0.5-0.2c0.1,0,0.2-0.1,0.4-0.1c0.2,0,0.3-0.1,0.5-0.2c0.4-0.1,0.7-0.3,1-0.4c1.1-0.5,2.1-1.3,2.9-2.2
				c0.4-0.4,0.7-0.8,0.9-1.2c0.2-0.3,0.4-0.6,0.5-0.8c0.1-0.1,0.1-0.3,0.2-0.4c0.3-0.6,0.5-1.2,0.7-1.8c0.1-0.5,0.2-1,0.3-1.5v-0.2
				c0-0.2,0-0.5,0-0.9c0-1.3-0.3-2.6-0.8-3.8V243c-0.8-1.9-2.2-3.6-4-4.7c-0.1-0.1-0.2-0.1-0.2-0.1l-0.2-0.1
				c-0.7-0.4-1.5-0.7-2.3-0.9c-0.5-0.1-1-0.2-1.5-0.3c-1-0.1-1.9-0.1-2.9,0.1l-0.4,0.1c-0.2,0-0.4,0.1-0.5,0.1l-0.4,0.1
				c-0.1,0-0.3,0.1-0.4,0.1c-0.3,0.1-0.6,0.2-0.9,0.4c-0.2,0.1-0.4,0.2-0.6,0.4c-0.1,0.1-0.1,0.1-0.1,0.1c-0.3,0.2-0.6,0.4-0.9,0.7
				l-0.3,0.3c-0.1,0-0.1,0.1-0.2,0.1c-0.1,0.1-0.1,0.1-0.2,0.2c-0.3,0.2-0.5,0.5-0.7,0.8l-0.1,0.1l-0.1,0.1
				c-0.3,0.4-0.6,0.8-0.8,1.2c-0.5,0.9-0.9,1.8-1.1,2.9C72.8,245.4,72.7,246,72.7,246.8z"/>
		</g>
	</g>
	<g>
		<g>
			<path class="st4" d="M148.4,240.4c0-0.3,0-0.6,0-0.9c-0.3-3.1-1.9-5.8-4.3-7.5c-0.7-0.5-1.2-1.4-1.2-2.3l0,0h17.6l0,0
				c0,0.9-0.5,1.8-1.2,2.3c-2.3,1.7-3.9,4.3-4.2,7.4c0,0.3-0.1,0.7-0.1,1c0,4,2.2,7.4,5.5,9.2v3.6h-11.1c0.3-0.6,0.5-1.3,0.6-2
				c0.1-0.4,0.1-0.7,0.1-1.1c-0.3,1.1-0.8,2.1-1.5,3.1h-5.7v-3.6C146.2,247.9,148.4,244.4,148.4,240.4z"/>
		</g>
		<g>
			<path class="st5" d="M142.9,229.3h18v0.4c0,1-0.5,2-1.4,2.6c-2.3,1.7-3.8,4.3-4.1,7.1c0,0.3-0.1,0.7-0.1,1c0,3.7,2,7.1,5.3,8.8
				l0.2,0.1v4.2h-12.1v-0.1l-0.1,0.1h-6.2v-4.2l0.2-0.1c3.3-1.7,5.3-5.1,5.3-8.8c0-0.3,0-0.6,0-0.9c-0.2-2.9-1.7-5.5-4.1-7.3
				c-0.9-0.6-1.4-1.6-1.4-2.6v-0.4L142.9,229.3z M160.1,230h-16.8c0.1,0.7,0.5,1.2,1,1.7c2.5,1.8,4.2,4.7,4.4,7.8c0,0.3,0,0.6,0,0.9
				c0,3.9-2.1,7.5-5.5,9.4v3.1h5.1c0.6-0.8,1-1.8,1.3-2.8l0.9-3.1l-0.2,3.2c0,0.4-0.1,0.8-0.1,1.1c-0.1,0.5-0.2,1.1-0.4,1.6H160
				v-3.1c-3.4-1.9-5.5-5.5-5.5-9.4c0-0.4,0-0.8,0.1-1.1c0.3-3,1.9-5.8,4.4-7.6C159.6,231.3,160,230.7,160.1,230z"/>
		</g>
		<g>
			<path class="st4" d="M130.9,246.9c0-1.4,0.3-2.8,0.8-4l0,0c0.8-2,2.3-3.7,4.2-4.8c0.1-0.1,0.3-0.2,0.4-0.3
				c0.7-0.4,1.5-0.7,2.3-0.9l0,0c0.5-0.1,1-0.2,1.5-0.3c0.4,0,0.7-0.1,1.1-0.1c0.4,0,0.7,0,1,0.1l0,0c0.3,0,0.7,0.1,1,0.1
				c1,0.2,1.9,0.5,2.8,1c0.3,0.1,0.6,0.3,0.8,0.5c0.1,0.1,0.3,0.2,0.4,0.3c0.4,0.3,0.8,0.6,1.1,0.9c0.1,0.1,0.2,0.2,0.3,0.3
				c0.2,0.2,0.4,0.4,0.6,0.7c0.1,0.1,0.2,0.3,0.3,0.4c0.2,0.3,0.4,0.5,0.6,0.8c0.1,0.1,0.1,0.2,0.2,0.4c0.2,0.3,0.3,0.7,0.5,1
				c0.1,0.1,0.1,0.3,0.2,0.5c0.1,0.2,0.1,0.3,0.2,0.5c0,0.1,0.1,0.2,0.1,0.3s0,0.1,0.1,0.2c0.1,0.5,0.2,1,0.3,1.5c0,0.3,0,0.6,0,0.9
				c0-0.7,0.1-1.4,0.3-2.1c0.2-1.1,0.6-2.1,1.2-3c0.2-0.4,0.5-0.8,0.8-1.2c0.1-0.1,0.1-0.2,0.2-0.3c0.2-0.3,0.5-0.5,0.7-0.8
				c0.1-0.1,0.1-0.1,0.2-0.2c0.1-0.1,0.2-0.2,0.3-0.3s0.2-0.1,0.2-0.2c0.3-0.2,0.6-0.5,0.9-0.7c0,0,0.1-0.1,0.2-0.1
				c0.2-0.1,0.5-0.3,0.7-0.4c0.3-0.1,0.6-0.3,0.9-0.4c0.1-0.1,0.3-0.1,0.4-0.2c0.1,0,0.3-0.1,0.5-0.1s0.4-0.1,0.6-0.1
				c0.1,0,0.3,0,0.4-0.1c0.6-0.1,1.3-0.2,2-0.2c0.4,0,0.7,0,1.1,0.1c0.5,0,1,0.1,1.5,0.3c0.8,0.2,1.6,0.5,2.4,0.9
				c0.1,0.1,0.3,0.2,0.4,0.3c1.9,1.1,3.3,2.8,4.2,4.8l0,0c0.5,1.2,0.8,2.6,0.8,4c0,0.3,0,0.7,0,1v0.1c0,0.5-0.1,1-0.3,1.5
				c-0.2,0.7-0.4,1.3-0.7,1.9c-0.1,0.1-0.1,0.3-0.2,0.4c-0.2,0.3-0.3,0.6-0.5,0.9c-0.3,0.4-0.6,0.8-1,1.2c-0.9,0.9-1.9,1.7-3,2.3
				c-0.3,0.2-0.7,0.3-1,0.4c-0.1,0.1-0.3,0.1-0.5,0.2s-0.3,0.1-0.5,0.2l0,0c-0.7,0.2-1.4,0.4-2,0.6c-0.3,0.1-0.6,0.2-0.9,0.4
				c-1.3,0.6-2.6,1.4-3.7,2.3c-1.4,1.1-2.6,2.5-3.6,3.9c-1.2,1.7-2.2,3.7-2.5,5.8c0,0.1,0,0.3-0.1,0.4c0,0.1,0,0.5-0.2,0.5l0,0l0,0
				c-0.2-0.3-0.2-0.7-0.3-1c-0.6-2.1-1.4-4.1-2.7-5.9c0,0,0,0-0.1-0.1c-1.4-2-3.3-3.8-5.4-5c2.7-0.9,5-3.1,6.2-5.8
				c0.3-0.6,0.4-1.3,0.6-2c0.1-0.4,0.1-0.7,0.1-1.1c-0.3,1.1-0.8,2.1-1.5,3c-1.7,2.4-4.5,4.1-7.5,4.2c-0.9,0-1.8-0.1-2.7-0.4l0,0
				c-0.4-0.1-0.8-0.3-1.1-0.4c-3.1-1.3-5.4-4.1-6.1-7.3c0-0.2-0.1-0.4-0.1-0.6c0-0.2-0.1-0.5-0.1-0.7s0-0.3,0-0.5
				C130.9,247.3,130.9,247.1,130.9,246.9z"/>
		</g>
		<g>
			<path class="st5" d="M141.3,236.2c0.4,0,0.7,0,1.1,0.1c0.4,0,0.7,0.1,1,0.2c1,0.2,2,0.5,2.9,1c0.3,0.1,0.6,0.3,0.9,0.5
				c0.1,0.1,0.3,0.2,0.4,0.3c0.4,0.3,0.8,0.6,1.1,0.9l0.3,0.3c0.2,0.2,0.4,0.4,0.6,0.7c0.1,0.1,0.1,0.2,0.2,0.3l0.1,0.1
				c0.2,0.3,0.4,0.6,0.6,0.9c0.1,0.1,0.1,0.2,0.2,0.3c0.2,0.4,0.4,0.7,0.5,1.1c0.1,0.1,0.1,0.3,0.2,0.4c0.1,0.2,0.2,0.4,0.2,0.6
				c0,0.1,0.1,0.2,0.1,0.3v0.1c0.2-0.9,0.6-1.8,1.1-2.6c0.2-0.4,0.5-0.8,0.9-1.2c0-0.1,0.1-0.1,0.1-0.2l0.1-0.1
				c0.2-0.3,0.5-0.6,0.8-0.8c0.1-0.1,0.1-0.1,0.2-0.2c0.1-0.1,0.1-0.1,0.2-0.2l0.4-0.3c0.3-0.3,0.7-0.5,1-0.7c0,0,0.1-0.1,0.2-0.1
				c0.2-0.1,0.5-0.3,0.7-0.4c0.3-0.1,0.6-0.3,0.9-0.4c0.2-0.1,0.3-0.1,0.5-0.2l0.5-0.1c0.2-0.1,0.4-0.1,0.6-0.2l0.4-0.1
				c1.1-0.2,2.1-0.3,3.2-0.1c0.5,0,1,0.1,1.6,0.3c0.9,0.2,1.7,0.5,2.4,1l0.2,0.1c0.1,0.1,0.2,0.1,0.3,0.2c1.9,1.1,3.4,2.9,4.3,4.9
				v0.1c0.6,1.3,0.8,2.7,0.8,4.2c0,0.3,0,0.7,0,1c-0.1,0.6-0.2,1.2-0.3,1.7c-0.2,0.7-0.4,1.3-0.7,2c-0.1,0.1-0.1,0.3-0.2,0.5
				c-0.2,0.3-0.4,0.6-0.5,0.9c-0.3,0.4-0.6,0.8-1,1.3c-0.9,1-2,1.8-3.1,2.4c-0.3,0.2-0.7,0.3-1.1,0.4c-0.1,0.1-0.3,0.1-0.5,0.2
				c-0.1,0-0.2,0.1-0.4,0.1l-0.6,0.2c-0.5,0.1-1.1,0.3-1.6,0.5c-0.3,0.1-0.6,0.2-0.8,0.4c-1.3,0.6-2.5,1.4-3.7,2.3
				c-1.4,1.1-2.5,2.4-3.5,3.8c-1.3,2-2.1,3.9-2.4,5.7c0,0.1,0,0.3-0.1,0.4c0,0.3,0,0.6-0.3,0.8l-0.1,0.1h-0.5v-0.3
				c-0.1-0.2-0.2-0.5-0.2-0.7c0-0.1,0-0.2-0.1-0.3c-0.6-2.2-1.5-4.2-2.6-5.8l0.2-0.3l-0.3,0.2c-1.4-2-3.2-3.7-5.3-4.9l-0.7-0.4
				l0.7-0.3c2.6-0.9,4.6-2.8,5.8-5.2c-1.9,2.6-4.8,4.2-7.7,4.3c-0.9,0-1.8-0.1-2.7-0.4h-0.1l-0.1-0.1c-0.4-0.1-0.7-0.3-1.1-0.4
				c-3.2-1.4-5.6-4.2-6.4-7.5c0-0.2-0.1-0.4-0.1-0.6c0-0.2-0.1-0.5-0.1-0.7s0-0.3,0-0.5s0-0.3,0-0.5c0-1.4,0.3-2.9,0.8-4.2v-0.1
				c0.9-2,2.4-3.8,4.3-4.9c0.1-0.1,0.2-0.1,0.3-0.2l0.2-0.1c0.8-0.4,1.6-0.7,2.4-1l0.2-0.1l0,0c0.4-0.1,0.9-0.2,1.4-0.2
				C140.5,236.2,140.9,236.2,141.3,236.2z M152,246.8h-0.7c0-0.3,0-0.6,0-0.8c-0.1-0.5-0.1-1-0.3-1.4c0-0.1,0-0.1,0-0.2v-0.1
				c0-0.1,0-0.2-0.1-0.2c0-0.2-0.1-0.3-0.2-0.5v-0.1c0-0.1-0.1-0.2-0.1-0.4c-0.1-0.3-0.3-0.7-0.5-1c-0.1-0.1-0.1-0.2-0.2-0.3
				c-0.2-0.3-0.3-0.5-0.5-0.8l-0.1-0.1c-0.1-0.1-0.1-0.2-0.2-0.3c-0.2-0.2-0.4-0.4-0.6-0.6l-0.3-0.3c-0.3-0.3-0.7-0.6-1.1-0.9
				c-0.1-0.1-0.3-0.2-0.4-0.3c-0.3-0.2-0.5-0.3-0.8-0.5c-0.9-0.5-1.8-0.8-2.7-1c-0.3-0.1-0.6-0.1-0.9-0.1c-0.7-0.1-1.4-0.1-2,0
				c-0.5,0-1,0.1-1.4,0.3l-0.2,0.1l0,0c-0.7,0.2-1.4,0.5-2.1,0.8l-0.2,0.1c-0.1,0.1-0.2,0.1-0.3,0.2c-1.8,1.1-3.2,2.7-4,4.7v0.1
				c-0.5,1.2-0.8,2.5-0.8,3.8c0,0.2,0,0.3,0,0.5s0,0.3,0,0.5s0.1,0.5,0.1,0.7s0.1,0.4,0.1,0.5c0.7,3.1,3,5.8,5.9,7
				c0.4,0.2,0.7,0.3,1.1,0.4l0,0c0.8,0.2,1.7,0.3,2.5,0.3c2.7-0.1,5.5-1.6,7.2-4c0.6-0.9,1.1-1.9,1.4-2.9l0.9-3l-0.2,3.1
				c0,0.3-0.1,0.7-0.2,1.1c-0.1,0.7-0.3,1.4-0.6,2.1c-1.1,2.6-3.1,4.7-5.7,5.8c1.9,1.3,3.6,2.9,4.9,4.7l-0.2,0.3l0.3-0.2
				c1.1,1.6,2,3.5,2.6,5.7c0.4-1.8,1.2-3.6,2.5-5.5c1-1.5,2.3-2.9,3.7-4c1.2-0.9,2.5-1.7,3.8-2.4c0.3-0.1,0.6-0.3,0.9-0.4
				c0.6-0.2,1.1-0.4,1.7-0.5l0.5-0.2c0.1,0,0.2-0.1,0.4-0.1s0.3-0.1,0.5-0.2c0.4-0.1,0.7-0.3,1-0.4c1.1-0.5,2.1-1.3,2.9-2.2
				c0.4-0.4,0.7-0.8,0.9-1.2c0.2-0.3,0.4-0.6,0.5-0.8c0.1-0.1,0.1-0.3,0.2-0.4c0.3-0.6,0.5-1.2,0.7-1.8c0.1-0.5,0.2-1,0.3-1.5v-0.2
				c0-0.2,0-0.5,0-0.9c0-1.3-0.3-2.6-0.8-3.8V243c-0.8-1.9-2.2-3.6-4-4.7c-0.1-0.1-0.2-0.1-0.2-0.1l-0.2-0.1
				c-0.7-0.4-1.5-0.7-2.3-0.9c-0.5-0.1-1-0.2-1.5-0.3c-1-0.1-1.9-0.1-2.9,0.1l-0.4,0.1c-0.2,0-0.4,0.1-0.5,0.1l-0.4,0.1
				c-0.1,0-0.3,0.1-0.4,0.1c-0.3,0.1-0.6,0.2-0.9,0.4c-0.2,0.1-0.4,0.2-0.6,0.4c-0.1,0.1-0.1,0.1-0.1,0.1c-0.3,0.2-0.6,0.4-0.9,0.7
				l-0.3,0.3c-0.1,0-0.1,0.1-0.2,0.1c-0.1,0.1-0.1,0.1-0.2,0.2c-0.3,0.2-0.5,0.5-0.7,0.8l-0.1,0.1l-0.1,0.1
				c-0.3,0.4-0.6,0.8-0.8,1.2c-0.5,0.9-0.9,1.8-1.1,2.9C152.1,245.4,152,246,152,246.8z"/>
		</g>
	</g>
</g>
</svg>
