<?xml version="1.0" encoding="utf-8"?>
<!-- Generator: Adobe Illustrator 25.2.0, SVG Export Plug-In . SVG Version: 6.00 Build 0)  -->
<svg version="1.1" id="Layer_1" xmlns="http://www.w3.org/2000/svg" xmlns:xlink="http://www.w3.org/1999/xlink" x="0px" y="0px"
	 viewBox="0 0 224.2 312.8" style="enable-background:new 0 0 224.2 312.8;" xml:space="preserve">
<style type="text/css">
	.st0{fill:#190B38;}
	.st1{fill:#050307;}
	.st2{opacity:2.000000e-02;}
	.st3{opacity:5.000000e-02;}
	.st4{stroke:#000000;stroke-miterlimit:10;}
</style>
<g>
	<g>
		<g>
			<path class="st0" d="M118.3,175.7c0,0.6,0,1.1,0.1,1.7c0.5,6,3.7,11.2,8.3,14.6c1.4,1.1,2.4,2.7,2.4,4.5v0H95v0
				c0-1.8,0.9-3.4,2.4-4.5c4.5-3.3,7.6-8.4,8.2-14.3c0.1-0.7,0.1-1.3,0.1-2c0-7.7-4.3-14.4-10.7-17.8v-7h21.6
				c-0.5,1.2-0.9,2.5-1.1,3.8c-0.1,0.7-0.2,1.4-0.3,2.1c0.7-2.2,1.6-4.2,2.9-5.9h11v7C122.7,161.3,118.3,168,118.3,175.7z"/>
		</g>
		<g>
			<path class="st1" d="M129,197.2H94.3v-0.7c0-2,1-3.8,2.7-5.1c4.5-3.3,7.4-8.3,7.9-13.8c0.1-0.7,0.1-1.3,0.1-2
				c0-7.2-4-13.8-10.3-17.1l-0.4-0.2v-8.2h23.4l-0.1,0.2l0.2-0.2h12.1v8.2l-0.4,0.2c-6.4,3.4-10.3,9.9-10.3,17.1
				c0,0.6,0,1.1,0.1,1.7c0.5,5.6,3.4,10.7,8,14.1c1.7,1.2,2.7,3.1,2.7,5v0.7L129,197.2z M95.7,195.8h32.6c-0.2-1.3-0.9-2.4-2-3.2
				c-4.9-3.6-8.1-9.1-8.6-15.1c0-0.6-0.1-1.2-0.1-1.8c0-7.6,4.1-14.5,10.7-18.2v-5.9h-9.9c-1.1,1.6-2,3.5-2.6,5.4l-1.8,6l0.4-6.3
				c0.1-0.8,0.2-1.6,0.3-2.1c0.2-1,0.5-2,0.8-3H95.7v5.9c6.6,3.7,10.7,10.6,10.7,18.2c0,0.8,0,1.5-0.1,2.1
				c-0.6,5.9-3.7,11.3-8.5,14.8C96.6,193.4,95.9,194.6,95.7,195.8z"/>
		</g>
		<g>
			<path class="st0" d="M152.2,163.1c0,2.8-0.6,5.4-1.6,7.8c0,0,0,0,0,0c-1.6,3.9-4.5,7.2-8.1,9.4c-0.3,0.2-0.6,0.3-0.9,0.5
				c-1.4,0.8-2.9,1.4-4.5,1.8c0,0,0,0,0,0c-1,0.3-1.9,0.4-3,0.5c-0.7,0.1-1.4,0.1-2.1,0.1c-0.7,0-1.3,0-2-0.1h-0.1
				c-0.6-0.1-1.3-0.2-1.9-0.3c-1.9-0.4-3.7-1-5.4-1.9c-0.6-0.3-1.1-0.6-1.6-0.9c-0.3-0.2-0.5-0.3-0.8-0.5c-0.8-0.5-1.5-1.1-2.2-1.8
				c-0.2-0.2-0.3-0.3-0.5-0.5c-0.4-0.4-0.8-0.8-1.1-1.3c-0.2-0.2-0.4-0.5-0.6-0.8c-0.4-0.5-0.8-1.1-1.1-1.6
				c-0.1-0.2-0.3-0.5-0.4-0.7c-0.3-0.6-0.6-1.3-0.9-1.9c-0.1-0.3-0.2-0.6-0.4-0.9c-0.1-0.3-0.2-0.6-0.3-0.9
				c-0.1-0.2-0.1-0.4-0.2-0.6c-0.1-0.2-0.1-0.3-0.1-0.4c-0.2-0.9-0.4-1.9-0.5-2.9c-0.1-0.5-0.1-1.1-0.1-1.7c0,1.4-0.2,2.7-0.5,4
				c-0.4,2-1.2,4-2.3,5.7c-0.5,0.8-1,1.6-1.6,2.3c-0.1,0.2-0.3,0.3-0.4,0.5c-0.5,0.5-0.9,1-1.4,1.5c-0.1,0.1-0.2,0.2-0.3,0.3
				c-0.2,0.2-0.4,0.3-0.6,0.5c-0.1,0.1-0.3,0.3-0.4,0.4c-0.6,0.5-1.2,0.9-1.8,1.3c-0.1,0.1-0.2,0.1-0.3,0.2
				c-0.5,0.3-0.9,0.5-1.4,0.8c-0.5,0.3-1.1,0.5-1.7,0.8c-0.3,0.1-0.6,0.2-0.9,0.3c-0.3,0.1-0.6,0.2-0.9,0.3
				c-0.3,0.1-0.7,0.2-1.1,0.3c-0.2,0.1-0.5,0.1-0.7,0.2c-1.2,0.2-2.5,0.4-3.8,0.4c-0.7,0-1.4,0-2.1-0.1c-1-0.1-2-0.3-3-0.5
				c-1.6-0.4-3.2-1-4.6-1.8c-0.3-0.2-0.6-0.3-0.8-0.5c-3.6-2.2-6.4-5.5-8.1-9.4c0,0,0,0,0,0c-1-2.4-1.6-5-1.6-7.8
				c0-0.6,0-1.3,0.1-1.9c0-0.1,0-0.1,0-0.2c0.1-1,0.3-2,0.5-3c0.3-1.3,0.8-2.5,1.4-3.7c0.1-0.3,0.3-0.6,0.4-0.9
				c0.3-0.6,0.7-1.1,1-1.7c0.5-0.8,1.2-1.6,1.9-2.4c1.7-1.8,3.7-3.3,5.9-4.4c0.7-0.3,1.3-0.6,2-0.8c0.3-0.1,0.6-0.2,0.9-0.3
				c0.3-0.1,0.7-0.2,1-0.3c0,0,0,0,0.1,0c1.3-0.4,2.7-0.7,3.9-1.2c0.6-0.2,1.1-0.5,1.7-0.7c2.6-1.2,5-2.7,7.2-4.5
				c2.7-2.2,5.1-4.8,7-7.6c2.3-3.4,4.2-7.2,4.9-11.3c0.1-0.3,0.1-0.5,0.1-0.8c0-0.3,0-0.9,0.3-1.1c0,0,0,0,0,0c0,0,0,0,0,0
				c0.3,0.6,0.4,1.3,0.6,2c1.1,4.1,2.7,8,5.1,11.5c0,0.1,0.1,0.1,0.1,0.2c2.7,3.9,6.3,7.3,10.5,9.7c-5.3,1.8-9.8,5.9-12,11.3
				c-0.5,1.2-0.9,2.5-1.1,3.9c-0.1,0.7-0.2,1.4-0.3,2.1c0.6-2.2,1.6-4.2,2.9-5.9c3.4-4.6,8.8-7.9,14.5-8.1c1.7,0,3.5,0.2,5.2,0.7
				c0,0,0,0,0,0c0.8,0.3,1.5,0.5,2.2,0.8c5.9,2.5,10.4,7.9,11.9,14.1c0.1,0.4,0.2,0.7,0.2,1.1c0.1,0.5,0.2,0.9,0.2,1.4
				c0,0.3,0.1,0.6,0.1,1C152.2,162.4,152.2,162.8,152.2,163.1z"/>
		</g>
		<g>
			<path class="st1" d="M132.1,183.9c-0.7,0-1.4,0-2.1-0.1c-0.7-0.1-1.4-0.2-2-0.3c-1.9-0.4-3.8-1-5.6-2c-0.6-0.3-1.1-0.6-1.7-1
				c-0.3-0.2-0.6-0.4-0.8-0.6c-0.8-0.6-1.5-1.2-2.2-1.8l-0.5-0.5c-0.4-0.4-0.8-0.9-1.2-1.3c-0.1-0.2-0.3-0.4-0.4-0.5l-0.2-0.2
				c-0.4-0.6-0.8-1.1-1.1-1.7c-0.1-0.2-0.3-0.4-0.4-0.7c-0.4-0.7-0.7-1.4-1-2.1c-0.1-0.2-0.2-0.5-0.3-0.8c-0.2-0.5-0.3-0.8-0.4-1.2
				c0-0.1-0.1-0.3-0.2-0.5c0-0.1-0.1-0.2-0.1-0.2c-0.5,1.8-1.2,3.5-2.2,5.1c-0.4,0.8-1,1.6-1.7,2.4c-0.1,0.1-0.2,0.2-0.3,0.3
				l-0.2,0.2c-0.5,0.6-1,1.1-1.5,1.6c-0.2,0.2-0.3,0.3-0.3,0.4c-0.1,0.1-0.3,0.2-0.4,0.3l-0.7,0.6c-0.7,0.5-1.3,1-1.8,1.3
				c-0.1,0.1-0.2,0.1-0.4,0.2c-0.5,0.3-0.9,0.5-1.4,0.8c-0.6,0.3-1.1,0.5-1.7,0.8c-0.3,0.1-0.6,0.2-0.9,0.3l-0.9,0.3
				c-0.4,0.1-0.7,0.2-1.1,0.3l-0.7,0.2c-2.1,0.4-4.1,0.5-6.1,0.3c-1-0.1-2-0.3-3.1-0.5c-1.7-0.4-3.3-1.1-4.7-1.9l-0.4-0.2
				c-0.2-0.1-0.4-0.2-0.5-0.3c-3.7-2.2-6.6-5.6-8.3-9.5l-0.1-0.2c-1.1-2.6-1.6-5.3-1.6-8.1c0-0.7,0-1.3,0.1-2
				c0.1-1.3,0.3-2.3,0.6-3.3c0.3-1.3,0.8-2.6,1.4-3.8c0.1-0.3,0.3-0.6,0.4-0.9c0.3-0.6,0.7-1.2,1.1-1.7c0.5-0.8,1.1-1.6,1.9-2.5
				c1.7-1.9,3.8-3.4,6.1-4.6c0.6-0.3,1.3-0.6,2.1-0.8c0.3-0.1,0.6-0.2,1-0.3c0.2-0.1,0.5-0.1,0.7-0.2l1.1-0.3c1-0.3,2.1-0.6,3.1-1
				c0.5-0.2,1.1-0.4,1.6-0.7c2.5-1.1,4.9-2.6,7.1-4.4c2.6-2.1,4.9-4.6,6.8-7.5c2.6-3.8,4.2-7.5,4.7-11c0.1-0.3,0.1-0.5,0.1-0.7
				c0-0.5,0.1-1.2,0.6-1.6l0.1-0.1l1,0v0.5c0.2,0.5,0.3,1,0.4,1.5c0,0.2,0.1,0.4,0.1,0.6c1.2,4.3,2.9,8.1,5,11.3l-0.5,0.6l0.6-0.4
				c2.6,3.8,6.2,7.1,10.3,9.5l1.3,0.8l-1.4,0.5c-5,1.7-9,5.4-11.2,10.1c3.7-5,9.3-8.1,15-8.3c1.7,0,3.5,0.2,5.3,0.7h0.2l0.1,0.1
				c0.7,0.3,1.4,0.5,2.1,0.8c6.2,2.7,10.8,8.1,12.3,14.6c0.1,0.4,0.2,0.8,0.2,1.2c0.1,0.5,0.2,1,0.2,1.4c0,0.3,0.1,0.6,0.1,1
				c0,0.3,0,0.7,0,1c0,2.8-0.6,5.5-1.6,8.1l-0.1,0.2c-1.7,3.9-4.6,7.3-8.3,9.6c-0.2,0.1-0.4,0.2-0.5,0.3l-0.3,0.2
				c-1.5,0.8-3.1,1.4-4.7,1.9l-0.4,0.1l0,0c-0.9,0.2-1.8,0.4-2.7,0.5C133.5,183.9,132.8,183.9,132.1,183.9z M111.3,163.4l1.4,0
				c0,0.5,0,1.1,0.1,1.6c0.1,1,0.3,1.9,0.5,2.8c0,0.2,0,0.2,0.1,0.4l0.1,0.2c0,0.2,0.1,0.3,0.1,0.5c0.1,0.3,0.2,0.6,0.3,0.9l0.1,0.2
				c0.1,0.2,0.2,0.5,0.3,0.7c0.3,0.7,0.6,1.3,0.9,1.9c0.1,0.2,0.3,0.4,0.4,0.7c0.3,0.5,0.7,1,1,1.6l0.2,0.2c0.1,0.2,0.2,0.3,0.4,0.5
				c0.3,0.4,0.7,0.8,1.1,1.2l0.5,0.5c0.6,0.6,1.3,1.2,2.1,1.7c0.3,0.2,0.5,0.4,0.7,0.5c0.5,0.3,1,0.6,1.6,0.9
				c1.7,0.9,3.4,1.5,5.2,1.8c0.6,0.1,1.2,0.2,1.8,0.3c1.4,0.1,2.7,0.1,4,0c1-0.1,1.9-0.3,2.8-0.5l0.4-0.2l0.1,0.1
				c1.4-0.4,2.7-0.9,4-1.6l0.3-0.2c0.2-0.1,0.4-0.2,0.6-0.3c3.4-2.1,6.2-5.3,7.8-9l0.1-0.2c1-2.3,1.5-4.8,1.5-7.4c0-0.3,0-0.6,0-0.9
				c0-0.3,0-0.7-0.1-1c0-0.5-0.1-0.9-0.2-1.3c-0.1-0.4-0.1-0.7-0.2-1c-1.4-6-5.8-11.2-11.5-13.6c-0.7-0.3-1.4-0.6-2.2-0.8l-0.1,0
				c-1.6-0.5-3.3-0.7-4.9-0.6c-5.2,0.1-10.6,3.1-14,7.8c-1.3,1.7-2.2,3.7-2.8,5.7l-1.7,5.8l0.3-6.1c0-0.6,0.1-1.3,0.3-2.2
				c0.3-1.4,0.7-2.7,1.2-4c2.1-5.1,6.1-9.1,11.1-11.2c-3.7-2.5-7-5.6-9.5-9.2l0.5-0.6l-0.6,0.4c-2.2-3.1-3.9-6.8-5.1-11.1
				c-0.7,3.4-2.3,7-4.8,10.7c-2,3-4.4,5.6-7.1,7.8c-2.3,1.8-4.8,3.4-7.4,4.6c-0.5,0.3-1.1,0.5-1.7,0.7c-1.1,0.4-2.2,0.7-3.3,1
				l-1.1,0.3c-0.2,0.1-0.5,0.1-0.7,0.2c-0.3,0.1-0.6,0.2-0.9,0.3c-0.8,0.3-1.4,0.5-2,0.8c-2.1,1-4.1,2.5-5.7,4.3
				c-0.7,0.8-1.3,1.6-1.8,2.3c-0.4,0.5-0.7,1.1-1,1.6c-0.1,0.3-0.3,0.5-0.4,0.8c-0.6,1.2-1,2.4-1.3,3.6c-0.2,0.9-0.4,1.9-0.5,2.9
				l-0.1,0.3c0,0.4-0.1,1-0.1,1.7c0,2.6,0.5,5.1,1.5,7.4l0.1,0.2c1.6,3.7,4.3,6.9,7.8,9c0.2,0.1,0.3,0.2,0.5,0.3l0.4,0.2
				c1.3,0.7,2.8,1.3,4.4,1.7c1,0.3,1.9,0.4,2.9,0.5c1.9,0.2,3.7,0.1,5.7-0.3l0.7-0.1c0.4-0.1,0.7-0.2,1-0.3l0.9-0.3
				c0.3-0.1,0.5-0.2,0.8-0.3c0.6-0.2,1.1-0.5,1.7-0.7c0.4-0.2,0.8-0.5,1.3-0.7c0.2-0.1,0.2-0.1,0.3-0.2c0.6-0.4,1.2-0.8,1.8-1.3
				l0.7-0.6c0.1-0.1,0.2-0.2,0.3-0.3c0.2-0.2,0.2-0.3,0.3-0.3c0.5-0.5,0.9-1,1.4-1.5l0.2-0.2c0.1-0.1,0.2-0.2,0.2-0.3
				c0.6-0.8,1.2-1.5,1.6-2.3c1-1.7,1.8-3.6,2.2-5.5C111.1,166.1,111.3,164.9,111.3,163.4z"/>
		</g>
	</g>
	<g>
		<g class="st2">
			<rect x="-0.2" y="0.7" width="224.4" height="312.1"/>
		</g>
		<g class="st2">
			<rect x="-0.2" y="0.7" width="224.4" height="312.1"/>
		</g>
		<g class="st3">
			<path d="M173.4,283.5H50.6c-4.2,0-7.5-3.4-7.5-7.5V37.6c0-4.2,3.4-7.5,7.5-7.5h122.9c4.2,0,7.5,3.4,7.5,7.5V276
				C181,280.1,177.6,283.5,173.4,283.5z"/>
		</g>
		<g>
			<path class="st4" d="M28.8,96.1l-2.5-6.2h-11l-2.6,6.2h-2.3l9.1-21.8h2.7l9.1,21.8H28.8z M25.4,87.8l-4.6-11.3l-4.7,11.3H25.4z"
				/>
		</g>
		<g>
			<path class="st4" d="M193.4,219.1l2.5,6.2h11l2.6-6.2h2.3l-9.1,21.8H200l-9.1-21.8H193.4z M196.8,227.4l4.6,11.3l4.7-11.3H196.8z
				"/>
		</g>
		<g>
			<g>
				<path class="st0" d="M24.5,54.4c0,0.2,0,0.4,0,0.7c0.2,2.3,1.4,4.3,3.2,5.6c0.6,0.4,0.9,1,0.9,1.7v0H15.5v0
					c0-0.7,0.4-1.3,0.9-1.7c1.7-1.3,2.9-3.2,3.2-5.5c0-0.3,0-0.5,0-0.8c0-3-1.7-5.5-4.1-6.8v-2.7h8.3c-0.2,0.5-0.3,1-0.4,1.5
					c0,0.3-0.1,0.5-0.1,0.8c0.2-0.8,0.6-1.6,1.1-2.3h4.2v2.7C26.1,48.8,24.5,51.4,24.5,54.4z"/>
			</g>
			<g>
				<path class="st1" d="M28.6,62.6H15.2v-0.3c0-0.8,0.4-1.5,1-1.9c1.7-1.3,2.8-3.2,3-5.3c0-0.2,0-0.5,0-0.8c0-2.8-1.5-5.3-4-6.6
					l-0.1-0.1v-3.1h9l0,0.1l0.1-0.1h4.6v3.1l-0.1,0.1c-2.4,1.3-4,3.8-4,6.6c0,0.2,0,0.4,0,0.6c0.2,2.2,1.3,4.1,3.1,5.4
					c0.6,0.5,1,1.2,1,1.9v0.3L28.6,62.6z M15.8,62.1h12.5c-0.1-0.5-0.3-0.9-0.8-1.2c-1.9-1.4-3.1-3.5-3.3-5.8c0-0.2,0-0.5,0-0.7
					c0-2.9,1.6-5.6,4.1-7v-2.3h-3.8c-0.4,0.6-0.8,1.3-1,2.1l-0.7,2.3l0.2-2.4c0-0.3,0.1-0.6,0.1-0.8c0.1-0.4,0.2-0.8,0.3-1.2h-7.6
					v2.3c2.5,1.4,4.1,4.1,4.1,7c0,0.3,0,0.6,0,0.8c-0.2,2.3-1.4,4.3-3.3,5.7C16.1,61.1,15.9,61.6,15.8,62.1z"/>
			</g>
			<g>
				<path class="st0" d="M37.5,49.5c0,1.1-0.2,2.1-0.6,3c0,0,0,0,0,0c-0.6,1.5-1.7,2.8-3.1,3.6c-0.1,0.1-0.2,0.1-0.3,0.2
					c-0.5,0.3-1.1,0.5-1.7,0.7c0,0,0,0,0,0c-0.4,0.1-0.7,0.2-1.1,0.2c-0.3,0-0.5,0-0.8,0c-0.3,0-0.5,0-0.8,0h0
					c-0.2,0-0.5-0.1-0.7-0.1c-0.7-0.1-1.4-0.4-2.1-0.7c-0.2-0.1-0.4-0.2-0.6-0.4c-0.1-0.1-0.2-0.1-0.3-0.2c-0.3-0.2-0.6-0.4-0.8-0.7
					c-0.1-0.1-0.1-0.1-0.2-0.2c-0.2-0.2-0.3-0.3-0.4-0.5c-0.1-0.1-0.2-0.2-0.2-0.3c-0.2-0.2-0.3-0.4-0.4-0.6
					c-0.1-0.1-0.1-0.2-0.2-0.3c-0.1-0.2-0.2-0.5-0.3-0.7c-0.1-0.1-0.1-0.2-0.1-0.3c-0.1-0.1-0.1-0.2-0.1-0.4c0-0.1-0.1-0.2-0.1-0.2
					c0-0.1,0-0.1,0-0.2c-0.1-0.4-0.2-0.7-0.2-1.1c0-0.2,0-0.4,0-0.6c0,0.5-0.1,1-0.2,1.5c-0.2,0.8-0.5,1.5-0.9,2.2
					c-0.2,0.3-0.4,0.6-0.6,0.9c-0.1,0.1-0.1,0.1-0.2,0.2c-0.2,0.2-0.4,0.4-0.6,0.6c0,0-0.1,0.1-0.1,0.1c-0.1,0.1-0.2,0.1-0.2,0.2
					c-0.1,0-0.1,0.1-0.2,0.1c-0.2,0.2-0.4,0.3-0.7,0.5c0,0-0.1,0.1-0.1,0.1c-0.2,0.1-0.3,0.2-0.5,0.3c-0.2,0.1-0.4,0.2-0.6,0.3
					c-0.1,0-0.2,0.1-0.3,0.1c-0.1,0-0.2,0.1-0.3,0.1c-0.1,0-0.3,0.1-0.4,0.1c-0.1,0-0.2,0-0.3,0.1c-0.5,0.1-1,0.1-1.5,0.1
					c-0.3,0-0.5,0-0.8,0c-0.4,0-0.8-0.1-1.1-0.2c-0.6-0.2-1.2-0.4-1.8-0.7c-0.1-0.1-0.2-0.1-0.3-0.2c-1.4-0.8-2.5-2.1-3.1-3.6
					c0,0,0,0,0,0c-0.4-0.9-0.6-1.9-0.6-3c0-0.2,0-0.5,0-0.7c0,0,0,0,0-0.1c0-0.4,0.1-0.8,0.2-1.1c0.1-0.5,0.3-1,0.5-1.4
					c0.1-0.1,0.1-0.2,0.2-0.3c0.1-0.2,0.3-0.4,0.4-0.6c0.2-0.3,0.5-0.6,0.7-0.9c0.6-0.7,1.4-1.3,2.3-1.7c0.3-0.1,0.5-0.2,0.8-0.3
					c0.1,0,0.2-0.1,0.3-0.1c0.1,0,0.3-0.1,0.4-0.1c0,0,0,0,0,0c0.5-0.1,1-0.3,1.5-0.5c0.2-0.1,0.4-0.2,0.6-0.3c1-0.4,1.9-1,2.8-1.7
					c1-0.8,1.9-1.8,2.7-2.9c0.9-1.3,1.6-2.8,1.9-4.3c0-0.1,0-0.2,0-0.3c0-0.1,0-0.3,0.1-0.4c0,0,0,0,0,0c0,0,0,0,0,0
					c0.1,0.2,0.2,0.5,0.2,0.8c0.4,1.6,1,3.1,2,4.4c0,0,0,0,0,0.1c1,1.5,2.4,2.8,4,3.7c-2,0.7-3.7,2.3-4.6,4.3
					c-0.2,0.5-0.3,1-0.4,1.5c-0.1,0.3-0.1,0.5-0.1,0.8c0.2-0.8,0.6-1.6,1.1-2.3c1.3-1.8,3.4-3,5.6-3.1c0.7,0,1.3,0.1,2,0.3
					c0,0,0,0,0,0c0.3,0.1,0.6,0.2,0.8,0.3c2.3,1,4,3,4.6,5.4c0,0.1,0.1,0.3,0.1,0.4c0,0.2,0.1,0.4,0.1,0.5c0,0.1,0,0.2,0,0.4
					C37.5,49.2,37.5,49.4,37.5,49.5z"/>
			</g>
			<g>
				<path class="st1" d="M29.8,57.5c-0.3,0-0.5,0-0.8,0c-0.3,0-0.5-0.1-0.8-0.1c-0.7-0.1-1.5-0.4-2.1-0.8c-0.2-0.1-0.4-0.2-0.6-0.4
					c-0.1-0.1-0.2-0.1-0.3-0.2c-0.3-0.2-0.6-0.4-0.9-0.7L24,55.1c-0.2-0.2-0.3-0.3-0.5-0.5c-0.1-0.1-0.1-0.1-0.2-0.2l-0.1-0.1
					c-0.2-0.2-0.3-0.4-0.4-0.6c-0.1-0.1-0.1-0.2-0.2-0.3c-0.1-0.3-0.3-0.5-0.4-0.8c0-0.1-0.1-0.2-0.1-0.3c-0.1-0.2-0.1-0.3-0.2-0.4
					c0,0,0-0.1-0.1-0.2c0,0,0-0.1,0-0.1c-0.2,0.7-0.5,1.4-0.8,2c-0.2,0.3-0.4,0.6-0.6,0.9c0,0-0.1,0.1-0.1,0.1l-0.1,0.1
					c-0.2,0.2-0.4,0.4-0.6,0.6c-0.1,0.1-0.1,0.1-0.1,0.1c0,0-0.1,0.1-0.2,0.1l-0.3,0.2c-0.3,0.2-0.5,0.4-0.7,0.5
					c0,0-0.1,0.1-0.1,0.1c-0.2,0.1-0.4,0.2-0.5,0.3c-0.2,0.1-0.4,0.2-0.7,0.3C17.1,57,17,57,16.9,57.1l-0.3,0.1
					c-0.1,0-0.3,0.1-0.4,0.1l-0.3,0.1c-0.8,0.2-1.6,0.2-2.3,0.1c-0.4,0-0.8-0.1-1.2-0.2c-0.6-0.2-1.3-0.4-1.8-0.7l-0.1-0.1
					c-0.1,0-0.1-0.1-0.2-0.1c-1.4-0.8-2.5-2.1-3.2-3.7l0-0.1c-0.4-1-0.6-2-0.6-3.1c0-0.3,0-0.5,0-0.7c0-0.5,0.1-0.9,0.2-1.2
					c0.1-0.5,0.3-1,0.5-1.5c0.1-0.1,0.1-0.2,0.2-0.3c0.1-0.2,0.3-0.4,0.4-0.7c0.2-0.3,0.4-0.6,0.7-1c0.7-0.7,1.5-1.3,2.3-1.8
					c0.2-0.1,0.5-0.2,0.8-0.3c0.1,0,0.2-0.1,0.4-0.1c0.1,0,0.2-0.1,0.3-0.1l0.4-0.1c0.4-0.1,0.8-0.2,1.2-0.4
					c0.2-0.1,0.4-0.2,0.6-0.3c1-0.4,1.9-1,2.7-1.7c1-0.8,1.9-1.8,2.6-2.9c1-1.5,1.6-2.9,1.8-4.2c0-0.1,0-0.2,0-0.3
					c0-0.2,0-0.5,0.2-0.6l0.1-0.1l0.4,0v0.2c0.1,0.2,0.1,0.4,0.2,0.6c0,0.1,0,0.1,0,0.2c0.4,1.7,1.1,3.1,1.9,4.3l-0.2,0.2l0.2-0.2
					c1,1.5,2.4,2.7,3.9,3.7l0.5,0.3l-0.6,0.2c-1.9,0.7-3.4,2.1-4.3,3.9c1.4-1.9,3.6-3.1,5.8-3.2c0.7,0,1.3,0.1,2,0.3H32l0,0
					c0.3,0.1,0.5,0.2,0.8,0.3c2.4,1,4.1,3.1,4.7,5.6c0,0.1,0.1,0.3,0.1,0.4c0,0.2,0.1,0.4,0.1,0.5c0,0.1,0,0.2,0,0.4
					c0,0.1,0,0.3,0,0.4c0,1.1-0.2,2.1-0.6,3.1l0,0.1c-0.6,1.5-1.8,2.8-3.2,3.7c-0.1,0-0.1,0.1-0.2,0.1l-0.1,0.1
					c-0.6,0.3-1.2,0.6-1.8,0.7l-0.1,0l0,0c-0.3,0.1-0.7,0.1-1,0.2C30.3,57.5,30,57.5,29.8,57.5z M21.8,49.6l0.5,0c0,0.2,0,0.4,0,0.6
					c0,0.4,0.1,0.7,0.2,1.1c0,0.1,0,0.1,0,0.1l0,0.1c0,0.1,0,0.1,0.1,0.2c0,0.1,0.1,0.2,0.1,0.3l0,0.1c0,0.1,0.1,0.2,0.1,0.3
					c0.1,0.3,0.2,0.5,0.3,0.7c0,0.1,0.1,0.2,0.2,0.3c0.1,0.2,0.3,0.4,0.4,0.6l0.1,0.1c0,0.1,0.1,0.1,0.1,0.2
					c0.1,0.2,0.3,0.3,0.4,0.5l0.2,0.2c0.2,0.2,0.5,0.4,0.8,0.7c0.1,0.1,0.2,0.1,0.3,0.2c0.2,0.1,0.4,0.2,0.6,0.3
					c0.6,0.3,1.3,0.6,2,0.7c0.2,0,0.5,0.1,0.7,0.1c0.5,0.1,1,0.1,1.5,0c0.4,0,0.7-0.1,1.1-0.2l0.2-0.1l0,0c0.5-0.1,1-0.4,1.5-0.6
					l0.1-0.1c0.1,0,0.1-0.1,0.2-0.1c1.3-0.8,2.4-2,3-3.5l0-0.1c0.4-0.9,0.6-1.9,0.6-2.8c0-0.1,0-0.2,0-0.3c0-0.1,0-0.3,0-0.4
					c0-0.2,0-0.3-0.1-0.5c0-0.1,0-0.3-0.1-0.4c-0.5-2.3-2.2-4.3-4.4-5.2c-0.3-0.1-0.5-0.2-0.8-0.3l0,0c-0.6-0.2-1.2-0.3-1.9-0.2
					c-2,0.1-4.1,1.2-5.4,3c-0.5,0.7-0.8,1.4-1.1,2.2l-0.7,2.2l0.1-2.3c0-0.2,0-0.5,0.1-0.8c0.1-0.5,0.3-1.1,0.4-1.5
					c0.8-1.9,2.3-3.5,4.2-4.3c-1.4-0.9-2.7-2.1-3.6-3.5l0.2-0.2L24,36.9c-0.8-1.2-1.5-2.6-1.9-4.2c-0.3,1.3-0.9,2.7-1.8,4.1
					c-0.8,1.1-1.7,2.1-2.7,3c-0.9,0.7-1.8,1.3-2.8,1.8c-0.2,0.1-0.4,0.2-0.6,0.3c-0.4,0.2-0.8,0.3-1.2,0.4l-0.4,0.1
					c-0.1,0-0.2,0.1-0.3,0.1c-0.1,0-0.2,0.1-0.3,0.1c-0.3,0.1-0.5,0.2-0.8,0.3c-0.8,0.4-1.6,1-2.2,1.6c-0.3,0.3-0.5,0.6-0.7,0.9
					C8,45.5,7.9,45.7,7.8,46c-0.1,0.1-0.1,0.2-0.2,0.3c-0.2,0.4-0.4,0.9-0.5,1.4C7,48,7,48.4,6.9,48.7l0,0.1c0,0.2,0,0.4,0,0.6
					c0,1,0.2,1.9,0.6,2.8l0,0.1c0.6,1.4,1.7,2.7,3,3.5c0.1,0,0.1,0.1,0.2,0.1l0.1,0.1c0.5,0.3,1.1,0.5,1.7,0.7
					c0.4,0.1,0.7,0.2,1.1,0.2c0.7,0.1,1.4,0,2.2-0.1l0.3-0.1c0.1,0,0.3-0.1,0.4-0.1l0.3-0.1c0.1,0,0.2-0.1,0.3-0.1
					c0.2-0.1,0.4-0.2,0.6-0.3c0.2-0.1,0.3-0.2,0.5-0.3c0.1,0,0.1-0.1,0.1-0.1c0.2-0.1,0.4-0.3,0.7-0.5l0.3-0.2c0,0,0.1-0.1,0.1-0.1
					c0.1-0.1,0.1-0.1,0.1-0.1c0.2-0.2,0.4-0.4,0.5-0.6l0.1-0.1c0,0,0.1-0.1,0.1-0.1c0.2-0.3,0.4-0.6,0.6-0.9
					c0.4-0.7,0.7-1.4,0.8-2.1C21.7,50.7,21.8,50.2,21.8,49.6z"/>
			</g>
		</g>
		<g>
			<g>
				<path class="st0" d="M199.2,260.6c0-0.2,0-0.4,0-0.7c-0.2-2.3-1.4-4.3-3.2-5.6c-0.6-0.4-0.9-1-0.9-1.7v0h13.1v0
					c0,0.7-0.4,1.3-0.9,1.7c-1.7,1.3-2.9,3.2-3.2,5.5c0,0.3,0,0.5,0,0.8c0,3,1.7,5.5,4.1,6.8v2.7h-8.3c0.2-0.5,0.3-1,0.4-1.5
					c0-0.3,0.1-0.5,0.1-0.8c-0.2,0.8-0.6,1.6-1.1,2.3h-4.2v-2.7C197.5,266.2,199.2,263.6,199.2,260.6z"/>
			</g>
			<g>
				<path class="st1" d="M195.1,252.4h13.3v0.3c0,0.8-0.4,1.5-1,1.9c-1.7,1.3-2.8,3.2-3,5.3c0,0.2,0,0.5,0,0.8c0,2.8,1.5,5.3,4,6.6
					l0.1,0.1v3.1h-9l0-0.1l-0.1,0.1h-4.6v-3.1l0.1-0.1c2.4-1.3,4-3.8,4-6.6c0-0.2,0-0.4,0-0.6c-0.2-2.2-1.3-4.1-3.1-5.4
					c-0.6-0.5-1-1.2-1-1.9v-0.3L195.1,252.4z M207.8,252.9h-12.5c0.1,0.5,0.3,0.9,0.8,1.2c1.9,1.4,3.1,3.5,3.3,5.8
					c0,0.2,0,0.5,0,0.7c0,2.9-1.6,5.6-4.1,7v2.3h3.8c0.4-0.6,0.8-1.3,1-2.1l0.7-2.3l-0.2,2.4c0,0.3-0.1,0.6-0.1,0.8
					c-0.1,0.4-0.2,0.8-0.3,1.2h7.6v-2.3c-2.5-1.4-4.1-4.1-4.1-7c0-0.3,0-0.6,0-0.8c0.2-2.3,1.4-4.3,3.3-5.7
					C207.5,253.9,207.8,253.4,207.8,252.9z"/>
			</g>
			<g>
				<path class="st0" d="M186.2,265.5c0-1.1,0.2-2.1,0.6-3c0,0,0,0,0,0c0.6-1.5,1.7-2.8,3.1-3.6c0.1-0.1,0.2-0.1,0.3-0.2
					c0.5-0.3,1.1-0.5,1.7-0.7c0,0,0,0,0,0c0.4-0.1,0.7-0.2,1.1-0.2c0.3,0,0.5,0,0.8,0c0.3,0,0.5,0,0.8,0h0c0.2,0,0.5,0.1,0.7,0.1
					c0.7,0.1,1.4,0.4,2.1,0.7c0.2,0.1,0.4,0.2,0.6,0.4c0.1,0.1,0.2,0.1,0.3,0.2c0.3,0.2,0.6,0.4,0.8,0.7c0.1,0.1,0.1,0.1,0.2,0.2
					c0.2,0.2,0.3,0.3,0.4,0.5c0.1,0.1,0.2,0.2,0.2,0.3c0.2,0.2,0.3,0.4,0.4,0.6c0.1,0.1,0.1,0.2,0.2,0.3c0.1,0.2,0.2,0.5,0.3,0.7
					c0.1,0.1,0.1,0.2,0.1,0.3c0.1,0.1,0.1,0.2,0.1,0.4c0,0.1,0.1,0.2,0.1,0.2c0,0.1,0,0.1,0,0.2c0.1,0.4,0.2,0.7,0.2,1.1
					c0,0.2,0,0.4,0,0.6c0-0.5,0.1-1,0.2-1.5c0.2-0.8,0.5-1.5,0.9-2.2c0.2-0.3,0.4-0.6,0.6-0.9c0.1-0.1,0.1-0.1,0.2-0.2
					c0.2-0.2,0.4-0.4,0.6-0.6c0,0,0.1-0.1,0.1-0.1c0.1-0.1,0.2-0.1,0.2-0.2c0.1,0,0.1-0.1,0.2-0.1c0.2-0.2,0.4-0.3,0.7-0.5
					c0,0,0.1-0.1,0.1-0.1c0.2-0.1,0.3-0.2,0.5-0.3c0.2-0.1,0.4-0.2,0.6-0.3c0.1,0,0.2-0.1,0.3-0.1c0.1,0,0.2-0.1,0.3-0.1
					c0.1,0,0.3-0.1,0.4-0.1c0.1,0,0.2,0,0.3-0.1c0.5-0.1,1-0.1,1.5-0.1c0.3,0,0.5,0,0.8,0c0.4,0,0.8,0.1,1.1,0.2
					c0.6,0.2,1.2,0.4,1.8,0.7c0.1,0.1,0.2,0.1,0.3,0.2c1.4,0.8,2.5,2.1,3.1,3.6c0,0,0,0,0,0c0.4,0.9,0.6,1.9,0.6,3
					c0,0.2,0,0.5,0,0.7c0,0,0,0,0,0.1c0,0.4-0.1,0.8-0.2,1.1c-0.1,0.5-0.3,1-0.5,1.4c-0.1,0.1-0.1,0.2-0.2,0.3
					c-0.1,0.2-0.3,0.4-0.4,0.6c-0.2,0.3-0.5,0.6-0.7,0.9c-0.6,0.7-1.4,1.3-2.3,1.7c-0.3,0.1-0.5,0.2-0.8,0.3c-0.1,0-0.2,0.1-0.3,0.1
					c-0.1,0-0.3,0.1-0.4,0.1c0,0,0,0,0,0c-0.5,0.1-1,0.3-1.5,0.5c-0.2,0.1-0.4,0.2-0.6,0.3c-1,0.4-1.9,1-2.8,1.7
					c-1,0.8-1.9,1.8-2.7,2.9c-0.9,1.3-1.6,2.8-1.9,4.3c0,0.1,0,0.2,0,0.3c0,0.1,0,0.3-0.1,0.4c0,0,0,0,0,0c0,0,0,0,0,0
					c-0.1-0.2-0.2-0.5-0.2-0.8c-0.4-1.6-1-3.1-2-4.4c0,0,0,0,0-0.1c-1-1.5-2.4-2.8-4-3.7c2-0.7,3.7-2.3,4.6-4.3
					c0.2-0.5,0.3-1,0.4-1.5c0.1-0.3,0.1-0.5,0.1-0.8c-0.2,0.8-0.6,1.6-1.1,2.3c-1.3,1.8-3.4,3-5.6,3.1c-0.7,0-1.3-0.1-2-0.3
					c0,0,0,0,0,0c-0.3-0.1-0.6-0.2-0.8-0.3c-2.3-1-4-3-4.6-5.4c0-0.1-0.1-0.3-0.1-0.4c0-0.2-0.1-0.4-0.1-0.5c0-0.1,0-0.2,0-0.4
					C186.2,265.8,186.2,265.6,186.2,265.5z"/>
			</g>
			<g>
				<path class="st1" d="M193.9,257.5c0.3,0,0.5,0,0.8,0c0.3,0,0.5,0.1,0.8,0.1c0.7,0.1,1.5,0.4,2.1,0.8c0.2,0.1,0.4,0.2,0.6,0.4
					c0.1,0.1,0.2,0.1,0.3,0.2c0.3,0.2,0.6,0.4,0.9,0.7l0.2,0.2c0.2,0.2,0.3,0.3,0.5,0.5c0.1,0.1,0.1,0.1,0.2,0.2l0.1,0.1
					c0.2,0.2,0.3,0.4,0.4,0.6c0.1,0.1,0.1,0.2,0.2,0.3c0.1,0.3,0.3,0.5,0.4,0.8c0,0.1,0.1,0.2,0.1,0.3c0.1,0.2,0.1,0.3,0.2,0.4
					c0,0,0,0.1,0.1,0.2c0,0,0,0.1,0,0.1c0.2-0.7,0.5-1.4,0.8-2c0.2-0.3,0.4-0.6,0.6-0.9c0,0,0.1-0.1,0.1-0.1l0.1-0.1
					c0.2-0.2,0.4-0.4,0.6-0.6c0.1-0.1,0.1-0.1,0.1-0.1c0,0,0.1-0.1,0.2-0.1l0.3-0.2c0.3-0.2,0.5-0.4,0.7-0.5c0,0,0.1-0.1,0.1-0.1
					c0.2-0.1,0.4-0.2,0.5-0.3c0.2-0.1,0.4-0.2,0.7-0.3c0.1-0.1,0.2-0.1,0.4-0.1l0.3-0.1c0.1,0,0.3-0.1,0.4-0.1l0.3-0.1
					c0.8-0.2,1.6-0.2,2.3-0.1c0.4,0,0.8,0.1,1.2,0.2c0.6,0.2,1.3,0.4,1.8,0.7l0.1,0.1c0.1,0,0.1,0.1,0.2,0.1
					c1.4,0.8,2.5,2.1,3.2,3.7l0,0.1c0.4,1,0.6,2,0.6,3.1c0,0.3,0,0.5,0,0.7c0,0.5-0.1,0.9-0.2,1.2c-0.1,0.5-0.3,1-0.5,1.5
					c-0.1,0.1-0.1,0.2-0.2,0.3c-0.1,0.2-0.3,0.4-0.4,0.7c-0.2,0.3-0.4,0.6-0.7,1c-0.7,0.7-1.5,1.3-2.3,1.8c-0.2,0.1-0.5,0.2-0.8,0.3
					c-0.1,0-0.2,0.1-0.4,0.1c-0.1,0-0.2,0.1-0.3,0.1l-0.4,0.1c-0.4,0.1-0.8,0.2-1.2,0.4c-0.2,0.1-0.4,0.2-0.6,0.3
					c-1,0.4-1.9,1-2.7,1.7c-1,0.8-1.9,1.8-2.6,2.9c-1,1.5-1.6,2.9-1.8,4.2c0,0.1,0,0.2,0,0.3c0,0.2,0,0.5-0.2,0.6l-0.1,0.1l-0.4,0
					v-0.2c-0.1-0.2-0.1-0.4-0.2-0.6c0-0.1,0-0.1,0-0.2c-0.4-1.7-1.1-3.1-1.9-4.3l0.2-0.2l-0.2,0.2c-1-1.5-2.4-2.7-3.9-3.7l-0.5-0.3
					l0.6-0.2c1.9-0.7,3.4-2.1,4.3-3.9c-1.4,1.9-3.6,3.1-5.8,3.2c-0.7,0-1.3-0.1-2-0.3h-0.1l0,0c-0.3-0.1-0.5-0.2-0.8-0.3
					c-2.4-1-4.1-3.1-4.7-5.6c0-0.1-0.1-0.3-0.1-0.4c0-0.2-0.1-0.4-0.1-0.5c0-0.1,0-0.2,0-0.4c0-0.1,0-0.3,0-0.4
					c0-1.1,0.2-2.1,0.6-3.1l0-0.1c0.6-1.5,1.8-2.8,3.2-3.7c0.1,0,0.1-0.1,0.2-0.1l0.1-0.1c0.6-0.3,1.2-0.6,1.8-0.7l0.1,0l0,0
					c0.3-0.1,0.7-0.1,1-0.2C193.3,257.5,193.6,257.5,193.9,257.5z M201.9,265.4l-0.5,0c0-0.2,0-0.4,0-0.6c0-0.4-0.1-0.7-0.2-1.1
					c0-0.1,0-0.1,0-0.1l0-0.1c0-0.1,0-0.1-0.1-0.2c0-0.1-0.1-0.2-0.1-0.3l0-0.1c0-0.1-0.1-0.2-0.1-0.3c-0.1-0.3-0.2-0.5-0.3-0.7
					c0-0.1-0.1-0.2-0.2-0.3c-0.1-0.2-0.3-0.4-0.4-0.6l-0.1-0.1c0-0.1-0.1-0.1-0.1-0.2c-0.1-0.2-0.3-0.3-0.4-0.5l-0.2-0.2
					c-0.2-0.2-0.5-0.4-0.8-0.7c-0.1-0.1-0.2-0.1-0.3-0.2c-0.2-0.1-0.4-0.2-0.6-0.3c-0.6-0.3-1.3-0.6-2-0.7c-0.2,0-0.5-0.1-0.7-0.1
					c-0.5-0.1-1-0.1-1.5,0c-0.4,0-0.7,0.1-1.1,0.2l-0.2,0.1l0,0c-0.5,0.1-1,0.4-1.5,0.6l-0.1,0.1c-0.1,0-0.1,0.1-0.2,0.1
					c-1.3,0.8-2.4,2-3,3.5l0,0.1c-0.4,0.9-0.6,1.9-0.6,2.8c0,0.1,0,0.2,0,0.3c0,0.1,0,0.3,0,0.4c0,0.2,0,0.3,0.1,0.5
					c0,0.1,0,0.3,0.1,0.4c0.5,2.3,2.2,4.3,4.4,5.2c0.3,0.1,0.5,0.2,0.8,0.3l0,0c0.6,0.2,1.2,0.3,1.9,0.2c2-0.1,4.1-1.2,5.4-3
					c0.5-0.7,0.8-1.4,1.1-2.2l0.7-2.2l-0.1,2.3c0,0.2,0,0.5-0.1,0.8c-0.1,0.5-0.3,1.1-0.4,1.5c-0.8,1.9-2.3,3.5-4.2,4.3
					c1.4,0.9,2.7,2.1,3.6,3.5l-0.2,0.2l0.2-0.2c0.8,1.2,1.5,2.6,1.9,4.2c0.3-1.3,0.9-2.7,1.8-4.1c0.8-1.1,1.7-2.1,2.7-3
					c0.9-0.7,1.8-1.3,2.8-1.8c0.2-0.1,0.4-0.2,0.6-0.3c0.4-0.2,0.8-0.3,1.2-0.4l0.4-0.1c0.1,0,0.2-0.1,0.3-0.1
					c0.1,0,0.2-0.1,0.3-0.1c0.3-0.1,0.5-0.2,0.8-0.3c0.8-0.4,1.6-1,2.2-1.6c0.3-0.3,0.5-0.6,0.7-0.9c0.1-0.2,0.3-0.4,0.4-0.6
					c0.1-0.1,0.1-0.2,0.2-0.3c0.2-0.4,0.4-0.9,0.5-1.4c0.1-0.3,0.2-0.7,0.2-1.1l0-0.1c0-0.2,0-0.4,0-0.6c0-1-0.2-1.9-0.6-2.8l0-0.1
					c-0.6-1.4-1.7-2.7-3-3.5c-0.1,0-0.1-0.1-0.2-0.1l-0.1-0.1c-0.5-0.3-1.1-0.5-1.7-0.7c-0.4-0.1-0.7-0.2-1.1-0.2
					c-0.7-0.1-1.4,0-2.2,0.1l-0.3,0.1c-0.1,0-0.3,0.1-0.4,0.1l-0.3,0.1c-0.1,0-0.2,0.1-0.3,0.1c-0.2,0.1-0.4,0.2-0.6,0.3
					c-0.2,0.1-0.3,0.2-0.5,0.3c-0.1,0-0.1,0.1-0.1,0.1c-0.2,0.1-0.4,0.3-0.7,0.5l-0.3,0.2c0,0-0.1,0.1-0.1,0.1
					c-0.1,0.1-0.1,0.1-0.1,0.1c-0.2,0.2-0.4,0.4-0.5,0.6l-0.1,0.1c0,0-0.1,0.1-0.1,0.1c-0.2,0.3-0.4,0.6-0.6,0.9
					c-0.4,0.7-0.7,1.4-0.8,2.1C201.9,264.3,201.9,264.8,201.9,265.4z"/>
			</g>
		</g>
	</g>
</g>
</svg>
