<?xml version="1.0" encoding="utf-8"?>
<!-- Generator: Adobe Illustrator 25.2.0, SVG Export Plug-In . SVG Version: 6.00 Build 0)  -->
<svg version="1.1" id="Layer_1" xmlns="http://www.w3.org/2000/svg" xmlns:xlink="http://www.w3.org/1999/xlink" x="0px" y="0px"
	 viewBox="0 0 224.2 312.8" style="enable-background:new 0 0 224.2 312.8;" xml:space="preserve">
<style type="text/css">
	.st0{fill:#190B38;}
	.st1{opacity:2.000000e-02;enable-background:new    ;}
	.st2{opacity:5.000000e-02;enable-background:new    ;}
	.st3{enable-background:new    ;}
	.st4{fill:none;stroke:#000000;stroke-miterlimit:10;}
	.st5{fill:#050307;}
</style>
<g>
	<g>
		<path d="M93.1,94c-0.2,0-0.4-0.2-0.5-0.4c0-0.3,0.1-0.5,0.4-0.6l4.5-0.8c0.3,0,0.5,0.1,0.6,0.4c0,0.3-0.1,0.5-0.4,0.6L93.1,94
			C93.2,94,93.1,94,93.1,94z"/>
	</g>
	<g>
		<polygon points="142,157 123,157 102.1,136.1 102.9,135.3 123.4,156 142,156 		"/>
	</g>
	<g>
		<path d="M125.8,97.6h-21.9l-1-6.1c-0.3-1.8-1.9-3.2-3.7-3.2h-9.3l5.3-24.9c0.4-2.8,2.9-4.9,5.8-4.9h23.7c3.2,0,5.8,2.5,5.9,5.6
			l1.1,27.4c0.1,1.6-0.5,3.2-1.7,4.3C128.9,96.9,127.4,97.6,125.8,97.6z M104.7,96.6h21.1c1.3,0,2.6-0.5,3.5-1.5
			c0.9-1,1.4-2.2,1.4-3.6l-1.1-27.4c-0.1-2.6-2.2-4.6-4.9-4.6H101c-2.4,0-4.4,1.8-4.8,4.1l-5.1,23.7h8.1c2.3,0,4.4,1.7,4.7,4
			L104.7,96.6z"/>
	</g>
	<g>
		<path d="M104.9,97.6H94.4c-0.9,0-1.7-0.4-2.2-1c-0.5-0.7-0.7-1.5-0.6-2.4l1.3-6.9h5.8c2.7,0,5.1,2,5.5,4.7L104.9,97.6z M93.7,88.3
			l-1.1,6.1c-0.1,0.6,0,1.1,0.4,1.5c0.3,0.4,0.9,0.7,1.4,0.7h9.3l-0.5-4.4c-0.4-2.2-2.3-3.9-4.5-3.9H93.7z"/>
	</g>
	<g>
		<path d="M102.3,136.6h-18l10.4-40h44.2l1.1,15l-8.3-5.8L102.3,136.6z M85.6,135.6h16.2l29.6-31.1l7.3,5l-0.9-12H95.5L85.6,135.6z"
			/>
	</g>
	<g>
		<polygon points="82.3,80.2 82.3,141.1 80.2,141.1 80.2,83.7 		"/>
	</g>
	<g>
		<rect x="78" y="141.3" width="6" height="1"/>
	</g>
	<g>
		<g>
			<polygon class="st0" points="92.5,136.1 102.1,136.1 116.6,150.5 80.2,150.5 80.2,142.5 96.6,142.5 			"/>
		</g>
		<g>
			<path d="M117.8,151H79.7v-9h16l-4.1-6.4h10.7L117.8,151z M80.7,150h34.7l-13.5-13.4h-8.5l4.1,6.4H80.7V150z"/>
		</g>
	</g>
	<g>
		<g>
			<polygon class="st0" points="95.1,97.1 101.1,113.7 92.5,136.1 102.1,136.1 131.6,105.2 137.8,97.1 			"/>
		</g>
		<g>
			<path d="M102.3,136.6H91.8l8.8-22.9l-6.2-17.1h44.4l-6.8,8.9L102.3,136.6z M93.2,135.6h8.7l29.4-30.7l5.5-7.3h-41l5.8,16.1
				L93.2,135.6z"/>
		</g>
	</g>
	<g>
		<path d="M108.6,71H94.2c-0.3,0-0.5-0.2-0.5-0.5s0.2-0.5,0.5-0.5h14.4c0.3,0,0.5,0.2,0.5,0.5S108.9,71,108.6,71z"/>
	</g>
	<g>
		<path d="M105.8,75.6h-12c-0.3,0-0.5-0.2-0.5-0.5s0.2-0.5,0.5-0.5h12c0.3,0,0.5,0.2,0.5,0.5S106.1,75.6,105.8,75.6z"/>
	</g>
	<g>
		<path d="M95,75.6c0,0-0.1,0-0.1,0c-0.3-0.1-0.4-0.3-0.4-0.6l1-4.6c0.1-0.3,0.3-0.4,0.6-0.4c0.3,0.1,0.4,0.3,0.4,0.6l-1,4.6
			C95.4,75.4,95.2,75.6,95,75.6z"/>
	</g>
	<g>
		<path d="M96.9,75.6c0,0-0.1,0-0.1,0c-0.3-0.1-0.4-0.3-0.4-0.6l1-4.6c0.1-0.3,0.3-0.4,0.6-0.4c0.3,0.1,0.4,0.3,0.4,0.6l-1,4.6
			C97.3,75.4,97.1,75.6,96.9,75.6z"/>
	</g>
	<g>
		<path d="M98.8,75.6c0,0-0.1,0-0.1,0c-0.3-0.1-0.4-0.3-0.4-0.6l1-4.6c0.1-0.3,0.3-0.4,0.6-0.4c0.3,0.1,0.4,0.3,0.4,0.6l-1,4.6
			C99.2,75.4,99,75.6,98.8,75.6z"/>
	</g>
	<g>
		<path d="M100.6,75.6c0,0-0.1,0-0.1,0c-0.3-0.1-0.4-0.3-0.4-0.6l1-4.6c0.1-0.3,0.3-0.4,0.6-0.4c0.3,0.1,0.4,0.3,0.4,0.6l-1,4.6
			C101,75.4,100.8,75.6,100.6,75.6z"/>
	</g>
	<g>
		<path d="M102.5,75.6c0,0-0.1,0-0.1,0c-0.3-0.1-0.4-0.3-0.4-0.6l1-4.6c0.1-0.3,0.3-0.4,0.6-0.4c0.3,0.1,0.4,0.3,0.4,0.6l-1,4.6
			C102.9,75.4,102.7,75.6,102.5,75.6z"/>
	</g>
	<g>
		<path d="M104.3,75.6c0,0-0.1,0-0.1,0c-0.3-0.1-0.4-0.3-0.4-0.6l1.1-4.6c0.1-0.3,0.3-0.4,0.6-0.4c0.3,0.1,0.4,0.3,0.4,0.6l-1.1,4.6
			C104.7,75.4,104.5,75.6,104.3,75.6z"/>
	</g>
	<g>
		<path d="M126.4,221.3c-0.2,0-0.5-0.2-0.5-0.4c0-0.3,0.1-0.5,0.4-0.6l4.5-0.7c0.3,0,0.5,0.1,0.6,0.4c0,0.3-0.1,0.5-0.4,0.6
			L126.4,221.3C126.5,221.3,126.4,221.3,126.4,221.3z"/>
	</g>
	<g>
		<polygon points="121.1,178.2 100.6,157.6 82,157.6 82,156.6 101,156.6 121.9,177.4 		"/>
	</g>
	<g>
		<path d="M123,255H99.3c-3.2,0-5.8-2.5-5.9-5.6L92.3,222c-0.1-1.6,0.5-3.2,1.7-4.3c1.1-1.1,2.7-1.8,4.2-1.8h21.9l1,6.1
			c0.3,1.8,1.9,3.2,3.7,3.2h9.3l-5.3,24.9C128.4,252.9,125.9,255,123,255z M98.2,216.9c-1.3,0-2.6,0.5-3.5,1.5
			c-0.9,1-1.4,2.2-1.4,3.6l1.1,27.4c0.1,2.6,2.2,4.6,4.9,4.6H123c2.4,0,4.4-1.8,4.8-4.1l5.1-23.7h-8.1c-2.3,0-4.3-1.7-4.7-4
			l-0.8-5.3H98.2z"/>
	</g>
	<g>
		<path d="M131.1,226.2h-5.8c-2.7,0-5.1-2-5.5-4.7l-0.7-5.6h10.5c0.9,0,1.7,0.4,2.2,1c0.5,0.7,0.7,1.5,0.6,2.4L131.1,226.2z
			 M120.3,216.9l0.5,4.4c0.4,2.2,2.3,3.9,4.5,3.9h5l1.1-6.1c0.1-0.6,0-1.1-0.4-1.5c-0.3-0.4-0.9-0.7-1.4-0.7H120.3z"/>
	</g>
	<g>
		<path d="M129.3,216.9H85.1l-1.1-15l8.3,5.9l29.4-30.7h18L129.3,216.9z M86.1,215.9h42.4l9.8-37.9h-16.2l-29.7,31.1l-7.3-5.1
			L86.1,215.9z"/>
	</g>
	<g>
		<polygon points="141.7,233.4 141.7,172.4 143.8,172.4 143.8,229.9 		"/>
	</g>
	<g>
		<rect x="140" y="171.3" width="6" height="1"/>
	</g>
	<g>
		<g>
			<polygon class="st0" points="131.5,177.5 121.9,177.5 107.4,163.1 143.8,163.1 143.8,171.1 127.4,171.1 			"/>
		</g>
		<g>
			<path d="M132.4,178h-10.7l-15.5-15.4h38.1v9h-16L132.4,178z M122.1,177h8.5l-4.1-6.4h16.8v-7h-34.7L122.1,177z"/>
		</g>
	</g>
	<g>
		<g>
			<polygon class="st0" points="128.9,216.4 122.9,199.9 131.5,177.5 121.9,177.5 92.4,208.4 86.2,216.4 			"/>
		</g>
		<g>
			<path d="M129.6,216.9H85.2l6.8-8.8l29.7-31.1h10.5l-8.8,22.9L129.6,216.9z M87.2,215.9h41l-5.8-16l8.4-21.9h-8.7l-29.4,30.7
				L87.2,215.9z"/>
		</g>
	</g>
	<g>
		<path d="M129.8,243.6h-14.4c-0.3,0-0.5-0.2-0.5-0.5s0.2-0.5,0.5-0.5h14.4c0.3,0,0.5,0.2,0.5,0.5S130.1,243.6,129.8,243.6z"/>
	</g>
	<g>
		<path d="M130.2,238.9h-12c-0.3,0-0.5-0.2-0.5-0.5s0.2-0.5,0.5-0.5h12c0.3,0,0.5,0.2,0.5,0.5S130.5,238.9,130.2,238.9z"/>
	</g>
	<g>
		<path d="M128,243.6c0,0-0.1,0-0.1,0c-0.3-0.1-0.4-0.3-0.4-0.6l1-4.7c0.1-0.3,0.3-0.4,0.6-0.4c0.3,0.1,0.4,0.3,0.4,0.6l-1,4.7
			C128.4,243.4,128.2,243.6,128,243.6z"/>
	</g>
	<g>
		<path d="M126.1,243.6c0,0-0.1,0-0.1,0c-0.3-0.1-0.4-0.3-0.4-0.6l1-4.7c0.1-0.3,0.3-0.4,0.6-0.4c0.3,0.1,0.4,0.3,0.4,0.6l-1,4.7
			C126.5,243.4,126.3,243.6,126.1,243.6z"/>
	</g>
	<g>
		<path d="M124.2,243.6c0,0-0.1,0-0.1,0c-0.3-0.1-0.4-0.3-0.4-0.6l1-4.7c0.1-0.3,0.3-0.4,0.6-0.4c0.3,0.1,0.4,0.3,0.4,0.6l-1,4.7
			C124.6,243.4,124.4,243.6,124.2,243.6z"/>
	</g>
	<g>
		<path d="M122.4,243.6c0,0-0.1,0-0.1,0c-0.3-0.1-0.4-0.3-0.4-0.6l1-4.7c0.1-0.3,0.3-0.4,0.6-0.4c0.3,0.1,0.4,0.3,0.4,0.6l-1,4.7
			C122.8,243.4,122.6,243.6,122.4,243.6z"/>
	</g>
	<g>
		<path d="M120.5,243.6c0,0-0.1,0-0.1,0c-0.3-0.1-0.4-0.3-0.4-0.6l1-4.7c0.1-0.3,0.3-0.4,0.6-0.4c0.3,0.1,0.4,0.3,0.4,0.6l-1,4.7
			C120.9,243.4,120.7,243.6,120.5,243.6z"/>
	</g>
	<g>
		<path d="M118.6,243.6c0,0-0.1,0-0.1,0c-0.3-0.1-0.4-0.3-0.4-0.6l1.1-4.7c0.1-0.3,0.3-0.4,0.6-0.4c0.3,0.1,0.4,0.3,0.4,0.6
			l-1.1,4.7C119,243.4,118.8,243.6,118.6,243.6z"/>
	</g>
	<g>
		<g class="st1">
			<rect x="-0.2" y="0.7" width="224.4" height="312.1"/>
		</g>
		<g class="st1">
			<rect x="-0.2" y="0.7" width="224.4" height="312.1"/>
		</g>
		<g class="st2">
			<path d="M173.4,283.5H50.6c-4.2,0-7.5-3.4-7.5-7.5V37.6c0-4.2,3.4-7.5,7.5-7.5h122.9c4.2,0,7.5,3.4,7.5,7.5V276
				C181,280.1,177.6,283.5,173.4,283.5z"/>
		</g>
		<g class="st3">
			<path d="M26.9,92.7c-0.7,1.2-1.6,2.2-2.7,2.8c-1.1,0.6-2.4,0.9-3.9,0.9c-2.7,0-4.9-1-6.6-3l1.5-1.6c0.6,0.7,1.3,1.2,2.2,1.7
				c0.9,0.4,1.8,0.7,2.9,0.7c1.6,0,2.9-0.5,3.9-1.6s1.5-2.6,1.5-4.6V74.4h2.2v13.9C27.9,90,27.6,91.4,26.9,92.7z"/>
		</g>
		<g class="st3">
			<path class="st4" d="M26.9,92.7c-0.7,1.2-1.6,2.2-2.7,2.8c-1.1,0.6-2.4,0.9-3.9,0.9c-2.7,0-4.9-1-6.6-3l1.5-1.6
				c0.6,0.7,1.3,1.2,2.2,1.7c0.9,0.4,1.8,0.7,2.9,0.7c1.6,0,2.9-0.5,3.9-1.6s1.5-2.6,1.5-4.6V74.4h2.2v13.9
				C27.9,90,27.6,91.4,26.9,92.7z"/>
		</g>
		<g class="st3">
			<path d="M197.2,222.5c0.7-1.2,1.5-2.2,2.7-2.8c1.1-0.6,2.4-0.9,3.9-0.9c2.7,0,4.9,1,6.6,3l-1.5,1.6c-0.6-0.7-1.3-1.2-2.2-1.7
				c-0.9-0.4-1.8-0.7-2.9-0.7c-1.6,0-2.9,0.5-3.9,1.6s-1.5,2.6-1.5,4.6v13.7h-2.2v-13.9C196.2,225.2,196.6,223.8,197.2,222.5z"/>
		</g>
		<g class="st3">
			<path class="st4" d="M197.2,222.5c0.7-1.2,1.5-2.2,2.7-2.8c1.1-0.6,2.4-0.9,3.9-0.9c2.7,0,4.9,1,6.6,3l-1.5,1.6
				c-0.6-0.7-1.3-1.2-2.2-1.7c-0.9-0.4-1.8-0.7-2.9-0.7c-1.6,0-2.9,0.5-3.9,1.6s-1.5,2.6-1.5,4.6v13.7h-2.2v-13.9
				C196.2,225.2,196.6,223.8,197.2,222.5z"/>
		</g>
		<g>
			<g>
				<path class="st0" d="M24.5,54.4c0,0.2,0,0.4,0,0.7c0.2,2.3,1.4,4.3,3.2,5.6c0.6,0.4,0.9,1,0.9,1.7l0,0H15.5l0,0
					c0-0.7,0.4-1.3,0.9-1.7c1.7-1.3,2.9-3.2,3.2-5.5c0-0.3,0-0.5,0-0.8c0-3-1.7-5.5-4.1-6.8v-2.7h8.3c-0.2,0.5-0.3,1-0.4,1.5
					c0,0.3-0.1,0.5-0.1,0.8c0.2-0.8,0.6-1.6,1.1-2.3h4.2v2.7C26.1,48.8,24.5,51.4,24.5,54.4z"/>
			</g>
			<g>
				<path class="st5" d="M28.6,62.6H15.2v-0.3c0-0.8,0.4-1.5,1-1.9c1.7-1.3,2.8-3.2,3-5.3c0-0.2,0-0.5,0-0.8c0-2.8-1.5-5.3-4-6.6
					l-0.1-0.1v-3.1h9v0.1l0.1-0.1h4.6v3.1l-0.1,0.1c-2.4,1.3-4,3.8-4,6.6c0,0.2,0,0.4,0,0.6c0.2,2.2,1.3,4.1,3.1,5.4
					c0.6,0.5,1,1.2,1,1.9v0.3L28.6,62.6z M15.8,62.1h12.5c-0.1-0.5-0.3-0.9-0.8-1.2c-1.9-1.4-3.1-3.5-3.3-5.8c0-0.2,0-0.5,0-0.7
					c0-2.9,1.6-5.6,4.1-7v-2.3h-3.8c-0.4,0.6-0.8,1.3-1,2.1l-0.7,2.3l0.2-2.4c0-0.3,0.1-0.6,0.1-0.8c0.1-0.4,0.2-0.8,0.3-1.2h-7.6
					v2.3c2.5,1.4,4.1,4.1,4.1,7c0,0.3,0,0.6,0,0.8c-0.2,2.3-1.4,4.3-3.3,5.7C16.1,61.1,15.9,61.6,15.8,62.1z"/>
			</g>
			<g>
				<path class="st0" d="M37.5,49.5c0,1.1-0.2,2.1-0.6,3l0,0c-0.6,1.5-1.7,2.8-3.1,3.6c-0.1,0.1-0.2,0.1-0.3,0.2
					c-0.5,0.3-1.1,0.5-1.7,0.7l0,0c-0.4,0.1-0.7,0.2-1.1,0.2c-0.3,0-0.5,0-0.8,0s-0.5,0-0.8,0l0,0c-0.2,0-0.5-0.1-0.7-0.1
					c-0.7-0.1-1.4-0.4-2.1-0.7c-0.2-0.1-0.4-0.2-0.6-0.4c-0.1-0.1-0.2-0.1-0.3-0.2c-0.3-0.2-0.6-0.4-0.8-0.7
					c-0.1-0.1-0.1-0.1-0.2-0.2c-0.2-0.2-0.3-0.3-0.4-0.5c-0.1-0.1-0.2-0.2-0.2-0.3c-0.2-0.2-0.3-0.4-0.4-0.6
					c-0.1-0.1-0.1-0.2-0.2-0.3c-0.1-0.2-0.2-0.5-0.3-0.7c-0.1-0.1-0.1-0.2-0.1-0.3c-0.1-0.1-0.1-0.2-0.1-0.4c0-0.1-0.1-0.2-0.1-0.2
					c0-0.1,0-0.1,0-0.2c-0.1-0.4-0.2-0.7-0.2-1.1c0-0.2,0-0.4,0-0.6c0,0.5-0.1,1-0.2,1.5c-0.2,0.8-0.5,1.5-0.9,2.2
					c-0.2,0.3-0.4,0.6-0.6,0.9c-0.1,0.1-0.1,0.1-0.2,0.2c-0.2,0.2-0.4,0.4-0.6,0.6l-0.1,0.1c-0.1,0.1-0.2,0.1-0.2,0.2
					c-0.1,0-0.1,0.1-0.2,0.1c-0.2,0.2-0.4,0.3-0.7,0.5l-0.1,0.1c-0.2,0.1-0.3,0.2-0.5,0.3s-0.4,0.2-0.6,0.3c-0.1,0-0.2,0.1-0.3,0.1
					c-0.1,0-0.2,0.1-0.3,0.1c-0.1,0-0.3,0.1-0.4,0.1s-0.2,0-0.3,0.1c-0.5,0.1-1,0.1-1.5,0.1c-0.3,0-0.5,0-0.8,0
					c-0.4,0-0.8-0.1-1.1-0.2c-0.6-0.2-1.2-0.4-1.8-0.7c-0.1-0.1-0.2-0.1-0.3-0.2c-1.4-0.8-2.5-2.1-3.1-3.6l0,0
					c-0.4-0.9-0.6-1.9-0.6-3c0-0.2,0-0.5,0-0.7c0,0,0,0,0-0.1c0-0.4,0.1-0.8,0.2-1.1c0.1-0.5,0.3-1,0.5-1.4c0.1-0.1,0.1-0.2,0.2-0.3
					c0.1-0.2,0.3-0.4,0.4-0.6C8.5,45,8.8,44.7,9,44.4c0.6-0.7,1.4-1.3,2.3-1.7c0.3-0.1,0.5-0.2,0.8-0.3c0.1,0,0.2-0.1,0.3-0.1
					s0.3-0.1,0.4-0.1l0,0c0.5-0.1,1-0.3,1.5-0.5c0.2-0.1,0.4-0.2,0.6-0.3c1-0.4,1.9-1,2.8-1.7c1-0.8,1.9-1.8,2.7-2.9
					c0.9-1.3,1.6-2.8,1.9-4.3c0-0.1,0-0.2,0-0.3s0-0.3,0.1-0.4l0,0l0,0c0.1,0.2,0.2,0.5,0.2,0.8c0.4,1.6,1,3.1,2,4.4c0,0,0,0,0,0.1
					c1,1.5,2.4,2.8,4,3.7c-2,0.7-3.7,2.3-4.6,4.3c-0.2,0.5-0.3,1-0.4,1.5c-0.1,0.3-0.1,0.5-0.1,0.8c0.2-0.8,0.6-1.6,1.1-2.3
					c1.3-1.8,3.4-3,5.6-3.1c0.7,0,1.3,0.1,2,0.3l0,0c0.3,0.1,0.6,0.2,0.8,0.3c2.3,1,4,3,4.6,5.4c0,0.1,0.1,0.3,0.1,0.4
					c0,0.2,0.1,0.4,0.1,0.5s0,0.2,0,0.4C37.5,49.2,37.5,49.4,37.5,49.5z"/>
			</g>
			<g>
				<path class="st5" d="M29.8,57.5c-0.3,0-0.5,0-0.8,0s-0.5-0.1-0.8-0.1c-0.7-0.1-1.5-0.4-2.1-0.8c-0.2-0.1-0.4-0.2-0.6-0.4
					c-0.1-0.1-0.2-0.1-0.3-0.2c-0.3-0.2-0.6-0.4-0.9-0.7L24,55.1c-0.2-0.2-0.3-0.3-0.5-0.5c-0.1-0.1-0.1-0.1-0.2-0.2l-0.1-0.1
					c-0.2-0.2-0.3-0.4-0.4-0.6c-0.1-0.1-0.1-0.2-0.2-0.3c-0.1-0.3-0.3-0.5-0.4-0.8c0-0.1-0.1-0.2-0.1-0.3C22,52.1,22,52,21.9,51.9
					c0,0,0-0.1-0.1-0.2v-0.1c-0.2,0.7-0.5,1.4-0.8,2c-0.2,0.3-0.4,0.6-0.6,0.9l-0.1,0.1l-0.1,0.1c-0.2,0.2-0.4,0.4-0.6,0.6
					c-0.1,0.1-0.1,0.1-0.1,0.1s-0.1,0.1-0.2,0.1L19,55.7c-0.3,0.2-0.5,0.4-0.7,0.5l-0.1,0.1c-0.2,0.1-0.4,0.2-0.5,0.3
					c-0.2,0.1-0.4,0.2-0.7,0.3c0.1,0.1,0,0.1-0.1,0.2l-0.3,0.1c-0.1,0-0.3,0.1-0.4,0.1l-0.3,0.1c-0.8,0.2-1.6,0.2-2.3,0.1
					c-0.4,0-0.8-0.1-1.2-0.2c-0.6-0.2-1.3-0.4-1.8-0.7l-0.1-0.1c-0.1,0-0.1-0.1-0.2-0.1c-1.4-0.8-2.5-2.1-3.2-3.7v-0.1
					c-0.4-1-0.6-2-0.6-3.1c0-0.3,0-0.5,0-0.7c0-0.5,0.1-0.9,0.2-1.2c0.1-0.5,0.3-1,0.5-1.5c0.1-0.1,0.1-0.2,0.2-0.3
					c0.1-0.2,0.3-0.4,0.4-0.7c0.2-0.3,0.4-0.6,0.7-1c0.7-0.7,1.5-1.3,2.3-1.8c0.2-0.1,0.5-0.2,0.8-0.3c0.1,0,0.2-0.1,0.4-0.1
					c0.1,0,0.2-0.1,0.3-0.1l0.4-0.1c0.4-0.1,0.8-0.2,1.2-0.4c0.2-0.1,0.4-0.2,0.6-0.3c1-0.4,1.9-1,2.7-1.7c1-0.8,1.9-1.8,2.6-2.9
					c1-1.5,1.6-2.9,1.8-4.2c0-0.1,0-0.2,0-0.3c0-0.2,0-0.5,0.2-0.6l0.1-0.1h0.4v0.2c0.1,0.2,0.1,0.4,0.2,0.6c0,0.1,0,0.1,0,0.2
					c0.4,1.7,1.1,3.1,1.9,4.3l-0.2,0.2l0.2-0.2c1,1.5,2.4,2.7,3.9,3.7l0.5,0.3l-0.6,0.2c-1.9,0.7-3.4,2.1-4.3,3.9
					c1.4-1.9,3.6-3.1,5.8-3.2c0.7,0,1.3,0.1,2,0.3H32l0,0c0.3,0.1,0.5,0.2,0.8,0.3c2.4,1,4.1,3.1,4.7,5.6c0,0.1,0.1,0.3,0.1,0.4
					c0,0.2,0.1,0.4,0.1,0.5s0,0.2,0,0.4c0,0.1,0,0.3,0,0.4c0,1.1-0.2,2.1-0.6,3.1v0.1c-0.6,1.5-1.8,2.8-3.2,3.7
					c-0.1,0-0.1,0.1-0.2,0.1l-0.1,0.1c-0.6,0.3-1.2,0.6-1.8,0.7h-0.1l0,0c-0.3,0.1-0.7,0.1-1,0.2C30.3,57.5,30,57.5,29.8,57.5z
					 M21.8,49.6h0.5c0,0.2,0,0.4,0,0.6c0,0.4,0.1,0.7,0.2,1.1c0,0.1,0,0.1,0,0.1v0.1c0,0.1,0,0.1,0.1,0.2c0,0.1,0.1,0.2,0.1,0.3v0.1
					c0,0.1,0.1,0.2,0.1,0.3c0.1,0.3,0.2,0.5,0.3,0.7c0,0.1,0.1,0.2,0.2,0.3c0.1,0.2,0.3,0.4,0.4,0.6l0.1,0.1c0,0.1,0.1,0.1,0.1,0.2
					c0.1,0.2,0.3,0.3,0.4,0.5l0.2,0.2c0.2,0.2,0.5,0.4,0.8,0.7c0.1,0.1,0.2,0.1,0.3,0.2c0.2,0.1,0.4,0.2,0.6,0.3
					c0.6,0.3,1.3,0.6,2,0.7c0.2,0,0.5,0.1,0.7,0.1c0.5,0.1,1,0.1,1.5,0c0.4,0,0.7-0.1,1.1-0.2l0.2-0.1l0,0c0.5-0.1,1-0.4,1.5-0.6
					l0.1-0.1c0.1,0,0.1-0.1,0.2-0.1c1.3-0.8,2.4-2,3-3.5v-0.1c0.4-0.9,0.6-1.9,0.6-2.8c0-0.1,0-0.2,0-0.3s0-0.3,0-0.4
					c0-0.2,0-0.3-0.1-0.5c0-0.1,0-0.3-0.1-0.4c-0.5-2.3-2.2-4.3-4.4-5.2c-0.3-0.1-0.5-0.2-0.8-0.3l0,0c-0.6-0.2-1.2-0.3-1.9-0.2
					c-2,0.1-4.1,1.2-5.4,3c-0.5,0.7-0.8,1.4-1.1,2.2l-0.7,2.2l0.1-2.3c0-0.2,0-0.5,0.1-0.8c0.1-0.5,0.3-1.1,0.4-1.5
					c0.8-1.9,2.3-3.5,4.2-4.3c-1.4-0.9-2.7-2.1-3.6-3.5L24,37l0-0.1c-0.8-1.2-1.5-2.6-1.9-4.2c-0.3,1.3-0.9,2.7-1.8,4.1
					c-0.8,1.1-1.7,2.1-2.7,3c-0.9,0.7-1.8,1.3-2.8,1.8c-0.2,0.1-0.4,0.2-0.6,0.3c-0.4,0.2-0.8,0.3-1.2,0.4l-0.4,0.1
					c-0.1,0-0.2,0.1-0.3,0.1s-0.2,0.1-0.3,0.1c-0.3,0.1-0.5,0.2-0.8,0.3c-0.8,0.4-1.6,1-2.2,1.6c-0.3,0.3-0.5,0.6-0.7,0.9
					C8,45.5,7.9,45.7,7.8,46c-0.1,0.1-0.1,0.2-0.2,0.3c-0.2,0.4-0.4,0.9-0.5,1.4C7,48,7,48.4,6.9,48.7v0.1c0,0.2,0,0.4,0,0.6
					c0,1,0.2,1.9,0.6,2.8v0.1c0.6,1.4,1.7,2.7,3,3.5c0.1,0,0.1,0.1,0.2,0.1l0.1,0.1c0.5,0.3,1.1,0.5,1.7,0.7
					c0.4,0.1,0.7,0.2,1.1,0.2c0.7,0.1,1.4,0,2.2-0.1l0.3-0.1c0.1,0,0.3-0.1,0.4-0.1l0.3-0.1c0.1,0,0.2-0.1,0.3-0.1
					c0.2-0.1,0.4-0.2,0.6-0.3s0.3-0.2,0.5-0.3c0.1,0,0.1-0.1,0.1-0.1c0.2-0.1,0.4-0.3,0.7-0.5l0.3-0.2l0.1-0.1
					c0.1-0.1,0.1-0.1,0.1-0.1c0.2-0.2,0.4-0.4,0.5-0.6l0.1-0.1l0.1-0.1c0.2-0.3,0.4-0.6,0.6-0.9c0.4-0.7,0.7-1.4,0.8-2.1
					C21.7,50.7,21.8,50.2,21.8,49.6z"/>
			</g>
		</g>
		<g>
			<g>
				<path class="st0" d="M199.2,260.6c0-0.2,0-0.4,0-0.7c-0.2-2.3-1.4-4.3-3.2-5.6c-0.6-0.4-0.9-1-0.9-1.7l0,0h13.1l0,0
					c0,0.7-0.4,1.3-0.9,1.7c-1.7,1.3-2.9,3.2-3.2,5.5c0,0.3,0,0.5,0,0.8c0,3,1.7,5.5,4.1,6.8v2.7h-8.3c0.2-0.5,0.3-1,0.4-1.5
					c0-0.3,0.1-0.5,0.1-0.8c-0.2,0.8-0.6,1.6-1.1,2.3h-4.2v-2.7C197.5,266.2,199.2,263.6,199.2,260.6z"/>
			</g>
			<g>
				<path class="st5" d="M195.1,252.4h13.3v0.3c0,0.8-0.4,1.5-1,1.9c-1.7,1.3-2.8,3.2-3,5.3c0,0.2,0,0.5,0,0.8c0,2.8,1.5,5.3,4,6.6
					l0.1,0.1v3.1h-9v-0.1l-0.1,0.1h-4.6v-3.1l0.1-0.1c2.4-1.3,4-3.8,4-6.6c0-0.2,0-0.4,0-0.6c-0.2-2.2-1.3-4.1-3.1-5.4
					c-0.6-0.5-1-1.2-1-1.9v-0.3L195.1,252.4z M207.8,252.9h-12.5c0.1,0.5,0.3,0.9,0.8,1.2c1.9,1.4,3.1,3.5,3.3,5.8
					c0,0.2,0,0.5,0,0.7c0,2.9-1.6,5.6-4.1,7v2.3h3.8c0.4-0.6,0.8-1.3,1-2.1l0.7-2.3l-0.2,2.4c0,0.3-0.1,0.6-0.1,0.8
					c-0.1,0.4-0.2,0.8-0.3,1.2h7.6v-2.3c-2.5-1.4-4.1-4.1-4.1-7c0-0.3,0-0.6,0-0.8c0.2-2.3,1.4-4.3,3.3-5.7
					C207.5,253.9,207.8,253.4,207.8,252.9z"/>
			</g>
			<g>
				<path class="st0" d="M186.2,265.5c0-1.1,0.2-2.1,0.6-3l0,0c0.6-1.5,1.7-2.8,3.1-3.6c0.1-0.1,0.2-0.1,0.3-0.2
					c0.5-0.3,1.1-0.5,1.7-0.7l0,0c0.4-0.1,0.7-0.2,1.1-0.2c0.3,0,0.5,0,0.8,0s0.5,0,0.8,0l0,0c0.2,0,0.5,0.1,0.7,0.1
					c0.7,0.1,1.4,0.4,2.1,0.7c0.2,0.1,0.4,0.2,0.6,0.4c0.1,0.1,0.2,0.1,0.3,0.2c0.3,0.2,0.6,0.4,0.8,0.7c0.1,0.1,0.1,0.1,0.2,0.2
					c0.2,0.2,0.3,0.3,0.4,0.5c0.1,0.1,0.2,0.2,0.2,0.3c0.2,0.2,0.3,0.4,0.4,0.6c0.1,0.1,0.1,0.2,0.2,0.3c0.1,0.2,0.2,0.5,0.3,0.7
					c0.1,0.1,0.1,0.2,0.1,0.3c0.1,0.1,0.1,0.2,0.1,0.4c0,0.1,0.1,0.2,0.1,0.2c0,0.1,0,0.1,0,0.2c0.1,0.4,0.2,0.7,0.2,1.1
					c0,0.2,0,0.4,0,0.6c0-0.5,0.1-1,0.2-1.5c0.2-0.8,0.5-1.5,0.9-2.2c0.2-0.3,0.4-0.6,0.6-0.9c0.1-0.1,0.1-0.1,0.2-0.2
					c0.2-0.2,0.4-0.4,0.6-0.6l0.1-0.1c0.1-0.1,0.2-0.1,0.2-0.2c0.1,0,0.1-0.1,0.2-0.1c0.2-0.2,0.4-0.3,0.7-0.5l0.1-0.1
					c0.2-0.1,0.3-0.2,0.5-0.3c0.2-0.1,0.4-0.2,0.6-0.3c0.1,0,0.2-0.1,0.3-0.1s0.2-0.1,0.3-0.1s0.3-0.1,0.4-0.1c0.1,0,0.2,0,0.3-0.1
					c0.5-0.1,1-0.1,1.5-0.1c0.3,0,0.5,0,0.8,0c0.4,0,0.8,0.1,1.1,0.2c0.6,0.2,1.2,0.4,1.8,0.7c0.1,0.1,0.2,0.1,0.3,0.2
					c1.4,0.8,2.5,2.1,3.1,3.6l0,0c0.4,0.9,0.6,1.9,0.6,3c0,0.2,0,0.5,0,0.7c0,0,0,0,0,0.1c0,0.4-0.1,0.8-0.2,1.1
					c-0.1,0.5-0.3,1-0.5,1.4c-0.1,0.1-0.1,0.2-0.2,0.3c-0.1,0.2-0.3,0.4-0.4,0.6c-0.2,0.3-0.5,0.6-0.7,0.9c-0.6,0.7-1.4,1.3-2.3,1.7
					c-0.3,0.1-0.5,0.2-0.8,0.3c-0.1,0-0.2,0.1-0.3,0.1s-0.3,0.1-0.4,0.1l0,0c-0.5,0.1-1,0.3-1.5,0.5c-0.2,0.1-0.4,0.2-0.6,0.3
					c-1,0.4-1.9,1-2.8,1.7c-1,0.8-1.9,1.8-2.7,2.9c-0.9,1.3-1.6,2.8-1.9,4.3c0,0.1,0,0.2,0,0.3c0,0.1,0,0.3-0.1,0.4l0,0l0,0
					c-0.1-0.2-0.2-0.5-0.2-0.8c-0.4-1.6-1-3.1-2-4.4c0,0,0,0,0-0.1c-1-1.5-2.4-2.8-4-3.7c2-0.7,3.7-2.3,4.6-4.3
					c0.2-0.5,0.3-1,0.4-1.5c0.1-0.3,0.1-0.5,0.1-0.8c-0.2,0.8-0.6,1.6-1.1,2.3c-1.3,1.8-3.4,3-5.6,3.1c-0.7,0-1.3-0.1-2-0.3l0,0
					c-0.3-0.1-0.6-0.2-0.8-0.3c-2.3-1-4-3-4.6-5.4c0-0.1-0.1-0.3-0.1-0.4c0-0.2-0.1-0.4-0.1-0.5s0-0.2,0-0.4
					C186.2,265.8,186.2,265.6,186.2,265.5z"/>
			</g>
			<g>
				<path class="st5" d="M193.9,257.5c0.3,0,0.5,0,0.8,0s0.5,0.1,0.8,0.1c0.7,0.1,1.5,0.4,2.1,0.8c0.2,0.1,0.4,0.2,0.6,0.4
					c0.1,0.1,0.2,0.1,0.3,0.2c0.3,0.2,0.6,0.4,0.9,0.7l0.2,0.2c0.2,0.2,0.3,0.3,0.5,0.5c0.1,0.1,0.1,0.1,0.2,0.2l0.1,0.1
					c0.2,0.2,0.3,0.4,0.4,0.6c0.1,0.1,0.1,0.2,0.2,0.3c0.1,0.3,0.3,0.5,0.4,0.8c0,0.1,0.1,0.2,0.1,0.3c0.1,0.2,0.1,0.3,0.2,0.4
					c0,0,0,0.1,0.1,0.2v0.1c0.2-0.7,0.5-1.4,0.8-2c0.2-0.3,0.4-0.6,0.6-0.9l0.1-0.1l0.1-0.1c0.2-0.2,0.4-0.4,0.6-0.6
					c0.1-0.1,0.1-0.1,0.1-0.1s0.1-0.1,0.2-0.1l0.3-0.2c0.3-0.2,0.5-0.4,0.7-0.5l0.1-0.1c0.2-0.1,0.4-0.2,0.5-0.3
					c0.2-0.1,0.4-0.2,0.7-0.3c0.1-0.1,0.2-0.1,0.4-0.1l0.3-0.1c0.1,0,0.3-0.1,0.4-0.1l0.3-0.1c0.8-0.2,1.6-0.2,2.3-0.1
					c0.4,0,0.8,0.1,1.2,0.2c0.6,0.2,1.3,0.4,1.8,0.7l0.1,0.1c0.1,0,0.1,0.1,0.2,0.1c1.4,0.8,2.5,2.1,3.2,3.7v0.1
					c0.4,1,0.6,2,0.6,3.1c0,0.3,0,0.5,0,0.7c0,0.5-0.1,0.9-0.2,1.2c-0.1,0.5-0.3,1-0.5,1.5c-0.1,0.1-0.1,0.2-0.2,0.3
					c-0.1,0.2-0.3,0.4-0.4,0.7c-0.2,0.3-0.4,0.6-0.7,1c-0.7,0.7-1.5,1.3-2.3,1.8c-0.2,0.1-0.5,0.2-0.8,0.3c-0.1,0-0.2,0.1-0.4,0.1
					c-0.1,0-0.2,0.1-0.3,0.1l-0.4,0.1c-0.4,0.1-0.8,0.2-1.2,0.4c-0.2,0.1-0.4,0.2-0.6,0.3c-1,0.4-1.9,1-2.7,1.7
					c-1,0.8-1.9,1.8-2.6,2.9c-1,1.5-1.6,2.9-1.8,4.2c0,0.1,0,0.2,0,0.3c0,0.2,0,0.5-0.2,0.6l-0.1,0.1h-0.4v-0.2
					c-0.1-0.2-0.1-0.4-0.2-0.6c0-0.1,0-0.1,0-0.2c-0.4-1.7-1.1-3.1-1.9-4.3l0.2-0.2l-0.2,0.2c-1-1.5-2.4-2.7-3.9-3.7l-0.5-0.3
					l0.6-0.2c1.9-0.7,3.4-2.1,4.3-3.9c-1.4,1.9-3.6,3.1-5.8,3.2c-0.7,0-1.3-0.1-2-0.3h-0.1l0,0c-0.3-0.1-0.5-0.2-0.8-0.3
					c-2.4-1-4.1-3.1-4.7-5.6c0-0.1-0.1-0.3-0.1-0.4c0-0.2-0.1-0.4-0.1-0.5s0-0.2,0-0.4c0-0.1,0-0.3,0-0.4c0-1.1,0.2-2.1,0.6-3.1
					v-0.1c0.6-1.5,1.8-2.8,3.2-3.7c0.1,0,0.1-0.1,0.2-0.1l0.1-0.1c0.6-0.3,1.2-0.6,1.8-0.7h0.1l0,0c0.3-0.1,0.7-0.1,1-0.2
					C193.3,257.5,193.6,257.5,193.9,257.5z M201.9,265.4h-0.5c0-0.2,0-0.4,0-0.6c0-0.4-0.1-0.7-0.2-1.1c0-0.1,0-0.1,0-0.1v-0.1
					c0-0.1,0-0.1-0.1-0.2c0-0.1-0.1-0.2-0.1-0.3v-0.1c0-0.1-0.1-0.2-0.1-0.3c-0.1-0.3-0.2-0.5-0.3-0.7c0-0.1-0.1-0.2-0.2-0.3
					c-0.1-0.2-0.3-0.4-0.4-0.6l-0.1-0.1c0-0.1-0.1-0.1-0.1-0.2c-0.1-0.2-0.3-0.3-0.4-0.5l-0.2-0.2c-0.2-0.2-0.5-0.4-0.8-0.7
					c-0.1-0.1-0.2-0.1-0.3-0.2c-0.2-0.1-0.4-0.2-0.6-0.3c-0.6-0.3-1.3-0.6-2-0.7c-0.2,0-0.5-0.1-0.7-0.1c-0.5-0.1-1-0.1-1.5,0
					c-0.4,0-0.7,0.1-1.1,0.2l-0.2,0.1l0,0c-0.5,0.1-1,0.4-1.5,0.6l-0.1,0.1c-0.1,0-0.1,0.1-0.2,0.1c-1.3,0.8-2.4,2-3,3.5v0.1
					c-0.4,0.9-0.6,1.9-0.6,2.8c0,0.1,0,0.2,0,0.3c0,0.1,0,0.3,0,0.4c0,0.2,0,0.3,0.1,0.5c0,0.1,0,0.3,0.1,0.4
					c0.5,2.3,2.2,4.3,4.4,5.2c0.3,0.1,0.5,0.2,0.8,0.3l0,0c0.6,0.2,1.2,0.3,1.9,0.2c2-0.1,4.1-1.2,5.4-3c0.5-0.7,0.8-1.4,1.1-2.2
					l0.7-2.2l-0.1,2.3c0,0.2,0,0.5-0.1,0.8c-0.1,0.5-0.3,1.1-0.4,1.5c-0.8,1.9-2.3,3.5-4.2,4.3c1.4,0.9,2.7,2.1,3.6,3.5l-0.2,0.2
					l0.2-0.2c0.8,1.2,1.5,2.6,1.9,4.2c0.3-1.3,0.9-2.7,1.8-4.1c0.8-1.1,1.7-2.1,2.7-3c0.9-0.7,1.8-1.3,2.8-1.8
					c0.2-0.1,0.4-0.2,0.6-0.3c0.4-0.2,0.8-0.3,1.2-0.4l0.4-0.1c0.1,0,0.2-0.1,0.3-0.1s0.2-0.1,0.3-0.1c0.3-0.1,0.5-0.2,0.8-0.3
					c0.8-0.4,1.6-1,2.2-1.6c0.3-0.3,0.5-0.6,0.7-0.9c0.1-0.2,0.3-0.4,0.4-0.6c0.1-0.1,0.1-0.2,0.2-0.3c0.2-0.4,0.4-0.9,0.5-1.4
					c0.1-0.3,0.2-0.7,0.2-1.1v-0.1c0-0.2,0-0.4,0-0.6c0-1-0.2-1.9-0.6-2.8v-0.1c-0.6-1.4-1.7-2.7-3-3.5c-0.1,0-0.1-0.1-0.2-0.1
					l-0.1-0.1c-0.5-0.3-1.1-0.5-1.7-0.7c-0.4-0.1-0.7-0.2-1.1-0.2c-0.7-0.1-1.4,0-2.2,0.1l-0.3,0.1c-0.1,0-0.3,0.1-0.4,0.1l-0.3,0.1
					c-0.1,0-0.2,0.1-0.3,0.1c-0.2,0.1-0.4,0.2-0.6,0.3c-0.2,0.1-0.3,0.2-0.5,0.3c-0.1,0-0.1,0.1-0.1,0.1c-0.2,0.1-0.4,0.3-0.7,0.5
					l-0.3,0.2l-0.1,0.1c-0.1,0.1-0.1,0.1-0.1,0.1c-0.2,0.2-0.4,0.4-0.5,0.6l-0.1,0.1l-0.1,0.1c-0.2,0.3-0.4,0.6-0.6,0.9
					c-0.4,0.7-0.7,1.4-0.8,2.1C201.9,264.3,201.9,264.8,201.9,265.4z"/>
			</g>
		</g>
	</g>
	<g>
		<g>
			<path class="st0" d="M132.8,139.9c0,0.2,0,0.5,0,0.7c0.2,2.5,1.5,4.6,3.4,6c0.6,0.4,1,1.1,1,1.8l0,0h-14l0,0c0-0.7,0.4-1.4,1-1.8
				c1.9-1.3,3.1-3.4,3.4-5.8c0-0.3,0-0.6,0-0.8c0-3.2-1.8-5.9-4.4-7.3v-2.9h8.8c-0.2,0.5-0.4,1-0.5,1.6c-0.1,0.3-0.1,0.6-0.1,0.8
				c0.3-0.9,0.7-1.7,1.2-2.4h4.5v2.9C134.6,134,132.8,136.8,132.8,139.9z"/>
		</g>
		<g>
			<path class="st5" d="M137.2,148.7H123v-0.3c0-0.8,0.4-1.6,1.1-2.1c1.8-1.3,3-3.4,3.3-5.6c0-0.3,0-0.5,0-0.8c0-3-1.6-5.6-4.2-7
				l-0.2-0.1v-3.3h9.6v0.1l0.1-0.1h4.9v3.3l-0.2,0.1c-2.6,1.4-4.2,4.1-4.2,7c0,0.2,0,0.5,0,0.7c0.2,2.3,1.4,4.4,3.3,5.8
				c0.7,0.5,1.1,1.3,1.1,2.1v0.3L137.2,148.7z M123.6,148.2h13.3c-0.1-0.5-0.4-1-0.8-1.3c-2-1.5-3.3-3.7-3.5-6.2c0-0.2,0-0.5,0-0.7
				c0-3.1,1.7-5.9,4.4-7.4v-2.4h-4.1c-0.5,0.7-0.8,1.4-1.1,2.2l-0.7,2.5l0.2-2.6c0-0.3,0.1-0.6,0.1-0.9c0.1-0.4,0.2-0.8,0.3-1.2
				h-8.1v2.4c2.7,1.5,4.4,4.3,4.4,7.4c0,0.3,0,0.6,0,0.9c-0.2,2.4-1.5,4.6-3.5,6C124,147.2,123.7,147.7,123.6,148.2z"/>
		</g>
		<g>
			<path class="st0" d="M146.7,134.8c0,1.1-0.2,2.2-0.6,3.2l0,0c-0.7,1.6-1.8,2.9-3.3,3.8c-0.1,0.1-0.2,0.1-0.4,0.2
				c-0.6,0.3-1.2,0.6-1.9,0.7l0,0c-0.4,0.1-0.8,0.2-1.2,0.2c-0.3,0-0.6,0-0.8,0c-0.3,0-0.5,0-0.8,0l0,0c-0.3,0-0.5-0.1-0.8-0.1
				c-0.8-0.1-1.5-0.4-2.2-0.8c-0.2-0.1-0.4-0.2-0.7-0.4c-0.1-0.1-0.2-0.1-0.3-0.2c-0.3-0.2-0.6-0.5-0.9-0.7
				c-0.1-0.1-0.1-0.1-0.2-0.2c-0.2-0.2-0.3-0.3-0.5-0.5c-0.1-0.1-0.2-0.2-0.2-0.3c-0.2-0.2-0.3-0.4-0.4-0.7
				c-0.1-0.1-0.1-0.2-0.2-0.3c-0.1-0.3-0.3-0.5-0.4-0.8c-0.1-0.1-0.1-0.2-0.1-0.4c-0.1-0.1-0.1-0.3-0.1-0.4c0-0.1-0.1-0.2-0.1-0.3
				s0-0.1,0-0.2c-0.1-0.4-0.2-0.8-0.2-1.2c0-0.2,0-0.5,0-0.7c0,0.6-0.1,1.1-0.2,1.7c-0.2,0.8-0.5,1.6-0.9,2.3
				c-0.2,0.3-0.4,0.7-0.7,1c-0.1,0.1-0.1,0.1-0.2,0.2c-0.2,0.2-0.4,0.4-0.6,0.6l-0.1,0.1c-0.1,0.1-0.2,0.1-0.2,0.2
				c-0.1,0.1-0.1,0.1-0.2,0.2c-0.2,0.2-0.5,0.4-0.7,0.5l-0.1,0.1c-0.2,0.1-0.4,0.2-0.6,0.3s-0.5,0.2-0.7,0.3c-0.1,0-0.2,0.1-0.4,0.1
				c-0.1,0-0.2,0.1-0.4,0.1c-0.1,0-0.3,0.1-0.4,0.1s-0.2,0-0.3,0.1c-0.5,0.1-1,0.2-1.6,0.2c-0.3,0-0.6,0-0.8,0
				c-0.4,0-0.8-0.1-1.2-0.2c-0.7-0.2-1.3-0.4-1.9-0.7c-0.1-0.1-0.2-0.1-0.3-0.2c-1.5-0.9-2.6-2.2-3.3-3.8l0,0
				c-0.4-1-0.6-2.1-0.6-3.2c0-0.3,0-0.5,0-0.8c0,0,0,0,0-0.1c0-0.4,0.1-0.8,0.2-1.2c0.1-0.5,0.3-1,0.6-1.5c0.1-0.1,0.1-0.2,0.2-0.4
				s0.3-0.5,0.4-0.7c0.2-0.3,0.5-0.7,0.8-1c0.7-0.7,1.5-1.4,2.4-1.8c0.3-0.1,0.5-0.2,0.8-0.3c0.1,0,0.2-0.1,0.4-0.1
				c0.1,0,0.3-0.1,0.4-0.1l0,0c0.5-0.2,1.1-0.3,1.6-0.5c0.2-0.1,0.5-0.2,0.7-0.3c1.1-0.5,2.1-1.1,3-1.8c1.1-0.9,2.1-1.9,2.9-3.1
				c0.9-1.4,1.7-3,2-4.6c0-0.1,0-0.2,0-0.3c0-0.1,0-0.4,0.1-0.4l0,0l0,0c0.1,0.2,0.2,0.5,0.2,0.8c0.4,1.7,1.1,3.3,2.1,4.7
				c0,0,0,0,0,0.1c1.1,1.6,2.6,3,4.3,4c-2.2,0.7-4,2.4-4.9,4.6c-0.2,0.5-0.4,1-0.5,1.6c-0.1,0.3-0.1,0.6-0.1,0.8
				c0.3-0.9,0.7-1.7,1.2-2.4c1.4-1.9,3.6-3.3,6-3.3c0.7,0,1.4,0.1,2.1,0.3l0,0c0.3,0.1,0.6,0.2,0.9,0.3c2.4,1,4.3,3.2,4.9,5.8
				c0,0.1,0.1,0.3,0.1,0.4c0,0.2,0.1,0.4,0.1,0.6c0,0.1,0,0.3,0,0.4C146.7,134.5,146.7,134.6,146.7,134.8z"/>
		</g>
		<g>
			<path class="st5" d="M138.5,143.3c-0.3,0-0.6,0-0.9,0c-0.3,0-0.6-0.1-0.8-0.1c-0.8-0.1-1.6-0.4-2.3-0.8c-0.2-0.1-0.5-0.3-0.7-0.4
				c-0.1-0.1-0.2-0.1-0.3-0.2c-0.3-0.2-0.6-0.5-0.9-0.7l-0.2-0.2c-0.2-0.2-0.3-0.4-0.5-0.5c-0.1-0.1-0.1-0.1-0.2-0.2l-0.1-0.1
				c-0.2-0.2-0.3-0.5-0.5-0.7c-0.1-0.1-0.1-0.2-0.2-0.3c-0.2-0.3-0.3-0.6-0.4-0.8c0-0.1-0.1-0.2-0.1-0.3c-0.1-0.2-0.1-0.3-0.2-0.5
				c0,0,0-0.1-0.1-0.2v-0.1c-0.2,0.7-0.5,1.4-0.9,2.1c-0.2,0.3-0.4,0.6-0.7,1l-0.1,0.1l-0.1,0.1c-0.2,0.2-0.4,0.4-0.6,0.7
				c-0.1,0.1-0.1,0.1-0.1,0.1c-0.1,0-0.1,0.1-0.2,0.1l-0.3,0.2c-0.3,0.2-0.5,0.4-0.8,0.5l-0.1,0.1c-0.2,0.1-0.4,0.2-0.6,0.3
				s-0.5,0.2-0.7,0.3c-0.1,0.1-0.3,0.1-0.4,0.1l-0.4,0.1c-0.2,0-0.3,0.1-0.5,0.1l-0.3,0.1c-0.9,0.2-1.7,0.2-2.5,0.1
				c-0.4,0-0.8-0.1-1.3-0.2c-0.7-0.2-1.3-0.4-1.9-0.8l-0.2-0.1c-0.1,0-0.1-0.1-0.2-0.1c-1.5-0.9-2.7-2.3-3.4-3.9v-0.1
				c-0.4-1-0.7-2.2-0.7-3.3c0-0.3,0-0.5,0-0.8c0-0.5,0.1-0.9,0.2-1.3c0.1-0.5,0.3-1.1,0.6-1.6c0.1-0.1,0.1-0.2,0.2-0.4
				s0.3-0.5,0.4-0.7c0.2-0.3,0.5-0.7,0.8-1c0.7-0.8,1.6-1.4,2.5-1.9c0.3-0.1,0.5-0.2,0.9-0.3c0.1,0,0.3-0.1,0.4-0.1s0.2-0.1,0.3-0.1
				l0.4-0.1c0.4-0.1,0.9-0.2,1.3-0.4c0.2-0.1,0.4-0.2,0.7-0.3c1-0.5,2-1.1,2.9-1.8c1.1-0.9,2-1.9,2.8-3.1c1-1.6,1.7-3.1,1.9-4.5
				c0-0.1,0-0.2,0-0.3c0-0.2,0-0.5,0.2-0.6l0.1-0.1h0.4v0.2c0.1,0.2,0.1,0.4,0.2,0.6c0,0.1,0,0.2,0.1,0.2c0.5,1.8,1.2,3.3,2.1,4.6
				l-0.2,0.2l0.2-0.2c1.1,1.6,2.5,2.9,4.2,3.9l0.5,0.3l-0.6,0.2c-2,0.7-3.7,2.2-4.6,4.1c1.5-2.1,3.8-3.3,6.1-3.4
				c0.7,0,1.4,0.1,2.2,0.3h0.1l0,0c0.3,0.1,0.6,0.2,0.9,0.3c2.5,1.1,4.4,3.3,5,6c0,0.2,0.1,0.3,0.1,0.5s0.1,0.4,0.1,0.6
				c0,0.1,0,0.3,0,0.4c0,0.1,0,0.3,0,0.4c0,1.1-0.2,2.3-0.7,3.3v0.1c-0.7,1.6-1.9,3-3.4,3.9c-0.1,0-0.2,0.1-0.2,0.1l-0.1,0.1
				c-0.6,0.3-1.3,0.6-1.9,0.8H140l0,0c-0.4,0.1-0.7,0.1-1.1,0.2C139.1,143.3,138.8,143.3,138.5,143.3z M130,134.9h0.6
				c0,0.2,0,0.4,0,0.6c0,0.4,0.1,0.8,0.2,1.1c0,0.1,0,0.1,0,0.1v0.1c0,0.1,0,0.1,0.1,0.2c0,0.1,0.1,0.3,0.1,0.4v0.1
				c0,0.1,0.1,0.2,0.1,0.3c0.1,0.3,0.2,0.5,0.4,0.8c0.1,0.1,0.1,0.2,0.2,0.3c0.1,0.2,0.3,0.4,0.4,0.6l0.1,0.1
				c0.1,0.1,0.1,0.1,0.2,0.2c0.1,0.2,0.3,0.3,0.4,0.5l0.2,0.2c0.3,0.2,0.5,0.5,0.9,0.7c0.1,0.1,0.2,0.1,0.3,0.2
				c0.2,0.1,0.4,0.3,0.6,0.4c0.7,0.4,1.4,0.6,2.1,0.8c0.2,0,0.5,0.1,0.7,0.1c0.6,0.1,1.1,0.1,1.6,0c0.4,0,0.8-0.1,1.1-0.2l0.2-0.1
				l0,0c0.6-0.2,1.1-0.4,1.6-0.7l0.1-0.1c0.1,0,0.2-0.1,0.2-0.1c1.4-0.8,2.5-2.2,3.2-3.7v-0.1c0.4-1,0.6-2,0.6-3c0-0.1,0-0.2,0-0.4
				c0-0.1,0-0.3,0-0.4c0-0.2,0-0.4-0.1-0.6c0-0.1-0.1-0.3-0.1-0.4c-0.6-2.4-2.4-4.6-4.7-5.6c-0.3-0.1-0.6-0.2-0.9-0.3l0,0
				c-0.7-0.2-1.3-0.3-2-0.3c-2.1,0.1-4.3,1.3-5.7,3.2c-0.5,0.7-0.9,1.5-1.1,2.3l-0.7,2.4l0.1-2.5c0-0.3,0.1-0.5,0.1-0.9
				c0.1-0.6,0.3-1.1,0.5-1.6c0.9-2.1,2.5-3.7,4.5-4.6c-1.5-1-2.9-2.3-3.9-3.8l0.2-0.2l-0.2,0.2c-0.9-1.3-1.6-2.8-2.1-4.5
				c-0.3,1.4-1,2.9-2,4.4c-0.8,1.2-1.8,2.3-2.9,3.2c-0.9,0.8-1.9,1.4-3,1.9c-0.2,0.1-0.5,0.2-0.7,0.3c-0.4,0.2-0.9,0.3-1.3,0.4
				l-0.4,0.1c-0.1,0-0.2,0.1-0.3,0.1c-0.1,0-0.3,0.1-0.4,0.1c-0.3,0.1-0.6,0.2-0.8,0.3c-0.9,0.4-1.7,1-2.3,1.7
				c-0.3,0.3-0.5,0.6-0.7,0.9c-0.1,0.2-0.3,0.4-0.4,0.7c-0.1,0.1-0.1,0.2-0.2,0.3c-0.2,0.5-0.4,1-0.5,1.5c-0.1,0.4-0.2,0.8-0.2,1.2
				v0.1c0,0.2,0,0.4,0,0.7c0,1.1,0.2,2.1,0.6,3v0.1c0.6,1.5,1.8,2.8,3.2,3.7c0.1,0,0.1,0.1,0.2,0.1l0.2,0.1c0.5,0.3,1.2,0.5,1.8,0.7
				c0.4,0.1,0.8,0.2,1.2,0.2c0.8,0.1,1.5,0,2.3-0.1l0.3-0.1c0.1,0,0.3-0.1,0.4-0.1l0.3-0.1c0.1,0,0.2-0.1,0.3-0.1
				c0.2-0.1,0.5-0.2,0.7-0.3s0.3-0.2,0.5-0.3c0.1,0,0.1-0.1,0.1-0.1c0.2-0.2,0.5-0.3,0.7-0.5l0.3-0.2l0.1-0.1
				c0.1-0.1,0.1-0.1,0.1-0.1c0.2-0.2,0.4-0.4,0.6-0.6l0.1-0.1l0.1-0.1c0.3-0.3,0.5-0.6,0.6-0.9c0.4-0.7,0.7-1.5,0.9-2.3
				C129.9,136,130,135.5,130,134.9z"/>
		</g>
	</g>
	<g>
		<g>
			<path class="st0" d="M91.2,173c0-0.2,0-0.5,0-0.7c-0.2-2.5-1.5-4.6-3.4-6c-0.6-0.4-1-1.1-1-1.8l0,0h14l0,0c0,0.7-0.4,1.4-1,1.8
				c-1.9,1.3-3.1,3.4-3.4,5.8c0,0.3,0,0.6,0,0.8c0,3.2,1.8,5.9,4.4,7.3v2.9H92c0.2-0.5,0.4-1,0.5-1.6c0.1-0.3,0.1-0.6,0.1-0.8
				c-0.3,0.9-0.7,1.7-1.2,2.4h-4.5v-2.9C89.4,178.9,91.2,176.1,91.2,173z"/>
		</g>
		<g>
			<path class="st5" d="M86.8,164.2H101v0.3c0,0.8-0.4,1.6-1.1,2.1c-1.8,1.3-3,3.4-3.3,5.6c0,0.3,0,0.5,0,0.8c0,3,1.6,5.6,4.2,7
				l0.2,0.1v3.3h-9.6v-0.1l-0.1,0.1h-4.9v-3.3l0.2-0.1c2.6-1.4,4.2-4.1,4.2-7c0-0.2,0-0.5,0-0.7c-0.2-2.3-1.4-4.4-3.3-5.8
				c-0.7-0.5-1.1-1.3-1.1-2.1v-0.3L86.8,164.2z M100.4,164.7H87.1c0.1,0.5,0.4,1,0.8,1.3c2,1.5,3.3,3.7,3.5,6.2c0,0.2,0,0.5,0,0.7
				c0,3.1-1.7,5.9-4.4,7.4v2.4h4.1c0.5-0.7,0.8-1.4,1.1-2.2l0.7-2.5l-0.2,2.6c0,0.3-0.1,0.6-0.1,0.9c-0.1,0.4-0.2,0.8-0.3,1.2h8.1
				v-2.4c-2.7-1.5-4.4-4.3-4.4-7.4c0-0.3,0-0.6,0-0.9c0.2-2.4,1.5-4.6,3.5-6C100.1,165.7,100.4,165.3,100.4,164.7z"/>
		</g>
		<g>
			<path class="st0" d="M77.3,178.1c0-1.1,0.2-2.2,0.6-3.2l0,0c0.7-1.6,1.8-2.9,3.3-3.8c0.1-0.1,0.2-0.1,0.4-0.2
				c0.6-0.3,1.2-0.6,1.9-0.7l0,0c0.4-0.1,0.8-0.2,1.2-0.2c0.3,0,0.6,0,0.8,0c0.3,0,0.5,0,0.8,0l0,0c0.3,0,0.5,0.1,0.8,0.1
				c0.8,0.1,1.5,0.4,2.2,0.8c0.2,0.1,0.4,0.2,0.7,0.4c0.1,0.1,0.2,0.1,0.3,0.2c0.3,0.2,0.6,0.5,0.9,0.7c0.1,0.1,0.1,0.1,0.2,0.2
				c0.2,0.2,0.3,0.3,0.5,0.5c0.1,0.1,0.2,0.2,0.2,0.3c0.2,0.2,0.3,0.4,0.4,0.7c0.1,0.1,0.1,0.2,0.2,0.3c0.1,0.3,0.3,0.5,0.4,0.8
				c0.1,0.1,0.1,0.2,0.1,0.4c0.1,0.1,0.1,0.3,0.1,0.4c0,0.1,0.1,0.2,0.1,0.3s0,0.1,0,0.2c0.1,0.4,0.2,0.8,0.2,1.2c0,0.2,0,0.5,0,0.7
				c0-0.6,0.1-1.1,0.2-1.7c0.2-0.8,0.5-1.6,0.9-2.3c0.2-0.3,0.4-0.7,0.7-1c0.1-0.1,0.1-0.1,0.2-0.2c0.2-0.2,0.4-0.4,0.6-0.6l0.1-0.1
				c0.1-0.1,0.2-0.1,0.2-0.2c0.1-0.1,0.1-0.1,0.2-0.2c0.2-0.2,0.5-0.4,0.7-0.5l0.1-0.1c0.2-0.1,0.4-0.2,0.6-0.3s0.5-0.2,0.7-0.3
				c0.1,0,0.2-0.1,0.4-0.1c0.1,0,0.2-0.1,0.4-0.1c0.1,0,0.3-0.1,0.4-0.1s0.2,0,0.3-0.1c0.5-0.1,1-0.2,1.6-0.2c0.3,0,0.6,0,0.8,0
				c0.4,0,0.8,0.1,1.2,0.2c0.7,0.2,1.3,0.4,1.9,0.7c0.1,0.1,0.2,0.1,0.3,0.2c1.5,0.9,2.6,2.2,3.3,3.8l0,0c0.4,1,0.6,2.1,0.6,3.2
				c0,0.3,0,0.5,0,0.8c0,0,0,0,0,0.1c0,0.4-0.1,0.8-0.2,1.2c-0.1,0.5-0.3,1-0.6,1.5c-0.1,0.1-0.1,0.2-0.2,0.4s-0.3,0.5-0.4,0.7
				c-0.2,0.3-0.5,0.7-0.8,1c-0.7,0.7-1.5,1.4-2.4,1.8c-0.3,0.1-0.5,0.2-0.8,0.3c-0.1,0-0.2,0.1-0.4,0.1c-0.1,0-0.3,0.1-0.4,0.1l0,0
				c-0.5,0.2-1.1,0.3-1.6,0.5c-0.2,0.1-0.5,0.2-0.7,0.3c-1.1,0.5-2.1,1.1-3,1.8c-1.1,0.9-2.1,1.9-2.9,3.1c-0.9,1.4-1.7,3-2,4.6
				c0,0.1,0,0.2,0,0.3s0,0.4-0.1,0.4l0,0l0,0c-0.1-0.2-0.2-0.5-0.2-0.8c-0.4-1.7-1.1-3.3-2.1-4.7c0,0,0,0,0-0.1
				c-1.1-1.6-2.6-3-4.3-4c2.2-0.7,4-2.4,4.9-4.6c0.2-0.5,0.4-1,0.5-1.6c0.1-0.3,0.1-0.6,0.1-0.8c-0.3,0.9-0.7,1.7-1.2,2.4
				c-1.4,1.9-3.6,3.3-6,3.3c-0.7,0-1.4-0.1-2.1-0.3l0,0c-0.3-0.1-0.6-0.2-0.9-0.3c-2.4-1-4.3-3.2-4.9-5.8c0-0.1-0.1-0.3-0.1-0.4
				c0-0.2-0.1-0.4-0.1-0.6c0-0.1,0-0.3,0-0.4C77.3,178.4,77.3,178.3,77.3,178.1z"/>
		</g>
		<g>
			<path class="st5" d="M85.5,169.6c0.3,0,0.6,0,0.9,0s0.6,0.1,0.8,0.1c0.8,0.1,1.6,0.4,2.3,0.8c0.2,0.1,0.5,0.3,0.7,0.4
				c0.1,0.1,0.2,0.1,0.3,0.2c0.3,0.2,0.6,0.5,0.9,0.7l0.2,0.2c0.2,0.2,0.3,0.4,0.5,0.5c0.1,0.1,0.1,0.1,0.2,0.2l0.1,0.1
				c0.2,0.2,0.3,0.5,0.5,0.7c0.1,0.1,0.1,0.2,0.2,0.3c0.2,0.3,0.3,0.6,0.4,0.8c0,0.1,0.1,0.2,0.1,0.3c0.1,0.2,0.1,0.3,0.2,0.5
				c0,0,0,0.1,0.1,0.2v0.1c0.2-0.7,0.5-1.4,0.9-2.1c0.2-0.3,0.4-0.6,0.7-1l0.1-0.1l0.1-0.1c0.2-0.2,0.4-0.4,0.6-0.7
				c0.1-0.1,0.1-0.1,0.1-0.1c0.1,0,0.1-0.1,0.2-0.1l0.3-0.2c0.3-0.2,0.5-0.4,0.8-0.5l0.1-0.1c0.2-0.1,0.4-0.2,0.6-0.3
				s0.5-0.2,0.7-0.3c0.1-0.1,0.3-0.1,0.4-0.1l0.4-0.1c0.2,0,0.3-0.1,0.5-0.1l0.3-0.1c0.9-0.2,1.7-0.2,2.5-0.1c0.4,0,0.8,0.1,1.3,0.2
				c0.7,0.2,1.3,0.4,1.9,0.8l0.2,0.1c0.1,0,0.1,0.1,0.2,0.1c1.5,0.9,2.7,2.3,3.4,3.9v0.1c0.4,1,0.7,2.2,0.7,3.3c0,0.3,0,0.5,0,0.8
				c0,0.5-0.1,0.9-0.2,1.3c-0.1,0.5-0.3,1.1-0.6,1.6c-0.1,0.1-0.1,0.2-0.2,0.4s-0.3,0.5-0.4,0.7c-0.2,0.3-0.5,0.7-0.8,1
				c-0.7,0.8-1.6,1.4-2.5,1.9c-0.3,0.1-0.5,0.2-0.9,0.3c-0.1,0-0.3,0.1-0.4,0.1s-0.2,0.1-0.3,0.1l-0.4,0.1c-0.4,0.1-0.9,0.2-1.3,0.4
				c-0.2,0.1-0.4,0.2-0.7,0.3c-1,0.5-2,1.1-2.9,1.8c-1.1,0.9-2,1.9-2.8,3.1c-1,1.6-1.7,3.1-1.9,4.5c0,0.1,0,0.2,0,0.3
				c0,0.2,0,0.5-0.2,0.6l-0.1,0.1h-0.4v-0.2c-0.1-0.2-0.1-0.4-0.2-0.6c0-0.1,0-0.2-0.1-0.2c-0.5-1.8-1.2-3.3-2.1-4.6l0.2-0.2
				l-0.2,0.2c-1.1-1.6-2.5-2.9-4.2-3.9l-0.5-0.3l0.6-0.2c2-0.7,3.7-2.2,4.6-4.1c-1.5,2.1-3.8,3.3-6.1,3.4c-0.7,0-1.4-0.1-2.2-0.3
				h-0.1l0,0c-0.3-0.1-0.6-0.2-0.9-0.3c-2.5-1.1-4.4-3.3-5-6c0-0.2-0.1-0.3-0.1-0.5s-0.1-0.4-0.1-0.6c0-0.1,0-0.3,0-0.4
				c0-0.1,0-0.3,0-0.4c0-1.1,0.2-2.3,0.7-3.3v-0.1c0.7-1.6,1.9-3,3.4-3.9c0.1,0,0.2-0.1,0.2-0.1l0.1-0.1c0.6-0.3,1.3-0.6,1.9-0.8H84
				l0,0c0.4-0.1,0.7-0.1,1.1-0.2C84.9,169.6,85.2,169.6,85.5,169.6z M94.1,178h-0.6c0-0.2,0-0.4,0-0.6c0-0.4-0.1-0.8-0.2-1.1
				c0-0.1,0-0.1,0-0.1v-0.1c0-0.1,0-0.1-0.1-0.2c0-0.1-0.1-0.3-0.1-0.4v-0.1c0-0.1-0.1-0.2-0.1-0.3c-0.1-0.3-0.2-0.5-0.4-0.8
				c-0.1-0.1-0.1-0.2-0.2-0.3c-0.1-0.2-0.3-0.4-0.4-0.6l-0.1-0.1c-0.1-0.1-0.1-0.1-0.2-0.2c-0.1-0.2-0.3-0.3-0.4-0.5l-0.2-0.2
				c-0.3-0.2-0.5-0.5-0.9-0.7c-0.1-0.1-0.2-0.1-0.3-0.2c-0.2-0.1-0.4-0.3-0.6-0.4c-0.7-0.4-1.4-0.6-2.1-0.8c-0.2,0-0.5-0.1-0.7-0.1
				c-0.6-0.1-1.1-0.1-1.6,0c-0.4,0-0.8,0.1-1.1,0.2l-0.2,0.1l0,0c-0.6,0.2-1.1,0.4-1.6,0.7l-0.1,0.1c-0.1,0-0.2,0.1-0.2,0.1
				c-1.4,0.8-2.5,2.2-3.2,3.7v0.1c-0.4,1-0.6,2-0.6,3c0,0.1,0,0.2,0,0.4c0,0.1,0,0.3,0,0.4c0,0.2,0,0.4,0.1,0.6
				c0,0.1,0.1,0.3,0.1,0.4c0.6,2.4,2.4,4.6,4.7,5.6c0.3,0.1,0.6,0.2,0.9,0.3l0,0c0.7,0.2,1.3,0.3,2,0.3c2.1-0.1,4.3-1.3,5.7-3.2
				c0.5-0.7,0.9-1.5,1.1-2.3l0.7-2.4l-0.1,2.5c0,0.3-0.1,0.5-0.1,0.9c-0.1,0.6-0.3,1.1-0.5,1.6c-0.9,2.1-2.5,3.7-4.5,4.6
				c1.5,1,2.9,2.3,3.9,3.8l-0.2,0.2l0.2-0.2c0.9,1.3,1.6,2.8,2.1,4.5c0.3-1.4,1-2.9,2-4.4c0.8-1.2,1.8-2.3,2.9-3.2
				c0.9-0.8,1.9-1.4,3-1.9c0.2-0.1,0.5-0.2,0.7-0.3c0.4-0.2,0.9-0.3,1.3-0.4l0.4-0.1c0.1,0,0.2-0.1,0.3-0.1c0.1,0,0.3-0.1,0.4-0.1
				c0.3-0.1,0.6-0.2,0.8-0.3c0.9-0.4,1.7-1,2.3-1.7c0.3-0.3,0.5-0.6,0.7-0.9c0.1-0.2,0.3-0.4,0.4-0.7c0.1-0.1,0.1-0.2,0.2-0.3
				c0.2-0.5,0.4-1,0.5-1.5c0.1-0.4,0.2-0.8,0.2-1.2V179c0-0.2,0-0.4,0-0.7c0-1.1-0.2-2.1-0.6-3v-0.1c-0.6-1.5-1.8-2.8-3.2-3.7
				c-0.1,0-0.1-0.1-0.2-0.1l-0.2-0.1c-0.5-0.3-1.2-0.5-1.8-0.7c-0.4-0.1-0.8-0.2-1.2-0.2c-0.8-0.1-1.5,0-2.3,0.1l-0.3,0.1
				c-0.1,0-0.3,0.1-0.4,0.1l-0.3,0.1c-0.1,0-0.2,0.1-0.3,0.1c-0.2,0.1-0.5,0.2-0.7,0.3s-0.3,0.2-0.5,0.3c-0.1,0-0.1,0.1-0.1,0.1
				c-0.2,0.2-0.5,0.3-0.7,0.5l-0.3,0.2l-0.1,0.1c-0.1,0.1-0.1,0.1-0.1,0.1c-0.2,0.2-0.4,0.4-0.6,0.6l-0.1,0.1l-0.1,0.1
				c-0.3,0.3-0.5,0.6-0.6,0.9c-0.4,0.7-0.7,1.5-0.9,2.3C94.1,176.9,94.1,177.4,94.1,178z"/>
		</g>
	</g>
</g>
</svg>
