<?xml version="1.0" encoding="utf-8"?>
<!-- Generator: Adobe Illustrator 25.2.0, SVG Export Plug-In . SVG Version: 6.00 Build 0)  -->
<svg version="1.1" id="Layer_1" xmlns="http://www.w3.org/2000/svg" xmlns:xlink="http://www.w3.org/1999/xlink" x="0px" y="0px"
	 viewBox="0 0 224.2 312.8" style="enable-background:new 0 0 224.2 312.8;" xml:space="preserve">
<style type="text/css">
	.st0{fill:#190B38;}
	.st1{opacity:2.000000e-02;}
	.st2{opacity:5.000000e-02;}
	.st3{stroke:#000000;stroke-miterlimit:10;}
	.st4{fill:#050307;}
</style>
<g>
	<g>
		<path d="M104.4,150.9c-1.4,0-3-0.3-4.8-1l0.4-0.9c3,1.1,5.3,1.3,7,0.4c1.7-0.9,2-2.4,2.1-2.5l1,0.2c0,0.1-0.5,2.1-2.5,3.2
			C106.6,150.7,105.6,150.9,104.4,150.9z"/>
	</g>
	<g>
		<g>
			<path d="M78.8,140.1l16.5-37c2-4.6,6.6-7.5,11.6-7.5h35.5l-43,45.2L78.8,140.1z"/>
		</g>
		<g>
			<path d="M141,96.1l-7.3,7.7l-34.5,36.3l-19.4-0.7L96,103.3c1.9-4.3,6.2-7.1,11-7.1H141 M143.9,94.9H141H107
				c-5.2,0-10,3.1-12.1,7.9L78.7,139l-0.7,1.7l1.8,0.1l19.4,0.7l0.6,0l0.4-0.4l34.5-36.3l7.3-7.7L143.9,94.9L143.9,94.9z"/>
		</g>
	</g>
	<g>
		<path d="M121.2,90.3c-0.8,0-1.6-0.2-2.4-0.6c-0.2-0.1-0.3-0.4-0.2-0.7c0.1-0.2,0.4-0.3,0.7-0.2c1.3,0.6,2.6,0.7,3.8,0
			c0.2-0.1,0.5,0,0.7,0.2c0.1,0.2,0,0.5-0.2,0.7C122.8,90.1,122,90.3,121.2,90.3z"/>
	</g>
	<g>
		<polygon points="145.2,153.3 127.1,153.3 107.2,133.4 107.9,132.7 127.5,152.3 145.2,152.3 		"/>
	</g>
	<g>
		<path d="M142.7,96.1l2.1,15.4l-11.1-7.7l-34.5,36.3l-19.4-0.7l15.7-35.1c2.2-5,7.2-8.3,12.8-8.3H142.7 M143.8,94.9h-1.1h-34.5
			c-6,0-11.4,3.5-13.9,9L78.7,139l-0.7,1.7l1.8,0.1l19.4,0.7l0.6,0l0.4-0.4l33.8-35.5l10.3,7.1l2.3,1.6l-0.4-2.8L144,96L143.8,94.9
			L143.8,94.9z"/>
	</g>
	<g>
		<polygon class="st0" points="141,96.1 133.9,103.7 99.2,140.1 89,139.8 127.8,96.1 		"/>
	</g>
	<g>
		<path d="M139.9,86.6l-3.2-21.2c-0.4-2.5-2.1-4.6-4.5-5.5l-11.5-4.2L110,60.4c-2.2,0.9-3.7,2.9-4.1,5.2l-3.5,21l-2.3,9.6l41.7,0
			L139.9,86.6z M132.1,93.2l-0.8,2h-19.9l-0.6-1.3c-1.9-4.1-2.6-8.6-1.9-13.1l1.9-12.8l10-4.8l10.8,4.4l1.9,14.1
			C134,85.6,133.6,89.6,132.1,93.2z"/>
	</g>
	<g>
		<path d="M119.8,62.5c0,0,7.5,6.2,12.3,5.6c4.9-0.7-1.4-4.5-1.4-4.5L119.8,62.5z"/>
	</g>
	<g>
		<path d="M121.7,62.9c0,0-7.5,6.2-12.3,5.6c-4.9-0.7,1.4-4.5,1.4-4.5L121.7,62.9z"/>
	</g>
	<g>
		<g>
			<polygon class="st0" points="78.2,140.6 74.9,150.3 102.4,151.5 104.7,141.7 			"/>
		</g>
		<g>
			<path d="M102.8,152l-28.5-1.2l3.6-10.6l27.5,1.1L102.8,152z M75.6,149.8l26.4,1.1l2.1-8.8l-25.5-1L75.6,149.8z"/>
		</g>
	</g>
	<g>
		<path d="M113.7,143.7c-1,0-2.1-0.2-3-0.4c-1.1-0.2-2.1-0.5-2.8-0.9c-0.7-0.3-1.5-0.7-1.3-1.4c0.1-0.6,1-0.7,1.8-0.7
			c0.8,0,1.9,0.1,2.9,0.4c1.7,0.4,4.4,1.1,4.2,2.2v0C115.3,143.5,114.6,143.7,113.7,143.7z M108,141.3c0.5,0.3,1.5,0.6,3,1
			c1.4,0.3,2.5,0.4,3.1,0.3c-0.5-0.3-1.5-0.6-3-1C109.6,141.4,108.6,141.3,108,141.3z"/>
	</g>
	<g>
		<path d="M109.9,147.5c-0.2,0-0.3,0-0.5-0.1c-0.6-0.2-1.1-0.6-1.3-1.3l-1.5-4.9l1-0.3l1.5,4.9c0.1,0.3,0.3,0.5,0.6,0.6
			c0.3,0.1,0.6,0,0.8-0.2l4.1-3.8l0.7,0.7l-4.1,3.8C110.8,147.3,110.4,147.5,109.9,147.5z"/>
	</g>
	<g>
		<path d="M106.6,150.3c-0.1,0-0.2,0-0.3-0.1c-0.5-0.3-1.1-1.9-0.6-3.2c0.1-0.3,0.4-0.4,0.7-0.3c0.3,0.1,0.4,0.4,0.3,0.7
			c-0.3,0.8-0.1,1.6,0.1,1.9c0.1,0,0.1,0,0.2,0.1c0.2,0.2,0.3,0.5,0.1,0.7C106.9,150.2,106.8,150.3,106.6,150.3z"/>
	</g>
	<g>
		<path d="M108.3,151.7c-1.9,0-3.5-0.8-3.6-0.9c-0.2-0.1-0.3-0.4-0.2-0.7c0.1-0.2,0.4-0.3,0.7-0.2c0,0,3.8,1.9,6.1-0.4
			c0.2-0.2,0.5-0.2,0.7,0c0.2,0.2,0.2,0.5,0,0.7C110.8,151.4,109.5,151.7,108.3,151.7z"/>
	</g>
	<g>
		<path d="M115,166.1l-1-0.2c0-0.1,0.5-2.1,2.5-3.2c1.9-1,4.6-0.9,7.9,0.3L124,164c-3-1.1-5.4-1.3-7-0.4
			C115.3,164.5,115,166.1,115,166.1z"/>
	</g>
	<g>
		<g>
			<path d="M81.5,217.4l43-45.2l20.6,0.7l-16.5,37c-2,4.6-6.6,7.5-11.6,7.5H81.5z"/>
		</g>
		<g>
			<path d="M124.8,172.8l19.4,0.7L128,209.7c-1.9,4.3-6.2,7.1-11,7.1H83l7.3-7.7L124.8,172.8 M124.3,171.5l-0.4,0.4l-34.5,36.3
				l-7.3,7.7l-2,2.1H83H117c5.2,0,10-3.1,12.1-7.9l16.2-36.2l0.7-1.7l-1.8-0.1l-19.4-0.7L124.3,171.5L124.3,171.5z"/>
		</g>
	</g>
	<g>
		<path d="M104.9,224.2c-0.1,0-0.2,0-0.2-0.1c-1.3-0.7-2.6-0.7-3.8,0c-0.2,0.1-0.5,0-0.7-0.2c-0.1-0.2,0-0.5,0.2-0.7
			c1.6-0.8,3.2-0.8,4.7,0c0.2,0.1,0.3,0.4,0.2,0.7C105.3,224.1,105.1,224.2,104.9,224.2z"/>
	</g>
	<g>
		<polygon points="116.1,180.3 96.5,160.6 78.8,160.6 78.8,159.6 96.9,159.6 116.8,179.6 		"/>
	</g>
	<g>
		<path d="M124.8,172.8l19.4,0.7l-15.7,35.1c-2.2,5-7.2,8.3-12.8,8.3H81.3l-2.1-15.4l11.1,7.7L124.8,172.8 M124.3,171.5l-0.4,0.4
			l-33.8,35.5l-10.3-7.1l-2.3-1.6l0.4,2.8L80,217l0.1,1.1h1.1h34.5c6,0,11.4-3.5,13.9-9l15.7-35.1l0.7-1.7l-1.8-0.1l-19.4-0.7
			L124.3,171.5L124.3,171.5z"/>
	</g>
	<g>
		<polygon class="st0" points="83,216.8 90.1,209.3 124.8,172.8 135,173.1 96.2,216.8 		"/>
	</g>
	<g>
		<path d="M84.1,226.3l3.2,21.2c0.4,2.5,2.1,4.6,4.5,5.5l11.5,4.2l10.8-4.6c2.2-0.9,3.7-2.9,4.1-5.2l3.5-21l2.3-9.6l-41.7,0
			L84.1,226.3z M91.9,219.7l0.8-2h19.9l0.6,1.3c1.9,4.1,2.6,8.6,1.9,13.1l-1.9,12.8l-10,4.8l-10.8-4.4l-1.9-14.1
			C90,227.3,90.4,223.4,91.9,219.7z"/>
	</g>
	<g>
		<path d="M104.2,250.4c0,0-7.5-6.2-12.3-5.6c-4.9,0.7,1.4,4.5,1.4,4.5L104.2,250.4z"/>
	</g>
	<g>
		<path d="M102.3,250c0,0,7.5-6.2,12.3-5.6c4.9,0.7-1.4,4.5-1.4,4.5L102.3,250z"/>
	</g>
	<g>
		<g>
			<polygon class="st0" points="145.8,172.3 149.1,162.7 121.6,161.5 119.3,171.2 			"/>
		</g>
		<g>
			<path d="M146.1,172.8l-27.5-1.1l2.6-10.8l28.5,1.2L146.1,172.8z M119.9,170.8l25.5,1l3-8.7L122,162L119.9,170.8z"/>
		</g>
	</g>
	<g>
		<path d="M115.7,172.6c-1,0-2.1-0.2-3-0.4c-1.7-0.4-4.4-1.1-4.2-2.2c0.1-0.6,1-0.7,1.8-0.7c0.8,0,1.9,0.1,2.9,0.4
			c1.7,0.4,4.4,1.1,4.2,2.2C117.3,172.4,116.6,172.6,115.7,172.6z M109.9,170.3c0.5,0.3,1.5,0.6,3,1c1.4,0.3,2.5,0.4,3.1,0.3
			c-0.5-0.3-1.5-0.6-3-1C111.6,170.3,110.5,170.3,109.9,170.3z"/>
	</g>
	<g>
		<path d="M116.4,171.9l-1.5-4.9c-0.1-0.3-0.3-0.5-0.6-0.6c-0.3-0.1-0.6,0-0.8,0.2l-4.1,3.8l-0.7-0.7l4.1-3.8
			c0.5-0.4,1.1-0.6,1.8-0.4c0.6,0.2,1.1,0.6,1.3,1.3l1.5,4.9L116.4,171.9z"/>
	</g>
	<g>
		<path d="M117.8,166.3c-0.1,0-0.1,0-0.2,0c-0.3-0.1-0.4-0.4-0.3-0.7c0.3-0.8,0.1-1.6-0.1-1.9c-0.1,0-0.1,0-0.2-0.1
			c-0.2-0.2-0.3-0.5-0.1-0.7c0.2-0.2,0.5-0.3,0.8-0.2c0.5,0.3,1.1,1.9,0.6,3.2C118.2,166.2,118,166.3,117.8,166.3z"/>
	</g>
	<g>
		<path d="M112.5,163.5c-0.1,0-0.3,0-0.4-0.2c-0.2-0.2-0.2-0.5,0-0.7c2.8-2.8,7.1-0.6,7.2-0.5c0.2,0.1,0.3,0.4,0.2,0.7
			c-0.1,0.2-0.4,0.3-0.7,0.2c0,0-3.8-1.9-6.1,0.4C112.7,163.4,112.6,163.5,112.5,163.5z"/>
	</g>
	<g>
		<g class="st1">
			<rect x="-0.2" y="0.7" width="224.4" height="312.1"/>
		</g>
		<g class="st1">
			<rect x="-0.2" y="0.7" width="224.4" height="312.1"/>
		</g>
		<g class="st2">
			<path d="M173.4,283.5H50.6c-4.2,0-7.5-3.4-7.5-7.5V37.6c0-4.2,3.4-7.5,7.5-7.5h122.9c4.2,0,7.5,3.4,7.5,7.5V276
				C181,280.1,177.6,283.5,173.4,283.5z"/>
		</g>
		<g>
			<path class="st3" d="M27.3,75.5c1.7,1,3,2.3,4,4c1,1.7,1.5,3.6,1.5,5.8c0,1.4-0.2,2.7-0.6,3.9s-1,2.3-1.8,3.2l3,3.8h-2.6
				l-1.9-2.3c-1,0.8-2.1,1.4-3.3,1.9c-1.3,0.5-2.6,0.7-4,0.7c-2.1,0-4-0.5-5.7-1.4c-1.7-1-3-2.3-4-4c-1-1.7-1.4-3.6-1.4-5.8
				s0.5-4.1,1.4-5.8c1-1.7,2.3-3,4-4c1.7-1,3.6-1.4,5.7-1.4S25.6,74.5,27.3,75.5z M17.1,77.4c-1.3,0.8-2.4,1.8-3.2,3.2
				c-0.8,1.4-1.2,2.9-1.2,4.7c0,1.7,0.4,3.3,1.2,4.7c0.8,1.4,1.8,2.4,3.2,3.2c1.3,0.8,2.9,1.1,4.5,1.1c1.1,0,2.2-0.2,3.2-0.6
				c1-0.4,1.9-0.9,2.7-1.6l-5.2-6.5h2.7l3.9,4.9c1-1.5,1.5-3.2,1.5-5.2c0-1.8-0.4-3.3-1.2-4.7c-0.8-1.4-1.8-2.4-3.2-3.2
				c-1.3-0.8-2.8-1.1-4.5-1.1C20,76.2,18.5,76.6,17.1,77.4z"/>
		</g>
		<g>
			<path class="st3" d="M196,239.7c-1.7-1-3-2.3-4-4s-1.5-3.6-1.5-5.8c0-1.4,0.2-2.7,0.6-3.9c0.4-1.2,1-2.3,1.8-3.2l-3-3.8h2.6
				l1.9,2.3c1-0.8,2.1-1.4,3.3-1.9c1.3-0.5,2.6-0.7,4-0.7c2.1,0,4,0.5,5.7,1.4c1.7,1,3,2.3,4,4s1.4,3.6,1.4,5.8
				c0,2.1-0.5,4.1-1.4,5.8s-2.3,3-4,4c-1.7,1-3.6,1.4-5.7,1.4S197.7,240.7,196,239.7z M206.3,237.8c1.3-0.8,2.4-1.8,3.2-3.2
				s1.2-2.9,1.2-4.7c0-1.7-0.4-3.3-1.2-4.7s-1.8-2.4-3.2-3.2c-1.3-0.8-2.9-1.1-4.5-1.1c-1.1,0-2.2,0.2-3.2,0.6s-1.9,0.9-2.7,1.6
				l5.2,6.5h-2.7l-3.9-4.9c-1,1.5-1.5,3.2-1.5,5.2c0,1.8,0.4,3.3,1.2,4.7s1.8,2.4,3.2,3.2c1.3,0.8,2.8,1.1,4.5,1.1
				C203.4,239,204.9,238.6,206.3,237.8z"/>
		</g>
		<g>
			<g>
				<path class="st0" d="M24.5,54.4c0,0.2,0,0.4,0,0.7c0.2,2.3,1.4,4.3,3.2,5.6c0.6,0.4,0.9,1,0.9,1.7v0H15.5v0
					c0-0.7,0.4-1.3,0.9-1.7c1.7-1.3,2.9-3.2,3.2-5.5c0-0.3,0-0.5,0-0.8c0-3-1.7-5.5-4.1-6.8v-2.7h8.3c-0.2,0.5-0.3,1-0.4,1.5
					c0,0.3-0.1,0.5-0.1,0.8c0.2-0.8,0.6-1.6,1.1-2.3h4.2v2.7C26.1,48.8,24.5,51.4,24.5,54.4z"/>
			</g>
			<g>
				<path class="st4" d="M28.6,62.6H15.2v-0.3c0-0.8,0.4-1.5,1-1.9c1.7-1.3,2.8-3.2,3-5.3c0-0.2,0-0.5,0-0.8c0-2.8-1.5-5.3-4-6.6
					l-0.1-0.1v-3.1h9l0,0.1l0.1-0.1h4.6v3.1l-0.1,0.1c-2.4,1.3-4,3.8-4,6.6c0,0.2,0,0.4,0,0.6c0.2,2.2,1.3,4.1,3.1,5.4
					c0.6,0.5,1,1.2,1,1.9v0.3L28.6,62.6z M15.8,62.1h12.5c-0.1-0.5-0.3-0.9-0.8-1.2c-1.9-1.4-3.1-3.5-3.3-5.8c0-0.2,0-0.5,0-0.7
					c0-2.9,1.6-5.6,4.1-7v-2.3h-3.8c-0.4,0.6-0.8,1.3-1,2.1l-0.7,2.3l0.2-2.4c0-0.3,0.1-0.6,0.1-0.8c0.1-0.4,0.2-0.8,0.3-1.2h-7.6
					v2.3c2.5,1.4,4.1,4.1,4.1,7c0,0.3,0,0.6,0,0.8c-0.2,2.3-1.4,4.3-3.3,5.7C16.1,61.1,15.9,61.6,15.8,62.1z"/>
			</g>
			<g>
				<path class="st0" d="M37.5,49.5c0,1.1-0.2,2.1-0.6,3c0,0,0,0,0,0c-0.6,1.5-1.7,2.8-3.1,3.6c-0.1,0.1-0.2,0.1-0.3,0.2
					c-0.5,0.3-1.1,0.5-1.7,0.7c0,0,0,0,0,0c-0.4,0.1-0.7,0.2-1.1,0.2c-0.3,0-0.5,0-0.8,0c-0.3,0-0.5,0-0.8,0h0
					c-0.2,0-0.5-0.1-0.7-0.1c-0.7-0.1-1.4-0.4-2.1-0.7c-0.2-0.1-0.4-0.2-0.6-0.4c-0.1-0.1-0.2-0.1-0.3-0.2c-0.3-0.2-0.6-0.4-0.8-0.7
					c-0.1-0.1-0.1-0.1-0.2-0.2c-0.2-0.2-0.3-0.3-0.4-0.5c-0.1-0.1-0.2-0.2-0.2-0.3c-0.2-0.2-0.3-0.4-0.4-0.6
					c-0.1-0.1-0.1-0.2-0.2-0.3c-0.1-0.2-0.2-0.5-0.3-0.7c-0.1-0.1-0.1-0.2-0.1-0.3c-0.1-0.1-0.1-0.2-0.1-0.4c0-0.1-0.1-0.2-0.1-0.2
					c0-0.1,0-0.1,0-0.2c-0.1-0.4-0.2-0.7-0.2-1.1c0-0.2,0-0.4,0-0.6c0,0.5-0.1,1-0.2,1.5c-0.2,0.8-0.5,1.5-0.9,2.2
					c-0.2,0.3-0.4,0.6-0.6,0.9c-0.1,0.1-0.1,0.1-0.2,0.2c-0.2,0.2-0.4,0.4-0.6,0.6c0,0-0.1,0.1-0.1,0.1c-0.1,0.1-0.2,0.1-0.2,0.2
					c-0.1,0-0.1,0.1-0.2,0.1c-0.2,0.2-0.4,0.3-0.7,0.5c0,0-0.1,0.1-0.1,0.1c-0.2,0.1-0.3,0.2-0.5,0.3c-0.2,0.1-0.4,0.2-0.6,0.3
					c-0.1,0-0.2,0.1-0.3,0.1c-0.1,0-0.2,0.1-0.3,0.1c-0.1,0-0.3,0.1-0.4,0.1c-0.1,0-0.2,0-0.3,0.1c-0.5,0.1-1,0.1-1.5,0.1
					c-0.3,0-0.5,0-0.8,0c-0.4,0-0.8-0.1-1.1-0.2c-0.6-0.2-1.2-0.4-1.8-0.7c-0.1-0.1-0.2-0.1-0.3-0.2c-1.4-0.8-2.5-2.1-3.1-3.6
					c0,0,0,0,0,0c-0.4-0.9-0.6-1.9-0.6-3c0-0.2,0-0.5,0-0.7c0,0,0,0,0-0.1c0-0.4,0.1-0.8,0.2-1.1c0.1-0.5,0.3-1,0.5-1.4
					c0.1-0.1,0.1-0.2,0.2-0.3c0.1-0.2,0.3-0.4,0.4-0.6c0.2-0.3,0.5-0.6,0.7-0.9c0.6-0.7,1.4-1.3,2.3-1.7c0.3-0.1,0.5-0.2,0.8-0.3
					c0.1,0,0.2-0.1,0.3-0.1c0.1,0,0.3-0.1,0.4-0.1c0,0,0,0,0,0c0.5-0.1,1-0.3,1.5-0.5c0.2-0.1,0.4-0.2,0.6-0.3c1-0.4,1.9-1,2.8-1.7
					c1-0.8,1.9-1.8,2.7-2.9c0.9-1.3,1.6-2.8,1.9-4.3c0-0.1,0-0.2,0-0.3c0-0.1,0-0.3,0.1-0.4c0,0,0,0,0,0c0,0,0,0,0,0
					c0.1,0.2,0.2,0.5,0.2,0.8c0.4,1.6,1,3.1,2,4.4c0,0,0,0,0,0.1c1,1.5,2.4,2.8,4,3.7c-2,0.7-3.7,2.3-4.6,4.3
					c-0.2,0.5-0.3,1-0.4,1.5c-0.1,0.3-0.1,0.5-0.1,0.8c0.2-0.8,0.6-1.6,1.1-2.3c1.3-1.8,3.4-3,5.6-3.1c0.7,0,1.3,0.1,2,0.3
					c0,0,0,0,0,0c0.3,0.1,0.6,0.2,0.8,0.3c2.3,1,4,3,4.6,5.4c0,0.1,0.1,0.3,0.1,0.4c0,0.2,0.1,0.4,0.1,0.5c0,0.1,0,0.2,0,0.4
					C37.5,49.2,37.5,49.4,37.5,49.5z"/>
			</g>
			<g>
				<path class="st4" d="M29.8,57.5c-0.3,0-0.5,0-0.8,0c-0.3,0-0.5-0.1-0.8-0.1c-0.7-0.1-1.5-0.4-2.1-0.8c-0.2-0.1-0.4-0.2-0.6-0.4
					c-0.1-0.1-0.2-0.1-0.3-0.2c-0.3-0.2-0.6-0.4-0.9-0.7L24,55.1c-0.2-0.2-0.3-0.3-0.5-0.5c-0.1-0.1-0.1-0.1-0.2-0.2l-0.1-0.1
					c-0.2-0.2-0.3-0.4-0.4-0.6c-0.1-0.1-0.1-0.2-0.2-0.3c-0.1-0.3-0.3-0.5-0.4-0.8c0-0.1-0.1-0.2-0.1-0.3c-0.1-0.2-0.1-0.3-0.2-0.4
					c0,0,0-0.1-0.1-0.2c0,0,0-0.1,0-0.1c-0.2,0.7-0.5,1.4-0.8,2c-0.2,0.3-0.4,0.6-0.6,0.9c0,0-0.1,0.1-0.1,0.1l-0.1,0.1
					c-0.2,0.2-0.4,0.4-0.6,0.6c-0.1,0.1-0.1,0.1-0.1,0.1c0,0-0.1,0.1-0.2,0.1l-0.3,0.2c-0.3,0.2-0.5,0.4-0.7,0.5
					c0,0-0.1,0.1-0.1,0.1c-0.2,0.1-0.4,0.2-0.5,0.3c-0.2,0.1-0.4,0.2-0.7,0.3C17.1,57,17,57,16.9,57.1l-0.3,0.1
					c-0.1,0-0.3,0.1-0.4,0.1l-0.3,0.1c-0.8,0.2-1.6,0.2-2.3,0.1c-0.4,0-0.8-0.1-1.2-0.2c-0.6-0.2-1.3-0.4-1.8-0.7l-0.1-0.1
					c-0.1,0-0.1-0.1-0.2-0.1c-1.4-0.8-2.5-2.1-3.2-3.7l0-0.1c-0.4-1-0.6-2-0.6-3.1c0-0.3,0-0.5,0-0.7c0-0.5,0.1-0.9,0.2-1.2
					c0.1-0.5,0.3-1,0.5-1.5c0.1-0.1,0.1-0.2,0.2-0.3c0.1-0.2,0.3-0.4,0.4-0.7c0.2-0.3,0.4-0.6,0.7-1c0.7-0.7,1.5-1.3,2.3-1.8
					c0.2-0.1,0.5-0.2,0.8-0.3c0.1,0,0.2-0.1,0.4-0.1c0.1,0,0.2-0.1,0.3-0.1l0.4-0.1c0.4-0.1,0.8-0.2,1.2-0.4
					c0.2-0.1,0.4-0.2,0.6-0.3c1-0.4,1.9-1,2.7-1.7c1-0.8,1.9-1.8,2.6-2.9c1-1.5,1.6-2.9,1.8-4.2c0-0.1,0-0.2,0-0.3
					c0-0.2,0-0.5,0.2-0.6l0.1-0.1l0.4,0v0.2c0.1,0.2,0.1,0.4,0.2,0.6c0,0.1,0,0.1,0,0.2c0.4,1.7,1.1,3.1,1.9,4.3l-0.2,0.2l0.2-0.2
					c1,1.5,2.4,2.7,3.9,3.7l0.5,0.3l-0.6,0.2c-1.9,0.7-3.4,2.1-4.3,3.9c1.4-1.9,3.6-3.1,5.8-3.2c0.7,0,1.3,0.1,2,0.3H32l0,0
					c0.3,0.1,0.5,0.2,0.8,0.3c2.4,1,4.1,3.1,4.7,5.6c0,0.1,0.1,0.3,0.1,0.4c0,0.2,0.1,0.4,0.1,0.5c0,0.1,0,0.2,0,0.4
					c0,0.1,0,0.3,0,0.4c0,1.1-0.2,2.1-0.6,3.1l0,0.1c-0.6,1.5-1.8,2.8-3.2,3.7c-0.1,0-0.1,0.1-0.2,0.1l-0.1,0.1
					c-0.6,0.3-1.2,0.6-1.8,0.7l-0.1,0l0,0c-0.3,0.1-0.7,0.1-1,0.2C30.3,57.5,30,57.5,29.8,57.5z M21.8,49.6l0.5,0c0,0.2,0,0.4,0,0.6
					c0,0.4,0.1,0.7,0.2,1.1c0,0.1,0,0.1,0,0.1l0,0.1c0,0.1,0,0.1,0.1,0.2c0,0.1,0.1,0.2,0.1,0.3l0,0.1c0,0.1,0.1,0.2,0.1,0.3
					c0.1,0.3,0.2,0.5,0.3,0.7c0,0.1,0.1,0.2,0.2,0.3c0.1,0.2,0.3,0.4,0.4,0.6l0.1,0.1c0,0.1,0.1,0.1,0.1,0.2
					c0.1,0.2,0.3,0.3,0.4,0.5l0.2,0.2c0.2,0.2,0.5,0.4,0.8,0.7c0.1,0.1,0.2,0.1,0.3,0.2c0.2,0.1,0.4,0.2,0.6,0.3
					c0.6,0.3,1.3,0.6,2,0.7c0.2,0,0.5,0.1,0.7,0.1c0.5,0.1,1,0.1,1.5,0c0.4,0,0.7-0.1,1.1-0.2l0.2-0.1l0,0c0.5-0.1,1-0.4,1.5-0.6
					l0.1-0.1c0.1,0,0.1-0.1,0.2-0.1c1.3-0.8,2.4-2,3-3.5l0-0.1c0.4-0.9,0.6-1.9,0.6-2.8c0-0.1,0-0.2,0-0.3c0-0.1,0-0.3,0-0.4
					c0-0.2,0-0.3-0.1-0.5c0-0.1,0-0.3-0.1-0.4c-0.5-2.3-2.2-4.3-4.4-5.2c-0.3-0.1-0.5-0.2-0.8-0.3l0,0c-0.6-0.2-1.2-0.3-1.9-0.2
					c-2,0.1-4.1,1.2-5.4,3c-0.5,0.7-0.8,1.4-1.1,2.2l-0.7,2.2l0.1-2.3c0-0.2,0-0.5,0.1-0.8c0.1-0.5,0.3-1.1,0.4-1.5
					c0.8-1.9,2.3-3.5,4.2-4.3c-1.4-0.9-2.7-2.1-3.6-3.5l0.2-0.2L24,36.9c-0.8-1.2-1.5-2.6-1.9-4.2c-0.3,1.3-0.9,2.7-1.8,4.1
					c-0.8,1.1-1.7,2.1-2.7,3c-0.9,0.7-1.8,1.3-2.8,1.8c-0.2,0.1-0.4,0.2-0.6,0.3c-0.4,0.2-0.8,0.3-1.2,0.4l-0.4,0.1
					c-0.1,0-0.2,0.1-0.3,0.1c-0.1,0-0.2,0.1-0.3,0.1c-0.3,0.1-0.5,0.2-0.8,0.3c-0.8,0.4-1.6,1-2.2,1.6c-0.3,0.3-0.5,0.6-0.7,0.9
					C8,45.5,7.9,45.7,7.8,46c-0.1,0.1-0.1,0.2-0.2,0.3c-0.2,0.4-0.4,0.9-0.5,1.4C7,48,7,48.4,6.9,48.7l0,0.1c0,0.2,0,0.4,0,0.6
					c0,1,0.2,1.9,0.6,2.8l0,0.1c0.6,1.4,1.7,2.7,3,3.5c0.1,0,0.1,0.1,0.2,0.1l0.1,0.1c0.5,0.3,1.1,0.5,1.7,0.7
					c0.4,0.1,0.7,0.2,1.1,0.2c0.7,0.1,1.4,0,2.2-0.1l0.3-0.1c0.1,0,0.3-0.1,0.4-0.1l0.3-0.1c0.1,0,0.2-0.1,0.3-0.1
					c0.2-0.1,0.4-0.2,0.6-0.3c0.2-0.1,0.3-0.2,0.5-0.3c0.1,0,0.1-0.1,0.1-0.1c0.2-0.1,0.4-0.3,0.7-0.5l0.3-0.2c0,0,0.1-0.1,0.1-0.1
					c0.1-0.1,0.1-0.1,0.1-0.1c0.2-0.2,0.4-0.4,0.5-0.6l0.1-0.1c0,0,0.1-0.1,0.1-0.1c0.2-0.3,0.4-0.6,0.6-0.9
					c0.4-0.7,0.7-1.4,0.8-2.1C21.7,50.7,21.8,50.2,21.8,49.6z"/>
			</g>
		</g>
		<g>
			<g>
				<path class="st0" d="M199.2,260.6c0-0.2,0-0.4,0-0.7c-0.2-2.3-1.4-4.3-3.2-5.6c-0.6-0.4-0.9-1-0.9-1.7v0h13.1v0
					c0,0.7-0.4,1.3-0.9,1.7c-1.7,1.3-2.9,3.2-3.2,5.5c0,0.3,0,0.5,0,0.8c0,3,1.7,5.5,4.1,6.8v2.7h-8.3c0.2-0.5,0.3-1,0.4-1.5
					c0-0.3,0.1-0.5,0.1-0.8c-0.2,0.8-0.6,1.6-1.1,2.3h-4.2v-2.7C197.5,266.2,199.2,263.6,199.2,260.6z"/>
			</g>
			<g>
				<path class="st4" d="M195.1,252.4h13.3v0.3c0,0.8-0.4,1.5-1,1.9c-1.7,1.3-2.8,3.2-3,5.3c0,0.2,0,0.5,0,0.8c0,2.8,1.5,5.3,4,6.6
					l0.1,0.1v3.1h-9l0-0.1l-0.1,0.1h-4.6v-3.1l0.1-0.1c2.4-1.3,4-3.8,4-6.6c0-0.2,0-0.4,0-0.6c-0.2-2.2-1.3-4.1-3.1-5.4
					c-0.6-0.5-1-1.2-1-1.9v-0.3L195.1,252.4z M207.8,252.9h-12.5c0.1,0.5,0.3,0.9,0.8,1.2c1.9,1.4,3.1,3.5,3.3,5.8
					c0,0.2,0,0.5,0,0.7c0,2.9-1.6,5.6-4.1,7v2.3h3.8c0.4-0.6,0.8-1.3,1-2.1l0.7-2.3l-0.2,2.4c0,0.3-0.1,0.6-0.1,0.8
					c-0.1,0.4-0.2,0.8-0.3,1.2h7.6v-2.3c-2.5-1.4-4.1-4.1-4.1-7c0-0.3,0-0.6,0-0.8c0.2-2.3,1.4-4.3,3.3-5.7
					C207.5,253.9,207.8,253.4,207.8,252.9z"/>
			</g>
			<g>
				<path class="st0" d="M186.2,265.5c0-1.1,0.2-2.1,0.6-3c0,0,0,0,0,0c0.6-1.5,1.7-2.8,3.1-3.6c0.1-0.1,0.2-0.1,0.3-0.2
					c0.5-0.3,1.1-0.5,1.7-0.7c0,0,0,0,0,0c0.4-0.1,0.7-0.2,1.1-0.2c0.3,0,0.5,0,0.8,0c0.3,0,0.5,0,0.8,0h0c0.2,0,0.5,0.1,0.7,0.1
					c0.7,0.1,1.4,0.4,2.1,0.7c0.2,0.1,0.4,0.2,0.6,0.4c0.1,0.1,0.2,0.1,0.3,0.2c0.3,0.2,0.6,0.4,0.8,0.7c0.1,0.1,0.1,0.1,0.2,0.2
					c0.2,0.2,0.3,0.3,0.4,0.5c0.1,0.1,0.2,0.2,0.2,0.3c0.2,0.2,0.3,0.4,0.4,0.6c0.1,0.1,0.1,0.2,0.2,0.3c0.1,0.2,0.2,0.5,0.3,0.7
					c0.1,0.1,0.1,0.2,0.1,0.3c0.1,0.1,0.1,0.2,0.1,0.4c0,0.1,0.1,0.2,0.1,0.2c0,0.1,0,0.1,0,0.2c0.1,0.4,0.2,0.7,0.2,1.1
					c0,0.2,0,0.4,0,0.6c0-0.5,0.1-1,0.2-1.5c0.2-0.8,0.5-1.5,0.9-2.2c0.2-0.3,0.4-0.6,0.6-0.9c0.1-0.1,0.1-0.1,0.2-0.2
					c0.2-0.2,0.4-0.4,0.6-0.6c0,0,0.1-0.1,0.1-0.1c0.1-0.1,0.2-0.1,0.2-0.2c0.1,0,0.1-0.1,0.2-0.1c0.2-0.2,0.4-0.3,0.7-0.5
					c0,0,0.1-0.1,0.1-0.1c0.2-0.1,0.3-0.2,0.5-0.3c0.2-0.1,0.4-0.2,0.6-0.3c0.1,0,0.2-0.1,0.3-0.1c0.1,0,0.2-0.1,0.3-0.1
					c0.1,0,0.3-0.1,0.4-0.1c0.1,0,0.2,0,0.3-0.1c0.5-0.1,1-0.1,1.5-0.1c0.3,0,0.5,0,0.8,0c0.4,0,0.8,0.1,1.1,0.2
					c0.6,0.2,1.2,0.4,1.8,0.7c0.1,0.1,0.2,0.1,0.3,0.2c1.4,0.8,2.5,2.1,3.1,3.6c0,0,0,0,0,0c0.4,0.9,0.6,1.9,0.6,3
					c0,0.2,0,0.5,0,0.7c0,0,0,0,0,0.1c0,0.4-0.1,0.8-0.2,1.1c-0.1,0.5-0.3,1-0.5,1.4c-0.1,0.1-0.1,0.2-0.2,0.3
					c-0.1,0.2-0.3,0.4-0.4,0.6c-0.2,0.3-0.5,0.6-0.7,0.9c-0.6,0.7-1.4,1.3-2.3,1.7c-0.3,0.1-0.5,0.2-0.8,0.3c-0.1,0-0.2,0.1-0.3,0.1
					c-0.1,0-0.3,0.1-0.4,0.1c0,0,0,0,0,0c-0.5,0.1-1,0.3-1.5,0.5c-0.2,0.1-0.4,0.2-0.6,0.3c-1,0.4-1.9,1-2.8,1.7
					c-1,0.8-1.9,1.8-2.7,2.9c-0.9,1.3-1.6,2.8-1.9,4.3c0,0.1,0,0.2,0,0.3c0,0.1,0,0.3-0.1,0.4c0,0,0,0,0,0c0,0,0,0,0,0
					c-0.1-0.2-0.2-0.5-0.2-0.8c-0.4-1.6-1-3.1-2-4.4c0,0,0,0,0-0.1c-1-1.5-2.4-2.8-4-3.7c2-0.7,3.7-2.3,4.6-4.3
					c0.2-0.5,0.3-1,0.4-1.5c0.1-0.3,0.1-0.5,0.1-0.8c-0.2,0.8-0.6,1.6-1.1,2.3c-1.3,1.8-3.4,3-5.6,3.1c-0.7,0-1.3-0.1-2-0.3
					c0,0,0,0,0,0c-0.3-0.1-0.6-0.2-0.8-0.3c-2.3-1-4-3-4.6-5.4c0-0.1-0.1-0.3-0.1-0.4c0-0.2-0.1-0.4-0.1-0.5c0-0.1,0-0.2,0-0.4
					C186.2,265.8,186.2,265.6,186.2,265.5z"/>
			</g>
			<g>
				<path class="st4" d="M193.9,257.5c0.3,0,0.5,0,0.8,0c0.3,0,0.5,0.1,0.8,0.1c0.7,0.1,1.5,0.4,2.1,0.8c0.2,0.1,0.4,0.2,0.6,0.4
					c0.1,0.1,0.2,0.1,0.3,0.2c0.3,0.2,0.6,0.4,0.9,0.7l0.2,0.2c0.2,0.2,0.3,0.3,0.5,0.5c0.1,0.1,0.1,0.1,0.2,0.2l0.1,0.1
					c0.2,0.2,0.3,0.4,0.4,0.6c0.1,0.1,0.1,0.2,0.2,0.3c0.1,0.3,0.3,0.5,0.4,0.8c0,0.1,0.1,0.2,0.1,0.3c0.1,0.2,0.1,0.3,0.2,0.4
					c0,0,0,0.1,0.1,0.2c0,0,0,0.1,0,0.1c0.2-0.7,0.5-1.4,0.8-2c0.2-0.3,0.4-0.6,0.6-0.9c0,0,0.1-0.1,0.1-0.1l0.1-0.1
					c0.2-0.2,0.4-0.4,0.6-0.6c0.1-0.1,0.1-0.1,0.1-0.1c0,0,0.1-0.1,0.2-0.1l0.3-0.2c0.3-0.2,0.5-0.4,0.7-0.5c0,0,0.1-0.1,0.1-0.1
					c0.2-0.1,0.4-0.2,0.5-0.3c0.2-0.1,0.4-0.2,0.7-0.3c0.1-0.1,0.2-0.1,0.4-0.1l0.3-0.1c0.1,0,0.3-0.1,0.4-0.1l0.3-0.1
					c0.8-0.2,1.6-0.2,2.3-0.1c0.4,0,0.8,0.1,1.2,0.2c0.6,0.2,1.3,0.4,1.8,0.7l0.1,0.1c0.1,0,0.1,0.1,0.2,0.1
					c1.4,0.8,2.5,2.1,3.2,3.7l0,0.1c0.4,1,0.6,2,0.6,3.1c0,0.3,0,0.5,0,0.7c0,0.5-0.1,0.9-0.2,1.2c-0.1,0.5-0.3,1-0.5,1.5
					c-0.1,0.1-0.1,0.2-0.2,0.3c-0.1,0.2-0.3,0.4-0.4,0.7c-0.2,0.3-0.4,0.6-0.7,1c-0.7,0.7-1.5,1.3-2.3,1.8c-0.2,0.1-0.5,0.2-0.8,0.3
					c-0.1,0-0.2,0.1-0.4,0.1c-0.1,0-0.2,0.1-0.3,0.1l-0.4,0.1c-0.4,0.1-0.8,0.2-1.2,0.4c-0.2,0.1-0.4,0.2-0.6,0.3
					c-1,0.4-1.9,1-2.7,1.7c-1,0.8-1.9,1.8-2.6,2.9c-1,1.5-1.6,2.9-1.8,4.2c0,0.1,0,0.2,0,0.3c0,0.2,0,0.5-0.2,0.6l-0.1,0.1l-0.4,0
					v-0.2c-0.1-0.2-0.1-0.4-0.2-0.6c0-0.1,0-0.1,0-0.2c-0.4-1.7-1.1-3.1-1.9-4.3l0.2-0.2l-0.2,0.2c-1-1.5-2.4-2.7-3.9-3.7l-0.5-0.3
					l0.6-0.2c1.9-0.7,3.4-2.1,4.3-3.9c-1.4,1.9-3.6,3.1-5.8,3.2c-0.7,0-1.3-0.1-2-0.3h-0.1l0,0c-0.3-0.1-0.5-0.2-0.8-0.3
					c-2.4-1-4.1-3.1-4.7-5.6c0-0.1-0.1-0.3-0.1-0.4c0-0.2-0.1-0.4-0.1-0.5c0-0.1,0-0.2,0-0.4c0-0.1,0-0.3,0-0.4
					c0-1.1,0.2-2.1,0.6-3.1l0-0.1c0.6-1.5,1.8-2.8,3.2-3.7c0.1,0,0.1-0.1,0.2-0.1l0.1-0.1c0.6-0.3,1.2-0.6,1.8-0.7l0.1,0l0,0
					c0.3-0.1,0.7-0.1,1-0.2C193.3,257.5,193.6,257.5,193.9,257.5z M201.9,265.4l-0.5,0c0-0.2,0-0.4,0-0.6c0-0.4-0.1-0.7-0.2-1.1
					c0-0.1,0-0.1,0-0.1l0-0.1c0-0.1,0-0.1-0.1-0.2c0-0.1-0.1-0.2-0.1-0.3l0-0.1c0-0.1-0.1-0.2-0.1-0.3c-0.1-0.3-0.2-0.5-0.3-0.7
					c0-0.1-0.1-0.2-0.2-0.3c-0.1-0.2-0.3-0.4-0.4-0.6l-0.1-0.1c0-0.1-0.1-0.1-0.1-0.2c-0.1-0.2-0.3-0.3-0.4-0.5l-0.2-0.2
					c-0.2-0.2-0.5-0.4-0.8-0.7c-0.1-0.1-0.2-0.1-0.3-0.2c-0.2-0.1-0.4-0.2-0.6-0.3c-0.6-0.3-1.3-0.6-2-0.7c-0.2,0-0.5-0.1-0.7-0.1
					c-0.5-0.1-1-0.1-1.5,0c-0.4,0-0.7,0.1-1.1,0.2l-0.2,0.1l0,0c-0.5,0.1-1,0.4-1.5,0.6l-0.1,0.1c-0.1,0-0.1,0.1-0.2,0.1
					c-1.3,0.8-2.4,2-3,3.5l0,0.1c-0.4,0.9-0.6,1.9-0.6,2.8c0,0.1,0,0.2,0,0.3c0,0.1,0,0.3,0,0.4c0,0.2,0,0.3,0.1,0.5
					c0,0.1,0,0.3,0.1,0.4c0.5,2.3,2.2,4.3,4.4,5.2c0.3,0.1,0.5,0.2,0.8,0.3l0,0c0.6,0.2,1.2,0.3,1.9,0.2c2-0.1,4.1-1.2,5.4-3
					c0.5-0.7,0.8-1.4,1.1-2.2l0.7-2.2l-0.1,2.3c0,0.2,0,0.5-0.1,0.8c-0.1,0.5-0.3,1.1-0.4,1.5c-0.8,1.9-2.3,3.5-4.2,4.3
					c1.4,0.9,2.7,2.1,3.6,3.5l-0.2,0.2l0.2-0.2c0.8,1.2,1.5,2.6,1.9,4.2c0.3-1.3,0.9-2.7,1.8-4.1c0.8-1.1,1.7-2.1,2.7-3
					c0.9-0.7,1.8-1.3,2.8-1.8c0.2-0.1,0.4-0.2,0.6-0.3c0.4-0.2,0.8-0.3,1.2-0.4l0.4-0.1c0.1,0,0.2-0.1,0.3-0.1
					c0.1,0,0.2-0.1,0.3-0.1c0.3-0.1,0.5-0.2,0.8-0.3c0.8-0.4,1.6-1,2.2-1.6c0.3-0.3,0.5-0.6,0.7-0.9c0.1-0.2,0.3-0.4,0.4-0.6
					c0.1-0.1,0.1-0.2,0.2-0.3c0.2-0.4,0.4-0.9,0.5-1.4c0.1-0.3,0.2-0.7,0.2-1.1l0-0.1c0-0.2,0-0.4,0-0.6c0-1-0.2-1.9-0.6-2.8l0-0.1
					c-0.6-1.4-1.7-2.7-3-3.5c-0.1,0-0.1-0.1-0.2-0.1l-0.1-0.1c-0.5-0.3-1.1-0.5-1.7-0.7c-0.4-0.1-0.7-0.2-1.1-0.2
					c-0.7-0.1-1.4,0-2.2,0.1l-0.3,0.1c-0.1,0-0.3,0.1-0.4,0.1l-0.3,0.1c-0.1,0-0.2,0.1-0.3,0.1c-0.2,0.1-0.4,0.2-0.6,0.3
					c-0.2,0.1-0.3,0.2-0.5,0.3c-0.1,0-0.1,0.1-0.1,0.1c-0.2,0.1-0.4,0.3-0.7,0.5l-0.3,0.2c0,0-0.1,0.1-0.1,0.1
					c-0.1,0.1-0.1,0.1-0.1,0.1c-0.2,0.2-0.4,0.4-0.5,0.6l-0.1,0.1c0,0-0.1,0.1-0.1,0.1c-0.2,0.3-0.4,0.6-0.6,0.9
					c-0.4,0.7-0.7,1.4-0.8,2.1C201.9,264.3,201.9,264.8,201.9,265.4z"/>
			</g>
		</g>
	</g>
	<g>
		<g>
			<path class="st0" d="M87.6,175.1c0-0.2,0-0.4,0-0.7c-0.2-2.3-1.4-4.3-3.2-5.6c-0.6-0.4-0.9-1-0.9-1.7v0h13v0
				c0,0.7-0.4,1.3-0.9,1.7c-1.7,1.3-2.9,3.2-3.1,5.4c0,0.3,0,0.5,0,0.8c0,2.9,1.7,5.5,4.1,6.8v2.7h-8.2c0.2-0.5,0.3-1,0.4-1.5
				c0-0.3,0.1-0.5,0.1-0.8c-0.2,0.8-0.6,1.6-1.1,2.3h-4.2v-2.7C85.9,180.6,87.6,178,87.6,175.1z"/>
		</g>
		<g>
			<path class="st4" d="M83.5,166.9h13.3v0.3c0,0.8-0.4,1.5-1,1.9c-1.7,1.2-2.8,3.2-3,5.3c0,0.2,0,0.5,0,0.7c0,2.8,1.5,5.3,3.9,6.5
				l0.1,0.1v3.1h-8.9l0-0.1l-0.1,0.1h-4.6v-3.1l0.1-0.1c2.4-1.3,3.9-3.8,3.9-6.5c0-0.2,0-0.4,0-0.6c-0.2-2.1-1.3-4.1-3-5.4
				c-0.6-0.5-1-1.2-1-1.9v-0.3L83.5,166.9z M96.2,167.4H83.8c0.1,0.5,0.3,0.9,0.8,1.2c1.9,1.4,3.1,3.5,3.3,5.8c0,0.2,0,0.5,0,0.7
				c0,2.9-1.6,5.5-4.1,6.9v2.3h3.8c0.4-0.6,0.8-1.3,1-2.1l0.7-2.3l-0.2,2.4c0,0.3-0.1,0.6-0.1,0.8c-0.1,0.4-0.2,0.8-0.3,1.1h7.6V182
				c-2.5-1.4-4.1-4-4.1-6.9c0-0.3,0-0.6,0-0.8c0.2-2.2,1.4-4.3,3.2-5.6C95.9,168.3,96.1,167.9,96.2,167.4z"/>
		</g>
		<g>
			<path class="st0" d="M74.7,179.9c0-1.1,0.2-2.1,0.6-3c0,0,0,0,0,0c0.6-1.5,1.7-2.7,3.1-3.6c0.1-0.1,0.2-0.1,0.3-0.2
				c0.5-0.3,1.1-0.5,1.7-0.7c0,0,0,0,0,0c0.4-0.1,0.7-0.2,1.1-0.2c0.3,0,0.5,0,0.8,0c0.3,0,0.5,0,0.8,0h0c0.2,0,0.5,0.1,0.7,0.1
				c0.7,0.1,1.4,0.4,2.1,0.7c0.2,0.1,0.4,0.2,0.6,0.4c0.1,0.1,0.2,0.1,0.3,0.2c0.3,0.2,0.6,0.4,0.8,0.7c0.1,0.1,0.1,0.1,0.2,0.2
				c0.2,0.2,0.3,0.3,0.4,0.5c0.1,0.1,0.2,0.2,0.2,0.3c0.2,0.2,0.3,0.4,0.4,0.6c0.1,0.1,0.1,0.2,0.2,0.3c0.1,0.2,0.2,0.5,0.3,0.7
				c0.1,0.1,0.1,0.2,0.1,0.3c0.1,0.1,0.1,0.2,0.1,0.4c0,0.1,0.1,0.2,0.1,0.2c0,0.1,0,0.1,0,0.2c0.1,0.4,0.2,0.7,0.2,1.1
				c0,0.2,0,0.4,0,0.6c0-0.5,0.1-1,0.2-1.5c0.2-0.8,0.5-1.5,0.9-2.2c0.2-0.3,0.4-0.6,0.6-0.9c0.1-0.1,0.1-0.1,0.2-0.2
				c0.2-0.2,0.4-0.4,0.5-0.6c0,0,0.1-0.1,0.1-0.1c0.1-0.1,0.2-0.1,0.2-0.2c0.1,0,0.1-0.1,0.2-0.1c0.2-0.2,0.4-0.3,0.7-0.5
				c0,0,0.1-0.1,0.1-0.1c0.2-0.1,0.3-0.2,0.5-0.3c0.2-0.1,0.4-0.2,0.6-0.3c0.1,0,0.2-0.1,0.3-0.1c0.1,0,0.2-0.1,0.3-0.1
				c0.1,0,0.3-0.1,0.4-0.1c0.1,0,0.2,0,0.3-0.1c0.5-0.1,1-0.1,1.5-0.1c0.3,0,0.5,0,0.8,0c0.4,0,0.8,0.1,1.1,0.2
				c0.6,0.2,1.2,0.4,1.7,0.7c0.1,0.1,0.2,0.1,0.3,0.2c1.4,0.8,2.5,2.1,3.1,3.6c0,0,0,0,0,0c0.4,0.9,0.6,1.9,0.6,3c0,0.2,0,0.5,0,0.7
				c0,0,0,0,0,0.1c0,0.4-0.1,0.8-0.2,1.1c-0.1,0.5-0.3,1-0.5,1.4c-0.1,0.1-0.1,0.2-0.2,0.3c-0.1,0.2-0.3,0.4-0.4,0.6
				c-0.2,0.3-0.5,0.6-0.7,0.9c-0.6,0.7-1.4,1.3-2.2,1.7c-0.3,0.1-0.5,0.2-0.8,0.3c-0.1,0-0.2,0.1-0.3,0.1c-0.1,0-0.3,0.1-0.4,0.1
				c0,0,0,0,0,0c-0.5,0.1-1,0.3-1.5,0.5c-0.2,0.1-0.4,0.2-0.6,0.3c-1,0.4-1.9,1-2.8,1.7c-1,0.8-1.9,1.8-2.7,2.9
				c-0.9,1.3-1.6,2.8-1.9,4.3c0,0.1,0,0.2,0,0.3c0,0.1,0,0.3-0.1,0.4c0,0,0,0,0,0c0,0,0,0,0,0c-0.1-0.2-0.2-0.5-0.2-0.8
				c-0.4-1.6-1-3.1-2-4.4c0,0,0,0,0-0.1c-1-1.5-2.4-2.8-4-3.7c2-0.7,3.7-2.3,4.6-4.3c0.2-0.5,0.3-1,0.4-1.5c0.1-0.3,0.1-0.5,0.1-0.8
				c-0.2,0.8-0.6,1.6-1.1,2.3c-1.3,1.8-3.3,3-5.5,3.1c-0.7,0-1.3-0.1-2-0.3c0,0,0,0,0,0c-0.3-0.1-0.6-0.2-0.8-0.3
				c-2.3-1-4-3-4.5-5.4c0-0.1-0.1-0.3-0.1-0.4c0-0.2-0.1-0.4-0.1-0.5c0-0.1,0-0.2,0-0.4C74.7,180.2,74.7,180,74.7,179.9z"/>
		</g>
		<g>
			<path class="st4" d="M82.3,172c0.3,0,0.5,0,0.8,0c0.3,0,0.5,0.1,0.8,0.1c0.7,0.1,1.5,0.4,2.1,0.8c0.2,0.1,0.4,0.2,0.6,0.4
				c0.1,0.1,0.2,0.1,0.3,0.2c0.3,0.2,0.6,0.4,0.8,0.7l0.2,0.2c0.2,0.2,0.3,0.3,0.4,0.5c0.1,0.1,0.1,0.1,0.2,0.2l0.1,0.1
				c0.2,0.2,0.3,0.4,0.4,0.6c0,0.1,0.1,0.2,0.2,0.2c0.1,0.3,0.3,0.5,0.4,0.8c0,0.1,0.1,0.2,0.1,0.3c0.1,0.2,0.1,0.3,0.2,0.4
				c0,0,0,0.1,0.1,0.2c0,0,0,0.1,0,0.1c0.2-0.7,0.5-1.3,0.8-2c0.2-0.3,0.4-0.6,0.6-0.9c0,0,0.1-0.1,0.1-0.1l0.1-0.1
				c0.2-0.2,0.4-0.4,0.6-0.6c0.1-0.1,0.1-0.1,0.1-0.1c0,0,0.1-0.1,0.1-0.1l0.3-0.2c0.3-0.2,0.5-0.4,0.7-0.5c0,0,0.1-0.1,0.1-0.1
				c0.2-0.1,0.4-0.2,0.5-0.3c0.2-0.1,0.4-0.2,0.7-0.3c0.1-0.1,0.2-0.1,0.4-0.1l0.3-0.1c0.1,0,0.3-0.1,0.4-0.1l0.3-0.1
				c0.8-0.2,1.6-0.2,2.3-0.1c0.4,0,0.8,0.1,1.2,0.2c0.6,0.2,1.2,0.4,1.8,0.7l0.1,0.1c0.1,0,0.1,0.1,0.2,0.1c1.4,0.8,2.5,2.1,3.2,3.6
				l0,0.1c0.4,1,0.6,2,0.6,3.1c0,0.3,0,0.5,0,0.7c0,0.5-0.1,0.9-0.2,1.2c-0.1,0.5-0.3,1-0.5,1.5c0,0.1-0.1,0.2-0.2,0.3
				c-0.1,0.2-0.3,0.4-0.4,0.7c-0.2,0.3-0.4,0.6-0.7,0.9c-0.7,0.7-1.4,1.3-2.3,1.7c-0.2,0.1-0.5,0.2-0.8,0.3c-0.1,0-0.2,0.1-0.4,0.1
				c-0.1,0-0.2,0.1-0.3,0.1l-0.4,0.1c-0.4,0.1-0.8,0.2-1.2,0.4c-0.2,0.1-0.4,0.2-0.6,0.3c-1,0.4-1.9,1-2.7,1.7
				c-1,0.8-1.9,1.8-2.6,2.8c-1,1.5-1.6,2.9-1.8,4.2c0,0.1,0,0.2,0,0.3c0,0.2,0,0.5-0.2,0.6l-0.1,0.1l-0.4,0v-0.2
				c-0.1-0.2-0.1-0.4-0.2-0.6c0-0.1,0-0.1,0-0.2c-0.4-1.7-1.1-3.1-1.9-4.3l0.2-0.2l-0.2,0.2c-1-1.4-2.4-2.7-3.9-3.6l-0.5-0.3
				l0.5-0.2c1.9-0.7,3.4-2,4.3-3.9c-1.4,1.9-3.6,3.1-5.7,3.2c-0.7,0-1.3-0.1-2-0.3h-0.1l0,0c-0.3-0.1-0.5-0.2-0.8-0.3
				c-2.4-1-4.1-3.1-4.7-5.6c0-0.1-0.1-0.3-0.1-0.4c0-0.2-0.1-0.4-0.1-0.5c0-0.1,0-0.2,0-0.4c0-0.1,0-0.3,0-0.4
				c0-1.1,0.2-2.1,0.6-3.1l0-0.1c0.6-1.5,1.8-2.8,3.2-3.6c0.1,0,0.1-0.1,0.2-0.1l0.1-0.1c0.6-0.3,1.2-0.5,1.8-0.7l0.1,0l0,0
				c0.3-0.1,0.7-0.1,1-0.2C81.8,172,82.1,172,82.3,172z M90.3,179.8l-0.5,0c0-0.2,0-0.4,0-0.6c0-0.4-0.1-0.7-0.2-1.1
				c0-0.1,0-0.1,0-0.1l0-0.1c0-0.1,0-0.1-0.1-0.2c0-0.1-0.1-0.2-0.1-0.3l0-0.1c0-0.1-0.1-0.2-0.1-0.3c-0.1-0.3-0.2-0.5-0.3-0.7
				c0-0.1-0.1-0.2-0.2-0.3c-0.1-0.2-0.3-0.4-0.4-0.6l-0.1-0.1c0-0.1-0.1-0.1-0.1-0.2c-0.1-0.2-0.3-0.3-0.4-0.5l-0.2-0.2
				c-0.2-0.2-0.5-0.4-0.8-0.6c-0.1-0.1-0.2-0.1-0.3-0.2c-0.2-0.1-0.4-0.2-0.6-0.3c-0.6-0.3-1.3-0.6-2-0.7c-0.2,0-0.5-0.1-0.7-0.1
				c-0.5-0.1-1-0.1-1.5,0c-0.4,0-0.7,0.1-1.1,0.2l-0.2,0.1l0,0c-0.5,0.1-1,0.4-1.5,0.6l-0.1,0.1c-0.1,0-0.1,0.1-0.2,0.1
				c-1.3,0.8-2.4,2-3,3.4l0,0.1c-0.4,0.9-0.6,1.8-0.6,2.8c0,0.1,0,0.2,0,0.3c0,0.1,0,0.3,0,0.4c0,0.2,0,0.3,0.1,0.5
				c0,0.1,0,0.3,0.1,0.4c0.5,2.3,2.2,4.3,4.4,5.2c0.3,0.1,0.5,0.2,0.8,0.3l0,0c0.6,0.2,1.2,0.3,1.9,0.2c2-0.1,4-1.2,5.3-3
				c0.5-0.7,0.8-1.4,1.1-2.2l0.7-2.2l-0.1,2.3c0,0.2,0,0.5-0.1,0.8c-0.1,0.5-0.3,1-0.4,1.5c-0.8,1.9-2.3,3.5-4.2,4.3
				c1.4,0.9,2.7,2.1,3.6,3.5l-0.2,0.2l0.2-0.2c0.8,1.2,1.5,2.6,1.9,4.2c0.3-1.3,0.9-2.7,1.8-4.1c0.8-1.1,1.7-2.1,2.7-3
				c0.9-0.7,1.8-1.3,2.8-1.7c0.2-0.1,0.4-0.2,0.6-0.3c0.4-0.2,0.8-0.3,1.2-0.4l0.4-0.1c0.1,0,0.2-0.1,0.3-0.1c0.1,0,0.2-0.1,0.3-0.1
				c0.3-0.1,0.5-0.2,0.8-0.3c0.8-0.4,1.5-1,2.2-1.6c0.3-0.3,0.5-0.6,0.7-0.9c0.1-0.2,0.3-0.4,0.4-0.6c0.1-0.1,0.1-0.2,0.2-0.3
				c0.2-0.4,0.4-0.9,0.5-1.4c0.1-0.3,0.2-0.7,0.2-1.1l0-0.1c0-0.2,0-0.4,0-0.6c0-1-0.2-1.9-0.6-2.8l0-0.1c-0.6-1.4-1.7-2.6-3-3.4
				c-0.1,0-0.1-0.1-0.2-0.1l-0.1-0.1c-0.5-0.3-1.1-0.5-1.7-0.7c-0.4-0.1-0.7-0.2-1.1-0.2c-0.7-0.1-1.4,0-2.2,0.1l-0.3,0.1
				c-0.1,0-0.3,0.1-0.4,0.1l-0.3,0.1c-0.1,0-0.2,0.1-0.3,0.1c-0.2,0.1-0.4,0.2-0.6,0.3c-0.2,0.1-0.3,0.2-0.5,0.3
				c-0.1,0-0.1,0.1-0.1,0.1c-0.2,0.1-0.4,0.3-0.7,0.5l-0.3,0.2c0,0-0.1,0.1-0.1,0.1c-0.1,0.1-0.1,0.1-0.1,0.1
				c-0.2,0.2-0.4,0.4-0.5,0.6l-0.1,0.1c0,0-0.1,0.1-0.1,0.1c-0.2,0.3-0.4,0.6-0.6,0.9c-0.4,0.7-0.7,1.4-0.8,2.1
				C90.3,178.8,90.3,179.2,90.3,179.8z"/>
		</g>
	</g>
	<g>
		<g>
			<path class="st0" d="M137.4,137.3c0,0.2,0,0.4,0,0.7c0.2,2.3,1.4,4.3,3.2,5.6c0.6,0.4,0.9,1,0.9,1.7v0h-13v0
				c0-0.7,0.4-1.3,0.9-1.7c1.7-1.3,2.9-3.2,3.1-5.4c0-0.3,0-0.5,0-0.8c0-2.9-1.7-5.5-4.1-6.8v-2.7h8.2c-0.2,0.5-0.3,1-0.4,1.5
				c0,0.3-0.1,0.5-0.1,0.8c0.2-0.8,0.6-1.6,1.1-2.3l4.2,0v2.7C139.1,131.8,137.4,134.3,137.4,137.3z"/>
		</g>
		<g>
			<path class="st4" d="M141.5,145.5l-13.3,0v-0.3c0-0.8,0.4-1.5,1-1.9c1.7-1.2,2.8-3.2,3-5.3c0-0.2,0-0.5,0-0.7
				c0-2.8-1.5-5.3-3.9-6.5l-0.1-0.1v-3.1l8.9,0l0,0.1l0.1-0.1h4.6v3.1l-0.1,0.1c-2.4,1.3-3.9,3.8-3.9,6.5c0,0.2,0,0.4,0,0.6
				c0.2,2.1,1.3,4.1,3,5.4c0.6,0.5,1,1.2,1,1.9v0.3L141.5,145.5z M128.8,144.9h12.4c-0.1-0.5-0.3-0.9-0.8-1.2
				c-1.9-1.4-3.1-3.5-3.3-5.8c0-0.2,0-0.5,0-0.7c0-2.9,1.6-5.5,4.1-6.9v-2.3h-3.8c-0.4,0.6-0.8,1.3-1,2.1l-0.7,2.3l0.2-2.4
				c0-0.3,0.1-0.6,0.1-0.8c0.1-0.4,0.2-0.8,0.3-1.1h-7.6v2.3c2.5,1.4,4.1,4,4.1,6.9c0,0.3,0,0.6,0,0.8c-0.2,2.2-1.4,4.3-3.2,5.6
				C129.2,144,128.9,144.4,128.8,144.9z"/>
		</g>
		<g>
			<path class="st0" d="M150.4,132.4c0,1.1-0.2,2.1-0.6,3c0,0,0,0,0,0c-0.6,1.5-1.7,2.7-3.1,3.6c-0.1,0.1-0.2,0.1-0.3,0.2
				c-0.5,0.3-1.1,0.5-1.7,0.7c0,0,0,0,0,0c-0.4,0.1-0.7,0.2-1.1,0.2c-0.3,0-0.5,0-0.8,0c-0.3,0-0.5,0-0.8,0h0
				c-0.2,0-0.5-0.1-0.7-0.1c-0.7-0.1-1.4-0.4-2.1-0.7c-0.2-0.1-0.4-0.2-0.6-0.4c-0.1-0.1-0.2-0.1-0.3-0.2c-0.3-0.2-0.6-0.4-0.8-0.7
				c-0.1-0.1-0.1-0.1-0.2-0.2c-0.2-0.2-0.3-0.3-0.4-0.5c-0.1-0.1-0.2-0.2-0.2-0.3c-0.2-0.2-0.3-0.4-0.4-0.6
				c-0.1-0.1-0.1-0.2-0.2-0.3c-0.1-0.2-0.2-0.5-0.3-0.7c-0.1-0.1-0.1-0.2-0.1-0.3c-0.1-0.1-0.1-0.2-0.1-0.4c0-0.1-0.1-0.2-0.1-0.2
				c0-0.1,0-0.1,0-0.2c-0.1-0.4-0.2-0.7-0.2-1.1c0-0.2,0-0.4,0-0.6c0,0.5-0.1,1-0.2,1.5c-0.2,0.8-0.5,1.5-0.9,2.2
				c-0.2,0.3-0.4,0.6-0.6,0.9c-0.1,0.1-0.1,0.1-0.2,0.2c-0.2,0.2-0.4,0.4-0.5,0.6c0,0-0.1,0.1-0.1,0.1c-0.1,0.1-0.2,0.1-0.2,0.2
				c-0.1,0-0.1,0.1-0.2,0.1c-0.2,0.2-0.4,0.3-0.7,0.5c0,0-0.1,0.1-0.1,0.1c-0.2,0.1-0.3,0.2-0.5,0.3c-0.2,0.1-0.4,0.2-0.6,0.3
				c-0.1,0-0.2,0.1-0.3,0.1c-0.1,0-0.2,0.1-0.3,0.1c-0.1,0-0.3,0.1-0.4,0.1c-0.1,0-0.2,0-0.3,0.1c-0.5,0.1-1,0.1-1.5,0.1
				c-0.3,0-0.5,0-0.8,0c-0.4,0-0.8-0.1-1.1-0.2c-0.6-0.2-1.2-0.4-1.7-0.7c-0.1-0.1-0.2-0.1-0.3-0.2c-1.4-0.8-2.5-2.1-3.1-3.6
				c0,0,0,0,0,0c-0.4-0.9-0.6-1.9-0.6-3c0-0.2,0-0.5,0-0.7c0,0,0,0,0-0.1c0-0.4,0.1-0.8,0.2-1.1c0.1-0.5,0.3-1,0.5-1.4
				c0.1-0.1,0.1-0.2,0.2-0.3c0.1-0.2,0.3-0.4,0.4-0.6c0.2-0.3,0.5-0.6,0.7-0.9c0.6-0.7,1.4-1.3,2.2-1.7c0.3-0.1,0.5-0.2,0.8-0.3
				c0.1,0,0.2-0.1,0.3-0.1c0.1,0,0.3-0.1,0.4-0.1c0,0,0,0,0,0c0.5-0.1,1-0.3,1.5-0.5c0.2-0.1,0.4-0.2,0.6-0.3c1-0.4,1.9-1,2.8-1.7
				c1-0.8,1.9-1.8,2.7-2.9c0.9-1.3,1.6-2.8,1.9-4.3c0-0.1,0-0.2,0-0.3c0-0.1,0-0.3,0.1-0.4c0,0,0,0,0,0c0,0,0,0,0,0
				c0.1,0.2,0.2,0.5,0.2,0.8c0.4,1.6,1,3.1,2,4.4c0,0,0,0,0,0.1c1,1.5,2.4,2.8,4,3.7c-2,0.7-3.7,2.3-4.6,4.3c-0.2,0.5-0.3,1-0.4,1.5
				c-0.1,0.3-0.1,0.5-0.1,0.8c0.2-0.8,0.6-1.6,1.1-2.3c1.3-1.8,3.3-3,5.5-3.1c0.7,0,1.3,0.1,2,0.3c0,0,0,0,0,0
				c0.3,0.1,0.6,0.2,0.8,0.3c2.3,1,4,3,4.5,5.4c0,0.1,0.1,0.3,0.1,0.4c0,0.2,0.1,0.4,0.1,0.5c0,0.1,0,0.2,0,0.4
				C150.4,132.2,150.4,132.3,150.4,132.4z"/>
		</g>
		<g>
			<path class="st4" d="M142.7,140.4c-0.3,0-0.5,0-0.8,0c-0.3,0-0.5-0.1-0.8-0.1c-0.7-0.1-1.5-0.4-2.1-0.8c-0.2-0.1-0.4-0.2-0.6-0.4
				c-0.1-0.1-0.2-0.1-0.3-0.2c-0.3-0.2-0.6-0.4-0.8-0.7L137,138c-0.2-0.2-0.3-0.3-0.4-0.5c-0.1-0.1-0.1-0.1-0.2-0.2l-0.1-0.1
				c-0.2-0.2-0.3-0.4-0.4-0.6c0-0.1-0.1-0.2-0.2-0.2c-0.1-0.3-0.3-0.5-0.4-0.8c0-0.1-0.1-0.2-0.1-0.3c-0.1-0.2-0.1-0.3-0.2-0.4
				c0,0,0-0.1-0.1-0.2c0,0,0-0.1,0-0.1c-0.2,0.7-0.5,1.3-0.8,2c-0.2,0.3-0.4,0.6-0.6,0.9c0,0-0.1,0.1-0.1,0.1l-0.1,0.1
				c-0.2,0.2-0.4,0.4-0.6,0.6c-0.1,0.1-0.1,0.1-0.1,0.1c0,0-0.1,0.1-0.1,0.1l-0.3,0.2c-0.3,0.2-0.5,0.4-0.7,0.5c0,0-0.1,0.1-0.1,0.1
				c-0.2,0.1-0.4,0.2-0.5,0.3c-0.2,0.1-0.4,0.2-0.7,0.3c-0.1,0.1-0.2,0.1-0.4,0.1l-0.3,0.1c-0.1,0-0.3,0.1-0.4,0.1l-0.3,0.1
				c-0.8,0.2-1.6,0.2-2.3,0.1c-0.4,0-0.8-0.1-1.2-0.2c-0.6-0.2-1.2-0.4-1.8-0.7l-0.1-0.1c-0.1,0-0.1-0.1-0.2-0.1
				c-1.4-0.8-2.5-2.1-3.2-3.6l0-0.1c-0.4-1-0.6-2-0.6-3.1c0-0.3,0-0.5,0-0.7c0-0.5,0.1-0.9,0.2-1.2c0.1-0.5,0.3-1,0.5-1.5
				c0-0.1,0.1-0.2,0.2-0.3c0.1-0.2,0.3-0.4,0.4-0.7c0.2-0.3,0.4-0.6,0.7-0.9c0.7-0.7,1.4-1.3,2.3-1.7c0.2-0.1,0.5-0.2,0.8-0.3
				c0.1,0,0.2-0.1,0.4-0.1c0.1,0,0.2-0.1,0.3-0.1l0.4-0.1c0.4-0.1,0.8-0.2,1.2-0.4c0.2-0.1,0.4-0.2,0.6-0.3c1-0.4,1.9-1,2.7-1.7
				c1-0.8,1.9-1.8,2.6-2.8c1-1.5,1.6-2.9,1.8-4.2c0-0.1,0-0.2,0-0.3c0-0.2,0-0.5,0.2-0.6l0.1-0.1l0.4,0v0.2c0.1,0.2,0.1,0.4,0.2,0.6
				c0,0.1,0,0.1,0,0.2c0.4,1.7,1.1,3.1,1.9,4.3l-0.2,0.2l0.2-0.2c1,1.4,2.4,2.7,3.9,3.6l0.5,0.3l-0.5,0.2c-1.9,0.7-3.4,2-4.3,3.9
				c1.4-1.9,3.6-3.1,5.7-3.2c0.7,0,1.3,0.1,2,0.3h0.1l0,0c0.3,0.1,0.5,0.2,0.8,0.3c2.4,1,4.1,3.1,4.7,5.6c0,0.1,0.1,0.3,0.1,0.4
				c0,0.2,0.1,0.4,0.1,0.5c0,0.1,0,0.2,0,0.4c0,0.1,0,0.3,0,0.4c0,1.1-0.2,2.1-0.6,3.1l0,0.1c-0.6,1.5-1.8,2.8-3.2,3.6
				c-0.1,0-0.1,0.1-0.2,0.1l-0.1,0.1c-0.6,0.3-1.2,0.5-1.8,0.7l-0.1,0l0,0c-0.3,0.1-0.7,0.1-1,0.2
				C143.2,140.4,143,140.4,142.7,140.4z M134.8,132.6l0.5,0c0,0.2,0,0.4,0,0.6c0,0.4,0.1,0.7,0.2,1.1c0,0.1,0,0.1,0,0.1l0,0.1
				c0,0.1,0,0.1,0.1,0.2c0,0.1,0.1,0.2,0.1,0.3l0,0.1c0,0.1,0.1,0.2,0.1,0.3c0.1,0.3,0.2,0.5,0.3,0.7c0,0.1,0.1,0.2,0.2,0.3
				c0.1,0.2,0.3,0.4,0.4,0.6l0.1,0.1c0,0.1,0.1,0.1,0.1,0.2c0.1,0.2,0.3,0.3,0.4,0.5l0.2,0.2c0.2,0.2,0.5,0.4,0.8,0.6
				c0.1,0.1,0.2,0.1,0.3,0.2c0.2,0.1,0.4,0.2,0.6,0.3c0.6,0.3,1.3,0.6,2,0.7c0.2,0,0.5,0.1,0.7,0.1c0.5,0.1,1,0.1,1.5,0
				c0.4,0,0.7-0.1,1.1-0.2l0.2-0.1l0,0c0.5-0.1,1-0.4,1.5-0.6l0.1-0.1c0.1,0,0.1-0.1,0.2-0.1c1.3-0.8,2.4-2,3-3.4l0-0.1
				c0.4-0.9,0.6-1.8,0.6-2.8c0-0.1,0-0.2,0-0.3c0-0.1,0-0.3,0-0.4c0-0.2,0-0.3-0.1-0.5c0-0.1,0-0.3-0.1-0.4
				c-0.5-2.3-2.2-4.3-4.4-5.2c-0.3-0.1-0.5-0.2-0.8-0.3l0,0c-0.6-0.2-1.2-0.3-1.9-0.2c-2,0.1-4,1.2-5.3,3c-0.5,0.7-0.8,1.4-1.1,2.2
				l-0.7,2.2l0.1-2.3c0-0.2,0-0.5,0.1-0.8c0.1-0.5,0.3-1,0.4-1.5c0.8-1.9,2.3-3.5,4.2-4.3c-1.4-0.9-2.7-2.1-3.6-3.5l0.2-0.2
				l-0.2,0.2c-0.8-1.2-1.5-2.6-1.9-4.2c-0.3,1.3-0.9,2.7-1.8,4.1c-0.8,1.1-1.7,2.1-2.7,3c-0.9,0.7-1.8,1.3-2.8,1.7
				c-0.2,0.1-0.4,0.2-0.6,0.3c-0.4,0.2-0.8,0.3-1.2,0.4l-0.4,0.1c-0.1,0-0.2,0.1-0.3,0.1c-0.1,0-0.2,0.1-0.3,0.1
				c-0.3,0.1-0.5,0.2-0.8,0.3c-0.8,0.4-1.5,1-2.2,1.6c-0.3,0.3-0.5,0.6-0.7,0.9c-0.1,0.2-0.3,0.4-0.4,0.6c-0.1,0.1-0.1,0.2-0.2,0.3
				c-0.2,0.4-0.4,0.9-0.5,1.4c-0.1,0.3-0.2,0.7-0.2,1.1l0,0.1c0,0.2,0,0.4,0,0.6c0,1,0.2,1.9,0.6,2.8l0,0.1c0.6,1.4,1.7,2.6,3,3.4
				c0.1,0,0.1,0.1,0.2,0.1l0.1,0.1c0.5,0.3,1.1,0.5,1.7,0.7c0.4,0.1,0.7,0.2,1.1,0.2c0.7,0.1,1.4,0,2.2-0.1l0.3-0.1
				c0.1,0,0.3-0.1,0.4-0.1l0.3-0.1c0.1,0,0.2-0.1,0.3-0.1c0.2-0.1,0.4-0.2,0.6-0.3c0.2-0.1,0.3-0.2,0.5-0.3c0.1,0,0.1-0.1,0.1-0.1
				c0.2-0.1,0.4-0.3,0.7-0.5l0.3-0.2c0,0,0.1-0.1,0.1-0.1c0.1-0.1,0.1-0.1,0.1-0.1c0.2-0.2,0.4-0.4,0.5-0.6l0.1-0.1
				c0,0,0.1-0.1,0.1-0.1c0.2-0.3,0.4-0.6,0.6-0.9c0.4-0.7,0.7-1.4,0.8-2.1C134.7,133.6,134.7,133.1,134.8,132.6z"/>
		</g>
	</g>
</g>
</svg>
