<?xml version="1.0" encoding="utf-8"?>
<!-- Generator: Adobe Illustrator 25.2.0, SVG Export Plug-In . SVG Version: 6.00 Build 0)  -->
<svg version="1.1" id="Layer_1" xmlns="http://www.w3.org/2000/svg" xmlns:xlink="http://www.w3.org/1999/xlink" x="0px" y="0px"
	 viewBox="0 0 224.2 312.8" style="enable-background:new 0 0 224.2 312.8;" xml:space="preserve">
<style type="text/css">
	.st0{opacity:2.000000e-02;}
	.st1{opacity:5.000000e-02;}
	.st2{stroke:#000000;stroke-miterlimit:10;}
	.st3{fill:#190B38;}
	.st4{fill:#050307;}
</style>
<g>
	<g>
		<g class="st0">
			<rect x="-0.2" y="0.7" width="224.4" height="312.1"/>
		</g>
		<g class="st0">
			<rect x="-0.2" y="0.7" width="224.4" height="312.1"/>
		</g>
		<g class="st1">
			<path d="M173.4,283.5H50.6c-4.2,0-7.5-3.4-7.5-7.5V37.6c0-4.2,3.4-7.5,7.5-7.5h122.9c4.2,0,7.5,3.4,7.5,7.5V276
				C181,280.1,177.6,283.5,173.4,283.5z"/>
		</g>
		<g>
			<path class="st2" d="M12.1,96.1V77.2l-6.7,2.9v-2.2l8.9-3.8v22H12.1z"/>
			<path class="st2" d="M33.1,75.4c1.4,0.9,2.4,2.2,3.2,3.9c0.8,1.7,1.2,3.7,1.2,5.9c0,2.2-0.4,4.2-1.2,5.9c-0.8,1.7-1.9,3-3.2,3.9
				c-1.4,0.9-2.9,1.4-4.5,1.4c-1.7,0-3.2-0.5-4.5-1.4c-1.4-0.9-2.4-2.2-3.2-3.9c-0.8-1.7-1.2-3.7-1.2-5.9c0-2.3,0.4-4.2,1.2-5.9
				c0.8-1.7,1.9-3,3.2-3.9c1.4-0.9,2.9-1.4,4.5-1.4C30.3,74.1,31.8,74.5,33.1,75.4z M25.2,77.3c-1,0.7-1.8,1.8-2.4,3.1
				c-0.6,1.4-0.9,3-0.9,4.9c0,1.9,0.3,3.5,0.9,4.9s1.4,2.4,2.4,3.1c1,0.7,2.2,1.1,3.4,1.1s2.4-0.4,3.4-1.1c1-0.7,1.8-1.8,2.4-3.1
				c0.6-1.4,0.9-3,0.9-4.9c0-1.9-0.3-3.5-0.9-4.9C33.8,79,33,78,32,77.3c-1-0.7-2.1-1.1-3.4-1.1S26.2,76.5,25.2,77.3z"/>
		</g>
		<g>
			<path class="st2" d="M211.6,219.1V238l6.7-2.9v2.2l-8.9,3.8v-22H211.6z"/>
			<path class="st2" d="M190.6,239.8c-1.4-0.9-2.4-2.2-3.2-3.9c-0.8-1.7-1.2-3.7-1.2-5.9c0-2.2,0.4-4.2,1.2-5.9
				c0.8-1.7,1.9-3,3.2-3.9c1.4-0.9,2.9-1.4,4.5-1.4c1.7,0,3.2,0.5,4.5,1.4c1.4,0.9,2.4,2.2,3.2,3.9c0.8,1.7,1.2,3.7,1.2,5.9
				c0,2.3-0.4,4.2-1.2,5.9c-0.8,1.7-1.9,3-3.2,3.9c-1.4,0.9-2.9,1.4-4.5,1.4C193.4,241.1,191.9,240.7,190.6,239.8z M198.5,237.9
				c1-0.7,1.8-1.8,2.4-3.1s0.9-3,0.9-4.9c0-1.9-0.3-3.5-0.9-4.9s-1.4-2.4-2.4-3.1s-2.2-1.1-3.4-1.1s-2.4,0.4-3.4,1.1
				c-1,0.7-1.8,1.8-2.4,3.1s-0.9,3-0.9,4.9c0,1.9,0.3,3.5,0.9,4.9s1.4,2.4,2.4,3.1c1,0.7,2.1,1.1,3.4,1.1S197.5,238.7,198.5,237.9z"
				/>
		</g>
		<g>
			<g>
				<path class="st3" d="M24.5,54.4c0,0.2,0,0.4,0,0.7c0.2,2.3,1.4,4.3,3.2,5.6c0.6,0.4,0.9,1,0.9,1.7v0H15.5v0
					c0-0.7,0.4-1.3,0.9-1.7c1.7-1.3,2.9-3.2,3.2-5.5c0-0.3,0-0.5,0-0.8c0-3-1.7-5.5-4.1-6.8v-2.7h8.3c-0.2,0.5-0.3,1-0.4,1.5
					c0,0.3-0.1,0.5-0.1,0.8c0.2-0.8,0.6-1.6,1.1-2.3h4.2v2.7C26.1,48.8,24.5,51.4,24.5,54.4z"/>
			</g>
			<g>
				<path class="st4" d="M28.6,62.6H15.2v-0.3c0-0.8,0.4-1.5,1-1.9c1.7-1.3,2.8-3.2,3-5.3c0-0.2,0-0.5,0-0.8c0-2.8-1.5-5.3-4-6.6
					l-0.1-0.1v-3.1h9l0,0.1l0.1-0.1h4.6v3.1l-0.1,0.1c-2.4,1.3-4,3.8-4,6.6c0,0.2,0,0.4,0,0.6c0.2,2.2,1.3,4.1,3.1,5.4
					c0.6,0.5,1,1.2,1,1.9v0.3L28.6,62.6z M15.8,62.1h12.5c-0.1-0.5-0.3-0.9-0.8-1.2c-1.9-1.4-3.1-3.5-3.3-5.8c0-0.2,0-0.5,0-0.7
					c0-2.9,1.6-5.6,4.1-7v-2.3h-3.8c-0.4,0.6-0.8,1.3-1,2.1l-0.7,2.3l0.2-2.4c0-0.3,0.1-0.6,0.1-0.8c0.1-0.4,0.2-0.8,0.3-1.2h-7.6
					v2.3c2.5,1.4,4.1,4.1,4.1,7c0,0.3,0,0.6,0,0.8c-0.2,2.3-1.4,4.3-3.3,5.7C16.1,61.1,15.9,61.6,15.8,62.1z"/>
			</g>
			<g>
				<path class="st3" d="M37.5,49.5c0,1.1-0.2,2.1-0.6,3c0,0,0,0,0,0c-0.6,1.5-1.7,2.8-3.1,3.6c-0.1,0.1-0.2,0.1-0.3,0.2
					c-0.5,0.3-1.1,0.5-1.7,0.7c0,0,0,0,0,0c-0.4,0.1-0.7,0.2-1.1,0.2c-0.3,0-0.5,0-0.8,0c-0.3,0-0.5,0-0.8,0h0
					c-0.2,0-0.5-0.1-0.7-0.1c-0.7-0.1-1.4-0.4-2.1-0.7c-0.2-0.1-0.4-0.2-0.6-0.4c-0.1-0.1-0.2-0.1-0.3-0.2c-0.3-0.2-0.6-0.4-0.8-0.7
					c-0.1-0.1-0.1-0.1-0.2-0.2c-0.2-0.2-0.3-0.3-0.4-0.5c-0.1-0.1-0.2-0.2-0.2-0.3c-0.2-0.2-0.3-0.4-0.4-0.6
					c-0.1-0.1-0.1-0.2-0.2-0.3c-0.1-0.2-0.2-0.5-0.3-0.7c-0.1-0.1-0.1-0.2-0.1-0.3c-0.1-0.1-0.1-0.2-0.1-0.4c0-0.1-0.1-0.2-0.1-0.2
					c0-0.1,0-0.1,0-0.2c-0.1-0.4-0.2-0.7-0.2-1.1c0-0.2,0-0.4,0-0.6c0,0.5-0.1,1-0.2,1.5c-0.2,0.8-0.5,1.5-0.9,2.2
					c-0.2,0.3-0.4,0.6-0.6,0.9c-0.1,0.1-0.1,0.1-0.2,0.2c-0.2,0.2-0.4,0.4-0.6,0.6c0,0-0.1,0.1-0.1,0.1c-0.1,0.1-0.2,0.1-0.2,0.2
					c-0.1,0-0.1,0.1-0.2,0.1c-0.2,0.2-0.4,0.3-0.7,0.5c0,0-0.1,0.1-0.1,0.1c-0.2,0.1-0.3,0.2-0.5,0.3c-0.2,0.1-0.4,0.2-0.6,0.3
					c-0.1,0-0.2,0.1-0.3,0.1c-0.1,0-0.2,0.1-0.3,0.1c-0.1,0-0.3,0.1-0.4,0.1c-0.1,0-0.2,0-0.3,0.1c-0.5,0.1-1,0.1-1.5,0.1
					c-0.3,0-0.5,0-0.8,0c-0.4,0-0.8-0.1-1.1-0.2c-0.6-0.2-1.2-0.4-1.8-0.7c-0.1-0.1-0.2-0.1-0.3-0.2c-1.4-0.8-2.5-2.1-3.1-3.6
					c0,0,0,0,0,0c-0.4-0.9-0.6-1.9-0.6-3c0-0.2,0-0.5,0-0.7c0,0,0,0,0-0.1c0-0.4,0.1-0.8,0.2-1.1c0.1-0.5,0.3-1,0.5-1.4
					c0.1-0.1,0.1-0.2,0.2-0.3c0.1-0.2,0.3-0.4,0.4-0.6c0.2-0.3,0.5-0.6,0.7-0.9c0.6-0.7,1.4-1.3,2.3-1.7c0.3-0.1,0.5-0.2,0.8-0.3
					c0.1,0,0.2-0.1,0.3-0.1c0.1,0,0.3-0.1,0.4-0.1c0,0,0,0,0,0c0.5-0.1,1-0.3,1.5-0.5c0.2-0.1,0.4-0.2,0.6-0.3c1-0.4,1.9-1,2.8-1.7
					c1-0.8,1.9-1.8,2.7-2.9c0.9-1.3,1.6-2.8,1.9-4.3c0-0.1,0-0.2,0-0.3c0-0.1,0-0.3,0.1-0.4c0,0,0,0,0,0c0,0,0,0,0,0
					c0.1,0.2,0.2,0.5,0.2,0.8c0.4,1.6,1,3.1,2,4.4c0,0,0,0,0,0.1c1,1.5,2.4,2.8,4,3.7c-2,0.7-3.7,2.3-4.6,4.3
					c-0.2,0.5-0.3,1-0.4,1.5c-0.1,0.3-0.1,0.5-0.1,0.8c0.2-0.8,0.6-1.6,1.1-2.3c1.3-1.8,3.4-3,5.6-3.1c0.7,0,1.3,0.1,2,0.3
					c0,0,0,0,0,0c0.3,0.1,0.6,0.2,0.8,0.3c2.3,1,4,3,4.6,5.4c0,0.1,0.1,0.3,0.1,0.4c0,0.2,0.1,0.4,0.1,0.5c0,0.1,0,0.2,0,0.4
					C37.5,49.2,37.5,49.4,37.5,49.5z"/>
			</g>
			<g>
				<path class="st4" d="M29.8,57.5c-0.3,0-0.5,0-0.8,0c-0.3,0-0.5-0.1-0.8-0.1c-0.7-0.1-1.5-0.4-2.1-0.8c-0.2-0.1-0.4-0.2-0.6-0.4
					c-0.1-0.1-0.2-0.1-0.3-0.2c-0.3-0.2-0.6-0.4-0.9-0.7L24,55.1c-0.2-0.2-0.3-0.3-0.5-0.5c-0.1-0.1-0.1-0.1-0.2-0.2l-0.1-0.1
					c-0.2-0.2-0.3-0.4-0.4-0.6c-0.1-0.1-0.1-0.2-0.2-0.3c-0.1-0.3-0.3-0.5-0.4-0.8c0-0.1-0.1-0.2-0.1-0.3c-0.1-0.2-0.1-0.3-0.2-0.4
					c0,0,0-0.1-0.1-0.2c0,0,0-0.1,0-0.1c-0.2,0.7-0.5,1.4-0.8,2c-0.2,0.3-0.4,0.6-0.6,0.9c0,0-0.1,0.1-0.1,0.1l-0.1,0.1
					c-0.2,0.2-0.4,0.4-0.6,0.6c-0.1,0.1-0.1,0.1-0.1,0.1c0,0-0.1,0.1-0.2,0.1l-0.3,0.2c-0.3,0.2-0.5,0.4-0.7,0.5
					c0,0-0.1,0.1-0.1,0.1c-0.2,0.1-0.4,0.2-0.5,0.3c-0.2,0.1-0.4,0.2-0.7,0.3C17.1,57,17,57,16.9,57.1l-0.3,0.1
					c-0.1,0-0.3,0.1-0.4,0.1l-0.3,0.1c-0.8,0.2-1.6,0.2-2.3,0.1c-0.4,0-0.8-0.1-1.2-0.2c-0.6-0.2-1.3-0.4-1.8-0.7l-0.1-0.1
					c-0.1,0-0.1-0.1-0.2-0.1c-1.4-0.8-2.5-2.1-3.2-3.7l0-0.1c-0.4-1-0.6-2-0.6-3.1c0-0.3,0-0.5,0-0.7c0-0.5,0.1-0.9,0.2-1.2
					c0.1-0.5,0.3-1,0.5-1.5c0.1-0.1,0.1-0.2,0.2-0.3c0.1-0.2,0.3-0.4,0.4-0.7c0.2-0.3,0.4-0.6,0.7-1c0.7-0.7,1.5-1.3,2.3-1.8
					c0.2-0.1,0.5-0.2,0.8-0.3c0.1,0,0.2-0.1,0.4-0.1c0.1,0,0.2-0.1,0.3-0.1l0.4-0.1c0.4-0.1,0.8-0.2,1.2-0.4
					c0.2-0.1,0.4-0.2,0.6-0.3c1-0.4,1.9-1,2.7-1.7c1-0.8,1.9-1.8,2.6-2.9c1-1.5,1.6-2.9,1.8-4.2c0-0.1,0-0.2,0-0.3
					c0-0.2,0-0.5,0.2-0.6l0.1-0.1l0.4,0v0.2c0.1,0.2,0.1,0.4,0.2,0.6c0,0.1,0,0.1,0,0.2c0.4,1.7,1.1,3.1,1.9,4.3l-0.2,0.2l0.2-0.2
					c1,1.5,2.4,2.7,3.9,3.7l0.5,0.3l-0.6,0.2c-1.9,0.7-3.4,2.1-4.3,3.9c1.4-1.9,3.6-3.1,5.8-3.2c0.7,0,1.3,0.1,2,0.3H32l0,0
					c0.3,0.1,0.5,0.2,0.8,0.3c2.4,1,4.1,3.1,4.7,5.6c0,0.1,0.1,0.3,0.1,0.4c0,0.2,0.1,0.4,0.1,0.5c0,0.1,0,0.2,0,0.4
					c0,0.1,0,0.3,0,0.4c0,1.1-0.2,2.1-0.6,3.1l0,0.1c-0.6,1.5-1.8,2.8-3.2,3.7c-0.1,0-0.1,0.1-0.2,0.1l-0.1,0.1
					c-0.6,0.3-1.2,0.6-1.8,0.7l-0.1,0l0,0c-0.3,0.1-0.7,0.1-1,0.2C30.3,57.5,30,57.5,29.8,57.5z M21.8,49.6l0.5,0c0,0.2,0,0.4,0,0.6
					c0,0.4,0.1,0.7,0.2,1.1c0,0.1,0,0.1,0,0.1l0,0.1c0,0.1,0,0.1,0.1,0.2c0,0.1,0.1,0.2,0.1,0.3l0,0.1c0,0.1,0.1,0.2,0.1,0.3
					c0.1,0.3,0.2,0.5,0.3,0.7c0,0.1,0.1,0.2,0.2,0.3c0.1,0.2,0.3,0.4,0.4,0.6l0.1,0.1c0,0.1,0.1,0.1,0.1,0.2
					c0.1,0.2,0.3,0.3,0.4,0.5l0.2,0.2c0.2,0.2,0.5,0.4,0.8,0.7c0.1,0.1,0.2,0.1,0.3,0.2c0.2,0.1,0.4,0.2,0.6,0.3
					c0.6,0.3,1.3,0.6,2,0.7c0.2,0,0.5,0.1,0.7,0.1c0.5,0.1,1,0.1,1.5,0c0.4,0,0.7-0.1,1.1-0.2l0.2-0.1l0,0c0.5-0.1,1-0.4,1.5-0.6
					l0.1-0.1c0.1,0,0.1-0.1,0.2-0.1c1.3-0.8,2.4-2,3-3.5l0-0.1c0.4-0.9,0.6-1.9,0.6-2.8c0-0.1,0-0.2,0-0.3c0-0.1,0-0.3,0-0.4
					c0-0.2,0-0.3-0.1-0.5c0-0.1,0-0.3-0.1-0.4c-0.5-2.3-2.2-4.3-4.4-5.2c-0.3-0.1-0.5-0.2-0.8-0.3l0,0c-0.6-0.2-1.2-0.3-1.9-0.2
					c-2,0.1-4.1,1.2-5.4,3c-0.5,0.7-0.8,1.4-1.1,2.2l-0.7,2.2l0.1-2.3c0-0.2,0-0.5,0.1-0.8c0.1-0.5,0.3-1.1,0.4-1.5
					c0.8-1.9,2.3-3.5,4.2-4.3c-1.4-0.9-2.7-2.1-3.6-3.5l0.2-0.2L24,36.9c-0.8-1.2-1.5-2.6-1.9-4.2c-0.3,1.3-0.9,2.7-1.8,4.1
					c-0.8,1.1-1.7,2.1-2.7,3c-0.9,0.7-1.8,1.3-2.8,1.8c-0.2,0.1-0.4,0.2-0.6,0.3c-0.4,0.2-0.8,0.3-1.2,0.4l-0.4,0.1
					c-0.1,0-0.2,0.1-0.3,0.1c-0.1,0-0.2,0.1-0.3,0.1c-0.3,0.1-0.5,0.2-0.8,0.3c-0.8,0.4-1.6,1-2.2,1.6c-0.3,0.3-0.5,0.6-0.7,0.9
					C8,45.5,7.9,45.7,7.8,46c-0.1,0.1-0.1,0.2-0.2,0.3c-0.2,0.4-0.4,0.9-0.5,1.4C7,48,7,48.4,6.9,48.7l0,0.1c0,0.2,0,0.4,0,0.6
					c0,1,0.2,1.9,0.6,2.8l0,0.1c0.6,1.4,1.7,2.7,3,3.5c0.1,0,0.1,0.1,0.2,0.1l0.1,0.1c0.5,0.3,1.1,0.5,1.7,0.7
					c0.4,0.1,0.7,0.2,1.1,0.2c0.7,0.1,1.4,0,2.2-0.1l0.3-0.1c0.1,0,0.3-0.1,0.4-0.1l0.3-0.1c0.1,0,0.2-0.1,0.3-0.1
					c0.2-0.1,0.4-0.2,0.6-0.3c0.2-0.1,0.3-0.2,0.5-0.3c0.1,0,0.1-0.1,0.1-0.1c0.2-0.1,0.4-0.3,0.7-0.5l0.3-0.2c0,0,0.1-0.1,0.1-0.1
					c0.1-0.1,0.1-0.1,0.1-0.1c0.2-0.2,0.4-0.4,0.5-0.6l0.1-0.1c0,0,0.1-0.1,0.1-0.1c0.2-0.3,0.4-0.6,0.6-0.9
					c0.4-0.7,0.7-1.4,0.8-2.1C21.7,50.7,21.8,50.2,21.8,49.6z"/>
			</g>
		</g>
		<g>
			<g>
				<path class="st3" d="M199.2,260.6c0-0.2,0-0.4,0-0.7c-0.2-2.3-1.4-4.3-3.2-5.6c-0.6-0.4-0.9-1-0.9-1.7v0h13.1v0
					c0,0.7-0.4,1.3-0.9,1.7c-1.7,1.3-2.9,3.2-3.2,5.5c0,0.3,0,0.5,0,0.8c0,3,1.7,5.5,4.1,6.8v2.7h-8.3c0.2-0.5,0.3-1,0.4-1.5
					c0-0.3,0.1-0.5,0.1-0.8c-0.2,0.8-0.6,1.6-1.1,2.3h-4.2v-2.7C197.5,266.2,199.2,263.6,199.2,260.6z"/>
			</g>
			<g>
				<path class="st4" d="M195.1,252.4h13.3v0.3c0,0.8-0.4,1.5-1,1.9c-1.7,1.3-2.8,3.2-3,5.3c0,0.2,0,0.5,0,0.8c0,2.8,1.5,5.3,4,6.6
					l0.1,0.1v3.1h-9l0-0.1l-0.1,0.1h-4.6v-3.1l0.1-0.1c2.4-1.3,4-3.8,4-6.6c0-0.2,0-0.4,0-0.6c-0.2-2.2-1.3-4.1-3.1-5.4
					c-0.6-0.5-1-1.2-1-1.9v-0.3L195.1,252.4z M207.8,252.9h-12.5c0.1,0.5,0.3,0.9,0.8,1.2c1.9,1.4,3.1,3.5,3.3,5.8
					c0,0.2,0,0.5,0,0.7c0,2.9-1.6,5.6-4.1,7v2.3h3.8c0.4-0.6,0.8-1.3,1-2.1l0.7-2.3l-0.2,2.4c0,0.3-0.1,0.6-0.1,0.8
					c-0.1,0.4-0.2,0.8-0.3,1.2h7.6v-2.3c-2.5-1.4-4.1-4.1-4.1-7c0-0.3,0-0.6,0-0.8c0.2-2.3,1.4-4.3,3.3-5.7
					C207.5,253.9,207.8,253.4,207.8,252.9z"/>
			</g>
			<g>
				<path class="st3" d="M186.2,265.5c0-1.1,0.2-2.1,0.6-3c0,0,0,0,0,0c0.6-1.5,1.7-2.8,3.1-3.6c0.1-0.1,0.2-0.1,0.3-0.2
					c0.5-0.3,1.1-0.5,1.7-0.7c0,0,0,0,0,0c0.4-0.1,0.7-0.2,1.1-0.2c0.3,0,0.5,0,0.8,0c0.3,0,0.5,0,0.8,0h0c0.2,0,0.5,0.1,0.7,0.1
					c0.7,0.1,1.4,0.4,2.1,0.7c0.2,0.1,0.4,0.2,0.6,0.4c0.1,0.1,0.2,0.1,0.3,0.2c0.3,0.2,0.6,0.4,0.8,0.7c0.1,0.1,0.1,0.1,0.2,0.2
					c0.2,0.2,0.3,0.3,0.4,0.5c0.1,0.1,0.2,0.2,0.2,0.3c0.2,0.2,0.3,0.4,0.4,0.6c0.1,0.1,0.1,0.2,0.2,0.3c0.1,0.2,0.2,0.5,0.3,0.7
					c0.1,0.1,0.1,0.2,0.1,0.3c0.1,0.1,0.1,0.2,0.1,0.4c0,0.1,0.1,0.2,0.1,0.2c0,0.1,0,0.1,0,0.2c0.1,0.4,0.2,0.7,0.2,1.1
					c0,0.2,0,0.4,0,0.6c0-0.5,0.1-1,0.2-1.5c0.2-0.8,0.5-1.5,0.9-2.2c0.2-0.3,0.4-0.6,0.6-0.9c0.1-0.1,0.1-0.1,0.2-0.2
					c0.2-0.2,0.4-0.4,0.6-0.6c0,0,0.1-0.1,0.1-0.1c0.1-0.1,0.2-0.1,0.2-0.2c0.1,0,0.1-0.1,0.2-0.1c0.2-0.2,0.4-0.3,0.7-0.5
					c0,0,0.1-0.1,0.1-0.1c0.2-0.1,0.3-0.2,0.5-0.3c0.2-0.1,0.4-0.2,0.6-0.3c0.1,0,0.2-0.1,0.3-0.1c0.1,0,0.2-0.1,0.3-0.1
					c0.1,0,0.3-0.1,0.4-0.1c0.1,0,0.2,0,0.3-0.1c0.5-0.1,1-0.1,1.5-0.1c0.3,0,0.5,0,0.8,0c0.4,0,0.8,0.1,1.1,0.2
					c0.6,0.2,1.2,0.4,1.8,0.7c0.1,0.1,0.2,0.1,0.3,0.2c1.4,0.8,2.5,2.1,3.1,3.6c0,0,0,0,0,0c0.4,0.9,0.6,1.9,0.6,3
					c0,0.2,0,0.5,0,0.7c0,0,0,0,0,0.1c0,0.4-0.1,0.8-0.2,1.1c-0.1,0.5-0.3,1-0.5,1.4c-0.1,0.1-0.1,0.2-0.2,0.3
					c-0.1,0.2-0.3,0.4-0.4,0.6c-0.2,0.3-0.5,0.6-0.7,0.9c-0.6,0.7-1.4,1.3-2.3,1.7c-0.3,0.1-0.5,0.2-0.8,0.3c-0.1,0-0.2,0.1-0.3,0.1
					c-0.1,0-0.3,0.1-0.4,0.1c0,0,0,0,0,0c-0.5,0.1-1,0.3-1.5,0.5c-0.2,0.1-0.4,0.2-0.6,0.3c-1,0.4-1.9,1-2.8,1.7
					c-1,0.8-1.9,1.8-2.7,2.9c-0.9,1.3-1.6,2.8-1.9,4.3c0,0.1,0,0.2,0,0.3c0,0.1,0,0.3-0.1,0.4c0,0,0,0,0,0c0,0,0,0,0,0
					c-0.1-0.2-0.2-0.5-0.2-0.8c-0.4-1.6-1-3.1-2-4.4c0,0,0,0,0-0.1c-1-1.5-2.4-2.8-4-3.7c2-0.7,3.7-2.3,4.6-4.3
					c0.2-0.5,0.3-1,0.4-1.5c0.1-0.3,0.1-0.5,0.1-0.8c-0.2,0.8-0.6,1.6-1.1,2.3c-1.3,1.8-3.4,3-5.6,3.1c-0.7,0-1.3-0.1-2-0.3
					c0,0,0,0,0,0c-0.3-0.1-0.6-0.2-0.8-0.3c-2.3-1-4-3-4.6-5.4c0-0.1-0.1-0.3-0.1-0.4c0-0.2-0.1-0.4-0.1-0.5c0-0.1,0-0.2,0-0.4
					C186.2,265.8,186.2,265.6,186.2,265.5z"/>
			</g>
			<g>
				<path class="st4" d="M193.9,257.5c0.3,0,0.5,0,0.8,0c0.3,0,0.5,0.1,0.8,0.1c0.7,0.1,1.5,0.4,2.1,0.8c0.2,0.1,0.4,0.2,0.6,0.4
					c0.1,0.1,0.2,0.1,0.3,0.2c0.3,0.2,0.6,0.4,0.9,0.7l0.2,0.2c0.2,0.2,0.3,0.3,0.5,0.5c0.1,0.1,0.1,0.1,0.2,0.2l0.1,0.1
					c0.2,0.2,0.3,0.4,0.4,0.6c0.1,0.1,0.1,0.2,0.2,0.3c0.1,0.3,0.3,0.5,0.4,0.8c0,0.1,0.1,0.2,0.1,0.3c0.1,0.2,0.1,0.3,0.2,0.4
					c0,0,0,0.1,0.1,0.2c0,0,0,0.1,0,0.1c0.2-0.7,0.5-1.4,0.8-2c0.2-0.3,0.4-0.6,0.6-0.9c0,0,0.1-0.1,0.1-0.1l0.1-0.1
					c0.2-0.2,0.4-0.4,0.6-0.6c0.1-0.1,0.1-0.1,0.1-0.1c0,0,0.1-0.1,0.2-0.1l0.3-0.2c0.3-0.2,0.5-0.4,0.7-0.5c0,0,0.1-0.1,0.1-0.1
					c0.2-0.1,0.4-0.2,0.5-0.3c0.2-0.1,0.4-0.2,0.7-0.3c0.1-0.1,0.2-0.1,0.4-0.1l0.3-0.1c0.1,0,0.3-0.1,0.4-0.1l0.3-0.1
					c0.8-0.2,1.6-0.2,2.3-0.1c0.4,0,0.8,0.1,1.2,0.2c0.6,0.2,1.3,0.4,1.8,0.7l0.1,0.1c0.1,0,0.1,0.1,0.2,0.1
					c1.4,0.8,2.5,2.1,3.2,3.7l0,0.1c0.4,1,0.6,2,0.6,3.1c0,0.3,0,0.5,0,0.7c0,0.5-0.1,0.9-0.2,1.2c-0.1,0.5-0.3,1-0.5,1.5
					c-0.1,0.1-0.1,0.2-0.2,0.3c-0.1,0.2-0.3,0.4-0.4,0.7c-0.2,0.3-0.4,0.6-0.7,1c-0.7,0.7-1.5,1.3-2.3,1.8c-0.2,0.1-0.5,0.2-0.8,0.3
					c-0.1,0-0.2,0.1-0.4,0.1c-0.1,0-0.2,0.1-0.3,0.1l-0.4,0.1c-0.4,0.1-0.8,0.2-1.2,0.4c-0.2,0.1-0.4,0.2-0.6,0.3
					c-1,0.4-1.9,1-2.7,1.7c-1,0.8-1.9,1.8-2.6,2.9c-1,1.5-1.6,2.9-1.8,4.2c0,0.1,0,0.2,0,0.3c0,0.2,0,0.5-0.2,0.6l-0.1,0.1l-0.4,0
					v-0.2c-0.1-0.2-0.1-0.4-0.2-0.6c0-0.1,0-0.1,0-0.2c-0.4-1.7-1.1-3.1-1.9-4.3l0.2-0.2l-0.2,0.2c-1-1.5-2.4-2.7-3.9-3.7l-0.5-0.3
					l0.6-0.2c1.9-0.7,3.4-2.1,4.3-3.9c-1.4,1.9-3.6,3.1-5.8,3.2c-0.7,0-1.3-0.1-2-0.3h-0.1l0,0c-0.3-0.1-0.5-0.2-0.8-0.3
					c-2.4-1-4.1-3.1-4.7-5.6c0-0.1-0.1-0.3-0.1-0.4c0-0.2-0.1-0.4-0.1-0.5c0-0.1,0-0.2,0-0.4c0-0.1,0-0.3,0-0.4
					c0-1.1,0.2-2.1,0.6-3.1l0-0.1c0.6-1.5,1.8-2.8,3.2-3.7c0.1,0,0.1-0.1,0.2-0.1l0.1-0.1c0.6-0.3,1.2-0.6,1.8-0.7l0.1,0l0,0
					c0.3-0.1,0.7-0.1,1-0.2C193.3,257.5,193.6,257.5,193.9,257.5z M201.9,265.4l-0.5,0c0-0.2,0-0.4,0-0.6c0-0.4-0.1-0.7-0.2-1.1
					c0-0.1,0-0.1,0-0.1l0-0.1c0-0.1,0-0.1-0.1-0.2c0-0.1-0.1-0.2-0.1-0.3l0-0.1c0-0.1-0.1-0.2-0.1-0.3c-0.1-0.3-0.2-0.5-0.3-0.7
					c0-0.1-0.1-0.2-0.2-0.3c-0.1-0.2-0.3-0.4-0.4-0.6l-0.1-0.1c0-0.1-0.1-0.1-0.1-0.2c-0.1-0.2-0.3-0.3-0.4-0.5l-0.2-0.2
					c-0.2-0.2-0.5-0.4-0.8-0.7c-0.1-0.1-0.2-0.1-0.3-0.2c-0.2-0.1-0.4-0.2-0.6-0.3c-0.6-0.3-1.3-0.6-2-0.7c-0.2,0-0.5-0.1-0.7-0.1
					c-0.5-0.1-1-0.1-1.5,0c-0.4,0-0.7,0.1-1.1,0.2l-0.2,0.1l0,0c-0.5,0.1-1,0.4-1.5,0.6l-0.1,0.1c-0.1,0-0.1,0.1-0.2,0.1
					c-1.3,0.8-2.4,2-3,3.5l0,0.1c-0.4,0.9-0.6,1.9-0.6,2.8c0,0.1,0,0.2,0,0.3c0,0.1,0,0.3,0,0.4c0,0.2,0,0.3,0.1,0.5
					c0,0.1,0,0.3,0.1,0.4c0.5,2.3,2.2,4.3,4.4,5.2c0.3,0.1,0.5,0.2,0.8,0.3l0,0c0.6,0.2,1.2,0.3,1.9,0.2c2-0.1,4.1-1.2,5.4-3
					c0.5-0.7,0.8-1.4,1.1-2.2l0.7-2.2l-0.1,2.3c0,0.2,0,0.5-0.1,0.8c-0.1,0.5-0.3,1.1-0.4,1.5c-0.8,1.9-2.3,3.5-4.2,4.3
					c1.4,0.9,2.7,2.1,3.6,3.5l-0.2,0.2l0.2-0.2c0.8,1.2,1.5,2.6,1.9,4.2c0.3-1.3,0.9-2.7,1.8-4.1c0.8-1.1,1.7-2.1,2.7-3
					c0.9-0.7,1.8-1.3,2.8-1.8c0.2-0.1,0.4-0.2,0.6-0.3c0.4-0.2,0.8-0.3,1.2-0.4l0.4-0.1c0.1,0,0.2-0.1,0.3-0.1
					c0.1,0,0.2-0.1,0.3-0.1c0.3-0.1,0.5-0.2,0.8-0.3c0.8-0.4,1.6-1,2.2-1.6c0.3-0.3,0.5-0.6,0.7-0.9c0.1-0.2,0.3-0.4,0.4-0.6
					c0.1-0.1,0.1-0.2,0.2-0.3c0.2-0.4,0.4-0.9,0.5-1.4c0.1-0.3,0.2-0.7,0.2-1.1l0-0.1c0-0.2,0-0.4,0-0.6c0-1-0.2-1.9-0.6-2.8l0-0.1
					c-0.6-1.4-1.7-2.7-3-3.5c-0.1,0-0.1-0.1-0.2-0.1l-0.1-0.1c-0.5-0.3-1.1-0.5-1.7-0.7c-0.4-0.1-0.7-0.2-1.1-0.2
					c-0.7-0.1-1.4,0-2.2,0.1l-0.3,0.1c-0.1,0-0.3,0.1-0.4,0.1l-0.3,0.1c-0.1,0-0.2,0.1-0.3,0.1c-0.2,0.1-0.4,0.2-0.6,0.3
					c-0.2,0.1-0.3,0.2-0.5,0.3c-0.1,0-0.1,0.1-0.1,0.1c-0.2,0.1-0.4,0.3-0.7,0.5l-0.3,0.2c0,0-0.1,0.1-0.1,0.1
					c-0.1,0.1-0.1,0.1-0.1,0.1c-0.2,0.2-0.4,0.4-0.5,0.6l-0.1,0.1c0,0-0.1,0.1-0.1,0.1c-0.2,0.3-0.4,0.6-0.6,0.9
					c-0.4,0.7-0.7,1.4-0.8,2.1C201.9,264.3,201.9,264.8,201.9,265.4z"/>
			</g>
		</g>
	</g>
	<g>
		<g>
			<g>
				<path class="st3" d="M154.9,73.1c0,0.3,0,0.6,0,0.9c0.3,3.1,1.9,5.8,4.3,7.5c0.7,0.5,1.2,1.4,1.2,2.3v0h-17.6v0
					c0-0.9,0.5-1.8,1.2-2.3c2.3-1.7,3.9-4.3,4.2-7.4c0-0.3,0.1-0.7,0.1-1c0-4-2.2-7.4-5.5-9.2v-3.6H154c-0.3,0.6-0.5,1.3-0.6,2
					c-0.1,0.4-0.1,0.7-0.1,1.1c0.3-1.1,0.8-2.1,1.5-3.1h5.7V64C157.2,65.7,154.9,69.2,154.9,73.1z"/>
			</g>
			<g>
				<path class="st4" d="M160.5,84.2h-18v-0.4c0-1,0.5-2,1.4-2.6c2.3-1.7,3.8-4.3,4.1-7.1c0-0.3,0.1-0.7,0.1-1c0-3.7-2-7.1-5.3-8.8
					l-0.2-0.1V60h12.1l0,0.1l0.1-0.1h6.2v4.2l-0.2,0.1c-3.3,1.7-5.3,5.1-5.3,8.8c0,0.3,0,0.6,0,0.9c0.2,2.9,1.7,5.5,4.1,7.3
					c0.9,0.6,1.4,1.6,1.4,2.6v0.4L160.5,84.2z M143.3,83.5h16.8c-0.1-0.7-0.5-1.2-1-1.7c-2.5-1.8-4.2-4.7-4.4-7.8c0-0.3,0-0.6,0-0.9
					c0-3.9,2.1-7.5,5.5-9.4v-3.1H155c-0.6,0.8-1,1.8-1.3,2.8l-0.9,3.1l0.2-3.2c0-0.4,0.1-0.8,0.1-1.1c0.1-0.5,0.2-1.1,0.4-1.6h-10.2
					v3.1c3.4,1.9,5.5,5.5,5.5,9.4c0,0.4,0,0.8-0.1,1.1c-0.3,3-1.9,5.8-4.4,7.6C143.7,82.3,143.4,82.9,143.3,83.5z"/>
			</g>
			<g>
				<path class="st3" d="M172.4,66.6c0,1.4-0.3,2.8-0.8,4c0,0,0,0,0,0c-0.8,2-2.3,3.7-4.2,4.8c-0.1,0.1-0.3,0.2-0.4,0.3
					c-0.7,0.4-1.5,0.7-2.3,0.9c0,0,0,0,0,0c-0.5,0.1-1,0.2-1.5,0.3c-0.4,0-0.7,0.1-1.1,0.1c-0.4,0-0.7,0-1-0.1h0
					c-0.3,0-0.7-0.1-1-0.1c-1-0.2-1.9-0.5-2.8-1c-0.3-0.1-0.6-0.3-0.8-0.5c-0.1-0.1-0.3-0.2-0.4-0.3c-0.4-0.3-0.8-0.6-1.1-0.9
					c-0.1-0.1-0.2-0.2-0.3-0.3c-0.2-0.2-0.4-0.4-0.6-0.7c-0.1-0.1-0.2-0.3-0.3-0.4c-0.2-0.3-0.4-0.5-0.6-0.8
					c-0.1-0.1-0.1-0.2-0.2-0.4c-0.2-0.3-0.3-0.7-0.5-1c-0.1-0.1-0.1-0.3-0.2-0.5c-0.1-0.2-0.1-0.3-0.2-0.5c0-0.1-0.1-0.2-0.1-0.3
					c0-0.1,0-0.1-0.1-0.2c-0.1-0.5-0.2-1-0.3-1.5c0-0.3,0-0.6,0-0.9c0,0.7-0.1,1.4-0.3,2.1c-0.2,1.1-0.6,2.1-1.2,3
					c-0.2,0.4-0.5,0.8-0.8,1.2c-0.1,0.1-0.1,0.2-0.2,0.3c-0.2,0.3-0.5,0.5-0.7,0.8c-0.1,0.1-0.1,0.1-0.2,0.2
					c-0.1,0.1-0.2,0.2-0.3,0.3c-0.1,0.1-0.2,0.1-0.2,0.2c-0.3,0.2-0.6,0.5-0.9,0.7c0,0-0.1,0.1-0.2,0.1c-0.2,0.1-0.5,0.3-0.7,0.4
					c-0.3,0.1-0.6,0.3-0.9,0.4c-0.1,0.1-0.3,0.1-0.4,0.2c-0.1,0-0.3,0.1-0.5,0.1c-0.2,0-0.4,0.1-0.6,0.1c-0.1,0-0.3,0-0.4,0.1
					c-0.6,0.1-1.3,0.2-2,0.2c-0.4,0-0.7,0-1.1-0.1c-0.5,0-1-0.1-1.5-0.3c-0.8-0.2-1.6-0.5-2.4-0.9c-0.1-0.1-0.3-0.2-0.4-0.3
					c-1.9-1.1-3.3-2.8-4.2-4.8c0,0,0,0,0,0c-0.5-1.2-0.8-2.6-0.8-4c0-0.3,0-0.7,0-1c0,0,0-0.1,0-0.1c0-0.5,0.1-1,0.3-1.5
					c0.2-0.7,0.4-1.3,0.7-1.9c0.1-0.1,0.1-0.3,0.2-0.4c0.2-0.3,0.3-0.6,0.5-0.9c0.3-0.4,0.6-0.8,1-1.2c0.9-0.9,1.9-1.7,3-2.3
					c0.3-0.2,0.7-0.3,1-0.4c0.1-0.1,0.3-0.1,0.5-0.2c0.2-0.1,0.3-0.1,0.5-0.2c0,0,0,0,0,0c0.7-0.2,1.4-0.4,2-0.6
					c0.3-0.1,0.6-0.2,0.9-0.4c1.3-0.6,2.6-1.4,3.7-2.3c1.4-1.1,2.6-2.5,3.6-3.9c1.2-1.7,2.2-3.7,2.5-5.8c0-0.1,0-0.3,0.1-0.4
					c0-0.1,0-0.5,0.2-0.5c0,0,0,0,0,0c0,0,0,0,0,0c0.2,0.3,0.2,0.7,0.3,1c0.6,2.1,1.4,4.1,2.7,5.9c0,0,0,0,0.1,0.1
					c1.4,2,3.3,3.8,5.4,5c-2.7,0.9-5,3.1-6.2,5.8c-0.3,0.6-0.4,1.3-0.6,2c-0.1,0.4-0.1,0.7-0.1,1.1c0.3-1.1,0.8-2.1,1.5-3
					c1.7-2.4,4.5-4.1,7.5-4.2c0.9,0,1.8,0.1,2.7,0.4c0,0,0,0,0,0c0.4,0.1,0.8,0.3,1.1,0.4c3.1,1.3,5.4,4.1,6.1,7.3
					c0,0.2,0.1,0.4,0.1,0.6c0,0.2,0.1,0.5,0.1,0.7c0,0.2,0,0.3,0,0.5C172.4,66.3,172.4,66.4,172.4,66.6z"/>
			</g>
			<g>
				<path class="st4" d="M162,77.4c-0.4,0-0.7,0-1.1-0.1c-0.4,0-0.7-0.1-1-0.2c-1-0.2-2-0.5-2.9-1c-0.3-0.1-0.6-0.3-0.9-0.5
					c-0.1-0.1-0.3-0.2-0.4-0.3c-0.4-0.3-0.8-0.6-1.1-0.9l-0.3-0.3c-0.2-0.2-0.4-0.4-0.6-0.7c-0.1-0.1-0.1-0.2-0.2-0.3l-0.1-0.1
					c-0.2-0.3-0.4-0.6-0.6-0.9c-0.1-0.1-0.1-0.2-0.2-0.3c-0.2-0.4-0.4-0.7-0.5-1.1c-0.1-0.1-0.1-0.3-0.2-0.4
					c-0.1-0.2-0.2-0.4-0.2-0.6c0-0.1-0.1-0.2-0.1-0.3c0,0,0-0.1,0-0.1c-0.2,0.9-0.6,1.8-1.1,2.6c-0.2,0.4-0.5,0.8-0.9,1.2
					c0,0.1-0.1,0.1-0.1,0.2l-0.1,0.1c-0.2,0.3-0.5,0.6-0.8,0.8c-0.1,0.1-0.1,0.1-0.2,0.2c-0.1,0.1-0.1,0.1-0.2,0.2L148,75
					c-0.3,0.3-0.7,0.5-1,0.7c0,0-0.1,0.1-0.2,0.1c-0.2,0.1-0.5,0.3-0.7,0.4c-0.3,0.1-0.6,0.3-0.9,0.4c-0.2,0.1-0.3,0.1-0.5,0.2
					l-0.5,0.1c-0.2,0.1-0.4,0.1-0.6,0.2l-0.4,0.1c-1.1,0.2-2.1,0.3-3.2,0.1c-0.5,0-1-0.1-1.6-0.3c-0.9-0.2-1.7-0.5-2.4-1l-0.2-0.1
					c-0.1-0.1-0.2-0.1-0.3-0.2c-1.9-1.1-3.4-2.9-4.3-4.9l0-0.1c-0.6-1.3-0.8-2.7-0.8-4.2c0-0.3,0-0.7,0-1c0.1-0.6,0.2-1.2,0.3-1.7
					c0.2-0.7,0.4-1.3,0.7-2c0.1-0.1,0.1-0.3,0.2-0.5c0.2-0.3,0.4-0.6,0.5-0.9c0.3-0.4,0.6-0.8,1-1.3c0.9-1,2-1.8,3.1-2.4
					c0.3-0.2,0.7-0.3,1.1-0.4c0.1-0.1,0.3-0.1,0.5-0.2c0.1,0,0.2-0.1,0.4-0.1l0.6-0.2c0.5-0.1,1.1-0.3,1.6-0.5
					c0.3-0.1,0.6-0.2,0.8-0.4c1.3-0.6,2.5-1.4,3.7-2.3c1.4-1.1,2.5-2.4,3.5-3.8c1.3-2,2.1-3.9,2.4-5.7c0-0.1,0-0.3,0.1-0.4
					c0-0.3,0-0.6,0.3-0.8l0.1-0.1l0.5,0v0.3c0.1,0.2,0.2,0.5,0.2,0.7c0,0.1,0,0.2,0.1,0.3c0.6,2.2,1.5,4.2,2.6,5.8l-0.2,0.3l0.3-0.2
					c1.4,2,3.2,3.7,5.3,4.9l0.7,0.4l-0.7,0.3c-2.6,0.9-4.6,2.8-5.8,5.2c1.9-2.6,4.8-4.2,7.7-4.3c0.9,0,1.8,0.1,2.7,0.4h0.1l0.1,0.1
					c0.4,0.1,0.7,0.3,1.1,0.4c3.2,1.4,5.6,4.2,6.4,7.5c0,0.2,0.1,0.4,0.1,0.6c0,0.2,0.1,0.5,0.1,0.7c0,0.2,0,0.3,0,0.5
					c0,0.2,0,0.3,0,0.5c0,1.4-0.3,2.9-0.8,4.2l0,0.1c-0.9,2-2.4,3.8-4.3,4.9c-0.1,0.1-0.2,0.1-0.3,0.2l-0.2,0.1
					c-0.8,0.4-1.6,0.7-2.4,1l-0.2,0.1l0,0c-0.4,0.1-0.9,0.2-1.4,0.2C162.8,77.3,162.4,77.4,162,77.4z M151.3,66.8l0.7,0
					c0,0.3,0,0.6,0,0.8c0.1,0.5,0.1,1,0.3,1.4c0,0.1,0,0.1,0,0.2l0,0.1c0,0.1,0,0.2,0.1,0.2c0,0.2,0.1,0.3,0.2,0.5l0,0.1
					c0,0.1,0.1,0.2,0.1,0.4c0.1,0.3,0.3,0.7,0.5,1c0.1,0.1,0.1,0.2,0.2,0.3c0.2,0.3,0.3,0.5,0.5,0.8l0.1,0.1
					c0.1,0.1,0.1,0.2,0.2,0.3c0.2,0.2,0.4,0.4,0.6,0.6l0.3,0.3c0.3,0.3,0.7,0.6,1.1,0.9c0.1,0.1,0.3,0.2,0.4,0.3
					c0.3,0.2,0.5,0.3,0.8,0.5c0.9,0.5,1.8,0.8,2.7,1c0.3,0.1,0.6,0.1,0.9,0.1c0.7,0.1,1.4,0.1,2,0c0.5,0,1-0.1,1.4-0.3l0.2-0.1l0,0
					c0.7-0.2,1.4-0.5,2.1-0.8l0.2-0.1c0.1-0.1,0.2-0.1,0.3-0.2c1.8-1.1,3.2-2.7,4-4.7l0-0.1c0.5-1.2,0.8-2.5,0.8-3.8
					c0-0.2,0-0.3,0-0.5c0-0.2,0-0.3,0-0.5c0-0.2-0.1-0.5-0.1-0.7c0-0.2-0.1-0.4-0.1-0.5c-0.7-3.1-3-5.8-5.9-7
					c-0.4-0.2-0.7-0.3-1.1-0.4l0,0c-0.8-0.2-1.7-0.3-2.5-0.3c-2.7,0.1-5.5,1.6-7.2,4c-0.6,0.9-1.1,1.9-1.4,2.9l-0.9,3l0.2-3.1
					c0-0.3,0.1-0.7,0.2-1.1c0.1-0.7,0.3-1.4,0.6-2.1c1.1-2.6,3.1-4.7,5.7-5.8c-1.9-1.3-3.6-2.9-4.9-4.7l0.2-0.3l-0.3,0.2
					c-1.1-1.6-2-3.5-2.6-5.7c-0.4,1.8-1.2,3.6-2.5,5.5c-1,1.5-2.3,2.9-3.7,4c-1.2,0.9-2.5,1.7-3.8,2.4c-0.3,0.1-0.6,0.3-0.9,0.4
					c-0.6,0.2-1.1,0.4-1.7,0.5l-0.5,0.2c-0.1,0-0.2,0.1-0.4,0.1c-0.2,0-0.3,0.1-0.5,0.2c-0.4,0.1-0.7,0.3-1,0.4
					c-1.1,0.5-2.1,1.3-2.9,2.2c-0.4,0.4-0.7,0.8-0.9,1.2c-0.2,0.3-0.4,0.6-0.5,0.8c-0.1,0.1-0.1,0.3-0.2,0.4
					c-0.3,0.6-0.5,1.2-0.7,1.8c-0.1,0.5-0.2,1-0.3,1.5l0,0.2c0,0.2,0,0.5,0,0.9c0,1.3,0.3,2.6,0.8,3.8l0,0.1c0.8,1.9,2.2,3.6,4,4.7
					c0.1,0.1,0.2,0.1,0.2,0.1l0.2,0.1c0.7,0.4,1.5,0.7,2.3,0.9c0.5,0.1,1,0.2,1.5,0.3c1,0.1,1.9,0.1,2.9-0.1l0.4-0.1
					c0.2,0,0.4-0.1,0.5-0.1l0.4-0.1c0.1,0,0.3-0.1,0.4-0.1c0.3-0.1,0.6-0.2,0.9-0.4c0.2-0.1,0.4-0.2,0.6-0.4
					c0.1-0.1,0.1-0.1,0.1-0.1c0.3-0.2,0.6-0.4,0.9-0.7l0.3-0.3c0.1,0,0.1-0.1,0.2-0.1c0.1-0.1,0.1-0.1,0.2-0.2
					c0.3-0.2,0.5-0.5,0.7-0.8L149,73c0,0,0.1-0.1,0.1-0.1c0.3-0.4,0.6-0.8,0.8-1.2c0.5-0.9,0.9-1.8,1.1-2.9
					C151.2,68.2,151.3,67.5,151.3,66.8z"/>
			</g>
		</g>
		<g>
			<g>
				<path class="st3" d="M75.6,73.1c0,0.3,0,0.6,0,0.9c0.3,3.1,1.9,5.8,4.3,7.5c0.7,0.5,1.2,1.4,1.2,2.3v0H63.5v0
					c0-0.9,0.5-1.8,1.2-2.3c2.3-1.7,3.9-4.3,4.2-7.4c0-0.3,0.1-0.7,0.1-1c0-4-2.2-7.4-5.5-9.2v-3.6h11.1c-0.3,0.6-0.5,1.3-0.6,2
					C74,62.7,74,63,74,63.4c0.3-1.1,0.8-2.1,1.5-3.1h5.7V64C77.8,65.7,75.6,69.2,75.6,73.1z"/>
			</g>
			<g>
				<path class="st4" d="M81.1,84.2h-18v-0.4c0-1,0.5-2,1.4-2.6c2.3-1.7,3.8-4.3,4.1-7.1c0-0.3,0.1-0.7,0.1-1c0-3.7-2-7.1-5.3-8.8
					l-0.2-0.1V60h12.1l0,0.1l0.1-0.1h6.2v4.2l-0.2,0.1C78,66,76,69.4,76,73.1c0,0.3,0,0.6,0,0.9c0.2,2.9,1.7,5.5,4.1,7.3
					c0.9,0.6,1.4,1.6,1.4,2.6v0.4L81.1,84.2z M63.9,83.5h16.8c-0.1-0.7-0.5-1.2-1-1.7c-2.5-1.8-4.2-4.7-4.4-7.8c0-0.3,0-0.6,0-0.9
					c0-3.9,2.1-7.5,5.5-9.4v-3.1h-5.1c-0.6,0.8-1,1.8-1.3,2.8l-0.9,3.1l0.2-3.2c0-0.4,0.1-0.8,0.1-1.1c0.1-0.5,0.2-1.1,0.4-1.6H63.9
					v3.1c3.4,1.9,5.5,5.5,5.5,9.4c0,0.4,0,0.8-0.1,1.1c-0.3,3-1.9,5.8-4.4,7.6C64.4,82.3,64,82.9,63.9,83.5z"/>
			</g>
			<g>
				<path class="st3" d="M93.1,66.6c0,1.4-0.3,2.8-0.8,4c0,0,0,0,0,0c-0.8,2-2.3,3.7-4.2,4.8c-0.1,0.1-0.3,0.2-0.4,0.3
					c-0.7,0.4-1.5,0.7-2.3,0.9c0,0,0,0,0,0c-0.5,0.1-1,0.2-1.5,0.3c-0.4,0-0.7,0.1-1.1,0.1c-0.4,0-0.7,0-1-0.1h0
					c-0.3,0-0.7-0.1-1-0.1c-1-0.2-1.9-0.5-2.8-1c-0.3-0.1-0.6-0.3-0.8-0.5c-0.1-0.1-0.3-0.2-0.4-0.3c-0.4-0.3-0.8-0.6-1.1-0.9
					c-0.1-0.1-0.2-0.2-0.3-0.3c-0.2-0.2-0.4-0.4-0.6-0.7c-0.1-0.1-0.2-0.3-0.3-0.4c-0.2-0.3-0.4-0.5-0.6-0.8
					c-0.1-0.1-0.1-0.2-0.2-0.4c-0.2-0.3-0.3-0.7-0.5-1c-0.1-0.1-0.1-0.3-0.2-0.5c-0.1-0.2-0.1-0.3-0.2-0.5c0-0.1-0.1-0.2-0.1-0.3
					c0-0.1,0-0.1-0.1-0.2c-0.1-0.5-0.2-1-0.3-1.5c0-0.3,0-0.6,0-0.9c0,0.7-0.1,1.4-0.3,2.1c-0.2,1.1-0.6,2.1-1.2,3
					c-0.2,0.4-0.5,0.8-0.8,1.2c-0.1,0.1-0.1,0.2-0.2,0.3c-0.2,0.3-0.5,0.5-0.7,0.8c-0.1,0.1-0.1,0.1-0.2,0.2
					c-0.1,0.1-0.2,0.2-0.3,0.3c-0.1,0.1-0.2,0.1-0.2,0.2c-0.3,0.2-0.6,0.5-0.9,0.7c0,0-0.1,0.1-0.2,0.1c-0.2,0.1-0.5,0.3-0.7,0.4
					c-0.3,0.1-0.6,0.3-0.9,0.4c-0.1,0.1-0.3,0.1-0.4,0.2c-0.1,0-0.3,0.1-0.5,0.1c-0.2,0-0.4,0.1-0.6,0.1c-0.1,0-0.3,0-0.4,0.1
					c-0.6,0.1-1.3,0.2-2,0.2c-0.4,0-0.7,0-1.1-0.1c-0.5,0-1-0.1-1.5-0.3c-0.8-0.2-1.6-0.5-2.4-0.9c-0.1-0.1-0.3-0.2-0.4-0.3
					c-1.9-1.1-3.3-2.8-4.2-4.8c0,0,0,0,0,0c-0.5-1.2-0.8-2.6-0.8-4c0-0.3,0-0.7,0-1c0,0,0-0.1,0-0.1c0-0.5,0.1-1,0.3-1.5
					c0.2-0.7,0.4-1.3,0.7-1.9c0.1-0.1,0.1-0.3,0.2-0.4c0.2-0.3,0.3-0.6,0.5-0.9c0.3-0.4,0.6-0.8,1-1.2c0.9-0.9,1.9-1.7,3-2.3
					c0.3-0.2,0.7-0.3,1-0.4c0.1-0.1,0.3-0.1,0.5-0.2c0.2-0.1,0.3-0.1,0.5-0.2c0,0,0,0,0,0c0.7-0.2,1.4-0.4,2-0.6
					c0.3-0.1,0.6-0.2,0.9-0.4c1.3-0.6,2.6-1.4,3.7-2.3c1.4-1.1,2.6-2.5,3.6-3.9c1.2-1.7,2.2-3.7,2.5-5.8c0-0.1,0-0.3,0.1-0.4
					c0-0.1,0-0.5,0.2-0.5c0,0,0,0,0,0c0,0,0,0,0,0c0.2,0.3,0.2,0.7,0.3,1c0.6,2.1,1.4,4.1,2.7,5.9c0,0,0,0,0.1,0.1
					c1.4,2,3.3,3.8,5.4,5c-2.7,0.9-5,3.1-6.2,5.8c-0.3,0.6-0.4,1.3-0.6,2c-0.1,0.4-0.1,0.7-0.1,1.1c0.3-1.1,0.8-2.1,1.5-3
					c1.7-2.4,4.5-4.1,7.5-4.2c0.9,0,1.8,0.1,2.7,0.4c0,0,0,0,0,0c0.4,0.1,0.8,0.3,1.1,0.4c3.1,1.3,5.4,4.1,6.1,7.3
					c0,0.2,0.1,0.4,0.1,0.6c0,0.2,0.1,0.5,0.1,0.7c0,0.2,0,0.3,0,0.5C93.1,66.3,93.1,66.4,93.1,66.6z"/>
			</g>
			<g>
				<path class="st4" d="M82.7,77.4c-0.4,0-0.7,0-1.1-0.1c-0.4,0-0.7-0.1-1-0.2c-1-0.2-2-0.5-2.9-1c-0.3-0.1-0.6-0.3-0.9-0.5
					c-0.1-0.1-0.3-0.2-0.4-0.3c-0.4-0.3-0.8-0.6-1.1-0.9L75,74.1c-0.2-0.2-0.4-0.4-0.6-0.7c-0.1-0.1-0.1-0.2-0.2-0.3L74.1,73
					c-0.2-0.3-0.4-0.6-0.6-0.9c-0.1-0.1-0.1-0.2-0.2-0.3c-0.2-0.4-0.4-0.7-0.5-1.1c-0.1-0.1-0.1-0.3-0.2-0.4
					c-0.1-0.2-0.2-0.4-0.2-0.6c0-0.1-0.1-0.2-0.1-0.3c0,0,0-0.1,0-0.1c-0.2,0.9-0.6,1.8-1.1,2.6c-0.2,0.4-0.5,0.8-0.9,1.2
					c0,0.1-0.1,0.1-0.1,0.2l-0.1,0.1c-0.2,0.3-0.5,0.6-0.8,0.8c-0.1,0.1-0.1,0.1-0.2,0.2c-0.1,0.1-0.1,0.1-0.2,0.2L68.6,75
					c-0.3,0.3-0.7,0.5-1,0.7c0,0-0.1,0.1-0.2,0.1c-0.2,0.1-0.5,0.3-0.7,0.4c-0.3,0.1-0.6,0.3-0.9,0.4c-0.2,0.1-0.3,0.1-0.5,0.2
					L65,76.9c-0.2,0.1-0.4,0.1-0.6,0.2L64,77.2c-1.1,0.2-2.1,0.3-3.2,0.1c-0.5,0-1-0.1-1.6-0.3c-0.9-0.2-1.7-0.5-2.4-1l-0.2-0.1
					c-0.1-0.1-0.2-0.1-0.3-0.2c-1.9-1.1-3.4-2.9-4.3-4.9l0-0.1c-0.6-1.3-0.8-2.7-0.8-4.2c0-0.3,0-0.7,0-1c0.1-0.6,0.2-1.2,0.3-1.7
					c0.2-0.7,0.4-1.3,0.7-2c0.1-0.1,0.1-0.3,0.2-0.5c0.2-0.3,0.4-0.6,0.5-0.9c0.3-0.4,0.6-0.8,1-1.3c0.9-1,2-1.8,3.1-2.4
					c0.3-0.2,0.7-0.3,1.1-0.4c0.1-0.1,0.3-0.1,0.5-0.2c0.1,0,0.2-0.1,0.4-0.1l0.6-0.2c0.5-0.1,1.1-0.3,1.6-0.5
					c0.3-0.1,0.6-0.2,0.8-0.4c1.3-0.6,2.5-1.4,3.7-2.3c1.4-1.1,2.5-2.4,3.5-3.8c1.3-2,2.1-3.9,2.4-5.7c0-0.1,0-0.3,0.1-0.4
					c0-0.3,0-0.6,0.3-0.8l0.1-0.1l0.5,0v0.3c0.1,0.2,0.2,0.5,0.2,0.7c0,0.1,0,0.2,0.1,0.3c0.6,2.2,1.5,4.2,2.6,5.8l-0.2,0.3l0.3-0.2
					c1.4,2,3.2,3.7,5.3,4.9l0.7,0.4l-0.7,0.3c-2.6,0.9-4.6,2.8-5.8,5.2c1.9-2.6,4.8-4.2,7.7-4.3c0.9,0,1.8,0.1,2.7,0.4h0.1l0.1,0.1
					c0.4,0.1,0.7,0.3,1.1,0.4c3.2,1.4,5.6,4.2,6.4,7.5c0,0.2,0.1,0.4,0.1,0.6c0,0.2,0.1,0.5,0.1,0.7c0,0.2,0,0.3,0,0.5
					c0,0.2,0,0.3,0,0.5c0,1.4-0.3,2.9-0.8,4.2l0,0.1c-0.9,2-2.4,3.8-4.3,4.9c-0.1,0.1-0.2,0.1-0.3,0.2l-0.2,0.1
					c-0.8,0.4-1.6,0.7-2.4,1l-0.2,0.1l0,0c-0.4,0.1-0.9,0.2-1.4,0.2C83.5,77.3,83.1,77.4,82.7,77.4z M72,66.8l0.7,0
					c0,0.3,0,0.6,0,0.8c0.1,0.5,0.1,1,0.3,1.4c0,0.1,0,0.1,0,0.2l0,0.1c0,0.1,0,0.2,0.1,0.2c0,0.2,0.1,0.3,0.2,0.5l0,0.1
					c0,0.1,0.1,0.2,0.1,0.4c0.1,0.3,0.3,0.7,0.5,1c0.1,0.1,0.1,0.2,0.2,0.3c0.2,0.3,0.3,0.5,0.5,0.8l0.1,0.1
					c0.1,0.1,0.1,0.2,0.2,0.3c0.2,0.2,0.4,0.4,0.6,0.6l0.3,0.3c0.3,0.3,0.7,0.6,1.1,0.9c0.1,0.1,0.3,0.2,0.4,0.3
					c0.3,0.2,0.5,0.3,0.8,0.5c0.9,0.5,1.8,0.8,2.7,1c0.3,0.1,0.6,0.1,0.9,0.1c0.7,0.1,1.4,0.1,2,0c0.5,0,1-0.1,1.4-0.3l0.2-0.1l0,0
					c0.7-0.2,1.4-0.5,2.1-0.8l0.2-0.1c0.1-0.1,0.2-0.1,0.3-0.2c1.8-1.1,3.2-2.7,4-4.7l0-0.1c0.5-1.2,0.8-2.5,0.8-3.8
					c0-0.2,0-0.3,0-0.5c0-0.2,0-0.3,0-0.5c0-0.2-0.1-0.5-0.1-0.7c0-0.2-0.1-0.4-0.1-0.5c-0.7-3.1-3-5.8-5.9-7
					c-0.4-0.2-0.7-0.3-1.1-0.4l0,0c-0.8-0.2-1.7-0.3-2.5-0.3c-2.7,0.1-5.5,1.6-7.2,4c-0.6,0.9-1.1,1.9-1.4,2.9l-0.9,3l0.2-3.1
					c0-0.3,0.1-0.7,0.2-1.1c0.1-0.7,0.3-1.4,0.6-2.1c1.1-2.6,3.1-4.7,5.7-5.8c-1.9-1.3-3.6-2.9-4.9-4.7l0.2-0.3L75,49.7
					c-1.1-1.6-2-3.5-2.6-5.7c-0.4,1.8-1.2,3.6-2.5,5.5c-1,1.5-2.3,2.9-3.7,4c-1.2,0.9-2.5,1.7-3.8,2.4c-0.3,0.1-0.6,0.3-0.9,0.4
					c-0.6,0.2-1.1,0.4-1.7,0.5l-0.5,0.2C59.2,57,59.1,57,59,57c-0.2,0-0.3,0.1-0.5,0.2c-0.4,0.1-0.7,0.3-1,0.4
					c-1.1,0.5-2.1,1.3-2.9,2.2c-0.4,0.4-0.7,0.8-0.9,1.2c-0.2,0.3-0.4,0.6-0.5,0.8c-0.1,0.1-0.1,0.3-0.2,0.4
					c-0.3,0.6-0.5,1.2-0.7,1.8c-0.1,0.5-0.2,1-0.3,1.5l0,0.2c0,0.2,0,0.5,0,0.9c0,1.3,0.3,2.6,0.8,3.8l0,0.1c0.8,1.9,2.2,3.6,4,4.7
					c0.1,0.1,0.2,0.1,0.2,0.1l0.2,0.1c0.7,0.4,1.5,0.7,2.3,0.9c0.5,0.1,1,0.2,1.5,0.3c1,0.1,1.9,0.1,2.9-0.1l0.4-0.1
					c0.2,0,0.4-0.1,0.5-0.1l0.4-0.1c0.1,0,0.3-0.1,0.4-0.1c0.3-0.1,0.6-0.2,0.9-0.4c0.2-0.1,0.4-0.2,0.6-0.4
					c0.1-0.1,0.1-0.1,0.1-0.1c0.3-0.2,0.6-0.4,0.9-0.7l0.3-0.3c0.1,0,0.1-0.1,0.2-0.1c0.1-0.1,0.1-0.1,0.2-0.2
					c0.3-0.2,0.5-0.5,0.7-0.8l0.1-0.1c0,0,0.1-0.1,0.1-0.1c0.3-0.4,0.6-0.8,0.8-1.2c0.5-0.9,0.9-1.8,1.1-2.9
					C71.9,68.2,72,67.5,72,66.8z"/>
			</g>
		</g>
		<g>
			<g>
				<path class="st3" d="M154.9,137.4c0,0.3,0,0.6,0,0.9c0.3,3.1,1.9,5.8,4.3,7.5c0.7,0.5,1.2,1.4,1.2,2.3v0h-17.6v0
					c0-0.9,0.5-1.8,1.2-2.3c2.3-1.7,3.9-4.3,4.2-7.4c0-0.3,0.1-0.7,0.1-1c0-4-2.2-7.4-5.5-9.2v-3.6H154c-0.3,0.6-0.5,1.3-0.6,2
					c-0.1,0.4-0.1,0.7-0.1,1.1c0.3-1.1,0.8-2.1,1.5-3.1h5.7v3.6C157.2,129.9,154.9,133.4,154.9,137.4z"/>
			</g>
			<g>
				<path class="st4" d="M160.5,148.5h-18v-0.4c0-1,0.5-2,1.4-2.6c2.3-1.7,3.8-4.3,4.1-7.1c0-0.3,0.1-0.7,0.1-1c0-3.7-2-7.1-5.3-8.8
					l-0.2-0.1v-4.2h12.1l0,0.1l0.1-0.1h6.2v4.2l-0.2,0.1c-3.3,1.7-5.3,5.1-5.3,8.8c0,0.3,0,0.6,0,0.9c0.2,2.9,1.7,5.5,4.1,7.3
					c0.9,0.6,1.4,1.6,1.4,2.6v0.4L160.5,148.5z M143.3,147.7h16.8c-0.1-0.7-0.5-1.2-1-1.7c-2.5-1.8-4.2-4.7-4.4-7.8
					c0-0.3,0-0.6,0-0.9c0-3.9,2.1-7.5,5.5-9.4v-3.1H155c-0.6,0.8-1,1.8-1.3,2.8l-0.9,3.1l0.2-3.2c0-0.4,0.1-0.8,0.1-1.1
					c0.1-0.5,0.2-1.1,0.4-1.6h-10.2v3.1c3.4,1.9,5.5,5.5,5.5,9.4c0,0.4,0,0.8-0.1,1.1c-0.3,3-1.9,5.8-4.4,7.6
					C143.7,146.5,143.4,147.1,143.3,147.7z"/>
			</g>
			<g>
				<path class="st3" d="M172.4,130.8c0,1.4-0.3,2.8-0.8,4c0,0,0,0,0,0c-0.8,2-2.3,3.7-4.2,4.8c-0.1,0.1-0.3,0.2-0.4,0.3
					c-0.7,0.4-1.5,0.7-2.3,0.9c0,0,0,0,0,0c-0.5,0.1-1,0.2-1.5,0.3c-0.4,0-0.7,0.1-1.1,0.1c-0.4,0-0.7,0-1-0.1h0
					c-0.3,0-0.7-0.1-1-0.1c-1-0.2-1.9-0.5-2.8-1c-0.3-0.1-0.6-0.3-0.8-0.5c-0.1-0.1-0.3-0.2-0.4-0.3c-0.4-0.3-0.8-0.6-1.1-0.9
					c-0.1-0.1-0.2-0.2-0.3-0.3c-0.2-0.2-0.4-0.4-0.6-0.7c-0.1-0.1-0.2-0.3-0.3-0.4c-0.2-0.3-0.4-0.5-0.6-0.8
					c-0.1-0.1-0.1-0.2-0.2-0.4c-0.2-0.3-0.3-0.7-0.5-1c-0.1-0.1-0.1-0.3-0.2-0.5c-0.1-0.2-0.1-0.3-0.2-0.5c0-0.1-0.1-0.2-0.1-0.3
					c0-0.1,0-0.1-0.1-0.2c-0.1-0.5-0.2-1-0.3-1.5c0-0.3,0-0.6,0-0.9c0,0.7-0.1,1.4-0.3,2.1c-0.2,1.1-0.6,2.1-1.2,3
					c-0.2,0.4-0.5,0.8-0.8,1.2c-0.1,0.1-0.1,0.2-0.2,0.3c-0.2,0.3-0.5,0.5-0.7,0.8c-0.1,0.1-0.1,0.1-0.2,0.2
					c-0.1,0.1-0.2,0.2-0.3,0.3c-0.1,0.1-0.2,0.1-0.2,0.2c-0.3,0.2-0.6,0.5-0.9,0.7c0,0-0.1,0.1-0.2,0.1c-0.2,0.1-0.5,0.3-0.7,0.4
					c-0.3,0.1-0.6,0.3-0.9,0.4c-0.1,0.1-0.3,0.1-0.4,0.2c-0.1,0-0.3,0.1-0.5,0.1c-0.2,0-0.4,0.1-0.6,0.1c-0.1,0-0.3,0-0.4,0.1
					c-0.6,0.1-1.3,0.2-2,0.2c-0.4,0-0.7,0-1.1-0.1c-0.5,0-1-0.1-1.5-0.3c-0.8-0.2-1.6-0.5-2.4-0.9c-0.1-0.1-0.3-0.2-0.4-0.3
					c-1.9-1.1-3.3-2.8-4.2-4.8c0,0,0,0,0,0c-0.5-1.2-0.8-2.6-0.8-4c0-0.3,0-0.7,0-1c0,0,0-0.1,0-0.1c0-0.5,0.1-1,0.3-1.5
					c0.2-0.7,0.4-1.3,0.7-1.9c0.1-0.1,0.1-0.3,0.2-0.4c0.2-0.3,0.3-0.6,0.5-0.9c0.3-0.4,0.6-0.8,1-1.2c0.9-0.9,1.9-1.7,3-2.3
					c0.3-0.2,0.7-0.3,1-0.4c0.1-0.1,0.3-0.1,0.5-0.2c0.2-0.1,0.3-0.1,0.5-0.2c0,0,0,0,0,0c0.7-0.2,1.4-0.4,2-0.6
					c0.3-0.1,0.6-0.2,0.9-0.4c1.3-0.6,2.6-1.4,3.7-2.3c1.4-1.1,2.6-2.5,3.6-3.9c1.2-1.7,2.2-3.7,2.5-5.8c0-0.1,0-0.3,0.1-0.4
					c0-0.1,0-0.5,0.2-0.5c0,0,0,0,0,0c0,0,0,0,0,0c0.2,0.3,0.2,0.7,0.3,1c0.6,2.1,1.4,4.1,2.7,5.9c0,0,0,0,0.1,0.1
					c1.4,2,3.3,3.8,5.4,5c-2.7,0.9-5,3.1-6.2,5.8c-0.3,0.6-0.4,1.3-0.6,2c-0.1,0.4-0.1,0.7-0.1,1.1c0.3-1.1,0.8-2.1,1.5-3
					c1.7-2.4,4.5-4.1,7.5-4.2c0.9,0,1.8,0.1,2.7,0.4c0,0,0,0,0,0c0.4,0.1,0.8,0.3,1.1,0.4c3.1,1.3,5.4,4.1,6.1,7.3
					c0,0.2,0.1,0.4,0.1,0.6c0,0.2,0.1,0.5,0.1,0.7c0,0.2,0,0.3,0,0.5C172.4,130.5,172.4,130.7,172.4,130.8z"/>
			</g>
			<g>
				<path class="st4" d="M162,141.6c-0.4,0-0.7,0-1.1-0.1c-0.4,0-0.7-0.1-1-0.2c-1-0.2-2-0.5-2.9-1c-0.3-0.1-0.6-0.3-0.9-0.5
					c-0.1-0.1-0.3-0.2-0.4-0.3c-0.4-0.3-0.8-0.6-1.1-0.9l-0.3-0.3c-0.2-0.2-0.4-0.4-0.6-0.7c-0.1-0.1-0.1-0.2-0.2-0.3l-0.1-0.1
					c-0.2-0.3-0.4-0.6-0.6-0.9c-0.1-0.1-0.1-0.2-0.2-0.3c-0.2-0.4-0.4-0.7-0.5-1.1c-0.1-0.1-0.1-0.3-0.2-0.4
					c-0.1-0.2-0.2-0.4-0.2-0.6c0-0.1-0.1-0.2-0.1-0.3c0,0,0-0.1,0-0.1c-0.2,0.9-0.6,1.8-1.1,2.6c-0.2,0.4-0.5,0.8-0.9,1.2
					c0,0.1-0.1,0.1-0.1,0.2l-0.1,0.1c-0.2,0.3-0.5,0.6-0.8,0.8c-0.1,0.1-0.1,0.1-0.2,0.2c-0.1,0.1-0.1,0.1-0.2,0.2l-0.4,0.3
					c-0.3,0.3-0.7,0.5-1,0.7c0,0-0.1,0.1-0.2,0.1c-0.2,0.1-0.5,0.3-0.7,0.4c-0.3,0.1-0.6,0.3-0.9,0.4c-0.2,0.1-0.3,0.1-0.5,0.2
					l-0.5,0.1c-0.2,0.1-0.4,0.1-0.6,0.2l-0.4,0.1c-1.1,0.2-2.1,0.3-3.2,0.1c-0.5,0-1-0.1-1.6-0.3c-0.9-0.2-1.7-0.5-2.4-1l-0.2-0.1
					c-0.1-0.1-0.2-0.1-0.3-0.2c-1.9-1.1-3.4-2.9-4.3-4.9l0-0.1c-0.6-1.3-0.8-2.7-0.8-4.2c0-0.3,0-0.7,0-1c0.1-0.6,0.2-1.2,0.3-1.7
					c0.2-0.7,0.4-1.3,0.7-2c0.1-0.1,0.1-0.3,0.2-0.5c0.2-0.3,0.4-0.6,0.5-0.9c0.3-0.4,0.6-0.8,1-1.3c0.9-1,2-1.8,3.1-2.4
					c0.3-0.2,0.7-0.3,1.1-0.4c0.1-0.1,0.3-0.1,0.5-0.2c0.1,0,0.2-0.1,0.4-0.1l0.6-0.2c0.5-0.1,1.1-0.3,1.6-0.5
					c0.3-0.1,0.6-0.2,0.8-0.4c1.3-0.6,2.5-1.4,3.7-2.3c1.4-1.1,2.5-2.4,3.5-3.8c1.3-2,2.1-3.9,2.4-5.7c0-0.1,0-0.3,0.1-0.4
					c0-0.3,0-0.6,0.3-0.8l0.1-0.1l0.5,0v0.3c0.1,0.2,0.2,0.5,0.2,0.7c0,0.1,0,0.2,0.1,0.3c0.6,2.2,1.5,4.2,2.6,5.8l-0.2,0.3l0.3-0.2
					c1.4,2,3.2,3.7,5.3,4.9l0.7,0.4l-0.7,0.3c-2.6,0.9-4.6,2.8-5.8,5.2c1.9-2.6,4.8-4.2,7.7-4.3c0.9,0,1.8,0.1,2.7,0.4h0.1l0.1,0.1
					c0.4,0.1,0.7,0.3,1.1,0.4c3.2,1.4,5.6,4.2,6.4,7.5c0,0.2,0.1,0.4,0.1,0.6c0,0.2,0.1,0.5,0.1,0.7c0,0.2,0,0.3,0,0.5
					c0,0.2,0,0.3,0,0.5c0,1.4-0.3,2.9-0.8,4.2l0,0.1c-0.9,2-2.4,3.8-4.3,4.9c-0.1,0.1-0.2,0.1-0.3,0.2l-0.2,0.1
					c-0.8,0.4-1.6,0.7-2.4,1l-0.2,0.1l0,0c-0.4,0.1-0.9,0.2-1.4,0.2C162.8,141.6,162.4,141.6,162,141.6z M151.3,131l0.7,0
					c0,0.3,0,0.6,0,0.8c0.1,0.5,0.1,1,0.3,1.4c0,0.1,0,0.1,0,0.2l0,0.1c0,0.1,0,0.2,0.1,0.2c0,0.2,0.1,0.3,0.2,0.5l0,0.1
					c0,0.1,0.1,0.2,0.1,0.4c0.1,0.3,0.3,0.7,0.5,1c0.1,0.1,0.1,0.2,0.2,0.3c0.2,0.3,0.3,0.5,0.5,0.8l0.1,0.1
					c0.1,0.1,0.1,0.2,0.2,0.3c0.2,0.2,0.4,0.4,0.6,0.6l0.3,0.3c0.3,0.3,0.7,0.6,1.1,0.9c0.1,0.1,0.3,0.2,0.4,0.3
					c0.3,0.2,0.5,0.3,0.8,0.5c0.9,0.5,1.8,0.8,2.7,1c0.3,0.1,0.6,0.1,0.9,0.1c0.7,0.1,1.4,0.1,2,0c0.5,0,1-0.1,1.4-0.3l0.2-0.1l0,0
					c0.7-0.2,1.4-0.5,2.1-0.8l0.2-0.1c0.1-0.1,0.2-0.1,0.3-0.2c1.8-1.1,3.2-2.7,4-4.7l0-0.1c0.5-1.2,0.8-2.5,0.8-3.8
					c0-0.2,0-0.3,0-0.5c0-0.2,0-0.3,0-0.5c0-0.2-0.1-0.5-0.1-0.7c0-0.2-0.1-0.4-0.1-0.5c-0.7-3.1-3-5.8-5.9-7
					c-0.4-0.2-0.7-0.3-1.1-0.4l0,0c-0.8-0.2-1.7-0.3-2.5-0.3c-2.7,0.1-5.5,1.6-7.2,4c-0.6,0.9-1.1,1.9-1.4,2.9l-0.9,3l0.2-3.1
					c0-0.3,0.1-0.7,0.2-1.1c0.1-0.7,0.3-1.4,0.6-2.1c1.1-2.6,3.1-4.7,5.7-5.8c-1.9-1.3-3.6-2.9-4.9-4.7l0.2-0.3l-0.3,0.2
					c-1.1-1.6-2-3.5-2.6-5.7c-0.4,1.8-1.2,3.6-2.5,5.5c-1,1.5-2.3,2.9-3.7,4c-1.2,0.9-2.5,1.7-3.8,2.4c-0.3,0.1-0.6,0.3-0.9,0.4
					c-0.6,0.2-1.1,0.4-1.7,0.5l-0.5,0.2c-0.1,0-0.2,0.1-0.4,0.1c-0.2,0-0.3,0.1-0.5,0.2c-0.4,0.1-0.7,0.3-1,0.4
					c-1.1,0.5-2.1,1.3-2.9,2.2c-0.4,0.4-0.7,0.8-0.9,1.2c-0.2,0.3-0.4,0.6-0.5,0.8c-0.1,0.1-0.1,0.3-0.2,0.4
					c-0.3,0.6-0.5,1.2-0.7,1.8c-0.1,0.5-0.2,1-0.3,1.5l0,0.2c0,0.2,0,0.5,0,0.9c0,1.3,0.3,2.6,0.8,3.8l0,0.1c0.8,1.9,2.2,3.6,4,4.7
					c0.1,0.1,0.2,0.1,0.2,0.1l0.2,0.1c0.7,0.4,1.5,0.7,2.3,0.9c0.5,0.1,1,0.2,1.5,0.3c1,0.1,1.9,0.1,2.9-0.1l0.4-0.1
					c0.2,0,0.4-0.1,0.5-0.1l0.4-0.1c0.1,0,0.3-0.1,0.4-0.1c0.3-0.1,0.6-0.2,0.9-0.4c0.2-0.1,0.4-0.2,0.6-0.4
					c0.1-0.1,0.1-0.1,0.1-0.1c0.3-0.2,0.6-0.4,0.9-0.7l0.3-0.3c0.1,0,0.1-0.1,0.2-0.1c0.1-0.1,0.1-0.1,0.2-0.2
					c0.3-0.2,0.5-0.5,0.7-0.8l0.1-0.1c0,0,0.1-0.1,0.1-0.1c0.3-0.4,0.6-0.8,0.8-1.2c0.5-0.9,0.9-1.8,1.1-2.9
					C151.2,132.4,151.3,131.8,151.3,131z"/>
			</g>
		</g>
		<g>
			<g>
				<path class="st3" d="M108.5,94.6c0-0.3,0-0.6,0-0.9c-0.3-3.1-1.9-5.8-4.3-7.5c-0.7-0.5-1.2-1.4-1.2-2.3v0h17.6v0
					c0,0.9-0.5,1.8-1.2,2.3c-2.3,1.7-3.9,4.3-4.2,7.4c0,0.3-0.1,0.7-0.1,1c0,4,2.2,7.4,5.5,9.2v3.6h-11.1c0.3-0.6,0.5-1.3,0.6-2
					c0.1-0.4,0.1-0.7,0.1-1.1c-0.3,1.1-0.8,2.1-1.5,3.1H103v-3.6C106.3,102,108.5,98.6,108.5,94.6z"/>
			</g>
			<g>
				<path class="st4" d="M103,83.5h18v0.4c0,1-0.5,2-1.4,2.6c-2.3,1.7-3.8,4.3-4.1,7.1c0,0.3-0.1,0.7-0.1,1c0,3.7,2,7.1,5.3,8.8
					l0.2,0.1v4.2h-12.1l0-0.1l-0.1,0.1h-6.2v-4.2l0.2-0.1c3.3-1.7,5.3-5.1,5.3-8.8c0-0.3,0-0.6,0-0.9c-0.2-2.9-1.7-5.5-4.1-7.3
					c-0.9-0.6-1.4-1.6-1.4-2.6v-0.4L103,83.5z M120.2,84.2h-16.8c0.1,0.7,0.5,1.2,1,1.7c2.5,1.8,4.2,4.7,4.4,7.8c0,0.3,0,0.6,0,0.9
					c0,3.9-2.1,7.5-5.5,9.4v3.1h5.1c0.6-0.8,1-1.8,1.3-2.8l0.9-3.1l-0.2,3.2c0,0.4-0.1,0.8-0.1,1.1c-0.1,0.5-0.2,1.1-0.4,1.6h10.2
					V104c-3.4-1.9-5.5-5.5-5.5-9.4c0-0.4,0-0.8,0.1-1.1c0.3-3,1.9-5.8,4.4-7.6C119.7,85.5,120.1,84.9,120.2,84.2z"/>
			</g>
			<g>
				<path class="st3" d="M91,101.1c0-1.4,0.3-2.8,0.8-4c0,0,0,0,0,0c0.8-2,2.3-3.7,4.2-4.8c0.1-0.1,0.3-0.2,0.4-0.3
					c0.7-0.4,1.5-0.7,2.3-0.9c0,0,0,0,0,0c0.5-0.1,1-0.2,1.5-0.3c0.4,0,0.7-0.1,1.1-0.1c0.4,0,0.7,0,1,0.1h0c0.3,0,0.7,0.1,1,0.1
					c1,0.2,1.9,0.5,2.8,1c0.3,0.1,0.6,0.3,0.8,0.5c0.1,0.1,0.3,0.2,0.4,0.3c0.4,0.3,0.8,0.6,1.1,0.9c0.1,0.1,0.2,0.2,0.3,0.3
					c0.2,0.2,0.4,0.4,0.6,0.7c0.1,0.1,0.2,0.3,0.3,0.4c0.2,0.3,0.4,0.5,0.6,0.8c0.1,0.1,0.1,0.2,0.2,0.4c0.2,0.3,0.3,0.7,0.5,1
					c0.1,0.1,0.1,0.3,0.2,0.5c0.1,0.2,0.1,0.3,0.2,0.5c0,0.1,0.1,0.2,0.1,0.3c0,0.1,0,0.1,0.1,0.2c0.1,0.5,0.2,1,0.3,1.5
					c0,0.3,0,0.6,0,0.9c0-0.7,0.1-1.4,0.3-2.1c0.2-1.1,0.6-2.1,1.2-3c0.2-0.4,0.5-0.8,0.8-1.2c0.1-0.1,0.1-0.2,0.2-0.3
					c0.2-0.3,0.5-0.5,0.7-0.8c0.1-0.1,0.1-0.1,0.2-0.2c0.1-0.1,0.2-0.2,0.3-0.3c0.1-0.1,0.2-0.1,0.2-0.2c0.3-0.2,0.6-0.5,0.9-0.7
					c0,0,0.1-0.1,0.2-0.1c0.2-0.1,0.5-0.3,0.7-0.4c0.3-0.1,0.6-0.3,0.9-0.4c0.1-0.1,0.3-0.1,0.4-0.2c0.1,0,0.3-0.1,0.5-0.1
					c0.2,0,0.4-0.1,0.6-0.1c0.1,0,0.3,0,0.4-0.1c0.6-0.1,1.3-0.2,2-0.2c0.4,0,0.7,0,1.1,0.1c0.5,0,1,0.1,1.5,0.3
					c0.8,0.2,1.6,0.5,2.4,0.9c0.1,0.1,0.3,0.2,0.4,0.3c1.9,1.1,3.3,2.8,4.2,4.8c0,0,0,0,0,0c0.5,1.2,0.8,2.6,0.8,4c0,0.3,0,0.7,0,1
					c0,0,0,0.1,0,0.1c0,0.5-0.1,1-0.3,1.5c-0.2,0.7-0.4,1.3-0.7,1.9c-0.1,0.1-0.1,0.3-0.2,0.4c-0.2,0.3-0.3,0.6-0.5,0.9
					c-0.3,0.4-0.6,0.8-1,1.2c-0.9,0.9-1.9,1.7-3,2.3c-0.3,0.2-0.7,0.3-1,0.4c-0.1,0.1-0.3,0.1-0.5,0.2c-0.2,0.1-0.3,0.1-0.5,0.2
					c0,0,0,0,0,0c-0.7,0.2-1.4,0.4-2,0.6c-0.3,0.1-0.6,0.2-0.9,0.4c-1.3,0.6-2.6,1.4-3.7,2.3c-1.4,1.1-2.6,2.5-3.6,3.9
					c-1.2,1.7-2.2,3.7-2.5,5.8c0,0.1,0,0.3-0.1,0.4c0,0.1,0,0.5-0.2,0.5c0,0,0,0,0,0c0,0,0,0,0,0c-0.2-0.3-0.2-0.7-0.3-1
					c-0.6-2.1-1.4-4.1-2.7-5.9c0,0,0,0-0.1-0.1c-1.4-2-3.3-3.8-5.4-5c2.7-0.9,5-3.1,6.2-5.8c0.3-0.6,0.4-1.3,0.6-2
					c0.1-0.4,0.1-0.7,0.1-1.1c-0.3,1.1-0.8,2.1-1.5,3c-1.7,2.4-4.5,4.1-7.5,4.2c-0.9,0-1.8-0.1-2.7-0.4c0,0,0,0,0,0
					c-0.4-0.1-0.8-0.3-1.1-0.4c-3.1-1.3-5.4-4.1-6.1-7.3c0-0.2-0.1-0.4-0.1-0.6c0-0.2-0.1-0.5-0.1-0.7c0-0.2,0-0.3,0-0.5
					C91,101.5,91,101.3,91,101.1z"/>
			</g>
			<g>
				<path class="st4" d="M101.4,90.4c0.4,0,0.7,0,1.1,0.1c0.4,0,0.7,0.1,1,0.2c1,0.2,2,0.5,2.9,1c0.3,0.1,0.6,0.3,0.9,0.5
					c0.1,0.1,0.3,0.2,0.4,0.3c0.4,0.3,0.8,0.6,1.1,0.9l0.3,0.3c0.2,0.2,0.4,0.4,0.6,0.7c0.1,0.1,0.1,0.2,0.2,0.3l0.1,0.1
					c0.2,0.3,0.4,0.6,0.6,0.9c0.1,0.1,0.1,0.2,0.2,0.3c0.2,0.4,0.4,0.7,0.5,1.1c0.1,0.1,0.1,0.3,0.2,0.4c0.1,0.2,0.2,0.4,0.2,0.6
					c0,0.1,0.1,0.2,0.1,0.3c0,0,0,0.1,0,0.1c0.2-0.9,0.6-1.8,1.1-2.6c0.2-0.4,0.5-0.8,0.9-1.2c0-0.1,0.1-0.1,0.1-0.2l0.1-0.1
					c0.2-0.3,0.5-0.6,0.8-0.8c0.1-0.1,0.1-0.1,0.2-0.2c0.1-0.1,0.1-0.1,0.2-0.2l0.4-0.3c0.3-0.3,0.7-0.5,1-0.7c0,0,0.1-0.1,0.2-0.1
					c0.2-0.1,0.5-0.3,0.7-0.4c0.3-0.1,0.6-0.3,0.9-0.4c0.2-0.1,0.3-0.1,0.5-0.2l0.5-0.1c0.2-0.1,0.4-0.1,0.6-0.2l0.4-0.1
					c1.1-0.2,2.1-0.3,3.2-0.1c0.5,0,1,0.1,1.6,0.3c0.9,0.2,1.7,0.5,2.4,1l0.2,0.1c0.1,0.1,0.2,0.1,0.3,0.2c1.9,1.1,3.4,2.9,4.3,4.9
					l0,0.1c0.6,1.3,0.8,2.7,0.8,4.2c0,0.3,0,0.7,0,1c-0.1,0.6-0.2,1.2-0.3,1.7c-0.2,0.7-0.4,1.3-0.7,2c-0.1,0.1-0.1,0.3-0.2,0.5
					c-0.2,0.3-0.4,0.6-0.5,0.9c-0.3,0.4-0.6,0.8-1,1.3c-0.9,1-2,1.8-3.1,2.4c-0.3,0.2-0.7,0.3-1.1,0.4c-0.1,0.1-0.3,0.1-0.5,0.2
					c-0.1,0-0.2,0.1-0.4,0.1l-0.6,0.2c-0.5,0.1-1.1,0.3-1.6,0.5c-0.3,0.1-0.6,0.2-0.8,0.4c-1.3,0.6-2.5,1.4-3.7,2.3
					c-1.4,1.1-2.5,2.4-3.5,3.8c-1.3,2-2.1,3.9-2.4,5.7c0,0.1,0,0.3-0.1,0.4c0,0.3,0,0.6-0.3,0.8l-0.1,0.1l-0.5,0v-0.3
					c-0.1-0.2-0.2-0.5-0.2-0.7c0-0.1,0-0.2-0.1-0.3c-0.6-2.2-1.5-4.2-2.6-5.8l0.2-0.3l-0.3,0.2c-1.4-2-3.2-3.7-5.3-4.9l-0.7-0.4
					l0.7-0.3c2.6-0.9,4.6-2.8,5.8-5.2c-1.9,2.6-4.8,4.2-7.7,4.3c-0.9,0-1.8-0.1-2.7-0.4h-0.1l-0.1-0.1c-0.4-0.1-0.7-0.3-1.1-0.4
					c-3.2-1.4-5.6-4.2-6.4-7.5c0-0.2-0.1-0.4-0.1-0.6c0-0.2-0.1-0.5-0.1-0.7c0-0.2,0-0.3,0-0.5c0-0.2,0-0.3,0-0.5
					c0-1.4,0.3-2.9,0.8-4.2l0-0.1c0.9-2,2.4-3.8,4.3-4.9c0.1-0.1,0.2-0.1,0.3-0.2l0.2-0.1c0.8-0.4,1.6-0.7,2.4-1l0.2-0.1l0,0
					c0.4-0.1,0.9-0.2,1.4-0.2C100.7,90.4,101,90.4,101.4,90.4z M112.1,100.9l-0.7,0c0-0.3,0-0.6,0-0.8c-0.1-0.5-0.1-1-0.3-1.4
					c0-0.1,0-0.1,0-0.2l0-0.1c0-0.1,0-0.2-0.1-0.2c0-0.2-0.1-0.3-0.2-0.5l0-0.1c0-0.1-0.1-0.2-0.1-0.4c-0.1-0.3-0.3-0.7-0.5-1
					c-0.1-0.1-0.1-0.2-0.2-0.3c-0.2-0.3-0.3-0.5-0.5-0.8l-0.1-0.1c-0.1-0.1-0.1-0.2-0.2-0.3c-0.2-0.2-0.4-0.4-0.6-0.6l-0.3-0.3
					c-0.3-0.3-0.7-0.6-1.1-0.9c-0.1-0.1-0.3-0.2-0.4-0.3c-0.3-0.2-0.5-0.3-0.8-0.5c-0.9-0.5-1.8-0.8-2.7-1c-0.3-0.1-0.6-0.1-0.9-0.1
					c-0.7-0.1-1.4-0.1-2,0c-0.5,0-1,0.1-1.4,0.3l-0.2,0.1l0,0c-0.7,0.2-1.4,0.5-2.1,0.8l-0.2,0.1c-0.1,0.1-0.2,0.1-0.3,0.2
					c-1.8,1.1-3.2,2.7-4,4.7l0,0.1c-0.5,1.2-0.8,2.5-0.8,3.8c0,0.2,0,0.3,0,0.5c0,0.2,0,0.3,0,0.5c0,0.2,0.1,0.5,0.1,0.7
					c0,0.2,0.1,0.4,0.1,0.5c0.7,3.1,3,5.8,5.9,7c0.4,0.2,0.7,0.3,1.1,0.4l0,0c0.8,0.2,1.7,0.3,2.5,0.3c2.7-0.1,5.5-1.6,7.2-4
					c0.6-0.9,1.1-1.9,1.4-2.9l0.9-3l-0.2,3.1c0,0.3-0.1,0.7-0.2,1.1c-0.1,0.7-0.3,1.4-0.6,2.1c-1.1,2.6-3.1,4.7-5.7,5.8
					c1.9,1.3,3.6,2.9,4.9,4.7l-0.2,0.3l0.3-0.2c1.1,1.6,2,3.5,2.6,5.7c0.4-1.8,1.2-3.6,2.5-5.5c1-1.5,2.3-2.9,3.7-4
					c1.2-0.9,2.5-1.7,3.8-2.4c0.3-0.1,0.6-0.3,0.9-0.4c0.6-0.2,1.1-0.4,1.7-0.5l0.5-0.2c0.1,0,0.2-0.1,0.4-0.1
					c0.2,0,0.3-0.1,0.5-0.2c0.4-0.1,0.7-0.3,1-0.4c1.1-0.5,2.1-1.3,2.9-2.2c0.4-0.4,0.7-0.8,0.9-1.2c0.2-0.3,0.4-0.6,0.5-0.8
					c0.1-0.1,0.1-0.3,0.2-0.4c0.3-0.6,0.5-1.2,0.7-1.8c0.1-0.5,0.2-1,0.3-1.5l0-0.2c0-0.2,0-0.5,0-0.9c0-1.3-0.3-2.6-0.8-3.8l0-0.1
					c-0.8-1.9-2.2-3.6-4-4.7c-0.1-0.1-0.2-0.1-0.2-0.1l-0.2-0.1c-0.7-0.4-1.5-0.7-2.3-0.9c-0.5-0.1-1-0.2-1.5-0.3
					c-1-0.1-1.9-0.1-2.9,0.1l-0.4,0.1c-0.2,0-0.4,0.1-0.5,0.1l-0.4,0.1c-0.1,0-0.3,0.1-0.4,0.1c-0.3,0.1-0.6,0.2-0.9,0.4
					c-0.2,0.1-0.4,0.2-0.6,0.4c-0.1,0.1-0.1,0.1-0.1,0.1c-0.3,0.2-0.6,0.4-0.9,0.7l-0.3,0.3c-0.1,0-0.1,0.1-0.2,0.1
					c-0.1,0.1-0.1,0.1-0.2,0.2c-0.3,0.2-0.5,0.5-0.7,0.8l-0.1,0.1c0,0-0.1,0.1-0.1,0.1c-0.3,0.4-0.6,0.8-0.8,1.2
					c-0.5,0.9-0.9,1.8-1.1,2.9C112.2,99.5,112.2,100.2,112.1,100.9z"/>
			</g>
		</g>
		<g>
			<g>
				<path class="st3" d="M75.6,137.4c0,0.3,0,0.6,0,0.9c0.3,3.1,1.9,5.8,4.3,7.5c0.7,0.5,1.2,1.4,1.2,2.3v0H63.5v0
					c0-0.9,0.5-1.8,1.2-2.3c2.3-1.7,3.9-4.3,4.2-7.4c0-0.3,0.1-0.7,0.1-1c0-4-2.2-7.4-5.5-9.2v-3.6h11.1c-0.3,0.6-0.5,1.3-0.6,2
					c-0.1,0.4-0.1,0.7-0.1,1.1c0.3-1.1,0.8-2.1,1.5-3.1h5.7v3.6C77.8,129.9,75.6,133.4,75.6,137.4z"/>
			</g>
			<g>
				<path class="st4" d="M81.1,148.5h-18v-0.4c0-1,0.5-2,1.4-2.6c2.3-1.7,3.8-4.3,4.1-7.1c0-0.3,0.1-0.7,0.1-1c0-3.7-2-7.1-5.3-8.8
					l-0.2-0.1v-4.2h12.1l0,0.1l0.1-0.1h6.2v4.2l-0.2,0.1c-3.3,1.7-5.3,5.1-5.3,8.8c0,0.3,0,0.6,0,0.9c0.2,2.9,1.7,5.5,4.1,7.3
					c0.9,0.6,1.4,1.6,1.4,2.6v0.4L81.1,148.5z M63.9,147.7h16.8c-0.1-0.7-0.5-1.2-1-1.7c-2.5-1.8-4.2-4.7-4.4-7.8c0-0.3,0-0.6,0-0.9
					c0-3.9,2.1-7.5,5.5-9.4v-3.1h-5.1c-0.6,0.8-1,1.8-1.3,2.8l-0.9,3.1l0.2-3.2c0-0.4,0.1-0.8,0.1-1.1c0.1-0.5,0.2-1.1,0.4-1.6H63.9
					v3.1c3.4,1.9,5.5,5.5,5.5,9.4c0,0.4,0,0.8-0.1,1.1c-0.3,3-1.9,5.8-4.4,7.6C64.4,146.5,64,147.1,63.9,147.7z"/>
			</g>
			<g>
				<path class="st3" d="M93.1,130.8c0,1.4-0.3,2.8-0.8,4c0,0,0,0,0,0c-0.8,2-2.3,3.7-4.2,4.8c-0.1,0.1-0.3,0.2-0.4,0.3
					c-0.7,0.4-1.5,0.7-2.3,0.9c0,0,0,0,0,0c-0.5,0.1-1,0.2-1.5,0.3c-0.4,0-0.7,0.1-1.1,0.1c-0.4,0-0.7,0-1-0.1h0
					c-0.3,0-0.7-0.1-1-0.1c-1-0.2-1.9-0.5-2.8-1c-0.3-0.1-0.6-0.3-0.8-0.5c-0.1-0.1-0.3-0.2-0.4-0.3c-0.4-0.3-0.8-0.6-1.1-0.9
					c-0.1-0.1-0.2-0.2-0.3-0.3c-0.2-0.2-0.4-0.4-0.6-0.7c-0.1-0.1-0.2-0.3-0.3-0.4c-0.2-0.3-0.4-0.5-0.6-0.8
					c-0.1-0.1-0.1-0.2-0.2-0.4c-0.2-0.3-0.3-0.7-0.5-1c-0.1-0.1-0.1-0.3-0.2-0.5c-0.1-0.2-0.1-0.3-0.2-0.5c0-0.1-0.1-0.2-0.1-0.3
					c0-0.1,0-0.1-0.1-0.2c-0.1-0.5-0.2-1-0.3-1.5c0-0.3,0-0.6,0-0.9c0,0.7-0.1,1.4-0.3,2.1c-0.2,1.1-0.6,2.1-1.2,3
					c-0.2,0.4-0.5,0.8-0.8,1.2c-0.1,0.1-0.1,0.2-0.2,0.3c-0.2,0.3-0.5,0.5-0.7,0.8c-0.1,0.1-0.1,0.1-0.2,0.2
					c-0.1,0.1-0.2,0.2-0.3,0.3c-0.1,0.1-0.2,0.1-0.2,0.2c-0.3,0.2-0.6,0.5-0.9,0.7c0,0-0.1,0.1-0.2,0.1c-0.2,0.1-0.5,0.3-0.7,0.4
					c-0.3,0.1-0.6,0.3-0.9,0.4c-0.1,0.1-0.3,0.1-0.4,0.2c-0.1,0-0.3,0.1-0.5,0.1c-0.2,0-0.4,0.1-0.6,0.1c-0.1,0-0.3,0-0.4,0.1
					c-0.6,0.1-1.3,0.2-2,0.2c-0.4,0-0.7,0-1.1-0.1c-0.5,0-1-0.1-1.5-0.3c-0.8-0.2-1.6-0.5-2.4-0.9c-0.1-0.1-0.3-0.2-0.4-0.3
					c-1.9-1.1-3.3-2.8-4.2-4.8c0,0,0,0,0,0c-0.5-1.2-0.8-2.6-0.8-4c0-0.3,0-0.7,0-1c0,0,0-0.1,0-0.1c0-0.5,0.1-1,0.3-1.5
					c0.2-0.7,0.4-1.3,0.7-1.9c0.1-0.1,0.1-0.3,0.2-0.4c0.2-0.3,0.3-0.6,0.5-0.9c0.3-0.4,0.6-0.8,1-1.2c0.9-0.9,1.9-1.7,3-2.3
					c0.3-0.2,0.7-0.3,1-0.4c0.1-0.1,0.3-0.1,0.5-0.2c0.2-0.1,0.3-0.1,0.5-0.2c0,0,0,0,0,0c0.7-0.2,1.4-0.4,2-0.6
					c0.3-0.1,0.6-0.2,0.9-0.4c1.3-0.6,2.6-1.4,3.7-2.3c1.4-1.1,2.6-2.5,3.6-3.9c1.2-1.7,2.2-3.7,2.5-5.8c0-0.1,0-0.3,0.1-0.4
					c0-0.1,0-0.5,0.2-0.5c0,0,0,0,0,0c0,0,0,0,0,0c0.2,0.3,0.2,0.7,0.3,1c0.6,2.1,1.4,4.1,2.7,5.9c0,0,0,0,0.1,0.1
					c1.4,2,3.3,3.8,5.4,5c-2.7,0.9-5,3.1-6.2,5.8c-0.3,0.6-0.4,1.3-0.6,2c-0.1,0.4-0.1,0.7-0.1,1.1c0.3-1.1,0.8-2.1,1.5-3
					c1.7-2.4,4.5-4.1,7.5-4.2c0.9,0,1.8,0.1,2.7,0.4c0,0,0,0,0,0c0.4,0.1,0.8,0.3,1.1,0.4c3.1,1.3,5.4,4.1,6.1,7.3
					c0,0.2,0.1,0.4,0.1,0.6c0,0.2,0.1,0.5,0.1,0.7c0,0.2,0,0.3,0,0.5C93.1,130.5,93.1,130.7,93.1,130.8z"/>
			</g>
			<g>
				<path class="st4" d="M82.7,141.6c-0.4,0-0.7,0-1.1-0.1c-0.4,0-0.7-0.1-1-0.2c-1-0.2-2-0.5-2.9-1c-0.3-0.1-0.6-0.3-0.9-0.5
					c-0.1-0.1-0.3-0.2-0.4-0.3c-0.4-0.3-0.8-0.6-1.1-0.9l-0.3-0.3c-0.2-0.2-0.4-0.4-0.6-0.7c-0.1-0.1-0.1-0.2-0.2-0.3l-0.1-0.1
					c-0.2-0.3-0.4-0.6-0.6-0.9c-0.1-0.1-0.1-0.2-0.2-0.3c-0.2-0.4-0.4-0.7-0.5-1.1c-0.1-0.1-0.1-0.3-0.2-0.4
					c-0.1-0.2-0.2-0.4-0.2-0.6c0-0.1-0.1-0.2-0.1-0.3c0,0,0-0.1,0-0.1c-0.2,0.9-0.6,1.8-1.1,2.6c-0.2,0.4-0.5,0.8-0.9,1.2
					c0,0.1-0.1,0.1-0.1,0.2l-0.1,0.1c-0.2,0.3-0.5,0.6-0.8,0.8c-0.1,0.1-0.1,0.1-0.2,0.2c-0.1,0.1-0.1,0.1-0.2,0.2l-0.4,0.3
					c-0.3,0.3-0.7,0.5-1,0.7c0,0-0.1,0.1-0.2,0.1c-0.2,0.1-0.5,0.3-0.7,0.4c-0.3,0.1-0.6,0.3-0.9,0.4c-0.2,0.1-0.3,0.1-0.5,0.2
					l-0.5,0.1c-0.2,0.1-0.4,0.1-0.6,0.2l-0.4,0.1c-1.1,0.2-2.1,0.3-3.2,0.1c-0.5,0-1-0.1-1.6-0.3c-0.9-0.2-1.7-0.5-2.4-1l-0.2-0.1
					c-0.1-0.1-0.2-0.1-0.3-0.2c-1.9-1.1-3.4-2.9-4.3-4.9l0-0.1c-0.6-1.3-0.8-2.7-0.8-4.2c0-0.3,0-0.7,0-1c0.1-0.6,0.2-1.2,0.3-1.7
					c0.2-0.7,0.4-1.3,0.7-2c0.1-0.1,0.1-0.3,0.2-0.5c0.2-0.3,0.4-0.6,0.5-0.9c0.3-0.4,0.6-0.8,1-1.3c0.9-1,2-1.8,3.1-2.4
					c0.3-0.2,0.7-0.3,1.1-0.4c0.1-0.1,0.3-0.1,0.5-0.2c0.1,0,0.2-0.1,0.4-0.1l0.6-0.2c0.5-0.1,1.1-0.3,1.6-0.5
					c0.3-0.1,0.6-0.2,0.8-0.4c1.3-0.6,2.5-1.4,3.7-2.3c1.4-1.1,2.5-2.4,3.5-3.8c1.3-2,2.1-3.9,2.4-5.7c0-0.1,0-0.3,0.1-0.4
					c0-0.3,0-0.6,0.3-0.8l0.1-0.1l0.5,0v0.3c0.1,0.2,0.2,0.5,0.2,0.7c0,0.1,0,0.2,0.1,0.3c0.6,2.2,1.5,4.2,2.6,5.8l-0.2,0.3l0.3-0.2
					c1.4,2,3.2,3.7,5.3,4.9l0.7,0.4l-0.7,0.3c-2.6,0.9-4.6,2.8-5.8,5.2c1.9-2.6,4.8-4.2,7.7-4.3c0.9,0,1.8,0.1,2.7,0.4h0.1l0.1,0.1
					c0.4,0.1,0.7,0.3,1.1,0.4c3.2,1.4,5.6,4.2,6.4,7.5c0,0.2,0.1,0.4,0.1,0.6c0,0.2,0.1,0.5,0.1,0.7c0,0.2,0,0.3,0,0.5
					c0,0.2,0,0.3,0,0.5c0,1.4-0.3,2.9-0.8,4.2l0,0.1c-0.9,2-2.4,3.8-4.3,4.9c-0.1,0.1-0.2,0.1-0.3,0.2l-0.2,0.1
					c-0.8,0.4-1.6,0.7-2.4,1l-0.2,0.1l0,0c-0.4,0.1-0.9,0.2-1.4,0.2C83.5,141.6,83.1,141.6,82.7,141.6z M72,131l0.7,0
					c0,0.3,0,0.6,0,0.8c0.1,0.5,0.1,1,0.3,1.4c0,0.1,0,0.1,0,0.2l0,0.1c0,0.1,0,0.2,0.1,0.2c0,0.2,0.1,0.3,0.2,0.5l0,0.1
					c0,0.1,0.1,0.2,0.1,0.4c0.1,0.3,0.3,0.7,0.5,1c0.1,0.1,0.1,0.2,0.2,0.3c0.2,0.3,0.3,0.5,0.5,0.8l0.1,0.1
					c0.1,0.1,0.1,0.2,0.2,0.3c0.2,0.2,0.4,0.4,0.6,0.6l0.3,0.3c0.3,0.3,0.7,0.6,1.1,0.9c0.1,0.1,0.3,0.2,0.4,0.3
					c0.3,0.2,0.5,0.3,0.8,0.5c0.9,0.5,1.8,0.8,2.7,1c0.3,0.1,0.6,0.1,0.9,0.1c0.7,0.1,1.4,0.1,2,0c0.5,0,1-0.1,1.4-0.3l0.2-0.1l0,0
					c0.7-0.2,1.4-0.5,2.1-0.8l0.2-0.1c0.1-0.1,0.2-0.1,0.3-0.2c1.8-1.1,3.2-2.7,4-4.7l0-0.1c0.5-1.2,0.8-2.5,0.8-3.8
					c0-0.2,0-0.3,0-0.5c0-0.2,0-0.3,0-0.5c0-0.2-0.1-0.5-0.1-0.7c0-0.2-0.1-0.4-0.1-0.5c-0.7-3.1-3-5.8-5.9-7
					c-0.4-0.2-0.7-0.3-1.1-0.4l0,0c-0.8-0.2-1.7-0.3-2.5-0.3c-2.7,0.1-5.5,1.6-7.2,4c-0.6,0.9-1.1,1.9-1.4,2.9l-0.9,3l0.2-3.1
					c0-0.3,0.1-0.7,0.2-1.1c0.1-0.7,0.3-1.4,0.6-2.1c1.1-2.6,3.1-4.7,5.7-5.8c-1.9-1.3-3.6-2.9-4.9-4.7l0.2-0.3l-0.3,0.2
					c-1.1-1.6-2-3.5-2.6-5.7c-0.4,1.8-1.2,3.6-2.5,5.5c-1,1.5-2.3,2.9-3.7,4c-1.2,0.9-2.5,1.7-3.8,2.4c-0.3,0.1-0.6,0.3-0.9,0.4
					c-0.6,0.2-1.1,0.4-1.7,0.5l-0.5,0.2c-0.1,0-0.2,0.1-0.4,0.1c-0.2,0-0.3,0.1-0.5,0.2c-0.4,0.1-0.7,0.3-1,0.4
					c-1.1,0.5-2.1,1.3-2.9,2.2c-0.4,0.4-0.7,0.8-0.9,1.2c-0.2,0.3-0.4,0.6-0.5,0.8c-0.1,0.1-0.1,0.3-0.2,0.4
					c-0.3,0.6-0.5,1.2-0.7,1.8c-0.1,0.5-0.2,1-0.3,1.5l0,0.2c0,0.2,0,0.5,0,0.9c0,1.3,0.3,2.6,0.8,3.8l0,0.1c0.8,1.9,2.2,3.6,4,4.7
					c0.1,0.1,0.2,0.1,0.2,0.1l0.2,0.1c0.7,0.4,1.5,0.7,2.3,0.9c0.5,0.1,1,0.2,1.5,0.3c1,0.1,1.9,0.1,2.9-0.1l0.4-0.1
					c0.2,0,0.4-0.1,0.5-0.1l0.4-0.1c0.1,0,0.3-0.1,0.4-0.1c0.3-0.1,0.6-0.2,0.9-0.4c0.2-0.1,0.4-0.2,0.6-0.4
					c0.1-0.1,0.1-0.1,0.1-0.1c0.3-0.2,0.6-0.4,0.9-0.7l0.3-0.3c0.1,0,0.1-0.1,0.2-0.1c0.1-0.1,0.1-0.1,0.2-0.2
					c0.3-0.2,0.5-0.5,0.7-0.8l0.1-0.1c0,0,0.1-0.1,0.1-0.1c0.3-0.4,0.6-0.8,0.8-1.2c0.5-0.9,0.9-1.8,1.1-2.9
					C71.9,132.4,72,131.8,72,131z"/>
			</g>
		</g>
		<g>
			<g>
				<path class="st3" d="M69.1,240.4c0-0.3,0-0.6,0-0.9c-0.3-3.1-1.9-5.8-4.3-7.5c-0.7-0.5-1.2-1.4-1.2-2.3v0h17.6v0
					c0,0.9-0.5,1.8-1.2,2.3c-2.3,1.7-3.9,4.3-4.2,7.4c0,0.3-0.1,0.7-0.1,1c0,4,2.2,7.4,5.5,9.2v3.6H70c0.3-0.6,0.5-1.3,0.6-2
					c0.1-0.4,0.1-0.7,0.1-1.1c-0.3,1.1-0.8,2.1-1.5,3.1h-5.7v-3.6C66.8,247.9,69.1,244.4,69.1,240.4z"/>
			</g>
			<g>
				<path class="st4" d="M63.5,229.3h18v0.4c0,1-0.5,2-1.4,2.6c-2.3,1.7-3.8,4.3-4.1,7.1c0,0.3-0.1,0.7-0.1,1c0,3.7,2,7.1,5.3,8.8
					l0.2,0.1v4.2H69.4l0-0.1l-0.1,0.1h-6.2v-4.2l0.2-0.1c3.3-1.7,5.3-5.1,5.3-8.8c0-0.3,0-0.6,0-0.9c-0.2-2.9-1.7-5.5-4.1-7.3
					c-0.9-0.6-1.4-1.6-1.4-2.6v-0.4L63.5,229.3z M80.7,230H63.9c0.1,0.7,0.5,1.2,1,1.7c2.5,1.8,4.2,4.7,4.4,7.8c0,0.3,0,0.6,0,0.9
					c0,3.9-2.1,7.5-5.5,9.4v3.1H69c0.6-0.8,1-1.8,1.3-2.8l0.9-3.1l-0.2,3.2c0,0.4-0.1,0.8-0.1,1.1c-0.1,0.5-0.2,1.1-0.4,1.6h10.2
					v-3.1c-3.4-1.9-5.5-5.5-5.5-9.4c0-0.4,0-0.8,0.1-1.1c0.3-3,1.9-5.8,4.4-7.6C80.3,231.3,80.6,230.7,80.7,230z"/>
			</g>
			<g>
				<path class="st3" d="M51.6,246.9c0-1.4,0.3-2.8,0.8-4c0,0,0,0,0,0c0.8-2,2.3-3.7,4.2-4.8c0.1-0.1,0.3-0.2,0.4-0.3
					c0.7-0.4,1.5-0.7,2.3-0.9c0,0,0,0,0,0c0.5-0.1,1-0.2,1.5-0.3c0.4,0,0.7-0.1,1.1-0.1c0.4,0,0.7,0,1,0.1h0c0.3,0,0.7,0.1,1,0.1
					c1,0.2,1.9,0.5,2.8,1c0.3,0.1,0.6,0.3,0.8,0.5c0.1,0.1,0.3,0.2,0.4,0.3c0.4,0.3,0.8,0.6,1.1,0.9c0.1,0.1,0.2,0.2,0.3,0.3
					c0.2,0.2,0.4,0.4,0.6,0.7c0.1,0.1,0.2,0.3,0.3,0.4c0.2,0.3,0.4,0.5,0.6,0.8c0.1,0.1,0.1,0.2,0.2,0.4c0.2,0.3,0.3,0.7,0.5,1
					c0.1,0.1,0.1,0.3,0.2,0.5c0.1,0.2,0.1,0.3,0.2,0.5c0,0.1,0.1,0.2,0.1,0.3c0,0.1,0,0.1,0.1,0.2c0.1,0.5,0.2,1,0.3,1.5
					c0,0.3,0,0.6,0,0.9c0-0.7,0.1-1.4,0.3-2.1c0.2-1.1,0.6-2.1,1.2-3c0.2-0.4,0.5-0.8,0.8-1.2c0.1-0.1,0.1-0.2,0.2-0.3
					c0.2-0.3,0.5-0.5,0.7-0.8c0.1-0.1,0.1-0.1,0.2-0.2c0.1-0.1,0.2-0.2,0.3-0.3c0.1-0.1,0.2-0.1,0.2-0.2c0.3-0.2,0.6-0.5,0.9-0.7
					c0,0,0.1-0.1,0.2-0.1c0.2-0.1,0.5-0.3,0.7-0.4c0.3-0.1,0.6-0.3,0.9-0.4c0.1-0.1,0.3-0.1,0.4-0.2c0.1,0,0.3-0.1,0.5-0.1
					c0.2,0,0.4-0.1,0.6-0.1c0.1,0,0.3,0,0.4-0.1c0.6-0.1,1.3-0.2,2-0.2c0.4,0,0.7,0,1.1,0.1c0.5,0,1,0.1,1.5,0.3
					c0.8,0.2,1.6,0.5,2.4,0.9c0.1,0.1,0.3,0.2,0.4,0.3c1.9,1.1,3.3,2.8,4.2,4.8c0,0,0,0,0,0c0.5,1.2,0.8,2.6,0.8,4c0,0.3,0,0.7,0,1
					c0,0,0,0.1,0,0.1c0,0.5-0.1,1-0.3,1.5c-0.2,0.7-0.4,1.3-0.7,1.9c-0.1,0.1-0.1,0.3-0.2,0.4c-0.2,0.3-0.3,0.6-0.5,0.9
					c-0.3,0.4-0.6,0.8-1,1.2c-0.9,0.9-1.9,1.7-3,2.3c-0.3,0.2-0.7,0.3-1,0.4c-0.1,0.1-0.3,0.1-0.5,0.2c-0.2,0.1-0.3,0.1-0.5,0.2
					c0,0,0,0,0,0c-0.7,0.2-1.4,0.4-2,0.6c-0.3,0.1-0.6,0.2-0.9,0.4c-1.3,0.6-2.6,1.4-3.7,2.3c-1.4,1.1-2.6,2.5-3.6,3.9
					c-1.2,1.7-2.2,3.7-2.5,5.8c0,0.1,0,0.3-0.1,0.4c0,0.1,0,0.5-0.2,0.5c0,0,0,0,0,0c0,0,0,0,0,0c-0.2-0.3-0.2-0.7-0.3-1
					c-0.6-2.1-1.4-4.1-2.7-5.9c0,0,0,0-0.1-0.1c-1.4-2-3.3-3.8-5.4-5c2.7-0.9,5-3.1,6.2-5.8c0.3-0.6,0.4-1.3,0.6-2
					c0.1-0.4,0.1-0.7,0.1-1.1c-0.3,1.1-0.8,2.1-1.5,3c-1.7,2.4-4.5,4.1-7.5,4.2c-0.9,0-1.8-0.1-2.7-0.4c0,0,0,0,0,0
					c-0.4-0.1-0.8-0.3-1.1-0.4c-3.1-1.3-5.4-4.1-6.1-7.3c0-0.2-0.1-0.4-0.1-0.6c0-0.2-0.1-0.5-0.1-0.7c0-0.2,0-0.3,0-0.5
					C51.6,247.3,51.6,247.1,51.6,246.9z"/>
			</g>
			<g>
				<path class="st4" d="M62,236.2c0.4,0,0.7,0,1.1,0.1c0.4,0,0.7,0.1,1,0.2c1,0.2,2,0.5,2.9,1c0.3,0.1,0.6,0.3,0.9,0.5
					c0.1,0.1,0.3,0.2,0.4,0.3c0.4,0.3,0.8,0.6,1.1,0.9l0.3,0.3c0.2,0.2,0.4,0.4,0.6,0.7c0.1,0.1,0.1,0.2,0.2,0.3l0.1,0.1
					c0.2,0.3,0.4,0.6,0.6,0.9c0.1,0.1,0.1,0.2,0.2,0.3c0.2,0.4,0.4,0.7,0.5,1.1c0.1,0.1,0.1,0.3,0.2,0.4c0.1,0.2,0.2,0.4,0.2,0.6
					c0,0.1,0.1,0.2,0.1,0.3c0,0,0,0.1,0,0.1c0.2-0.9,0.6-1.8,1.1-2.6c0.2-0.4,0.5-0.8,0.9-1.2c0-0.1,0.1-0.1,0.1-0.2l0.1-0.1
					c0.2-0.3,0.5-0.6,0.8-0.8c0.1-0.1,0.1-0.1,0.2-0.2c0.1-0.1,0.1-0.1,0.2-0.2l0.4-0.3c0.3-0.3,0.7-0.5,1-0.7c0,0,0.1-0.1,0.2-0.1
					c0.2-0.1,0.5-0.3,0.7-0.4c0.3-0.1,0.6-0.3,0.9-0.4c0.2-0.1,0.3-0.1,0.5-0.2l0.5-0.1c0.2-0.1,0.4-0.1,0.6-0.2l0.4-0.1
					c1.1-0.2,2.1-0.3,3.2-0.1c0.5,0,1,0.1,1.6,0.3c0.9,0.2,1.7,0.5,2.4,1l0.2,0.1c0.1,0.1,0.2,0.1,0.3,0.2c1.9,1.1,3.4,2.9,4.3,4.9
					l0,0.1c0.6,1.3,0.8,2.7,0.8,4.2c0,0.3,0,0.7,0,1c-0.1,0.6-0.2,1.2-0.3,1.7c-0.2,0.7-0.4,1.3-0.7,2c-0.1,0.1-0.1,0.3-0.2,0.5
					c-0.2,0.3-0.4,0.6-0.5,0.9c-0.3,0.4-0.6,0.8-1,1.3c-0.9,1-2,1.8-3.1,2.4c-0.3,0.2-0.7,0.3-1.1,0.4c-0.1,0.1-0.3,0.1-0.5,0.2
					c-0.1,0-0.2,0.1-0.4,0.1l-0.6,0.2c-0.5,0.1-1.1,0.3-1.6,0.5c-0.3,0.1-0.6,0.2-0.8,0.4c-1.3,0.6-2.5,1.4-3.7,2.3
					c-1.4,1.1-2.5,2.4-3.5,3.8c-1.3,2-2.1,3.9-2.4,5.7c0,0.1,0,0.3-0.1,0.4c0,0.3,0,0.6-0.3,0.8l-0.1,0.1l-0.5,0v-0.3
					c-0.1-0.2-0.2-0.5-0.2-0.7c0-0.1,0-0.2-0.1-0.3c-0.6-2.2-1.5-4.2-2.6-5.8l0.2-0.3l-0.3,0.2c-1.4-2-3.2-3.7-5.3-4.9l-0.7-0.4
					l0.7-0.3c2.6-0.9,4.6-2.8,5.8-5.2c-1.9,2.6-4.8,4.2-7.7,4.3c-0.9,0-1.8-0.1-2.7-0.4H59l-0.1-0.1c-0.4-0.1-0.7-0.3-1.1-0.4
					c-3.2-1.4-5.6-4.2-6.4-7.5c0-0.2-0.1-0.4-0.1-0.6c0-0.2-0.1-0.5-0.1-0.7c0-0.2,0-0.3,0-0.5c0-0.2,0-0.3,0-0.5
					c0-1.4,0.3-2.9,0.8-4.2l0-0.1c0.9-2,2.4-3.8,4.3-4.9c0.1-0.1,0.2-0.1,0.3-0.2l0.2-0.1c0.8-0.4,1.6-0.7,2.4-1l0.2-0.1l0,0
					c0.4-0.1,0.9-0.2,1.4-0.2C61.2,236.2,61.6,236.2,62,236.2z M72.7,246.8l-0.7,0c0-0.3,0-0.6,0-0.8c-0.1-0.5-0.1-1-0.3-1.4
					c0-0.1,0-0.1,0-0.2l0-0.1c0-0.1,0-0.2-0.1-0.2c0-0.2-0.1-0.3-0.2-0.5l0-0.1c0-0.1-0.1-0.2-0.1-0.4c-0.1-0.3-0.3-0.7-0.5-1
					c-0.1-0.1-0.1-0.2-0.2-0.3c-0.2-0.3-0.3-0.5-0.5-0.8l-0.1-0.1c-0.1-0.1-0.1-0.2-0.2-0.3c-0.2-0.2-0.4-0.4-0.6-0.6l-0.3-0.3
					c-0.3-0.3-0.7-0.6-1.1-0.9c-0.1-0.1-0.3-0.2-0.4-0.3c-0.3-0.2-0.5-0.3-0.8-0.5c-0.9-0.5-1.8-0.8-2.7-1c-0.3-0.1-0.6-0.1-0.9-0.1
					c-0.7-0.1-1.4-0.1-2,0c-0.5,0-1,0.1-1.4,0.3l-0.2,0.1l0,0c-0.7,0.2-1.4,0.5-2.1,0.8l-0.2,0.1c-0.1,0.1-0.2,0.1-0.3,0.2
					c-1.8,1.1-3.2,2.7-4,4.7l0,0.1c-0.5,1.2-0.8,2.5-0.8,3.8c0,0.2,0,0.3,0,0.5c0,0.2,0,0.3,0,0.5c0,0.2,0.1,0.5,0.1,0.7
					c0,0.2,0.1,0.4,0.1,0.5c0.7,3.1,3,5.8,5.9,7c0.4,0.2,0.7,0.3,1.1,0.4l0,0c0.8,0.2,1.7,0.3,2.5,0.3c2.7-0.1,5.5-1.6,7.2-4
					c0.6-0.9,1.1-1.9,1.4-2.9l0.9-3l-0.2,3.1c0,0.3-0.1,0.7-0.2,1.1c-0.1,0.7-0.3,1.4-0.6,2.1c-1.1,2.6-3.1,4.7-5.7,5.8
					c1.9,1.3,3.6,2.9,4.9,4.7l-0.2,0.3l0.3-0.2c1.1,1.6,2,3.5,2.6,5.7c0.4-1.8,1.2-3.6,2.5-5.5c1-1.5,2.3-2.9,3.7-4
					c1.2-0.9,2.5-1.7,3.8-2.4c0.3-0.1,0.6-0.3,0.9-0.4c0.6-0.2,1.1-0.4,1.7-0.5l0.5-0.2c0.1,0,0.2-0.1,0.4-0.1
					c0.2,0,0.3-0.1,0.5-0.2c0.4-0.1,0.7-0.3,1-0.4c1.1-0.5,2.1-1.3,2.9-2.2c0.4-0.4,0.7-0.8,0.9-1.2c0.2-0.3,0.4-0.6,0.5-0.8
					c0.1-0.1,0.1-0.3,0.2-0.4c0.3-0.6,0.5-1.2,0.7-1.8c0.1-0.5,0.2-1,0.3-1.5l0-0.2c0-0.2,0-0.5,0-0.9c0-1.3-0.3-2.6-0.8-3.8l0-0.1
					c-0.8-1.9-2.2-3.6-4-4.7c-0.1-0.1-0.2-0.1-0.2-0.1l-0.2-0.1c-0.7-0.4-1.5-0.7-2.3-0.9c-0.5-0.1-1-0.2-1.5-0.3
					c-1-0.1-1.9-0.1-2.9,0.1l-0.4,0.1c-0.2,0-0.4,0.1-0.5,0.1l-0.4,0.1c-0.1,0-0.3,0.1-0.4,0.1c-0.3,0.1-0.6,0.2-0.9,0.4
					c-0.2,0.1-0.4,0.2-0.6,0.4c-0.1,0.1-0.1,0.1-0.1,0.1c-0.3,0.2-0.6,0.4-0.9,0.7l-0.3,0.3c-0.1,0-0.1,0.1-0.2,0.1
					c-0.1,0.1-0.1,0.1-0.2,0.2c-0.3,0.2-0.5,0.5-0.7,0.8l-0.1,0.1c0,0-0.1,0.1-0.1,0.1c-0.3,0.4-0.6,0.8-0.8,1.2
					c-0.5,0.9-0.9,1.8-1.1,2.9C72.8,245.4,72.7,246,72.7,246.8z"/>
			</g>
		</g>
		<g>
			<g>
				<path class="st3" d="M148.4,240.4c0-0.3,0-0.6,0-0.9c-0.3-3.1-1.9-5.8-4.3-7.5c-0.7-0.5-1.2-1.4-1.2-2.3v0h17.6v0
					c0,0.9-0.5,1.8-1.2,2.3c-2.3,1.7-3.9,4.3-4.2,7.4c0,0.3-0.1,0.7-0.1,1c0,4,2.2,7.4,5.5,9.2v3.6h-11.1c0.3-0.6,0.5-1.3,0.6-2
					c0.1-0.4,0.1-0.7,0.1-1.1c-0.3,1.1-0.8,2.1-1.5,3.1h-5.7v-3.6C146.2,247.9,148.4,244.4,148.4,240.4z"/>
			</g>
			<g>
				<path class="st4" d="M142.9,229.3h18v0.4c0,1-0.5,2-1.4,2.6c-2.3,1.7-3.8,4.3-4.1,7.1c0,0.3-0.1,0.7-0.1,1c0,3.7,2,7.1,5.3,8.8
					l0.2,0.1v4.2h-12.1l0-0.1l-0.1,0.1h-6.2v-4.2l0.2-0.1c3.3-1.7,5.3-5.1,5.3-8.8c0-0.3,0-0.6,0-0.9c-0.2-2.9-1.7-5.5-4.1-7.3
					c-0.9-0.6-1.4-1.6-1.4-2.6v-0.4L142.9,229.3z M160.1,230h-16.8c0.1,0.7,0.5,1.2,1,1.7c2.5,1.8,4.2,4.7,4.4,7.8
					c0,0.3,0,0.6,0,0.9c0,3.9-2.1,7.5-5.5,9.4v3.1h5.1c0.6-0.8,1-1.8,1.3-2.8l0.9-3.1l-0.2,3.2c0,0.4-0.1,0.8-0.1,1.1
					c-0.1,0.5-0.2,1.1-0.4,1.6h10.2v-3.1c-3.4-1.9-5.5-5.5-5.5-9.4c0-0.4,0-0.8,0.1-1.1c0.3-3,1.9-5.8,4.4-7.6
					C159.6,231.3,160,230.7,160.1,230z"/>
			</g>
			<g>
				<path class="st3" d="M130.9,246.9c0-1.4,0.3-2.8,0.8-4c0,0,0,0,0,0c0.8-2,2.3-3.7,4.2-4.8c0.1-0.1,0.3-0.2,0.4-0.3
					c0.7-0.4,1.5-0.7,2.3-0.9c0,0,0,0,0,0c0.5-0.1,1-0.2,1.5-0.3c0.4,0,0.7-0.1,1.1-0.1c0.4,0,0.7,0,1,0.1h0c0.3,0,0.7,0.1,1,0.1
					c1,0.2,1.9,0.5,2.8,1c0.3,0.1,0.6,0.3,0.8,0.5c0.1,0.1,0.3,0.2,0.4,0.3c0.4,0.3,0.8,0.6,1.1,0.9c0.1,0.1,0.2,0.2,0.3,0.3
					c0.2,0.2,0.4,0.4,0.6,0.7c0.1,0.1,0.2,0.3,0.3,0.4c0.2,0.3,0.4,0.5,0.6,0.8c0.1,0.1,0.1,0.2,0.2,0.4c0.2,0.3,0.3,0.7,0.5,1
					c0.1,0.1,0.1,0.3,0.2,0.5c0.1,0.2,0.1,0.3,0.2,0.5c0,0.1,0.1,0.2,0.1,0.3c0,0.1,0,0.1,0.1,0.2c0.1,0.5,0.2,1,0.3,1.5
					c0,0.3,0,0.6,0,0.9c0-0.7,0.1-1.4,0.3-2.1c0.2-1.1,0.6-2.1,1.2-3c0.2-0.4,0.5-0.8,0.8-1.2c0.1-0.1,0.1-0.2,0.2-0.3
					c0.2-0.3,0.5-0.5,0.7-0.8c0.1-0.1,0.1-0.1,0.2-0.2c0.1-0.1,0.2-0.2,0.3-0.3c0.1-0.1,0.2-0.1,0.2-0.2c0.3-0.2,0.6-0.5,0.9-0.7
					c0,0,0.1-0.1,0.2-0.1c0.2-0.1,0.5-0.3,0.7-0.4c0.3-0.1,0.6-0.3,0.9-0.4c0.1-0.1,0.3-0.1,0.4-0.2c0.1,0,0.3-0.1,0.5-0.1
					c0.2,0,0.4-0.1,0.6-0.1c0.1,0,0.3,0,0.4-0.1c0.6-0.1,1.3-0.2,2-0.2c0.4,0,0.7,0,1.1,0.1c0.5,0,1,0.1,1.5,0.3
					c0.8,0.2,1.6,0.5,2.4,0.9c0.1,0.1,0.3,0.2,0.4,0.3c1.9,1.1,3.3,2.8,4.2,4.8c0,0,0,0,0,0c0.5,1.2,0.8,2.6,0.8,4c0,0.3,0,0.7,0,1
					c0,0,0,0.1,0,0.1c0,0.5-0.1,1-0.3,1.5c-0.2,0.7-0.4,1.3-0.7,1.9c-0.1,0.1-0.1,0.3-0.2,0.4c-0.2,0.3-0.3,0.6-0.5,0.9
					c-0.3,0.4-0.6,0.8-1,1.2c-0.9,0.9-1.9,1.7-3,2.3c-0.3,0.2-0.7,0.3-1,0.4c-0.1,0.1-0.3,0.1-0.5,0.2c-0.2,0.1-0.3,0.1-0.5,0.2
					c0,0,0,0,0,0c-0.7,0.2-1.4,0.4-2,0.6c-0.3,0.1-0.6,0.2-0.9,0.4c-1.3,0.6-2.6,1.4-3.7,2.3c-1.4,1.1-2.6,2.5-3.6,3.9
					c-1.2,1.7-2.2,3.7-2.5,5.8c0,0.1,0,0.3-0.1,0.4c0,0.1,0,0.5-0.2,0.5c0,0,0,0,0,0c0,0,0,0,0,0c-0.2-0.3-0.2-0.7-0.3-1
					c-0.6-2.1-1.4-4.1-2.7-5.9c0,0,0,0-0.1-0.1c-1.4-2-3.3-3.8-5.4-5c2.7-0.9,5-3.1,6.2-5.8c0.3-0.6,0.4-1.3,0.6-2
					c0.1-0.4,0.1-0.7,0.1-1.1c-0.3,1.1-0.8,2.1-1.5,3c-1.7,2.4-4.5,4.1-7.5,4.2c-0.9,0-1.8-0.1-2.7-0.4c0,0,0,0,0,0
					c-0.4-0.1-0.8-0.3-1.1-0.4c-3.1-1.3-5.4-4.1-6.1-7.3c0-0.2-0.1-0.4-0.1-0.6c0-0.2-0.1-0.5-0.1-0.7c0-0.2,0-0.3,0-0.5
					C130.9,247.3,130.9,247.1,130.9,246.9z"/>
			</g>
			<g>
				<path class="st4" d="M141.3,236.2c0.4,0,0.7,0,1.1,0.1c0.4,0,0.7,0.1,1,0.2c1,0.2,2,0.5,2.9,1c0.3,0.1,0.6,0.3,0.9,0.5
					c0.1,0.1,0.3,0.2,0.4,0.3c0.4,0.3,0.8,0.6,1.1,0.9l0.3,0.3c0.2,0.2,0.4,0.4,0.6,0.7c0.1,0.1,0.1,0.2,0.2,0.3l0.1,0.1
					c0.2,0.3,0.4,0.6,0.6,0.9c0.1,0.1,0.1,0.2,0.2,0.3c0.2,0.4,0.4,0.7,0.5,1.1c0.1,0.1,0.1,0.3,0.2,0.4c0.1,0.2,0.2,0.4,0.2,0.6
					c0,0.1,0.1,0.2,0.1,0.3c0,0,0,0.1,0,0.1c0.2-0.9,0.6-1.8,1.1-2.6c0.2-0.4,0.5-0.8,0.9-1.2c0-0.1,0.1-0.1,0.1-0.2l0.1-0.1
					c0.2-0.3,0.5-0.6,0.8-0.8c0.1-0.1,0.1-0.1,0.2-0.2c0.1-0.1,0.1-0.1,0.2-0.2l0.4-0.3c0.3-0.3,0.7-0.5,1-0.7c0,0,0.1-0.1,0.2-0.1
					c0.2-0.1,0.5-0.3,0.7-0.4c0.3-0.1,0.6-0.3,0.9-0.4c0.2-0.1,0.3-0.1,0.5-0.2l0.5-0.1c0.2-0.1,0.4-0.1,0.6-0.2l0.4-0.1
					c1.1-0.2,2.1-0.3,3.2-0.1c0.5,0,1,0.1,1.6,0.3c0.9,0.2,1.7,0.5,2.4,1l0.2,0.1c0.1,0.1,0.2,0.1,0.3,0.2c1.9,1.1,3.4,2.9,4.3,4.9
					l0,0.1c0.6,1.3,0.8,2.7,0.8,4.2c0,0.3,0,0.7,0,1c-0.1,0.6-0.2,1.2-0.3,1.7c-0.2,0.7-0.4,1.3-0.7,2c-0.1,0.1-0.1,0.3-0.2,0.5
					c-0.2,0.3-0.4,0.6-0.5,0.9c-0.3,0.4-0.6,0.8-1,1.3c-0.9,1-2,1.8-3.1,2.4c-0.3,0.2-0.7,0.3-1.1,0.4c-0.1,0.1-0.3,0.1-0.5,0.2
					c-0.1,0-0.2,0.1-0.4,0.1l-0.6,0.2c-0.5,0.1-1.1,0.3-1.6,0.5c-0.3,0.1-0.6,0.2-0.8,0.4c-1.3,0.6-2.5,1.4-3.7,2.3
					c-1.4,1.1-2.5,2.4-3.5,3.8c-1.3,2-2.1,3.9-2.4,5.7c0,0.1,0,0.3-0.1,0.4c0,0.3,0,0.6-0.3,0.8l-0.1,0.1l-0.5,0v-0.3
					c-0.1-0.2-0.2-0.5-0.2-0.7c0-0.1,0-0.2-0.1-0.3c-0.6-2.2-1.5-4.2-2.6-5.8l0.2-0.3l-0.3,0.2c-1.4-2-3.2-3.7-5.3-4.9l-0.7-0.4
					l0.7-0.3c2.6-0.9,4.6-2.8,5.8-5.2c-1.9,2.6-4.8,4.2-7.7,4.3c-0.9,0-1.8-0.1-2.7-0.4h-0.1l-0.1-0.1c-0.4-0.1-0.7-0.3-1.1-0.4
					c-3.2-1.4-5.6-4.2-6.4-7.5c0-0.2-0.1-0.4-0.1-0.6c0-0.2-0.1-0.5-0.1-0.7c0-0.2,0-0.3,0-0.5c0-0.2,0-0.3,0-0.5
					c0-1.4,0.3-2.9,0.8-4.2l0-0.1c0.9-2,2.4-3.8,4.3-4.9c0.1-0.1,0.2-0.1,0.3-0.2l0.2-0.1c0.8-0.4,1.6-0.7,2.4-1l0.2-0.1l0,0
					c0.4-0.1,0.9-0.2,1.4-0.2C140.5,236.2,140.9,236.2,141.3,236.2z M152,246.8l-0.7,0c0-0.3,0-0.6,0-0.8c-0.1-0.5-0.1-1-0.3-1.4
					c0-0.1,0-0.1,0-0.2l0-0.1c0-0.1,0-0.2-0.1-0.2c0-0.2-0.1-0.3-0.2-0.5l0-0.1c0-0.1-0.1-0.2-0.1-0.4c-0.1-0.3-0.3-0.7-0.5-1
					c-0.1-0.1-0.1-0.2-0.2-0.3c-0.2-0.3-0.3-0.5-0.5-0.8l-0.1-0.1c-0.1-0.1-0.1-0.2-0.2-0.3c-0.2-0.2-0.4-0.4-0.6-0.6l-0.3-0.3
					c-0.3-0.3-0.7-0.6-1.1-0.9c-0.1-0.1-0.3-0.2-0.4-0.3c-0.3-0.2-0.5-0.3-0.8-0.5c-0.9-0.5-1.8-0.8-2.7-1c-0.3-0.1-0.6-0.1-0.9-0.1
					c-0.7-0.1-1.4-0.1-2,0c-0.5,0-1,0.1-1.4,0.3l-0.2,0.1l0,0c-0.7,0.2-1.4,0.5-2.1,0.8l-0.2,0.1c-0.1,0.1-0.2,0.1-0.3,0.2
					c-1.8,1.1-3.2,2.7-4,4.7l0,0.1c-0.5,1.2-0.8,2.5-0.8,3.8c0,0.2,0,0.3,0,0.5c0,0.2,0,0.3,0,0.5c0,0.2,0.1,0.5,0.1,0.7
					c0,0.2,0.1,0.4,0.1,0.5c0.7,3.1,3,5.8,5.9,7c0.4,0.2,0.7,0.3,1.1,0.4l0,0c0.8,0.2,1.7,0.3,2.5,0.3c2.7-0.1,5.5-1.6,7.2-4
					c0.6-0.9,1.1-1.9,1.4-2.9l0.9-3l-0.2,3.1c0,0.3-0.1,0.7-0.2,1.1c-0.1,0.7-0.3,1.4-0.6,2.1c-1.1,2.6-3.1,4.7-5.7,5.8
					c1.9,1.3,3.6,2.9,4.9,4.7l-0.2,0.3l0.3-0.2c1.1,1.6,2,3.5,2.6,5.7c0.4-1.8,1.2-3.6,2.5-5.5c1-1.5,2.3-2.9,3.7-4
					c1.2-0.9,2.5-1.7,3.8-2.4c0.3-0.1,0.6-0.3,0.9-0.4c0.6-0.2,1.1-0.4,1.7-0.5l0.5-0.2c0.1,0,0.2-0.1,0.4-0.1
					c0.2,0,0.3-0.1,0.5-0.2c0.4-0.1,0.7-0.3,1-0.4c1.1-0.5,2.1-1.3,2.9-2.2c0.4-0.4,0.7-0.8,0.9-1.2c0.2-0.3,0.4-0.6,0.5-0.8
					c0.1-0.1,0.1-0.3,0.2-0.4c0.3-0.6,0.5-1.2,0.7-1.8c0.1-0.5,0.2-1,0.3-1.5l0-0.2c0-0.2,0-0.5,0-0.9c0-1.3-0.3-2.6-0.8-3.8l0-0.1
					c-0.8-1.9-2.2-3.6-4-4.7c-0.1-0.1-0.2-0.1-0.2-0.1l-0.2-0.1c-0.7-0.4-1.5-0.7-2.3-0.9c-0.5-0.1-1-0.2-1.5-0.3
					c-1-0.1-1.9-0.1-2.9,0.1l-0.4,0.1c-0.2,0-0.4,0.1-0.5,0.1l-0.4,0.1c-0.1,0-0.3,0.1-0.4,0.1c-0.3,0.1-0.6,0.2-0.9,0.4
					c-0.2,0.1-0.4,0.2-0.6,0.4c-0.1,0.1-0.1,0.1-0.1,0.1c-0.3,0.2-0.6,0.4-0.9,0.7l-0.3,0.3c-0.1,0-0.1,0.1-0.2,0.1
					c-0.1,0.1-0.1,0.1-0.2,0.2c-0.3,0.2-0.5,0.5-0.7,0.8l-0.1,0.1c0,0-0.1,0.1-0.1,0.1c-0.3,0.4-0.6,0.8-0.8,1.2
					c-0.5,0.9-0.9,1.8-1.1,2.9C152.1,245.4,152,246,152,246.8z"/>
			</g>
		</g>
		<g>
			<g>
				<path class="st3" d="M69.1,176.2c0-0.3,0-0.6,0-0.9c-0.3-3.1-1.9-5.8-4.3-7.5c-0.7-0.5-1.2-1.4-1.2-2.3v0h17.6v0
					c0,0.9-0.5,1.8-1.2,2.3c-2.3,1.7-3.9,4.3-4.2,7.4c0,0.3-0.1,0.7-0.1,1c0,4,2.2,7.4,5.5,9.2v3.6H70c0.3-0.6,0.5-1.3,0.6-2
					c0.1-0.4,0.1-0.7,0.1-1.1c-0.3,1.1-0.8,2.1-1.5,3.1h-5.7v-3.6C66.8,183.6,69.1,180.2,69.1,176.2z"/>
			</g>
			<g>
				<path class="st4" d="M63.5,165.1h18v0.4c0,1-0.5,2-1.4,2.6c-2.3,1.7-3.8,4.3-4.1,7.1c0,0.3-0.1,0.7-0.1,1c0,3.7,2,7.1,5.3,8.8
					l0.2,0.1v4.2H69.4l0-0.1l-0.1,0.1h-6.2v-4.2l0.2-0.1c3.3-1.7,5.3-5.1,5.3-8.8c0-0.3,0-0.6,0-0.9c-0.2-2.9-1.7-5.5-4.1-7.3
					c-0.9-0.6-1.4-1.6-1.4-2.6v-0.4L63.5,165.1z M80.7,165.8H63.9c0.1,0.7,0.5,1.2,1,1.7c2.5,1.8,4.2,4.7,4.4,7.8c0,0.3,0,0.6,0,0.9
					c0,3.9-2.1,7.5-5.5,9.4v3.1H69c0.6-0.8,1-1.8,1.3-2.8l0.9-3.1l-0.2,3.2c0,0.4-0.1,0.8-0.1,1.1c-0.1,0.5-0.2,1.1-0.4,1.6h10.2
					v-3.1c-3.4-1.9-5.5-5.5-5.5-9.4c0-0.4,0-0.8,0.1-1.1c0.3-3,1.9-5.8,4.4-7.6C80.3,167.1,80.6,166.5,80.7,165.8z"/>
			</g>
			<g>
				<path class="st3" d="M51.6,182.7c0-1.4,0.3-2.8,0.8-4c0,0,0,0,0,0c0.8-2,2.3-3.7,4.2-4.8c0.1-0.1,0.3-0.2,0.4-0.3
					c0.7-0.4,1.5-0.7,2.3-0.9c0,0,0,0,0,0c0.5-0.1,1-0.2,1.5-0.3c0.4,0,0.7-0.1,1.1-0.1c0.4,0,0.7,0,1,0.1h0c0.3,0,0.7,0.1,1,0.1
					c1,0.2,1.9,0.5,2.8,1c0.3,0.1,0.6,0.3,0.8,0.5c0.1,0.1,0.3,0.2,0.4,0.3c0.4,0.3,0.8,0.6,1.1,0.9c0.1,0.1,0.2,0.2,0.3,0.3
					c0.2,0.2,0.4,0.4,0.6,0.7c0.1,0.1,0.2,0.3,0.3,0.4c0.2,0.3,0.4,0.5,0.6,0.8c0.1,0.1,0.1,0.2,0.2,0.4c0.2,0.3,0.3,0.7,0.5,1
					c0.1,0.1,0.1,0.3,0.2,0.5c0.1,0.2,0.1,0.3,0.2,0.5c0,0.1,0.1,0.2,0.1,0.3c0,0.1,0,0.1,0.1,0.2c0.1,0.5,0.2,1,0.3,1.5
					c0,0.3,0,0.6,0,0.9c0-0.7,0.1-1.4,0.3-2.1c0.2-1.1,0.6-2.1,1.2-3c0.2-0.4,0.5-0.8,0.8-1.2c0.1-0.1,0.1-0.2,0.2-0.3
					c0.2-0.3,0.5-0.5,0.7-0.8c0.1-0.1,0.1-0.1,0.2-0.2c0.1-0.1,0.2-0.2,0.3-0.3c0.1-0.1,0.2-0.1,0.2-0.2c0.3-0.2,0.6-0.5,0.9-0.7
					c0,0,0.1-0.1,0.2-0.1c0.2-0.1,0.5-0.3,0.7-0.4c0.3-0.1,0.6-0.3,0.9-0.4c0.1-0.1,0.3-0.1,0.4-0.2c0.1,0,0.3-0.1,0.5-0.1
					c0.2,0,0.4-0.1,0.6-0.1c0.1,0,0.3,0,0.4-0.1c0.6-0.1,1.3-0.2,2-0.2c0.4,0,0.7,0,1.1,0.1c0.5,0,1,0.1,1.5,0.3
					c0.8,0.2,1.6,0.5,2.4,0.9c0.1,0.1,0.3,0.2,0.4,0.3c1.9,1.1,3.3,2.8,4.2,4.8c0,0,0,0,0,0c0.5,1.2,0.8,2.6,0.8,4c0,0.3,0,0.7,0,1
					c0,0,0,0.1,0,0.1c0,0.5-0.1,1-0.3,1.5c-0.2,0.7-0.4,1.3-0.7,1.9c-0.1,0.1-0.1,0.3-0.2,0.4c-0.2,0.3-0.3,0.6-0.5,0.9
					c-0.3,0.4-0.6,0.8-1,1.2c-0.9,0.9-1.9,1.7-3,2.3c-0.3,0.2-0.7,0.3-1,0.4c-0.1,0.1-0.3,0.1-0.5,0.2c-0.2,0.1-0.3,0.1-0.5,0.2
					c0,0,0,0,0,0c-0.7,0.2-1.4,0.4-2,0.6c-0.3,0.1-0.6,0.2-0.9,0.4c-1.3,0.6-2.6,1.4-3.7,2.3c-1.4,1.1-2.6,2.5-3.6,3.9
					c-1.2,1.7-2.2,3.7-2.5,5.8c0,0.1,0,0.3-0.1,0.4c0,0.1,0,0.5-0.2,0.5c0,0,0,0,0,0c0,0,0,0,0,0c-0.2-0.3-0.2-0.7-0.3-1
					c-0.6-2.1-1.4-4.1-2.7-5.9c0,0,0,0-0.1-0.1c-1.4-2-3.3-3.8-5.4-5c2.7-0.9,5-3.1,6.2-5.8c0.3-0.6,0.4-1.3,0.6-2
					c0.1-0.4,0.1-0.7,0.1-1.1c-0.3,1.1-0.8,2.1-1.5,3c-1.7,2.4-4.5,4.1-7.5,4.2c-0.9,0-1.8-0.1-2.7-0.4c0,0,0,0,0,0
					c-0.4-0.1-0.8-0.3-1.1-0.4c-3.1-1.3-5.4-4.1-6.1-7.3c0-0.2-0.1-0.4-0.1-0.6c0-0.2-0.1-0.5-0.1-0.7c0-0.2,0-0.3,0-0.5
					C51.6,183.1,51.6,182.9,51.6,182.7z"/>
			</g>
			<g>
				<path class="st4" d="M62,172c0.4,0,0.7,0,1.1,0.1c0.4,0,0.7,0.1,1,0.2c1,0.2,2,0.5,2.9,1c0.3,0.1,0.6,0.3,0.9,0.5
					c0.1,0.1,0.3,0.2,0.4,0.3c0.4,0.3,0.8,0.6,1.1,0.9l0.3,0.3c0.2,0.2,0.4,0.4,0.6,0.7c0.1,0.1,0.1,0.2,0.2,0.3l0.1,0.1
					c0.2,0.3,0.4,0.6,0.6,0.9c0.1,0.1,0.1,0.2,0.2,0.3c0.2,0.4,0.4,0.7,0.5,1.1c0.1,0.1,0.1,0.3,0.2,0.4c0.1,0.2,0.2,0.4,0.2,0.6
					c0,0.1,0.1,0.2,0.1,0.3c0,0,0,0.1,0,0.1c0.2-0.9,0.6-1.8,1.1-2.6c0.2-0.4,0.5-0.8,0.9-1.2c0-0.1,0.1-0.1,0.1-0.2l0.1-0.1
					c0.2-0.3,0.5-0.6,0.8-0.8c0.1-0.1,0.1-0.1,0.2-0.2c0.1-0.1,0.1-0.1,0.2-0.2l0.4-0.3c0.3-0.3,0.7-0.5,1-0.7c0,0,0.1-0.1,0.2-0.1
					c0.2-0.1,0.5-0.3,0.7-0.4c0.3-0.1,0.6-0.3,0.9-0.4c0.2-0.1,0.3-0.1,0.5-0.2l0.5-0.1c0.2-0.1,0.4-0.1,0.6-0.2l0.4-0.1
					c1.1-0.2,2.1-0.3,3.2-0.1c0.5,0,1,0.1,1.6,0.3c0.9,0.2,1.7,0.5,2.4,1l0.2,0.1c0.1,0.1,0.2,0.1,0.3,0.2c1.9,1.1,3.4,2.9,4.3,4.9
					l0,0.1c0.6,1.3,0.8,2.7,0.8,4.2c0,0.3,0,0.7,0,1c-0.1,0.6-0.2,1.2-0.3,1.7c-0.2,0.7-0.4,1.3-0.7,2c-0.1,0.1-0.1,0.3-0.2,0.5
					c-0.2,0.3-0.4,0.6-0.5,0.9c-0.3,0.4-0.6,0.8-1,1.3c-0.9,1-2,1.8-3.1,2.4c-0.3,0.2-0.7,0.3-1.1,0.4c-0.1,0.1-0.3,0.1-0.5,0.2
					c-0.1,0-0.2,0.1-0.4,0.1l-0.6,0.2c-0.5,0.1-1.1,0.3-1.6,0.5c-0.3,0.1-0.6,0.2-0.8,0.4c-1.3,0.6-2.5,1.4-3.7,2.3
					c-1.4,1.1-2.5,2.4-3.5,3.8c-1.3,2-2.1,3.9-2.4,5.7c0,0.1,0,0.3-0.1,0.4c0,0.3,0,0.6-0.3,0.8l-0.1,0.1l-0.5,0v-0.3
					c-0.1-0.2-0.2-0.5-0.2-0.7c0-0.1,0-0.2-0.1-0.3c-0.6-2.2-1.5-4.2-2.6-5.8l0.2-0.3L69,200c-1.4-2-3.2-3.7-5.3-4.9l-0.7-0.4
					l0.7-0.3c2.6-0.9,4.6-2.8,5.8-5.2c-1.9,2.6-4.8,4.2-7.7,4.3c-0.9,0-1.8-0.1-2.7-0.4H59l-0.1-0.1c-0.4-0.1-0.7-0.3-1.1-0.4
					c-3.2-1.4-5.6-4.2-6.4-7.5c0-0.2-0.1-0.4-0.1-0.6c0-0.2-0.1-0.5-0.1-0.7c0-0.2,0-0.3,0-0.5c0-0.2,0-0.3,0-0.5
					c0-1.4,0.3-2.9,0.8-4.2l0-0.1c0.9-2,2.4-3.8,4.3-4.9c0.1-0.1,0.2-0.1,0.3-0.2l0.2-0.1c0.8-0.4,1.6-0.7,2.4-1l0.2-0.1l0,0
					c0.4-0.1,0.9-0.2,1.4-0.2C61.2,172,61.6,172,62,172z M72.7,182.5l-0.7,0c0-0.3,0-0.6,0-0.8c-0.1-0.5-0.1-1-0.3-1.4
					c0-0.1,0-0.1,0-0.2l0-0.1c0-0.1,0-0.2-0.1-0.2c0-0.2-0.1-0.3-0.2-0.5l0-0.1c0-0.1-0.1-0.2-0.1-0.4c-0.1-0.3-0.3-0.7-0.5-1
					c-0.1-0.1-0.1-0.2-0.2-0.3c-0.2-0.3-0.3-0.5-0.5-0.8l-0.1-0.1c-0.1-0.1-0.1-0.2-0.2-0.3c-0.2-0.2-0.4-0.4-0.6-0.6l-0.3-0.3
					c-0.3-0.3-0.7-0.6-1.1-0.9c-0.1-0.1-0.3-0.2-0.4-0.3c-0.3-0.2-0.5-0.3-0.8-0.5c-0.9-0.5-1.8-0.8-2.7-1c-0.3-0.1-0.6-0.1-0.9-0.1
					c-0.7-0.1-1.4-0.1-2,0c-0.5,0-1,0.1-1.4,0.3l-0.2,0.1l0,0c-0.7,0.2-1.4,0.5-2.1,0.8L57,174c-0.1,0.1-0.2,0.1-0.3,0.2
					c-1.8,1.1-3.2,2.7-4,4.7l0,0.1c-0.5,1.2-0.8,2.5-0.8,3.8c0,0.2,0,0.3,0,0.5c0,0.2,0,0.3,0,0.5c0,0.2,0.1,0.5,0.1,0.7
					c0,0.2,0.1,0.4,0.1,0.5c0.7,3.1,3,5.8,5.9,7c0.4,0.2,0.7,0.3,1.1,0.4l0,0c0.8,0.2,1.7,0.3,2.5,0.3c2.7-0.1,5.5-1.6,7.2-4
					c0.6-0.9,1.1-1.9,1.4-2.9l0.9-3l-0.2,3.1c0,0.3-0.1,0.7-0.2,1.1c-0.1,0.7-0.3,1.4-0.6,2.1c-1.1,2.6-3.1,4.7-5.7,5.8
					c1.9,1.3,3.6,2.9,4.9,4.7l-0.2,0.3l0.3-0.2c1.1,1.6,2,3.5,2.6,5.7c0.4-1.8,1.2-3.6,2.5-5.5c1-1.5,2.3-2.9,3.7-4
					c1.2-0.9,2.5-1.7,3.8-2.4c0.3-0.1,0.6-0.3,0.9-0.4c0.6-0.2,1.1-0.4,1.7-0.5l0.5-0.2c0.1,0,0.2-0.1,0.4-0.1
					c0.2,0,0.3-0.1,0.5-0.2c0.4-0.1,0.7-0.3,1-0.4c1.1-0.5,2.1-1.3,2.9-2.2c0.4-0.4,0.7-0.8,0.9-1.2c0.2-0.3,0.4-0.6,0.5-0.8
					c0.1-0.1,0.1-0.3,0.2-0.4c0.3-0.6,0.5-1.2,0.7-1.8c0.1-0.5,0.2-1,0.3-1.5l0-0.2c0-0.2,0-0.5,0-0.9c0-1.3-0.3-2.6-0.8-3.8l0-0.1
					c-0.8-1.9-2.2-3.6-4-4.7c-0.1-0.1-0.2-0.1-0.2-0.1l-0.2-0.1c-0.7-0.4-1.5-0.7-2.3-0.9c-0.5-0.1-1-0.2-1.5-0.3
					c-1-0.1-1.9-0.1-2.9,0.1l-0.4,0.1c-0.2,0-0.4,0.1-0.5,0.1l-0.4,0.1c-0.1,0-0.3,0.1-0.4,0.1c-0.3,0.1-0.6,0.2-0.9,0.4
					c-0.2,0.1-0.4,0.2-0.6,0.4c-0.1,0.1-0.1,0.1-0.1,0.1c-0.3,0.2-0.6,0.4-0.9,0.7l-0.3,0.3c-0.1,0-0.1,0.1-0.2,0.1
					c-0.1,0.1-0.1,0.1-0.2,0.2c-0.3,0.2-0.5,0.5-0.7,0.8l-0.1,0.1c0,0-0.1,0.1-0.1,0.1c-0.3,0.4-0.6,0.8-0.8,1.2
					c-0.5,0.9-0.9,1.8-1.1,2.9C72.8,181.1,72.7,181.8,72.7,182.5z"/>
			</g>
		</g>
		<g>
			<g>
				<path class="st3" d="M115.5,218.9c0,0.3,0,0.6,0,0.9c0.3,3.1,1.9,5.8,4.3,7.5c0.7,0.5,1.2,1.4,1.2,2.3v0h-17.6v0
					c0-0.9,0.5-1.8,1.2-2.3c2.3-1.7,3.9-4.3,4.2-7.4c0-0.3,0.1-0.7,0.1-1c0-4-2.2-7.4-5.5-9.2v-3.6h11.1c-0.3,0.6-0.5,1.3-0.6,2
					c-0.1,0.4-0.1,0.7-0.1,1.1c0.3-1.1,0.8-2.1,1.5-3.1h5.7v3.6C117.7,211.5,115.5,215,115.5,218.9z"/>
			</g>
			<g>
				<path class="st4" d="M121,230h-18v-0.4c0-1,0.5-2,1.4-2.6c2.3-1.7,3.8-4.3,4.1-7.1c0-0.3,0.1-0.7,0.1-1c0-3.7-2-7.1-5.3-8.8
					l-0.2-0.1v-4.2h12.1l0,0.1l0.1-0.1h6.2v4.2l-0.2,0.1c-3.3,1.7-5.3,5.1-5.3,8.8c0,0.3,0,0.6,0,0.9c0.2,2.9,1.7,5.5,4.1,7.3
					c0.9,0.6,1.4,1.6,1.4,2.6v0.4L121,230z M103.8,229.3h16.8c-0.1-0.7-0.5-1.2-1-1.7c-2.5-1.8-4.2-4.7-4.4-7.8c0-0.3,0-0.6,0-0.9
					c0-3.9,2.1-7.5,5.5-9.4v-3.1h-5.1c-0.6,0.8-1,1.8-1.3,2.8l-0.9,3.1l0.2-3.2c0-0.4,0.1-0.8,0.1-1.1c0.1-0.5,0.2-1.1,0.4-1.6
					h-10.2v3.1c3.4,1.9,5.5,5.5,5.5,9.4c0,0.4,0,0.8-0.1,1.1c-0.3,3-1.9,5.8-4.4,7.6C104.3,228.1,103.9,228.7,103.8,229.3z"/>
			</g>
			<g>
				<path class="st3" d="M133,212.4c0,1.4-0.3,2.8-0.8,4c0,0,0,0,0,0c-0.8,2-2.3,3.7-4.2,4.8c-0.1,0.1-0.3,0.2-0.4,0.3
					c-0.7,0.4-1.5,0.7-2.3,0.9c0,0,0,0,0,0c-0.5,0.1-1,0.2-1.5,0.3c-0.4,0-0.7,0.1-1.1,0.1c-0.4,0-0.7,0-1-0.1h0
					c-0.3,0-0.7-0.1-1-0.1c-1-0.2-1.9-0.5-2.8-1c-0.3-0.1-0.6-0.3-0.8-0.5c-0.1-0.1-0.3-0.2-0.4-0.3c-0.4-0.3-0.8-0.6-1.1-0.9
					c-0.1-0.1-0.2-0.2-0.3-0.3c-0.2-0.2-0.4-0.4-0.6-0.7c-0.1-0.1-0.2-0.3-0.3-0.4c-0.2-0.3-0.4-0.5-0.6-0.8
					c-0.1-0.1-0.1-0.2-0.2-0.4c-0.2-0.3-0.3-0.7-0.5-1c-0.1-0.1-0.1-0.3-0.2-0.5c-0.1-0.2-0.1-0.3-0.2-0.5c0-0.1-0.1-0.2-0.1-0.3
					c0-0.1,0-0.1-0.1-0.2c-0.1-0.5-0.2-1-0.3-1.5c0-0.3,0-0.6,0-0.9c0,0.7-0.1,1.4-0.3,2.1c-0.2,1.1-0.6,2.1-1.2,3
					c-0.2,0.4-0.5,0.8-0.8,1.2c-0.1,0.1-0.1,0.2-0.2,0.3c-0.2,0.3-0.5,0.5-0.7,0.8c-0.1,0.1-0.1,0.1-0.2,0.2
					c-0.1,0.1-0.2,0.2-0.3,0.3c-0.1,0.1-0.2,0.1-0.2,0.2c-0.3,0.2-0.6,0.5-0.9,0.7c0,0-0.1,0.1-0.2,0.1c-0.2,0.1-0.5,0.3-0.7,0.4
					c-0.3,0.1-0.6,0.3-0.9,0.4c-0.1,0.1-0.3,0.1-0.4,0.2c-0.1,0-0.3,0.1-0.5,0.1c-0.2,0-0.4,0.1-0.6,0.1c-0.1,0-0.3,0-0.4,0.1
					c-0.6,0.1-1.3,0.2-2,0.2c-0.4,0-0.7,0-1.1-0.1c-0.5,0-1-0.1-1.5-0.3c-0.8-0.2-1.6-0.5-2.4-0.9c-0.1-0.1-0.3-0.2-0.4-0.3
					c-1.9-1.1-3.3-2.8-4.2-4.8c0,0,0,0,0,0c-0.5-1.2-0.8-2.6-0.8-4c0-0.3,0-0.7,0-1c0,0,0-0.1,0-0.1c0-0.5,0.1-1,0.3-1.5
					c0.2-0.7,0.4-1.3,0.7-1.9c0.1-0.1,0.1-0.3,0.2-0.4c0.2-0.3,0.3-0.6,0.5-0.9c0.3-0.4,0.6-0.8,1-1.2c0.9-0.9,1.9-1.7,3-2.3
					c0.3-0.2,0.7-0.3,1-0.4c0.1-0.1,0.3-0.1,0.5-0.2c0.2-0.1,0.3-0.1,0.5-0.2c0,0,0,0,0,0c0.7-0.2,1.4-0.4,2-0.6
					c0.3-0.1,0.6-0.2,0.9-0.4c1.3-0.6,2.6-1.4,3.7-2.3c1.4-1.1,2.6-2.5,3.6-3.9c1.2-1.7,2.2-3.7,2.5-5.8c0-0.1,0-0.3,0.1-0.4
					c0-0.1,0-0.5,0.2-0.5c0,0,0,0,0,0c0,0,0,0,0,0c0.2,0.3,0.2,0.7,0.3,1c0.6,2.1,1.4,4.1,2.7,5.9c0,0,0,0,0.1,0.1
					c1.4,2,3.3,3.8,5.4,5c-2.7,0.9-5,3.1-6.2,5.8c-0.3,0.6-0.4,1.3-0.6,2c-0.1,0.4-0.1,0.7-0.1,1.1c0.3-1.1,0.8-2.1,1.5-3
					c1.7-2.4,4.5-4.1,7.5-4.2c0.9,0,1.8,0.1,2.7,0.4c0,0,0,0,0,0c0.4,0.1,0.8,0.3,1.1,0.4c3.1,1.3,5.4,4.1,6.1,7.3
					c0,0.2,0.1,0.4,0.1,0.6c0,0.2,0.1,0.5,0.1,0.7c0,0.2,0,0.3,0,0.5C133,212.1,133,212.3,133,212.4z"/>
			</g>
			<g>
				<path class="st4" d="M122.6,223.2c-0.4,0-0.7,0-1.1-0.1c-0.4,0-0.7-0.1-1-0.2c-1-0.2-2-0.5-2.9-1c-0.3-0.1-0.6-0.3-0.9-0.5
					c-0.1-0.1-0.3-0.2-0.4-0.3c-0.4-0.3-0.8-0.6-1.1-0.9l-0.3-0.3c-0.2-0.2-0.4-0.4-0.6-0.7c-0.1-0.1-0.1-0.2-0.2-0.3l-0.1-0.1
					c-0.2-0.3-0.4-0.6-0.6-0.9c-0.1-0.1-0.1-0.2-0.2-0.3c-0.2-0.4-0.4-0.7-0.5-1.1c-0.1-0.1-0.1-0.3-0.2-0.4
					c-0.1-0.2-0.2-0.4-0.2-0.6c0-0.1-0.1-0.2-0.1-0.3c0,0,0-0.1,0-0.1c-0.2,0.9-0.6,1.8-1.1,2.6c-0.2,0.4-0.5,0.8-0.9,1.2
					c0,0.1-0.1,0.1-0.1,0.2l-0.1,0.1c-0.2,0.3-0.5,0.6-0.8,0.8c-0.1,0.1-0.1,0.1-0.2,0.2c-0.1,0.1-0.1,0.1-0.2,0.2l-0.4,0.3
					c-0.3,0.3-0.7,0.5-1,0.7c0,0-0.1,0.1-0.2,0.1c-0.2,0.1-0.5,0.3-0.7,0.4c-0.3,0.1-0.6,0.3-0.9,0.4c-0.2,0.1-0.3,0.1-0.5,0.2
					l-0.5,0.1c-0.2,0.1-0.4,0.1-0.6,0.2l-0.4,0.1c-1.1,0.2-2.1,0.3-3.2,0.1c-0.5,0-1-0.1-1.6-0.3c-0.9-0.2-1.7-0.5-2.4-1l-0.2-0.1
					c-0.1-0.1-0.2-0.1-0.3-0.2c-1.9-1.1-3.4-2.9-4.3-4.9l0-0.1c-0.6-1.3-0.8-2.7-0.8-4.2c0-0.3,0-0.7,0-1c0.1-0.6,0.2-1.2,0.3-1.7
					c0.2-0.7,0.4-1.3,0.7-2c0.1-0.1,0.1-0.3,0.2-0.5c0.2-0.3,0.4-0.6,0.5-0.9c0.3-0.4,0.6-0.8,1-1.3c0.9-1,2-1.8,3.1-2.4
					c0.3-0.2,0.7-0.3,1.1-0.4c0.1-0.1,0.3-0.1,0.5-0.2c0.1,0,0.2-0.1,0.4-0.1l0.6-0.2c0.5-0.1,1.1-0.3,1.6-0.5
					c0.3-0.1,0.6-0.2,0.8-0.4c1.3-0.6,2.5-1.4,3.7-2.3c1.4-1.1,2.5-2.4,3.5-3.8c1.3-2,2.1-3.9,2.4-5.7c0-0.1,0-0.3,0.1-0.4
					c0-0.3,0-0.6,0.3-0.8l0.1-0.1l0.5,0v0.3c0.1,0.2,0.2,0.5,0.2,0.7c0,0.1,0,0.2,0.1,0.3c0.6,2.2,1.5,4.2,2.6,5.8l-0.2,0.3l0.3-0.2
					c1.4,2,3.2,3.7,5.3,4.9l0.7,0.4l-0.7,0.3c-2.6,0.9-4.6,2.8-5.8,5.2c1.9-2.6,4.8-4.2,7.7-4.3c0.9,0,1.8,0.1,2.7,0.4h0.1l0.1,0.1
					c0.4,0.1,0.7,0.3,1.1,0.4c3.2,1.4,5.6,4.2,6.4,7.5c0,0.2,0.1,0.4,0.1,0.6c0,0.2,0.1,0.5,0.1,0.7c0,0.2,0,0.3,0,0.5
					c0,0.2,0,0.3,0,0.5c0,1.4-0.3,2.9-0.8,4.2l0,0.1c-0.9,2-2.4,3.8-4.3,4.9c-0.1,0.1-0.2,0.1-0.3,0.2l-0.2,0.1
					c-0.8,0.4-1.6,0.7-2.4,1l-0.2,0.1l0,0c-0.4,0.1-0.9,0.2-1.4,0.2C123.3,223.2,123,223.2,122.6,223.2z M111.9,212.6l0.7,0
					c0,0.3,0,0.6,0,0.8c0.1,0.5,0.1,1,0.3,1.4c0,0.1,0,0.1,0,0.2l0,0.1c0,0.1,0,0.2,0.1,0.2c0,0.2,0.1,0.3,0.2,0.5l0,0.1
					c0,0.1,0.1,0.2,0.1,0.4c0.1,0.3,0.3,0.7,0.5,1c0.1,0.1,0.1,0.2,0.2,0.3c0.2,0.3,0.3,0.5,0.5,0.8l0.1,0.1
					c0.1,0.1,0.1,0.2,0.2,0.3c0.2,0.2,0.4,0.4,0.6,0.6l0.3,0.3c0.3,0.3,0.7,0.6,1.1,0.9c0.1,0.1,0.3,0.2,0.4,0.3
					c0.3,0.2,0.5,0.3,0.8,0.5c0.9,0.5,1.8,0.8,2.7,1c0.3,0.1,0.6,0.1,0.9,0.1c0.7,0.1,1.4,0.1,2,0c0.5,0,1-0.1,1.4-0.3l0.2-0.1l0,0
					c0.7-0.2,1.4-0.5,2.1-0.8l0.2-0.1c0.1-0.1,0.2-0.1,0.3-0.2c1.8-1.1,3.2-2.7,4-4.7l0-0.1c0.5-1.2,0.8-2.5,0.8-3.8
					c0-0.2,0-0.3,0-0.5c0-0.2,0-0.3,0-0.5c0-0.2-0.1-0.5-0.1-0.7c0-0.2-0.1-0.4-0.1-0.5c-0.7-3.1-3-5.8-5.9-7
					c-0.4-0.2-0.7-0.3-1.1-0.4l0,0c-0.8-0.2-1.7-0.3-2.5-0.3c-2.7,0.1-5.5,1.6-7.2,4c-0.6,0.9-1.1,1.9-1.4,2.9l-0.9,3l0.2-3.1
					c0-0.3,0.1-0.7,0.2-1.1c0.1-0.7,0.3-1.4,0.6-2.1c1.1-2.6,3.1-4.7,5.7-5.8c-1.9-1.3-3.6-2.9-4.9-4.7l0.2-0.3l-0.3,0.2
					c-1.1-1.6-2-3.5-2.6-5.7c-0.4,1.8-1.2,3.6-2.5,5.5c-1,1.5-2.3,2.9-3.7,4c-1.2,0.9-2.5,1.7-3.8,2.4c-0.3,0.1-0.6,0.3-0.9,0.4
					c-0.6,0.2-1.1,0.4-1.7,0.5l-0.5,0.2c-0.1,0-0.2,0.1-0.4,0.1c-0.2,0-0.3,0.1-0.5,0.2c-0.4,0.1-0.7,0.3-1,0.4
					c-1.1,0.5-2.1,1.3-2.9,2.2c-0.4,0.4-0.7,0.8-0.9,1.2c-0.2,0.3-0.4,0.6-0.5,0.8c-0.1,0.1-0.1,0.3-0.2,0.4
					c-0.3,0.6-0.5,1.2-0.7,1.8c-0.1,0.5-0.2,1-0.3,1.5l0,0.2c0,0.2,0,0.5,0,0.9c0,1.3,0.3,2.6,0.8,3.8l0,0.1c0.8,1.9,2.2,3.6,4,4.7
					c0.1,0.1,0.2,0.1,0.2,0.1l0.2,0.1c0.7,0.4,1.5,0.7,2.3,0.9c0.5,0.1,1,0.2,1.5,0.3c1,0.1,1.9,0.1,2.9-0.1l0.4-0.1
					c0.2,0,0.4-0.1,0.5-0.1l0.4-0.1c0.1,0,0.3-0.1,0.4-0.1c0.3-0.1,0.6-0.2,0.9-0.4c0.2-0.1,0.4-0.2,0.6-0.4
					c0.1-0.1,0.1-0.1,0.1-0.1c0.3-0.2,0.6-0.4,0.9-0.7l0.3-0.3c0.1,0,0.1-0.1,0.2-0.1c0.1-0.1,0.1-0.1,0.2-0.2
					c0.3-0.2,0.5-0.5,0.7-0.8l0.1-0.1c0,0,0.1-0.1,0.1-0.1c0.3-0.4,0.6-0.8,0.8-1.2c0.5-0.9,0.9-1.8,1.1-2.9
					C111.8,214,111.8,213.3,111.9,212.6z"/>
			</g>
		</g>
		<g>
			<g>
				<path class="st3" d="M148.4,176.2c0-0.3,0-0.6,0-0.9c-0.3-3.1-1.9-5.8-4.3-7.5c-0.7-0.5-1.2-1.4-1.2-2.3v0h17.6v0
					c0,0.9-0.5,1.8-1.2,2.3c-2.3,1.7-3.9,4.3-4.2,7.4c0,0.3-0.1,0.7-0.1,1c0,4,2.2,7.4,5.5,9.2v3.6h-11.1c0.3-0.6,0.5-1.3,0.6-2
					c0.1-0.4,0.1-0.7,0.1-1.1c-0.3,1.1-0.8,2.1-1.5,3.1h-5.7v-3.6C146.2,183.6,148.4,180.2,148.4,176.2z"/>
			</g>
			<g>
				<path class="st4" d="M142.9,165.1h18v0.4c0,1-0.5,2-1.4,2.6c-2.3,1.7-3.8,4.3-4.1,7.1c0,0.3-0.1,0.7-0.1,1c0,3.7,2,7.1,5.3,8.8
					l0.2,0.1v4.2h-12.1l0-0.1l-0.1,0.1h-6.2v-4.2l0.2-0.1c3.3-1.7,5.3-5.1,5.3-8.8c0-0.3,0-0.6,0-0.9c-0.2-2.9-1.7-5.5-4.1-7.3
					c-0.9-0.6-1.4-1.6-1.4-2.6v-0.4L142.9,165.1z M160.1,165.8h-16.8c0.1,0.7,0.5,1.2,1,1.7c2.5,1.8,4.2,4.7,4.4,7.8
					c0,0.3,0,0.6,0,0.9c0,3.9-2.1,7.5-5.5,9.4v3.1h5.1c0.6-0.8,1-1.8,1.3-2.8l0.9-3.1l-0.2,3.2c0,0.4-0.1,0.8-0.1,1.1
					c-0.1,0.5-0.2,1.1-0.4,1.6h10.2v-3.1c-3.4-1.9-5.5-5.5-5.5-9.4c0-0.4,0-0.8,0.1-1.1c0.3-3,1.9-5.8,4.4-7.6
					C159.6,167.1,160,166.5,160.1,165.8z"/>
			</g>
			<g>
				<path class="st3" d="M130.9,182.7c0-1.4,0.3-2.8,0.8-4c0,0,0,0,0,0c0.8-2,2.3-3.7,4.2-4.8c0.1-0.1,0.3-0.2,0.4-0.3
					c0.7-0.4,1.5-0.7,2.3-0.9c0,0,0,0,0,0c0.5-0.1,1-0.2,1.5-0.3c0.4,0,0.7-0.1,1.1-0.1c0.4,0,0.7,0,1,0.1h0c0.3,0,0.7,0.1,1,0.1
					c1,0.2,1.9,0.5,2.8,1c0.3,0.1,0.6,0.3,0.8,0.5c0.1,0.1,0.3,0.2,0.4,0.3c0.4,0.3,0.8,0.6,1.1,0.9c0.1,0.1,0.2,0.2,0.3,0.3
					c0.2,0.2,0.4,0.4,0.6,0.7c0.1,0.1,0.2,0.3,0.3,0.4c0.2,0.3,0.4,0.5,0.6,0.8c0.1,0.1,0.1,0.2,0.2,0.4c0.2,0.3,0.3,0.7,0.5,1
					c0.1,0.1,0.1,0.3,0.2,0.5c0.1,0.2,0.1,0.3,0.2,0.5c0,0.1,0.1,0.2,0.1,0.3c0,0.1,0,0.1,0.1,0.2c0.1,0.5,0.2,1,0.3,1.5
					c0,0.3,0,0.6,0,0.9c0-0.7,0.1-1.4,0.3-2.1c0.2-1.1,0.6-2.1,1.2-3c0.2-0.4,0.5-0.8,0.8-1.2c0.1-0.1,0.1-0.2,0.2-0.3
					c0.2-0.3,0.5-0.5,0.7-0.8c0.1-0.1,0.1-0.1,0.2-0.2c0.1-0.1,0.2-0.2,0.3-0.3c0.1-0.1,0.2-0.1,0.2-0.2c0.3-0.2,0.6-0.5,0.9-0.7
					c0,0,0.1-0.1,0.2-0.1c0.2-0.1,0.5-0.3,0.7-0.4c0.3-0.1,0.6-0.3,0.9-0.4c0.1-0.1,0.3-0.1,0.4-0.2c0.1,0,0.3-0.1,0.5-0.1
					c0.2,0,0.4-0.1,0.6-0.1c0.1,0,0.3,0,0.4-0.1c0.6-0.1,1.3-0.2,2-0.2c0.4,0,0.7,0,1.1,0.1c0.5,0,1,0.1,1.5,0.3
					c0.8,0.2,1.6,0.5,2.4,0.9c0.1,0.1,0.3,0.2,0.4,0.3c1.9,1.1,3.3,2.8,4.2,4.8c0,0,0,0,0,0c0.5,1.2,0.8,2.6,0.8,4c0,0.3,0,0.7,0,1
					c0,0,0,0.1,0,0.1c0,0.5-0.1,1-0.3,1.5c-0.2,0.7-0.4,1.3-0.7,1.9c-0.1,0.1-0.1,0.3-0.2,0.4c-0.2,0.3-0.3,0.6-0.5,0.9
					c-0.3,0.4-0.6,0.8-1,1.2c-0.9,0.9-1.9,1.7-3,2.3c-0.3,0.2-0.7,0.3-1,0.4c-0.1,0.1-0.3,0.1-0.5,0.2c-0.2,0.1-0.3,0.1-0.5,0.2
					c0,0,0,0,0,0c-0.7,0.2-1.4,0.4-2,0.6c-0.3,0.1-0.6,0.2-0.9,0.4c-1.3,0.6-2.6,1.4-3.7,2.3c-1.4,1.1-2.6,2.5-3.6,3.9
					c-1.2,1.7-2.2,3.7-2.5,5.8c0,0.1,0,0.3-0.1,0.4c0,0.1,0,0.5-0.2,0.5c0,0,0,0,0,0c0,0,0,0,0,0c-0.2-0.3-0.2-0.7-0.3-1
					c-0.6-2.1-1.4-4.1-2.7-5.9c0,0,0,0-0.1-0.1c-1.4-2-3.3-3.8-5.4-5c2.7-0.9,5-3.1,6.2-5.8c0.3-0.6,0.4-1.3,0.6-2
					c0.1-0.4,0.1-0.7,0.1-1.1c-0.3,1.1-0.8,2.1-1.5,3c-1.7,2.4-4.5,4.1-7.5,4.2c-0.9,0-1.8-0.1-2.7-0.4c0,0,0,0,0,0
					c-0.4-0.1-0.8-0.3-1.1-0.4c-3.1-1.3-5.4-4.1-6.1-7.3c0-0.2-0.1-0.4-0.1-0.6c0-0.2-0.1-0.5-0.1-0.7c0-0.2,0-0.3,0-0.5
					C130.9,183.1,130.9,182.9,130.9,182.7z"/>
			</g>
			<g>
				<path class="st4" d="M141.3,172c0.4,0,0.7,0,1.1,0.1c0.4,0,0.7,0.1,1,0.2c1,0.2,2,0.5,2.9,1c0.3,0.1,0.6,0.3,0.9,0.5
					c0.1,0.1,0.3,0.2,0.4,0.3c0.4,0.3,0.8,0.6,1.1,0.9l0.3,0.3c0.2,0.2,0.4,0.4,0.6,0.7c0.1,0.1,0.1,0.2,0.2,0.3l0.1,0.1
					c0.2,0.3,0.4,0.6,0.6,0.9c0.1,0.1,0.1,0.2,0.2,0.3c0.2,0.4,0.4,0.7,0.5,1.1c0.1,0.1,0.1,0.3,0.2,0.4c0.1,0.2,0.2,0.4,0.2,0.6
					c0,0.1,0.1,0.2,0.1,0.3c0,0,0,0.1,0,0.1c0.2-0.9,0.6-1.8,1.1-2.6c0.2-0.4,0.5-0.8,0.9-1.2c0-0.1,0.1-0.1,0.1-0.2l0.1-0.1
					c0.2-0.3,0.5-0.6,0.8-0.8c0.1-0.1,0.1-0.1,0.2-0.2c0.1-0.1,0.1-0.1,0.2-0.2l0.4-0.3c0.3-0.3,0.7-0.5,1-0.7c0,0,0.1-0.1,0.2-0.1
					c0.2-0.1,0.5-0.3,0.7-0.4c0.3-0.1,0.6-0.3,0.9-0.4c0.2-0.1,0.3-0.1,0.5-0.2l0.5-0.1c0.2-0.1,0.4-0.1,0.6-0.2l0.4-0.1
					c1.1-0.2,2.1-0.3,3.2-0.1c0.5,0,1,0.1,1.6,0.3c0.9,0.2,1.7,0.5,2.4,1l0.2,0.1c0.1,0.1,0.2,0.1,0.3,0.2c1.9,1.1,3.4,2.9,4.3,4.9
					l0,0.1c0.6,1.3,0.8,2.7,0.8,4.2c0,0.3,0,0.7,0,1c-0.1,0.6-0.2,1.2-0.3,1.7c-0.2,0.7-0.4,1.3-0.7,2c-0.1,0.1-0.1,0.3-0.2,0.5
					c-0.2,0.3-0.4,0.6-0.5,0.9c-0.3,0.4-0.6,0.8-1,1.3c-0.9,1-2,1.8-3.1,2.4c-0.3,0.2-0.7,0.3-1.1,0.4c-0.1,0.1-0.3,0.1-0.5,0.2
					c-0.1,0-0.2,0.1-0.4,0.1l-0.6,0.2c-0.5,0.1-1.1,0.3-1.6,0.5c-0.3,0.1-0.6,0.2-0.8,0.4c-1.3,0.6-2.5,1.4-3.7,2.3
					c-1.4,1.1-2.5,2.4-3.5,3.8c-1.3,2-2.1,3.9-2.4,5.7c0,0.1,0,0.3-0.1,0.4c0,0.3,0,0.6-0.3,0.8l-0.1,0.1l-0.5,0v-0.3
					c-0.1-0.2-0.2-0.5-0.2-0.7c0-0.1,0-0.2-0.1-0.3c-0.6-2.2-1.5-4.2-2.6-5.8l0.2-0.3l-0.3,0.2c-1.4-2-3.2-3.7-5.3-4.9l-0.7-0.4
					l0.7-0.3c2.6-0.9,4.6-2.8,5.8-5.2c-1.9,2.6-4.8,4.2-7.7,4.3c-0.9,0-1.8-0.1-2.7-0.4h-0.1l-0.1-0.1c-0.4-0.1-0.7-0.3-1.1-0.4
					c-3.2-1.4-5.6-4.2-6.4-7.5c0-0.2-0.1-0.4-0.1-0.6c0-0.2-0.1-0.5-0.1-0.7c0-0.2,0-0.3,0-0.5c0-0.2,0-0.3,0-0.5
					c0-1.4,0.3-2.9,0.8-4.2l0-0.1c0.9-2,2.4-3.8,4.3-4.9c0.1-0.1,0.2-0.1,0.3-0.2l0.2-0.1c0.8-0.4,1.6-0.7,2.4-1l0.2-0.1l0,0
					c0.4-0.1,0.9-0.2,1.4-0.2C140.5,172,140.9,172,141.3,172z M152,182.5l-0.7,0c0-0.3,0-0.6,0-0.8c-0.1-0.5-0.1-1-0.3-1.4
					c0-0.1,0-0.1,0-0.2l0-0.1c0-0.1,0-0.2-0.1-0.2c0-0.2-0.1-0.3-0.2-0.5l0-0.1c0-0.1-0.1-0.2-0.1-0.4c-0.1-0.3-0.3-0.7-0.5-1
					c-0.1-0.1-0.1-0.2-0.2-0.3c-0.2-0.3-0.3-0.5-0.5-0.8l-0.1-0.1c-0.1-0.1-0.1-0.2-0.2-0.3c-0.2-0.2-0.4-0.4-0.6-0.6l-0.3-0.3
					c-0.3-0.3-0.7-0.6-1.1-0.9c-0.1-0.1-0.3-0.2-0.4-0.3c-0.3-0.2-0.5-0.3-0.8-0.5c-0.9-0.5-1.8-0.8-2.7-1c-0.3-0.1-0.6-0.1-0.9-0.1
					c-0.7-0.1-1.4-0.1-2,0c-0.5,0-1,0.1-1.4,0.3l-0.2,0.1l0,0c-0.7,0.2-1.4,0.5-2.1,0.8l-0.2,0.1c-0.1,0.1-0.2,0.1-0.3,0.2
					c-1.8,1.1-3.2,2.7-4,4.7l0,0.1c-0.5,1.2-0.8,2.5-0.8,3.8c0,0.2,0,0.3,0,0.5c0,0.2,0,0.3,0,0.5c0,0.2,0.1,0.5,0.1,0.7
					c0,0.2,0.1,0.4,0.1,0.5c0.7,3.1,3,5.8,5.9,7c0.4,0.2,0.7,0.3,1.1,0.4l0,0c0.8,0.2,1.7,0.3,2.5,0.3c2.7-0.1,5.5-1.6,7.2-4
					c0.6-0.9,1.1-1.9,1.4-2.9l0.9-3l-0.2,3.1c0,0.3-0.1,0.7-0.2,1.1c-0.1,0.7-0.3,1.4-0.6,2.1c-1.1,2.6-3.1,4.7-5.7,5.8
					c1.9,1.3,3.6,2.9,4.9,4.7l-0.2,0.3l0.3-0.2c1.1,1.6,2,3.5,2.6,5.7c0.4-1.8,1.2-3.6,2.5-5.5c1-1.5,2.3-2.9,3.7-4
					c1.2-0.9,2.5-1.7,3.8-2.4c0.3-0.1,0.6-0.3,0.9-0.4c0.6-0.2,1.1-0.4,1.7-0.5l0.5-0.2c0.1,0,0.2-0.1,0.4-0.1
					c0.2,0,0.3-0.1,0.5-0.2c0.4-0.1,0.7-0.3,1-0.4c1.1-0.5,2.1-1.3,2.9-2.2c0.4-0.4,0.7-0.8,0.9-1.2c0.2-0.3,0.4-0.6,0.5-0.8
					c0.1-0.1,0.1-0.3,0.2-0.4c0.3-0.6,0.5-1.2,0.7-1.8c0.1-0.5,0.2-1,0.3-1.5l0-0.2c0-0.2,0-0.5,0-0.9c0-1.3-0.3-2.6-0.8-3.8l0-0.1
					c-0.8-1.9-2.2-3.6-4-4.7c-0.1-0.1-0.2-0.1-0.2-0.1l-0.2-0.1c-0.7-0.4-1.5-0.7-2.3-0.9c-0.5-0.1-1-0.2-1.5-0.3
					c-1-0.1-1.9-0.1-2.9,0.1l-0.4,0.1c-0.2,0-0.4,0.1-0.5,0.1l-0.4,0.1c-0.1,0-0.3,0.1-0.4,0.1c-0.3,0.1-0.6,0.2-0.9,0.4
					c-0.2,0.1-0.4,0.2-0.6,0.4c-0.1,0.1-0.1,0.1-0.1,0.1c-0.3,0.2-0.6,0.4-0.9,0.7l-0.3,0.3c-0.1,0-0.1,0.1-0.2,0.1
					c-0.1,0.1-0.1,0.1-0.2,0.2c-0.3,0.2-0.5,0.5-0.7,0.8l-0.1,0.1c0,0-0.1,0.1-0.1,0.1c-0.3,0.4-0.6,0.8-0.8,1.2
					c-0.5,0.9-0.9,1.8-1.1,2.9C152.1,181.1,152,181.8,152,182.5z"/>
			</g>
		</g>
	</g>
</g>
</svg>
