<?xml version="1.0" encoding="utf-8"?>
<!-- Generator: Adobe Illustrator 25.2.0, SVG Export Plug-In . SVG Version: 6.00 Build 0)  -->
<svg version="1.1" id="Layer_1" xmlns="http://www.w3.org/2000/svg" xmlns:xlink="http://www.w3.org/1999/xlink" x="0px" y="0px"
	 viewBox="0 0 1920 526.79" style="enable-background:new 0 0 1920 526.79;" xml:space="preserve">
<style type="text/css">
	.st0{fill:#090224;}
	.st1{clip-path:url(#SVGID_1_);}
	.st2{fill:#0F0638;}
</style>
<g>
	<rect x="0.18" class="st0" width="1920" height="526.79"/>
	<g>
		<defs>
			<rect id="SVGID_3_" width="1920" height="526.79"/>
		</defs>
		<clipPath id="SVGID_1_">
			<use xlink:href="#SVGID_3_"  style="overflow:visible;"/>
		</clipPath>
		<g class="st1">
			<g>
				<g>
					<g>
						<g>
							<path class="st2" d="M-89.16-5.53c4.21,2.43,4.21,8.51,0,10.94l-40.75,23.53l-40.75,23.53c-4.21,2.43-9.48-0.61-9.48-5.47
								V-0.06v-47.05c0-4.86,5.26-7.9,9.48-5.47l40.75,23.53L-89.16-5.53z"/>
							<path class="st2" d="M-165.6,70.79c-4.21-2.43-4.21-8.51,0-10.94l40.75-23.53l40.75-23.53c4.21-2.43,9.48,0.61,9.48,5.47
								v47.05v47.05c0,4.86-5.26,7.9-9.48,5.47l-40.75-23.53L-165.6,70.79z"/>
						</g>
						<g>
							<path class="st2" d="M-89.16-137.05c4.21,2.43,4.21,8.51,0,10.94l-40.75,23.53l-40.75,23.53c-4.21,2.43-9.48-0.61-9.48-5.47
								v-47.05v-47.05c0-4.86,5.26-7.9,9.48-5.47l40.75,23.53L-89.16-137.05z"/>
							<path class="st2" d="M-165.6-60.72c-4.21-2.43-4.21-8.51,0-10.94l40.75-23.53l40.75-23.53c4.21-2.43,9.48,0.61,9.48,5.47
								v47.05v47.05c0,4.86-5.26,7.9-9.48,5.47l-40.75-23.53L-165.6-60.72z"/>
						</g>
						<g>
							<path class="st2" d="M-89.16,124.47c4.21,2.43,4.21,8.51,0,10.94l-40.75,23.53l-40.75,23.53c-4.21,2.43-9.48-0.61-9.48-5.47
								v-47.05V82.89c0-4.86,5.26-7.9,9.48-5.47l40.75,23.53L-89.16,124.47z"/>
							<path class="st2" d="M-165.6,200.8c-4.21-2.43-4.21-8.51,0-10.94l40.75-23.53l40.75-23.53c4.21-2.43,9.48,0.61,9.48,5.47
								v47.05v47.05c0,4.86-5.26,7.9-9.48,5.47l-40.75-23.53L-165.6,200.8z"/>
						</g>
					</g>
					<g>
						<g>
							<path class="st2" d="M24.21-5.53c4.21,2.43,4.21,8.51,0,10.94l-40.75,23.53l-40.75,23.53c-4.21,2.43-9.48-0.61-9.48-5.47
								V-0.06v-47.05c0-4.86,5.26-7.9,9.48-5.47l40.75,23.53L24.21-5.53z"/>
							<path class="st2" d="M-52.23,70.79c-4.21-2.43-4.21-8.51,0-10.94l40.75-23.53L29.27,12.8c4.21-2.43,9.48,0.61,9.48,5.47
								v47.05v47.05c0,4.86-5.26,7.9-9.48,5.47l-40.75-23.53L-52.23,70.79z"/>
						</g>
						<g>
							<path class="st2" d="M24.21-137.05c4.21,2.43,4.21,8.51,0,10.94l-40.75,23.53l-40.75,23.53c-4.21,2.43-9.48-0.61-9.48-5.47
								v-47.05v-47.05c0-4.86,5.26-7.9,9.48-5.47l40.75,23.53L24.21-137.05z"/>
							<path class="st2" d="M-52.23-60.72c-4.21-2.43-4.21-8.51,0-10.94l40.75-23.53l40.75-23.53c4.21-2.43,9.48,0.61,9.48,5.47
								v47.05v47.05c0,4.86-5.26,7.9-9.48,5.47L-11.48-37.2L-52.23-60.72z"/>
						</g>
						<g>
							<path class="st2" d="M24.21,124.47c4.21,2.43,4.21,8.51,0,10.94l-40.75,23.53l-40.75,23.53c-4.21,2.43-9.48-0.61-9.48-5.47
								v-47.05V82.89c0-4.86,5.26-7.9,9.48-5.47l40.75,23.53L24.21,124.47z"/>
							<path class="st2" d="M-52.23,200.8c-4.21-2.43-4.21-8.51,0-10.94l40.75-23.53l40.75-23.53c4.21-2.43,9.48,0.61,9.48,5.47
								v47.05v47.05c0,4.86-5.26,7.9-9.48,5.47l-40.75-23.53L-52.23,200.8z"/>
						</g>
					</g>
					<g>
						<g>
							<path class="st2" d="M137.59-5.53c4.21,2.43,4.21,8.51,0,10.94L96.84,28.93L56.09,52.46c-4.21,2.43-9.48-0.61-9.48-5.47
								V-0.06v-47.05c0-4.86,5.26-7.9,9.48-5.47l40.75,23.53L137.59-5.53z"/>
							<path class="st2" d="M61.15,70.79c-4.21-2.43-4.21-8.51,0-10.94l40.75-23.53l40.75-23.53c4.21-2.43,9.48,0.61,9.48,5.47
								v47.05v47.05c0,4.86-5.26,7.9-9.48,5.47l-40.75-23.53L61.15,70.79z"/>
						</g>
						<g>
							<path class="st2" d="M137.59-137.05c4.21,2.43,4.21,8.51,0,10.94l-40.75,23.53L56.09-79.06c-4.21,2.43-9.48-0.61-9.48-5.47
								v-47.05v-47.05c0-4.86,5.26-7.9,9.48-5.47l40.75,23.53L137.59-137.05z"/>
							<path class="st2" d="M61.15-60.72c-4.21-2.43-4.21-8.51,0-10.94l40.75-23.53l40.75-23.53c4.21-2.43,9.48,0.61,9.48,5.47
								v47.05v47.05c0,4.86-5.26,7.9-9.48,5.47L101.89-37.2L61.15-60.72z"/>
						</g>
						<g>
							<path class="st2" d="M137.59,124.47c4.21,2.43,4.21,8.51,0,10.94l-40.75,23.53l-40.75,23.53c-4.21,2.43-9.48-0.61-9.48-5.47
								v-47.05V82.89c0-4.86,5.26-7.9,9.48-5.47l40.75,23.53L137.59,124.47z"/>
							<path class="st2" d="M61.15,200.8c-4.21-2.43-4.21-8.51,0-10.94l40.75-23.53l40.75-23.53c4.21-2.43,9.48,0.61,9.48,5.47
								v47.05v47.05c0,4.86-5.26,7.9-9.48,5.47l-40.75-23.53L61.15,200.8z"/>
						</g>
					</g>
					<g>
						<g>
							<path class="st2" d="M250.96-5.53c4.21,2.43,4.21,8.51,0,10.94l-40.75,23.53l-40.75,23.53c-4.21,2.43-9.48-0.61-9.48-5.47
								V-0.06v-47.05c0-4.86,5.26-7.9,9.48-5.47l40.75,23.53L250.96-5.53z"/>
							<path class="st2" d="M174.52,70.79c-4.21-2.43-4.21-8.51,0-10.94l40.75-23.53l40.75-23.53c4.21-2.43,9.48,0.61,9.48,5.47
								v47.05v47.05c0,4.86-5.26,7.9-9.48,5.47l-40.75-23.53L174.52,70.79z"/>
						</g>
						<g>
							<path class="st2" d="M250.96-137.05c4.21,2.43,4.21,8.51,0,10.94l-40.75,23.53l-40.75,23.53c-4.21,2.43-9.48-0.61-9.48-5.47
								v-47.05v-47.05c0-4.86,5.26-7.9,9.48-5.47l40.75,23.53L250.96-137.05z"/>
							<path class="st2" d="M174.52-60.72c-4.21-2.43-4.21-8.51,0-10.94l40.75-23.53l40.75-23.53c4.21-2.43,9.48,0.61,9.48,5.47
								v47.05v47.05c0,4.86-5.26,7.9-9.48,5.47L215.27-37.2L174.52-60.72z"/>
						</g>
						<g>
							<path class="st2" d="M250.96,124.47c4.21,2.43,4.21,8.51,0,10.94l-40.75,23.53l-40.75,23.53c-4.21,2.43-9.48-0.61-9.48-5.47
								v-47.05V82.89c0-4.86,5.26-7.9,9.48-5.47l40.75,23.53L250.96,124.47z"/>
							<path class="st2" d="M174.52,200.8c-4.21-2.43-4.21-8.51,0-10.94l40.75-23.53l40.75-23.53c4.21-2.43,9.48,0.61,9.48,5.47
								v47.05v47.05c0,4.86-5.26,7.9-9.48,5.47l-40.75-23.53L174.52,200.8z"/>
						</g>
					</g>
					<g>
						<g>
							<path class="st2" d="M364.34-5.53c4.21,2.43,4.21,8.51,0,10.94l-40.75,23.53l-40.75,23.53c-4.21,2.43-9.48-0.61-9.48-5.47
								V-0.06v-47.05c0-4.86,5.26-7.9,9.48-5.47l40.75,23.53L364.34-5.53z"/>
							<path class="st2" d="M287.9,70.79c-4.21-2.43-4.21-8.51,0-10.94l40.75-23.53l40.75-23.53c4.21-2.43,9.48,0.61,9.48,5.47
								v47.05v47.05c0,4.86-5.26,7.9-9.48,5.47l-40.75-23.53L287.9,70.79z"/>
						</g>
						<g>
							<path class="st2" d="M364.34-137.05c4.21,2.43,4.21,8.51,0,10.94l-40.75,23.53l-40.75,23.53c-4.21,2.43-9.48-0.61-9.48-5.47
								v-47.05v-47.05c0-4.86,5.26-7.9,9.48-5.47l40.75,23.53L364.34-137.05z"/>
							<path class="st2" d="M287.9-60.72c-4.21-2.43-4.21-8.51,0-10.94l40.75-23.53l40.75-23.53c4.21-2.43,9.48,0.61,9.48,5.47
								v47.05v47.05c0,4.86-5.26,7.9-9.48,5.47L328.64-37.2L287.9-60.72z"/>
						</g>
						<g>
							<path class="st2" d="M364.34,124.47c4.21,2.43,4.21,8.51,0,10.94l-40.75,23.53l-40.75,23.53c-4.21,2.43-9.48-0.61-9.48-5.47
								v-47.05V82.89c0-4.86,5.26-7.9,9.48-5.47l40.75,23.53L364.34,124.47z"/>
							<path class="st2" d="M287.9,200.8c-4.21-2.43-4.21-8.51,0-10.94l40.75-23.53l40.75-23.53c4.21-2.43,9.48,0.61,9.48,5.47
								v47.05v47.05c0,4.86-5.26,7.9-9.48,5.47l-40.75-23.53L287.9,200.8z"/>
						</g>
					</g>
					<g>
						<g>
							<path class="st2" d="M477.71-5.53c4.21,2.43,4.21,8.51,0,10.94l-40.75,23.53l-40.75,23.53c-4.21,2.43-9.48-0.61-9.48-5.47
								V-0.06v-47.05c0-4.86,5.26-7.9,9.48-5.47l40.75,23.53L477.71-5.53z"/>
							<path class="st2" d="M401.27,70.79c-4.21-2.43-4.21-8.51,0-10.94l40.75-23.53l40.75-23.53c4.21-2.43,9.48,0.61,9.48,5.47
								v47.05v47.05c0,4.86-5.26,7.9-9.48,5.47l-40.75-23.53L401.27,70.79z"/>
						</g>
						<g>
							<path class="st2" d="M477.71-137.05c4.21,2.43,4.21,8.51,0,10.94l-40.75,23.53l-40.75,23.53c-4.21,2.43-9.48-0.61-9.48-5.47
								v-47.05v-47.05c0-4.86,5.26-7.9,9.48-5.47l40.75,23.53L477.71-137.05z"/>
							<path class="st2" d="M401.27-60.72c-4.21-2.43-4.21-8.51,0-10.94l40.75-23.53l40.75-23.53c4.21-2.43,9.48,0.61,9.48,5.47
								v47.05v47.05c0,4.86-5.26,7.9-9.48,5.47L442.02-37.2L401.27-60.72z"/>
						</g>
						<g>
							<path class="st2" d="M477.71,124.47c4.21,2.43,4.21,8.51,0,10.94l-40.75,23.53l-40.75,23.53c-4.21,2.43-9.48-0.61-9.48-5.47
								v-47.05V82.89c0-4.86,5.26-7.9,9.48-5.47l40.75,23.53L477.71,124.47z"/>
							<path class="st2" d="M401.27,200.8c-4.21-2.43-4.21-8.51,0-10.94l40.75-23.53l40.75-23.53c4.21-2.43,9.48,0.61,9.48,5.47
								v47.05v47.05c0,4.86-5.26,7.9-9.48,5.47l-40.75-23.53L401.27,200.8z"/>
						</g>
					</g>
					<g>
						<g>
							<path class="st2" d="M591.09-5.53c4.21,2.43,4.21,8.51,0,10.94l-40.75,23.53l-40.75,23.53c-4.21,2.43-9.48-0.61-9.48-5.47
								V-0.06v-47.05c0-4.86,5.26-7.9,9.48-5.47l40.75,23.53L591.09-5.53z"/>
							<path class="st2" d="M514.65,70.79c-4.21-2.43-4.21-8.51,0-10.94l40.75-23.53l40.75-23.53c4.21-2.43,9.48,0.61,9.48,5.47
								v47.05v47.05c0,4.86-5.26,7.9-9.48,5.47l-40.75-23.53L514.65,70.79z"/>
						</g>
						<g>
							<path class="st2" d="M591.09-137.05c4.21,2.43,4.21,8.51,0,10.94l-40.75,23.53l-40.75,23.53c-4.21,2.43-9.48-0.61-9.48-5.47
								v-47.05v-47.05c0-4.86,5.26-7.9,9.48-5.47l40.75,23.53L591.09-137.05z"/>
							<path class="st2" d="M514.65-60.72c-4.21-2.43-4.21-8.51,0-10.94l40.75-23.53l40.75-23.53c4.21-2.43,9.48,0.61,9.48,5.47
								v47.05v47.05c0,4.86-5.26,7.9-9.48,5.47L555.39-37.2L514.65-60.72z"/>
						</g>
						<g>
							<path class="st2" d="M591.09,124.47c4.21,2.43,4.21,8.51,0,10.94l-40.75,23.53l-40.75,23.53c-4.21,2.43-9.48-0.61-9.48-5.47
								v-47.05V82.89c0-4.86,5.26-7.9,9.48-5.47l40.75,23.53L591.09,124.47z"/>
							<path class="st2" d="M514.65,200.8c-4.21-2.43-4.21-8.51,0-10.94l40.75-23.53l40.75-23.53c4.21-2.43,9.48,0.61,9.48,5.47
								v47.05v47.05c0,4.86-5.26,7.9-9.48,5.47l-40.75-23.53L514.65,200.8z"/>
						</g>
					</g>
					<g>
						<g>
							<path class="st2" d="M704.46-5.53c4.21,2.43,4.21,8.51,0,10.94l-40.75,23.53l-40.75,23.53c-4.21,2.43-9.48-0.61-9.48-5.47
								V-0.06v-47.05c0-4.86,5.26-7.9,9.48-5.47l40.75,23.53L704.46-5.53z"/>
							<path class="st2" d="M628.02,70.79c-4.21-2.43-4.21-8.51,0-10.94l40.75-23.53l40.75-23.53c4.21-2.43,9.48,0.61,9.48,5.47
								v47.05v47.05c0,4.86-5.26,7.9-9.48,5.47l-40.75-23.53L628.02,70.79z"/>
						</g>
						<g>
							<path class="st2" d="M704.46-137.05c4.21,2.43,4.21,8.51,0,10.94l-40.75,23.53l-40.75,23.53c-4.21,2.43-9.48-0.61-9.48-5.47
								v-47.05v-47.05c0-4.86,5.26-7.9,9.48-5.47l40.75,23.53L704.46-137.05z"/>
							<path class="st2" d="M628.02-60.72c-4.21-2.43-4.21-8.51,0-10.94l40.75-23.53l40.75-23.53c4.21-2.43,9.48,0.61,9.48,5.47
								v47.05v47.05c0,4.86-5.26,7.9-9.48,5.47L668.77-37.2L628.02-60.72z"/>
						</g>
						<g>
							<path class="st2" d="M704.46,124.47c4.21,2.43,4.21,8.51,0,10.94l-40.75,23.53l-40.75,23.53c-4.21,2.43-9.48-0.61-9.48-5.47
								v-47.05V82.89c0-4.86,5.26-7.9,9.48-5.47l40.75,23.53L704.46,124.47z"/>
							<path class="st2" d="M628.02,200.8c-4.21-2.43-4.21-8.51,0-10.94l40.75-23.53l40.75-23.53c4.21-2.43,9.48,0.61,9.48,5.47
								v47.05v47.05c0,4.86-5.26,7.9-9.48,5.47l-40.75-23.53L628.02,200.8z"/>
						</g>
					</g>
					<g>
						<g>
							<path class="st2" d="M817.84-5.53c4.21,2.43,4.21,8.51,0,10.94l-40.75,23.53l-40.75,23.53c-4.21,2.43-9.48-0.61-9.48-5.47
								V-0.06v-47.05c0-4.86,5.26-7.9,9.48-5.47l40.75,23.53L817.84-5.53z"/>
							<path class="st2" d="M741.4,70.79c-4.21-2.43-4.21-8.51,0-10.94l40.75-23.53l40.75-23.53c4.21-2.43,9.48,0.61,9.48,5.47
								v47.05v47.05c0,4.86-5.26,7.9-9.48,5.47l-40.75-23.53L741.4,70.79z"/>
						</g>
						<g>
							<path class="st2" d="M817.84-137.05c4.21,2.43,4.21,8.51,0,10.94l-40.75,23.53l-40.75,23.53c-4.21,2.43-9.48-0.61-9.48-5.47
								v-47.05v-47.05c0-4.86,5.26-7.9,9.48-5.47l40.75,23.53L817.84-137.05z"/>
							<path class="st2" d="M741.4-60.72c-4.21-2.43-4.21-8.51,0-10.94l40.75-23.53l40.75-23.53c4.21-2.43,9.48,0.61,9.48,5.47
								v47.05v47.05c0,4.86-5.26,7.9-9.48,5.47L782.14-37.2L741.4-60.72z"/>
						</g>
						<g>
							<path class="st2" d="M817.84,124.47c4.21,2.43,4.21,8.51,0,10.94l-40.75,23.53l-40.75,23.53c-4.21,2.43-9.48-0.61-9.48-5.47
								v-47.05V82.89c0-4.86,5.26-7.9,9.48-5.47l40.75,23.53L817.84,124.47z"/>
							<path class="st2" d="M741.4,200.8c-4.21-2.43-4.21-8.51,0-10.94l40.75-23.53l40.75-23.53c4.21-2.43,9.48,0.61,9.48,5.47
								v47.05v47.05c0,4.86-5.26,7.9-9.48,5.47l-40.75-23.53L741.4,200.8z"/>
						</g>
					</g>
					<g>
						<g>
							<path class="st2" d="M931.21-5.53c4.21,2.43,4.21,8.51,0,10.94l-40.75,23.53l-40.75,23.53c-4.21,2.43-9.48-0.61-9.48-5.47
								V-0.06v-47.05c0-4.86,5.26-7.9,9.48-5.47l40.75,23.53L931.21-5.53z"/>
							<path class="st2" d="M854.77,70.79c-4.21-2.43-4.21-8.51,0-10.94l40.75-23.53l40.75-23.53c4.21-2.43,9.48,0.61,9.48,5.47
								v47.05v47.05c0,4.86-5.26,7.9-9.48,5.47l-40.75-23.53L854.77,70.79z"/>
						</g>
						<g>
							<path class="st2" d="M931.21-137.05c4.21,2.43,4.21,8.51,0,10.94l-40.75,23.53l-40.75,23.53c-4.21,2.43-9.48-0.61-9.48-5.47
								v-47.05v-47.05c0-4.86,5.26-7.9,9.48-5.47l40.75,23.53L931.21-137.05z"/>
							<path class="st2" d="M854.77-60.72c-4.21-2.43-4.21-8.51,0-10.94l40.75-23.53l40.75-23.53c4.21-2.43,9.48,0.61,9.48,5.47
								v47.05v47.05c0,4.86-5.26,7.9-9.48,5.47L895.52-37.2L854.77-60.72z"/>
						</g>
						<g>
							<path class="st2" d="M931.21,124.47c4.21,2.43,4.21,8.51,0,10.94l-40.75,23.53l-40.75,23.53c-4.21,2.43-9.48-0.61-9.48-5.47
								v-47.05V82.89c0-4.86,5.26-7.9,9.48-5.47l40.75,23.53L931.21,124.47z"/>
							<path class="st2" d="M854.77,200.8c-4.21-2.43-4.21-8.51,0-10.94l40.75-23.53l40.75-23.53c4.21-2.43,9.48,0.61,9.48,5.47
								v47.05v47.05c0,4.86-5.26,7.9-9.48,5.47l-40.75-23.53L854.77,200.8z"/>
						</g>
					</g>
					<g>
						<g>
							<path class="st2" d="M1044.59-5.53c4.21,2.43,4.21,8.51,0,10.94l-40.75,23.53l-40.75,23.53c-4.21,2.43-9.48-0.61-9.48-5.47
								V-0.06v-47.05c0-4.86,5.26-7.9,9.48-5.47l40.75,23.53L1044.59-5.53z"/>
							<path class="st2" d="M968.15,70.79c-4.21-2.43-4.21-8.51,0-10.94l40.75-23.53l40.75-23.53c4.21-2.43,9.48,0.61,9.48,5.47
								v47.05v47.05c0,4.86-5.26,7.9-9.48,5.47l-40.75-23.53L968.15,70.79z"/>
						</g>
						<g>
							<path class="st2" d="M1044.59-137.05c4.21,2.43,4.21,8.51,0,10.94l-40.75,23.53l-40.75,23.53c-4.21,2.43-9.48-0.61-9.48-5.47
								v-47.05v-47.05c0-4.86,5.26-7.9,9.48-5.47l40.75,23.53L1044.59-137.05z"/>
							<path class="st2" d="M968.15-60.72c-4.21-2.43-4.21-8.51,0-10.94l40.75-23.53l40.75-23.53c4.21-2.43,9.48,0.61,9.48,5.47
								v47.05v47.05c0,4.86-5.26,7.9-9.48,5.47l-40.75-23.53L968.15-60.72z"/>
						</g>
						<g>
							<path class="st2" d="M1044.59,124.47c4.21,2.43,4.21,8.51,0,10.94l-40.75,23.53l-40.75,23.53c-4.21,2.43-9.48-0.61-9.48-5.47
								v-47.05V82.89c0-4.86,5.26-7.9,9.48-5.47l40.75,23.53L1044.59,124.47z"/>
							<path class="st2" d="M968.15,200.8c-4.21-2.43-4.21-8.51,0-10.94l40.75-23.53l40.75-23.53c4.21-2.43,9.48,0.61,9.48,5.47
								v47.05v47.05c0,4.86-5.26,7.9-9.48,5.47l-40.75-23.53L968.15,200.8z"/>
						</g>
					</g>
					<g>
						<g>
							<path class="st2" d="M1157.96-5.53c4.21,2.43,4.21,8.51,0,10.94l-40.75,23.53l-40.75,23.53c-4.21,2.43-9.48-0.61-9.48-5.47
								V-0.06v-47.05c0-4.86,5.26-7.9,9.48-5.47l40.75,23.53L1157.96-5.53z"/>
							<path class="st2" d="M1081.52,70.79c-4.21-2.43-4.21-8.51,0-10.94l40.75-23.53l40.75-23.53c4.21-2.43,9.48,0.61,9.48,5.47
								v47.05v47.05c0,4.86-5.26,7.9-9.48,5.47l-40.75-23.53L1081.52,70.79z"/>
						</g>
						<g>
							<path class="st2" d="M1157.96-137.05c4.21,2.43,4.21,8.51,0,10.94l-40.75,23.53l-40.75,23.53c-4.21,2.43-9.48-0.61-9.48-5.47
								v-47.05v-47.05c0-4.86,5.26-7.9,9.48-5.47l40.75,23.53L1157.96-137.05z"/>
							<path class="st2" d="M1081.52-60.72c-4.21-2.43-4.21-8.51,0-10.94l40.75-23.53l40.75-23.53c4.21-2.43,9.48,0.61,9.48,5.47
								v47.05v47.05c0,4.86-5.26,7.9-9.48,5.47l-40.75-23.53L1081.52-60.72z"/>
						</g>
						<g>
							<path class="st2" d="M1157.96,124.47c4.21,2.43,4.21,8.51,0,10.94l-40.75,23.53l-40.75,23.53c-4.21,2.43-9.48-0.61-9.48-5.47
								v-47.05V82.89c0-4.86,5.26-7.9,9.48-5.47l40.75,23.53L1157.96,124.47z"/>
							<path class="st2" d="M1081.52,200.8c-4.21-2.43-4.21-8.51,0-10.94l40.75-23.53l40.75-23.53c4.21-2.43,9.48,0.61,9.48,5.47
								v47.05v47.05c0,4.86-5.26,7.9-9.48,5.47l-40.75-23.53L1081.52,200.8z"/>
						</g>
					</g>
				</g>
				<g>
					<g>
						<g>
							<path class="st2" d="M-89.16,391.28c4.21,2.43,4.21,8.51,0,10.94l-40.75,23.53l-40.75,23.53c-4.21,2.43-9.48-0.61-9.48-5.47
								v-47.05V349.7c0-4.86,5.26-7.9,9.48-5.47l40.75,23.53L-89.16,391.28z"/>
							<path class="st2" d="M-165.6,467.61c-4.21-2.43-4.21-8.51,0-10.94l40.75-23.53l40.75-23.53c4.21-2.43,9.48,0.61,9.48,5.47
								v47.05v47.05c0,4.86-5.26,7.9-9.48,5.47l-40.75-23.53L-165.6,467.61z"/>
						</g>
						<g>
							<path class="st2" d="M-89.16,259.76c4.21,2.43,4.21,8.51,0,10.94l-40.75,23.53l-40.75,23.53c-4.21,2.43-9.48-0.61-9.48-5.47
								v-47.05v-47.05c0-4.86,5.26-7.9,9.48-5.47l40.75,23.53L-89.16,259.76z"/>
							<path class="st2" d="M-165.6,336.09c-4.21-2.43-4.21-8.51,0-10.94l40.75-23.53l40.75-23.53c4.21-2.43,9.48,0.61,9.48,5.47
								v47.05v47.05c0,4.86-5.26,7.9-9.48,5.47l-40.75-23.53L-165.6,336.09z"/>
						</g>
						<g>
							<path class="st2" d="M-89.16,521.28c4.21,2.43,4.21,8.51,0,10.94l-40.75,23.53l-40.75,23.53c-4.21,2.43-9.48-0.61-9.48-5.47
								v-47.05V479.7c0-4.86,5.26-7.9,9.48-5.47l40.75,23.53L-89.16,521.28z"/>
							<path class="st2" d="M-165.6,597.61c-4.21-2.43-4.21-8.51,0-10.94l40.75-23.53l40.75-23.53c4.21-2.43,9.48,0.61,9.48,5.47
								v47.05v47.05c0,4.86-5.26,7.9-9.48,5.47l-40.75-23.53L-165.6,597.61z"/>
						</g>
					</g>
					<g>
						<g>
							<path class="st2" d="M24.21,391.28c4.21,2.43,4.21,8.51,0,10.94l-40.75,23.53l-40.75,23.53c-4.21,2.43-9.48-0.61-9.48-5.47
								v-47.05V349.7c0-4.86,5.26-7.9,9.48-5.47l40.75,23.53L24.21,391.28z"/>
							<path class="st2" d="M-52.23,467.61c-4.21-2.43-4.21-8.51,0-10.94l40.75-23.53l40.75-23.53c4.21-2.43,9.48,0.61,9.48,5.47
								v47.05v47.05c0,4.86-5.26,7.9-9.48,5.47l-40.75-23.53L-52.23,467.61z"/>
						</g>
						<g>
							<path class="st2" d="M24.21,259.76c4.21,2.43,4.21,8.51,0,10.94l-40.75,23.53l-40.75,23.53c-4.21,2.43-9.48-0.61-9.48-5.47
								v-47.05v-47.05c0-4.86,5.26-7.9,9.48-5.47l40.75,23.53L24.21,259.76z"/>
							<path class="st2" d="M-52.23,336.09c-4.21-2.43-4.21-8.51,0-10.94l40.75-23.53l40.75-23.53c4.21-2.43,9.48,0.61,9.48,5.47
								v47.05v47.05c0,4.86-5.26,7.9-9.48,5.47l-40.75-23.53L-52.23,336.09z"/>
						</g>
						<g>
							<path class="st2" d="M24.21,521.28c4.21,2.43,4.21,8.51,0,10.94l-40.75,23.53l-40.75,23.53c-4.21,2.43-9.48-0.61-9.48-5.47
								v-47.05V479.7c0-4.86,5.26-7.9,9.48-5.47l40.75,23.53L24.21,521.28z"/>
							<path class="st2" d="M-52.23,597.61c-4.21-2.43-4.21-8.51,0-10.94l40.75-23.53l40.75-23.53c4.21-2.43,9.48,0.61,9.48,5.47
								v47.05v47.05c0,4.86-5.26,7.9-9.48,5.47l-40.75-23.53L-52.23,597.61z"/>
						</g>
					</g>
					<g>
						<g>
							<path class="st2" d="M137.59,391.28c4.21,2.43,4.21,8.51,0,10.94l-40.75,23.53l-40.75,23.53c-4.21,2.43-9.48-0.61-9.48-5.47
								v-47.05V349.7c0-4.86,5.26-7.9,9.48-5.47l40.75,23.53L137.59,391.28z"/>
							<path class="st2" d="M61.15,467.61c-4.21-2.43-4.21-8.51,0-10.94l40.75-23.53l40.75-23.53c4.21-2.43,9.48,0.61,9.48,5.47
								v47.05v47.05c0,4.86-5.26,7.9-9.48,5.47l-40.75-23.53L61.15,467.61z"/>
						</g>
						<g>
							<path class="st2" d="M137.59,259.76c4.21,2.43,4.21,8.51,0,10.94l-40.75,23.53l-40.75,23.53c-4.21,2.43-9.48-0.61-9.48-5.47
								v-47.05v-47.05c0-4.86,5.26-7.9,9.48-5.47l40.75,23.53L137.59,259.76z"/>
							<path class="st2" d="M61.15,336.09c-4.21-2.43-4.21-8.51,0-10.94l40.75-23.53l40.75-23.53c4.21-2.43,9.48,0.61,9.48,5.47
								v47.05v47.05c0,4.86-5.26,7.9-9.48,5.47l-40.75-23.53L61.15,336.09z"/>
						</g>
						<g>
							<path class="st2" d="M137.59,521.28c4.21,2.43,4.21,8.51,0,10.94l-40.75,23.53l-40.75,23.53c-4.21,2.43-9.48-0.61-9.48-5.47
								v-47.05V479.7c0-4.86,5.26-7.9,9.48-5.47l40.75,23.53L137.59,521.28z"/>
							<path class="st2" d="M61.15,597.61c-4.21-2.43-4.21-8.51,0-10.94l40.75-23.53l40.75-23.53c4.21-2.43,9.48,0.61,9.48,5.47
								v47.05v47.05c0,4.86-5.26,7.9-9.48,5.47l-40.75-23.53L61.15,597.61z"/>
						</g>
					</g>
					<g>
						<g>
							<path class="st2" d="M250.96,391.28c4.21,2.43,4.21,8.51,0,10.94l-40.75,23.53l-40.75,23.53c-4.21,2.43-9.48-0.61-9.48-5.47
								v-47.05V349.7c0-4.86,5.26-7.9,9.48-5.47l40.75,23.53L250.96,391.28z"/>
							<path class="st2" d="M174.52,467.61c-4.21-2.43-4.21-8.51,0-10.94l40.75-23.53l40.75-23.53c4.21-2.43,9.48,0.61,9.48,5.47
								v47.05v47.05c0,4.86-5.26,7.9-9.48,5.47l-40.75-23.53L174.52,467.61z"/>
						</g>
						<g>
							<path class="st2" d="M250.96,259.76c4.21,2.43,4.21,8.51,0,10.94l-40.75,23.53l-40.75,23.53c-4.21,2.43-9.48-0.61-9.48-5.47
								v-47.05v-47.05c0-4.86,5.26-7.9,9.48-5.47l40.75,23.53L250.96,259.76z"/>
							<path class="st2" d="M174.52,336.09c-4.21-2.43-4.21-8.51,0-10.94l40.75-23.53l40.75-23.53c4.21-2.43,9.48,0.61,9.48,5.47
								v47.05v47.05c0,4.86-5.26,7.9-9.48,5.47l-40.75-23.53L174.52,336.09z"/>
						</g>
						<g>
							<path class="st2" d="M250.96,521.28c4.21,2.43,4.21,8.51,0,10.94l-40.75,23.53l-40.75,23.53c-4.21,2.43-9.48-0.61-9.48-5.47
								v-47.05V479.7c0-4.86,5.26-7.9,9.48-5.47l40.75,23.53L250.96,521.28z"/>
							<path class="st2" d="M174.52,597.61c-4.21-2.43-4.21-8.51,0-10.94l40.75-23.53l40.75-23.53c4.21-2.43,9.48,0.61,9.48,5.47
								v47.05v47.05c0,4.86-5.26,7.9-9.48,5.47l-40.75-23.53L174.52,597.61z"/>
						</g>
					</g>
					<g>
						<g>
							<path class="st2" d="M364.34,391.28c4.21,2.43,4.21,8.51,0,10.94l-40.75,23.53l-40.75,23.53c-4.21,2.43-9.48-0.61-9.48-5.47
								v-47.05V349.7c0-4.86,5.26-7.9,9.48-5.47l40.75,23.53L364.34,391.28z"/>
							<path class="st2" d="M287.9,467.61c-4.21-2.43-4.21-8.51,0-10.94l40.75-23.53l40.75-23.53c4.21-2.43,9.48,0.61,9.48,5.47
								v47.05v47.05c0,4.86-5.26,7.9-9.48,5.47l-40.75-23.53L287.9,467.61z"/>
						</g>
						<g>
							<path class="st2" d="M364.34,259.76c4.21,2.43,4.21,8.51,0,10.94l-40.75,23.53l-40.75,23.53c-4.21,2.43-9.48-0.61-9.48-5.47
								v-47.05v-47.05c0-4.86,5.26-7.9,9.48-5.47l40.75,23.53L364.34,259.76z"/>
							<path class="st2" d="M287.9,336.09c-4.21-2.43-4.21-8.51,0-10.94l40.75-23.53l40.75-23.53c4.21-2.43,9.48,0.61,9.48,5.47
								v47.05v47.05c0,4.86-5.26,7.9-9.48,5.47l-40.75-23.53L287.9,336.09z"/>
						</g>
						<g>
							<path class="st2" d="M364.34,521.28c4.21,2.43,4.21,8.51,0,10.94l-40.75,23.53l-40.75,23.53c-4.21,2.43-9.48-0.61-9.48-5.47
								v-47.05V479.7c0-4.86,5.26-7.9,9.48-5.47l40.75,23.53L364.34,521.28z"/>
							<path class="st2" d="M287.9,597.61c-4.21-2.43-4.21-8.51,0-10.94l40.75-23.53l40.75-23.53c4.21-2.43,9.48,0.61,9.48,5.47
								v47.05v47.05c0,4.86-5.26,7.9-9.48,5.47l-40.75-23.53L287.9,597.61z"/>
						</g>
					</g>
					<g>
						<g>
							<path class="st2" d="M477.71,391.28c4.21,2.43,4.21,8.51,0,10.94l-40.75,23.53l-40.75,23.53c-4.21,2.43-9.48-0.61-9.48-5.47
								v-47.05V349.7c0-4.86,5.26-7.9,9.48-5.47l40.75,23.53L477.71,391.28z"/>
							<path class="st2" d="M401.27,467.61c-4.21-2.43-4.21-8.51,0-10.94l40.75-23.53l40.75-23.53c4.21-2.43,9.48,0.61,9.48,5.47
								v47.05v47.05c0,4.86-5.26,7.9-9.48,5.47l-40.75-23.53L401.27,467.61z"/>
						</g>
						<g>
							<path class="st2" d="M477.71,259.76c4.21,2.43,4.21,8.51,0,10.94l-40.75,23.53l-40.75,23.53c-4.21,2.43-9.48-0.61-9.48-5.47
								v-47.05v-47.05c0-4.86,5.26-7.9,9.48-5.47l40.75,23.53L477.71,259.76z"/>
							<path class="st2" d="M401.27,336.09c-4.21-2.43-4.21-8.51,0-10.94l40.75-23.53l40.75-23.53c4.21-2.43,9.48,0.61,9.48,5.47
								v47.05v47.05c0,4.86-5.26,7.9-9.48,5.47l-40.75-23.53L401.27,336.09z"/>
						</g>
						<g>
							<path class="st2" d="M477.71,521.28c4.21,2.43,4.21,8.51,0,10.94l-40.75,23.53l-40.75,23.53c-4.21,2.43-9.48-0.61-9.48-5.47
								v-47.05V479.7c0-4.86,5.26-7.9,9.48-5.47l40.75,23.53L477.71,521.28z"/>
							<path class="st2" d="M401.27,597.61c-4.21-2.43-4.21-8.51,0-10.94l40.75-23.53l40.75-23.53c4.21-2.43,9.48,0.61,9.48,5.47
								v47.05v47.05c0,4.86-5.26,7.9-9.48,5.47l-40.75-23.53L401.27,597.61z"/>
						</g>
					</g>
					<g>
						<g>
							<path class="st2" d="M591.09,391.28c4.21,2.43,4.21,8.51,0,10.94l-40.75,23.53l-40.75,23.53c-4.21,2.43-9.48-0.61-9.48-5.47
								v-47.05V349.7c0-4.86,5.26-7.9,9.48-5.47l40.75,23.53L591.09,391.28z"/>
							<path class="st2" d="M514.65,467.61c-4.21-2.43-4.21-8.51,0-10.94l40.75-23.53l40.75-23.53c4.21-2.43,9.48,0.61,9.48,5.47
								v47.05v47.05c0,4.86-5.26,7.9-9.48,5.47l-40.75-23.53L514.65,467.61z"/>
						</g>
						<g>
							<path class="st2" d="M591.09,259.76c4.21,2.43,4.21,8.51,0,10.94l-40.75,23.53l-40.75,23.53c-4.21,2.43-9.48-0.61-9.48-5.47
								v-47.05v-47.05c0-4.86,5.26-7.9,9.48-5.47l40.75,23.53L591.09,259.76z"/>
							<path class="st2" d="M514.65,336.09c-4.21-2.43-4.21-8.51,0-10.94l40.75-23.53l40.75-23.53c4.21-2.43,9.48,0.61,9.48,5.47
								v47.05v47.05c0,4.86-5.26,7.9-9.48,5.47l-40.75-23.53L514.65,336.09z"/>
						</g>
						<g>
							<path class="st2" d="M591.09,521.28c4.21,2.43,4.21,8.51,0,10.94l-40.75,23.53l-40.75,23.53c-4.21,2.43-9.48-0.61-9.48-5.47
								v-47.05V479.7c0-4.86,5.26-7.9,9.48-5.47l40.75,23.53L591.09,521.28z"/>
							<path class="st2" d="M514.65,597.61c-4.21-2.43-4.21-8.51,0-10.94l40.75-23.53l40.75-23.53c4.21-2.43,9.48,0.61,9.48,5.47
								v47.05v47.05c0,4.86-5.26,7.9-9.48,5.47l-40.75-23.53L514.65,597.61z"/>
						</g>
					</g>
					<g>
						<g>
							<path class="st2" d="M704.46,391.28c4.21,2.43,4.21,8.51,0,10.94l-40.75,23.53l-40.75,23.53c-4.21,2.43-9.48-0.61-9.48-5.47
								v-47.05V349.7c0-4.86,5.26-7.9,9.48-5.47l40.75,23.53L704.46,391.28z"/>
							<path class="st2" d="M628.02,467.61c-4.21-2.43-4.21-8.51,0-10.94l40.75-23.53l40.75-23.53c4.21-2.43,9.48,0.61,9.48,5.47
								v47.05v47.05c0,4.86-5.26,7.9-9.48,5.47l-40.75-23.53L628.02,467.61z"/>
						</g>
						<g>
							<path class="st2" d="M704.46,259.76c4.21,2.43,4.21,8.51,0,10.94l-40.75,23.53l-40.75,23.53c-4.21,2.43-9.48-0.61-9.48-5.47
								v-47.05v-47.05c0-4.86,5.26-7.9,9.48-5.47l40.75,23.53L704.46,259.76z"/>
							<path class="st2" d="M628.02,336.09c-4.21-2.43-4.21-8.51,0-10.94l40.75-23.53l40.75-23.53c4.21-2.43,9.48,0.61,9.48,5.47
								v47.05v47.05c0,4.86-5.26,7.9-9.48,5.47l-40.75-23.53L628.02,336.09z"/>
						</g>
						<g>
							<path class="st2" d="M704.46,521.28c4.21,2.43,4.21,8.51,0,10.94l-40.75,23.53l-40.75,23.53c-4.21,2.43-9.48-0.61-9.48-5.47
								v-47.05V479.7c0-4.86,5.26-7.9,9.48-5.47l40.75,23.53L704.46,521.28z"/>
							<path class="st2" d="M628.02,597.61c-4.21-2.43-4.21-8.51,0-10.94l40.75-23.53l40.75-23.53c4.21-2.43,9.48,0.61,9.48,5.47
								v47.05v47.05c0,4.86-5.26,7.9-9.48,5.47l-40.75-23.53L628.02,597.61z"/>
						</g>
					</g>
					<g>
						<g>
							<path class="st2" d="M817.84,391.28c4.21,2.43,4.21,8.51,0,10.94l-40.75,23.53l-40.75,23.53c-4.21,2.43-9.48-0.61-9.48-5.47
								v-47.05V349.7c0-4.86,5.26-7.9,9.48-5.47l40.75,23.53L817.84,391.28z"/>
							<path class="st2" d="M741.4,467.61c-4.21-2.43-4.21-8.51,0-10.94l40.75-23.53l40.75-23.53c4.21-2.43,9.48,0.61,9.48,5.47
								v47.05v47.05c0,4.86-5.26,7.9-9.48,5.47l-40.75-23.53L741.4,467.61z"/>
						</g>
						<g>
							<path class="st2" d="M817.84,259.76c4.21,2.43,4.21,8.51,0,10.94l-40.75,23.53l-40.75,23.53c-4.21,2.43-9.48-0.61-9.48-5.47
								v-47.05v-47.05c0-4.86,5.26-7.9,9.48-5.47l40.75,23.53L817.84,259.76z"/>
							<path class="st2" d="M741.4,336.09c-4.21-2.43-4.21-8.51,0-10.94l40.75-23.53l40.75-23.53c4.21-2.43,9.48,0.61,9.48,5.47
								v47.05v47.05c0,4.86-5.26,7.9-9.48,5.47l-40.75-23.53L741.4,336.09z"/>
						</g>
						<g>
							<path class="st2" d="M817.84,521.28c4.21,2.43,4.21,8.51,0,10.94l-40.75,23.53l-40.75,23.53c-4.21,2.43-9.48-0.61-9.48-5.47
								v-47.05V479.7c0-4.86,5.26-7.9,9.48-5.47l40.75,23.53L817.84,521.28z"/>
							<path class="st2" d="M741.4,597.61c-4.21-2.43-4.21-8.51,0-10.94l40.75-23.53l40.75-23.53c4.21-2.43,9.48,0.61,9.48,5.47
								v47.05v47.05c0,4.86-5.26,7.9-9.48,5.47l-40.75-23.53L741.4,597.61z"/>
						</g>
					</g>
					<g>
						<g>
							<path class="st2" d="M931.21,391.28c4.21,2.43,4.21,8.51,0,10.94l-40.75,23.53l-40.75,23.53c-4.21,2.43-9.48-0.61-9.48-5.47
								v-47.05V349.7c0-4.86,5.26-7.9,9.48-5.47l40.75,23.53L931.21,391.28z"/>
							<path class="st2" d="M854.77,467.61c-4.21-2.43-4.21-8.51,0-10.94l40.75-23.53l40.75-23.53c4.21-2.43,9.48,0.61,9.48,5.47
								v47.05v47.05c0,4.86-5.26,7.9-9.48,5.47l-40.75-23.53L854.77,467.61z"/>
						</g>
						<g>
							<path class="st2" d="M931.21,259.76c4.21,2.43,4.21,8.51,0,10.94l-40.75,23.53l-40.75,23.53c-4.21,2.43-9.48-0.61-9.48-5.47
								v-47.05v-47.05c0-4.86,5.26-7.9,9.48-5.47l40.75,23.53L931.21,259.76z"/>
							<path class="st2" d="M854.77,336.09c-4.21-2.43-4.21-8.51,0-10.94l40.75-23.53l40.75-23.53c4.21-2.43,9.48,0.61,9.48,5.47
								v47.05v47.05c0,4.86-5.26,7.9-9.48,5.47l-40.75-23.53L854.77,336.09z"/>
						</g>
						<g>
							<path class="st2" d="M931.21,521.28c4.21,2.43,4.21,8.51,0,10.94l-40.75,23.53l-40.75,23.53c-4.21,2.43-9.48-0.61-9.48-5.47
								v-47.05V479.7c0-4.86,5.26-7.9,9.48-5.47l40.75,23.53L931.21,521.28z"/>
							<path class="st2" d="M854.77,597.61c-4.21-2.43-4.21-8.51,0-10.94l40.75-23.53l40.75-23.53c4.21-2.43,9.48,0.61,9.48,5.47
								v47.05v47.05c0,4.86-5.26,7.9-9.48,5.47l-40.75-23.53L854.77,597.61z"/>
						</g>
					</g>
					<g>
						<g>
							<path class="st2" d="M1044.59,391.28c4.21,2.43,4.21,8.51,0,10.94l-40.75,23.53l-40.75,23.53c-4.21,2.43-9.48-0.61-9.48-5.47
								v-47.05V349.7c0-4.86,5.26-7.9,9.48-5.47l40.75,23.53L1044.59,391.28z"/>
							<path class="st2" d="M968.15,467.61c-4.21-2.43-4.21-8.51,0-10.94l40.75-23.53l40.75-23.53c4.21-2.43,9.48,0.61,9.48,5.47
								v47.05v47.05c0,4.86-5.26,7.9-9.48,5.47l-40.75-23.53L968.15,467.61z"/>
						</g>
						<g>
							<path class="st2" d="M1044.59,259.76c4.21,2.43,4.21,8.51,0,10.94l-40.75,23.53l-40.75,23.53c-4.21,2.43-9.48-0.61-9.48-5.47
								v-47.05v-47.05c0-4.86,5.26-7.9,9.48-5.47l40.75,23.53L1044.59,259.76z"/>
							<path class="st2" d="M968.15,336.09c-4.21-2.43-4.21-8.51,0-10.94l40.75-23.53l40.75-23.53c4.21-2.43,9.48,0.61,9.48,5.47
								v47.05v47.05c0,4.86-5.26,7.9-9.48,5.47l-40.75-23.53L968.15,336.09z"/>
						</g>
						<g>
							<path class="st2" d="M1044.59,521.28c4.21,2.43,4.21,8.51,0,10.94l-40.75,23.53l-40.75,23.53c-4.21,2.43-9.48-0.61-9.48-5.47
								v-47.05V479.7c0-4.86,5.26-7.9,9.48-5.47l40.75,23.53L1044.59,521.28z"/>
							<path class="st2" d="M968.15,597.61c-4.21-2.43-4.21-8.51,0-10.94l40.75-23.53l40.75-23.53c4.21-2.43,9.48,0.61,9.48,5.47
								v47.05v47.05c0,4.86-5.26,7.9-9.48,5.47l-40.75-23.53L968.15,597.61z"/>
						</g>
					</g>
					<g>
						<g>
							<path class="st2" d="M1157.96,391.28c4.21,2.43,4.21,8.51,0,10.94l-40.75,23.53l-40.75,23.53c-4.21,2.43-9.48-0.61-9.48-5.47
								v-47.05V349.7c0-4.86,5.26-7.9,9.48-5.47l40.75,23.53L1157.96,391.28z"/>
							<path class="st2" d="M1081.52,467.61c-4.21-2.43-4.21-8.51,0-10.94l40.75-23.53l40.75-23.53c4.21-2.43,9.48,0.61,9.48,5.47
								v47.05v47.05c0,4.86-5.26,7.9-9.48,5.47l-40.75-23.53L1081.52,467.61z"/>
						</g>
						<g>
							<path class="st2" d="M1157.96,259.76c4.21,2.43,4.21,8.51,0,10.94l-40.75,23.53l-40.75,23.53c-4.21,2.43-9.48-0.61-9.48-5.47
								v-47.05v-47.05c0-4.86,5.26-7.9,9.48-5.47l40.75,23.53L1157.96,259.76z"/>
							<path class="st2" d="M1081.52,336.09c-4.21-2.43-4.21-8.51,0-10.94l40.75-23.53l40.75-23.53c4.21-2.43,9.48,0.61,9.48,5.47
								v47.05v47.05c0,4.86-5.26,7.9-9.48,5.47l-40.75-23.53L1081.52,336.09z"/>
						</g>
						<g>
							<path class="st2" d="M1157.96,521.28c4.21,2.43,4.21,8.51,0,10.94l-40.75,23.53l-40.75,23.53c-4.21,2.43-9.48-0.61-9.48-5.47
								v-47.05V479.7c0-4.86,5.26-7.9,9.48-5.47l40.75,23.53L1157.96,521.28z"/>
							<path class="st2" d="M1081.52,597.61c-4.21-2.43-4.21-8.51,0-10.94l40.75-23.53l40.75-23.53c4.21-2.43,9.48,0.61,9.48,5.47
								v47.05v47.05c0,4.86-5.26,7.9-9.48,5.47l-40.75-23.53L1081.52,597.61z"/>
						</g>
					</g>
				</g>
			</g>
			<g>
				<g>
					<g>
						<g>
							<path class="st2" d="M1270.54-5.53c4.21,2.43,4.21,8.51,0,10.94l-40.75,23.53l-40.75,23.53c-4.21,2.43-9.48-0.61-9.48-5.47
								V-0.06v-47.05c0-4.86,5.26-7.9,9.48-5.47l40.75,23.53L1270.54-5.53z"/>
							<path class="st2" d="M1194.1,70.79c-4.21-2.43-4.21-8.51,0-10.94l40.75-23.53l40.75-23.53c4.21-2.43,9.48,0.61,9.48,5.47
								v47.05v47.05c0,4.86-5.26,7.9-9.48,5.47l-40.75-23.53L1194.1,70.79z"/>
						</g>
						<g>
							<path class="st2" d="M1270.54-137.05c4.21,2.43,4.21,8.51,0,10.94l-40.75,23.53l-40.75,23.53c-4.21,2.43-9.48-0.61-9.48-5.47
								v-47.05v-47.05c0-4.86,5.26-7.9,9.48-5.47l40.75,23.53L1270.54-137.05z"/>
							<path class="st2" d="M1194.1-60.72c-4.21-2.43-4.21-8.51,0-10.94l40.75-23.53l40.75-23.53c4.21-2.43,9.48,0.61,9.48,5.47
								v47.05v47.05c0,4.86-5.26,7.9-9.48,5.47l-40.75-23.53L1194.1-60.72z"/>
						</g>
						<g>
							<path class="st2" d="M1270.54,124.47c4.21,2.43,4.21,8.51,0,10.94l-40.75,23.53l-40.75,23.53c-4.21,2.43-9.48-0.61-9.48-5.47
								v-47.05V82.89c0-4.86,5.26-7.9,9.48-5.47l40.75,23.53L1270.54,124.47z"/>
							<path class="st2" d="M1194.1,200.8c-4.21-2.43-4.21-8.51,0-10.94l40.75-23.53l40.75-23.53c4.21-2.43,9.48,0.61,9.48,5.47
								v47.05v47.05c0,4.86-5.26,7.9-9.48,5.47l-40.75-23.53L1194.1,200.8z"/>
						</g>
					</g>
					<g>
						<g>
							<path class="st2" d="M1383.92-5.53c4.21,2.43,4.21,8.51,0,10.94l-40.75,23.53l-40.75,23.53c-4.21,2.43-9.48-0.61-9.48-5.47
								V-0.06v-47.05c0-4.86,5.26-7.9,9.48-5.47l40.75,23.53L1383.92-5.53z"/>
							<path class="st2" d="M1307.48,70.79c-4.21-2.43-4.21-8.51,0-10.94l40.75-23.53l40.75-23.53c4.21-2.43,9.48,0.61,9.48,5.47
								v47.05v47.05c0,4.86-5.26,7.9-9.48,5.47l-40.75-23.53L1307.48,70.79z"/>
						</g>
						<g>
							<path class="st2" d="M1383.92-137.05c4.21,2.43,4.21,8.51,0,10.94l-40.75,23.53l-40.75,23.53c-4.21,2.43-9.48-0.61-9.48-5.47
								v-47.05v-47.05c0-4.86,5.26-7.9,9.48-5.47l40.75,23.53L1383.92-137.05z"/>
							<path class="st2" d="M1307.48-60.72c-4.21-2.43-4.21-8.51,0-10.94l40.75-23.53l40.75-23.53c4.21-2.43,9.48,0.61,9.48,5.47
								v47.05v47.05c0,4.86-5.26,7.9-9.48,5.47l-40.75-23.53L1307.48-60.72z"/>
						</g>
						<g>
							<path class="st2" d="M1383.92,124.47c4.21,2.43,4.21,8.51,0,10.94l-40.75,23.53l-40.75,23.53c-4.21,2.43-9.48-0.61-9.48-5.47
								v-47.05V82.89c0-4.86,5.26-7.9,9.48-5.47l40.75,23.53L1383.92,124.47z"/>
							<path class="st2" d="M1307.48,200.8c-4.21-2.43-4.21-8.51,0-10.94l40.75-23.53l40.75-23.53c4.21-2.43,9.48,0.61,9.48,5.47
								v47.05v47.05c0,4.86-5.26,7.9-9.48,5.47l-40.75-23.53L1307.48,200.8z"/>
						</g>
					</g>
					<g>
						<g>
							<path class="st2" d="M1497.29-5.53c4.21,2.43,4.21,8.51,0,10.94l-40.75,23.53l-40.75,23.53c-4.21,2.43-9.48-0.61-9.48-5.47
								V-0.06v-47.05c0-4.86,5.26-7.9,9.48-5.47l40.75,23.53L1497.29-5.53z"/>
							<path class="st2" d="M1420.85,70.79c-4.21-2.43-4.21-8.51,0-10.94l40.75-23.53l40.75-23.53c4.21-2.43,9.48,0.61,9.48,5.47
								v47.05v47.05c0,4.86-5.26,7.9-9.48,5.47l-40.75-23.53L1420.85,70.79z"/>
						</g>
						<g>
							<path class="st2" d="M1497.29-137.05c4.21,2.43,4.21,8.51,0,10.94l-40.75,23.53l-40.75,23.53c-4.21,2.43-9.48-0.61-9.48-5.47
								v-47.05v-47.05c0-4.86,5.26-7.9,9.48-5.47l40.75,23.53L1497.29-137.05z"/>
							<path class="st2" d="M1420.85-60.72c-4.21-2.43-4.21-8.51,0-10.94l40.75-23.53l40.75-23.53c4.21-2.43,9.48,0.61,9.48,5.47
								v47.05v47.05c0,4.86-5.26,7.9-9.48,5.47L1461.6-37.2L1420.85-60.72z"/>
						</g>
						<g>
							<path class="st2" d="M1497.29,124.47c4.21,2.43,4.21,8.51,0,10.94l-40.75,23.53l-40.75,23.53c-4.21,2.43-9.48-0.61-9.48-5.47
								v-47.05V82.89c0-4.86,5.26-7.9,9.48-5.47l40.75,23.53L1497.29,124.47z"/>
							<path class="st2" d="M1420.85,200.8c-4.21-2.43-4.21-8.51,0-10.94l40.75-23.53l40.75-23.53c4.21-2.43,9.48,0.61,9.48,5.47
								v47.05v47.05c0,4.86-5.26,7.9-9.48,5.47l-40.75-23.53L1420.85,200.8z"/>
						</g>
					</g>
					<g>
						<g>
							<path class="st2" d="M1610.67-5.53c4.21,2.43,4.21,8.51,0,10.94l-40.75,23.53l-40.75,23.53c-4.21,2.43-9.48-0.61-9.48-5.47
								V-0.06v-47.05c0-4.86,5.26-7.9,9.48-5.47l40.75,23.53L1610.67-5.53z"/>
							<path class="st2" d="M1534.23,70.79c-4.21-2.43-4.21-8.51,0-10.94l40.75-23.53l40.75-23.53c4.21-2.43,9.48,0.61,9.48,5.47
								v47.05v47.05c0,4.86-5.26,7.9-9.48,5.47l-40.75-23.53L1534.23,70.79z"/>
						</g>
						<g>
							<path class="st2" d="M1610.67-137.05c4.21,2.43,4.21,8.51,0,10.94l-40.75,23.53l-40.75,23.53c-4.21,2.43-9.48-0.61-9.48-5.47
								v-47.05v-47.05c0-4.86,5.26-7.9,9.48-5.47l40.75,23.53L1610.67-137.05z"/>
							<path class="st2" d="M1534.23-60.72c-4.21-2.43-4.21-8.51,0-10.94l40.75-23.53l40.75-23.53c4.21-2.43,9.48,0.61,9.48,5.47
								v47.05v47.05c0,4.86-5.26,7.9-9.48,5.47l-40.75-23.53L1534.23-60.72z"/>
						</g>
						<g>
							<path class="st2" d="M1610.67,124.47c4.21,2.43,4.21,8.51,0,10.94l-40.75,23.53l-40.75,23.53c-4.21,2.43-9.48-0.61-9.48-5.47
								v-47.05V82.89c0-4.86,5.26-7.9,9.48-5.47l40.75,23.53L1610.67,124.47z"/>
							<path class="st2" d="M1534.23,200.8c-4.21-2.43-4.21-8.51,0-10.94l40.75-23.53l40.75-23.53c4.21-2.43,9.48,0.61,9.48,5.47
								v47.05v47.05c0,4.86-5.26,7.9-9.48,5.47l-40.75-23.53L1534.23,200.8z"/>
						</g>
					</g>
					<g>
						<g>
							<path class="st2" d="M1724.05-5.53c4.21,2.43,4.21,8.51,0,10.94l-40.75,23.53l-40.75,23.53c-4.21,2.43-9.48-0.61-9.48-5.47
								V-0.06v-47.05c0-4.86,5.26-7.9,9.48-5.47l40.75,23.53L1724.05-5.53z"/>
							<path class="st2" d="M1647.6,70.79c-4.21-2.43-4.21-8.51,0-10.94l40.75-23.53l40.75-23.53c4.21-2.43,9.48,0.61,9.48,5.47
								v47.05v47.05c0,4.86-5.26,7.9-9.48,5.47l-40.75-23.53L1647.6,70.79z"/>
						</g>
						<g>
							<path class="st2" d="M1724.05-137.05c4.21,2.43,4.21,8.51,0,10.94l-40.75,23.53l-40.75,23.53c-4.21,2.43-9.48-0.61-9.48-5.47
								v-47.05v-47.05c0-4.86,5.26-7.9,9.48-5.47l40.75,23.53L1724.05-137.05z"/>
							<path class="st2" d="M1647.6-60.72c-4.21-2.43-4.21-8.51,0-10.94l40.75-23.53l40.75-23.53c4.21-2.43,9.48,0.61,9.48,5.47
								v47.05v47.05c0,4.86-5.26,7.9-9.48,5.47l-40.75-23.53L1647.6-60.72z"/>
						</g>
						<g>
							<path class="st2" d="M1724.05,124.47c4.21,2.43,4.21,8.51,0,10.94l-40.75,23.53l-40.75,23.53c-4.21,2.43-9.48-0.61-9.48-5.47
								v-47.05V82.89c0-4.86,5.26-7.9,9.48-5.47l40.75,23.53L1724.05,124.47z"/>
							<path class="st2" d="M1647.6,200.8c-4.21-2.43-4.21-8.51,0-10.94l40.75-23.53l40.75-23.53c4.21-2.43,9.48,0.61,9.48,5.47
								v47.05v47.05c0,4.86-5.26,7.9-9.48,5.47l-40.75-23.53L1647.6,200.8z"/>
						</g>
					</g>
					<g>
						<g>
							<path class="st2" d="M1837.42-5.53c4.21,2.43,4.21,8.51,0,10.94l-40.75,23.53l-40.75,23.53c-4.21,2.43-9.48-0.61-9.48-5.47
								V-0.06v-47.05c0-4.86,5.26-7.9,9.48-5.47l40.75,23.53L1837.42-5.53z"/>
							<path class="st2" d="M1760.98,70.79c-4.21-2.43-4.21-8.51,0-10.94l40.75-23.53l40.75-23.53c4.21-2.43,9.48,0.61,9.48,5.47
								v47.05v47.05c0,4.86-5.26,7.9-9.48,5.47l-40.75-23.53L1760.98,70.79z"/>
						</g>
						<g>
							<path class="st2" d="M1837.42-137.05c4.21,2.43,4.21,8.51,0,10.94l-40.75,23.53l-40.75,23.53c-4.21,2.43-9.48-0.61-9.48-5.47
								v-47.05v-47.05c0-4.86,5.26-7.9,9.48-5.47l40.75,23.53L1837.42-137.05z"/>
							<path class="st2" d="M1760.98-60.72c-4.21-2.43-4.21-8.51,0-10.94l40.75-23.53l40.75-23.53c4.21-2.43,9.48,0.61,9.48,5.47
								v47.05v47.05c0,4.86-5.26,7.9-9.48,5.47l-40.75-23.53L1760.98-60.72z"/>
						</g>
						<g>
							<path class="st2" d="M1837.42,124.47c4.21,2.43,4.21,8.51,0,10.94l-40.75,23.53l-40.75,23.53c-4.21,2.43-9.48-0.61-9.48-5.47
								v-47.05V82.89c0-4.86,5.26-7.9,9.48-5.47l40.75,23.53L1837.42,124.47z"/>
							<path class="st2" d="M1760.98,200.8c-4.21-2.43-4.21-8.51,0-10.94l40.75-23.53l40.75-23.53c4.21-2.43,9.48,0.61,9.48,5.47
								v47.05v47.05c0,4.86-5.26,7.9-9.48,5.47l-40.75-23.53L1760.98,200.8z"/>
						</g>
					</g>
					<g>
						<g>
							<path class="st2" d="M1950.8-5.53c4.21,2.43,4.21,8.51,0,10.94l-40.75,23.53l-40.75,23.53c-4.21,2.43-9.48-0.61-9.48-5.47
								V-0.06v-47.05c0-4.86,5.26-7.9,9.48-5.47l40.75,23.53L1950.8-5.53z"/>
							<path class="st2" d="M1874.35,70.79c-4.21-2.43-4.21-8.51,0-10.94l40.75-23.53l40.75-23.53c4.21-2.43,9.48,0.61,9.48,5.47
								v47.05v47.05c0,4.86-5.26,7.9-9.48,5.47l-40.75-23.53L1874.35,70.79z"/>
						</g>
						<g>
							<path class="st2" d="M1950.8-137.05c4.21,2.43,4.21,8.51,0,10.94l-40.75,23.53l-40.75,23.53c-4.21,2.43-9.48-0.61-9.48-5.47
								v-47.05v-47.05c0-4.86,5.26-7.9,9.48-5.47l40.75,23.53L1950.8-137.05z"/>
							<path class="st2" d="M1874.35-60.72c-4.21-2.43-4.21-8.51,0-10.94l40.75-23.53l40.75-23.53c4.21-2.43,9.48,0.61,9.48,5.47
								v47.05v47.05c0,4.86-5.26,7.9-9.48,5.47L1915.1-37.2L1874.35-60.72z"/>
						</g>
						<g>
							<path class="st2" d="M1950.8,124.47c4.21,2.43,4.21,8.51,0,10.94l-40.75,23.53l-40.75,23.53c-4.21,2.43-9.48-0.61-9.48-5.47
								v-47.05V82.89c0-4.86,5.26-7.9,9.48-5.47l40.75,23.53L1950.8,124.47z"/>
							<path class="st2" d="M1874.35,200.8c-4.21-2.43-4.21-8.51,0-10.94l40.75-23.53l40.75-23.53c4.21-2.43,9.48,0.61,9.48,5.47
								v47.05v47.05c0,4.86-5.26,7.9-9.48,5.47l-40.75-23.53L1874.35,200.8z"/>
						</g>
					</g>
					<g>
						<g>
							<path class="st2" d="M2064.17-5.53c4.21,2.43,4.21,8.51,0,10.94l-40.75,23.53l-40.75,23.53c-4.21,2.43-9.48-0.61-9.48-5.47
								V-0.06v-47.05c0-4.86,5.26-7.9,9.48-5.47l40.75,23.53L2064.17-5.53z"/>
							<path class="st2" d="M1987.73,70.79c-4.21-2.43-4.21-8.51,0-10.94l40.75-23.53l40.75-23.53c4.21-2.43,9.48,0.61,9.48,5.47
								v47.05v47.05c0,4.86-5.26,7.9-9.48,5.47l-40.75-23.53L1987.73,70.79z"/>
						</g>
						<g>
							<path class="st2" d="M2064.17-137.05c4.21,2.43,4.21,8.51,0,10.94l-40.75,23.53l-40.75,23.53c-4.21,2.43-9.48-0.61-9.48-5.47
								v-47.05v-47.05c0-4.86,5.26-7.9,9.48-5.47l40.75,23.53L2064.17-137.05z"/>
							<path class="st2" d="M1987.73-60.72c-4.21-2.43-4.21-8.51,0-10.94l40.75-23.53l40.75-23.53c4.21-2.43,9.48,0.61,9.48,5.47
								v47.05v47.05c0,4.86-5.26,7.9-9.48,5.47l-40.75-23.53L1987.73-60.72z"/>
						</g>
						<g>
							<path class="st2" d="M2064.17,124.47c4.21,2.43,4.21,8.51,0,10.94l-40.75,23.53l-40.75,23.53c-4.21,2.43-9.48-0.61-9.48-5.47
								v-47.05V82.89c0-4.86,5.26-7.9,9.48-5.47l40.75,23.53L2064.17,124.47z"/>
							<path class="st2" d="M1987.73,200.8c-4.21-2.43-4.21-8.51,0-10.94l40.75-23.53l40.75-23.53c4.21-2.43,9.48,0.61,9.48,5.47
								v47.05v47.05c0,4.86-5.26,7.9-9.48,5.47l-40.75-23.53L1987.73,200.8z"/>
						</g>
					</g>
					<g>
						<g>
							<path class="st2" d="M2177.55-5.53c4.21,2.43,4.21,8.51,0,10.94l-40.75,23.53l-40.75,23.53c-4.21,2.43-9.48-0.61-9.48-5.47
								V-0.06v-47.05c0-4.86,5.26-7.9,9.48-5.47l40.75,23.53L2177.55-5.53z"/>
							<path class="st2" d="M2101.1,70.79c-4.21-2.43-4.21-8.51,0-10.94l40.75-23.53l40.75-23.53c4.21-2.43,9.48,0.61,9.48,5.47
								v47.05v47.05c0,4.86-5.26,7.9-9.48,5.47l-40.75-23.53L2101.1,70.79z"/>
						</g>
						<g>
							<path class="st2" d="M2177.55-137.05c4.21,2.43,4.21,8.51,0,10.94l-40.75,23.53l-40.75,23.53c-4.21,2.43-9.48-0.61-9.48-5.47
								v-47.05v-47.05c0-4.86,5.26-7.9,9.48-5.47l40.75,23.53L2177.55-137.05z"/>
							<path class="st2" d="M2101.1-60.72c-4.21-2.43-4.21-8.51,0-10.94l40.75-23.53l40.75-23.53c4.21-2.43,9.48,0.61,9.48,5.47
								v47.05v47.05c0,4.86-5.26,7.9-9.48,5.47l-40.75-23.53L2101.1-60.72z"/>
						</g>
						<g>
							<path class="st2" d="M2177.55,124.47c4.21,2.43,4.21,8.51,0,10.94l-40.75,23.53l-40.75,23.53c-4.21,2.43-9.48-0.61-9.48-5.47
								v-47.05V82.89c0-4.86,5.26-7.9,9.48-5.47l40.75,23.53L2177.55,124.47z"/>
							<path class="st2" d="M2101.1,200.8c-4.21-2.43-4.21-8.51,0-10.94l40.75-23.53l40.75-23.53c4.21-2.43,9.48,0.61,9.48,5.47
								v47.05v47.05c0,4.86-5.26,7.9-9.48,5.47l-40.75-23.53L2101.1,200.8z"/>
						</g>
					</g>
					<g>
						<g>
							<path class="st2" d="M2290.92-5.53c4.21,2.43,4.21,8.51,0,10.94l-40.75,23.53l-40.75,23.53c-4.21,2.43-9.48-0.61-9.48-5.47
								V-0.06v-47.05c0-4.86,5.26-7.9,9.48-5.47l40.75,23.53L2290.92-5.53z"/>
							<path class="st2" d="M2214.48,70.79c-4.21-2.43-4.21-8.51,0-10.94l40.75-23.53l40.75-23.53c4.21-2.43,9.48,0.61,9.48,5.47
								v47.05v47.05c0,4.86-5.26,7.9-9.48,5.47l-40.75-23.53L2214.48,70.79z"/>
						</g>
						<g>
							<path class="st2" d="M2290.92-137.05c4.21,2.43,4.21,8.51,0,10.94l-40.75,23.53l-40.75,23.53c-4.21,2.43-9.48-0.61-9.48-5.47
								v-47.05v-47.05c0-4.86,5.26-7.9,9.48-5.47l40.75,23.53L2290.92-137.05z"/>
							<path class="st2" d="M2214.48-60.72c-4.21-2.43-4.21-8.51,0-10.94l40.75-23.53l40.75-23.53c4.21-2.43,9.48,0.61,9.48,5.47
								v47.05v47.05c0,4.86-5.26,7.9-9.48,5.47l-40.75-23.53L2214.48-60.72z"/>
						</g>
						<g>
							<path class="st2" d="M2290.92,124.47c4.21,2.43,4.21,8.51,0,10.94l-40.75,23.53l-40.75,23.53c-4.21,2.43-9.48-0.61-9.48-5.47
								v-47.05V82.89c0-4.86,5.26-7.9,9.48-5.47l40.75,23.53L2290.92,124.47z"/>
							<path class="st2" d="M2214.48,200.8c-4.21-2.43-4.21-8.51,0-10.94l40.75-23.53l40.75-23.53c4.21-2.43,9.48,0.61,9.48,5.47
								v47.05v47.05c0,4.86-5.26,7.9-9.48,5.47l-40.75-23.53L2214.48,200.8z"/>
						</g>
					</g>
					<g>
						<g>
							<path class="st2" d="M2404.3-5.53c4.21,2.43,4.21,8.51,0,10.94l-40.75,23.53l-40.75,23.53c-4.21,2.43-9.48-0.61-9.48-5.47
								V-0.06v-47.05c0-4.86,5.26-7.9,9.48-5.47l40.75,23.53L2404.3-5.53z"/>
							<path class="st2" d="M2327.85,70.79c-4.21-2.43-4.21-8.51,0-10.94l40.75-23.53l40.75-23.53c4.21-2.43,9.48,0.61,9.48,5.47
								v47.05v47.05c0,4.86-5.26,7.9-9.48,5.47l-40.75-23.53L2327.85,70.79z"/>
						</g>
						<g>
							<path class="st2" d="M2404.3-137.05c4.21,2.43,4.21,8.51,0,10.94l-40.75,23.53l-40.75,23.53c-4.21,2.43-9.48-0.61-9.48-5.47
								v-47.05v-47.05c0-4.86,5.26-7.9,9.48-5.47l40.75,23.53L2404.3-137.05z"/>
							<path class="st2" d="M2327.85-60.72c-4.21-2.43-4.21-8.51,0-10.94l40.75-23.53l40.75-23.53c4.21-2.43,9.48,0.61,9.48,5.47
								v47.05v47.05c0,4.86-5.26,7.9-9.48,5.47L2368.6-37.2L2327.85-60.72z"/>
						</g>
						<g>
							<path class="st2" d="M2404.3,124.47c4.21,2.43,4.21,8.51,0,10.94l-40.75,23.53l-40.75,23.53c-4.21,2.43-9.48-0.61-9.48-5.47
								v-47.05V82.89c0-4.86,5.26-7.9,9.48-5.47l40.75,23.53L2404.3,124.47z"/>
							<path class="st2" d="M2327.85,200.8c-4.21-2.43-4.21-8.51,0-10.94l40.75-23.53l40.75-23.53c4.21-2.43,9.48,0.61,9.48,5.47
								v47.05v47.05c0,4.86-5.26,7.9-9.48,5.47l-40.75-23.53L2327.85,200.8z"/>
						</g>
					</g>
					<g>
						<g>
							<path class="st2" d="M2517.67-5.53c4.21,2.43,4.21,8.51,0,10.94l-40.75,23.53l-40.75,23.53c-4.21,2.43-9.48-0.61-9.48-5.47
								V-0.06v-47.05c0-4.86,5.26-7.9,9.48-5.47l40.75,23.53L2517.67-5.53z"/>
							<path class="st2" d="M2441.23,70.79c-4.21-2.43-4.21-8.51,0-10.94l40.75-23.53l40.75-23.53c4.21-2.43,9.48,0.61,9.48,5.47
								v47.05v47.05c0,4.86-5.26,7.9-9.48,5.47l-40.75-23.53L2441.23,70.79z"/>
						</g>
						<g>
							<path class="st2" d="M2517.67-137.05c4.21,2.43,4.21,8.51,0,10.94l-40.75,23.53l-40.75,23.53c-4.21,2.43-9.48-0.61-9.48-5.47
								v-47.05v-47.05c0-4.86,5.26-7.9,9.48-5.47l40.75,23.53L2517.67-137.05z"/>
							<path class="st2" d="M2441.23-60.72c-4.21-2.43-4.21-8.51,0-10.94l40.75-23.53l40.75-23.53c4.21-2.43,9.48,0.61,9.48,5.47
								v47.05v47.05c0,4.86-5.26,7.9-9.48,5.47l-40.75-23.53L2441.23-60.72z"/>
						</g>
						<g>
							<path class="st2" d="M2517.67,124.47c4.21,2.43,4.21,8.51,0,10.94l-40.75,23.53l-40.75,23.53c-4.21,2.43-9.48-0.61-9.48-5.47
								v-47.05V82.89c0-4.86,5.26-7.9,9.48-5.47l40.75,23.53L2517.67,124.47z"/>
							<path class="st2" d="M2441.23,200.8c-4.21-2.43-4.21-8.51,0-10.94l40.75-23.53l40.75-23.53c4.21-2.43,9.48,0.61,9.48,5.47
								v47.05v47.05c0,4.86-5.26,7.9-9.48,5.47l-40.75-23.53L2441.23,200.8z"/>
						</g>
					</g>
				</g>
				<g>
					<g>
						<g>
							<path class="st2" d="M1270.54,391.28c4.21,2.43,4.21,8.51,0,10.94l-40.75,23.53l-40.75,23.53c-4.21,2.43-9.48-0.61-9.48-5.47
								v-47.05V349.7c0-4.86,5.26-7.9,9.48-5.47l40.75,23.53L1270.54,391.28z"/>
							<path class="st2" d="M1194.1,467.61c-4.21-2.43-4.21-8.51,0-10.94l40.75-23.53l40.75-23.53c4.21-2.43,9.48,0.61,9.48,5.47
								v47.05v47.05c0,4.86-5.26,7.9-9.48,5.47l-40.75-23.53L1194.1,467.61z"/>
						</g>
						<g>
							<path class="st2" d="M1270.54,259.76c4.21,2.43,4.21,8.51,0,10.94l-40.75,23.53l-40.75,23.53c-4.21,2.43-9.48-0.61-9.48-5.47
								v-47.05v-47.05c0-4.86,5.26-7.9,9.48-5.47l40.75,23.53L1270.54,259.76z"/>
							<path class="st2" d="M1194.1,336.09c-4.21-2.43-4.21-8.51,0-10.94l40.75-23.53l40.75-23.53c4.21-2.43,9.48,0.61,9.48,5.47
								v47.05v47.05c0,4.86-5.26,7.9-9.48,5.47l-40.75-23.53L1194.1,336.09z"/>
						</g>
						<g>
							<path class="st2" d="M1270.54,521.28c4.21,2.43,4.21,8.51,0,10.94l-40.75,23.53l-40.75,23.53c-4.21,2.43-9.48-0.61-9.48-5.47
								v-47.05V479.7c0-4.86,5.26-7.9,9.48-5.47l40.75,23.53L1270.54,521.28z"/>
							<path class="st2" d="M1194.1,597.61c-4.21-2.43-4.21-8.51,0-10.94l40.75-23.53l40.75-23.53c4.21-2.43,9.48,0.61,9.48,5.47
								v47.05v47.05c0,4.86-5.26,7.9-9.48,5.47l-40.75-23.53L1194.1,597.61z"/>
						</g>
					</g>
					<g>
						<g>
							<path class="st2" d="M1383.92,391.28c4.21,2.43,4.21,8.51,0,10.94l-40.75,23.53l-40.75,23.53c-4.21,2.43-9.48-0.61-9.48-5.47
								v-47.05V349.7c0-4.86,5.26-7.9,9.48-5.47l40.75,23.53L1383.92,391.28z"/>
							<path class="st2" d="M1307.48,467.61c-4.21-2.43-4.21-8.51,0-10.94l40.75-23.53l40.75-23.53c4.21-2.43,9.48,0.61,9.48,5.47
								v47.05v47.05c0,4.86-5.26,7.9-9.48,5.47l-40.75-23.53L1307.48,467.61z"/>
						</g>
						<g>
							<path class="st2" d="M1383.92,259.76c4.21,2.43,4.21,8.51,0,10.94l-40.75,23.53l-40.75,23.53c-4.21,2.43-9.48-0.61-9.48-5.47
								v-47.05v-47.05c0-4.86,5.26-7.9,9.48-5.47l40.75,23.53L1383.92,259.76z"/>
							<path class="st2" d="M1307.48,336.09c-4.21-2.43-4.21-8.51,0-10.94l40.75-23.53l40.75-23.53c4.21-2.43,9.48,0.61,9.48,5.47
								v47.05v47.05c0,4.86-5.26,7.9-9.48,5.47l-40.75-23.53L1307.48,336.09z"/>
						</g>
						<g>
							<path class="st2" d="M1383.92,521.28c4.21,2.43,4.21,8.51,0,10.94l-40.75,23.53l-40.75,23.53c-4.21,2.43-9.48-0.61-9.48-5.47
								v-47.05V479.7c0-4.86,5.26-7.9,9.48-5.47l40.75,23.53L1383.92,521.28z"/>
							<path class="st2" d="M1307.48,597.61c-4.21-2.43-4.21-8.51,0-10.94l40.75-23.53l40.75-23.53c4.21-2.43,9.48,0.61,9.48,5.47
								v47.05v47.05c0,4.86-5.26,7.9-9.48,5.47l-40.75-23.53L1307.48,597.61z"/>
						</g>
					</g>
					<g>
						<g>
							<path class="st2" d="M1497.29,391.28c4.21,2.43,4.21,8.51,0,10.94l-40.75,23.53l-40.75,23.53c-4.21,2.43-9.48-0.61-9.48-5.47
								v-47.05V349.7c0-4.86,5.26-7.9,9.48-5.47l40.75,23.53L1497.29,391.28z"/>
							<path class="st2" d="M1420.85,467.61c-4.21-2.43-4.21-8.51,0-10.94l40.75-23.53l40.75-23.53c4.21-2.43,9.48,0.61,9.48,5.47
								v47.05v47.05c0,4.86-5.26,7.9-9.48,5.47l-40.75-23.53L1420.85,467.61z"/>
						</g>
						<g>
							<path class="st2" d="M1497.29,259.76c4.21,2.43,4.21,8.51,0,10.94l-40.75,23.53l-40.75,23.53c-4.21,2.43-9.48-0.61-9.48-5.47
								v-47.05v-47.05c0-4.86,5.26-7.9,9.48-5.47l40.75,23.53L1497.29,259.76z"/>
							<path class="st2" d="M1420.85,336.09c-4.21-2.43-4.21-8.51,0-10.94l40.75-23.53l40.75-23.53c4.21-2.43,9.48,0.61,9.48,5.47
								v47.05v47.05c0,4.86-5.26,7.9-9.48,5.47l-40.75-23.53L1420.85,336.09z"/>
						</g>
						<g>
							<path class="st2" d="M1497.29,521.28c4.21,2.43,4.21,8.51,0,10.94l-40.75,23.53l-40.75,23.53c-4.21,2.43-9.48-0.61-9.48-5.47
								v-47.05V479.7c0-4.86,5.26-7.9,9.48-5.47l40.75,23.53L1497.29,521.28z"/>
							<path class="st2" d="M1420.85,597.61c-4.21-2.43-4.21-8.51,0-10.94l40.75-23.53l40.75-23.53c4.21-2.43,9.48,0.61,9.48,5.47
								v47.05v47.05c0,4.86-5.26,7.9-9.48,5.47l-40.75-23.53L1420.85,597.61z"/>
						</g>
					</g>
					<g>
						<g>
							<path class="st2" d="M1610.67,391.28c4.21,2.43,4.21,8.51,0,10.94l-40.75,23.53l-40.75,23.53c-4.21,2.43-9.48-0.61-9.48-5.47
								v-47.05V349.7c0-4.86,5.26-7.9,9.48-5.47l40.75,23.53L1610.67,391.28z"/>
							<path class="st2" d="M1534.23,467.61c-4.21-2.43-4.21-8.51,0-10.94l40.75-23.53l40.75-23.53c4.21-2.43,9.48,0.61,9.48,5.47
								v47.05v47.05c0,4.86-5.26,7.9-9.48,5.47l-40.75-23.53L1534.23,467.61z"/>
						</g>
						<g>
							<path class="st2" d="M1610.67,259.76c4.21,2.43,4.21,8.51,0,10.94l-40.75,23.53l-40.75,23.53c-4.21,2.43-9.48-0.61-9.48-5.47
								v-47.05v-47.05c0-4.86,5.26-7.9,9.48-5.47l40.75,23.53L1610.67,259.76z"/>
							<path class="st2" d="M1534.23,336.09c-4.21-2.43-4.21-8.51,0-10.94l40.75-23.53l40.75-23.53c4.21-2.43,9.48,0.61,9.48,5.47
								v47.05v47.05c0,4.86-5.26,7.9-9.48,5.47l-40.75-23.53L1534.23,336.09z"/>
						</g>
						<g>
							<path class="st2" d="M1610.67,521.28c4.21,2.43,4.21,8.51,0,10.94l-40.75,23.53l-40.75,23.53c-4.21,2.43-9.48-0.61-9.48-5.47
								v-47.05V479.7c0-4.86,5.26-7.9,9.48-5.47l40.75,23.53L1610.67,521.28z"/>
							<path class="st2" d="M1534.23,597.61c-4.21-2.43-4.21-8.51,0-10.94l40.75-23.53l40.75-23.53c4.21-2.43,9.48,0.61,9.48,5.47
								v47.05v47.05c0,4.86-5.26,7.9-9.48,5.47l-40.75-23.53L1534.23,597.61z"/>
						</g>
					</g>
					<g>
						<g>
							<path class="st2" d="M1724.05,391.28c4.21,2.43,4.21,8.51,0,10.94l-40.75,23.53l-40.75,23.53c-4.21,2.43-9.48-0.61-9.48-5.47
								v-47.05V349.7c0-4.86,5.26-7.9,9.48-5.47l40.75,23.53L1724.05,391.28z"/>
							<path class="st2" d="M1647.6,467.61c-4.21-2.43-4.21-8.51,0-10.94l40.75-23.53l40.75-23.53c4.21-2.43,9.48,0.61,9.48,5.47
								v47.05v47.05c0,4.86-5.26,7.9-9.48,5.47l-40.75-23.53L1647.6,467.61z"/>
						</g>
						<g>
							<path class="st2" d="M1724.05,259.76c4.21,2.43,4.21,8.51,0,10.94l-40.75,23.53l-40.75,23.53c-4.21,2.43-9.48-0.61-9.48-5.47
								v-47.05v-47.05c0-4.86,5.26-7.9,9.48-5.47l40.75,23.53L1724.05,259.76z"/>
							<path class="st2" d="M1647.6,336.09c-4.21-2.43-4.21-8.51,0-10.94l40.75-23.53l40.75-23.53c4.21-2.43,9.48,0.61,9.48,5.47
								v47.05v47.05c0,4.86-5.26,7.9-9.48,5.47l-40.75-23.53L1647.6,336.09z"/>
						</g>
						<g>
							<path class="st2" d="M1724.05,521.28c4.21,2.43,4.21,8.51,0,10.94l-40.75,23.53l-40.75,23.53c-4.21,2.43-9.48-0.61-9.48-5.47
								v-47.05V479.7c0-4.86,5.26-7.9,9.48-5.47l40.75,23.53L1724.05,521.28z"/>
							<path class="st2" d="M1647.6,597.61c-4.21-2.43-4.21-8.51,0-10.94l40.75-23.53l40.75-23.53c4.21-2.43,9.48,0.61,9.48,5.47
								v47.05v47.05c0,4.86-5.26,7.9-9.48,5.47l-40.75-23.53L1647.6,597.61z"/>
						</g>
					</g>
					<g>
						<g>
							<path class="st2" d="M1837.42,391.28c4.21,2.43,4.21,8.51,0,10.94l-40.75,23.53l-40.75,23.53c-4.21,2.43-9.48-0.61-9.48-5.47
								v-47.05V349.7c0-4.86,5.26-7.9,9.48-5.47l40.75,23.53L1837.42,391.28z"/>
							<path class="st2" d="M1760.98,467.61c-4.21-2.43-4.21-8.51,0-10.94l40.75-23.53l40.75-23.53c4.21-2.43,9.48,0.61,9.48,5.47
								v47.05v47.05c0,4.86-5.26,7.9-9.48,5.47l-40.75-23.53L1760.98,467.61z"/>
						</g>
						<g>
							<path class="st2" d="M1837.42,259.76c4.21,2.43,4.21,8.51,0,10.94l-40.75,23.53l-40.75,23.53c-4.21,2.43-9.48-0.61-9.48-5.47
								v-47.05v-47.05c0-4.86,5.26-7.9,9.48-5.47l40.75,23.53L1837.42,259.76z"/>
							<path class="st2" d="M1760.98,336.09c-4.21-2.43-4.21-8.51,0-10.94l40.75-23.53l40.75-23.53c4.21-2.43,9.48,0.61,9.48,5.47
								v47.05v47.05c0,4.86-5.26,7.9-9.48,5.47l-40.75-23.53L1760.98,336.09z"/>
						</g>
						<g>
							<path class="st2" d="M1837.42,521.28c4.21,2.43,4.21,8.51,0,10.94l-40.75,23.53l-40.75,23.53c-4.21,2.43-9.48-0.61-9.48-5.47
								v-47.05V479.7c0-4.86,5.26-7.9,9.48-5.47l40.75,23.53L1837.42,521.28z"/>
							<path class="st2" d="M1760.98,597.61c-4.21-2.43-4.21-8.51,0-10.94l40.75-23.53l40.75-23.53c4.21-2.43,9.48,0.61,9.48,5.47
								v47.05v47.05c0,4.86-5.26,7.9-9.48,5.47l-40.75-23.53L1760.98,597.61z"/>
						</g>
					</g>
					<g>
						<g>
							<path class="st2" d="M1950.8,391.28c4.21,2.43,4.21,8.51,0,10.94l-40.75,23.53l-40.75,23.53c-4.21,2.43-9.48-0.61-9.48-5.47
								v-47.05V349.7c0-4.86,5.26-7.9,9.48-5.47l40.75,23.53L1950.8,391.28z"/>
							<path class="st2" d="M1874.35,467.61c-4.21-2.43-4.21-8.51,0-10.94l40.75-23.53l40.75-23.53c4.21-2.43,9.48,0.61,9.48,5.47
								v47.05v47.05c0,4.86-5.26,7.9-9.48,5.47l-40.75-23.53L1874.35,467.61z"/>
						</g>
						<g>
							<path class="st2" d="M1950.8,259.76c4.21,2.43,4.21,8.51,0,10.94l-40.75,23.53l-40.75,23.53c-4.21,2.43-9.48-0.61-9.48-5.47
								v-47.05v-47.05c0-4.86,5.26-7.9,9.48-5.47l40.75,23.53L1950.8,259.76z"/>
							<path class="st2" d="M1874.35,336.09c-4.21-2.43-4.21-8.51,0-10.94l40.75-23.53l40.75-23.53c4.21-2.43,9.48,0.61,9.48,5.47
								v47.05v47.05c0,4.86-5.26,7.9-9.48,5.47l-40.75-23.53L1874.35,336.09z"/>
						</g>
						<g>
							<path class="st2" d="M1950.8,521.28c4.21,2.43,4.21,8.51,0,10.94l-40.75,23.53l-40.75,23.53c-4.21,2.43-9.48-0.61-9.48-5.47
								v-47.05V479.7c0-4.86,5.26-7.9,9.48-5.47l40.75,23.53L1950.8,521.28z"/>
							<path class="st2" d="M1874.35,597.61c-4.21-2.43-4.21-8.51,0-10.94l40.75-23.53l40.75-23.53c4.21-2.43,9.48,0.61,9.48,5.47
								v47.05v47.05c0,4.86-5.26,7.9-9.48,5.47l-40.75-23.53L1874.35,597.61z"/>
						</g>
					</g>
					<g>
						<g>
							<path class="st2" d="M2064.17,391.28c4.21,2.43,4.21,8.51,0,10.94l-40.75,23.53l-40.75,23.53c-4.21,2.43-9.48-0.61-9.48-5.47
								v-47.05V349.7c0-4.86,5.26-7.9,9.48-5.47l40.75,23.53L2064.17,391.28z"/>
							<path class="st2" d="M1987.73,467.61c-4.21-2.43-4.21-8.51,0-10.94l40.75-23.53l40.75-23.53c4.21-2.43,9.48,0.61,9.48,5.47
								v47.05v47.05c0,4.86-5.26,7.9-9.48,5.47l-40.75-23.53L1987.73,467.61z"/>
						</g>
						<g>
							<path class="st2" d="M2064.17,259.76c4.21,2.43,4.21,8.51,0,10.94l-40.75,23.53l-40.75,23.53c-4.21,2.43-9.48-0.61-9.48-5.47
								v-47.05v-47.05c0-4.86,5.26-7.9,9.48-5.47l40.75,23.53L2064.17,259.76z"/>
							<path class="st2" d="M1987.73,336.09c-4.21-2.43-4.21-8.51,0-10.94l40.75-23.53l40.75-23.53c4.21-2.43,9.48,0.61,9.48,5.47
								v47.05v47.05c0,4.86-5.26,7.9-9.48,5.47l-40.75-23.53L1987.73,336.09z"/>
						</g>
						<g>
							<path class="st2" d="M2064.17,521.28c4.21,2.43,4.21,8.51,0,10.94l-40.75,23.53l-40.75,23.53c-4.21,2.43-9.48-0.61-9.48-5.47
								v-47.05V479.7c0-4.86,5.26-7.9,9.48-5.47l40.75,23.53L2064.17,521.28z"/>
							<path class="st2" d="M1987.73,597.61c-4.21-2.43-4.21-8.51,0-10.94l40.75-23.53l40.75-23.53c4.21-2.43,9.48,0.61,9.48,5.47
								v47.05v47.05c0,4.86-5.26,7.9-9.48,5.47l-40.75-23.53L1987.73,597.61z"/>
						</g>
					</g>
					<g>
						<g>
							<path class="st2" d="M2177.55,391.28c4.21,2.43,4.21,8.51,0,10.94l-40.75,23.53l-40.75,23.53c-4.21,2.43-9.48-0.61-9.48-5.47
								v-47.05V349.7c0-4.86,5.26-7.9,9.48-5.47l40.75,23.53L2177.55,391.28z"/>
							<path class="st2" d="M2101.1,467.61c-4.21-2.43-4.21-8.51,0-10.94l40.75-23.53l40.75-23.53c4.21-2.43,9.48,0.61,9.48,5.47
								v47.05v47.05c0,4.86-5.26,7.9-9.48,5.47l-40.75-23.53L2101.1,467.61z"/>
						</g>
						<g>
							<path class="st2" d="M2177.55,259.76c4.21,2.43,4.21,8.51,0,10.94l-40.75,23.53l-40.75,23.53c-4.21,2.43-9.48-0.61-9.48-5.47
								v-47.05v-47.05c0-4.86,5.26-7.9,9.48-5.47l40.75,23.53L2177.55,259.76z"/>
							<path class="st2" d="M2101.1,336.09c-4.21-2.43-4.21-8.51,0-10.94l40.75-23.53l40.75-23.53c4.21-2.43,9.48,0.61,9.48,5.47
								v47.05v47.05c0,4.86-5.26,7.9-9.48,5.47l-40.75-23.53L2101.1,336.09z"/>
						</g>
						<g>
							<path class="st2" d="M2177.55,521.28c4.21,2.43,4.21,8.51,0,10.94l-40.75,23.53l-40.75,23.53c-4.21,2.43-9.48-0.61-9.48-5.47
								v-47.05V479.7c0-4.86,5.26-7.9,9.48-5.47l40.75,23.53L2177.55,521.28z"/>
							<path class="st2" d="M2101.1,597.61c-4.21-2.43-4.21-8.51,0-10.94l40.75-23.53l40.75-23.53c4.21-2.43,9.48,0.61,9.48,5.47
								v47.05v47.05c0,4.86-5.26,7.9-9.48,5.47l-40.75-23.53L2101.1,597.61z"/>
						</g>
					</g>
					<g>
						<g>
							<path class="st2" d="M2290.92,391.28c4.21,2.43,4.21,8.51,0,10.94l-40.75,23.53l-40.75,23.53c-4.21,2.43-9.48-0.61-9.48-5.47
								v-47.05V349.7c0-4.86,5.26-7.9,9.48-5.47l40.75,23.53L2290.92,391.28z"/>
							<path class="st2" d="M2214.48,467.61c-4.21-2.43-4.21-8.51,0-10.94l40.75-23.53l40.75-23.53c4.21-2.43,9.48,0.61,9.48,5.47
								v47.05v47.05c0,4.86-5.26,7.9-9.48,5.47l-40.75-23.53L2214.48,467.61z"/>
						</g>
						<g>
							<path class="st2" d="M2290.92,259.76c4.21,2.43,4.21,8.51,0,10.94l-40.75,23.53l-40.75,23.53c-4.21,2.43-9.48-0.61-9.48-5.47
								v-47.05v-47.05c0-4.86,5.26-7.9,9.48-5.47l40.75,23.53L2290.92,259.76z"/>
							<path class="st2" d="M2214.48,336.09c-4.21-2.43-4.21-8.51,0-10.94l40.75-23.53l40.75-23.53c4.21-2.43,9.48,0.61,9.48,5.47
								v47.05v47.05c0,4.86-5.26,7.9-9.48,5.47l-40.75-23.53L2214.48,336.09z"/>
						</g>
						<g>
							<path class="st2" d="M2290.92,521.28c4.21,2.43,4.21,8.51,0,10.94l-40.75,23.53l-40.75,23.53c-4.21,2.43-9.48-0.61-9.48-5.47
								v-47.05V479.7c0-4.86,5.26-7.9,9.48-5.47l40.75,23.53L2290.92,521.28z"/>
							<path class="st2" d="M2214.48,597.61c-4.21-2.43-4.21-8.51,0-10.94l40.75-23.53l40.75-23.53c4.21-2.43,9.48,0.61,9.48,5.47
								v47.05v47.05c0,4.86-5.26,7.9-9.48,5.47l-40.75-23.53L2214.48,597.61z"/>
						</g>
					</g>
					<g>
						<g>
							<path class="st2" d="M2404.3,391.28c4.21,2.43,4.21,8.51,0,10.94l-40.75,23.53l-40.75,23.53c-4.21,2.43-9.48-0.61-9.48-5.47
								v-47.05V349.7c0-4.86,5.26-7.9,9.48-5.47l40.75,23.53L2404.3,391.28z"/>
							<path class="st2" d="M2327.85,467.61c-4.21-2.43-4.21-8.51,0-10.94l40.75-23.53l40.75-23.53c4.21-2.43,9.48,0.61,9.48,5.47
								v47.05v47.05c0,4.86-5.26,7.9-9.48,5.47l-40.75-23.53L2327.85,467.61z"/>
						</g>
						<g>
							<path class="st2" d="M2404.3,259.76c4.21,2.43,4.21,8.51,0,10.94l-40.75,23.53l-40.75,23.53c-4.21,2.43-9.48-0.61-9.48-5.47
								v-47.05v-47.05c0-4.86,5.26-7.9,9.48-5.47l40.75,23.53L2404.3,259.76z"/>
							<path class="st2" d="M2327.85,336.09c-4.21-2.43-4.21-8.51,0-10.94l40.75-23.53l40.75-23.53c4.21-2.43,9.48,0.61,9.48,5.47
								v47.05v47.05c0,4.86-5.26,7.9-9.48,5.47l-40.75-23.53L2327.85,336.09z"/>
						</g>
						<g>
							<path class="st2" d="M2404.3,521.28c4.21,2.43,4.21,8.51,0,10.94l-40.75,23.53l-40.75,23.53c-4.21,2.43-9.48-0.61-9.48-5.47
								v-47.05V479.7c0-4.86,5.26-7.9,9.48-5.47l40.75,23.53L2404.3,521.28z"/>
							<path class="st2" d="M2327.85,597.61c-4.21-2.43-4.21-8.51,0-10.94l40.75-23.53l40.75-23.53c4.21-2.43,9.48,0.61,9.48,5.47
								v47.05v47.05c0,4.86-5.26,7.9-9.48,5.47l-40.75-23.53L2327.85,597.61z"/>
						</g>
					</g>
					<g>
						<g>
							<path class="st2" d="M2517.67,391.28c4.21,2.43,4.21,8.51,0,10.94l-40.75,23.53l-40.75,23.53c-4.21,2.43-9.48-0.61-9.48-5.47
								v-47.05V349.7c0-4.86,5.26-7.9,9.48-5.47l40.75,23.53L2517.67,391.28z"/>
							<path class="st2" d="M2441.23,467.61c-4.21-2.43-4.21-8.51,0-10.94l40.75-23.53l40.75-23.53c4.21-2.43,9.48,0.61,9.48,5.47
								v47.05v47.05c0,4.86-5.26,7.9-9.48,5.47l-40.75-23.53L2441.23,467.61z"/>
						</g>
						<g>
							<path class="st2" d="M2517.67,259.76c4.21,2.43,4.21,8.51,0,10.94l-40.75,23.53l-40.75,23.53c-4.21,2.43-9.48-0.61-9.48-5.47
								v-47.05v-47.05c0-4.86,5.26-7.9,9.48-5.47l40.75,23.53L2517.67,259.76z"/>
							<path class="st2" d="M2441.23,336.09c-4.21-2.43-4.21-8.51,0-10.94l40.75-23.53l40.75-23.53c4.21-2.43,9.48,0.61,9.48,5.47
								v47.05v47.05c0,4.86-5.26,7.9-9.48,5.47l-40.75-23.53L2441.23,336.09z"/>
						</g>
						<g>
							<path class="st2" d="M2517.67,521.28c4.21,2.43,4.21,8.51,0,10.94l-40.75,23.53l-40.75,23.53c-4.21,2.43-9.48-0.61-9.48-5.47
								v-47.05V479.7c0-4.86,5.26-7.9,9.48-5.47l40.75,23.53L2517.67,521.28z"/>
							<path class="st2" d="M2441.23,597.61c-4.21-2.43-4.21-8.51,0-10.94l40.75-23.53l40.75-23.53c4.21-2.43,9.48,0.61,9.48,5.47
								v47.05v47.05c0,4.86-5.26,7.9-9.48,5.47l-40.75-23.53L2441.23,597.61z"/>
						</g>
					</g>
				</g>
			</g>
		</g>
	</g>
</g>
</svg>
