<?xml version="1.0" encoding="utf-8"?>
<!-- Generator: Adobe Illustrator 25.2.0, SVG Export Plug-In . SVG Version: 6.00 Build 0)  -->
<svg version="1.1" id="Layer_1" xmlns="http://www.w3.org/2000/svg" xmlns:xlink="http://www.w3.org/1999/xlink" x="0px" y="0px"
	 viewBox="0 0 360 360" style="enable-background:new 0 0 360 360;" xml:space="preserve">
<style type="text/css">
	.st0{fill:#FFFFFF;}
</style>
<g>
	<path class="st0" d="M289.59,141.67c0.21,14.91,0.45,29.83,0.63,44.74c0.39,33.53,1.04,67.05,1.14,100.58
		c0.03,8.5,0.1,17.06,2.4,25.37c1.65,5.94,4.48,11.08,9.5,14.97c7.62,5.9,23.05,2.46,25.21-9.43c0.51-2.79,1.05-5.57,1.07-8.43
		c0.04-4.34-1.56-7.82-4.98-10.55c-4.06-3.24-7.97-6.64-11.07-10.86c-5.68-7.72-7.18-16.03-3.57-25.08
		c1.83-4.59,5.21-7.89,9.01-10.83c3.73-2.89,7.94-4.91,12.28-6.69c0.66-0.27,1.57-0.73,1.98-0.17c0.55,0.75-0.38,1.36-0.82,1.95
		c-5.26,6.93-6.76,14.55-4.04,22.87c1.12,3.41,3.23,6.12,6.39,7.95c11.28,6.52,15.24,16.59,14.2,29.13c-1,11.95-5.82,21.95-15,29.76
		c-6.4,5.45-14.02,7.84-22.22,8.72c-6.53,0.71-13.06,0.74-19.49-0.79c-11.21-2.65-20.05-12.8-21.13-24.25
		c-1.92-20.54-1.92-41.14-2.08-61.74c-0.31-39.57-0.52-79.13-0.77-118.7c0.6-6.58,0.34-13.17,0.18-19.76
		c-0.28-2.61-0.53-5.21-1.08-7.78c-1.56-7.24-9.2-11.6-16.2-9.15c-1.46,0.51-2.87,1.19-4.28,1.86c-0.65,0.31-1.22,0.75-2.04,0.25
		c-0.02-0.61,0.52-0.9,0.89-1.24c5.21-4.86,11.31-8.07,18.35-9.15c11.2-1.72,22.45,5.62,24.87,15.97c0.95,4.05,1.02,8.15,0.64,12.27
		C289.31,129.53,289.44,135.6,289.59,141.67z"/>
	<path class="st0" d="M268.42,120.45c0.16,6.59,0.41,13.18-0.18,19.76c-4.82-0.88-9.72-1.13-14.59-1.62
		c-10.88-1.1-21.71-2.53-32.52-4.11c-5.44-0.79-10.87-1.21-16.22,0.57c-5.86,1.95-8.01,4.83-8.01,11
		c0.01,15.27,0.04,30.54,0.07,45.82c0.01,3.49,0.49,3.81,3.62,2.43c21.99-9.69,47.55,0.62,55.75,22.48
		c5.55,14.78,2.51,38.09-19.89,49.6c-18.05,9.28-37.1,4.85-49.69-5.97c-6.66-5.73-10.31-13.19-10.28-22.08
		c0.1-33.38-0.77-66.77,0.02-100.15c0.22-9.49,4.59-16.12,13.45-19.78c8.1-3.35,16.55-4.55,25.22-3.96
		c16.43,1.12,32.76,3.29,49.11,5.3C265.66,119.91,267.04,120.21,268.42,120.45z M238.02,230.54c-0.12-1.13-0.15-2.27-0.37-3.38
		c-2.23-10.77-13.52-17.5-24.51-14.63c-8.22,2.15-14.42,9.6-14.48,17.39c-0.07,9.6,6.71,17.19,16.83,18.84
		C226.99,250.65,237.93,241.78,238.02,230.54z"/>
	<path class="st0" d="M146.16,247.4c-0.98-28.45-1.04-56.92-1.62-85.38c-0.32-15.62-0.56-31.25-0.79-46.87
		c-0.03-1.92-0.62-3.62-1.42-5.28c-1.2-2.5-2.64-4.85-4.3-7.08c-3.34-4.49-7.6-6.81-13.34-6.44c-3.17,0.2-6.39,0.23-9.56-0.41
		c-4.61-0.94-7.49-4.66-7.66-9.94c-0.16-4.8,2.9-9.49,7.12-10.44c2.05-0.46,3.41-1.45,4.51-3.17c5.21-8.16,9.97-16.55,12.33-26.02
		c2.28-9.16,0-17.24-6.4-24.21c-3.89-4.25-9.28-4.09-13.16-2.84c-2.51,0.81-2.96,3.38-0.98,5.7c3.03,3.54,3.9,7.6,3.48,12.11
		c-0.83,8.74-8.43,14.16-16.95,12.1c-7.79-1.88-11.37-7.5-12.98-14.75c-2.46-11.07,2.09-21.11,12.14-27.15
		c7.39-4.45,15.56-5.53,23.96-5.42c3.33,0.04,6.69,0.02,9.95,0.85c11.76,2.96,18.16,10.98,20.83,22.36
		c3.37,14.36,0.29,27.72-6.62,40.41c-1.49,2.74-3.14,5.39-4.8,8.03c-0.7,1.11-0.68,1.75,0.68,2.18c1.24,0.39,2.34,1.1,3.22,2.03
		c7.2,7.68,14.28,15.46,18.02,25.57c1.53,4.14,2.48,8.38,2.72,12.84c2.17,40.54,0.87,81.11,1.45,121.66
		c0.07,5.11,0.15,10.23,0.2,15.34c0.02,2.63-0.35,2.95-2.8,2.42c-5.07-1.09-10.01-0.61-14.88,1.07c-2.18,0.75-2.32,0.65-2.33-1.58
		C146.15,252.51,146.16,249.95,146.16,247.4z"/>
	<path class="st0" d="M106.91,143.57c-1.32,1.22-2.99,1.25-4.56,1.54c-12.57,2.28-22.97,8.71-32.36,17.01
		c-14.25,12.59-22.62,28.7-27.79,46.72c-4,13.96-4.75,28.2-4.03,42.61c0.56,11.28,1.85,22.46,6.66,32.75
		c15.13,32.42,38.26,56,73.79,65.51c11.57,3.1,23.4,3.48,35.29,3.34c7.19-0.08,14.32-0.64,21.36-2.17c0.34-0.07,0.7-0.06,1.37-0.11
		c-1.45,1.27-2.98,1.72-4.46,2.2c-7.33,2.4-14.93,3.4-22.55,4.19c-14.84,1.54-29.68,1.3-44.37-1.28
		c-22.07-3.87-42.83-11.02-60.42-25.59c-12.81-10.6-21.02-24.19-26.26-39.79c-5.1-15.19-8.37-30.64-7.51-46.78
		c0.45-8.55,1.72-16.93,4.7-25c8.32-22.49,20.63-42.32,39.03-57.98c9.41-8.01,19.94-14.03,32.24-16.47
		C93.6,142.98,100.22,142.99,106.91,143.57z"/>
	<path class="st0" d="M108,234.85c-0.46,1.15,0.18,1.57,0.7,2.04c5.3,4.95,6.6,11.36,5.28,17.97c-1.83,9.1-5.17,17.82-9.23,26.19
		c-4.27,8.78-12.14,12.86-21.19,14.27c-15.77,2.45-30.98-8.68-34.91-24.89c-3.6-14.87,3.3-34.35,15.68-43.36
		c8.79-6.4,18.42-8.57,28.89-4.33c1.09,0.44,2.07,0.18,3.12,0.04c11.38-1.55,21.94,0.71,31.2,7.54c6.4,4.72,8.87,11.79,9.67,19.44
		c1.98,19.18-6.01,33.51-21.64,44.07c-0.23,0.16-0.49,0.29-0.73,0.43c-2.81,1.62-5.27,1.48-6.75-0.38
		c-1.37-1.73-1.04-3.94,1.02-6.32c3.85-4.47,6.78-9.47,8.32-15.16c1.99-7.33,2.96-14.84,1.45-22.32
		C117.56,243.58,113.73,238.52,108,234.85z M96.15,261.46c0.46-3.12-0.19-6.27-0.71-9.41c-0.92-5.61-2.73-10.88-6.84-15.02
		c-4.95-4.99-11.96-4.82-16.75,0.32c-1.92,2.06-3.17,4.51-4.05,7.15c-2.15,6.41-2.16,12.95-1.06,19.54
		c0.8,4.74,2.35,9.19,5.25,13.07c2.79,3.74,6.36,6.08,11.25,5.54c4.49-0.49,7.41-3.27,9.58-6.97
		C95.37,271.32,95.95,266.47,96.15,261.46z"/>
	<path class="st0" d="M163.62,74.48c-0.1-3.47,0.52-7.4,2.99-10.87c3-4.22,7.45-5.95,12.06-4.67c4.51,1.25,8.23,5.91,8.52,10.65
		c0.21,3.41-0.66,6.77-0.46,10.2c0.23,4,1.68,7.27,4.89,9.73c7.39,5.65,17.4,2.34,19.88-6.53c1.57-5.61,0.74-10.81-2.39-15.67
		c-1.78-2.76-4-5.15-6.34-7.44c-2.08-2.04-4.28-3.96-6.28-6.07c-8.23-8.68-11.91-19.27-11.8-30.99
		c0.11-12.1,11.38-20.58,22.84-17.72c7.28,1.82,10.9,7.24,13.08,13.88c0.7,2.14-0.82,3.45-3.21,3.01c-3.5-0.64-7.03-0.95-10.57-1.21
		c-2.32-0.17-2.82,0.32-2.64,2.64c0.31,4.04,2.19,7.31,5.25,9.87c3.7,3.1,7.59,5.98,11.2,9.18c10.15,8.99,15.28,20.17,14.73,33.89
		c-0.67,16.46-13.5,29.83-29.93,31.14c-7.76,0.62-15.32,0.11-22.52-3.07C170.55,98.97,163.65,88.45,163.62,74.48z"/>
	<path class="st0" d="M189.73,317.91c-0.13-24.61,17.39-38.83,33.39-41.43c11.07-1.8,21.47,0.45,29.77,8.92
		c3.34,3.41,6.51,6.94,8.88,11.11c6.34,11.15,7.25,22.6,2.37,34.63c-2.68,6.6-6.61,12-12.34,16.14c-2.99,2.16-6.17,3.15-9.77,1.56
		c-0.71-0.31-1.52-0.52-1.61-1.48c-0.08-0.94,0.73-1.11,1.33-1.42c1.16-0.61,1.79-1.64,2.03-2.85c1.75-9.11,2.47-18.35,1.24-27.52
		c-0.96-7.22-4.77-12.9-12.22-15.15c-7.07-2.14-14.65,0.8-18.39,7.15c-3.66,6.21-4.51,13.06-4.05,20.12
		c0.38,5.81,1.93,11.27,4.96,16.31c1.54,2.57,0.27,4.66-2.72,4.8c-4.31,0.2-7.93-1.2-10.7-4.61c-0.89-1.1-1.79-2.22-2.79-3.22
		C192.26,334.1,190.11,325.46,189.73,317.91z"/>
	<path class="st0" d="M257.68,66.76c0.15,6.46,1.32,12.67,4.42,18.44c1.44,2.67,0.82,3.56-2.26,3.53c-3.83-0.04-6.79-1.77-9.15-4.67
		c-1.66-2.04-3.3-4.09-4.94-6.14c-3.97-4.96-5.57-10.82-6.14-16.97c-2.21-23.67,15.56-43.82,39.35-44.66
		c8.51-0.3,16.11,2.29,22.46,8.06c11,10.01,17.68,22.25,15.58,37.33c-1.68,12.07-7.12,22.6-18.94,28.36
		c-0.38,0.19-0.76,0.38-1.16,0.52c-0.96,0.34-2.07,0.57-2.84-0.12c-0.83-0.76,0.17-1.55,0.46-2.27c0.84-2.13,1.49-4.33,1.65-6.58
		c0.54-7.51,1.43-14.99,1.33-22.53c-0.06-4.72-1.33-9.13-4.2-12.94c-4.36-5.78-10.18-8.66-17.4-7.71
		c-7.07,0.93-12.12,4.96-14.97,11.52C258.6,55.29,257.79,60.97,257.68,66.76z"/>
	<path class="st0" d="M122.69,319.02c-0.05-2.07,0.13-4.55,1.03-6.91c1.89-4.96,6.75-7.91,11.35-6.92
		c5.04,1.08,8.39,5.55,8.15,10.97c-0.07,1.56-0.27,3.11-0.43,4.66c-0.82,7.78,5.54,12.8,13.29,11.55c5.88-0.94,9.55-6.98,8.32-13.42
		c-0.64-3.37-2.19-6.27-4.5-8.78c-2.12-2.3-4.42-4.41-6.72-6.53c-7.77-7.16-12.31-15.94-12.45-26.58
		c-0.14-10.8,9.67-18.32,20.15-15.76c4.64,1.14,7.49,4.42,9.64,8.4c0.8,1.48,2.47,2.99,1.3,4.83c-1.2,1.88-3.27,0.82-4.94,0.75
		c-2.26-0.1-4.51-0.55-6.77-0.73c-2.02-0.16-2.63,0.49-2.36,2.49c0.43,3.18,2.07,5.69,4.58,7.65c3.52,2.76,7.12,5.42,10.54,8.3
		c7.43,6.27,11.55,14.23,11.83,24.05c0.37,13.25-7.43,24.1-20.28,27.5c-11.81,3.13-23.01,1.56-32.78-6.19
		C125.64,333.59,122.46,327.26,122.69,319.02z"/>
	<path class="st0" d="M289.59,141.67c-0.15-6.07-0.28-12.15-0.01-18.22c9.26,0.16,18.04-1.64,26.09-6.4
		c7.89-4.66,12.1-11.56,12.31-20.76c0.18-7.84-1.43-15.21-6.07-21.73c-0.34-0.48-0.98-1.07-0.51-1.67c0.37-0.48,1.1-0.19,1.6,0.05
		c9.28,4.37,17.01,10.4,19.17,21.02c2.26,11.1-1.12,21.08-7.95,29.86c-6.38,8.2-15.4,12.28-25.09,15.09
		C302.75,140.75,296.22,141.62,289.59,141.67z"/>
	<path class="st0" d="M98.79,188.33c0-6.14,4.69-10.84,10.77-10.8c5.9,0.04,10.58,4.83,10.58,10.83c0,6-4.9,11.04-10.72,11.02
		C103.56,199.37,98.79,194.42,98.79,188.33z"/>
	<path class="st0" d="M124.73,176.57c-6.73-0.25-10.74-4.67-10.48-11.54c0.23-5.89,5.12-10.5,10.87-10.27
		c5.91,0.24,10.33,5.37,10.12,11.75C135.06,172.19,130.26,176.78,124.73,176.57z"/>
	<path class="st0" d="M86.09,166.07c-0.02-5.9,4.54-10.62,9.97-10.96c6.63-0.41,11.16,5.68,11.19,10.92
		c0.03,5.84-4.93,11.01-10.5,11.01C90.8,177.04,86.12,172.21,86.09,166.07z"/>
</g>
</svg>
