<?xml version="1.0" encoding="utf-8"?>
<!-- Generator: Adobe Illustrator 25.2.0, SVG Export Plug-In . SVG Version: 6.00 Build 0)  -->
<svg version="1.1" id="Layer_1" xmlns="http://www.w3.org/2000/svg" xmlns:xlink="http://www.w3.org/1999/xlink" x="0px" y="0px"
	 viewBox="0 0 223.2 311.8" style="enable-background:new 0 0 223.2 311.8;" xml:space="preserve">
<style type="text/css">
	.st0{fill:none;}
	.st1{fill:none;stroke:#131F67;stroke-width:4.952;stroke-linecap:round;}
	.st2{fill:url(#SVGID_1_);stroke:#131F67;stroke-linecap:round;}
	.st3{fill:url(#SVGID_2_);}
	.st4{fill:#FEFDFF;}
</style>
<pattern  y="311.8" width="223.2" height="311.8" patternUnits="userSpaceOnUse" id="b" viewBox="0 -311.8 223.2 311.8" style="overflow:visible;">
	<g>
		<rect y="-311.8" class="st0" width="223.2" height="311.8"/>
	</g>
</pattern>
<g transform="translate(-260.433 -370.276)">
	<rect x="271.1" y="379.3" class="st1" width="201.9" height="293.6"/>
	<pattern  id="SVGID_1_" xlink:href="#b" patternTransform="matrix(-0.1106 0.1106 0.1106 0.1106 -7982.3037 -5777.0132)">
	</pattern>
	<path class="st2" d="M275.6,383.3h192.9V669H275.6V383.3z"/>
</g>
<linearGradient id="SVGID_2_" gradientUnits="userSpaceOnUse" x1="200.3246" y1="335.2892" x2="70.5806" y2="72.9309">
	<stop  offset="0" style="stop-color:#190B38"/>
	<stop  offset="0.9691" style="stop-color:#B20033"/>
</linearGradient>
<rect y="0" class="st3" width="223.2" height="311.8"/>
<path class="st4" d="M122.2,276.7c0,1.1,0,2.2,0,3.3c0,0-0.1,0-0.1,0c-0.7,0-1.4,0-2.1,0c0,0-0.1,0-0.1,0c0,0.2,0,0.4,0,0.6
	c0,0.2,0,0.4,0,0.6c0,0.2,0,0.4,0,0.5c0,0.2,0,0.4,0,0.6c0,0.2,0,0.4,0,0.6c0,0.2,0,0.4,0,0.6c-1.5,0-2.9,0-4.4,0c0-1.1,0-2.2,0-3.4
	c-0.1,0-0.1,0-0.1,0c-3.4,0-6.8,0-10.3,0c0,0-0.1,0-0.1,0c0,0,0,0-0.1,0c0,0,0-0.1,0-0.1c0-1.3,0-2.5,0-3.8c0-0.1,0-0.1,0.1-0.2
	c0.5-0.6,1-1.1,1.5-1.7c0,0,0,0,0.1-0.1c-0.1,0-0.1,0-0.1,0c-1.1,0-2.3,0-3.4,0c-0.4,0-0.8,0-1.3,0c0-1.2,0-2.4,0-3.6
	c0,0,0.1,0,0.1,0c1.9,0,3.9,0,5.8,0c0.3,0,0.5,0,0.7-0.1c0.2-0.1,0.4-0.3,0.5-0.5c0-0.1,0.1-0.2,0.1-0.3c0.1-0.3,0.1-0.6,0.1-0.9
	c0-4.3,0-8.5,0-12.8c0,0,0-0.1,0-0.1c0,0,0,0,0-0.1c1.4,0,2.9,0,4.3,0c0,0,0,0.1,0,0.1c0,2,0,4.1,0,6.1c0,1.4,0,2.9,0,4.3
	c0,0,0,0.1,0,0.1c0,0,0.1-0.1,0.1-0.1c0.4-0.4,0.8-0.9,1.2-1.3c0,0,0.1-0.1,0.1-0.1c1.6,0,3.2,0,4.8,0c0,0,0.1,0,0.1,0c0,0,0,0,0,0
	c0,0,0,0,0,0s0,0,0,0s0,0,0,0c0,0,0,0,0,0c0,0,0,0,0,0c0,3.8,0,7.7,0,11.5c0,0,0,0,0,0c0,0,0,0,0,0c0,0,0,0,0,0c0,0,0,0,0,0s0,0,0,0
	c0,0,0,0,0,0c0,0,0,0,0,0c0,0,0,0,0,0c0,0,0.1,0,0.1,0c0.7,0,1.4,0,2.1,0C122.1,276.7,122.2,276.7,122.2,276.7z M115.5,276.7
	c0-2.4,0-4.8,0-7.2c0,0,0,0,0,0c-2.1,2.4-4.2,4.8-6.3,7.2C111.3,276.7,113.4,276.7,115.5,276.7z"/>
</svg>
