<svg xmlns="http://www.w3.org/2000/svg" xmlns:xlink="http://www.w3.org/1999/xlink" width="691.299" height="679" viewBox="0 0 691.299 679">
  <defs>
    <clipPath id="clip-path">
      <path id="Path_13" data-name="Path 13" d="M193.484,169.314l73.353-13.792L239.7,210.781l-25.178-23.636-5.768,10.13-4.005-18.921Z" transform="translate(-193.484 -155.522)" fill="none"/>
    </clipPath>
    <clipPath id="clip-path-2">
      <path id="Path_24" data-name="Path 24" d="M264.4,339.785c-2.033,8.817-4.2,18.387-6.6,27.114-11.624-2.354-23.29-5.5-34.914-7.856-5.972-1.209-6.037,8.151-8.509,11.9a42.447,42.447,0,0,1-8.975,9.234c-6.9,5.642-17.44,7.622-26.3,7.489-10.412-.157-21.377-5.038-25.948-14.393-3.72-7.609-2.654-16.676-.414-24.845,8.207-29.944,30.332-54.028,53.883-74.263,11.635-10,26.227-17.311,41.874-11.834,25.233,8.836,24.2,37.464,19.828,59.227Q266.5,330.7,264.4,339.785Z" transform="translate(-150.717 -260.455)" fill="none"/>
    </clipPath>
    <clipPath id="clip-path-3">
      <path id="Path_43" data-name="Path 43" d="M182.015,257.144c0-.218-.024-.431-.038-.648-2.354-4.685-9.436-3.205-13.834-4.505a8.721,8.721,0,0,1-2.391-1.132c-.095-.064-.191-.125-.281-.194a9.552,9.552,0,0,1-3.3-4.579c-2.785-7.741-.08-15.746,2.081-23.454a2.338,2.338,0,0,0-.524-.457c-1.066-.683-2.453-.386-3.7-.156a22.63,22.63,0,0,1-13.6-1.7,38.432,38.432,0,0,1-5.815-3.386c-1.06-.726-3.3-3.543-4.667-3.389a.692.692,0,0,0-.313.168c-.333,6.665.705,12.633-2,19.078a20.812,20.812,0,0,1-4.114,6.5,7.727,7.727,0,0,1-3.739,2.886,9.849,9.849,0,0,1-1.356.4c-.183.064-.35.149-.54.205a1,1,0,0,1-.592,0c-2.9.441-6,.346-7.885,2.471a7.754,7.754,0,0,0-1.57,3.641c-1.995,9.66,2.929,20.76,9.248,27.855,4.815,5.4,12.269,9.814,19.546,10.378,6.928.535,13.476-2.357,19.277-5.86,2.545-1.536,4.953-3.037,7.228-4.677,6.846-4.938,12.58-10.067,12.872-18.988C182.011,257.446,182.014,257.295,182.015,257.144Z" transform="translate(-113.386 -213.54)" fill="none"/>
    </clipPath>
    <clipPath id="clip-path-4">
      <path id="Path_53" data-name="Path 53" d="M103.173,331.333c2.171-9.381,11.927-9.351,24.275-8.129,13.253,1.312,26.595-.333,39.888-1.134,23.567-1.417,47.2-.181,70.781,1.057,9.182.483,18.743,1.071,26.739,5.608,8.068,4.581,13.6,12.759,16.8,21.466s4.323,18.017,5.419,27.229q4.353,36.561,8.7,73.123c.739,6.208,1.6,12.416,2.219,18.637.705,7.108.274,6.894-6.771,7.946-11.8,1.762-23.63,3.3-35.443,4.943-5.188-20.638-10.391-41.345-12.9-62.477-.345-2.9-6.277-37.941-7.252-37.786a269.945,269.945,0,0,1-63.808,2.461c-15.031-1.207-30.326-3.8-43.441-11.247-11.531-6.546-23.341-18.716-25.28-32.328A25.917,25.917,0,0,1,103.173,331.333Z" transform="translate(-102.721 -321.439)" fill="none"/>
    </clipPath>
    <clipPath id="clip-path-5">
      <circle id="Ellipse_7" data-name="Ellipse 7" cx="38.199" cy="38.199" r="38.199" fill="none"/>
    </clipPath>
    <clipPath id="clip-path-6">
      <path id="Path_96" data-name="Path 96" d="M428.779,372.978c.734-26.478,1.289-52.044-2.894-78.36-1.794-11.283-11.118-50.194-25.262-52.312a5.432,5.432,0,0,0-2.148.091,32.137,32.137,0,0,0-4.374-11.079c-6.17-9.917-17.367-17.154-28.825-19.867-12.71-3.009-28.2-1.283-33.794,13.367-2.864,7.5-2.2,15.132-5.61,22.387-9.639,20.492-10.875,40.837-13.745,63.4q-5.082,39.983-10.564,79.915Q291.148,466.4,279.285,542.065a130.752,130.752,0,0,0,15.931,2.864,122.523,122.523,0,0,0,28.014-.293q13.644-68.8,29.166-137.209c5.184-22.812,9.529-45.123,14.884-66.774,3.638,35.374,6.779,70.807,8.977,106.3q1.681,27.143,2.57,54.326c.473,15.02,3.282,31.347,2.67,46.059,10.7,1.9,23.478.165,34.443-.616,1.259-.09,10.632-1.328,10.738-2.5,2.868-31.783,2.759-57.327,3.423-90.7C430.6,428.425,428.1,397.58,428.779,372.978Z" transform="translate(-279.285 -210.209)" fill="none"/>
    </clipPath>
    <clipPath id="clip-path-7">
      <path id="Path_107" data-name="Path 107" d="M368.117,191.814c9.283.574,13.406,2.322,22.161,5.155,8.612,2.787,17.29,4.739,24.642,10.369,7.4,5.666,12.577,15.288,10.244,24.311-1.546,5.977-6.133,10.813-11.448,13.957s-11.352,4.813-17.332,6.351a82.9,82.9,0,0,1,5.745,29.42c.011.972,25.363-5.993,27.561-6.864,8.1-3.208,14.539-7.571,21.162-13.114a45.317,45.317,0,0,0,15.576-42.561c-5.237-31.223-35.843-52.383-64.873-61.661-16.6-5.305-34.122-7.092-51.538-7.643" transform="translate(-350.019 -149.534)" fill="none"/>
    </clipPath>
    <clipPath id="clip-path-8">
      <path id="Path_109" data-name="Path 109" d="M331.948,290.146q-2.881,21.97-6.059,43.9c3.9-.067,7.715,2.089,11.5,2.944,4.714,1.065,9.474,1.93,14.255,2.644a249.158,249.158,0,0,0,29.9,2.524c4.885.135,58.49-1.817,58.354-2.719-.944-6.306-2.139-12.6-2.376-18.984q-.794-21.38-1.587-42.759-1.395-37.629-2.793-75.257-.152-4.115-.3-8.227c-.249-6.71-3.146-11.7-8.307-15.879a9.681,9.681,0,0,0-2.211-1.438,11.2,11.2,0,0,0-4.1-.646c-3.481-.111-7.327-.507-10.81-.617a5.9,5.9,0,0,1-2.86-.912c.083,4.78-2.246,10.313-6.165,13.207-5.549,4.1-13.261,1.576-17.714-2.987a16.4,16.4,0,0,1-2.912-4.066,12.833,12.833,0,0,1-1.72-4.677c-16.5,4.5-36.341,4.848-53.322,3.947-8.148-.433-17.1-1.812-22.378-8.036-11.026-13.011-6.458-48.842-4.943-64.376a217.87,217.87,0,0,1-33.664-1.456c-3.785,22.9-8.615,55.161-6.157,78.24,3.757,35.265,56.157,44.018,83.89,40.281-.468,7.927-2.716,27.731-3.406,33.228Q334.043,274.09,331.948,290.146Z" transform="translate(-254.903 -106.277)" fill="none"/>
    </clipPath>
  </defs>
  <g id="OBJECTS" transform="translate(-34.474 -38.254)">
    <g id="Group_47" data-name="Group 47" transform="translate(34.474 38.254)">
      <path id="Path_1" data-name="Path 1" d="M212.3,664.33a57.778,57.778,0,0,1-1.48-11.251c-.391-12.508,2.872-25.992-3.216-36.925-6-10.766-19.137-15.238-31.337-16.983-37.735-5.4-80.844,5.338-111.017-17.962-35.322-27.279-35.065-74.47-24.695-113.932,5.107-19.439,12.452-39.729,22.035-57.436,10.895-20.13,32.039-28.958,44.005-47.882,9.941-15.724,8.477-36.367,2-53.8s-17.375-32.83-26.029-49.3C72.335,239.4,65.141,217.817,65.678,195.838c.734-29.981,14.6-58.533,43.1-70.249,25.344-10.417,55.562-3.415,79.261-18.919,15.576-10.191,23.928-28.195,36.611-41.821,20.8-22.347,54.392-31.855,83.815-23.718,22.649,6.264,41.462,21.578,60.916,34.76s41.9,24.917,65.267,22.407c19.588-2.1,36.55-13.848,54.2-22.594,72.1-35.727,187.265-22.039,217.126,63.792,11.424,32.841,7,70.343-9.729,100.827-6.433,11.724-14.6,22.556-19.54,34.983s-6.162,27.374,1.154,38.567c6.165,9.431,17.04,14.417,25.987,21.265,19.97,15.289,21.238,49.372,12.833,71-6.477,16.668-19.8,30.659-22.793,48.291-4.164,24.545,12.633,47.164,19.734,71.026,20.356,68.4-41.682,123.69-98.174,150.164-33.691,15.79-75.2,19.266-107.268.39-15.137-8.911-27.3-22.156-42.11-31.6-20.412-13.016-47.3-18.03-69.118-7.529-23.911,11.51-36.32,37.927-55.666,56.09-20.869,19.591-51.635,29.2-79.283,21.789C238.035,708.335,217.843,688.207,212.3,664.33Z" transform="translate(-34.474 -38.254)" fill="#f5d4d6"/>
      <path id="Path_2" data-name="Path 2" d="M338.811,300.214a36.82,36.82,0,0,1-5.442,13.377c-10.907,15.682-38.539,34.857-57.914,26.757-10.162-4.249-16.381-17.941-10.123-27,4.534-6.564,13.263-8.459,19.819-13,11.514-7.983,16.58-24.356,29.848-28.855C336.415,264.224,342.223,283.674,338.811,300.214Z" transform="translate(103.297 101.519)" fill="#e0adad"/>
      <path id="Path_3" data-name="Path 3" d="M112.922,280.568a10.444,10.444,0,0,1-.407,3.426c-.951,3.231-3.353,5.8-5.73,8.183-9.663,9.675-44.491,49.075-52.293,17.9-4.247-16.978,19.163-39.8,34.045-42.724,5.748-1.129,12.007-1.018,17.093,1.887A14.411,14.411,0,0,1,112.922,280.568Z" transform="translate(-22.702 99.567)" fill="#e0adad"/>
      <path id="Path_4" data-name="Path 4" d="M364.6,396.293c-4.663,2.987-9.707,5.237-14.252,8.387-5.23,3.625-14.14,11.882-21.145,10.415-5.546-1.161-9.338-8.454-8.881-13.672s3.678-9.857,7.569-13.375,8.485-6.152,12.747-9.211c3.385-2.431,6.6-5.152,10.319-7.026a27.6,27.6,0,0,1,13.317-2.867c3.691.127,7.6,1.114,10.048,3.878,2.833,3.2,3,8.147,1.312,12.073s-4.911,6.984-8.337,9.538C366.418,395.092,365.517,395.706,364.6,396.293Z" transform="translate(137.967 161.254)" fill="#e0adad"/>
      <path id="Path_5" data-name="Path 5" d="M193.731,166.019q-.565.556-1.121,1.132c-4.327,4.494-8.854,9.113-14.666,11.381s-13.308,1.494-17.088-3.471a13.22,13.22,0,0,1-2.346-5.424c-1.712-8.552,3.523-17.1,10.111-22.812,8.863-7.69,19.11-12.929,28.379-20.444,5.607-4.545,12.086-8.573,19.288-9.048s15.11,3.643,16.862,10.645c1.289,5.153-.972,10.675-4.542,14.608s-8.3,6.579-12.949,9.155C207.823,156.086,200.119,159.743,193.731,166.019Z" transform="translate(40.164 9.434)" fill="#e0adad"/>
      <path id="Path_6" data-name="Path 6" d="M352.935,72.394a7.523,7.523,0,0,1,10.637-10.641" transform="translate(156.335 -25.405)"/>
      <path id="Path_7" data-name="Path 7" d="M451.784,167.555A7.552,7.552,0,1,1,444.233,160,7.551,7.551,0,0,1,451.784,167.555Z" transform="translate(208.193 35.202)" fill="none" stroke="#000" stroke-miterlimit="10" stroke-width="0.5"/>
      <circle id="Ellipse_1" data-name="Ellipse 1" cx="14.715" cy="14.715" r="14.715" transform="translate(331.888 326.469) rotate(-57.05)" fill="none" stroke="#000" stroke-miterlimit="10" stroke-width="0.5"/>
      <path id="Path_8" data-name="Path 8" d="M236.759,242.716a5.377,5.377,0,1,1-2.626,7.136A5.378,5.378,0,0,1,236.759,242.716Z" transform="translate(85.688 84.806)"/>
      <path id="Path_9" data-name="Path 9" d="M95.522,139.81a5.377,5.377,0,1,1-2.626,7.136A5.376,5.376,0,0,1,95.522,139.81Z" transform="translate(0.474 22.718)"/>
      <g id="Group_1" data-name="Group 1" transform="translate(491.864 23.357)">
        <line id="Line_1" data-name="Line 1" x1="40.717" y2="40.717" transform="translate(0 6.927)" fill="none" stroke="#000" stroke-miterlimit="10" stroke-width="0.5"/>
        <line id="Line_2" data-name="Line 2" x1="40.717" y2="40.717" transform="translate(16.22)" fill="none" stroke="#000" stroke-miterlimit="10" stroke-width="0.5"/>
      </g>
      <line id="Line_3" data-name="Line 3" x1="38.653" y2="38.653" transform="translate(652.469 189.329)" fill="none" stroke="#000" stroke-miterlimit="10" stroke-width="0.5"/>
      <line id="Line_4" data-name="Line 4" x1="38.653" y2="38.653" transform="translate(363.648 419.406)" fill="none" stroke="#000" stroke-miterlimit="10" stroke-width="0.5"/>
      <path id="Path_10" data-name="Path 10" d="M104.8,165.943l7.4-14.607,10.157,14.607,8.112-14.607,8.112,14.607,8.5-14.607,8.884,14.607,7.726-14.607" transform="translate(7.956 29.972)" fill="none" stroke="#000" stroke-miterlimit="10" stroke-width="0.5"/>
      <g id="Group_14" data-name="Group 14" transform="translate(38.469 188.02)">
        <g id="Group_4" data-name="Group 4" transform="translate(216.477)">
          <path id="Path_11" data-name="Path 11" d="M193.484,169.314l73.353-13.792-30.783,55.671-21.531-24.048-5.891,10.77-3.882-19.561Z" transform="translate(-193.484 -155.522)" fill="#9dd1c9" stroke="#000" stroke-miterlimit="10" stroke-width="0.5"/>
          <g id="Group_3" data-name="Group 3">
            <g id="Group_2" data-name="Group 2" clip-path="url(#clip-path)">
              <path id="Path_12" data-name="Path 12" d="M253.633,160.428l-41.287,23.758-2.831,19.971-12.426-8.213,5.483-20.549Z" transform="translate(-191.308 -152.562)"/>
            </g>
          </g>
        </g>
        <path id="Path_14" data-name="Path 14" d="M214.473,526.041l27.516-202.033a.55.55,0,0,1,1.092-.04l30,202.074" transform="translate(35.657 -54.174)" fill="none" stroke="#e0adad" stroke-miterlimit="10" stroke-width="3"/>
        <path id="Path_15" data-name="Path 15" d="M121.081,499.644l33.188-133.986,45.952,134.8" transform="translate(-20.69 -28.739)" fill="none" stroke="#e0adad" stroke-miterlimit="10" stroke-width="3"/>
        <path id="Path_16" data-name="Path 16" d="M197.408,327.407c-.271-9.024.125-17.957,2.722-26.571,1.459-4.837,4.093-11.525,8.685-14.279,4.821-2.892,12.359-1.568,16.784,1.4,5.944,3.987,8.91,11.353,9.325,18.5,1.116,19.213-6.882,39.416-11.611,57.807-1.005,3.914-2.2,8.126-5.4,10.59-4.286,3.3-10.529,2.179-15.378-.215a8.189,8.189,0,0,1-3.173-2.37c-1.246-1.748-1.119-4.085-.984-6.227q.433-6.881.277-13.781C198.463,344.019,197.655,335.675,197.408,327.407Z" transform="translate(25.318 -77.437)" fill="#fff" stroke="#222221" stroke-miterlimit="10" stroke-width="0.5"/>
        <path id="Path_17" data-name="Path 17" d="M213.377,330.116c-4.712-.984-9.373-2.206-14-3.521-.375-.107-.75-.212-1.124-.318.01.348.032.7.04,1.044q.156,6.89-.277,13.781c-.135,2.141-.261,4.48.984,6.227a8.17,8.17,0,0,0,3.173,2.368c4.849,2.4,11.092,3.514,15.378.216,3.2-2.464,4.4-6.676,5.4-10.59.619-2.407,1.3-4.845,2-7.308C221.073,331.535,217.211,330.916,213.377,330.116Z" transform="translate(25.677 -52.499)" fill="#f65e59" stroke="#000" stroke-miterlimit="10" stroke-width="0.5"/>
        <path id="Path_18" data-name="Path 18" d="M215.856,389.4c6.612-1.6,6.126-2.7,12.519-4.975.011,29.347,7.893,79.649,7.759,88.089-8.209.588-12.532,7.771-20.837,7.51-6.513-10.449-12.014-37.456-15.693-48.741-.85-2.609,3.563-25.094-.582-39.893C207.147,389.893,207.838,391.333,215.856,389.4Z" transform="translate(26.335 -17.419)" fill="#fff" stroke="#222221" stroke-miterlimit="10" stroke-width="0.5"/>
        <path id="Path_19" data-name="Path 19" d="M223.07,424.58c-6.737,1.14-13.474,2.359-20.253,3.213,2.947,10.943,6.4,22.644,10.189,28.73,8.305.261,12.628-6.922,20.837-7.51.053-3.325-1.14-13.165-2.6-25.649C228.51,423.742,225.782,424.122,223.07,424.58Z" transform="translate(28.625 6.078)" fill="#f65e59" stroke="#000" stroke-miterlimit="10" stroke-width="0.5"/>
        <path id="Path_20" data-name="Path 20" d="M138.166,443.234q8.026,2.8,16.237,5.026c10.651.864,21.364,1.1,32.041,1.034,16.681-.1,33.606-.782,50.042-3.81a109.618,109.618,0,0,0,23.813-6.979c6.441-2.795,13.624-6.461,18.1-12.033a36.941,36.941,0,0,0,7.624-18.738c-6.338-20.148-24.624-23.046-41.047-32.371a121.039,121.039,0,0,1-43.518-42.113c-9.83-16.179-15.6-34.308-23.462-51.437-7.33-15.98-16.849-24.222-33.636-30.091-12.455-4.355-26.211-7.34-38.716-3.131-17.379,5.851-27.728,24.271-30.75,42.357-4.691,28.074-1.483,62.461,7.332,89.6C90.62,406.388,111.834,434.041,138.166,443.234Z" transform="translate(-49.854 -100.593)" fill="#f65e59" stroke="#000" stroke-miterlimit="10" stroke-width="0.5"/>
        <path id="Path_21" data-name="Path 21" d="M153.1,354.455q8.3.534,16.553,1.528c4.834.582,9.82,1.34,13.927,3.955.9.574,1.844,1.438,1.719,2.5-.111.952-1.029,1.571-1.868,2.038-7.412,4.132-18.03,8.562-26.712,7.544-7.677-.9-16.6-.46-24.026-2.9-3.688-1.214-7.322-3.2-9.391-6.485-1.546-2.458-2.88-8.084.612-9.6,2.354-1.02,9.662.8,12.36.819Q144.7,353.915,153.1,354.455Z" transform="translate(-20.31 -36.544)" fill="#222221"/>
        <path id="Path_22" data-name="Path 22" d="M264.4,339.785c-2.033,8.817-4.2,18.387-6.6,27.114-11.624-2.354-23.29-5.5-34.914-7.856-5.972-1.209-6.037,8.151-8.509,11.9a42.447,42.447,0,0,1-8.975,9.234c-6.9,5.642-17.44,7.622-26.3,7.489-10.412-.157-21.377-5.038-25.948-14.393-3.72-7.609-2.654-16.676-.414-24.845,8.207-29.944,30.332-54.028,53.883-74.263,11.635-10,26.227-17.311,41.874-11.834,25.233,8.836,24.2,37.464,19.828,59.227Q266.5,330.7,264.4,339.785Z" transform="translate(-2.809 -92.212)" fill="#7696ea" stroke="#000" stroke-miterlimit="10" stroke-width="0.5"/>
        <g id="Group_6" data-name="Group 6" transform="translate(147.908 168.244)">
          <g id="Group_5" data-name="Group 5" clip-path="url(#clip-path-2)">
            <path id="Path_23" data-name="Path 23" d="M220,282.624c4.728.059,9.035-3.155,11.478-7.2a9.954,9.954,0,0,0,1.486-3.875,10.546,10.546,0,0,0-1.858-6.554c-4.036-6.655-15.126-14.553-20.524-4.922C206,268.228,208.835,282.483,220,282.624Z" transform="translate(-115.863 -263.394)" fill="#222221"/>
          </g>
        </g>
        <path id="Path_25" data-name="Path 25" d="M204.31,358.649c9.546,2.2,19.343,3.21,29.024,4.637,5.1.752,15.522,3.652,20.334.088,6.081-4.505-3.882-7.136-8.39-9.657-7.762-4.339-15.637-8.475-23.463-12.7-7.228-3.9-16.511-12.214-23.885-4.17-4.743,5.172-5.285,13.426-5.825,20.059A63.942,63.942,0,0,1,204.31,358.649Z" transform="translate(22.161 -48.162)" fill="#222221"/>
        <path id="Path_26" data-name="Path 26" d="M103.173,331.333c2.171-9.381,11.927-9.351,24.275-8.129,13.253,1.312,26.595-.333,39.888-1.134,23.567-1.417,47.2-.181,70.781,1.057,9.182.483,18.743,1.071,26.739,5.608,8.068,4.581,13.6,12.759,16.8,21.466s4.323,18.017,5.419,27.229q4.353,36.561,8.7,73.123c.739,6.208,1.6,12.416,2.219,18.637.705,7.108.274,6.894-6.771,7.946-11.8,1.762-23.63,3.3-35.443,4.943-5.188-20.638-10.391-41.345-12.9-62.477-.345-2.9-6.277-37.941-7.252-37.786a269.945,269.945,0,0,1-63.808,2.461c-15.031-1.207-30.326-3.8-43.441-11.247-11.531-6.546-23.341-18.716-25.28-32.328A25.917,25.917,0,0,1,103.173,331.333Z" transform="translate(-31.767 -55.419)" fill="#7696ea" stroke="#000" stroke-miterlimit="10" stroke-width="0.5"/>
        <path id="Path_27" data-name="Path 27" d="M212.723,460.5a4.064,4.064,0,0,0,.5.175h7.095c15.094-.957,30.13.1,45.217-1.031,2.142-.159,4.4-.41,6.07-1.712,3.837-2.99.47-7.579-3.058-8.984-12.476-4.97-28.751-4.121-37.016-16.457a161.489,161.489,0,0,1-25.322,11.587c1.034-.369,1.6,7.379,1.836,8.238C208.772,454.975,210.067,459.21,212.723,460.5Z" transform="translate(30.674 11.586)" fill="#222221"/>
        <path id="Path_28" data-name="Path 28" d="M145.161,229.337A50.617,50.617,0,0,0,112.3,247.229c-7.948,9.085-11.207,21.334-13.909,32.806q-5.236,22.239-10.473,44.481a52.815,52.815,0,0,0-1.744,10.566c-.162,5.737,1.483,13.035,2.828,18.559.653,2.678,1.664,4.281,3.009,5.208,6,4.125,10.933,9.609,13.322,16.487.79,2.275,1.586,4.549,2.363,6.816a31.925,31.925,0,0,0,2.155,5.575c3.861-.053,7.731.008,11.592.066,13.075,0,24.81.221,37.428-3.465,12.722-3.717,26.235-3.1,39.043-6.428a3.439,3.439,0,0,0,2.532-1.619c.51-1.244.216-4.635.327-6.15.236-3.248.342-6.5.412-9.758.136-6.344.058-12.689-.046-19.033-.205-12.387-.564-24.789.165-37.167.879-8.785,1.159-17.747,1.254-26.559,12.918-.572,26.086-3.123,39.027-4.7,11.2-1.364,22.267-2.266,30.1-11.411a16.9,16.9,0,0,0,2.293-3.311c5.552-10.928-2.6-23.016-14.024-25.036a39.719,39.719,0,0,0-6.9-.407c-18.591-.016-37.116-.672-55.69-1.411-10.425-.414-17.558-.115-27.738-2.192C161.3,227.445,153.465,229.337,145.161,229.337Z" transform="translate(-41.759 -111.53)" fill="#cb1d44" stroke="#000" stroke-miterlimit="10" stroke-width="0.5"/>
        <path id="Path_29" data-name="Path 29" d="M187.219,274.582c.487-7.433,2.739-15.134,4.327-21.921,2.391-10.216,5.179-20.343,7.18-30.649a120.333,120.333,0,0,0,2.561-27.425c-.266-7.008,1.655-14.493,6.394-19.769a7.9,7.9,0,0,1,2.556-2.06,8.446,8.446,0,0,1,3.676-.5,23.433,23.433,0,0,1,8.916,1.828c-1.116.723-2.241,1.432-3.346,2.169-.976.654-1.079.726-.38,1.608.782.984,2.012,1.781,2.638,2.873,1.047,1.831-.135,5.354-.742,7.178a29.128,29.128,0,0,1-3.641,7.14,8.808,8.808,0,0,0-1.417,2.618,7.71,7.71,0,0,0-.184,1.76,142.78,142.78,0,0,0,1.587,23.306c1.159,8.257,1.982,16.561,2.375,24.89q.1,2.124.162,4.249c.4,13.875.526,28.15-7.13,40.247a21.78,21.78,0,0,1-3.962,4.932c-9.155,7.938-19.221-4.661-21.018-13.106A34.277,34.277,0,0,1,187.219,274.582Z" transform="translate(19.157 -145.433)" fill="#fff" stroke="#222221" stroke-miterlimit="10" stroke-width="0.5"/>
        <path id="Path_30" data-name="Path 30" d="M129.07,256.053c-2.065,2.493-4.164,5.046-5.326,8.068a30,30,0,0,0-1.347,5.448c-3.359,18.47-6.36,37.18-11.31,55.336" transform="translate(-26.719 -94.868)" fill="none" stroke="#131834" stroke-miterlimit="10" stroke-width="0.5"/>
        <path id="Path_31" data-name="Path 31" d="M205.121,277.617c-4.417,19.046-14.531,47.975-14.72,67.528" transform="translate(21.134 -81.858)" fill="none" stroke="#131834" stroke-miterlimit="10" stroke-width="0.5"/>
        <path id="Path_32" data-name="Path 32" d="M75.859,320.474c31.975-7.258,68.047-13.2,96.827.338,18.741,8.818,31.389,25.24,34.937,42.715s.611,25.788-10.173,41.14" transform="translate(-47.974 -60.687)" fill="none" stroke="#000" stroke-miterlimit="10" stroke-width="3"/>
        <path id="Path_33" data-name="Path 33" d="M93.274,405.431A43.041,43.041,0,0,0,123.7,432.4l.223.051c20.473,4.754,41.568,5.735,62.517,5.612,10.423-.062,20.941-.353,31.376-1.3-2.264-.98-4.512-2-6.739-3.086-19.453-9.468-38.454-20.348-54.983-34.416-15.339-13.054-29.166-28.06-40.1-45.014a226.734,226.734,0,0,1-13.786-25.729c-3.967-8.329-7.993-16.631-11.607-25.121-5.071-11.913-10.117-25-11.613-38.227a69.88,69.88,0,0,0-4.1,14.545c-4.691,28.074-1.483,62.461,7.332,89.6C85.884,380.577,88.87,393.613,93.274,405.431Z" transform="translate(-49.854 -89.365)" fill="#f65e59" stroke="#000" stroke-miterlimit="10" stroke-width="0.5"/>
        <path id="Path_34" data-name="Path 34" d="M213.387,324.3c-20.585-3.131-33.832-.39-60.334-.39" transform="translate(-1.4 -54.599)" fill="none" stroke="#131834" stroke-miterlimit="10" stroke-width="0.5"/>
        <path id="Path_35" data-name="Path 35" d="M206.647,334.119a119.905,119.905,0,0,0-21.145-8.232,100.948,100.948,0,0,1-10.043-3.069,71.2,71.2,0,0,1-10.505-5.637L144.863,304.9c-5.408-3.3-10.848-6.623-16.524-9.421a83.152,83.152,0,0,0-9.043-3.851c-8.341-2.945-22.9-6.545-29.947.458a14.556,14.556,0,0,0-3.236,4.784c3.737,7.908,7.454,15.831,11.387,23.646a49.543,49.543,0,0,0,7.508,3.022c10.462,3.364,21.4,4.78,32.262,6.154,10.779,1.361,21.788,2.036,31.3,7.75,10.462,6.287,24.909,6.192,36.609,3.636,2.113-.462,4.7-1.692,4.478-3.843C209.5,335.736,208,334.8,206.647,334.119Z" transform="translate(-41.786 -75.568)" fill="#fff" stroke="#222221" stroke-miterlimit="10" stroke-width="0.5"/>
        <path id="Path_36" data-name="Path 36" d="M201.834,301.146h-.353" transform="translate(27.819 -67.662)" fill="#c98b77"/>
        <g id="Group_7" data-name="Group 7" transform="translate(0 263.609)">
          <path id="Path_37" data-name="Path 37" d="M58.467,526.041,87.313,324.007a.581.581,0,0,1,1.145-.04l31.448,202.074" transform="translate(-58.467 -317.783)" fill="none" stroke="#e0adad" stroke-miterlimit="10" stroke-width="3"/>
          <rect id="Rectangle_2" data-name="Rectangle 2" width="285.758" height="8.759" transform="translate(11.128)" fill="#e0adad"/>
          <line id="Line_5" data-name="Line 5" x1="290.114" transform="translate(8.95 0.084)" fill="none" stroke="#131834" stroke-miterlimit="10" stroke-width="0.5"/>
          <line id="Line_6" data-name="Line 6" x2="10.606" transform="translate(25.603 8.765)" fill="none" stroke="#131834" stroke-miterlimit="10" stroke-width="0.5"/>
          <line id="Line_7" data-name="Line 7" x2="10.606" transform="translate(273.085 8.765)" fill="none" stroke="#131834" stroke-miterlimit="10" stroke-width="0.5"/>
        </g>
        <g id="Group_9" data-name="Group 9" transform="translate(154.167 193.256)">
          <path id="Path_38" data-name="Path 38" d="M287.273,316.74H157.023a2.2,2.2,0,0,0-2.4,1.927v1.738a2.205,2.205,0,0,0,2.4,1.929h130.25Z" transform="translate(-154.621 -251.51)"/>
          <path id="Path_39" data-name="Path 39" d="M280.128,345.484H166.211l9.912-65.459a4.625,4.625,0,0,1,4.515-3.968H285.525a4.44,4.44,0,0,1,4.331,5.187Z" transform="translate(-147.628 -276.056)" fill="#fff" stroke="#222221" stroke-miterlimit="10" stroke-width="0.5"/>
          <g id="Group_8" data-name="Group 8" transform="translate(77.424 32.702)">
            <line id="Line_8" data-name="Line 8" x2="4.941" y2="4.109" transform="translate(12.987)" fill="none" stroke="#131834" stroke-miterlimit="10" stroke-width="0.5"/>
            <line id="Line_9" data-name="Line 9" x2="4.941" y2="4.109" transform="translate(6.494)" fill="none" stroke="#131834" stroke-miterlimit="10" stroke-width="0.5"/>
            <line id="Line_10" data-name="Line 10" x2="4.941" y2="4.109" fill="none" stroke="#131834" stroke-miterlimit="10" stroke-width="0.5"/>
          </g>
        </g>
        <path id="Path_40" data-name="Path 40" d="M166.606,196.671c-2.261-4.736-6.753.664-11.951-.051-4.523-.624-8-1.294-12.381.386a17.105,17.105,0,0,0-9.267,8.026c-.508,1.017-.951,2.03-1.34,3.035a62.8,62.8,0,0,0-1.74,9.445,59.764,59.764,0,0,0,.1,7.9c.191,1.085.337,2.176.481,3.266,0,5.267.281,10.216-1.929,15.48a20.811,20.811,0,0,1-4.114,6.5,7.64,7.64,0,0,1-2.71,2.4,5.039,5.039,0,0,1,.827.816c5.147,6.529,15.235,7.35,22.892,6.692a35.578,35.578,0,0,0,11.948-2.873c-2.976-4.414-1.794-9.388-.5-15.227.112-.51.752-2.318,1.336-4.138a14.549,14.549,0,0,0,5.461-5.143,31.957,31.957,0,0,0,3.9-10.63C168.823,216.891,169.1,201.888,166.606,196.671Z" transform="translate(-20.282 -131.882)" fill="#fff" stroke="#222221" stroke-miterlimit="10" stroke-width="0.5"/>
        <path id="Path_41" data-name="Path 41" d="M135.25,231.481c.483-2.36.606-4.937,1.64-7.146,1.1-2.355,3.572-2.87,4.8-4.954,2.569-4.366,2.439-9.548,7.842-12.022,5.583-2.557,12.427,1.1,18.185-1.044a9.774,9.774,0,0,0,6.2-9.016,15.993,15.993,0,0,0-1.481-5.907,13.574,13.574,0,0,0-4.1-5.974c-2.711-1.983-6.388-2.022-9.7-1.438s-6.548,1.706-9.907,1.762c-4.262.072-8.519-1.578-12.71-.811a11.471,11.471,0,0,0-8.652,7.528c-1.17,3.543-1.286,6.991-3.487,10.167-2.294,3.311-4.528,6.029-4.592,10.319-.051,3.492,2.554,6.758,3.853,9.865,1.161,2.777,1.685,5.8,2.981,8.515s3.672,5.227,6.673,5.442a2.077,2.077,0,0,0,1.321-.252c.771-.518.736-1.634.705-2.562A23.8,23.8,0,0,1,135.25,231.481Z" transform="translate(-21.772 -138.55)"/>
        <g id="Group_11" data-name="Group 11" transform="translate(88.053 93.022)">
          <g id="Group_10" data-name="Group 10" clip-path="url(#clip-path-3)">
            <path id="Path_42" data-name="Path 42" d="M137.723,221.659a4.876,4.876,0,0,0,.667.146,24.383,24.383,0,0,0,12.74-.436c1.121.237.944,1.15.725,2.779q-.464,3.422-.693,6.874L137.444,221.6C137.537,221.619,137.628,221.64,137.723,221.659Z" transform="translate(-98.87 -208.817)" fill="#222221"/>
          </g>
        </g>
        <path id="Path_44" data-name="Path 44" d="M140.032,214a5.971,5.971,0,0,0,4.917,3.258,5.578,5.578,0,0,0,4.933-2.957Z" transform="translate(-9.256 -120.24)" fill="none" stroke="#222221" stroke-miterlimit="10" stroke-width="0.5"/>
        <path id="Path_45" data-name="Path 45" d="M139.459,211.731c-.928-4.715-5.8-8.459-10.6-6.452-4.69,1.959-6.295,9.533-3,13.33a7.191,7.191,0,0,0,7.027,2.206" transform="translate(-18.856 -125.836)" fill="#fff" stroke="#222221" stroke-miterlimit="10" stroke-width="0.5"/>
        <path id="Path_46" data-name="Path 46" d="M128.227,207.9A4.49,4.49,0,0,1,133,213.762" transform="translate(-16.378 -123.937)" fill="none" stroke="#222221" stroke-miterlimit="10" stroke-width="0.5"/>
        <path id="Path_47" data-name="Path 47" d="M202.71,186.571c1.172.566,3.58.042,4.57-.335a8.054,8.054,0,0,0,3.479-2.421c1.7-2.145,1.191-4.72-.013-6.955a38.877,38.877,0,0,1-6.558,5.74,5,5,0,0,0-1.789,1.714C201.775,185.573,202.043,186.249,202.71,186.571Z" transform="translate(28.16 -142.648)" fill="#fff"/>
        <path id="Path_48" data-name="Path 48" d="M204.693,187.212a3.97,3.97,0,0,1-.637.159,41.891,41.891,0,0,1-1.1-5.277q-.469-2.21-.938-4.424l-.906-4.286c-.2-.93-.986-2.812.016-3.458a2.559,2.559,0,0,1,.935-.306,24.014,24.014,0,0,1,6.017-.555,9.637,9.637,0,0,1,5.6,2.049,3.881,3.881,0,0,1,1.6,3.247,4.615,4.615,0,0,1-2.368,3c-.778.508-1.563,1.1-2.291,1.691-.231.191.8,1.34.8,1.6-.01.681-1.48,1.991-1.924,2.477C208.188,184.546,206.614,186.568,204.693,187.212Z" transform="translate(27.305 -147.37)"/>
        <path id="Path_49" data-name="Path 49" d="M210.261,176.157a19.376,19.376,0,0,1-7.635,7.241" transform="translate(28.51 -143.072)" fill="none" stroke="#222221" stroke-miterlimit="10" stroke-width="0.5"/>
        <path id="Path_50" data-name="Path 50" d="M158.634,263.253q.625-4.63,1.249-9.261" transform="translate(1.968 -96.112)" fill="#dea600" stroke="#000" stroke-miterlimit="10" stroke-width="0.5"/>
        <path id="Path_51" data-name="Path 51" d="M161.215,230.7a35.971,35.971,0,0,1-4-1.111c-.069,3.413-1.366,6.322-4.387,8.018-3.12,1.754-6.979,1.906-10.463,1.528-6.25-.678-14.5-4.376-17.3-10.393a39.124,39.124,0,0,1-5.964,1.6c1.765,3.2,3.566,6.15,6.471,8.344A30.567,30.567,0,0,0,131.051,242a33.6,33.6,0,0,0,12.767,3.2c4.525.2,9.421-.6,13.176-3.284a13.667,13.667,0,0,0,5.216-11.017Q161.711,230.808,161.215,230.7Z" transform="translate(-21.887 -111.346)"/>
        <g id="Group_13" data-name="Group 13" transform="translate(70.954 266.02)">
          <g id="Group_12" data-name="Group 12" clip-path="url(#clip-path-4)">
            <path id="Path_52" data-name="Path 52" d="M201.176,336.842c.84,4.395,3.717,8.645,7.991,9.965,11.247,3.471,19.413-10.183,11.886-18.724C214.416,320.554,199.106,326.019,201.176,336.842Z" transform="translate(-43.435 -319.533)" fill="#222221"/>
          </g>
        </g>
        <path id="Path_54" data-name="Path 54" d="M188.254,365.756q-1.563-8.458-2.527-17.01-1.78,9.024-3.556,18.046C184.209,366.532,186.231,366.137,188.254,365.756Z" transform="translate(16.168 -38.943)" fill="#222221"/>
      </g>
      <path id="Path_55" data-name="Path 55" d="M191.146,213l-.111.22" transform="translate(59.985 67.175)"/>
      <g id="Group_23" data-name="Group 23" transform="translate(513.11 284.814)">
        <g id="Group_20" data-name="Group 20" transform="translate(6.282 0)">
          <g id="Group_19" data-name="Group 19">
            <g id="Group_16" data-name="Group 16" transform="translate(86.031 56.978)">
              <g id="Group_15" data-name="Group 15" transform="translate(9.848)">
                <path id="Path_56" data-name="Path 56" d="M488.583,262.683a11.88,11.88,0,0,0-.492-2.29,13.377,13.377,0,0,0-9.214-8.4,18.823,18.823,0,0,0-12.658,1.32c-5.227,2.383-9.383,6.564-14.082,9.869-7.651,5.381-16.107,8.549-21.472,16.437-5.835,8.584-10.4,17.584-12.123,27.932q-.183,1.1-.324,2.217c.337-2.682,4.982-6.829,6.7-8.565a44.419,44.419,0,0,1,8.687-6.843,51.053,51.053,0,0,1,22.051-6.809c13.848-1.271,24.655-2.291,31.191-15.921A16.656,16.656,0,0,0,488.583,262.683Z" transform="translate(-418.217 -251.429)" fill="#9dd1c9" stroke="#000" stroke-miterlimit="10" stroke-width="0.5"/>
              </g>
              <path id="Path_57" data-name="Path 57" d="M460.723,265.056c-12.344,5.235-24.916,12.214-32.6,23.582-8.43,12.468-11.526,25.891-12.9,40.749q-1.573,16.948-3.143,33.9" transform="translate(-412.075 -243.208)" fill="none" stroke="#000" stroke-miterlimit="10" stroke-width="0.5"/>
            </g>
            <g id="Group_17" data-name="Group 17" transform="translate(72.274)">
              <path id="Path_58" data-name="Path 58" d="M444.515,218.332a20.6,20.6,0,0,0-18.782-.348c-7.847,3.867-12.976,11.874-15.543,20.237s-2.932,17.212-3.64,25.931c-1.39,17.167-4.146,34.433-2.6,51.688.718,8.012,2.91,15.769,4.27,23.6.473,2.734,1.852,14.247,5.392,14.477a2.843,2.843,0,0,0,2.61-1.584.952.952,0,0,1,1.22-.364,2.317,2.317,0,0,0,1.918-.139,5.633,5.633,0,0,0,2.017-2.706,315.736,315.736,0,0,0,17.483-47.266c2.014-7.156,4.242-14.465,4.554-21.818a98.879,98.879,0,0,1,3.205-22.554c1.635-5.822,4.127-11.4,5.32-17.332s.924-12.512-2.569-17.449A15.111,15.111,0,0,0,444.515,218.332Z" transform="translate(-403.495 -215.892)" fill="#9dd1c9" stroke="#000" stroke-miterlimit="10" stroke-width="0.5"/>
              <line id="Line_11" data-name="Line 11" x1="13.87" y2="125.209" transform="translate(8.663 49.619)" fill="none" stroke="#1c0c03" stroke-miterlimit="10" stroke-width="0.5"/>
            </g>
            <g id="Group_18" data-name="Group 18" transform="translate(0 73.599)">
              <path id="Path_59" data-name="Path 59" d="M424.809,289.2c-4.667-13.4-14.672-23.789-27.951-24.624-4.687-.3-9.405-.006-14.05-.813-4.494-.782-9.008-2.586-13.465-1.744-9.854,1.861-14.124,15.368-8.254,23.143,3.059,4.05,8.1,6.174,13.109,7s10.123.523,15.2.691c6.434.213,12.971,1.23,18.682,4.194,9.388,4.873,14.714,16.986,18.132,26.542,1.053,2.944,2.078,5.043,2.235,9.8-.632-2.544.383-7.388.383-10.159,0-3.654-.04-7.31-.21-10.962a88.28,88.28,0,0,0-3-20.529Q425.244,290.447,424.809,289.2Z" transform="translate(-358.418 -261.796)" fill="#dea600" stroke="#000" stroke-miterlimit="10" stroke-width="0.5"/>
            </g>
            <path id="Path_60" data-name="Path 60" d="M414.793,350.587c-.781-8.579-1.132-35.852-3.253-44.175-2-7.847-4.677-15.7-9.413-21.966S390.266,273.674,383,274.254" transform="translate(-343.584 -180.71)" fill="none" stroke="#1c0c03" stroke-miterlimit="10" stroke-width="0.5"/>
          </g>
          <path id="Path_61" data-name="Path 61" d="M393.278,311.867h51.554l-3,23.154C440.2,347.578,430.556,356.9,419.18,356.9h0c-11.271,0-20.866-9.155-22.61-21.576Z" transform="translate(-337.385 -157.987)" fill="#e0adad"/>
        </g>
        <g id="Group_22" data-name="Group 22" transform="translate(0 198.899)">
          <g id="Group_21" data-name="Group 21">
            <path id="Path_62" data-name="Path 62" d="M360.427,516.914V339.945H501.065V516.914" transform="translate(-350.924 -339.945)" fill="none" stroke="#222221" stroke-miterlimit="10" stroke-width="0.5"/>
            <line id="Line_12" data-name="Line 12" x2="161.544" transform="translate(0 45.876)" fill="none" stroke="#222221" stroke-miterlimit="10" stroke-width="0.5"/>
            <line id="Line_13" data-name="Line 13" x2="161.544" transform="translate(0 91.633)" fill="none" stroke="#222221" stroke-miterlimit="10" stroke-width="0.5"/>
            <line id="Line_14" data-name="Line 14" x2="161.544" transform="translate(0 137.389)" fill="none" stroke="#222221" stroke-miterlimit="10" stroke-width="0.5"/>
          </g>
        </g>
        <path id="Path_63" data-name="Path 63" d="M413.684,353.7a6.969,6.969,0,1,1-6.968-6.97A6.969,6.969,0,0,1,413.684,353.7Z" transform="translate(-327.201 -136.951)" fill="none" stroke="#222221" stroke-miterlimit="10" stroke-width="0.5"/>
        <path id="Path_64" data-name="Path 64" d="M413.684,383.216a6.969,6.969,0,1,1-6.968-6.97A6.969,6.969,0,0,1,413.684,383.216Z" transform="translate(-327.201 -119.144)" fill="none" stroke="#222221" stroke-miterlimit="10" stroke-width="0.5"/>
        <path id="Path_65" data-name="Path 65" d="M413.684,412.728a6.969,6.969,0,1,1-6.968-6.968A6.969,6.969,0,0,1,413.684,412.728Z" transform="translate(-327.201 -101.337)" fill="none" stroke="#222221" stroke-miterlimit="10" stroke-width="0.5"/>
        <path id="Path_66" data-name="Path 66" d="M413.684,442.242a6.969,6.969,0,1,1-6.968-6.968A6.969,6.969,0,0,1,413.684,442.242Z" transform="translate(-327.201 -83.53)" fill="none" stroke="#222221" stroke-miterlimit="10" stroke-width="0.5"/>
        <path id="Path_67" data-name="Path 67" d="M413.684,351.079a6.969,6.969,0,0,1-13.938,0" transform="translate(-327.201 -134.328)" fill="#161111"/>
        <path id="Path_68" data-name="Path 68" d="M413.684,380.593a6.969,6.969,0,0,1-13.938,0" transform="translate(-327.201 -116.522)" fill="#161111"/>
        <path id="Path_69" data-name="Path 69" d="M413.684,410.106a6.969,6.969,0,1,1-13.938,0" transform="translate(-327.201 -98.715)" fill="#161111"/>
        <path id="Path_70" data-name="Path 70" d="M413.684,439.62a6.969,6.969,0,1,1-13.938,0" transform="translate(-327.201 -80.908)" fill="#161111"/>
      </g>
      <g id="Group_24" data-name="Group 24" transform="translate(118.392 45.932)">
        <path id="Path_71" data-name="Path 71" d="M181.547,66.9c40.444,0,73.231,15.2,73.231,33.959,0,11.1-10.79,18.725-19.679,23.155a95.333,95.333,0,0,1-21.53,7.383,153.877,153.877,0,0,1-30.789,3.72A51.93,51.93,0,0,1,170.3,164.892c-2.726,3.112-6.094,6.024-10.189,6.611a64.058,64.058,0,0,0,9.243-36.789,116.96,116.96,0,0,1-38.188-9.206c-9.877-4.353-22.856-12.33-22.856-24.647C108.315,82.106,141.1,66.9,181.547,66.9Z" transform="translate(-108.315 -66.902)" fill="#7696ea" stroke="#000" stroke-miterlimit="10" stroke-width="0.5"/>
        <path id="Path_72" data-name="Path 72" d="M223.719,89.178c-.68,6.059-6.166,11.1-12,11.029S200.512,94.96,199.97,88.886c-.205-2.28.46-4.969,2.472-5.873s4.469.582,5.317,2.7a9.016,9.016,0,0,1-.454,6.668c-2.647,6.393-9.517,10.569-16.141,9.811S178.7,95.8,177.437,88.955c-.43-2.339-.181-5.16,1.7-6.5,2.334-1.663,5.825.3,6.639,3.127s-.372,5.9-2.08,8.251a18.085,18.085,0,0,1-15.378,7.141c-2.6-.117-6.008-.75-8.172-2.318-3.175-2.3-6.352-9.694-3.856-13.412a2.285,2.285,0,0,1,3.72-.545,5.881,5.881,0,0,1,1.7,4.217c.091,3.234-1.725,6.851-3.766,9.221a13.724,13.724,0,0,1-15.633,3.43c-5.237-2.3-8.892-7.9-9.408-13.811-.192-2.216.713-5.169,2.84-5.055,1.568.083,2.5,1.873,2.844,3.473a14.825,14.825,0,0,1-3.614,13.078,13.367,13.367,0,0,1-12.5,3.808" transform="translate(-99.774 -57.887)" fill="none" stroke="#000" stroke-miterlimit="10" stroke-width="0.5"/>
      </g>
      <g id="Group_29" data-name="Group 29" transform="translate(596.207 44.285)">
        <g id="Group_26" data-name="Group 26">
          <g id="Group_25" data-name="Group 25">
            <rect id="Rectangle_3" data-name="Rectangle 3" width="65.781" height="102.554" transform="translate(0 9.948)" fill="#9dd1c9" stroke="#000" stroke-miterlimit="10" stroke-width="0.5"/>
            <path id="Path_73" data-name="Path 73" d="M472.109,192.654H406.327V65.875h65.781Z" transform="translate(-406.327 -65.875)" fill="none" stroke="#3a434b" stroke-miterlimit="10" stroke-width="0.5"/>
            <path id="Path_74" data-name="Path 74" d="M432.382,141.83a4.034,4.034,0,1,1-4.026-4.292A4.164,4.164,0,0,1,432.382,141.83Z" transform="translate(-395.466 -22.638)"/>
          </g>
        </g>
        <g id="Group_28" data-name="Group 28" transform="translate(7.256 29.264)">
          <g id="Group_27" data-name="Group 27">
            <path id="Path_75" data-name="Path 75" d="M434.929,84.127A28.5,28.5,0,0,0,411.2,116.715" transform="translate(-410.853 -84.127)" fill="none" stroke="#3a434b" stroke-miterlimit="10" stroke-width="0.5"/>
            <path id="Path_76" data-name="Path 76" d="M433.049,89.369a19.994,19.994,0,0,0-16.643,22.86" transform="translate(-407.651 -80.964)" fill="none" stroke="#3a434b" stroke-miterlimit="10" stroke-width="0.5"/>
            <path id="Path_77" data-name="Path 77" d="M431.639,93.3a13.613,13.613,0,0,0-11.331,15.564" transform="translate(-405.25 -78.592)" fill="none" stroke="#3a434b" stroke-miterlimit="10" stroke-width="0.5"/>
            <path id="Path_78" data-name="Path 78" d="M430.042,97.756a6.381,6.381,0,0,0-5.312,7.3" transform="translate(-402.528 -75.904)" fill="none" stroke="#3a434b" stroke-miterlimit="10" stroke-width="0.5"/>
          </g>
          <path id="Path_79" data-name="Path 79" d="M428.195,136.654a76.912,76.912,0,0,0,6.742-5.225,96.861,96.861,0,0,0,7.342-6.968,84.07,84.07,0,0,0,5.689-6.66l.042-.05a96.947,96.947,0,0,0,5.74-8.337,76.55,76.55,0,0,0,4.114-7.472,3.331,3.331,0,0,0,.063-3.324c-1.413-3.268-5.192-5.293-8.586-6.356a1.6,1.6,0,0,0-1.934.872c-1.36,2.992-2.875,5.91-4.42,8.809-.576,1.082-1.158,2.156-1.7,3.25a1.6,1.6,0,0,0,.367,1.911,18.509,18.509,0,0,0,5.257,3.261,1.306,1.306,0,0,1,.746,1.669c-.653.967-1.328,1.929-2.041,2.88-.3.4-.611.8-.919,1.193-.152.2-.3.39-.455.584q-.685.856-1.384,1.685c-.071.083-.139.17-.212.255q-.731.859-1.475,1.684c-.066.074-.13.149-.2.223q-2.152,2.374-4.427,4.478a1.306,1.306,0,0,1-1.732-.492,18.479,18.479,0,0,0-4.039-4.687,1.6,1.6,0,0,0-1.945-.066c-1,.707-1.967,1.448-2.945,2.185-2.625,1.979-5.272,3.928-8.015,5.737a1.6,1.6,0,0,0-.561,2.046c1.579,3.187,4.165,6.606,7.614,7.492A3.327,3.327,0,0,0,428.195,136.654Z" transform="translate(-407.058 -79.263)" fill="#f65e59" stroke="#000" stroke-miterlimit="10" stroke-width="0.5"/>
        </g>
      </g>
      <g id="Group_33" data-name="Group 33" transform="translate(18.531 220.194)">
        <g id="Group_30" data-name="Group 30">
          <circle id="Ellipse_2" data-name="Ellipse 2" cx="38.199" cy="38.199" r="38.199" fill="#9dd1c9" stroke="#000" stroke-miterlimit="10" stroke-width="0.5"/>
          <ellipse id="Ellipse_3" data-name="Ellipse 3" cx="28.995" cy="38.199" rx="28.995" ry="38.199" transform="translate(9.204)" fill="none" stroke="#000" stroke-miterlimit="10" stroke-width="0.5"/>
          <ellipse id="Ellipse_4" data-name="Ellipse 4" cx="10.681" cy="38.199" rx="10.681" ry="38.199" transform="translate(27.518)" fill="none" stroke="#000" stroke-miterlimit="10" stroke-width="0.5"/>
        </g>
        <g id="Group_32" data-name="Group 32">
          <g id="Group_31" data-name="Group 31" clip-path="url(#clip-path-5)">
            <ellipse id="Ellipse_5" data-name="Ellipse 5" cx="38.199" cy="26.676" rx="38.199" ry="26.676" transform="translate(0 55.352)" fill="none" stroke="#000" stroke-miterlimit="10" stroke-width="0.5"/>
            <ellipse id="Ellipse_6" data-name="Ellipse 6" cx="38.199" cy="26.676" rx="38.199" ry="26.676" transform="translate(0 -31.354)" fill="none" stroke="#000" stroke-miterlimit="10" stroke-width="0.5"/>
            <line id="Line_15" data-name="Line 15" x2="85.928" transform="translate(-5.642 40.386)" fill="none" stroke="#000" stroke-miterlimit="10" stroke-width="0.5"/>
          </g>
        </g>
      </g>
      <path id="Path_80" data-name="Path 80" d="M351.32,123.791a4.439,4.439,0,0,0-3.906,5.054" transform="translate(154.307 13.353)" fill="#fff" stroke="#222221" stroke-miterlimit="10" stroke-width="0.5"/>
      <g id="Group_46" data-name="Group 46" transform="translate(326.236 26.341)">
        <path id="Path_81" data-name="Path 81" d="M371.663,218.733a9.573,9.573,0,0,1-1.7-.656c-1.542-.787-2.5-1.993-4.428-1.86-1.127.079-2.376.906-2.249,2.03a2.374,2.374,0,0,0,.72,1.3c1.408,1.5,3.38,2.387,4.767,3.907.758.831,1.324,1.833,2.16,2.583,3.753,3.367,8.886.319,12.039-2.182a1.789,1.789,0,0,0,.832-1.225,1.522,1.522,0,0,0-.359-.925,5.656,5.656,0,0,0-3.516-1.988,32.879,32.879,0,0,0-4.114-.34A20.6,20.6,0,0,1,371.663,218.733Z" transform="translate(-162.331 42.771)" fill="#fff" stroke="#222221" stroke-miterlimit="10" stroke-width="0.5"/>
        <path id="Path_82" data-name="Path 82" d="M285.116,148.512c-.452-8.424-.694-16.829-.935-25.475.25-8.32,4.369-15.963,5.878-24.2a3.7,3.7,0,0,0-.123-2.427c-.4-.752-1.547-1.217-2.164-.669-1.122,2.3-2.274,5.839-5.315,6.439-1.821-6.332,5.036-13.441.8-18.743-3.154-3.946-10.119-2.594-12.977,1.247s-2.907,8.974-3.186,13.766c-.922,15.819-4.278,33.205-8.2,50.061Z" transform="translate(-225.314 -38.768)" fill="#fff" stroke="#222221" stroke-miterlimit="10" stroke-width="0.5"/>
        <g id="Group_35" data-name="Group 35">
          <g id="Group_34" data-name="Group 34">
            <rect id="Rectangle_4" data-name="Rectangle 4" width="99.41" height="62.566" fill="#dea600" stroke="#000" stroke-miterlimit="10" stroke-width="0.5"/>
            <path id="Path_83" data-name="Path 83" d="M337.357,54.683s-46.08,28.323-49.705,31.283L237.947,54.683" transform="translate(-237.947 -54.683)" fill="none" stroke="#000" stroke-miterlimit="10" stroke-width="0.5"/>
          </g>
        </g>
        <path id="Path_84" data-name="Path 84" d="M275.311,117.693c.138-4.618,1.475-9.038,2.862-13.373.7-2.2,1.429-4.395,2.039-6.625a23.365,23.365,0,0,0,.742-2.706,7.307,7.307,0,0,1,.806-2.9,5.287,5.287,0,0,0,.494-.84,1,1,0,0,0-.072-.946A1.388,1.388,0,0,0,280.7,90a4.156,4.156,0,0,0-2.025,1.36c-1.645,1.938-2.073,4.887-5.092,5.482" transform="translate(-216.444 -33.424)" fill="#fff" stroke="#222221" stroke-miterlimit="10" stroke-width="0.5"/>
        <g id="Group_41" data-name="Group 41" transform="translate(27.099 83.37)">
          <path id="Path_85" data-name="Path 85" d="M305.094,457.789a3.841,3.841,0,0,1-.9,1.746,4.5,4.5,0,0,1-2.136.911c-6.619,1.523-13.3,2.716-20.014,3.576,1.86-14.919,1.36-30.292,4.38-45,1.249-6.085,3.367-12.413,8.211-16.3a16.219,16.219,0,0,1,17.747-1.4c9.836,5.621,4.23,15.79,2.116,23.776Q310.154,441.506,305.094,457.789Z" transform="translate(-238.442 69.878)" fill="#fff" stroke="#222221" stroke-miterlimit="10" stroke-width="0.5"/>
          <path id="Path_86" data-name="Path 86" d="M322.273,436.556a45.953,45.953,0,0,1-9.921.6,37.762,37.762,0,0,1-14.707-3.17c-1.643.917-3.436,2.924-5.309,3.733l-19.315,8.344c-4.836,2.089-9.719,4.206-13.957,7.335a5.557,5.557,0,0,0-2.357,2.88c-1.3,5.314,11.751,3.686,14.379,3.659,7.031-.071,13.987-.754,21.012-.839,5.932-.072,11.889.1,17.8-.215,3.518-.189,9.115,1.417,11.725-1.34,2.038-2.153,1.913-6.524,1.347-9.19A48.947,48.947,0,0,1,322.273,436.556Z" transform="translate(-253.782 90.793)" fill="#161111"/>
          <path id="Path_87" data-name="Path 87" d="M351.066,458.209a3.06,3.06,0,0,0,.569,1.722,3.613,3.613,0,0,0,1.966.866,187.044,187.044,0,0,0,19.4,3.176c1.186-16.935,2.3-35.379,1.653-50.478a11.348,11.348,0,0,0-2.835-6.627c-2.585-3.085-7.282-4.376-11.852-3.757-3.624.489-11.129,3.1-12.79,6.628-1.818,3.854.532,12.105.818,16.091Q349.156,442.089,351.066,458.209Z" transform="translate(-199.557 72.076)" fill="#fff" stroke="#222221" stroke-miterlimit="10" stroke-width="0.5"/>
          <g id="Group_40" data-name="Group 40">
            <g id="Group_37" data-name="Group 37" transform="translate(113.748)">
              <path id="Path_88" data-name="Path 88" d="M358.454,140.759q-.125.88-.268,1.757c-1.475,9.067,2.023,18.531.218,27.913-1.279,6.644-6.941,19.857-15.1,20.723-2.078.22-4.159-2.535-5.3-3.938-3.785-4.646-6.827-10.119-7.478-16.077a44.539,44.539,0,0,1,.186-8.682l1.082-12.468a47.962,47.962,0,0,1,.747-5.822,20.625,20.625,0,0,1,4.616-9.413c4.852-5.456,11.929-5.892,18.785-6.021a3.972,3.972,0,0,1,2.251.423c1.255.808,1.262,2.607,1.124,4.095C359.081,135.771,358.813,138.274,358.454,140.759Z" transform="translate(-323.028 -93.378)" fill="#fff" stroke="#222221" stroke-miterlimit="10" stroke-width="0.5"/>
              <path id="Path_89" data-name="Path 89" d="M341.19,148.572c4.326,1.3,15.626,3.061,15.626,3.061a82.84,82.84,0,0,1-.242-8.528c.027-.3.29-2.192.553-3.869a16.417,16.417,0,0,1,.521-2.689,7.063,7.063,0,0,1-2.823-1.421c-.476-.425-.806-.991-1.292-1.435a11.044,11.044,0,0,0-11.472-1.945,13.623,13.623,0,0,0-5.652,4.367,18.434,18.434,0,0,0-2.216,3.72,14.984,14.984,0,0,0-1.562,4.711c0,.016-.055.414-.141,1.074C335.358,146.69,338.254,147.689,341.19,148.572Z" transform="translate(-321.752 -92.043)" fill="#161111"/>
              <g id="Group_36" data-name="Group 36">
                <path id="Path_90" data-name="Path 90" d="M334.421,113.844a49.383,49.383,0,0,1,7.656,1.352c2.25.584,4.119,1.73,6.421,2.241,3.83.851,9.8,1.82,12.5,4.64,2.969,3.1,2.807,7.677,2.4,11.709a94.414,94.414,0,0,1-1.873,11.432c-1.393,6.125-4.925,10.914-10.81,13.414a21.429,21.429,0,0,1-13.066,1.239c-6.412-1.549-9.893-6.9-10.976-14.388-.2-1.345-.244-5.732-.266-7.092-.063-4.02.875-8.289,1.318-12.3.406-3.676.829-7.425,2.357-10.794a2.948,2.948,0,0,1,.815-1.178,3.13,3.13,0,0,1,2.139-.386C333.5,113.762,333.959,113.8,334.421,113.844Z" transform="translate(-325.423 -102.442)" fill="#fff" stroke="#222221" stroke-miterlimit="10" stroke-width="0.5"/>
                <path id="Path_91" data-name="Path 91" d="M330.971,107.39a16.121,16.121,0,0,1,6.785-.63l12.134.738c3.414.207,6.764.281,9.913,1.812a16.16,16.16,0,0,1,8.47,9.452,23.545,23.545,0,0,1,.459,9.434,80.641,80.641,0,0,1-1.443,8.85c-.614,2.771-1.882,5.875-5.031,6.458-4.148.768-5.169-4.294-4.983-7.218l.3-4.781a8.3,8.3,0,0,0-.175-3,5.581,5.581,0,0,0-3.487-3.335,16.072,16.072,0,0,0-4.917-.76c-5.254-.252-10.556-.412-15.661-1.677a13.435,13.435,0,0,1-4.611-1.9c-3.316-2.355-2.52-9.2.027-11.95A6.082,6.082,0,0,1,330.971,107.39Z" transform="translate(-325.348 -106.681)" fill="#161111"/>
                <path id="Path_92" data-name="Path 92" d="M326.349,135.339a2.657,2.657,0,0,0,.257.85c1.752-2.192,1.5-7.066,2-9.777.592-3.232,1.666-6.538,4.031-8.82a13.5,13.5,0,0,0,1.991-2.012,2.4,2.4,0,0,0,.186-2.66,2.791,2.791,0,0,0-2.96-.675c-6.736,1.656-6.223,10.079-5.892,15.488C326.1,130.094,325.9,132.979,326.349,135.339Z" transform="translate(-325.793 -103.404)" fill="#161111"/>
                <path id="Path_93" data-name="Path 93" d="M346.958,135.826a6.635,6.635,0,0,0,4.778.258c3.506-1.231,5.228-6.365,2.937-9.344a5.6,5.6,0,0,0-4.815-2.112,5.8,5.8,0,0,0-4.451,2.827" transform="translate(-313.959 -95.863)" fill="#fff" stroke="#222221" stroke-miterlimit="10" stroke-width="0.5"/>
              </g>
            </g>
            <path id="Path_94" data-name="Path 94" d="M428.779,372.978c.734-26.478,1.289-52.044-2.894-78.36-1.794-11.283-11.118-50.194-25.262-52.312a5.432,5.432,0,0,0-2.148.091,32.137,32.137,0,0,0-4.374-11.079c-6.17-9.917-17.367-17.154-28.825-19.867-12.71-3.009-28.2-1.283-33.794,13.367-2.864,7.5-2.2,15.132-5.61,22.387-9.639,20.492-10.875,40.837-13.745,63.4q-5.082,39.983-10.564,79.915Q291.148,466.4,279.285,542.065a130.752,130.752,0,0,0,15.931,2.864,122.523,122.523,0,0,0,28.014-.293q13.644-68.8,29.166-137.209c5.184-22.812,9.529-45.123,14.884-66.774,3.638,35.374,6.779,70.807,8.977,106.3q1.681,27.143,2.57,54.326c.473,15.02,3.282,31.347,2.67,46.059,10.7,1.9,23.478.165,34.443-.616,1.259-.09,10.632-1.328,10.738-2.5,2.868-31.783,2.759-57.327,3.423-90.7C430.6,428.425,428.1,397.58,428.779,372.978Z" transform="translate(-240.105 -44.218)" fill="#7696ea" stroke="#000" stroke-miterlimit="10" stroke-width="0.5"/>
            <g id="Group_39" data-name="Group 39" transform="translate(39.18 165.99)">
              <g id="Group_38" data-name="Group 38" clip-path="url(#clip-path-6)">
                <path id="Path_95" data-name="Path 95" d="M372.759,511.213q.058-15.325.016-30.653-.084-30.652-.56-61.3t-1.379-61.289c-.576-19.8-1.061-39.628-2.171-59.407-1.129-20.115-3.136-41.764-13.407-59.53a.42.42,0,0,0-.765.322,232.77,232.77,0,0,1,9.742,54.206c1.188,19.609,1.645,39.274,2.2,58.91q1.722,60.493,1.954,121.018.065,16.9.01,33.8-.029,8.646-.088,17.292c-.038,5.652-.422,11.363.388,16.962.241,1.661,3.053,1.631,3.322,0,.842-5.083.621-10.245.656-15.39Q372.731,518.681,372.759,511.213Z" transform="translate(-233.92 -192.939)"/>
              </g>
            </g>
            <path id="Path_97" data-name="Path 97" d="M331.081,132.765a6.493,6.493,0,0,0,12.981.374Z" transform="translate(-208.854 -90.943)" fill="#fff" stroke="#222221" stroke-miterlimit="10" stroke-width="0.5"/>
            <path id="Path_98" data-name="Path 98" d="M331.981,289.677q-2.881,21.97-6.059,43.9c3.9-.067,7.715,2.089,11.5,2.944,4.714,1.065,9.474,1.93,14.255,2.644a249.166,249.166,0,0,0,29.9,2.524c4.885.135,58.49-1.817,58.354-2.719-.944-6.306-2.139-12.6-2.376-18.984q-.794-21.38-1.587-42.759c-.93-25.086,5.734-49.372,4.8-74.457-.1-2.742-7.8-6.285-7.9-9.027-.249-6.71-3.146-11.7-8.307-15.879a9.681,9.681,0,0,0-2.211-1.438,11.2,11.2,0,0,0-4.1-.646c-3.481-.111-7.327-.507-10.81-.617a5.9,5.9,0,0,1-2.86-.912c.083,4.78-2.246,10.313-6.165,13.207-5.549,4.1-13.261,1.576-17.714-2.987a16.4,16.4,0,0,1-2.912-4.066,12.833,12.833,0,0,1-1.72-4.677c-16.5,4.5-36.341,4.848-53.322,3.947-8.148-.433-19.554-1.408-24.829-7.632-11.028-13.011-7.329-48-5.814-63.534a186.92,186.92,0,0,1-31.172-1.456c-3.785,22.9-7.784,53.915-5.326,76.994,3.757,35.265,56.157,44.018,83.89,40.281.417,5.459-.364,11.353-1.01,16.784-.654,5.5-1.706,10.948-2.4,16.444Q334.076,273.622,331.981,289.677Z" transform="translate(-254.848 -106.455)" fill="#f65e59" stroke="#000" stroke-miterlimit="10" stroke-width="0.5"/>
          </g>
          <path id="Path_99" data-name="Path 99" d="M347.331,456.586l.032.213a2.139,2.139,0,0,0,.7,1.505,2.171,2.171,0,0,0,1.153.269c15.636.68,31.044,1.316,46.688,1.756,3.54.1,18.47.13,19.453-4.933a3.577,3.577,0,0,0-1.32-3.226,10.339,10.339,0,0,0-3.21-1.693c-7.058-2.7-15.079-4.3-21.809-7.662-2.49-1.244-4.858-3.011-7.372-4.327-1.345-.7-6.87-4.986-8.1-4.712-7.7,1.706-16.474,2.966-24.316,1.658A44.736,44.736,0,0,0,347.331,456.586Z" transform="translate(-199.355 90.661)" fill="#161111"/>
        </g>
        <path id="Path_100" data-name="Path 100" d="M377.909,224.522c-6.412,2.735-13.676,2.533-20.569,3.237a3.27,3.27,0,0,0-2.142,1.231,1.93,1.93,0,0,0-.273,1.906c.061.184.593,1.393.92,1.132a3.253,3.253,0,0,0-1.316,2.676,2.107,2.107,0,0,0,2,1.974,1.086,1.086,0,0,0-.127,1.3,2.524,2.524,0,0,0,1.041.917,8.234,8.234,0,0,0,3.41,1.018c-1.825.043-.221,2.407.479,2.825,1.475.88,3.813.924,5.488,1.084a36.478,36.478,0,0,0,12.112-.874c6.139-1.506,11.785-4.586,17.864-6.309a58.231,58.231,0,0,1,8.9-1.695c2.416-.293,5.014-.194,7.3-1.1,4.428-1.749,9.161-2.524,12.508-6.264,3.056-3.415,3.935-9.089.916-12.538-2.286-2.612-6.123-3.288-9.578-2.7-.3.051-.585.111-.872.18-3.665.872-6.922,2.913-10.289,4.6-7.137,3.588-15.786,4.752-23.693,4.78" transform="translate(-167.613 40.322)" fill="#fff" stroke="#222221" stroke-miterlimit="10" stroke-width="0.5"/>
        <path id="Path_101" data-name="Path 101" d="M366.456,191.4c9.549,1.108,37.372,7.2,48.464,15.939,7.321,5.769,12.577,15.288,10.244,24.311-1.546,5.977-6.133,10.813-11.448,13.957s-11.352,4.813-17.332,6.351a82.9,82.9,0,0,1,5.745,29.42c.011.972,25.363-5.993,27.561-6.864,8.1-3.208,14.539-7.571,21.162-13.114a45.317,45.317,0,0,0,15.576-42.561c-5.237-31.223-35.843-52.383-64.873-61.661-16.6-5.305-34.122-7.092-51.538-7.643" transform="translate(-170.329 2.544)" fill="#f65e59" stroke="#000" stroke-miterlimit="10" stroke-width="0.5"/>
        <path id="Path_102" data-name="Path 102" d="M358,229.935a49.8,49.8,0,0,0,16.375-1.429" transform="translate(-165.515 50.191)" fill="#fff" stroke="#222221" stroke-miterlimit="10" stroke-width="0.5"/>
        <path id="Path_103" data-name="Path 103" d="M355.773,228.5a73.418,73.418,0,0,0,19.126-2.79" transform="translate(-166.858 48.503)" fill="#fff" stroke="#222221" stroke-miterlimit="10" stroke-width="0.5"/>
        <path id="Path_104" data-name="Path 104" d="M355.347,225.669a84.6,84.6,0,0,0,20.175-2.979" transform="translate(-167.115 46.682)" fill="#fff" stroke="#222221" stroke-miterlimit="10" stroke-width="0.5"/>
        <path id="Path_105" data-name="Path 105" d="M335.214,311.519c-.353-17.124-.816-34.539-2.783-53.032" transform="translate(-180.941 68.28)" fill="none" stroke="#131834" stroke-miterlimit="10" stroke-width="0.5"/>
        <g id="Group_43" data-name="Group 43" transform="translate(179.689 152.078)">
          <g id="Group_42" data-name="Group 42" clip-path="url(#clip-path-7)">
            <path id="Path_106" data-name="Path 106" d="M416.021,204.16a9.408,9.408,0,0,0,6.648,8.219c3.84.991,7.9-.907,10.839-3.572a13.444,13.444,0,0,0,3.952-5.706C441.918,189.108,414.51,187,416.021,204.16Z" transform="translate(-310.234 -123.947)" fill="#161111"/>
          </g>
        </g>
        <g id="Group_45" data-name="Group 45" transform="translate(27.186 82.723)">
          <g id="Group_44" data-name="Group 44" clip-path="url(#clip-path-8)">
            <path id="Path_108" data-name="Path 108" d="M265.582,155.962a10.879,10.879,0,0,1,8.943,8.222,10.024,10.024,0,0,1-5.2,10.819,12.284,12.284,0,0,1-4.55,1.1,12.04,12.04,0,0,1-9.012-2.763C248.1,166.179,256.514,154.663,265.582,155.962Z" transform="translate(-256.191 -76.361)" fill="#161111"/>
          </g>
        </g>
        <path id="Path_110" data-name="Path 110" d="M343.656,184.145c-.144,2.655,0,6.115.087,8.77.231,7.233,4.6,16.117,13.523,14.6a8.823,8.823,0,0,0,5.775-4.238,20.09,20.09,0,0,0,2.373-6.947c.758-4.063.721-8.153,1.183-12.219C364.451,184.244,343.67,183.883,343.656,184.145Z" transform="translate(-174.205 23.367)" fill="#161111"/>
        <path id="Path_111" data-name="Path 111" d="M334.758,284.019c-.81,4.622-1.486,9.285-2.075,13.939-.614,4.874-.816,9.785-1.409,14.664-.242,2.006-.478,4.012-.675,6.019-.024,1.43-.04,2.859-.039,4.289,1.219.095,1.863-5.963,2.282-7.159.766-2.19.957-4.816,1.632-7.037.5-1.772,1.35-6.864,1.87-8.629-.489-6.529-.205-15.3-.516-22.692C335.527,279.621,335.142,281.821,334.758,284.019Z" transform="translate(-182.07 79.699)" fill="#161111"/>
        <path id="Path_112" data-name="Path 112" d="M307.842,185.109q.209-4.776.42-9.551" transform="translate(-195.776 18.246)" fill="#f65e59" stroke="#000" stroke-miterlimit="10" stroke-width="0.5"/>
      </g>
      <line id="Line_16" data-name="Line 16" x2="660.86" transform="translate(10.122 659.741)" fill="none" stroke="#000" stroke-miterlimit="10" stroke-width="0.5"/>
    </g>
  </g>
</svg>
