<svg xmlns="http://www.w3.org/2000/svg" width="14.963" height="14.963" viewBox="0 0 14.963 14.963">
  <g id="dark" transform="translate(-108 -188)">
    <g id="moon" transform="translate(108 188)">
      <path id="Vector" d="M11.985,8.684c-.1-.168-.38-.43-1.079-.305a5.275,5.275,0,0,1-1.172.081A5.243,5.243,0,0,1,6.05,6.7a5.03,5.03,0,0,1-.9-5.4c.274-.63.081-.96-.056-1.1S4.616-.138,3.955.137A6.433,6.433,0,0,0,.015,6.5a6.531,6.531,0,0,0,4.389,5.6,6.235,6.235,0,0,0,1.8.343c.1.006.2.012.3.012A6.547,6.547,0,0,0,11.786,9.8C12.2,9.22,12.091,8.853,11.985,8.684Z" transform="translate(1.438 1.247)"/>
      <path id="Vector-2" data-name="Vector" d="M0,0H14.963V14.963H0Z" transform="translate(14.963 14.963) rotate(180)" fill="none" opacity="0"/>
    </g>
  </g>
</svg>
