<svg xmlns="http://www.w3.org/2000/svg" width="32.001" height="32.001" viewBox="0 0 32.001 32.001">
  <g id="vuesax_linear_3square" data-name="vuesax/linear/3square" transform="translate(-172 -316)">
    <g id="_3square" data-name="3square" transform="translate(172 316)">
      <path id="Vector" d="M13.334,6.667V9.84c0,2.493-1,3.493-3.507,3.493H3.493C1,13.334,0,12.334,0,9.84V3.507C0,1,1,0,3.493,0H6.667V3.16c0,2.507,1,3.507,3.493,3.507Z" transform="translate(2.667 16)" fill="none" stroke="#292d32" stroke-linecap="round" stroke-linejoin="round" stroke-width="2.5"/>
      <path id="Vector-2" data-name="Vector" d="M13.334,6.667v3.16c0,2.507-1,3.507-3.507,3.507H3.493C1,13.334,0,12.334,0,9.827V3.493C0,1,1,0,3.493,0H6.667V3.16c0,2.507,1,3.507,3.493,3.507Z" transform="translate(9.334 9.334)" fill="none" stroke="#292d32" stroke-linecap="round" stroke-linejoin="round" stroke-width="2.5"/>
      <path id="Vector-3" data-name="Vector" d="M13.334,3.493V9.827c0,2.507-1,3.507-3.507,3.507H3.493C1,13.334,0,12.334,0,9.827V3.493C0,1,1,0,3.493,0H9.827C12.334,0,13.334,1,13.334,3.493Z" transform="translate(16 2.667)" fill="none" stroke="#292d32" stroke-linecap="round" stroke-linejoin="round" stroke-width="2.5"/>
      <path id="Vector-4" data-name="Vector" d="M0,0H32V32H0Z" fill="none" opacity="0"/>
    </g>
  </g>
</svg>
