<svg xmlns="http://www.w3.org/2000/svg" width="32.001" height="32.001" viewBox="0 0 32.001 32.001">
  <g id="vuesax_linear_brush" data-name="vuesax/linear/brush" transform="translate(-234 -254)">
    <g id="brush" transform="translate(234 254)">
      <path id="Vector" d="M12,0H9.334C2.667,0,0,2.667,0,9.334v8C0,24,2.667,26.667,9.334,26.667h8c6.667,0,9.334-2.667,9.334-9.334V14.667" transform="translate(2.627 2.667)" fill="none" stroke="#292d32" stroke-linecap="round" stroke-linejoin="round" stroke-width="2.5"/>
      <path id="Vector-2" data-name="Vector" d="M16.587,2.08a36,36,0,0,1-9.2,12.427L5.28,16.187a3.51,3.51,0,0,1-.84.48,4.9,4.9,0,0,0-.04-.613,4.144,4.144,0,0,0-1.24-2.44A4.35,4.35,0,0,0,.64,12.347,5.128,5.128,0,0,0,0,12.334a2.714,2.714,0,0,1,.52-.893L2.2,9.334A36.194,36.194,0,0,1,14.627.107,1.509,1.509,0,0,1,16.254.44,1.489,1.489,0,0,1,16.587,2.08Z" transform="translate(12.587 2.666)" fill="none" stroke="#292d32" stroke-linecap="round" stroke-linejoin="round" stroke-width="2.5"/>
      <path id="Vector-3" data-name="Vector" d="M9.014,4.339A4.462,4.462,0,0,1,7.721,7.486a4.389,4.389,0,0,1-2.587,1.24l-2.627.28A2.266,2.266,0,0,1,.014,6.5l.28-2.627A4.337,4.337,0,0,1,4.574.006a5.128,5.128,0,0,1,.64.013,4.35,4.35,0,0,1,2.52,1.267,4.182,4.182,0,0,1,1.24,2.44A5.061,5.061,0,0,1,9.014,4.339Z" transform="translate(8.026 14.982)" fill="none" stroke="#292d32" stroke-linecap="round" stroke-linejoin="round" stroke-width="2.5"/>
      <path id="Vector-4" data-name="Vector" d="M5.053,5.053A5.05,5.05,0,0,0,0,0" transform="translate(16.04 10.92)" fill="none" stroke="#292d32" stroke-linecap="round" stroke-linejoin="round" stroke-width="2.5"/>
      <path id="Vector-5" data-name="Vector" d="M0,0H32V32H0Z" fill="none" opacity="0"/>
    </g>
  </g>
</svg>
