<svg xmlns="http://www.w3.org/2000/svg" width="8.125" height="13.823" viewBox="0 0 8.125 13.823">
  <g id="light" transform="translate(-24.395 -13.496)">
    <path id="Path_2" data-name="Path 2" d="M32.154,19.041a3.734,3.734,0,0,1-.781,1.145,2.126,2.126,0,0,0-.625,1.432c0,.13-.026.234-.026.364v.807a.469.469,0,0,1-.052.26.877.877,0,0,1-.521.573.831.831,0,0,1-.364.078H27.1a.831.831,0,0,1-.364-.078.946.946,0,0,1-.521-.573.925.925,0,0,1-.052-.26v-.807c0-.13-.026-.26-.026-.39a2.309,2.309,0,0,0-.625-1.406A4.126,4.126,0,0,1,24.4,17.245a3.62,3.62,0,0,1,.885-2.265,4.1,4.1,0,0,1,5.857-.469,3.871,3.871,0,0,1,1.275,2.082A3.634,3.634,0,0,1,32.154,19.041Z"/>
    <path id="Path_3" data-name="Path 3" d="M35.488,56.651H34.264a.331.331,0,0,1-.364-.312A.335.335,0,0,1,34.264,56h2.447a.316.316,0,1,1,0,.625C36.295,56.651,35.878,56.651,35.488,56.651Z" transform="translate(-7.031 -31.44)"/>
    <path id="Path_4" data-name="Path 4" d="M35.488,60.751H34.264a.331.331,0,0,1-.364-.312.335.335,0,0,1,.364-.338h2.447a.316.316,0,1,1,0,.625C36.295,60.751,35.878,60.751,35.488,60.751Z" transform="translate(-7.031 -34.473)"/>
    <path id="Path_5" data-name="Path 5" d="M36.967,64.9h-.833c-.156,0-.234-.13-.234-.286,0-.182.1-.312.234-.312H37.8c.156,0,.234.13.234.286,0,.182-.1.312-.234.312Z" transform="translate(-8.51 -37.58)"/>
  </g>
</svg>
