<?xml version="1.0" encoding="utf-8"?>
<!-- Generator: Adobe Illustrator 26.4.1, SVG Export Plug-In . SVG Version: 6.00 Build 0)  -->
<svg version="1.1" id="Layer_1" xmlns="http://www.w3.org/2000/svg" xmlns:xlink="http://www.w3.org/1999/xlink" x="0px" y="0px"
	 viewBox="0 0 24 24" style="enable-background:new 0 0 24 24;" xml:space="preserve">
<style type="text/css">
	.st0{fill:#FFFFFF;}
</style>
<path d="M17.8,0.3H6.2c-3.2,0-5.8,2.6-5.8,5.8v7v1.2c0,3.2,2.6,5.8,5.8,5.8h1.8c0.3,0,0.7,0.2,0.9,0.5l1.8,2.3c0.8,1,2,1,2.8,0
	l1.8-2.3c0.2-0.3,0.6-0.5,0.9-0.5h1.8c3.2,0,5.8-2.6,5.8-5.8V6.1C23.7,2.9,21.1,0.3,17.8,0.3z M7.3,12c-0.7,0-1.2-0.5-1.2-1.2
	c0-0.6,0.5-1.2,1.2-1.2s1.2,0.5,1.2,1.2C8.5,11.5,8,12,7.3,12z M12,12c-0.7,0-1.2-0.5-1.2-1.2c0-0.6,0.5-1.2,1.2-1.2
	c0.6,0,1.2,0.5,1.2,1.2C13.2,11.5,12.7,12,12,12z M16.7,12c-0.7,0-1.2-0.5-1.2-1.2c0-0.6,0.5-1.2,1.2-1.2c0.6,0,1.2,0.5,1.2,1.2
	C17.8,11.5,17.3,12,16.7,12z"/>
<path d="M21.5,8h-19C1.3,8,0.3,7,0.3,5.8V2.4c0-1.2,1-2.2,2.2-2.2h19c1.2,0,2.2,1,2.2,2.2v3.4C23.7,7,22.7,8,21.5,8z"/>
<path d="M21.5,21.1h-19c-1.2,0-2.2-1-2.2-2.2v-6.1h23c0.2,0,0.4,0.2,0.4,0.4v5.8C23.7,20.1,22.7,21.1,21.5,21.1z"/>
<rect x="2.5" y="8.3" width="19" height="4.9"/>
<g>
	<circle class="st0" cx="6" cy="10.8" r="1.8"/>
	<circle class="st0" cx="12" cy="10.8" r="1.8"/>
	<circle class="st0" cx="17.8" cy="10.8" r="1.8"/>
</g>
<text transform="matrix(1 0 0 1 960 540)" style="font-family:'MyriadPro-Regular'; font-size:12px;">&lt;div class=&quot;menu head-btn&quot; onclick=&quot;openNav()&quot;&gt;&lt;/div&gt;</text>
</svg>
