<svg xmlns="http://www.w3.org/2000/svg" width="34.542" height="34.542" viewBox="0 0 34.542 34.542">
  <g id="vuesax_outline_sun" data-name="vuesax/outline/sun" transform="translate(-172 -188)">
    <g id="sun" transform="translate(172 188)">
      <path id="Vector" d="M10.434,20.869A10.434,10.434,0,1,1,20.869,10.434,10.442,10.442,0,0,1,10.434,20.869Zm0-18.71a8.276,8.276,0,1,0,8.276,8.276A8.286,8.286,0,0,0,10.434,2.159Z" transform="translate(6.836 6.836)" fill="#292d32"/>
      <path id="Vector-2" data-name="Vector" d="M15.832,31.606a1.4,1.4,0,0,1-1.439-1.382v-.115a1.439,1.439,0,0,1,2.878,0A1.494,1.494,0,0,1,15.832,31.606Zm10.276-4.059a1.474,1.474,0,0,1-1.022-.417l-.187-.187a1.435,1.435,0,0,1,2.029-2.029l.187.187a1.433,1.433,0,0,1,0,2.029A1.416,1.416,0,0,1,26.108,27.547Zm-20.552,0a1.474,1.474,0,0,1-1.022-.417,1.433,1.433,0,0,1,0-2.029l.187-.187A1.435,1.435,0,0,1,6.75,26.943l-.187.187A1.441,1.441,0,0,1,5.555,27.547ZM30.224,17.271h-.115a1.439,1.439,0,0,1,0-2.878,1.494,1.494,0,0,1,1.5,1.439A1.4,1.4,0,0,1,30.224,17.271Zm-28.67,0H1.439a1.439,1.439,0,1,1,0-2.878,1.494,1.494,0,0,1,1.5,1.439A1.4,1.4,0,0,1,1.554,17.271ZM25.921,7.182A1.474,1.474,0,0,1,24.9,6.764a1.433,1.433,0,0,1,0-2.029l.187-.187a1.435,1.435,0,0,1,2.029,2.029l-.187.187A1.416,1.416,0,0,1,25.921,7.182Zm-20.178,0a1.474,1.474,0,0,1-1.022-.417l-.187-.2A1.435,1.435,0,0,1,6.563,4.534l.187.187a1.433,1.433,0,0,1,0,2.029A1.4,1.4,0,0,1,5.743,7.182ZM15.832,2.936a1.4,1.4,0,0,1-1.439-1.382V1.439a1.439,1.439,0,1,1,2.878,0A1.494,1.494,0,0,1,15.832,2.936Z" transform="translate(1.439 1.439)" fill="#292d32"/>
      <path id="Vector-3" data-name="Vector" d="M0,0H34.542V34.542H0Z" fill="none" opacity="0"/>
    </g>
  </g>
</svg>
