<svg xmlns="http://www.w3.org/2000/svg" width="30.935" height="30.935" viewBox="0 0 30.935 30.935">
  <g id="vuesax_linear_menu" data-name="vuesax/linear/menu" transform="translate(-237.436 -252.436)">
    <g id="menu" transform="translate(1.436 0.436)">
      <g id="Group" transform="translate(241.156 256.37)">
        <path id="Vector" d="M6.342,3.171A3.171,3.171,0,1,1,3.171,0,3.171,3.171,0,0,1,6.342,3.171Z" transform="translate(14.282)" fill="none" stroke="#292d32" stroke-linecap="round" stroke-linejoin="round" stroke-width="2.5"/>
        <path id="Vector-2" data-name="Vector" d="M6.342,3.171A3.171,3.171,0,1,1,3.171,0,3.171,3.171,0,0,1,6.342,3.171Z" fill="none" stroke="#292d32" stroke-linecap="round" stroke-linejoin="round" stroke-width="2.5"/>
        <path id="Vector-3" data-name="Vector" d="M6.342,3.171A3.171,3.171,0,1,1,3.171,0,3.171,3.171,0,0,1,6.342,3.171Z" transform="translate(14.282 15.854)" fill="none" stroke="#292d32" stroke-linecap="round" stroke-linejoin="round" stroke-width="2.5"/>
        <path id="Vector-4" data-name="Vector" d="M6.342,3.171A3.171,3.171,0,1,1,3.171,0,3.171,3.171,0,0,1,6.342,3.171Z" transform="translate(0 15.854)" fill="none" stroke="#292d32" stroke-linecap="round" stroke-linejoin="round" stroke-width="2.5"/>
      </g>
      <path id="Vector-5" data-name="Vector" d="M0,0H30.935V30.935H0Z" transform="translate(236 252)" fill="none" opacity="0"/>
    </g>
  </g>
</svg>
