<svg xmlns="http://www.w3.org/2000/svg" width="32.001" height="32.001" viewBox="0 0 32.001 32.001">
  <g id="vuesax_linear_html-5" data-name="vuesax/linear/html-5" transform="translate(-992 -405)">
    <g id="html-5" transform="translate(992 405)">
      <path id="BG_1" data-name="BG 1" d="M0,0H32V32H0Z" fill="none" opacity="0.58"/>
      <path id="Vector" d="M1.333,0H22.4a1.3,1.3,0,0,1,1.333,1.467l-2.4,21.6a1.424,1.424,0,0,1-.933,1.2l-8.134,2.267a.6.6,0,0,1-.667,0L3.467,24.267a1.168,1.168,0,0,1-.933-1.2L0,1.467A1.37,1.37,0,0,1,1.333,0Z" transform="translate(4.133 2.667)" fill="none" stroke="#17191c" stroke-linecap="round" stroke-linejoin="round" stroke-width="2.5"/>
      <path id="Vector-2" data-name="Vector" d="M11.2,0H0L.533,5.867H10.667l-.8,6.667L5.333,13.867l-4.8-1.333V9.867" transform="translate(10.4 9.067)" fill="none" stroke="#17191c" stroke-linecap="round" stroke-linejoin="round" stroke-width="2.5"/>
      <path id="Vector-3" data-name="Vector" d="M0,0H32V32H0Z" fill="none" opacity="0"/>
    </g>
  </g>
</svg>
