<?xml version="1.0" encoding="utf-8"?>
<!-- Generator: Adobe Illustrator 25.2.0, SVG Export Plug-In . SVG Version: 6.00 Build 0)  -->
<svg version="1.1" id="Layer_1" xmlns="http://www.w3.org/2000/svg" xmlns:xlink="http://www.w3.org/1999/xlink" x="0px" y="0px"
	 viewBox="0 0 40 40" style="enable-background:new 0 0 40 40;" xml:space="preserve">
<path d="M232.5-89.6c-0.2,0.3-0.3,0.6-0.5,0.8c-0.5,0.7-0.9,1.4-1.5,2.1c-0.1,0.2-0.4,0.4-0.6,0.4c-1.6,0.3-3.2,0.3-4.8,0.2
	c-2.6-0.2-5.2-0.7-7.6-1.7c-1.3-0.5-2.5-1.1-3.7-1.8c-6.9-4.4-13.8-8.8-20.8-13.2c-0.6-0.4-0.7-0.7-0.2-1.2
	c2.9-3.7,5.7-7.4,8.6-11.1c0.2-0.2,0.4-0.5,0.7-0.4c0.3,0.1,0.4,0.4,0.5,0.7c0.4,2.5,1.6,4.5,3.5,6.2c0.8,0.8,1.9,1,2.9,1.2
	c2.2,0.3,4.3-0.1,6.4-0.6c0-0.5,0-1.1,0-1.6c0.1-0.7,0.4-1.4,0.9-1.9c0.3-0.3,0.6-0.3,0.9-0.1c0.3,0.2,0.3,0.6,0,0.9
	c-0.9,1.1-0.9,2.2-0.2,3.4c0.5,1,1.1,1.9,1.6,2.9c0.8-0.4,1.1-0.4,1.3,0c0.2,0.3,0.1,0.6-0.6,1.1c0.3,0.4,0.6,0.8,0.9,1.2
	c0.5-0.2,0.9-0.8,1.4-0.2c0.3,0.3,0.1,0.6-0.6,1.1c0.3,0.3,0.5,0.7,0.8,1c0.4-0.2,0.9-0.7,1.3-0.1c0.2,0.3,0.1,0.6-0.5,1
	c0.5,0.5,1,1,1.5,1.5c1.6,1.6,3.3,3.1,5.4,4.1c1.5,0.7,2.6,1.7,3,3.4C232.5-90.1,232.5-89.8,232.5-89.6z M194.1-103.5
	c0.1,0.1,0.2,0.1,0.3,0.2c6.6,4.2,13.2,8.4,19.8,12.6c0.5,0.3,1,0.6,1.6,0.9c3.1,1.5,6.3,2.3,9.7,2.6c1.3,0.1,2.6,0.1,3.9-0.1
	c0.1,0,0.2-0.1,0.3-0.1c0.3-0.4,0.5-0.8,0.8-1.2c-0.1,0-0.1,0-0.1,0c-1.9,0.1-3.8,0-5.6-0.3c-3.3-0.5-6.4-1.6-9.3-3.3
	c-2.8-1.8-5.6-3.6-8.5-5.3c-0.1-0.1-0.2-0.1-0.3-0.2c-0.2-0.2-0.3-0.4-0.1-0.7c0.2-0.3,0.4-0.4,0.7-0.3c0.1,0,0.3,0.1,0.4,0.2
	c2.9,1.8,5.8,3.7,8.7,5.4c1,0.6,2,1.1,3.1,1.6c2.6,1.1,5.3,1.6,8.1,1.8c1.2,0.1,2.5,0.1,3.7-0.2c0,0,0-0.1,0-0.1c0-0.1,0-0.1,0-0.2
	c-0.1-0.8-0.6-1.4-1.3-1.8c-0.6-0.4-1.3-0.7-1.9-1.1c-2.2-1.2-4-2.9-5.7-4.7c-0.3-0.3-0.6-0.6-0.9-0.9c-0.6,0.3-1.1,0.7-1.6,1
	c-0.3,0.2-0.6,0.1-0.8-0.2c-0.2-0.3-0.1-0.6,0.2-0.8c0.1-0.1,0.3-0.2,0.4-0.3c0.3-0.2,0.7-0.4,1.1-0.7c-0.3-0.4-0.5-0.7-0.8-1
	c-0.1,0.1-0.3,0.2-0.4,0.2c-0.4,0.3-0.9,0.6-1.3,0.8c-0.3,0.2-0.6,0.1-0.8-0.2c-0.2-0.3-0.1-0.6,0.1-0.8c0.1-0.1,0.2-0.2,0.4-0.2
	c0.4-0.3,0.8-0.5,1.3-0.8c-0.3-0.4-0.6-0.8-0.9-1.3c-0.1,0.1-0.3,0.2-0.4,0.2c-0.6,0.3-1.1,0.7-1.7,1c-0.3,0.2-0.6,0.1-0.8-0.2
	c-0.2-0.3-0.1-0.6,0.2-0.8c0.3-0.2,0.5-0.3,0.8-0.5c0.4-0.2,0.8-0.5,1.2-0.7c-0.5-0.9-1-1.8-1.5-2.7c-0.2-0.3-0.3-0.3-0.6-0.3
	c-2.1,0.5-4.2,0.9-6.4,0.6c-1.5-0.2-2.9-0.6-4.1-1.7c-1.4-1.4-2.6-3.1-3.2-5c0-0.1-0.1-0.3-0.2-0.5c-1.9,2.5-3.8,4.9-5.7,7.4
	c1.7,1.1,3.3,2.2,5,3.2c0.8-1.6,1-3.3,0.5-5c-0.2-0.8-0.7-1.6-1.2-2.3c-0.3-0.4-0.2-0.7,0.1-0.9c0.3-0.2,0.6-0.1,0.9,0.3
	c1.6,2.2,2.1,4.6,1.3,7.2c-0.1,0.5-0.4,0.9-0.5,1.4c0.9,0.6,1.9,1.2,2.8,1.8c0.2,0.1,0.4,0.2,0.6,0.4c0.3,0.2,0.3,0.5,0.1,0.8
	c-0.2,0.3-0.5,0.3-0.7,0.2c-0.1-0.1-0.2-0.1-0.4-0.2c-2.9-1.9-5.8-3.8-8.8-5.6c-0.1-0.1-0.3-0.2-0.4-0.3
	C194.9-104.6,194.5-104.1,194.1-103.5z"/>
<g>
	<path d="M137.6-39c-0.2,0-0.6,0-0.9,0c-0.5,0-0.7-0.2-0.8-0.7c0-0.8,0-1.7,0-2.5c0-0.5,0.3-0.7,0.7-0.7c0.8,0,1.7,0,2.5,0
		c0.2,0,0.3,0.1,0.5,0.1c0.9,0.4,1.8,0.7,2.7,1.1c0.7,0.3,0.7,0.3,0.7,1.1c0,0.1,0,0.2,0,0.3c0.5,0,0.9,0,1.4,0
		c-0.1-1-0.2-1.9-0.3-2.9c-0.1-1.4-0.3-2.8-0.4-4.2c-0.1-0.5,0.2-0.8,0.8-0.8c1.1,0,2.2,0,3.3,0c0.6,0,0.6,0,0.6-0.6
		c0-1.6,0-3.1,0.5-4.6c1.5-5.1,6.5-8.5,11.8-7.9c5.7,0.6,10,5.3,10.1,11.1c0,0.5,0,1,0,1.6c0,0.4,0.1,0.5,0.5,0.5c1.1,0,2.1,0,3.2,0
		c0.7,0,1,0.3,0.9,1c-0.4,3.3-0.7,6.6-1.1,10c0,0.3,0,0.5,0.3,0.6c0.2,0.1,0.3,0.2,0.4,0.3c0.3,0.2,0.4,0.5,0.4,0.8
		c0,4.3,0,8.6,0,12.9c0,0.6-0.2,0.8-0.8,0.8c-11.7,0-23.4,0-35.1,0c-2,0-3.4-1.5-3.3-3.5c0.2-2.8,0.4-5.6,0.6-8.5
		c0.1-1.1,0.1-2.3,0.3-3.4C137.2-37.8,137.5-38.4,137.6-39z M159.2-28.5c0-0.5-0.1-1-0.1-1.5c-0.2-2.4-0.4-4.7-0.6-7.1
		c-0.1-1.2-0.9-1.9-2.1-1.9c-1.6,0-3.3,0-4.9,0c-0.1,0-0.3,0-0.4,0c0,0.7,0,1.2,0,1.8c0,0.6-0.2,0.8-0.8,0.8c-1.2,0-2.4,0-3.6,0
		c-0.6,0-0.8-0.2-0.8-0.8c0-0.6,0-1.2,0-1.8c-0.1,0-0.1,0-0.2,0c-1.8,0-3.6,0-5.3,0c-1,0-1.8,0.8-1.9,1.8c-0.2,2.1-0.3,4.1-0.5,6.2
		c-0.1,0.9-0.1,1.7-0.2,2.6C145-28.5,152.1-28.5,159.2-28.5z M163.7-23.2c0-0.2,0-0.4,0-0.5c0-3.9,0-7.8,0-11.7
		c0-0.4,0.1-0.7,0.4-0.9c1-0.8,2-1.6,3-2.4c0.2-0.2,0.5-0.3,0.8-0.3c1.2,0,2.3,0,3.5,0c0.3,0,0.6,0.1,0.8,0.3c0.4,0.2,0.7,0.5,1,0.8
		c0.3-3.1,0.6-6,0.9-9c-0.9,0-1.7,0-2.6,0c0,0.2,0,0.3,0,0.5c0,1.3,0,2.6,0,4c0,0.6-0.2,0.8-0.8,0.8c-1.2,0-2.4,0-3.7,0
		c-0.6,0-0.8-0.2-0.8-0.8c0-1.3,0-2.7,0-4c0-0.1,0-0.3,0-0.4c-4.4,0-8.8,0-13.2,0c0,1.5,0,3,0,4.4c0,0.6-0.2,0.8-0.8,0.8
		c-1.2,0-2.4,0-3.7,0c-0.6,0-0.8-0.2-0.8-0.8c0-0.6,0-1.2,0-1.8c0-0.9,0-1.8,0-2.7c-0.9,0-1.7,0-2.6,0c0.2,2.2,0.5,4.4,0.7,6.6
		c0.2,0,0.3,0,0.5,0c3.4,0,6.7,0,10.1,0c1.5,0,2.8,0.9,3.2,2.3c0.1,0.4,0.2,0.9,0.2,1.4c0.2,3.1,0.5,6.2,0.7,9.4
		c0.1,1.4,0.5,2.8-0.5,4.1C161.4-23.2,162.5-23.2,163.7-23.2z M159.7-48.2c1.2,0,2.4,0,3.6,0c1.1,0,2.2,0,3.2,0c0.2,0,0.4,0,0.4-0.3
		c0-0.9,0-1.7-0.1-2.6c-0.4-3.4-3.2-6-6.6-6.3c-3.3-0.3-6.5,1.9-7.5,5.1c-0.2,0.7-0.3,1.5-0.3,2.3c0,0.6,0,1.2,0.1,1.7
		c0.6,0,1.1,0.1,1.7,0.1C156.1-48.2,157.9-48.2,159.7-48.2z M174.2-23.2c0-0.1,0-0.1,0-0.2c0-3.9,0-7.8,0-11.8
		c0-0.1-0.1-0.3-0.2-0.4c-0.8-0.7-1.6-1.3-2.4-2c-0.1-0.1-0.3-0.2-0.5-0.2c-1,0-1.9,0-2.9,0c-0.2,0-0.4,0.1-0.6,0.2
		c-0.8,0.6-1.5,1.2-2.3,1.8c-0.2,0.2-0.3,0.4-0.3,0.7c0,3.8,0,7.6,0,11.4c0,0.1,0,0.3,0,0.4C168.1-23.2,171.1-23.2,174.2-23.2z
		 M137.7-27.1c0,0.6,0,1.1-0.1,1.6c-0.2,1.4,0.8,2.4,2.3,2.4c5.8,0,11.6,0,17.4,0c0.2,0,0.3,0,0.5,0c0.9-0.1,1.7-0.8,1.8-1.6
		c0.1-0.8,0-1.5-0.1-2.3C152.1-27.1,144.9-27.1,137.7-27.1z M151.2-49.3c-0.2-2.5,0.5-4.7,2.1-6.5c1.6-1.9,3.7-2.9,6.2-2.9
		c2.1-0.1,4,0.6,5.7,1.9c2.3,1.9,3.3,4.5,3.1,7.6c0.5-0.4,0.9-0.4,1.3-0.1c0.4-4-1.7-7.9-5.3-9.7c-3.5-1.8-7.8-1.4-10.9,1.2
		c-2.8,2.3-3.8,5.9-3.4,8.5C150.4-49.6,150.4-49.6,151.2-49.3z M151.8-43c0-1.4,0-2.7,0-4c0-0.1-0.1-0.3-0.2-0.4
		c-1.1-0.8-1.1-0.8-2.2,0c-0.1,0.1-0.2,0.3-0.2,0.5c0,1.2,0,2.4,0,3.6c0,0.1,0,0.2,0,0.3C150.1-43,150.9-43,151.8-43z M170.2-43
		c0-1.1-0.1-2.2,0-3.3c0-0.7-0.2-1.1-0.8-1.5c-0.4-0.2-0.7-0.2-1.1,0c-0.6,0.4-0.9,0.8-0.8,1.5c0.1,1.1,0,2.2,0,3.3
		C168.5-43,169.3-43,170.2-43z M137.3-40.3c1.6,0,3.1,0,4.6,0c0-0.1,0-0.1,0.1-0.2c-0.5-0.2-1-0.4-1.5-0.6c-0.5-0.2-1-0.4-1.5-0.5
		c-0.5-0.1-1.1,0-1.6,0C137.3-41.2,137.3-40.8,137.3-40.3z M149.8-37.7c0-0.4,0-0.9,0-1.3c-0.9,0-1.7,0-2.6,0c0,0.4,0,0.9,0,1.3
		C148.1-37.7,149-37.7,149.8-37.7z"/>
	<path d="M159.7-41.6c-0.6,0-1.2,0-1.8,0c-0.5,0-0.8-0.2-0.8-0.8c0-0.8,0-1.6,0-2.4c0-0.5,0.3-0.8,0.8-0.8c1.2,0,2.5,0,3.7,0
		c0.5,0,0.7,0.3,0.8,0.8c0,0.8,0,1.6,0,2.4c0,0.5-0.3,0.7-0.8,0.8C160.9-41.6,160.3-41.6,159.7-41.6z M158.4-43c0.9,0,1.7,0,2.6,0
		c0-0.4,0-0.9,0-1.3c-0.9,0-1.7,0-2.6,0C158.4-43.8,158.4-43.4,158.4-43z"/>
	<path d="M171.6-27.8c0,0.8-0.3,1.4-1,1.7c-0.3,0.2-0.4,0.3-0.3,0.6c0,0.1,0,0.2,0,0.4c0,0.4-0.3,0.6-0.6,0.6
		c-0.3,0-0.7-0.3-0.6-0.6c0-0.6-0.1-0.9-0.6-1.2c-0.5-0.3-0.7-0.8-0.7-1.3c0-0.4,0.2-0.8,0.6-0.8c0.4,0,0.6,0.2,0.7,0.6
		c0.1,0.5,0.4,0.8,0.8,0.7c0.3-0.1,0.6-0.4,0.5-0.7c-0.1-0.4-0.3-0.6-0.7-0.6c-1-0.1-1.6-0.6-1.9-1.4c-0.3-0.9,0.1-1.8,0.9-2.3
		c0.3-0.1,0.3-0.3,0.3-0.5c0-0.1,0-0.3,0-0.4c0-0.4,0.3-0.6,0.6-0.6c0.3,0,0.7,0.2,0.7,0.6c0,0.6,0.1,0.9,0.6,1.2
		c0.5,0.3,0.7,0.8,0.7,1.3c0,0.4-0.2,0.8-0.6,0.8c-0.4,0-0.6-0.2-0.7-0.6c-0.1-0.5-0.4-0.8-0.8-0.7c-0.3,0.1-0.6,0.4-0.5,0.7
		c0.1,0.4,0.3,0.6,0.7,0.6c1,0.1,1.7,0.7,1.9,1.6C171.6-28,171.6-27.9,171.6-27.8z"/>
	<path d="M170.2-35.7c0,0.4-0.3,0.6-0.7,0.6c-0.4,0-0.6-0.3-0.6-0.7c0-0.4,0.3-0.6,0.7-0.6C170-36.3,170.3-36,170.2-35.7z"/>
</g>
<g>
	<path d="M-45.2-34.9v31.8c0,2.1,1.7,3.9,3.9,3.9h31.8c2.1,0,3.9-1.7,3.9-3.9v-31.8c0-2.1-1.7-3.9-3.9-3.9h-31.8
		C-43.5-38.8-45.2-37.1-45.2-34.9z M-40.8-37.3h13.3c0.7,0,1.3,0.6,1.3,1.3v14.7c0,0.8-0.7,1.5-1.5,1.5h-14.7
		c-0.7,0-1.3-0.6-1.3-1.3v-13.3C-43.7-36-42.4-37.3-40.8-37.3z M-42.4-18.3h14.7c0.8,0,1.5,0.7,1.5,1.5v14.7c0,0.7-0.6,1.3-1.3,1.3
		h-13.3c-1.6,0-2.9-1.3-2.9-2.9V-17C-43.7-17.7-43.1-18.3-42.4-18.3z M-10.1-0.8h-13.3c-0.7,0-1.3-0.6-1.3-1.3v-14.7
		c0-0.8,0.7-1.5,1.5-1.5h14.7c0.7,0,1.3,0.6,1.3,1.3v13.3C-7.2-2.1-8.5-0.8-10.1-0.8z M-8.5-19.8h-14.7c-0.8,0-1.5-0.7-1.5-1.5V-36
		c0-0.7,0.6-1.3,1.3-1.3h13.3c1.6,0,2.9,1.3,2.9,2.9v13.3C-7.2-20.4-7.8-19.8-8.5-19.8z"/>
</g>
<g>
	<g>
		<g>
			<path d="M-5.2-99.2c-0.6-2.8-1-5.6-1.4-8.4c-0.4-2.7-1-5.5-1.3-8.2c-0.1-1-0.3-1.9-0.9-2.7c-0.9-1.1-2.3-1.9-3.7-1.9
				c0,0-12.8,0-12.8,0c-1.1,0-2.3,0.5-3.1,1.3c-1,0.8-1.4,1.9-1.5,3.2c-0.2,1.7-0.5,3.4-0.7,5.1c-0.4,2.3-0.7,4.6-1.1,6.9
				c-0.3,1.6-0.5,3.2-0.8,4.9l-2.1-1.3c-1.3-0.8-3,0.2-3,1.7v3.1c0,1.1,0.6,2.1,1.5,2.6l4.3,2.5c1,0.6,2.1,0.9,3.2,0.9H-10
				c1.1,0,2.2-0.3,3.2-0.9c1.3-0.8,2.6-1.5,4-2.2c0.5-0.3,1-0.6,1.6-1c0.5-0.3,0.8-0.7,1-1.3c0.2-0.6,0.3-1.2,0.3-1.9
				c0-0.6,0-1.3,0-1.9c0-1.5-1.7-2.5-3-1.7L-5.2-99.2z M-30.7-101.5c0.3-1.6,0.6-3.8,1.1-6.5c0.5-3.2,1-6.4,1.3-8.1
				c0.1-0.7,0.4-1.4,0.9-1.9l0,0c0.6-0.6,1.5-1,2.4-1l12.3,0c0.9,0,1.7,0.4,2.4,1h0c0.5,0.5,0.8,1.2,0.9,1.9
				c0.3,1.7,0.8,4.9,1.3,8.1c0.4,2.7,0.8,5,1.1,6.5c0.1,0.7,0.2,1.2,0.3,1.6c0.2,0.8-0.2,1.7-1,2.1l-1.7,1c-0.3,0.2-0.7,0.3-1.1,0.3
				h-16.8c-0.4,0-0.7-0.1-1.1-0.3l-1.7-1c-0.7-0.4-1.1-1.3-1-2.1C-30.9-100.2-30.8-100.8-30.7-101.5z M-2.5-94.8L-7.2-92
				c-1,0.6-2.2,0.9-3.3,0.9h-17.8c-1.2,0-2.3-0.3-3.3-0.9l-3.6-2.2c-0.6-0.4-1-1-1-1.7v-2.9c0-0.4,0.4-0.6,0.7-0.4l4.7,2.8l1.1,0.6
				c0.9,0.5,2,0.8,3,0.8h15.5c1.1,0,2.1-0.3,3-0.8l1.1-0.6l4.7-2.8c0.3-0.2,0.7,0,0.7,0.4v2.3C-1.5-95.8-1.9-95.2-2.5-94.8z"/>
		</g>
	</g>
	<path d="M-9.3-84.4h-1.6c-0.9,0-1.7-0.3-2.4-0.9l-2.1-1.8c-0.5-0.4-1.1-0.6-1.7-0.6c-0.5,0-1,0.2-1.3,0.6l-0.4,0.4l-0.4-0.4
		c-0.4-0.4-0.8-0.6-1.3-0.6c-0.6,0-1.2,0.2-1.7,0.6l-2.1,1.8c-0.7,0.6-1.5,0.9-2.4,0.9h-1.6c-0.3,0-0.4,0.4-0.2,0.6l2.8,1.8
		c1,0.7,2.2,1,3.3,1c1,0,1.9-0.2,2.8-0.7l0.8-0.4l0.8,0.4c0.9,0.5,1.9,0.7,2.8,0.7c1.2,0,2.3-0.3,3.3-1l2.8-1.8
		C-8.9-83.9-9-84.4-9.3-84.4z M-19.6-84.1c0,0.4-0.2,0.8-0.6,1l0,0c-0.5,0.3-1.1,0.5-1.7,0.5c-1.1,0.1-2.2-0.1-3.1-0.7
		c0.6-0.2,1.1-0.5,1.5-0.9l2.1-1.8c0,0,0,0,0,0c0.4-0.3,0.9-0.3,1.3,0.1l0.1,0.1c0.2,0.2,0.3,0.5,0.3,0.8V-84.1z M-15.8-82.5
		c-0.6-0.1-1.1-0.3-1.7-0.5h0c-0.4-0.2-0.6-0.6-0.6-1v-1c0-0.3,0.1-0.6,0.3-0.8l0.1-0.1c0.3-0.3,0.9-0.4,1.3-0.1c0,0,0,0,0,0
		l2.1,1.8c0.5,0.4,1,0.7,1.5,0.9C-13.6-82.6-14.7-82.4-15.8-82.5z"/>
</g>
<g>
	<path d="M59.2-110.1c-0.6-0.5-1.4-0.8-2.1-0.8c-0.6,0-0.8,0-1.4,0.1c-0.2,0-0.7,0.3-0.9,0.5c-0.2,0.3-0.5,0.5-0.5,0.9
		c-0.1,0.4-0.2,0.6-0.5,1c-0.4,0.6-1.1,1.1-1.8,1.3c-0.2,0.1-0.5,0.1-0.8,0.1s-0.5,0-0.8-0.1c-0.7-0.2-1.4-0.6-1.8-1.3
		c-0.4-0.7-0.4-1.4-1-1.9c-0.6-0.5-1.5-0.5-2.2-0.5c-0.8,0-1.5,0.3-2.1,0.8L32.3-101c-0.8,0.6-1.1,1.7-0.8,2.7l1.8,5.7
		c0.5,1.5,2.2,2.2,3.6,1.4l3.6-2.1v14.7c0,1.3,1,2.3,2.3,2.3h17.2c1.3,0,2.3-1,2.3-2.3v-14.7l3.8,2.2c1.2,0.7,2.8,0.1,3.3-1.3
		l1.9-6.1c0.3-0.9,0-1.8-0.7-2.4L59.2-110.1z M66.1-92.8l-4.3-2.5c-0.5-0.3-1.1,0.1-1.1,0.6v15.5c0,0.7-0.6,1.3-1.3,1.3H43.3
		c-0.7,0-1.3-0.6-1.3-1.3v-15.5c0-0.6-0.6-0.9-1.1-0.6l-4.6,2.7c-0.6,0.4-1.4,0.1-1.6-0.6L33-98.7c-0.1-0.4,0-0.9,0.4-1.2l11.3-9.1
		c0.3-0.2,0.6-0.3,0.9-0.3l0.6,0c0.4,0,0.8,0.3,0.9,0.7c0.3,1,1,1.9,1.9,2.4c0.6,0.4,1.4,0.6,2.1,0.6h0.8c0.7,0,1.5-0.2,2.1-0.6
		c0.9-0.6,1.6-1.4,1.9-2.4c0.1-0.4,0.5-0.7,0.9-0.7l0.6,0c0.3,0,0.6,0.1,0.9,0.3l11.1,9c0.4,0.4,0.6,0.9,0.5,1.5l-1.5,4.9
		C67.9-92.8,66.9-92.4,66.1-92.8z"/>
</g>
<g>
	<path d="M140.4-120.5h-25.5c-0.8,0-1.5,0.6-1.6,1.4L108-83.4c-0.2,1.3,0.8,2.5,2.1,2.5h9.3c1,0,1.8-0.7,2.1-1.6l6.1-23.4
		c0-0.1,0.2-0.1,0.2,0l6.1,23.4c0.2,0.9,1.1,1.6,2.1,1.6h9.1c1.3,0,2.3-1.2,2.1-2.5l-5.1-35.7C141.9-119.9,141.2-120.5,140.4-120.5z
		 M141.3-113.9c0,0.2-0.1,0.4-0.4,0.4c-0.9,0-2.3-0.1-3.2-0.9c-0.4-0.3-0.7-0.7-0.8-1.1c-0.1-0.2,0.1-0.5,0.4-0.5h3.4
		c0.2,0,0.3,0.1,0.4,0.3L141.3-113.9z M114.6-116h3.4c0.3,0,0.4,0.3,0.4,0.5c-0.2,0.5-0.4,0.8-0.8,1.1c-1,0.8-2.4,0.9-3.2,0.9
		c-0.2,0-0.4-0.2-0.4-0.4l0.3-1.8C114.2-115.9,114.4-116,114.6-116z M119.1-82.4h-8.5c-0.7,0-1.2-0.6-1.1-1.2l4.2-28.4
		c0.1,0,0.4,0,0.7,0c1,0,2.8-0.2,4-1.2c0.9-0.7,1.4-1.6,1.5-2.8h6.1c0.4,0,0.7,0.3,0.7,0.7v6h0l-6.8,26.1
		C120-82.7,119.5-82.4,119.1-82.4z M114.5-118l0.1-0.6c0-0.2,0.2-0.4,0.5-0.4h25.1c0.2,0,0.4,0.2,0.5,0.4l0.1,0.6
		c0,0.3-0.2,0.5-0.5,0.5H115C114.7-117.5,114.5-117.8,114.5-118z M128.3-111.1v-4.1c0-0.4,0.3-0.7,0.7-0.7h6.2
		c0.2,1.2,0.7,2.1,1.5,2.8c1.3,1,3,1.2,4,1.2c0.3,0,0.6,0,0.7,0l4.1,28.4c0.1,0.6-0.4,1.2-1.1,1.2h-8.4c-0.5,0-0.9-0.3-1-0.8
		l-6.5-24.8C128.4-109,128.3-110.1,128.3-111.1z"/>
</g>
<g>
	<g>
		<path d="M187.7-77.6l-0.3-0.5l-8.3-16.5c-0.5-0.9-0.7-2-0.7-3v-0.6c0-0.3,0.2-0.6,0.5-0.8c1.9-0.8,3.1-2.7,3.1-4.9v-5.8h-3.8
			c-0.2,0-0.4-0.2-0.4-0.4v-2.5c0-0.4-0.3-0.7-0.7-0.8c-0.2,0-0.4,0.1-0.6,0.2c-0.1,0.1-0.2,0.3-0.2,0.5v2.5c0,0.3-0.2,0.5-0.5,0.5
			c-1.8,0.2-3.4,1.3-4.3,2.9c-0.9-1.5-2.4-2.6-4.3-2.9c-0.3,0-0.5-0.3-0.5-0.5v-2.4c0-0.4-0.3-0.7-0.7-0.8c-0.2,0-0.4,0.1-0.6,0.2
			c-0.1,0.1-0.2,0.3-0.2,0.5v2.5c0,0.2-0.2,0.4-0.4,0.4h-3.8v5.8c0,2.2,1.3,4,3.1,4.9c0.3,0.1,0.5,0.4,0.5,0.8v0.6
			c0,1-0.2,2.1-0.7,3l-8.1,16.3l-0.3,0.6c-0.2,0.4,0,0.8,0.3,1c0.2,0.1,0.5,0.2,0.7,0.3c4.7,1.7,9.8,2.7,15.2,2.7
			c5.1,0,10-0.9,14.6-2.5l0.6-0.2C187.7-76.6,187.9-77.2,187.7-77.6z M162.8-103.9v-3.4c0-0.5,0.4-1,1-1h2.9c2.1,0,3.9,1.5,4.2,3.6
			c0.1,0.4,0.4,0.7,0.8,0.7h0.1c0.4,0,0.7-0.3,0.8-0.7c0.3-2,2.1-3.6,4.2-3.6h2.9c0.5,0,1,0.4,1,1v3.4c0,2.1-1.7,3.8-3.8,3.8h-10.2
			C164.5-100.1,162.8-101.8,162.8-103.9z M177-98v0.9c0,0.3-0.2,0.5-0.5,0.5H167c-0.3,0-0.5-0.2-0.5-0.5V-98c0-0.3,0.2-0.5,0.5-0.5
			h9.4C176.7-98.6,177-98.3,177-98z M185.7-77.5c-4.4,1.5-9,2.2-13.7,2.2c-4.9,0-9.7-0.8-14.3-2.5c-0.1,0-0.2-0.2-0.1-0.3l8.2-16.4
			c0.2-0.4,0.7-0.7,1.1-0.7h9.5c0.5,0,0.9,0.3,1.1,0.7l8.2,16.6C185.9-77.7,185.8-77.5,185.7-77.5z"/>
	</g>
</g>
<g>
	<path d="M113.3-27.5L111.2-50c-0.2-1.8-1.6-3.1-3.4-3.1h-2.3c0,0,0-0.1,0-0.1c0-0.1,0-0.2,0-0.3c0-4.1-3.4-7.5-7.5-7.5
		c-4.1,0-7.5,3.4-7.5,7.5c0,0.1,0,0.2,0,0.3c0,0,0,0.1,0,0.1h-2.4c-1.8,0-3.3,1.3-3.4,3.1l-1.9,22.5c-0.1,1.3,0.3,2.7,1.3,3.7
		c0.9,1,2.2,1.6,3.6,1.6h20.8c1.4,0,2.7-0.6,3.6-1.6C113-24.8,113.4-26.1,113.3-27.5z M98.1-59.5c3.3,0,6,2.7,6,6c0,0.1,0,0.3,0,0.4
		h-12c0-0.1,0-0.3,0-0.4C92-56.8,94.7-59.5,98.1-59.5z M111-24.8c-0.6,0.7-1.5,1.1-2.5,1.1H87.7c-0.9,0-1.8-0.4-2.5-1.1
		c-0.6-0.7-1-1.6-0.9-2.5l1.9-22.5c0.1-1,0.9-1.8,1.9-1.8h2.3v4.9c0,0.4,0.3,0.7,0.7,0.7s0.7-0.3,0.7-0.7v-4.9h12v4.9
		c0,0.4,0.3,0.7,0.7,0.7c0.4,0,0.7-0.3,0.7-0.7v-4.9h2.3c1,0,1.8,0.8,1.9,1.8l2.1,22.5C111.9-26.4,111.6-25.5,111-24.8z"/>
</g>
<g>
	<g>
		<g>
			<path d="M32,2.1H4.4c-2.3,0-4.1,1.9-4.1,4.1v27.6c0,2.3,1.9,4.1,4.1,4.1h16.4c0.6,0,1.2-0.5,1.2-1.2v-0.5c0-0.6-0.5-1.2-1.2-1.2
				H20c-0.2,0-0.3-0.1-0.3-0.3V22c0-0.3,0.2-0.5,0.5-0.5h12.7c0.2,0,0.3,0.1,0.3,0.3v0.7c0,0.7,0.6,1.2,1.2,1.2h0.4
				c0.7,0,1.2-0.6,1.2-1.2V6.2C36.1,3.9,34.3,2.1,32,2.1z M16.8,34.7c0,0.2-0.2,0.3-0.3,0.3H4.9c-1,0-1.7-0.8-1.7-1.7V21.8
				c0-0.2,0.1-0.3,0.3-0.3h12.7c0.3,0,0.5,0.2,0.5,0.5V34.7z M16.8,18c0,0.3-0.2,0.5-0.5,0.5H3.5c-0.2,0-0.3-0.2-0.3-0.3V6.7
				C3.2,5.7,4,5,4.9,5h11.5c0.2,0,0.3,0.1,0.3,0.3V18z M33.3,18.2c0,0.2-0.1,0.3-0.3,0.3H20.2c-0.3,0-0.5-0.2-0.5-0.5V5.3
				C19.7,5.1,19.8,5,20,5h11.5c1,0,1.7,0.8,1.7,1.7V18.2z"/>
		</g>
	</g>
	<g>
		<path d="M30.8,37.8c-0.4,0-0.9-0.2-1.2-0.5l-7.2-7.2c-0.7-0.7-0.7-1.7,0-2.4c0.7-0.7,1.7-0.7,2.4,0l6,6l6-6c0.7-0.7,1.7-0.7,2.4,0
			c0.7,0.7,0.7,1.7,0,2.4L32,37.3C31.7,37.6,31.3,37.8,30.8,37.8z"/>
	</g>
</g>
</svg>
