<?xml version="1.0" encoding="utf-8"?>
<!-- Generator: Adobe Illustrator 25.2.0, SVG Export Plug-In . SVG Version: 6.00 Build 0)  -->
<svg version="1.1" id="Layer_1" xmlns="http://www.w3.org/2000/svg" xmlns:xlink="http://www.w3.org/1999/xlink" x="0px" y="0px"
	 viewBox="0 0 40 40" style="enable-background:new 0 0 40 40;" xml:space="preserve">
<path d="M528.9,30.5c-0.2,0.3-0.3,0.6-0.5,0.8c-0.5,0.7-0.9,1.4-1.5,2.1c-0.1,0.2-0.4,0.4-0.6,0.4c-1.6,0.3-3.2,0.3-4.8,0.2
	c-2.6-0.2-5.2-0.7-7.6-1.7c-1.3-0.5-2.5-1.1-3.7-1.8c-6.9-4.4-13.8-8.8-20.8-13.2c-0.6-0.4-0.7-0.7-0.2-1.2
	c2.9-3.7,5.7-7.4,8.6-11.1c0.2-0.2,0.4-0.5,0.7-0.4c0.3,0.1,0.4,0.4,0.5,0.7c0.4,2.5,1.6,4.5,3.5,6.2c0.8,0.8,1.9,1,2.9,1.2
	c2.2,0.3,4.3-0.1,6.4-0.6c0-0.5,0-1.1,0-1.6c0.1-0.7,0.4-1.4,0.9-1.9c0.3-0.3,0.6-0.3,0.9-0.1c0.3,0.2,0.3,0.6,0,0.9
	c-0.9,1.1-0.9,2.2-0.2,3.4c0.5,1,1.1,1.9,1.6,2.9c0.8-0.4,1.1-0.4,1.3,0c0.2,0.3,0.1,0.6-0.6,1.1c0.3,0.4,0.6,0.8,0.9,1.2
	c0.5-0.2,0.9-0.8,1.4-0.2c0.3,0.3,0.1,0.6-0.6,1.1c0.3,0.3,0.5,0.7,0.8,1c0.4-0.2,0.9-0.7,1.3-0.1c0.2,0.3,0.1,0.6-0.5,1
	c0.5,0.5,1,1,1.5,1.5c1.6,1.6,3.3,3.1,5.4,4.1c1.5,0.7,2.6,1.7,3,3.4C528.9,30,528.9,30.2,528.9,30.5z M490.5,16.6
	c0.1,0.1,0.2,0.1,0.3,0.2c6.6,4.2,13.2,8.4,19.8,12.6c0.5,0.3,1,0.6,1.6,0.9c3.1,1.5,6.3,2.3,9.7,2.6c1.3,0.1,2.6,0.1,3.9-0.1
	c0.1,0,0.2-0.1,0.3-0.1c0.3-0.4,0.5-0.8,0.8-1.2c-0.1,0-0.1,0-0.1,0c-1.9,0.1-3.8,0-5.6-0.3c-3.3-0.5-6.4-1.6-9.3-3.3
	c-2.8-1.8-5.6-3.6-8.5-5.3c-0.1-0.1-0.2-0.1-0.3-0.2c-0.2-0.2-0.3-0.4-0.1-0.7c0.2-0.3,0.4-0.4,0.7-0.3c0.1,0,0.3,0.1,0.4,0.2
	c2.9,1.8,5.8,3.7,8.7,5.4c1,0.6,2,1.1,3.1,1.6c2.6,1.1,5.3,1.6,8.1,1.8c1.2,0.1,2.5,0.1,3.7-0.2c0,0,0-0.1,0-0.1c0-0.1,0-0.1,0-0.2
	c-0.1-0.8-0.6-1.4-1.3-1.8c-0.6-0.4-1.3-0.7-1.9-1.1c-2.2-1.2-4-2.9-5.7-4.7c-0.3-0.3-0.6-0.6-0.9-0.9c-0.6,0.3-1.1,0.7-1.6,1
	c-0.3,0.2-0.6,0.1-0.8-0.2c-0.2-0.3-0.1-0.6,0.2-0.8c0.1-0.1,0.3-0.2,0.4-0.3c0.3-0.2,0.7-0.4,1.1-0.7c-0.3-0.4-0.5-0.7-0.8-1
	c-0.1,0.1-0.3,0.2-0.4,0.2c-0.4,0.3-0.9,0.6-1.3,0.8c-0.3,0.2-0.6,0.1-0.8-0.2c-0.2-0.3-0.1-0.6,0.1-0.8c0.1-0.1,0.2-0.2,0.4-0.2
	c0.4-0.3,0.8-0.5,1.3-0.8c-0.3-0.4-0.6-0.8-0.9-1.3c-0.1,0.1-0.3,0.2-0.4,0.2c-0.6,0.3-1.1,0.7-1.7,1c-0.3,0.2-0.6,0.1-0.8-0.2
	c-0.2-0.3-0.1-0.6,0.2-0.8c0.3-0.2,0.5-0.3,0.8-0.5c0.4-0.2,0.8-0.5,1.2-0.7c-0.5-0.9-1-1.8-1.5-2.7c-0.2-0.3-0.3-0.3-0.6-0.3
	c-2.1,0.5-4.2,0.9-6.4,0.6c-1.5-0.2-2.9-0.6-4.1-1.7c-1.4-1.4-2.6-3.1-3.2-5c0-0.1-0.1-0.3-0.2-0.5c-1.9,2.5-3.8,4.9-5.7,7.4
	c1.7,1.1,3.3,2.2,5,3.2c0.8-1.6,1-3.3,0.5-5c-0.2-0.8-0.7-1.6-1.2-2.3c-0.3-0.4-0.2-0.7,0.1-0.9c0.3-0.2,0.6-0.1,0.9,0.3
	c1.6,2.2,2.1,4.6,1.3,7.2c-0.1,0.5-0.4,0.9-0.5,1.4c0.9,0.6,1.9,1.2,2.8,1.8c0.2,0.1,0.4,0.2,0.6,0.4c0.3,0.2,0.3,0.5,0.1,0.8
	c-0.2,0.3-0.5,0.3-0.7,0.2c-0.1-0.1-0.2-0.1-0.4-0.2c-2.9-1.9-5.8-3.8-8.8-5.6c-0.1-0.1-0.3-0.2-0.4-0.3
	C491.4,15.5,491,16,490.5,16.6z"/>
<g>
	<path d="M688.9,19.5c-0.2,0-0.6,0-0.9,0c-0.5,0-0.7-0.2-0.8-0.7c0-0.8,0-1.7,0-2.5c0-0.5,0.3-0.7,0.7-0.7c0.8,0,1.7,0,2.5,0
		c0.2,0,0.3,0.1,0.5,0.1c0.9,0.4,1.8,0.7,2.7,1.1c0.7,0.3,0.7,0.3,0.7,1.1c0,0.1,0,0.2,0,0.3c0.5,0,0.9,0,1.4,0
		c-0.1-1-0.2-1.9-0.3-2.9c-0.1-1.4-0.3-2.8-0.4-4.2c-0.1-0.5,0.2-0.8,0.8-0.8c1.1,0,2.2,0,3.3,0c0.6,0,0.6,0,0.6-0.6
		c0-1.6,0-3.1,0.5-4.6c1.5-5.1,6.5-8.5,11.8-7.9c5.7,0.6,10,5.3,10.1,11.1c0,0.5,0,1,0,1.6c0,0.4,0.1,0.5,0.5,0.5c1.1,0,2.1,0,3.2,0
		c0.7,0,1,0.3,0.9,1c-0.4,3.3-0.7,6.6-1.1,10c0,0.3,0,0.5,0.3,0.6c0.2,0.1,0.3,0.2,0.4,0.3c0.3,0.2,0.4,0.5,0.4,0.8
		c0,4.3,0,8.6,0,12.9c0,0.6-0.2,0.8-0.8,0.8c-11.7,0-23.4,0-35.1,0c-2,0-3.4-1.5-3.3-3.5c0.2-2.8,0.4-5.6,0.6-8.5
		c0.1-1.1,0.1-2.3,0.3-3.4C688.5,20.7,688.8,20.1,688.9,19.5z M710.5,30c0-0.5-0.1-1-0.1-1.5c-0.2-2.4-0.4-4.7-0.6-7.1
		c-0.1-1.2-0.9-1.9-2.1-1.9c-1.6,0-3.3,0-4.9,0c-0.1,0-0.3,0-0.4,0c0,0.7,0,1.2,0,1.8c0,0.6-0.2,0.8-0.8,0.8c-1.2,0-2.4,0-3.6,0
		c-0.6,0-0.8-0.2-0.8-0.8c0-0.6,0-1.2,0-1.8c-0.1,0-0.1,0-0.2,0c-1.8,0-3.6,0-5.3,0c-1,0-1.8,0.8-1.9,1.8c-0.2,2.1-0.3,4.1-0.5,6.2
		c-0.1,0.9-0.1,1.7-0.2,2.6C696.3,30,703.4,30,710.5,30z M715,35.3c0-0.2,0-0.4,0-0.5c0-3.9,0-7.8,0-11.7c0-0.4,0.1-0.7,0.4-0.9
		c1-0.8,2-1.6,3-2.4c0.2-0.2,0.5-0.3,0.8-0.3c1.2,0,2.3,0,3.5,0c0.3,0,0.6,0.1,0.8,0.3c0.4,0.2,0.7,0.5,1,0.8c0.3-3.1,0.6-6,0.9-9
		c-0.9,0-1.7,0-2.6,0c0,0.2,0,0.3,0,0.5c0,1.3,0,2.6,0,4c0,0.6-0.2,0.8-0.8,0.8c-1.2,0-2.4,0-3.7,0c-0.6,0-0.8-0.2-0.8-0.8
		c0-1.3,0-2.7,0-4c0-0.1,0-0.3,0-0.4c-4.4,0-8.8,0-13.2,0c0,1.5,0,3,0,4.4c0,0.6-0.2,0.8-0.8,0.8c-1.2,0-2.4,0-3.7,0
		c-0.6,0-0.8-0.2-0.8-0.8c0-0.6,0-1.2,0-1.8c0-0.9,0-1.8,0-2.7c-0.9,0-1.7,0-2.6,0c0.2,2.2,0.5,4.4,0.7,6.6c0.2,0,0.3,0,0.5,0
		c3.4,0,6.7,0,10.1,0c1.5,0,2.8,0.9,3.2,2.3c0.1,0.4,0.2,0.9,0.2,1.4c0.2,3.1,0.5,6.2,0.7,9.4c0.1,1.4,0.5,2.8-0.5,4.1
		C712.7,35.3,713.8,35.3,715,35.3z M711,10.2c1.2,0,2.4,0,3.6,0c1.1,0,2.2,0,3.2,0c0.2,0,0.4,0,0.4-0.3c0-0.9,0-1.7-0.1-2.6
		c-0.4-3.4-3.2-6-6.6-6.3c-3.3-0.3-6.5,1.9-7.5,5.1c-0.2,0.7-0.3,1.5-0.3,2.3c0,0.6,0,1.2,0.1,1.7c0.6,0,1.1,0.1,1.7,0.1
		C707.4,10.2,709.2,10.2,711,10.2z M725.5,35.3c0-0.1,0-0.1,0-0.2c0-3.9,0-7.8,0-11.8c0-0.1-0.1-0.3-0.2-0.4c-0.8-0.7-1.6-1.3-2.4-2
		c-0.1-0.1-0.3-0.2-0.5-0.2c-1,0-1.9,0-2.9,0c-0.2,0-0.4,0.1-0.6,0.2c-0.8,0.6-1.5,1.2-2.3,1.8c-0.2,0.2-0.3,0.4-0.3,0.7
		c0,3.8,0,7.6,0,11.4c0,0.1,0,0.3,0,0.4C719.4,35.3,722.4,35.3,725.5,35.3z M689,31.4c0,0.6,0,1.1-0.1,1.6c-0.2,1.4,0.8,2.4,2.3,2.4
		c5.8,0,11.6,0,17.4,0c0.2,0,0.3,0,0.5,0c0.9-0.1,1.7-0.8,1.8-1.6c0.1-0.8,0-1.5-0.1-2.3C703.4,31.4,696.2,31.4,689,31.4z
		 M702.5,9.2c-0.2-2.5,0.5-4.7,2.1-6.5c1.6-1.9,3.7-2.9,6.2-2.9c2.1-0.1,4,0.6,5.7,1.9c2.3,1.9,3.3,4.5,3.1,7.6
		c0.5-0.4,0.9-0.4,1.3-0.1c0.4-4-1.7-7.9-5.3-9.7c-3.5-1.8-7.8-1.4-10.9,1.2c-2.8,2.3-3.8,5.9-3.4,8.5
		C701.7,8.9,701.7,8.9,702.5,9.2z M703.1,15.5c0-1.4,0-2.7,0-4c0-0.1-0.1-0.3-0.2-0.4c-1.1-0.8-1.1-0.8-2.2,0
		c-0.1,0.1-0.2,0.3-0.2,0.5c0,1.2,0,2.4,0,3.6c0,0.1,0,0.2,0,0.3C701.4,15.5,702.2,15.5,703.1,15.5z M721.6,15.5
		c0-1.1-0.1-2.2,0-3.3c0-0.7-0.2-1.1-0.8-1.5c-0.4-0.2-0.7-0.2-1.1,0c-0.6,0.4-0.9,0.8-0.8,1.5c0.1,1.1,0,2.2,0,3.3
		C719.8,15.5,720.6,15.5,721.6,15.5z M688.6,18.1c1.6,0,3.1,0,4.6,0c0-0.1,0-0.1,0.1-0.2c-0.5-0.2-1-0.4-1.5-0.6
		c-0.5-0.2-1-0.4-1.5-0.5c-0.5-0.1-1.1,0-1.6,0C688.6,17.3,688.6,17.7,688.6,18.1z M701.1,20.8c0-0.4,0-0.9,0-1.3
		c-0.9,0-1.7,0-2.6,0c0,0.4,0,0.9,0,1.3C699.4,20.8,700.3,20.8,701.1,20.8z"/>
	<path d="M711,16.8c-0.6,0-1.2,0-1.8,0c-0.5,0-0.8-0.2-0.8-0.8c0-0.8,0-1.6,0-2.4c0-0.5,0.3-0.8,0.8-0.8c1.2,0,2.5,0,3.7,0
		c0.5,0,0.7,0.3,0.8,0.8c0,0.8,0,1.6,0,2.4c0,0.5-0.3,0.7-0.8,0.8C712.2,16.8,711.6,16.8,711,16.8z M709.7,15.5c0.9,0,1.7,0,2.6,0
		c0-0.4,0-0.9,0-1.3c-0.9,0-1.7,0-2.6,0C709.7,14.7,709.7,15.1,709.7,15.5z"/>
	<path d="M722.9,30.7c0,0.8-0.3,1.4-1,1.7c-0.3,0.2-0.4,0.3-0.3,0.6c0,0.1,0,0.2,0,0.4c0,0.4-0.3,0.6-0.6,0.6
		c-0.3,0-0.7-0.3-0.6-0.6c0-0.6-0.1-0.9-0.6-1.2c-0.5-0.3-0.7-0.8-0.7-1.3c0-0.4,0.2-0.8,0.6-0.8c0.4,0,0.6,0.2,0.7,0.6
		c0.1,0.5,0.4,0.8,0.8,0.7c0.3-0.1,0.6-0.4,0.5-0.7c-0.1-0.4-0.3-0.6-0.7-0.6c-1-0.1-1.6-0.6-1.9-1.4c-0.3-0.9,0.1-1.8,0.9-2.3
		c0.3-0.1,0.3-0.3,0.3-0.5c0-0.1,0-0.3,0-0.4c0-0.4,0.3-0.6,0.6-0.6c0.3,0,0.7,0.2,0.7,0.6c0,0.6,0.1,0.9,0.6,1.2
		c0.5,0.3,0.7,0.8,0.7,1.3c0,0.4-0.2,0.8-0.6,0.8c-0.4,0-0.6-0.2-0.7-0.6c-0.1-0.5-0.4-0.8-0.8-0.7c-0.3,0.1-0.6,0.4-0.5,0.7
		c0.1,0.4,0.3,0.6,0.7,0.6c1,0.1,1.7,0.7,1.9,1.6C722.9,30.4,722.9,30.6,722.9,30.7z"/>
	<path d="M721.5,22.8c0,0.4-0.3,0.6-0.7,0.6c-0.4,0-0.6-0.3-0.6-0.7c0-0.4,0.3-0.6,0.7-0.6C721.3,22.1,721.6,22.4,721.5,22.8z"/>
</g>
<g>
	<path d="M0.3,4.1v31.8c0,2.1,1.7,3.9,3.9,3.9h31.8c2.1,0,3.9-1.7,3.9-3.9V4.1c0-2.1-1.7-3.9-3.9-3.9H4.1C2,0.3,0.3,2,0.3,4.1z
		 M4.7,1.7H18c0.7,0,1.3,0.6,1.3,1.3v14.7c0,0.8-0.7,1.5-1.5,1.5H3c-0.7,0-1.3-0.6-1.3-1.3V4.7C1.7,3,3,1.7,4.7,1.7z M3,20.7h14.7
		c0.8,0,1.5,0.7,1.5,1.5V37c0,0.7-0.6,1.3-1.3,1.3H4.7c-1.6,0-2.9-1.3-2.9-2.9V22C1.7,21.3,2.3,20.7,3,20.7z M35.3,38.3H22
		c-0.7,0-1.3-0.6-1.3-1.3V22.3c0-0.8,0.7-1.5,1.5-1.5H37c0.7,0,1.3,0.6,1.3,1.3v13.3C38.3,37,37,38.3,35.3,38.3z M37,19.3H22.3
		c-0.8,0-1.5-0.7-1.5-1.5V3c0-0.7,0.6-1.3,1.3-1.3h13.3c1.6,0,2.9,1.3,2.9,2.9V18C38.3,18.7,37.7,19.3,37,19.3z"/>
</g>
<g>
	<g>
		<g>
			<path d="M141.2,22.5c-0.6-2.8-1-5.6-1.4-8.4c-0.4-2.7-1-5.5-1.3-8.2c-0.1-1-0.3-1.9-0.9-2.7c-0.9-1.1-2.3-1.9-3.7-1.9
				c0,0-12.8,0-12.8,0c-1.1,0-2.3,0.5-3.1,1.3c-1,0.8-1.4,1.9-1.5,3.2c-0.2,1.7-0.5,3.4-0.7,5.1c-0.4,2.3-0.7,4.6-1.1,6.9
				c-0.3,1.6-0.5,3.2-0.8,4.9l-2.1-1.3c-1.3-0.8-3,0.2-3,1.7v3.1c0,1.1,0.6,2.1,1.5,2.6l4.3,2.5c1,0.6,2.1,0.9,3.2,0.9h18.8
				c1.1,0,2.2-0.3,3.2-0.9c1.3-0.8,2.6-1.5,4-2.2c0.5-0.3,1-0.6,1.6-1c0.5-0.3,0.8-0.7,1-1.3c0.2-0.6,0.3-1.2,0.3-1.9
				c0-0.6,0-1.3,0-1.9c0-1.5-1.7-2.5-3-1.7L141.2,22.5z M115.7,20.2c0.3-1.6,0.6-3.8,1.1-6.5c0.5-3.2,1-6.4,1.3-8.1
				c0.1-0.7,0.4-1.4,0.9-1.9l0,0c0.6-0.6,1.5-1,2.4-1l12.3,0c0.9,0,1.7,0.4,2.4,1l0,0c0.5,0.5,0.8,1.2,0.9,1.9
				c0.3,1.7,0.8,4.9,1.3,8.1c0.4,2.7,0.8,5,1.1,6.5c0.1,0.7,0.2,1.2,0.3,1.6c0.2,0.8-0.2,1.7-1,2.1l-1.7,1c-0.3,0.2-0.7,0.3-1.1,0.3
				h-16.8c-0.4,0-0.7-0.1-1.1-0.3l-1.7-1c-0.7-0.4-1.1-1.3-1-2.1C115.5,21.5,115.6,20.9,115.7,20.2z M143.9,26.9l-4.7,2.8
				c-1,0.6-2.2,0.9-3.3,0.9h-17.8c-1.2,0-2.3-0.3-3.3-0.9l-3.6-2.2c-0.6-0.4-1-1-1-1.7v-2.9c0-0.4,0.4-0.6,0.7-0.4l4.7,2.8l1.1,0.6
				c0.9,0.5,2,0.8,3,0.8h15.5c1.1,0,2.1-0.3,3-0.8l1.1-0.6l4.7-2.8c0.3-0.2,0.7,0,0.7,0.4v2.3C144.9,25.9,144.5,26.5,143.9,26.9z"/>
		</g>
	</g>
	<path d="M137.1,37.3h-1.6c-0.9,0-1.7-0.3-2.4-0.9l-2.1-1.8c-0.5-0.4-1.1-0.6-1.7-0.6c-0.5,0-1,0.2-1.3,0.6l-0.4,0.4l-0.4-0.4
		c-0.4-0.4-0.8-0.6-1.3-0.6c-0.6,0-1.2,0.2-1.7,0.6l-2.1,1.8c-0.7,0.6-1.5,0.9-2.4,0.9H118c-0.3,0-0.4,0.4-0.2,0.6l2.8,1.8
		c1,0.7,2.2,1,3.3,1c1,0,1.9-0.2,2.8-0.7l0.8-0.4l0.8,0.4c0.9,0.5,1.9,0.7,2.8,0.7c1.2,0,2.3-0.3,3.3-1l2.8-1.8
		C137.5,37.8,137.4,37.3,137.1,37.3z M126.7,37.6c0,0.4-0.2,0.8-0.6,1h0c-0.5,0.3-1.1,0.5-1.7,0.5c-1.1,0.1-2.2-0.1-3.1-0.7
		c0.6-0.2,1.1-0.5,1.5-0.9l2.1-1.8c0,0,0,0,0,0c0.4-0.3,0.9-0.3,1.3,0.1l0.1,0.1c0.2,0.2,0.3,0.5,0.3,0.8V37.6z M130.6,39.2
		c-0.6-0.1-1.1-0.3-1.7-0.5l0,0c-0.4-0.2-0.6-0.6-0.6-1v-1c0-0.3,0.1-0.6,0.3-0.8l0.1-0.1c0.3-0.3,0.9-0.4,1.3-0.1c0,0,0,0,0,0
		l2.1,1.8c0.5,0.4,1,0.7,1.5,0.9C132.7,39.1,131.7,39.3,130.6,39.2z"/>
</g>
<g>
	<path d="M247.4,0.6c-0.7-0.6-1.5-0.9-2.4-0.9c-0.7,0-0.9,0-1.6,0.2c-0.3,0.1-0.8,0.3-1,0.5c-0.3,0.3-0.5,0.6-0.6,1
		c-0.1,0.5-0.2,0.7-0.5,1.1c-0.5,0.7-1.2,1.2-2,1.4c-0.3,0.1-0.6,0.1-0.9,0.1c-0.3,0-0.6,0-0.9-0.1c-0.8-0.2-1.6-0.7-2.1-1.5
		c-0.5-0.8-0.4-1.6-1.1-2.2c-0.7-0.6-1.7-0.6-2.5-0.6c-0.9,0-1.7,0.3-2.4,0.9L216.6,11c-0.9,0.7-1.3,1.9-0.9,3.1l2,6.5
		c0.5,1.7,2.6,2.5,4.1,1.6l4.1-2.4v16.8c0,1.5,1.2,2.6,2.6,2.6h19.7c1.5,0,2.6-1.2,2.6-2.6V19.7l4.4,2.6c1.4,0.8,3.3,0.1,3.7-1.4
		l2.2-7c0.3-1,0-2.1-0.8-2.8L247.4,0.6z M255.4,20.3l-4.9-2.9c-0.5-0.3-1.2,0.1-1.2,0.7V36c0,0.8-0.7,1.5-1.5,1.5h-18.4
		c-0.8,0-1.5-0.7-1.5-1.5V18.1c0-0.6-0.7-1-1.2-0.7l-5.3,3.1c-0.7,0.4-1.6,0.1-1.8-0.7l-1.9-6.2c-0.2-0.5,0-1,0.4-1.4l12.9-10.4
		c0.3-0.2,0.7-0.4,1-0.4l0.7,0c0.5,0,0.9,0.3,1.1,0.8c0.4,1.2,1.2,2.1,2.2,2.8c0.7,0.5,1.6,0.7,2.4,0.7h0.9c0.9,0,1.7-0.2,2.4-0.7
		c1-0.7,1.8-1.6,2.2-2.8c0.2-0.5,0.6-0.8,1.1-0.8l0.7,0c0.4,0,0.7,0.1,1,0.4l12.7,10.3c0.5,0.4,0.7,1.1,0.5,1.7l-1.8,5.6
		C257.4,20.4,256.3,20.9,255.4,20.3z"/>
</g>
<g>
	<path d="M341.6,1.2h-25.5c-0.8,0-1.5,0.6-1.6,1.4l-5.2,35.7c-0.2,1.3,0.8,2.5,2.1,2.5h9.3c1,0,1.8-0.7,2.1-1.6l6.1-23.4
		c0-0.1,0.2-0.1,0.2,0l6.1,23.4c0.2,0.9,1.1,1.6,2.1,1.6h9.1c1.3,0,2.3-1.2,2.1-2.5l-5.1-35.7C343.2,1.8,342.5,1.2,341.6,1.2z
		 M342.5,7.7c0,0.2-0.1,0.4-0.4,0.4c-0.9,0-2.3-0.1-3.2-0.9c-0.4-0.3-0.7-0.7-0.8-1.1c-0.1-0.2,0.1-0.5,0.4-0.5l3.4,0
		c0.2,0,0.3,0.1,0.4,0.3L342.5,7.7z M315.8,5.6l3.4,0c0.3,0,0.4,0.3,0.4,0.5c-0.2,0.5-0.4,0.8-0.8,1.1c-1,0.8-2.4,0.9-3.2,0.9
		c-0.2,0-0.4-0.2-0.4-0.4l0.3-1.8C315.5,5.8,315.6,5.6,315.8,5.6z M320.3,39.3h-8.5c-0.7,0-1.2-0.6-1.1-1.2l4.2-28.4
		c0.1,0,0.4,0,0.7,0c1,0,2.8-0.2,4-1.2c0.9-0.7,1.4-1.6,1.5-2.8h6.1c0.4,0,0.7,0.3,0.7,0.7v6h0l-6.8,26.1
		C321.2,38.9,320.8,39.3,320.3,39.3z M315.8,3.6l0.1-0.6c0-0.2,0.2-0.4,0.5-0.4h25.1c0.2,0,0.4,0.2,0.5,0.4l0.1,0.6
		c0,0.3-0.2,0.5-0.5,0.5h-25.2C316,4.2,315.8,3.9,315.8,3.6z M329.6,10.5V6.4c0-0.4,0.3-0.7,0.7-0.7h6.2c0.2,1.2,0.7,2.1,1.5,2.8
		c1.3,1,3,1.2,4,1.2c0.3,0,0.6,0,0.7,0l4.1,28.4c0.1,0.6-0.4,1.2-1.1,1.2h-8.4c-0.5,0-0.9-0.3-1-0.8L330,13.6
		C329.7,12.6,329.6,11.6,329.6,10.5z"/>
</g>
<g>
	<g>
		<path d="M434.5,36l-0.3-0.5l-8.5-17c-0.5-1-0.7-2-0.7-3.1v-0.7c0-0.4,0.2-0.7,0.5-0.8c1.9-0.9,3.3-2.8,3.3-5v-6h-3.9
			c-0.2,0-0.4-0.2-0.4-0.4v-2.6c0-0.4-0.3-0.8-0.7-0.8c-0.2,0-0.5,0.1-0.6,0.2c-0.1,0.1-0.2,0.3-0.2,0.5v2.6c0,0.3-0.2,0.5-0.5,0.5
			c-1.9,0.2-3.5,1.4-4.4,3c-0.9-1.6-2.5-2.7-4.4-3c-0.3,0-0.5-0.3-0.5-0.5v-2.5c0-0.4-0.3-0.8-0.7-0.8c-0.2,0-0.4,0.1-0.6,0.2
			c-0.1,0.1-0.2,0.3-0.2,0.5v2.6c0,0.2-0.2,0.4-0.4,0.4h-3.9v6c0,2.2,1.3,4.2,3.3,5c0.3,0.1,0.5,0.5,0.5,0.8v0.7
			c0,1.1-0.3,2.1-0.7,3.1l-8.4,16.8l-0.3,0.6c-0.2,0.4,0,0.8,0.3,1c0.2,0.1,0.5,0.2,0.7,0.3c4.9,1.8,10.2,2.8,15.7,2.8
			c5.3,0,10.3-0.9,15-2.5l0.7-0.2C434.5,37,434.7,36.4,434.5,36z M408.8,8.8V5.3c0-0.6,0.5-1,1-1h3c2.2,0,4,1.6,4.4,3.7
			c0.1,0.4,0.4,0.7,0.8,0.7h0.1c0.4,0,0.7-0.3,0.8-0.7c0.4-2.1,2.2-3.7,4.4-3.7h3c0.6,0,1,0.5,1,1v3.5c0,2.2-1.8,4-4,4h-10.5
			C410.6,12.8,408.8,11,408.8,8.8z M423.4,14.8v1c0,0.3-0.2,0.5-0.5,0.5h-9.8c-0.3,0-0.5-0.2-0.5-0.5v-1c0-0.3,0.2-0.5,0.5-0.5h9.8
			C423.2,14.3,423.4,14.6,423.4,14.8z M432.5,36.1c-4.5,1.5-9.3,2.3-14.1,2.3c-5.1,0-10-0.9-14.8-2.5c-0.1,0-0.2-0.2-0.1-0.3
			l8.5-16.9c0.2-0.4,0.7-0.7,1.2-0.7h9.8c0.5,0,1,0.3,1.2,0.7l8.5,17.2C432.7,35.9,432.6,36.1,432.5,36.1z"/>
	</g>
</g>
<g>
	<path d="M634.6,32l-2.1-22.5c-0.2-1.8-1.6-3.1-3.4-3.1h-2.3c0,0,0-0.1,0-0.1c0-0.1,0-0.2,0-0.3c0-4.1-3.4-7.5-7.5-7.5
		c-4.1,0-7.5,3.4-7.5,7.5c0,0.1,0,0.2,0,0.3c0,0,0,0.1,0,0.1h-2.4c-1.8,0-3.3,1.3-3.4,3.1L604.2,32c-0.1,1.3,0.3,2.7,1.3,3.7
		c0.9,1,2.2,1.6,3.6,1.6h20.8c1.4,0,2.7-0.6,3.6-1.6C634.3,34.7,634.7,33.3,634.6,32z M619.3-0.1c3.3,0,6,2.7,6,6c0,0.1,0,0.3,0,0.4
		h-12c0-0.1,0-0.3,0-0.4C613.3,2.6,616-0.1,619.3-0.1z M632.3,34.7c-0.6,0.7-1.5,1.1-2.5,1.1H609c-0.9,0-1.8-0.4-2.5-1.1
		c-0.6-0.7-1-1.6-0.9-2.5l1.9-22.5c0.1-1,0.9-1.8,1.9-1.8h2.3v4.9c0,0.4,0.3,0.7,0.7,0.7c0.4,0,0.7-0.3,0.7-0.7V7.9h12v4.9
		c0,0.4,0.3,0.7,0.7,0.7c0.4,0,0.7-0.3,0.7-0.7V7.9h2.3c1,0,1.8,0.8,1.9,1.8l2.1,22.5C633.2,33.1,632.9,34,632.3,34.7z"/>
</g>
<g>
	<g>
		<g>
			<path d="M46.2-51.6H11.9c-2.8,0-5.2,2.3-5.2,5.2v34.3C6.7-9.3,9-7,11.9-7h20.4c0.8,0,1.5-0.7,1.5-1.5v-0.7c0-0.8-0.7-1.5-1.5-1.5
				h-1c-0.2,0-0.4-0.2-0.4-0.4v-15.9c0-0.4,0.3-0.7,0.7-0.7h15.9c0.2,0,0.4,0.2,0.4,0.4v0.9c0,0.8,0.7,1.5,1.5,1.5h0.5
				c0.8,0,1.5-0.7,1.5-1.5v-20.3C51.4-49.3,49.1-51.6,46.2-51.6z M27.2-11c0,0.2-0.2,0.4-0.4,0.4H12.5c-1.2,0-2.2-1-2.2-2.2v-14.4
				c0-0.2,0.2-0.4,0.4-0.4h15.9c0.4,0,0.7,0.3,0.7,0.7V-11z M27.2-31.8c0,0.4-0.3,0.7-0.7,0.7H10.7c-0.2,0-0.4-0.2-0.4-0.4v-14.4
				c0-1.2,1-2.2,2.2-2.2h14.4c0.2,0,0.4,0.2,0.4,0.4V-31.8z M47.8-31.5c0,0.2-0.2,0.4-0.4,0.4H31.5c-0.4,0-0.7-0.3-0.7-0.7v-15.9
				c0-0.2,0.2-0.4,0.4-0.4h14.4c1.2,0,2.2,1,2.2,2.2V-31.5z"/>
		</g>
	</g>
	<g>
		<path d="M44.8-7.2c-0.6,0-1.1-0.2-1.5-0.6l-8.9-8.9c-0.8-0.8-0.8-2.1,0-3c0.8-0.8,2.1-0.8,3,0l7.4,7.4l7.5-7.5
			c0.8-0.8,2.1-0.8,3,0c0.8,0.8,0.8,2.1,0,3l-9,9C45.8-7.4,45.3-7.2,44.8-7.2z"/>
	</g>
</g>
</svg>
