<?xml version="1.0" encoding="utf-8"?>
<!-- Generator: Adobe Illustrator 25.2.0, SVG Export Plug-In . SVG Version: 6.00 Build 0)  -->
<svg version="1.1" id="Layer_1" xmlns="http://www.w3.org/2000/svg" xmlns:xlink="http://www.w3.org/1999/xlink" x="0px" y="0px"
	 viewBox="0 0 60.03 60.03" style="enable-background:new 0 0 60.03 60.03;" xml:space="preserve">
<g>
	<path d="M56.37,49.59L30.73,23.96l-6.78,6.78l25.64,25.64c0.93,0.93,2.16,1.4,3.39,1.4c1.22,0,2.46-0.47,3.39-1.4
		C58.24,54.5,58.24,51.46,56.37,49.59z M10.43,3.66C9.5,2.73,8.27,2.26,7.05,2.26c-1.64,0-3.3,0.86-4.22,2.52
		c-0.96,1.73-0.45,4.38,0.95,5.78l10.02,10.02c1.87,1.87,4.9,1.87,6.78,0l0,0c1.87-1.87,1.87-4.9,0-6.78L10.43,3.66z"/>
	<path d="M3.66,49.59L49.59,3.66c1.87-1.87,4.91-1.87,6.78,0l0,0c1.87,1.87,1.87,4.91,0,6.78L10.44,56.37
		c-1.87,1.87-4.91,1.87-6.78,0l0,0C1.79,54.5,1.79,51.46,3.66,49.59z"/>
</g>
</svg>
