<?xml version="1.0" encoding="utf-8"?>
<!-- Generator: Adobe Illustrator 25.2.0, SVG Export Plug-In . SVG Version: 6.00 Build 0)  -->
<svg version="1.1" id="Layer_1" xmlns="http://www.w3.org/2000/svg" xmlns:xlink="http://www.w3.org/1999/xlink" x="0px" y="0px"
	 viewBox="0 0 35.4 48" style="enable-background:new 0 0 35.4 48;" xml:space="preserve">
<style type="text/css">
	.st0{fill:#FFFFFF;}
	.st1{fill:#FFB000;}
</style>
<g>
	<g>
		<rect x="0.6" y="0.6" class="st0" width="34.3" height="46.8"/>
		<path class="st1" d="M34.3,1.2v45.7H1.2V1.2H34.3 M35.4,0H0v48h35.4V0L35.4,0z"/>
	</g>
	<path class="st1" d="M14.3,7.2c1.8,0,3.5,0,5.3,0c0,0.1,0,0.1,0,0.2c0,4.2,0,8.5,0,12.7v0.1c0,0,0,0,0,0.1l0.1-0.1
		c0.5-0.5,1-1.1,1.5-1.6c0-0.1,0.1-0.1,0.2-0.1c1.9,0,3.9,0,5.8,0h0.1c0,4.7,0,9.5,0,14.2c0.1,0,0.1,0,0.1,0c0.9,0,1.7,0,2.6,0h0.1
		c0,1.4,0,2.7,0,4.1H30c-0.9,0-1.8,0-2.6,0h-0.1v0.1c0,1.1,0,2.2,0,3.4c0,0.2,0,0.4,0,0.6c-1.8,0-3.5,0-5.3,0l0,0c0-1.3,0-2.6,0-4
		v-0.1c-0.3,0-0.6,0-0.9,0s-0.6,0-0.9,0s-0.6,0-0.9,0s-0.6,0-0.9,0s-0.6,0-0.9,0s-0.6,0-0.9,0s-0.6,0-0.9,0c-0.3,0-0.6,0-0.8,0
		c-0.3,0-0.6,0-0.9,0s-0.6,0-0.9,0s-0.6,0-0.9,0c-0.3,0-0.6,0-0.9,0s-0.6,0-0.9,0c-0.3,0-0.6,0-0.9,0c-0.3,0-0.6,0-0.9,0v-0.1
		c0-1.5,0-3.1,0-4.6c0-0.1,0-0.1,0.1-0.2c0.6-0.7,1.2-1.4,1.9-2.1l0.1-0.1c-2,0-3.9,0-5.9,0c0-0.1,0-4.3,0-4.4h0.1
		c2.4,0,4.7,0,7.1,0c0.2,0,0.5,0,0.7-0.1c0.4-0.1,0.7-0.4,0.9-0.8c0-0.1,0-0.1,0.1-0.2c0.1-0.4,0.1-0.7,0.1-1.1c0-5.2,0-10.4,0-15.6
		C14.3,7.3,14.3,7.3,14.3,7.2z M22,23.8L22,23.8c-2.6,2.9-5.2,5.8-7.7,8.8c2.6,0,5.2,0,7.7,0C22,29.7,22,26.8,22,23.8z"/>
	<g>
		<g>
			<g>
				<path class="st1" d="M32.6,6.8c-0.3-0.5-0.6-0.9-1.1-1.2c-0.1-0.1-0.3-0.1-0.4-0.2c0-0.5-0.2-1-0.4-1.4
					c-0.3-0.5-0.6-0.9-1.1-1.2s-1.1-0.4-1.7-0.4h-2.3v6.8h1.9V12h2.3c0.6,0,1.2-0.1,1.7-0.4c0.5-0.3,0.9-0.7,1.1-1.2
					C32.9,9.9,33,9.3,33,8.6S32.9,7.3,32.6,6.8z M30.1,6.3c-0.1,0.5-0.2,1-0.5,1.3S29,8.1,28.5,8.2v-2h1.3C29.9,6.2,30,6.3,30.1,6.3
					z M27.5,8.2h-0.9V3.5h1.3c0.7,0,1.2,0.2,1.6,0.6C29.8,4.4,30,4.8,30,5.2c-0.1,0-0.1,0-0.2,0h-2.3V8.2z M31.4,10.3
					c-0.4,0.4-0.9,0.6-1.6,0.6h-1.3V9.2c0.4-0.1,0.8-0.2,1.1-0.4c0.5-0.3,0.9-0.7,1.1-1.2c0.2-0.3,0.3-0.7,0.3-1
					c0.1,0.1,0.3,0.2,0.4,0.3c0.4,0.4,0.6,1,0.6,1.7S31.8,9.9,31.4,10.3z"/>
			</g>
		</g>
	</g>
</g>
<g>
	<g>
		<rect x="0.6" y="0.6" class="st0" width="34.3" height="46.8"/>
		<path d="M34.3,1.2v45.7H1.2V1.2H34.3 M35.4,0H0v48h35.4V0L35.4,0z"/>
	</g>
	<path d="M14.3,7.2c1.8,0,3.5,0,5.3,0c0,0.1,0,0.1,0,0.2c0,4.2,0,8.5,0,12.7c0,0,0,0.1,0,0.1c0,0,0,0,0,0.1c0,0,0.1-0.1,0.1-0.1
		c0.5-0.5,1-1.1,1.5-1.6c0-0.1,0.1-0.1,0.2-0.1c1.9,0,3.9,0,5.8,0c0,0,0.1,0,0.1,0c0,4.7,0,9.5,0,14.2c0.1,0,0.1,0,0.1,0
		c0.9,0,1.7,0,2.6,0c0,0,0.1,0,0.1,0c0,1.4,0,2.7,0,4.1c0,0-0.1,0-0.1,0c-0.9,0-1.8,0-2.6,0c0,0-0.1,0-0.1,0c0,0,0,0.1,0,0.1
		c0,1.1,0,2.2,0,3.4c0,0.2,0,0.4,0,0.6c-1.8,0-3.5,0-5.3,0c0,0,0,0,0,0c0-1.3,0-2.6,0-4c0,0,0-0.1,0-0.1c-0.3,0-0.6,0-0.9,0
		c-0.3,0-0.6,0-0.9,0c-0.3,0-0.6,0-0.9,0c-0.3,0-0.6,0-0.9,0s-0.6,0-0.9,0c-0.3,0-0.6,0-0.9,0c-0.3,0-0.6,0-0.9,0
		c-0.3,0-0.6,0-0.8,0c-0.3,0-0.6,0-0.9,0s-0.6,0-0.9,0s-0.6,0-0.9,0s-0.6,0-0.9,0s-0.6,0-0.9,0s-0.6,0-0.9,0c-0.3,0-0.6,0-0.9,0
		c0,0,0-0.1,0-0.1c0-1.5,0-3.1,0-4.6c0-0.1,0-0.1,0.1-0.2c0.6-0.7,1.2-1.4,1.9-2.1c0,0,0.1-0.1,0.1-0.1c-2,0-3.9,0-5.9,0
		c0-0.1,0-4.3,0-4.4c0,0,0.1,0,0.1,0c2.4,0,4.7,0,7.1,0c0.2,0,0.5,0,0.7-0.1c0.4-0.1,0.7-0.4,0.9-0.8c0-0.1,0-0.1,0.1-0.2
		c0.1-0.4,0.1-0.7,0.1-1.1c0-5.2,0-10.4,0-15.6C14.3,7.3,14.3,7.3,14.3,7.2z M22,23.8C22,23.8,22,23.8,22,23.8
		c-2.6,2.9-5.2,5.8-7.7,8.8c2.6,0,5.2,0,7.7,0C22,29.7,22,26.8,22,23.8z"/>
	<g>
		<g>
			<path d="M29.5,3c0.5,0.3,0.8,0.6,1.1,1.1C30.9,4.6,31,5.2,31,5.8c0,0.7-0.1,1.2-0.4,1.7C30.4,8,30,8.4,29.5,8.7
				c-0.5,0.3-1,0.4-1.6,0.4h-2.2V2.6h2.2C28.5,2.6,29.1,2.7,29.5,3z M29.6,7.6c0.4-0.4,0.6-1,0.6-1.8c0-0.8-0.2-1.4-0.6-1.8
				c-0.4-0.4-1-0.7-1.7-0.7h-1.5v4.9h1.5C28.7,8.3,29.2,8.1,29.6,7.6z"/>
			<path d="M27.9,9.2h-2.3V2.5h2.3c0.6,0,1.2,0.1,1.7,0.4l0,0c0.5,0.3,0.9,0.7,1.1,1.2c0.3,0.5,0.4,1.1,0.4,1.8S31,7.1,30.7,7.6
				c-0.3,0.5-0.6,0.9-1.1,1.2C29.1,9.1,28.6,9.2,27.9,9.2z M25.8,9h2.1c0.6,0,1.1-0.1,1.6-0.4c0.4-0.3,0.8-0.6,1-1.1
				c0.2-0.5,0.4-1,0.4-1.7s-0.1-1.2-0.4-1.7c-0.2-0.5-0.6-0.8-1-1.1l0,0c-0.4-0.3-1-0.4-1.6-0.4h-2.1V9z M27.9,8.4h-1.6V3.2h1.6
				c0.8,0,1.4,0.2,1.8,0.7c0.4,0.5,0.6,1.1,0.6,1.9c0,0.8-0.2,1.4-0.6,1.9C29.3,8.2,28.7,8.4,27.9,8.4z M26.6,8.2h1.3
				c0.7,0,1.2-0.2,1.6-0.6l0,0c0.4-0.4,0.6-1,0.6-1.7c0-0.7-0.2-1.3-0.6-1.7c-0.4-0.4-0.9-0.6-1.6-0.6h-1.3V8.2z"/>
		</g>
		<g>
			<path d="M31.4,5.7c0.5,0.3,0.8,0.6,1.1,1.1c0.3,0.5,0.4,1.1,0.4,1.7c0,0.7-0.1,1.2-0.4,1.7c-0.3,0.5-0.6,0.9-1.1,1.1
				c-0.5,0.3-1,0.4-1.6,0.4h-2.2V5.3h2.2C30.4,5.3,31,5.5,31.4,5.7z M31.5,10.4c0.4-0.4,0.6-1,0.6-1.8c0-0.8-0.2-1.4-0.6-1.8
				c-0.4-0.4-1-0.7-1.7-0.7h-1.5V11h1.5C30.5,11,31.1,10.8,31.5,10.4z"/>
			<path d="M29.8,12h-2.3V5.2h2.3c0.6,0,1.2,0.1,1.7,0.4h0c0.5,0.3,0.9,0.7,1.1,1.2C32.9,7.3,33,7.9,33,8.6s-0.1,1.3-0.4,1.8
				c-0.3,0.5-0.6,0.9-1.1,1.2C31,11.8,30.5,12,29.8,12z M27.7,11.7h2.1c0.6,0,1.1-0.1,1.6-0.4c0.4-0.3,0.8-0.6,1-1.1
				c0.2-0.5,0.4-1,0.4-1.7s-0.1-1.2-0.4-1.7c-0.2-0.5-0.6-0.8-1-1.1l0,0c-0.4-0.3-1-0.4-1.6-0.4h-2.1V11.7z M29.8,11.2h-1.6V6h1.6
				c0.8,0,1.4,0.2,1.8,0.7c0.4,0.5,0.6,1.1,0.6,1.9c0,0.8-0.2,1.4-0.6,1.9C31.2,10.9,30.6,11.2,29.8,11.2z M28.5,10.9h1.3
				c0.7,0,1.2-0.2,1.6-0.6l0,0c0.4-0.4,0.6-1,0.6-1.7c0-0.7-0.2-1.3-0.6-1.7c-0.4-0.4-0.9-0.6-1.6-0.6h-1.3V10.9z"/>
		</g>
	</g>
</g>
</svg>
