<?xml version="1.0" encoding="utf-8"?>
<!-- Generator: Adobe Illustrator 25.2.0, SVG Export Plug-In . SVG Version: 6.00 Build 0)  -->
<svg version="1.1" id="Layer_1" xmlns="http://www.w3.org/2000/svg" xmlns:xlink="http://www.w3.org/1999/xlink" x="0px" y="0px"
	 viewBox="0 0 35.4 48" style="enable-background:new 0 0 35.4 48;" xml:space="preserve">
<style type="text/css">
	.st0{fill:#FFFFFF;}
	.st1{fill:#FFB000;}
</style>
<g>
	<g>
		<rect x="0.6" y="0.6" class="st0" width="34.3" height="46.8"/>
		<path class="st1" d="M34.3,1.2v45.7H1.2V1.2H34.3 M35.4,0H0v48h35.4V0L35.4,0z"/>
	</g>
	<path class="st1" d="M14.3,7.2c1.8,0,3.5,0,5.3,0c0,0.1,0,0.1,0,0.2c0,4.2,0,8.5,0,12.7c0,0,0,0.1,0,0.1c0,0,0,0,0,0.1
		c0,0,0.1-0.1,0.1-0.1c0.5-0.5,1-1.1,1.5-1.6c0-0.1,0.1-0.1,0.2-0.1c1.9,0,3.9,0,5.8,0c0,0,0.1,0,0.1,0c0,4.7,0,9.5,0,14.2
		c0.1,0,0.1,0,0.1,0c0.9,0,1.7,0,2.6,0c0,0,0.1,0,0.1,0c0,1.4,0,2.7,0,4.1c0,0-0.1,0-0.1,0c-0.9,0-1.8,0-2.6,0c0,0-0.1,0-0.1,0
		c0,0,0,0.1,0,0.1c0,1.1,0,2.2,0,3.4c0,0.2,0,0.4,0,0.6c-1.8,0-3.5,0-5.3,0c0,0,0,0,0,0c0-1.3,0-2.6,0-4c0,0,0-0.1,0-0.1
		c-0.3,0-0.6,0-0.9,0c-0.3,0-0.6,0-0.9,0c-0.3,0-0.6,0-0.9,0c-0.3,0-0.6,0-0.9,0c-0.3,0-0.6,0-0.9,0c-0.3,0-0.6,0-0.9,0
		c-0.3,0-0.6,0-0.9,0c-0.3,0-0.6,0-0.8,0c-0.3,0-0.6,0-0.9,0s-0.6,0-0.9,0s-0.6,0-0.9,0c-0.3,0-0.6,0-0.9,0s-0.6,0-0.9,0
		c-0.3,0-0.6,0-0.9,0c-0.3,0-0.6,0-0.9,0c0,0,0-0.1,0-0.1c0-1.5,0-3.1,0-4.6c0-0.1,0-0.1,0.1-0.2c0.6-0.7,1.2-1.4,1.9-2.1
		c0,0,0.1-0.1,0.1-0.1c-2,0-3.9,0-5.9,0c0-0.1,0-4.3,0-4.4c0,0,0.1,0,0.1,0c2.4,0,4.7,0,7.1,0c0.2,0,0.5,0,0.7-0.1
		c0.4-0.1,0.7-0.4,0.9-0.8c0-0.1,0-0.1,0.1-0.2c0.1-0.4,0.1-0.7,0.1-1.1c0-5.2,0-10.4,0-15.6C14.3,7.3,14.3,7.3,14.3,7.2z M22,23.8
		C22,23.8,22,23.8,22,23.8c-2.6,2.9-5.2,5.8-7.7,8.8c2.6,0,5.2,0,7.7,0C22,29.7,22,26.8,22,23.8z"/>
	<g>
		<g>
			<g>
				<path class="st1" d="M32.6,6.8c-0.3-0.5-0.6-0.9-1.1-1.2c-0.1-0.1-0.3-0.1-0.4-0.2c0-0.5-0.2-1-0.4-1.4
					c-0.3-0.5-0.6-0.9-1.1-1.2c-0.5-0.3-1.1-0.4-1.7-0.4h-2.3v6.8h1.9V12h2.3c0.6,0,1.2-0.1,1.7-0.4c0.5-0.3,0.9-0.7,1.1-1.2
					C32.9,9.9,33,9.3,33,8.6C33,7.9,32.9,7.3,32.6,6.8z M30.1,6.3c-0.1,0.5-0.2,1-0.5,1.3c-0.3,0.3-0.6,0.5-1.1,0.6V6.2h1.3
					C29.9,6.2,30,6.3,30.1,6.3z M27.5,8.2h-0.9V3.5h1.3c0.7,0,1.2,0.2,1.6,0.6C29.8,4.4,30,4.8,30,5.2c-0.1,0-0.1,0-0.2,0h-2.3V8.2z
					 M31.4,10.3c-0.4,0.4-0.9,0.6-1.6,0.6h-1.3V9.2c0.4-0.1,0.8-0.2,1.1-0.4c0.5-0.3,0.9-0.7,1.1-1.2c0.2-0.3,0.3-0.7,0.3-1
					c0.1,0.1,0.3,0.2,0.4,0.3c0.4,0.4,0.6,1,0.6,1.7C32,9.3,31.8,9.9,31.4,10.3z"/>
			</g>
		</g>
	</g>
</g>
</svg>
