<?xml version="1.0" encoding="utf-8"?>
<!-- Generator: Adobe Illustrator 25.2.0, SVG Export Plug-In . SVG Version: 6.00 Build 0)  -->
<svg version="1.1" id="Layer_1" xmlns="http://www.w3.org/2000/svg" xmlns:xlink="http://www.w3.org/1999/xlink" x="0px" y="0px"
	 viewBox="0 0 48 48" style="enable-background:new 0 0 48 48;" xml:space="preserve">
<g>
	<g>
		<path d="M44.7,9.1H3.3c-1.5,0-2.8-1.2-2.8-2.8s1.2-2.8,2.8-2.8h41.3c1.5,0,2.8,1.2,2.8,2.8S46.2,9.1,44.7,9.1z"/>
	</g>
	<g>
		<path d="M44.7,26.8H28.5c-1.5,0-2.8-1.2-2.8-2.8s1.2-2.8,2.8-2.8h16.2c1.5,0,2.8,1.2,2.8,2.8S46.2,26.8,44.7,26.8z"/>
	</g>
	<g>
		<path d="M7.3,26.8H3.3c-1.5,0-2.8-1.2-2.8-2.8s1.2-2.8,2.8-2.8h3.9c1.5,0,2.8,1.2,2.8,2.8S8.8,26.8,7.3,26.8z"/>
	</g>
	<g>
		<path d="M44.7,44.4H3.3c-1.5,0-2.8-1.2-2.8-2.8c0-1.5,1.2-2.8,2.8-2.8h41.3c1.5,0,2.8,1.2,2.8,2.8C47.4,43.2,46.2,44.4,44.7,44.4z
			"/>
	</g>
	<g>
		<path d="M18,29.2c-2.9,0-5.2-2.3-5.2-5.2s2.3-5.2,5.2-5.2c2.9,0,5.2,2.3,5.2,5.2S20.8,29.2,18,29.2z M18,21.5
			c-1.4,0-2.5,1.1-2.5,2.5s1.1,2.5,2.5,2.5c1.4,0,2.5-1.1,2.5-2.5S19.3,21.5,18,21.5z"/>
	</g>
</g>
</svg>
