<?xml version="1.0" encoding="utf-8"?>
<!-- Generator: Adobe Illustrator 25.2.0, SVG Export Plug-In . SVG Version: 6.00 Build 0)  -->
<svg version="1.1" id="Layer_1" xmlns="http://www.w3.org/2000/svg" xmlns:xlink="http://www.w3.org/1999/xlink" x="0px" y="0px"
	 viewBox="0 0 48 48" style="enable-background:new 0 0 48 48;" xml:space="preserve">
<style type="text/css">
	.st0{fill:#0092FF;}
	.st1{fill:#FFB000;}
</style>
<g>
	<rect x="1.5" y="9.8" class="st0" width="37.5" height="37.5"/>
	<g>
		<g>
			<path class="st1" d="M45.6,0.7h-17h-1.4c-0.5,0-1,0-1.5,0C25.4,0.8,25.2,1,25,1c-0.4,0.2-0.5,0.6-0.5,1c0,0.3,0,0.6,0,0.9
				l-0.1,4.5h-0.2l-5.1,0.1c-0.7,0-1.2,0.5-1.3,1.2c0,0.3,0,0.5-0.1,0.8c0,0.3,0,0.5,0,0.8v18.4l0.9,0.9h17.6l2-0.1
				c0.1,0,0.2,0,0.3,0c0.7-0.1,1.1-0.6,1.1-1.3l0.1-5.3H40l5.1-0.1c0.7,0,1.2-0.5,1.3-1.2c0-0.3,0-0.6,0.1-0.8c0-0.3,0-0.6,0-0.9
				V1.7L45.6,0.7z M36.7,26.4H20.8V10.6h3.6v10.8c0,0.8,0.7,1.5,1.4,1.5h10.8v3.5H36.7z M43.4,19.7H27.5V3.8h15.9V19.7z"/>
		</g>
		<g>
			<path class="st1" d="M42.6,7.5c0,1.3,0,2.6,0,3.9v1c0,0.1,0,0.3,0,0.4V13c0,0.6-0.4,1.2-1,1.4s-1.3,0-1.7-0.5
				c-0.2-0.2-0.3-0.6-0.3-0.9c0-0.4,0-0.8,0-1.1v-2L31.4,18c-0.2,0.2-0.3,0.3-0.5,0.5c-0.3,0.2-0.6,0.4-1,0.4
				c-0.2,0-0.5-0.1-0.7-0.2c-0.6-0.3-0.9-1-0.8-1.7c0.1-0.2,0.2-0.5,0.4-0.7l0.1-0.1c0.3-0.4,0.7-0.8,1.1-1.1l0,0
				c0.2-0.2,1.1-1.1,4.5-4.5l2.9-2.9H35c-0.1,0-0.3,0-0.4,0h-0.2c-0.6,0-1.2-0.4-1.4-1s0-1.2,0.4-1.6c0.2-0.2,0.5-0.3,0.8-0.4
				c0.3,0,0.5-0.1,0.8-0.1h5.6c0.2,0,0.4,0,0.6,0C42,4.7,42.5,5.2,42.6,6C42.6,6.5,42.6,7,42.6,7.5z"/>
		</g>
	</g>
</g>
</svg>
