<?xml version="1.0" encoding="utf-8"?>
<!-- Generator: Adobe Illustrator 25.2.0, SVG Export Plug-In . SVG Version: 6.00 Build 0)  -->
<svg version="1.1" id="Layer_1" xmlns="http://www.w3.org/2000/svg" xmlns:xlink="http://www.w3.org/1999/xlink" x="0px" y="0px"
	 viewBox="0 0 40 40" style="enable-background:new 0 0 40 40;" xml:space="preserve">
<path d="M6.5,28.6c3,0.2,5.6-0.5,8.1-2.3c-2.5-0.2-4.3-1.4-5.2-3.8c0.8,0.1,1.6,0.1,2.3-0.1c0,0,0,0,0-0.1c-0.1,0-0.2-0.1-0.3-0.1
	c-1-0.3-1.8-0.8-2.5-1.6c-0.9-1-1.4-2.1-1.5-3.5c0-0.3,0-0.3,0.3-0.2c0.6,0.3,1.2,0.4,1.8,0.5c0.1,0,0.2,0,0.3,0
	c-0.1-0.1-0.2-0.2-0.3-0.2c-1.1-0.9-1.8-2-2-3.3c-0.2-1.2-0.1-2.4,0.5-3.6c0.1-0.2,0.2-0.2,0.4,0c0.6,0.6,1.2,1.3,1.9,1.8
	c2.2,1.9,4.7,3,7.6,3.5c0.5,0.1,1,0.1,1.5,0.2c0.3,0,0.4,0,0.3-0.3c-0.1-0.7-0.1-1.3,0-2c0.5-2.1,1.7-3.6,3.8-4.2
	c1.9-0.6,3.6-0.2,5.2,1c0,0,0,0,0.1,0c0.4,0.5,0.9,0.5,1.4,0.3c0.8-0.3,1.7-0.6,2.5-1c-0.4,1.2-1.1,2.1-2.1,2.8c0,0,0,0,0,0.1
	c0.3-0.1,0.6-0.1,0.9-0.2c0.3-0.1,0.6-0.2,1-0.3c0.3-0.1,0.6-0.2,1-0.3c-0.2,0.2-0.3,0.4-0.4,0.6c-0.6,0.7-1.2,1.4-1.9,1.9
	c-0.3,0.2-0.4,0.4-0.4,0.8c0,3.5-1,6.7-3,9.6c-2.3,3.3-5.4,5.4-9.4,6.2c-3.2,0.7-6.3,0.5-9.4-0.8c-0.8-0.3-1.5-0.7-2.3-1.1
	C6.6,28.8,6.6,28.7,6.5,28.6C6.5,28.6,6.5,28.6,6.5,28.6z"/>
<g>
	<path d="M232.1-48c0.4-0.4,0.7-0.7,1.1-1.1c0.8-0.7,1.7-1,2.7-1.2c1.1-0.2,2.2-0.2,3.2,0c1.6,0.3,2.9,1,3.8,2.4c0.6,1,1,2,1.1,3.2
		c0.1,1,0.2,2.1,0.2,3.1c0,2.9,0,5.8,0,8.7c0,0.4-0.1,0.8-0.5,1c-0.2,0.1-0.4,0.1-0.6,0.1c-1.3,0-2.6,0-3.9,0
		c-0.7,0-1.1-0.4-1.1-1.1c0-2.8,0-5.7,0-8.5c0-0.7-0.1-1.5-0.3-2.2c-0.4-1.2-1.2-1.8-2.4-1.9c-1.1-0.1-1.9,0.3-2.6,1.2
		c-0.3,0.5-0.6,1-0.7,1.6c-0.1,0.5-0.2,0.9-0.2,1.4c0,2.8,0,5.5,0,8.3c0,0.7-0.4,1.1-1.1,1.1c-1.2,0-2.4,0-3.6,0
		c-0.7,0-1.1-0.4-1.1-1.1c0-5.4,0-10.8,0-16.2c0-0.6,0.4-1.1,1.1-1.1c1.3,0,2.5,0,3.8,0c0.6,0,1,0.4,1,1
		C232.1-48.7,232.1-48.3,232.1-48z"/>
	<path d="M217.9-40.9c0-2.7,0-5.4,0-8.1c0-0.8,0.3-1.1,1.1-1.1c1.2,0,2.5,0,3.7,0c0.6,0,1,0.3,1.1,1c0,0.1,0,0.2,0,0.4
		c0,5.2,0,10.5,0,15.7c0,0.1,0,0.2,0,0.4c-0.1,0.6-0.4,1-1,1c-1.3,0-2.6,0-3.9,0c-0.7,0-1-0.4-1-1.1
		C217.9-35.5,217.9-38.2,217.9-40.9z"/>
	<path d="M217-55.3c0-2.1,1.7-3.8,3.8-3.8c2.1,0,3.8,1.7,3.8,3.8c0,2.1-1.7,3.8-3.8,3.8C218.7-51.5,217-53.2,217-55.3z"/>
</g>
<path d="M305.9-31.8c-3.1-0.1-6-0.7-8.7-2.4c-1.7-1-3.1-2.3-4-4.1c-0.8-1.4-1-3-0.8-4.6c0.1-0.4-0.1-0.7-0.4-0.9
	c-0.7-0.5-1.2-1.2-1.4-2.1c-0.6-2.7,1.8-4.8,4.4-4c0.5,0.1,0.9,0.4,1.3,0.6c0.3,0.2,0.3,0.2,0.6,0c0.7-0.5,1.6-0.9,2.4-1.3
	c2-0.9,4.1-1.3,6.3-1.3c0.3,0,0.3,0,0.4-0.3c0.6-1.9,1.2-3.9,1.9-5.8c0.2-0.6,0.5-0.7,1.1-0.6c1.7,0.4,3.5,0.7,5.2,1.1
	c0.2,0,0.3,0,0.4-0.2c0.4-0.5,0.9-0.8,1.6-0.9c1.4-0.2,2.8,0.7,3.1,2.2c0.2,1.4-0.8,2.7-2.2,2.9c-1.4,0.2-2.7-0.7-3-2
	c0-0.2-0.1-0.3-0.3-0.3c-1.3-0.3-2.7-0.6-4-0.8c-0.3-0.1-0.4-0.1-0.5,0.3c-0.5,1.5-1,3-1.5,4.5c-0.1,0.3-0.1,0.3,0.2,0.3
	c2.2,0.2,4.2,0.7,6.2,1.7c0.5,0.3,1,0.5,1.5,0.9c0.1,0.1,0.2,0.1,0.3,0c0.7-0.6,1.5-0.9,2.4-0.9c1.5,0.1,2.5,0.8,3.1,2.2
	c0.6,1.3,0.3,2.5-0.6,3.6c-0.3,0.3-0.5,0.5-0.9,0.7c-0.2,0.1-0.2,0.2-0.1,0.3c0.3,1.5,0.1,3-0.5,4.4c-0.7,1.6-1.9,3-3.3,4
	c-1.9,1.4-4,2.2-6.2,2.6c-0.5,0.1-1.1,0.2-1.6,0.2C307.4-31.8,306.6-31.8,305.9-31.8z M306.1-35.4c0.5,0,1,0,1.6-0.1
	c1.2-0.2,2.4-0.6,3.4-1.4c0.2-0.2,0.4-0.3,0.5-0.6c0.2-0.4,0.1-0.8-0.3-1c-0.3-0.2-0.7-0.2-1,0c-1.1,0.8-2.3,1.2-3.6,1.3
	c-1.7,0.1-3.2-0.3-4.6-1.3c-0.5-0.3-0.9-0.2-1.2,0.1c-0.2,0.2-0.2,0.4-0.1,0.7c0.1,0.3,0.3,0.5,0.5,0.6
	C302.6-35.9,304.3-35.4,306.1-35.4z M303.5-43.5c0-1.2-0.9-2.2-2.1-2.2c-1.3,0-2.2,0.9-2.2,2.1c0,1.2,1,2.2,2.2,2.2
	C302.5-41.4,303.5-42.4,303.5-43.5z M311-41.4c1.1,0,2.1-1,2.1-2.1c0-1.2-1-2.2-2.1-2.2c-1.2,0-2.2,1-2.2,2.1
	C308.8-42.4,309.7-41.4,311-41.4z"/>
</svg>
