<?xml version="1.0" encoding="utf-8"?>
<!-- Generator: Adobe Illustrator 25.2.0, SVG Export Plug-In . SVG Version: 6.00 Build 0)  -->
<svg version="1.1" id="Layer_1" xmlns="http://www.w3.org/2000/svg" xmlns:xlink="http://www.w3.org/1999/xlink" x="0px" y="0px"
	 viewBox="0 0 40 40" style="enable-background:new 0 0 40 40;" xml:space="preserve">
<style type="text/css">
	.st0{fill:#FFB000;}
</style>
<path class="st0" d="M13.8,29.3c0-6.2,0-12.4,0-18.7c5.4,3.1,10.8,6.2,16.2,9.3C24.6,23.1,19.2,26.2,13.8,29.3z"/>
<path d="M-3.8-20.8c0-5.3,0-10.5,0-15.8c0-0.4-0.1-0.5-0.5-0.5c-1.6,0-3.3,0-4.9,0c-0.3,0-0.4-0.1-0.4-0.4c0-2,0-3.9,0-5.9
	c0-0.3,0.1-0.4,0.4-0.4c1.7,0,3.3,0,5,0c0.3,0,0.4-0.1,0.4-0.4c0-1.6,0-3.2,0-4.7c0-1.9,0.4-3.7,1.4-5.3c1.3-2.1,3.3-3.1,5.7-3.5
	c2.1-0.3,4.3,0,6.4,0.3c0.2,0,0.3,0.1,0.3,0.4c0,1.7,0,3.3,0,5c0,0.3-0.1,0.4-0.4,0.4c-1.1,0-2.2-0.1-3.4,0.1
	c-1.8,0.3-2.8,1.4-2.9,3.2c0,1.4,0,2.9,0,4.3c0,0.3,0.2,0.3,0.4,0.3c1.8,0,3.6,0,5.4,0c0.5,0,0.6,0,0.5,0.5
	c-0.3,1.9-0.6,3.8-0.9,5.7C8.6-37.1,8.5-37,8.1-37c-1.4,0-2.9,0-4.3,0c-0.4,0-0.5,0.1-0.5,0.5c0,5.3,0,10.5,0,15.8
	C1-20.8-1.4-20.8-3.8-20.8z"/>
<g>
	<path d="M74.5-30.8c-1.4,0-2.9,0-4.3,0c-1.2,0-2.4-0.1-3.5-0.3c-2-0.5-3.6-1.6-4.6-3.4c-0.6-1-0.9-2-1-3.1c-0.2-1.7-0.2-3.3-0.2-5
		c0-1.8,0-3.7,0-5.5c0-1.2,0-2.3,0.2-3.5c0.4-2.1,1.4-3.8,3.2-5c1-0.7,2.2-1.1,3.4-1.2c1.4-0.1,2.9-0.2,4.3-0.2c2.1,0,4.2,0,6.3,0
		c1.2,0,2.4,0,3.6,0.3c2.2,0.4,3.9,1.5,5,3.5c0.6,1.1,0.9,2.2,1,3.4c0.2,1.8,0.1,3.7,0.1,5.5c0,1.7,0,3.4,0,5.1c0,1.2,0,2.4-0.3,3.5
		c-0.7,2.8-2.4,4.7-5.2,5.5c-1,0.3-2.1,0.3-3.1,0.4C77.7-30.7,76.1-30.7,74.5-30.8C74.5-30.7,74.5-30.7,74.5-30.8z M74.4-33.1
		C74.4-33.2,74.4-33.2,74.4-33.1c1.4-0.1,2.8,0,4.3-0.1c1,0,2,0,2.9-0.2c2-0.5,3.2-1.7,3.7-3.6c0.3-1.1,0.3-2.2,0.3-3.3
		c0-2.2,0-4.5,0-6.7c0-1.3,0-2.6-0.2-3.9c-0.3-2.2-1.7-3.7-3.9-4.1c-1-0.2-2.1-0.2-3.2-0.2c-1.9,0-3.8,0-5.7,0c-1.6,0-3.1,0-4.7,0.2
		c-0.9,0.1-1.7,0.3-2.4,0.8c-1.1,0.8-1.7,1.8-2,3.1c-0.2,1-0.2,2-0.2,3c0,2.9,0,5.8,0,8.7c0,0.8,0,1.7,0.2,2.5
		c0.4,1.7,1.3,2.9,3,3.5c0.9,0.3,1.8,0.4,2.7,0.4C71-33.2,72.7-33.2,74.4-33.1z"/>
	<path d="M74.4-37.3c-3.9,0-7-3.2-7-7c0-3.9,3.2-7,7.1-6.9c3.8,0,7,3.2,6.9,7.1C81.4-40.4,78.2-37.3,74.4-37.3z M79-44.3
		c0-2.4-1.9-4.5-4.4-4.5c-2.6-0.1-4.6,2-4.7,4.4c-0.1,2.5,2,4.6,4.4,4.6C76.9-39.8,79-41.8,79-44.3z"/>
	<path d="M83.3-51.6c0,0.9-0.8,1.6-1.7,1.6c-0.9,0-1.6-0.8-1.6-1.7s0.8-1.6,1.7-1.6C82.6-53.2,83.3-52.4,83.3-51.6z"/>
</g>
<path d="M138.2-34.5c3.4,0.3,6.5-0.6,9.3-2.7c-2.9-0.2-4.9-1.7-6-4.4c0.9,0.1,1.8,0.1,2.7-0.1v-0.1c-0.1,0-0.2-0.1-0.3-0.1
	c-1.1-0.3-2.1-0.9-2.9-1.8c-1-1.1-1.6-2.5-1.7-4c0-0.3,0-0.4,0.3-0.2c0.7,0.3,1.4,0.5,2.1,0.6c0.1,0,0.2,0,0.3,0
	c-0.1-0.1-0.2-0.2-0.3-0.3c-1.2-1-2-2.2-2.3-3.8c-0.3-1.4-0.1-2.8,0.6-4.1c0.1-0.2,0.2-0.2,0.4,0c0.7,0.7,1.4,1.5,2.1,2.1
	c2.5,2.2,5.4,3.5,8.7,4.1c0.6,0.1,1.2,0.1,1.8,0.2c0.3,0,0.4,0,0.3-0.4c-0.1-0.8-0.2-1.5,0-2.3c0.6-2.4,2-4.1,4.4-4.9
	c2.2-0.7,4.1-0.2,5.9,1.1c0,0,0.1,0,0.1,0.1c0.4,0.6,1,0.5,1.6,0.3c1-0.4,1.9-0.7,2.9-1.1c-0.4,1.3-1.3,2.4-2.4,3.2c0,0,0,0,0,0.1
	c0.4-0.1,0.7-0.1,1.1-0.2c0.4-0.1,0.7-0.2,1.1-0.3c0.4-0.1,0.7-0.2,1.2-0.4c-0.2,0.3-0.3,0.5-0.5,0.7c-0.6,0.8-1.4,1.6-2.2,2.2
	c-0.3,0.2-0.4,0.5-0.4,0.9c0,4-1.1,7.7-3.4,11c-2.6,3.8-6.2,6.2-10.7,7.1c-3.7,0.8-7.3,0.5-10.8-0.9c-0.9-0.4-1.8-0.9-2.6-1.3
	C138.3-34.3,138.3-34.3,138.2-34.5C138.2-34.4,138.2-34.4,138.2-34.5z"/>
<g>
	<path d="M232.1-48c0.4-0.4,0.7-0.7,1.1-1.1c0.8-0.7,1.7-1,2.7-1.2c1.1-0.2,2.2-0.2,3.2,0c1.6,0.3,2.9,1,3.8,2.4c0.6,1,1,2,1.1,3.2
		c0.1,1,0.2,2.1,0.2,3.1c0,2.9,0,5.8,0,8.7c0,0.4-0.1,0.8-0.5,1c-0.2,0.1-0.4,0.1-0.6,0.1c-1.3,0-2.6,0-3.9,0
		c-0.7,0-1.1-0.4-1.1-1.1c0-2.8,0-5.7,0-8.5c0-0.7-0.1-1.5-0.3-2.2c-0.4-1.2-1.2-1.8-2.4-1.9c-1.1-0.1-1.9,0.3-2.6,1.2
		c-0.3,0.5-0.6,1-0.7,1.6c-0.1,0.5-0.2,0.9-0.2,1.4c0,2.8,0,5.5,0,8.3c0,0.7-0.4,1.1-1.1,1.1c-1.2,0-2.4,0-3.6,0
		c-0.7,0-1.1-0.4-1.1-1.1c0-5.4,0-10.8,0-16.2c0-0.6,0.4-1.1,1.1-1.1c1.3,0,2.5,0,3.8,0c0.6,0,1,0.4,1,1
		C232.1-48.7,232.1-48.3,232.1-48z"/>
	<path d="M217.9-40.9c0-2.7,0-5.4,0-8.1c0-0.8,0.3-1.1,1.1-1.1c1.2,0,2.5,0,3.7,0c0.6,0,1,0.3,1.1,1c0,0.1,0,0.2,0,0.4
		c0,5.2,0,10.5,0,15.7c0,0.1,0,0.2,0,0.4c-0.1,0.6-0.4,1-1,1c-1.3,0-2.6,0-3.9,0c-0.7,0-1-0.4-1-1.1
		C217.9-35.5,217.9-38.2,217.9-40.9z"/>
	<path d="M217-55.3c0-2.1,1.7-3.8,3.8-3.8s3.8,1.7,3.8,3.8s-1.7,3.8-3.8,3.8S217-53.2,217-55.3z"/>
</g>
<path d="M305.9-31.8c-3.1-0.1-6-0.7-8.7-2.4c-1.7-1-3.1-2.3-4-4.1c-0.8-1.4-1-3-0.8-4.6c0.1-0.4-0.1-0.7-0.4-0.9
	c-0.7-0.5-1.2-1.2-1.4-2.1c-0.6-2.7,1.8-4.8,4.4-4c0.5,0.1,0.9,0.4,1.3,0.6c0.3,0.2,0.3,0.2,0.6,0c0.7-0.5,1.6-0.9,2.4-1.3
	c2-0.9,4.1-1.3,6.3-1.3c0.3,0,0.3,0,0.4-0.3c0.6-1.9,1.2-3.9,1.9-5.8c0.2-0.6,0.5-0.7,1.1-0.6c1.7,0.4,3.5,0.7,5.2,1.1
	c0.2,0,0.3,0,0.4-0.2c0.4-0.5,0.9-0.8,1.6-0.9c1.4-0.2,2.8,0.7,3.1,2.2c0.2,1.4-0.8,2.7-2.2,2.9c-1.4,0.2-2.7-0.7-3-2
	c0-0.2-0.1-0.3-0.3-0.3c-1.3-0.3-2.7-0.6-4-0.8c-0.3-0.1-0.4-0.1-0.5,0.3c-0.5,1.5-1,3-1.5,4.5c-0.1,0.3-0.1,0.3,0.2,0.3
	c2.2,0.2,4.2,0.7,6.2,1.7c0.5,0.3,1,0.5,1.5,0.9c0.1,0.1,0.2,0.1,0.3,0c0.7-0.6,1.5-0.9,2.4-0.9c1.5,0.1,2.5,0.8,3.1,2.2
	c0.6,1.3,0.3,2.5-0.6,3.6c-0.3,0.3-0.5,0.5-0.9,0.7c-0.2,0.1-0.2,0.2-0.1,0.3c0.3,1.5,0.1,3-0.5,4.4c-0.7,1.6-1.9,3-3.3,4
	c-1.9,1.4-4,2.2-6.2,2.6c-0.5,0.1-1.1,0.2-1.6,0.2C307.4-31.8,306.6-31.8,305.9-31.8z M306.1-35.4c0.5,0,1,0,1.6-0.1
	c1.2-0.2,2.4-0.6,3.4-1.4c0.2-0.2,0.4-0.3,0.5-0.6c0.2-0.4,0.1-0.8-0.3-1c-0.3-0.2-0.7-0.2-1,0c-1.1,0.8-2.3,1.2-3.6,1.3
	c-1.7,0.1-3.2-0.3-4.6-1.3c-0.5-0.3-0.9-0.2-1.2,0.1c-0.2,0.2-0.2,0.4-0.1,0.7s0.3,0.5,0.5,0.6C302.6-35.9,304.3-35.4,306.1-35.4z
	 M303.5-43.5c0-1.2-0.9-2.2-2.1-2.2c-1.3,0-2.2,0.9-2.2,2.1c0,1.2,1,2.2,2.2,2.2C302.5-41.4,303.5-42.4,303.5-43.5z M311-41.4
	c1.1,0,2.1-1,2.1-2.1c0-1.2-1-2.2-2.1-2.2c-1.2,0-2.2,1-2.2,2.1C308.8-42.4,309.7-41.4,311-41.4z"/>
</svg>
